<?xml version="1.0" encoding="utf-8"?>
<!-- Generator: Adobe Illustrator 16.0.0, SVG Export Plug-In . SVG Version: 6.00 Build 0)  -->
<!DOCTYPE svg PUBLIC "-//W3C//DTD SVG 1.1//EN" "http://www.w3.org/Graphics/SVG/1.1/DTD/svg11.dtd">
<svg version="1.1" id="Layer_1" xmlns="http://www.w3.org/2000/svg" xmlns:xlink="http://www.w3.org/1999/xlink" x="0px" y="0px"
	 width="400px" height="200px" viewBox="0 0 400 200" enable-background="new 0 0 400 200" xml:space="preserve">
<g>
	<g>
		<g>
			<path fill-rule="evenodd" clip-rule="evenodd" fill="#ED6756" d="M26.101,34.72c0,0,0.048,0.164,0.098,0.481
				s0.107,0.786,0.145,1.396c0.075,1.22,0.068,3.004-0.243,5.257c-0.645,4.506-0.856,10.889,0,18.399
				c0.224,7.509,0.31,16.146,0,25.158c1.51,9.012-0.003,18.399,0,27.411c1.452,9.012-0.992,17.647,0,25.157
				c0.39,7.51-0.045,13.894,0,18.399c0.154,4.505,0,7.134,0,7.134h-1.032c0,0-1.434-2.629-1.234-7.134
				c0.29-4.506,0.272-10.89,0-18.399c0.422-7.51-1.239-16.146,0-25.157c1.365-9.012-0.128-18.399,0-27.411
				c1.573-9.012,0.078-17.648,0-25.158c0.352-7.51-0.714-13.893,0-18.399c-0.535-4.506,1.234-7.134,1.234-7.134
				S25.918,34.72,26.101,34.72z"/>
		</g>
	</g>
</g>
<g>
	<g>
		<g>
			<path fill-rule="evenodd" clip-rule="evenodd" fill="#ED6756" d="M371.273,162.143c0,0-0.389,0.051-1.138,0.106
				c-0.75,0.056-1.86,0.122-3.304,0.171c-2.888,0.098-7.107,0.124-12.441-0.145c-10.668-0.561-25.774-0.654-43.539,0.343
				c-17.77,0.364-38.206,0.611-59.533,0.47c-21.314,1.678-43.54,0.34-64.865,0.511c-21.313,1.62-41.77-0.663-59.533,0.469
				c-17.768,0.53-32.877,0.215-43.539,0.344c-10.661,0.238-16.882,0.133-16.882,0.133l-0.008-1.032c0,0,6.208-1.482,16.873-1.367
				c10.665,0.206,25.77,0.068,43.539-0.344c17.775,0.282,38.198-1.54,59.534-0.469c21.336,1.197,43.538-0.471,64.864-0.511
				c21.338,1.404,41.764-0.252,59.533-0.47c17.774,0.212,32.871-0.973,43.54-0.343c10.658-0.619,16.892,1.102,16.892,1.102
				S371.271,161.96,371.273,162.143z"/>
		</g>
		<g>
			<path fill="#ED6756" d="M361.07,168.391c-0.226-0.348-0.126-0.812,0.222-1.038l9.631-6.24l-9.728-6.087
				c-0.352-0.221-0.458-0.684-0.238-1.034s0.686-0.455,1.034-0.238l10.725,6.713c0.218,0.136,0.351,0.374,0.353,0.63
				s-0.127,0.496-0.342,0.636l-10.618,6.881c-0.124,0.08-0.264,0.119-0.401,0.12C361.459,168.734,361.216,168.613,361.07,168.391z"
				/>
		</g>
	</g>
</g>
<g>
	<rect x="46.523" y="37.825" fill="#42B3C6" width="238.477" height="3.452"/>
	<g>
		<g>
			<path fill-rule="evenodd" clip-rule="evenodd" fill="#42B3C6" d="M282.936,41.277c-0.009,0.001-0.052-0.123-0.11-0.323
				c-0.046-0.169-0.114-0.42-0.204-0.75c-0.174,0.029-0.366,0.062-0.578,0.097c-0.091,0.014-0.186,0.028-0.284,0.043l-0.141,0.02
				c-0.16,0.006-0.324,0.012-0.49,0.019c-1.521,0.046-3.271,0.075-5.233,0.07c-3.926-0.011-8.708-0.157-14.245-0.564
				c-16.928-1.289-40.909-1.713-69.123,0c-28.212,0.448-60.659,0.62-94.514,0c-8.464,0.755-17.017,1.132-25.613,1.273
				c-4.298,0.071-8.607,0.082-12.922,0.053l-6.475-0.074l-3.081-0.056c-0.047-0.021-0.113-0.042-0.204-0.066l-0.081-2.858
				c0.062,0.024,0.144,0.05,0.25,0.077l0.041,0.01l0.375,0.01l0.756,0.021l1.511,0.042l6.042,0.172
				c4.025,0.115,8.045,0.229,12.054,0.343c8.018,0.213,15.995,0.377,23.896,0.376c33.855-2.904,66.301,1.984,94.514,0
				c28.213-0.78,52.194,0.09,69.122,0c16.928-0.309,26.803,0,26.803,0v2.064c0,0-9.875,2.868-26.803,2.469
				c-16.928-0.581-40.909-0.544-69.122,0c-28.214-0.843-60.659,2.479-94.514,0c-7.9-0.637-15.877-0.963-23.896-1.092
				c-4.009-0.064-8.028-0.079-12.054-0.059c-4.514,0.05-9.036,0.101-13.559,0.152l-0.07-6.463l4.702-0.073l3.318-0.079l6.475-0.168
				c4.314-0.111,8.624-0.221,12.922-0.332c8.596-0.202,17.148-0.34,25.613-0.276c33.855,3.146,66.302,0.156,94.514,0
				c28.213,0.704,52.195-1.427,69.123,0c5.561-0.352,10.36-0.206,14.288,0.149c1.965,0.177,3.711,0.406,5.226,0.652
				c0.216,0.031,0.317,0.062,0.616,0.093c0.26,0.032,0.515,0.063,0.765,0.094c0.469,0.065,0.918,0.128,1.349,0.189
				c0.821,0.126,1.489,0.252,2.027,0.373c-0.252,1.703-0.482,2.772-0.649,3.437c-0.167,0.661-0.271,0.936-0.271,0.936
				S283.3,41.277,282.936,41.277z"/>
		</g>
	</g>
</g>
<g>
	<rect x="45.068" y="73.913" fill="#42B3C6" width="141.933" height="3.452"/>
	<g>
		<g>
			<path fill-rule="evenodd" clip-rule="evenodd" fill="#42B3C6" d="M184.937,77.365c-0.023,0-0.277-0.51-0.436-0.952
				c-0.231,0.049-0.447,0.089-0.658,0.11l-0.159,0.013l-0.081,0.004l-0.333,0.001c-0.485-0.005-0.993-0.011-1.523-0.017
				c-2.121-0.048-4.6-0.206-7.4-0.548c-10.173-1.289-24.583-1.713-41.539,0c-16.954,0.448-36.452,0.62-56.797,0
				c-5.086,0.755-10.226,1.132-15.392,1.273c-2.583,0.071-5.173,0.082-7.766,0.053l-3.891-0.074l-0.486-0.013l-0.018-0.014
				l-0.045-0.029c-0.036-0.021-0.085-0.042-0.148-0.066l-0.138-2.8c0.089,0.05,0.138,0.103,0.404,0.157l3.458,0.167
				c2.303,0.108,4.603,0.215,6.897,0.323c4.587,0.199,9.152,0.347,13.675,0.346c20.345-2.904,39.843,1.984,56.797,0
				c16.955-0.78,31.366,0.09,41.538,0c10.173-0.309,16.107,0,16.107,0v2.064c0,0-5.934,2.868-16.107,2.469
				c-10.172-0.581-24.583-0.544-41.538,0c-16.955-0.843-36.452,2.479-56.797,0c-4.523-0.607-9.087-0.932-13.675-1.072
				c-2.294-0.07-4.594-0.094-6.897-0.085c-2.779,0.04-5.562,0.079-8.348,0.118l-0.111-6.422l5.434-0.152l3.891-0.168
				c2.593-0.111,5.183-0.221,7.766-0.332c5.166-0.202,10.305-0.34,15.392-0.276c20.345,3.146,39.843,0.156,56.797,0
				c16.955,0.704,31.366-1.427,41.539,0c2.817-0.296,5.31-0.239,7.433-0.001c1.287,0.171,2.468,0.328,3.542,0.47
				c1.326,0.188,2.337,0.398,3.068,0.611c-0.343,1.939-0.69,3.14-0.952,3.856c-0.262,0.714-0.438,0.985-0.438,0.985
				S185.301,77.365,184.937,77.365z"/>
		</g>
	</g>
</g>
<g>
	<rect x="45.068" y="91.828" fill="#42B3C6" width="129.266" height="3.452"/>
	<g>
		<g>
			<path fill-rule="evenodd" clip-rule="evenodd" fill="#42B3C6" d="M172.27,95.28c-0.024-0.003-0.301-0.506-0.458-0.93
				c-0.207,0.044-0.398,0.079-0.586,0.095c-0.095,0.008-0.188,0.012-0.288,0.011c-0.423-0.007-0.864-0.014-1.325-0.022
				c-1.885-0.054-4.072-0.213-6.53-0.542c-9.286-1.289-22.442-1.713-37.919,0c-15.477,0.448-33.276,0.62-51.849,0
				c-4.644,0.755-9.335,1.132-14.051,1.273c-2.358,0.071-4.722,0.082-7.089,0.053l-3.552-0.074
				c-0.212-0.004-0.137-0.008-0.157-0.013l-0.016-0.014l-0.044-0.029c-0.035-0.021-0.082-0.042-0.142-0.066l-0.153-2.786
				c0.062,0.049,0.166,0.102,0.32,0.156c-0.054,0.014,0.286,0.027,0.539,0.041l0.78,0.042l1.559,0.083
				c2.078,0.106,4.152,0.212,6.221,0.318c4.138,0.195,8.254,0.34,12.333,0.339c18.573-2.904,36.372,1.984,51.849,0
				c15.477-0.78,28.633,0.09,37.919,0c9.287-0.309,14.704,0,14.704,0v2.064c0,0-5.417,2.868-14.704,2.469
				c-9.286-0.581-22.442-0.544-37.919,0c-15.478-0.843-33.276,2.479-51.849,0c-4.079-0.6-8.196-0.924-12.333-1.067
				c-2.069-0.072-4.143-0.098-6.221-0.091c-2.55,0.036-5.104,0.073-7.66,0.109l-0.121-6.413l5.095-0.152l3.552-0.168
				c2.367-0.111,4.731-0.221,7.089-0.332c4.716-0.202,9.407-0.34,14.051-0.276c18.573,3.146,36.372,0.156,51.849,0
				c15.477,0.704,28.633-1.427,37.919,0c2.467-0.284,4.661-0.243,6.548-0.03c0.489,0.054,0.884,0.118,1.396,0.19
				c0.725,0.072,1.388,0.153,1.986,0.24c1.197,0.174,2.128,0.372,2.814,0.575c-0.358,1.983-0.731,3.216-1.015,3.946
				c-0.284,0.728-0.478,0.999-0.478,0.999S172.634,95.28,172.27,95.28z"/>
		</g>
	</g>
</g>
<g>
	<rect x="45.068" y="127.659" fill="#42B3C6" width="89.266" height="3.452"/>
	<g>
		<g>
			<path fill-rule="evenodd" clip-rule="evenodd" fill="#42B3C6" d="M132.27,131.111c-0.029-0.021-0.425-0.472-0.536-0.852
				c-0.248,0.042-0.437,0.043-0.705-0.034c-0.042-0.01-0.052-0.021-0.125-0.033c-0.146-0.013-0.295-0.026-0.447-0.04
				c-0.302-0.034-0.612-0.069-0.932-0.105c-0.638-0.082-1.309-0.188-2.012-0.323c-6.488-1.288-15.678-1.714-26.491,0
				c-10.812,0.448-23.247,0.62-36.222,0c-3.244,0.755-6.521,1.133-9.816,1.273c-1.647,0.07-3.299,0.082-4.952,0.053l-1.241-0.03
				l-0.31-0.01c-0.018-0.003-0.008-0.007-0.014-0.01l-0.018-0.023c-0.031-0.033-0.088-0.075-0.187-0.122
				c-0.066-1.046-0.143-1.968-0.226-2.713c0.039,0.049,0.104,0.1,0.202,0.151c0.147,0.052,0.002,0.104,0.925,0.156
				c1.365,0.098,2.727,0.195,4.084,0.293c2.717,0.178,5.42,0.306,8.1,0.305c12.975-2.904,25.41,1.984,36.222,0
				c10.812-0.78,20.003,0.09,26.491,0c6.488-0.309,10.272,0,10.272,0v2.064c0,0-3.784,2.867-10.272,2.469
				c-6.487-0.58-15.678-0.544-26.491,0c-10.812-0.844-23.247,2.479-36.222,0c-2.68-0.564-5.383-0.884-8.1-1.039
				c-1.358-0.078-2.72-0.114-4.084-0.119l-2.575,0.015l-2.902,0.055c-0.053-2.122-0.107-4.247-0.161-6.372l3.565-0.152l0.926-0.041
				l0.774-0.042l1.241-0.086c1.654-0.11,3.306-0.221,4.952-0.331c3.294-0.201,6.572-0.34,9.816-0.276
				c12.975,3.146,25.41,0.155,36.222,0c10.812,0.704,20.003-1.427,26.491,0c0.708-0.116,1.383-0.179,2.024-0.196
				c0.321-0.009,0.633-0.007,0.936,0.006c0.415,0.021,0.818,0.043,1.21,0.063c2.006,0.121,3.569,0.376,4.563,0.682
				c-0.395,2.154-0.874,3.533-1.253,4.314c-0.38,0.785-0.661,1.052-0.661,1.052S132.634,131.111,132.27,131.111z"/>
		</g>
	</g>
</g>
<g>
	<rect x="45.068" y="55.997" fill="#42B3C6" width="177.265" height="3.452"/>
	<g>
		<g>
			<path fill-rule="evenodd" clip-rule="evenodd" fill="#42B3C6" d="M220.269,59.449c-0.011,0.001-0.066-0.125-0.141-0.317
				c-0.073-0.192-0.163-0.438-0.242-0.688c-0.293,0.059-0.572,0.11-0.844,0.144l-0.103,0.012c-0.131,0.003-0.264,0.006-0.398,0.01
				c-0.297,0.004-0.603,0.008-0.916,0.013c-0.628-0.001-1.29-0.002-1.985-0.002c-2.781-0.032-6.093-0.186-9.876-0.558
				c-12.645-1.289-30.558-1.713-51.633,0c-21.075,0.448-45.311,0.62-70.601,0c-6.323,0.755-12.711,1.132-19.132,1.273
				c-3.21,0.071-6.43,0.082-9.652,0.053l-4.837-0.074l-1.21-0.026l-0.151-0.003l-0.073-0.002l-0.003-0.001l-0.012-0.007
				l-0.027-0.015c-0.04-0.021-0.095-0.042-0.168-0.066l-0.109-2.829c0.044,0.025,0.104,0.051,0.18,0.077l0.127,0.04l1.014,0.041
				l4.403,0.169c2.934,0.111,5.863,0.223,8.784,0.333c5.843,0.206,11.656,0.362,17.415,0.361c25.29-2.904,49.526,1.984,70.601,0
				c21.075-0.78,38.988,0.09,51.633,0c12.646-0.309,20.021,0,20.021,0v2.064c0,0-7.376,2.868-20.021,2.469
				c-12.645-0.581-30.558-0.544-51.633,0c-21.075-0.843-45.311,2.479-70.601,0c-5.759-0.622-11.572-0.947-17.415-1.082
				c-2.922-0.067-5.851-0.087-8.784-0.072c-3.416,0.044-6.836,0.089-10.259,0.134l-0.092-6.441l3.494-0.073l2.887-0.079l4.837-0.168
				c3.223-0.111,6.442-0.221,9.652-0.332c6.421-0.202,12.81-0.34,19.132-0.276c25.29,3.146,49.526,0.156,70.601,0
				c21.075,0.704,38.988-1.427,51.633,0c3.795-0.321,7.114-0.227,9.896,0.062c0.696,0.072,1.358,0.157,1.985,0.25
				c0.313,0.05,0.618,0.099,0.915,0.146c0.167,0.025,0.254,0.051,0.479,0.077c0.222,0.027,0.439,0.053,0.654,0.08
				c1.693,0.214,2.94,0.45,3.815,0.679c-0.305,1.831-0.6,2.97-0.817,3.664c-0.218,0.69-0.359,0.965-0.359,0.965
				S220.633,59.449,220.269,59.449z"/>
		</g>
	</g>
</g>
<g>
	<rect x="45.068" y="109.743" fill="#42B3C6" width="118.6" height="3.453"/>
	<g>
		<g>
			<path fill-rule="evenodd" clip-rule="evenodd" fill="#42B3C6" d="M161.604,113.196c-0.025-0.006-0.327-0.502-0.479-0.91
				c-0.186,0.039-0.357,0.068-0.525,0.08c-0.084,0.006-0.169,0.008-0.258,0.004c-0.303-0.009-0.619-0.018-0.947-0.027
				c-1.686-0.061-3.626-0.219-5.795-0.535c-8.54-1.288-20.638-1.714-34.872,0c-14.233,0.448-30.603,0.62-47.683,0
				c-4.27,0.755-8.585,1.133-12.921,1.273c-2.168,0.07-4.342,0.082-6.519,0.053l-1.633-0.03l-1.5-0.043
				c-0.03-0.033-0.092-0.075-0.207-0.122c-0.05-1.029-0.106-1.964-0.167-2.771c0.055,0.05,0.149,0.103,0.288,0.156l0.054,0.02
				c0.015,0.007,0.016,0.014,0.174,0.021l0.708,0.041l1.416,0.081c1.887,0.105,3.771,0.209,5.65,0.313
				c3.759,0.191,7.499,0.333,11.205,0.332c17.08-2.904,33.449,1.984,47.682,0c14.234-0.78,26.332,0.09,34.872,0
				c8.54-0.31,13.522,0,13.522,0v2.063c0,0-4.982,2.868-13.522,2.47c-8.54-0.581-20.638-0.544-34.872,0
				c-14.234-0.843-30.602,2.479-47.682,0c-3.706-0.593-7.446-0.916-11.205-1.062c-1.879-0.073-3.763-0.102-5.65-0.097l-3.057,0.029
				l-4.022,0.071l-0.129-6.404l4.741-0.152l3.335-0.169c2.177-0.11,4.351-0.221,6.519-0.331c4.336-0.201,8.651-0.34,12.921-0.276
				c17.08,3.146,33.449,0.155,47.683,0c14.234,0.704,26.332-1.427,34.872,0c2.172-0.272,4.113-0.246,5.8-0.056
				c0.602,0.095,2.221,0.23,3.257,0.391c1.091,0.161,1.956,0.346,2.608,0.537c-0.372,2.022-0.771,3.291-1.077,4.034
				c-0.306,0.743-0.52,1.016-0.52,1.016S161.968,113.196,161.604,113.196z"/>
		</g>
	</g>
</g>
<g>
	<rect x="45.068" y="145.574" fill="#42B3C6" width="62.271" height="3.452"/>
	<g>
		<g>
			<path fill-rule="evenodd" clip-rule="evenodd" fill="#42B3C6" d="M105.275,149.026c-0.018,0.002-0.166-0.133-0.306-0.279
				c-0.14-0.158-0.272-0.277-0.258-0.545c-0.115-0.007-0.207-0.048-0.334-0.137c-0.075-0.054-0.153-0.111-0.235-0.171l-0.165-0.117
				c-0.019-0.01-0.024-0.021-0.055-0.032l-0.136-0.034l-0.276-0.072c-4.599-1.289-11.114-1.713-18.778,0
				c-7.665,0.447-16.479,0.619-25.676,0c-2.299,0.755-4.623,1.133-6.958,1.273c-1.167,0.07-2.338,0.082-3.51,0.053l-0.11-0.003
				c-0.008-0.001-0.002-0.002-0.004-0.003l-0.002-0.008l-0.007-0.017c-0.006-0.012-0.017-0.026-0.033-0.043
				c-0.031-0.033-0.084-0.075-0.167-0.122c-0.093-1.075-0.208-1.974-0.33-2.608c0.046,0.093,0.165,0.189,0.357,0.282l0.158,0.069
				c-0.01,0.011,0.172,0.022,0.262,0.033l0.331,0.033l1.32,0.123c1.758,0.154,3.507,0.261,5.242,0.26
				c9.198-2.904,18.012,1.984,25.676,0c7.665-0.78,14.18,0.09,18.778,0c4.599-0.31,7.281,0,7.281,0v2.063
				c0,0-2.683,2.868-7.281,2.47c-4.599-0.581-11.114-0.544-18.778,0c-7.665-0.843-16.479,2.479-25.676,0
				c-1.735-0.516-3.484-0.827-5.242-0.995c-0.439-0.042-0.879-0.075-1.32-0.101l-0.698-0.032l-0.917-0.021
				c-1.22-0.02-2.435-0.012-3.696,0.018c-0.038-2.001-0.111-4.058-0.203-6.33l5.06-0.321c1.172-0.11,2.343-0.221,3.51-0.331
				c2.335-0.201,4.659-0.34,6.958-0.276c9.197,3.146,18.012,0.156,25.676,0c7.665,0.704,14.179-1.428,18.778,0l0.278-0.06
				l0.138-0.025l0.232-0.023c0.318-0.028,0.635-0.051,0.947-0.065c0.624-0.03,1.227-0.035,1.789-0.018
				c1.125,0.035,2.075,0.156,2.775,0.33c-0.36,2.252-0.942,3.818-1.435,4.662c-0.493,0.858-0.896,1.12-0.896,1.12
				S105.64,149.026,105.275,149.026z"/>
		</g>
	</g>
</g>
<text transform="matrix(1 0 0 1 20.0684 21.8721)" fill="#ED6756" font-family="'ArchitectsDaughter'" font-size="14">estados</text>
<text transform="matrix(1 0 0 1 175.8076 21.8721)"><tspan x="0" y="0" font-family="'ArchitectsDaughter'" font-size="14">50</tspan><tspan x="23.434" y="0" font-family="'MyriadPro-Regular'" font-size="14">%</tspan></text>
<text transform="matrix(1 0 0 1 300.0332 184.0234)" fill="#ED6756" font-family="'ArchitectsDaughter'" font-size="14">+ acesso</text>
<g>
	<g>
		<g>
			<path fill-rule="evenodd" clip-rule="evenodd" d="M194.101,34.72c0,0,0.048,0.164,0.098,0.481s0.107,0.786,0.145,1.396
				c0.075,1.22,0.068,3.004-0.243,5.257c-0.645,4.506-0.856,10.889,0,18.399c0.224,7.509,0.31,16.146,0,25.158
				c1.51,9.012-0.003,18.399,0,27.411c1.452,9.012-0.992,17.647,0,25.157c0.39,7.51-0.045,13.894,0,18.399
				c0.154,4.505,0,7.134,0,7.134h-1.032c0,0-1.434-2.629-1.234-7.134c0.29-4.506,0.272-10.89,0-18.399
				c0.422-7.51-1.239-16.146,0-25.157c1.365-9.012-0.128-18.399,0-27.411c1.573-9.012,0.078-17.648,0-25.158
				c0.352-7.51-0.714-13.893,0-18.399c-0.535-4.506,1.234-7.134,1.234-7.134S193.918,34.72,194.101,34.72z"/>
		</g>
	</g>
</g>
</svg>
