<?xml version="1.0" encoding="utf-8"?>
<!-- Generator: Adobe Illustrator 16.0.0, SVG Export Plug-In . SVG Version: 6.00 Build 0)  -->
<!DOCTYPE svg PUBLIC "-//W3C//DTD SVG 1.1//EN" "http://www.w3.org/Graphics/SVG/1.1/DTD/svg11.dtd">
<svg version="1.1" id="Layer_1" xmlns="http://www.w3.org/2000/svg" xmlns:xlink="http://www.w3.org/1999/xlink" x="0px" y="0px"
	 width="400px" height="160px" viewBox="0 0 400 160" enable-background="new 0 0 400 160" xml:space="preserve">
<g>
	<g>
		<g>
			<path fill="#ED6756" d="M32.905,8.274c0,0,0.048,0.186,0.098,0.546c0.05,0.359,0.107,0.893,0.145,1.585
				c0.075,1.385,0.068,3.41-0.243,5.967c-0.645,5.114-0.856,12.359,0,20.883c0.224,8.523,0.31,18.326,0,28.555
				c1.51,10.229-0.003,20.883,0,31.112c1.452,10.229-0.992,20.031,0,28.557c0.39,8.522-0.045,15.769,0,20.883
				c0.154,5.113,0,8.098,0,8.098h-1.032c0,0-1.434-2.982-1.234-8.098c0.29-5.114,0.272-12.359,0-20.883
				c0.422-8.524-1.239-18.328,0-28.557c1.365-10.229-0.128-20.883,0-31.112c1.573-10.229,0.078-20.031,0-28.555
				c0.352-8.524-0.713-15.769,0-20.883c-0.535-5.114,1.234-8.098,1.234-8.098S32.723,8.274,32.905,8.274z"/>
		</g>
		<g>
			<path fill="#ED6756" d="M39.073,18.525c-0.349,0.223-0.813,0.12-1.036-0.229l-6.164-9.679l-6.164,9.679
				c-0.223,0.349-0.687,0.452-1.036,0.229c-0.349-0.223-0.45-0.689-0.23-1.035L31.24,6.818c0.138-0.216,0.376-0.347,0.633-0.347
				s0.495,0.131,0.633,0.347l6.797,10.672c0.079,0.124,0.117,0.264,0.117,0.402C39.42,18.14,39.297,18.382,39.073,18.525z"/>
		</g>
	</g>
</g>
<g>
	<g>
		<g>
			<path fill="#ED6756" d="M371.7,8.274c0,0,0.049,0.186,0.099,0.546c0.05,0.359,0.107,0.893,0.146,1.585
				c0.073,1.385,0.066,3.41-0.243,5.967c-0.646,5.114-0.856,12.359,0,20.883c0.224,8.523,0.31,18.326,0,28.555
				c1.511,10.229-0.003,20.883,0,31.112c1.452,10.229-0.992,20.031,0,28.557c0.39,8.522-0.045,15.769,0,20.883
				c0.154,5.113,0,8.098,0,8.098h-1.032c0,0-1.434-2.982-1.234-8.098c0.29-5.114,0.271-12.359,0-20.883
				c0.423-8.524-1.238-18.328,0-28.557c1.365-10.229-0.128-20.883,0-31.112c1.572-10.229,0.078-20.031,0-28.555
				c0.353-8.524-0.713-15.769,0-20.883c-0.534-5.114,1.234-8.098,1.234-8.098S371.518,8.274,371.7,8.274z"/>
		</g>
		<g>
			<path fill="#ED6756" d="M377.867,18.525c-0.349,0.223-0.812,0.12-1.035-0.229l-6.164-9.679l-6.164,9.679
				c-0.223,0.349-0.688,0.452-1.035,0.229c-0.35-0.223-0.45-0.689-0.229-1.035l6.797-10.672c0.138-0.216,0.377-0.347,0.633-0.347
				s0.495,0.131,0.633,0.347l6.797,10.672c0.079,0.124,0.117,0.264,0.117,0.402C378.215,18.14,378.092,18.382,377.867,18.525z"/>
		</g>
	</g>
</g>
<g enable-background="new    ">
	<path fill="#ED6756" d="M167.525,18.878c-0.019-0.246-0.041-0.526-0.068-0.841s-0.062-0.641-0.103-0.978s-0.096-0.67-0.164-0.998
		s-0.148-0.624-0.239-0.889c-0.237,0-0.472,0.029-0.704,0.089s-0.465,0.123-0.697,0.191s-0.47,0.135-0.711,0.198
		c-0.242,0.063-0.49,0.101-0.745,0.109c-0.137,0-0.265-0.032-0.383-0.096c-0.119-0.063-0.178-0.183-0.178-0.355
		c0-0.137,0.084-0.239,0.253-0.308c0.168-0.068,0.38-0.121,0.636-0.157c0.255-0.036,0.528-0.063,0.82-0.082
		c0.292-0.019,0.565-0.041,0.82-0.068c0.255-0.027,0.467-0.068,0.636-0.123c0.168-0.055,0.253-0.137,0.253-0.246v-2.83
		c0-0.082,0.022-0.144,0.068-0.185c0.045-0.041,0.1-0.073,0.164-0.096c0.063-0.022,0.13-0.036,0.198-0.041s0.121-0.007,0.157-0.007
		c0.2,0,0.33,0.034,0.39,0.103c0.059,0.068,0.111,0.234,0.157,0.499c0.018,0.082,0.043,0.232,0.075,0.451
		c0.032,0.219,0.063,0.449,0.096,0.69c0.032,0.241,0.059,0.47,0.082,0.684c0.022,0.214,0.039,0.362,0.048,0.444h3.746
		c0,0.173-0.075,0.312-0.226,0.417s-0.347,0.185-0.588,0.239c-0.242,0.055-0.506,0.089-0.793,0.103s-0.57,0.022-0.848,0.027
		c-0.278,0.005-0.533,0.012-0.766,0.021s-0.408,0.027-0.526,0.055c-0.046,0.273-0.05,0.579-0.014,0.916
		c0.036,0.337,0.082,0.682,0.137,1.032s0.103,0.702,0.144,1.053s0.043,0.677,0.007,0.978c-0.055,0.046-0.142,0.094-0.26,0.144
		c-0.119,0.05-0.239,0.087-0.362,0.109s-0.232,0.019-0.328-0.014S167.553,19.006,167.525,18.878z"/>
	<path fill="#ED6756" d="M186.707,16.896c-0.265,0.41-0.57,0.781-0.916,1.114c-0.347,0.333-0.727,0.615-1.142,0.848
		c-0.415,0.232-0.866,0.403-1.354,0.513c-0.488,0.109-1,0.142-1.538,0.096c-0.191,0-0.396-0.022-0.615-0.068
		s-0.422-0.118-0.608-0.219c-0.187-0.101-0.34-0.232-0.458-0.396c-0.119-0.164-0.178-0.369-0.178-0.615
		c-0.101-0.511-0.08-1.027,0.062-1.552c0.141-0.524,0.362-1.03,0.663-1.518s0.67-0.938,1.107-1.354s0.904-0.766,1.401-1.053
		c0.497-0.287,1.007-0.494,1.531-0.622c0.524-0.128,1.032-0.146,1.524-0.055c0.374,0,0.665,0.123,0.875,0.369
		c0.209,0.246,0.367,0.574,0.472,0.984c0.104,0.41,0.171,0.882,0.198,1.415s0.05,1.082,0.068,1.647
		c0.018,0.565,0.043,1.123,0.075,1.675c0.032,0.552,0.103,1.055,0.212,1.511h-1.012c-0.046-0.31-0.08-0.583-0.103-0.82
		c-0.023-0.237-0.043-0.458-0.062-0.663c-0.019-0.205-0.043-0.403-0.075-0.595C186.805,17.347,186.762,17.133,186.707,16.896z
		 M185.668,13.245c-0.355-0.027-0.723,0.021-1.101,0.144c-0.378,0.123-0.743,0.296-1.094,0.52c-0.351,0.224-0.679,0.487-0.984,0.793
		c-0.306,0.306-0.572,0.622-0.8,0.95c-0.228,0.328-0.403,0.654-0.526,0.978s-0.173,0.622-0.15,0.896
		c0.022,0.273,0.125,0.506,0.308,0.697c0.182,0.191,0.465,0.319,0.848,0.383c0.547-0.009,1.073-0.148,1.579-0.417
		s0.957-0.602,1.354-0.998s0.727-0.825,0.991-1.285c0.264-0.46,0.435-0.887,0.513-1.278c0.077-0.392,0.043-0.72-0.103-0.984
		C186.356,13.377,186.078,13.245,185.668,13.245z"/>
	<path fill="#ED6756" d="M188.799,17.032c-0.037-0.419,0.041-0.836,0.232-1.251s0.458-0.812,0.8-1.189s0.743-0.729,1.203-1.053
		c0.46-0.323,0.945-0.6,1.456-0.827c0.51-0.228,1.027-0.398,1.552-0.513c0.524-0.114,1.019-0.148,1.483-0.103
		c0.173,0,0.346,0.009,0.52,0.027c0.173,0.019,0.326,0.063,0.458,0.137c0.132,0.073,0.239,0.178,0.321,0.314
		s0.123,0.323,0.123,0.561c0,0.118-0.03,0.224-0.089,0.314c-0.06,0.091-0.132,0.178-0.219,0.26c-0.087,0.082-0.18,0.155-0.28,0.219
		c-0.101,0.063-0.191,0.128-0.273,0.191c-0.027-0.128-0.055-0.248-0.082-0.362s-0.071-0.214-0.13-0.301
		c-0.06-0.087-0.137-0.155-0.232-0.205s-0.221-0.075-0.376-0.075c-0.538,0.109-1.119,0.275-1.743,0.499
		c-0.625,0.224-1.199,0.49-1.723,0.8c-0.524,0.31-0.946,0.658-1.265,1.046c-0.319,0.388-0.442,0.805-0.369,1.251
		c0,0.401,0.077,0.725,0.232,0.971c0.155,0.246,0.357,0.438,0.608,0.574c0.25,0.137,0.538,0.228,0.861,0.273
		c0.323,0.046,0.654,0.068,0.991,0.068c0.52,0,1.023-0.077,1.511-0.232c0.487-0.155,0.964-0.328,1.429-0.52s0.92-0.364,1.367-0.52
		c0.446-0.155,0.884-0.232,1.312-0.232c0.073,0,0.148,0.005,0.226,0.014c0.077,0.009,0.146,0.034,0.205,0.075
		c0.059,0.041,0.1,0.101,0.123,0.178c0.022,0.077,0.021,0.185-0.007,0.321c-0.046,0.164-0.208,0.328-0.485,0.492
		c-0.278,0.164-0.62,0.319-1.025,0.465c-0.406,0.146-0.848,0.282-1.326,0.41s-0.943,0.237-1.395,0.328s-0.857,0.162-1.217,0.212
		c-0.36,0.05-0.627,0.075-0.8,0.075c-0.401,0-0.834-0.046-1.299-0.137s-0.896-0.241-1.292-0.451s-0.727-0.485-0.991-0.827
		C188.931,17.969,188.799,17.543,188.799,17.032z"/>
	<path fill="#ED6756" d="M199.873,17.483c-0.082-0.738-0.012-1.458,0.212-2.16c0.223-0.702,0.561-1.321,1.012-1.859
		s0.995-0.964,1.634-1.278c0.638-0.314,1.335-0.463,2.092-0.444c0.127,0,0.299,0.019,0.513,0.055s0.442,0.094,0.684,0.171
		s0.479,0.176,0.711,0.294s0.438,0.26,0.615,0.424s0.312,0.349,0.403,0.554c0.091,0.205,0.113,0.436,0.068,0.69
		c-0.374,0.265-0.805,0.446-1.292,0.547s-0.984,0.171-1.49,0.212s-1.001,0.077-1.483,0.109c-0.483,0.032-0.904,0.116-1.265,0.253
		s-0.638,0.354-0.834,0.649s-0.258,0.723-0.185,1.278c0.137,0.501,0.362,0.87,0.677,1.107s0.679,0.381,1.094,0.431
		s0.856,0.027,1.326-0.068s0.93-0.221,1.381-0.376s0.872-0.319,1.265-0.492c0.392-0.173,0.715-0.314,0.971-0.424
		c0.118,0,0.219,0.043,0.301,0.13s0.123,0.189,0.123,0.308c-0.229,0.392-0.574,0.743-1.039,1.053s-0.989,0.561-1.572,0.752
		c-0.584,0.191-1.191,0.31-1.825,0.355s-1.229,0-1.784-0.137c-0.557-0.137-1.044-0.378-1.463-0.725
		C200.301,18.545,200.019,18.076,199.873,17.483z M204.699,12.767c-0.164,0-0.365,0.019-0.602,0.055
		c-0.237,0.036-0.465,0.101-0.684,0.191s-0.408,0.21-0.567,0.355s-0.239,0.333-0.239,0.561l3.391-0.561
		c-0.146-0.219-0.335-0.374-0.567-0.465S204.954,12.767,204.699,12.767z"/>
	<path fill="#ED6756" d="M211.33,19.452c0.646-0.21,1.251-0.456,1.812-0.738s1.03-0.561,1.408-0.834s0.634-0.526,0.766-0.759
		s0.096-0.408-0.109-0.526s-0.608-0.157-1.21-0.116s-1.454,0.198-2.557,0.472c-0.328-0.009-0.622-0.073-0.882-0.191
		s-0.481-0.265-0.663-0.438c-0.183-0.173-0.321-0.362-0.417-0.567s-0.144-0.403-0.144-0.595c0-0.301,0.103-0.6,0.308-0.896
		s0.48-0.576,0.827-0.841c0.346-0.265,0.747-0.504,1.203-0.718c0.455-0.214,0.934-0.388,1.436-0.52
		c0.501-0.132,1.014-0.219,1.538-0.26s1.027-0.016,1.511,0.075c0.273,0,0.433,0.121,0.479,0.362
		c0.045,0.241,0.068,0.631,0.068,1.169c-0.374-0.173-0.777-0.296-1.21-0.369s-0.868-0.101-1.306-0.082s-0.861,0.08-1.271,0.185
		s-0.772,0.251-1.087,0.438s-0.572,0.417-0.772,0.69c-0.201,0.273-0.306,0.583-0.314,0.93c0,0.191,0.075,0.316,0.226,0.376
		s0.328,0.087,0.533,0.082s0.419-0.027,0.643-0.068s0.403-0.062,0.54-0.062c1.23-0.265,2.188-0.374,2.871-0.328
		s1.144,0.191,1.381,0.438c0.236,0.246,0.273,0.562,0.109,0.95s-0.48,0.795-0.95,1.224s-1.064,0.846-1.784,1.251
		c-0.721,0.405-1.518,0.75-2.393,1.032c-0.046,0-0.096-0.034-0.15-0.103s-0.111-0.148-0.171-0.239s-0.112-0.178-0.157-0.26
		C211.394,19.534,211.357,19.479,211.33,19.452z"/>
	<path fill="#ED6756" d="M220.121,19.452c0.646-0.21,1.251-0.456,1.812-0.738s1.03-0.561,1.408-0.834s0.634-0.526,0.766-0.759
		s0.096-0.408-0.109-0.526s-0.608-0.157-1.21-0.116s-1.454,0.198-2.557,0.472c-0.328-0.009-0.622-0.073-0.882-0.191
		s-0.481-0.265-0.663-0.438c-0.183-0.173-0.321-0.362-0.417-0.567s-0.144-0.403-0.144-0.595c0-0.301,0.103-0.6,0.308-0.896
		s0.48-0.576,0.827-0.841c0.346-0.265,0.747-0.504,1.203-0.718c0.455-0.214,0.934-0.388,1.436-0.52
		c0.501-0.132,1.014-0.219,1.538-0.26s1.027-0.016,1.511,0.075c0.273,0,0.433,0.121,0.479,0.362
		c0.045,0.241,0.068,0.631,0.068,1.169c-0.374-0.173-0.777-0.296-1.21-0.369s-0.868-0.101-1.306-0.082s-0.861,0.08-1.271,0.185
		s-0.772,0.251-1.087,0.438s-0.572,0.417-0.772,0.69c-0.201,0.273-0.306,0.583-0.314,0.93c0,0.191,0.075,0.316,0.226,0.376
		s0.328,0.087,0.533,0.082s0.419-0.027,0.643-0.068s0.403-0.062,0.54-0.062c1.23-0.265,2.188-0.374,2.871-0.328
		s1.144,0.191,1.381,0.438c0.236,0.246,0.273,0.562,0.109,0.95s-0.48,0.795-0.95,1.224s-1.064,0.846-1.784,1.251
		c-0.721,0.405-1.518,0.75-2.393,1.032c-0.046,0-0.096-0.034-0.15-0.103s-0.111-0.148-0.171-0.239s-0.112-0.178-0.157-0.26
		C220.185,19.534,220.148,19.479,220.121,19.452z"/>
	<path fill="#ED6756" d="M227.436,16.485c0-0.747,0.164-1.388,0.492-1.921s0.742-0.978,1.244-1.333
		c0.501-0.355,1.048-0.627,1.641-0.813c0.592-0.187,1.157-0.308,1.695-0.362c0.52-0.027,1.007,0.039,1.463,0.198
		c0.455,0.159,0.848,0.385,1.176,0.677s0.581,0.638,0.759,1.039s0.243,0.825,0.198,1.271c0,0.747-0.148,1.401-0.444,1.962
		s-0.69,1.03-1.183,1.408s-1.064,0.661-1.716,0.848s-1.333,0.28-2.044,0.28c-1.076,0-1.892-0.251-2.447-0.752
		C227.713,18.486,227.436,17.652,227.436,16.485z M228.611,16.896c0,0.383,0.048,0.688,0.144,0.916s0.237,0.398,0.424,0.513
		s0.415,0.189,0.684,0.226s0.581,0.055,0.937,0.055c0.547,0,1.075-0.053,1.586-0.157c0.51-0.104,0.961-0.282,1.354-0.533
		c0.392-0.251,0.706-0.583,0.943-0.998c0.236-0.415,0.355-0.932,0.355-1.552c0-0.319-0.046-0.622-0.137-0.909
		c-0.092-0.287-0.229-0.538-0.41-0.752c-0.183-0.214-0.406-0.385-0.67-0.513c-0.265-0.128-0.565-0.191-0.902-0.191
		c-0.447,0.073-0.894,0.157-1.34,0.253c-0.447,0.096-0.866,0.269-1.258,0.52c-0.393,0.251-0.738,0.62-1.039,1.107
		S228.757,16.039,228.611,16.896z"/>
</g>
<g>
	<g>
		<g>
			<path fill="#42B3C6" d="M370.755,55.991c0,0-0.428,0.085-1.257,0.206c-0.829,0.12-2.06,0.282-3.661,0.456
				c-3.204,0.347-7.896,0.738-13.849,0.932c-11.907,0.364-28.717,1.577-48.399,4.107c-19.735,1.899-42.446,3.913-66.179,5.616
				c-23.578,3.517-48.399,4.105-72.105,6.119c-23.583,3.459-46.508,2.951-66.179,5.616c-19.722,2.064-36.55,3.057-48.399,4.107
				c-11.84,1.16-18.767,1.593-18.767,1.593l-0.087-1.028c0,0,6.793-2.016,18.663-2.822c11.877-0.717,28.667-2.161,48.399-4.107
				c19.791-1.256,42.368-4.839,66.179-5.616c23.821-0.651,48.389-4.234,72.104-6.119c23.84-0.445,46.432-3.862,66.18-5.616
				c19.783-1.326,36.484-3.812,48.398-4.107c11.807-1.539,18.871-0.363,18.871-0.363S370.74,55.81,370.755,55.991z"/>
		</g>
	</g>
</g>
<g>
	<g>
		<g>
			<path fill="#42B3C6" d="M370.83,47.688c0,0-0.424,0.117-1.25,0.299c-0.825,0.182-2.051,0.436-3.65,0.729
				c-3.197,0.585-7.891,1.327-13.865,1.964c-11.955,1.253-28.779,3.72-48.399,7.714c-19.72,3.37-42.424,7.076-66.179,10.548
				c-23.469,5.27-48.399,7.711-72.105,11.492c-23.477,5.212-46.58,6.419-66.179,10.548c-19.693,3.533-36.553,5.779-48.399,7.713
				c-11.829,2.043-18.767,2.992-18.767,2.992l-0.163-1.021c0,0,6.688-2.519,18.573-4.21c11.898-1.604,28.687-4.297,48.399-7.714
				c19.822-2.732,42.278-7.994,66.179-10.548c23.921-2.43,48.378-7.84,72.105-11.493c23.953-2.225,46.438-7.322,66.18-10.547
				c19.811-2.801,36.434-6.529,48.398-7.714c11.768-2.417,18.961-1.772,18.961-1.772S370.802,47.508,370.83,47.688z"/>
		</g>
	</g>
</g>
<g>
	<g>
		<g>
			<path fill="#42B3C6" d="M370.73,52.677c0,0-0.43,0.075-1.261,0.175c-0.83,0.101-2.062,0.233-3.664,0.368
				c-3.206,0.271-7.896,0.549-13.843,0.6c-11.893,0.08-28.696,0.891-48.398,2.949c-19.741,1.428-42.455,2.897-66.18,4.032
				c-23.613,2.952-48.399,2.946-72.104,4.393c-23.617,2.894-46.484,1.838-66.178,4.032c-19.731,1.593-36.549,2.182-48.399,2.949
				c-11.843,0.876-18.767,1.144-18.767,1.144l-0.063-1.03c0,0,6.827-1.852,18.692-2.375c11.871-0.433,28.661-1.474,48.399-2.949
				c19.781-0.783,42.398-3.825,66.179-4.032c23.789-0.081,48.392-3.076,72.105-4.393c23.801,0.125,46.43-2.75,66.18-4.032
				c19.775-0.853,36.502-2.939,48.398-2.949c11.819-1.256,18.842,0.089,18.842,0.089S370.72,52.495,370.73,52.677z"/>
		</g>
	</g>
</g>
<g>
	<g>
		<g>
			<path fill="#42B3C6" d="M370.82,62.987c0,0-0.426,0.113-1.251,0.287c-0.826,0.174-2.053,0.416-3.651,0.692
				c-3.199,0.554-7.892,1.25-13.864,1.829c-11.947,1.137-28.771,3.439-48.399,7.243c-19.721,3.178-42.426,6.663-66.178,9.903
				c-23.482,5.041-48.399,7.24-72.105,10.791c-23.491,4.983-46.571,5.967-66.179,9.903c-19.697,3.343-36.553,5.425-48.399,7.242
				c-11.83,1.927-18.767,2.81-18.767,2.81l-0.153-1.021c0,0,6.702-2.452,18.584-4.029c11.896-1.486,28.685-4.018,48.399-7.242
				c19.818-2.539,42.29-7.582,66.179-9.903c23.908-2.197,48.38-7.369,72.105-10.791c23.938-1.992,46.436-6.87,66.178-9.903
				c19.808-2.608,36.44-6.175,48.398-7.243c11.773-2.303,18.95-1.588,18.95-1.588S370.794,62.807,370.82,62.987z"/>
		</g>
	</g>
</g>
<g>
	<g>
		<g>
			<path d="M299.062,85.316c0,0-0.252,0.093-0.742,0.227s-1.221,0.314-2.176,0.516c-1.91,0.398-4.721,0.868-8.321,1.164
				c-7.206,0.566-17.298,2.061-28.984,4.908c-11.792,2.225-25.383,4.614-39.631,6.713c-13.944,3.895-28.984,4.907-43.181,7.314
				c-13.954,3.837-27.967,3.73-39.631,6.713c-11.765,2.389-21.893,3.663-28.984,4.91c-7.072,1.354-11.239,1.902-11.239,1.902
				L96,118.667c0,0,3.901-2.115,11.033-3.121c7.146-0.916,17.199-2.637,28.984-4.909c11.901-1.588,25.228-5.529,39.631-6.713
				c14.424-1.059,28.961-5.035,43.18-7.314c14.459-0.854,27.814-4.631,39.632-6.713c11.89-1.656,21.767-4.41,28.983-4.908
				c7.009-1.73,11.445-0.688,11.445-0.688S299.029,85.139,299.062,85.316z"/>
		</g>
		<g>
			<path d="M289.982,93.111c-0.276-0.307-0.252-0.782,0.055-1.061l8.514-7.693l-10.572-4.461c-0.381-0.161-0.561-0.602-0.398-0.983
				s0.604-0.559,0.982-0.399l11.656,4.917c0.236,0.102,0.405,0.313,0.448,0.566s-0.047,0.51-0.235,0.682l-9.389,8.484
				c-0.109,0.1-0.24,0.159-0.377,0.184C290.422,93.389,290.163,93.309,289.982,93.111z"/>
		</g>
	</g>
</g>
<g enable-background="new    ">
	<path d="M239.246,104.781c0.036-0.036,0.104-0.077,0.205-0.123c0.1-0.046,0.205-0.066,0.314-0.062s0.214,0.048,0.314,0.13
		c0.1,0.082,0.173,0.224,0.219,0.424c1.303-0.438,2.42-0.69,3.35-0.759s1.686-0.005,2.27,0.191c0.583,0.196,1.002,0.497,1.258,0.902
		c0.255,0.405,0.359,0.861,0.314,1.367c-0.046,0.506-0.234,1.037-0.567,1.593s-0.798,1.08-1.395,1.572s-1.317,0.928-2.16,1.306
		s-1.794,0.645-2.851,0.8c0,0.128,0.002,0.328,0.007,0.602s0.011,0.583,0.021,0.93c0.009,0.347,0.016,0.711,0.021,1.094
		s0.011,0.75,0.021,1.101c0.009,0.351,0.021,0.668,0.034,0.95s0.029,0.492,0.048,0.629c0.055,0.419-0.027,0.718-0.246,0.896
		s-0.52,0.244-0.902,0.198L239.246,104.781z M243.977,105.451c-0.355,0-0.748,0.041-1.176,0.123
		c-0.429,0.082-0.827,0.221-1.196,0.417s-0.673,0.46-0.909,0.793c-0.237,0.333-0.342,0.745-0.314,1.237v2.953
		c1.267-0.282,2.306-0.615,3.117-0.998c0.811-0.383,1.434-0.779,1.866-1.189s0.699-0.815,0.8-1.217
		c0.1-0.401,0.072-0.759-0.082-1.073c-0.155-0.314-0.42-0.567-0.793-0.759C244.915,105.547,244.478,105.451,243.977,105.451z"/>
	<path d="M255.119,109.17c-0.265,0.41-0.57,0.781-0.916,1.114c-0.347,0.333-0.727,0.615-1.142,0.848s-0.866,0.403-1.354,0.513
		s-1.001,0.142-1.538,0.096c-0.191,0-0.396-0.022-0.615-0.068s-0.422-0.118-0.608-0.219s-0.34-0.232-0.458-0.396
		c-0.119-0.164-0.178-0.369-0.178-0.615c-0.101-0.511-0.08-1.027,0.062-1.552s0.362-1.03,0.663-1.518s0.67-0.938,1.107-1.354
		s0.904-0.766,1.401-1.053s1.007-0.494,1.531-0.622s1.032-0.146,1.524-0.055c0.373,0,0.665,0.123,0.875,0.369
		c0.209,0.246,0.367,0.574,0.472,0.984s0.171,0.882,0.198,1.415s0.05,1.082,0.068,1.647c0.018,0.565,0.043,1.123,0.075,1.675
		s0.103,1.055,0.212,1.511h-1.012c-0.046-0.31-0.08-0.583-0.103-0.82s-0.044-0.458-0.062-0.663
		c-0.019-0.205-0.043-0.403-0.075-0.595S255.174,109.407,255.119,109.17z M254.08,105.52c-0.355-0.027-0.723,0.021-1.101,0.144
		s-0.743,0.296-1.094,0.52s-0.679,0.487-0.984,0.793s-0.572,0.622-0.8,0.95c-0.229,0.328-0.403,0.654-0.526,0.978
		s-0.173,0.622-0.15,0.896s0.125,0.506,0.308,0.697c0.182,0.191,0.465,0.319,0.848,0.383c0.547-0.009,1.073-0.148,1.579-0.417
		s0.957-0.602,1.354-0.998s0.727-0.825,0.991-1.285c0.264-0.46,0.436-0.887,0.513-1.278s0.043-0.72-0.103-0.984
		C254.768,105.651,254.49,105.52,254.08,105.52z"/>
	<path d="M263.855,110.113c-0.629,0.483-1.26,0.887-1.894,1.21s-1.242,0.518-1.825,0.581c-0.584,0.063-1.137-0.025-1.661-0.267
		s-0.991-0.69-1.401-1.347c-0.128-0.593-0.119-1.153,0.027-1.682c0.146-0.528,0.387-1.012,0.725-1.449
		c0.337-0.438,0.747-0.818,1.23-1.142c0.482-0.323,0.998-0.576,1.545-0.759s1.109-0.282,1.688-0.301s1.132,0.06,1.661,0.232
		c0-0.137,0.007-0.347,0.021-0.629s0.029-0.602,0.048-0.957c0.018-0.355,0.036-0.729,0.055-1.121
		c0.018-0.392,0.039-0.766,0.062-1.121s0.043-0.672,0.062-0.95c0.018-0.278,0.031-0.485,0.041-0.622
		c0.018-0.219,0.043-0.419,0.075-0.602s0.089-0.342,0.171-0.479s0.193-0.244,0.335-0.321s0.33-0.116,0.567-0.116
		c0,1.094-0.032,2.16-0.096,3.199c-0.064,1.039-0.121,2.085-0.171,3.138s-0.073,2.126-0.068,3.22s0.079,2.247,0.226,3.459
		c0,0.265-0.048,0.451-0.144,0.561s-0.258,0.164-0.485,0.164c-0.219,0-0.385-0.07-0.499-0.212s-0.191-0.31-0.232-0.506
		s-0.062-0.403-0.062-0.622S263.855,110.269,263.855,110.113z M258.264,109.58c0.018,0.419,0.139,0.718,0.362,0.896
		s0.535,0.23,0.937,0.157c0.191,0,0.485-0.053,0.882-0.157s0.807-0.241,1.23-0.41s0.822-0.355,1.196-0.561
		c0.373-0.205,0.638-0.412,0.793-0.622v-2.27c0-0.137-0.034-0.246-0.103-0.328s-0.155-0.144-0.26-0.185s-0.214-0.066-0.328-0.075
		s-0.212-0.014-0.294-0.014c-0.246-0.036-0.531-0.021-0.854,0.048s-0.656,0.178-0.998,0.328s-0.675,0.337-0.998,0.561
		s-0.608,0.474-0.854,0.752s-0.438,0.576-0.574,0.896S258.218,109.243,258.264,109.58z"/>
	<path d="M266.275,104.18c0-0.173,0.062-0.287,0.185-0.342s0.257-0.082,0.403-0.082c0.236,0,0.426,0.098,0.567,0.294
		s0.251,0.424,0.328,0.684s0.132,0.515,0.164,0.766s0.057,0.431,0.075,0.54c0.337-0.31,0.715-0.597,1.135-0.861
		c0.419-0.265,0.887-0.49,1.401-0.677s1.089-0.323,1.723-0.41s1.342-0.107,2.126-0.062c0.246-0.055,0.431-0.002,0.554,0.157
		s0.193,0.349,0.212,0.567c0.018,0.219-0.016,0.433-0.103,0.643s-0.217,0.333-0.39,0.369c-0.319-0.237-0.704-0.39-1.155-0.458
		s-0.921-0.066-1.408,0.007s-0.969,0.207-1.442,0.403c-0.475,0.196-0.896,0.444-1.265,0.745s-0.661,0.647-0.875,1.039
		s-0.304,0.815-0.267,1.271c0,0.282,0.018,0.559,0.055,0.827c0.036,0.269,0.075,0.538,0.116,0.807s0.079,0.538,0.116,0.807
		c0.036,0.269,0.055,0.54,0.055,0.813c-0.246,0.019-0.444,0.05-0.595,0.096s-0.276,0.066-0.376,0.062
		c-0.101-0.005-0.188-0.05-0.26-0.137c-0.073-0.087-0.155-0.262-0.246-0.526c-0.01-0.063-0.032-0.255-0.068-0.574
		c-0.037-0.319-0.08-0.706-0.13-1.162s-0.107-0.955-0.171-1.497c-0.064-0.542-0.125-1.075-0.185-1.6s-0.114-1.007-0.164-1.449
		S266.303,104.444,266.275,104.18z"/>
	<path d="M282.641,109.17c-0.265,0.41-0.57,0.781-0.916,1.114c-0.347,0.333-0.727,0.615-1.142,0.848s-0.866,0.403-1.354,0.513
		s-1.001,0.142-1.538,0.096c-0.191,0-0.396-0.022-0.615-0.068s-0.422-0.118-0.608-0.219s-0.34-0.232-0.458-0.396
		c-0.119-0.164-0.178-0.369-0.178-0.615c-0.101-0.511-0.08-1.027,0.062-1.552s0.362-1.03,0.663-1.518s0.67-0.938,1.107-1.354
		s0.904-0.766,1.401-1.053s1.007-0.494,1.531-0.622s1.032-0.146,1.524-0.055c0.373,0,0.665,0.123,0.875,0.369
		c0.209,0.246,0.367,0.574,0.472,0.984s0.171,0.882,0.198,1.415s0.05,1.082,0.068,1.647c0.018,0.565,0.043,1.123,0.075,1.675
		s0.103,1.055,0.212,1.511h-1.012c-0.046-0.31-0.08-0.583-0.103-0.82s-0.044-0.458-0.062-0.663
		c-0.019-0.205-0.043-0.403-0.075-0.595S282.695,109.407,282.641,109.17z M279.551,103.018c-0.229-0.2-0.429-0.369-0.602-0.506
		c-0.174-0.137-0.349-0.198-0.526-0.185s-0.374,0.123-0.588,0.328s-0.485,0.549-0.813,1.032c-0.037,0-0.087-0.005-0.15-0.014
		c-0.064-0.009-0.128-0.027-0.191-0.055c-0.064-0.027-0.123-0.063-0.178-0.109s-0.092-0.104-0.109-0.178
		c0.173-0.547,0.431-1.03,0.772-1.449s0.704-0.706,1.087-0.861c0.154-0.063,0.303-0.068,0.444-0.014s0.282,0.139,0.424,0.253
		s0.278,0.246,0.41,0.396s0.269,0.294,0.41,0.431s0.287,0.251,0.438,0.342s0.308,0.137,0.472,0.137c0.255,0,0.453-0.039,0.595-0.116
		s0.271-0.191,0.39-0.342c0.118-0.15,0.248-0.335,0.39-0.554s0.339-0.465,0.595-0.738c0.072,0,0.146,0.062,0.219,0.185
		c0.072,0.123,0.109,0.23,0.109,0.321c0.045,0.255,0.018,0.506-0.082,0.752c-0.101,0.246-0.248,0.47-0.444,0.67
		s-0.429,0.369-0.697,0.506s-0.545,0.226-0.827,0.267c-0.283,0.041-0.559,0.025-0.827-0.048S279.76,103.245,279.551,103.018z
		 M281.602,105.52c-0.355-0.027-0.723,0.021-1.101,0.144s-0.743,0.296-1.094,0.52s-0.679,0.487-0.984,0.793s-0.572,0.622-0.8,0.95
		c-0.229,0.328-0.403,0.654-0.526,0.978s-0.173,0.622-0.15,0.896s0.125,0.506,0.308,0.697c0.182,0.191,0.465,0.319,0.848,0.383
		c0.547-0.009,1.073-0.148,1.579-0.417s0.957-0.602,1.354-0.998s0.727-0.825,0.991-1.285c0.264-0.46,0.436-0.887,0.513-1.278
		s0.043-0.72-0.103-0.984C282.289,105.651,282.012,105.52,281.602,105.52z"/>
	<path d="M285.252,108.76c0-0.747,0.164-1.388,0.492-1.921s0.742-0.978,1.244-1.333c0.501-0.355,1.048-0.627,1.641-0.813
		c0.592-0.187,1.157-0.308,1.695-0.362c0.52-0.027,1.007,0.039,1.463,0.198c0.455,0.159,0.848,0.385,1.176,0.677
		s0.581,0.638,0.759,1.039s0.243,0.825,0.198,1.271c0,0.747-0.148,1.401-0.444,1.962s-0.69,1.03-1.183,1.408
		s-1.064,0.661-1.716,0.848s-1.333,0.28-2.044,0.28c-1.076,0-1.892-0.251-2.447-0.752
		C285.529,110.761,285.252,109.927,285.252,108.76z M286.428,109.17c0,0.383,0.048,0.688,0.144,0.916s0.237,0.398,0.424,0.513
		s0.415,0.189,0.684,0.226s0.581,0.055,0.937,0.055c0.547,0,1.075-0.053,1.586-0.157c0.51-0.104,0.961-0.282,1.354-0.533
		c0.392-0.251,0.706-0.583,0.943-0.998c0.236-0.415,0.355-0.932,0.355-1.552c0-0.319-0.046-0.622-0.137-0.909
		c-0.092-0.287-0.229-0.538-0.41-0.752c-0.183-0.214-0.406-0.385-0.67-0.513c-0.265-0.128-0.565-0.191-0.902-0.191
		c-0.447,0.073-0.894,0.157-1.34,0.253c-0.447,0.096-0.866,0.269-1.258,0.52c-0.393,0.251-0.738,0.62-1.039,1.107
		S286.573,108.313,286.428,109.17z"/>
</g>
</svg>
