<?xml version="1.0" encoding="utf-8"?>
<!-- Generator: Adobe Illustrator 16.0.0, SVG Export Plug-In . SVG Version: 6.00 Build 0)  -->
<!DOCTYPE svg PUBLIC "-//W3C//DTD SVG 1.1//EN" "http://www.w3.org/Graphics/SVG/1.1/DTD/svg11.dtd">
<svg version="1.1" id="Layer_1" xmlns="http://www.w3.org/2000/svg" xmlns:xlink="http://www.w3.org/1999/xlink" x="0px" y="0px"
	 width="400px" height="400px" viewBox="0 0 400 400" enable-background="new 0 0 400 400" xml:space="preserve">
<g>
	<path d="M238.1,116.28"/>
	<polygon fill="#ECF7F9" points="361.175,152.588 362.918,153.802 365.01,154.32 367.275,155.702 369.717,157.084 372.507,159.853 
		373.205,160.369 372.331,161.581 369.543,165.384 367.451,167.634 365.708,170.225 364.312,170.398 362.571,170.053 
		361.523,168.843 360.479,167.634 359.781,166.077 359.956,164.521 361.523,164.347 362.396,162.099 362.571,158.814 
		362.396,156.395 361.523,155.007 360.479,153.802 360.479,152.417 	"/>
	<path fill="#ECF7F9" d="M99.6,17.288c0.347,0,3.659,0,3.659,0l1.57,1.645l1.568,1.207l3.312,0.347l2.268,0.259l0.871,1.728
		l1.919,0.174h2.179l0.871-1.296l0.261-1.903l1.569-0.863l2.18-0.604h3.4l1.48-0.435l2.092-1.469l2.006-1.038l1.655-0.777
		l2.439-0.259l1.744-2.073l1.831-2.338l0.261-1.728l3.835,0.174l0.87,1.726l-0.87,1.473l-0.698,1.383l0.086,1.728l1.745,0.26
		l1.828,0.776l1.224,1.989l0.698,1.56l-0.438,1.554l-1.307,1.298l-0.35,1.642l-0.869,2.85l0.085,1.385l-0.521,1.124v3.287
		l0.085,1.732l0.957,1.292l0.874,1.73l0.087,2.681l1.309,0.777l2.09,1.815l1.135,1.555l2.703,1.73l0.784,1.037l0.173,5.103v2.854
		l-1.22,0.518h-3.836l-3.749-0.088c0,0-0.784,0.865-1.132,0.953c-0.347,0.085-2.265,2.333-2.265,2.333l-0.873,1.816v1.036
		l-0.871,0.691l-0.697,0.865l-0.872,1.21l-0.175,1.559l-0.524,0.775l-1.306,0.262l-0.784-0.777l-0.784-1.041l-1.831-1.122
		l-1.396-0.518l-1.568,0.345l-1.221,1.124l-1.221,0.865l-1.305,1.64l-0.264,4.323l-0.611,0.521l-1.306-0.865l-2.004-2.419
		L121.215,67l-0.697-0.691l1.046-1.472v-1.642l-0.349-0.951l-0.783-1.297l-0.262-1.642l-0.263-2.163l-0.261-1.815l-0.175-2.937
		V49.19l-0.87-1.554l-1.046-1.214l-0.873-1.469l-0.958-1.989l-0.697-1.728l-0.959-2.163l-0.35-0.951l-1.393-1.209h-0.784
		l0.085-3.284c0,0-1.394,0-1.656-0.088c-0.262-0.087-2.354-0.087-2.354-0.087l-1.133,0.087l-1.83-0.344l-0.61-0.347h-0.785
		c0,0-0.261-7.003-0.261-7.261c0-0.259,1.046-1.471,1.046-1.471l0.61-0.951v-2.595l-2.092-1.383l-1.394-0.43l-1.309-0.433
		l-0.522-0.691L99.6,17.288z"/>
	<path fill="#ECF7F9" d="M136.295,190.284c0,0-3.312-0.608-3.835-0.608c-0.524,0-3.575,0.09-4.184,0
		c-0.611-0.084-2.965-0.257-2.965-0.257l-2.091-1.383l-0.959-1.643l-1.309-0.691l-3.224-0.518l-2.093-0.433l-1.221-1.126
		l-1.131-1.383l-0.698-1.298l-0.96-0.602l-1.656,0.692h-1.482l-0.957-0.867l-1.309-0.777l-1.481-0.085l-3.052,0.344l-2.09-0.951
		l-1.744-1.989l-2.441-2.161l-1.393-1.381l-1.311-1.817l-0.957-2.854l0.174-3.886l-0.522-1.818l-0.437-2.25l1.134-1.037l0.087-4.499
		l-0.784-1.64H89.4c0,0-3.486,0.088-4.01,0.088c-0.521,0-3.574,0.777-3.574,0.777l-2.092,0.606l-0.435-0.606l0.696-0.951
		l1.048-1.124c0,0,1.393-0.259,1.654-0.259c0.263,0,2.181,0,2.181,0l2.701-0.086l2.789-0.521h3.228l1.306-0.865l1.219-1.642
		l1.047-1.124h4.531c0,0,1.309-0.086,1.484-0.518c0.173-0.433,0.348-1.989,0.348-1.989l1.57-0.951l0.348-1.989l0.783-1.039
		l1.484-0.086l1.132-2.075l1.132-0.951l1.656,0.088h2.702l1.655,1.295l2.529,1.642l1.656,1.818l1.656,1.728l1.307,0.863l1.222,0.173
		l1.044-0.257h1.309l0.814,2.276l-0.234,1.27l0.35,1.729l0.231,1.612l-0.115,2.88l-0.581,2.077l0.35,2.879l0.231,1.499v1.499
		l-0.116,2.192l0.465,0.574l0.232,1.156l3.139-0.231l4.183,0.115h4.068l0.466,1.384l2.205,0.344l1.28,0.578l-0.234,1.037
		l-1.277,1.383l-0.114,1.614l0.812,2.19l1.277,2.19l0.117,4.263l-1.048,1.151l-2.089,3L136.295,190.284z"/>
	<path fill="#ECF7F9" d="M11.418,130.516c0,0,14.878,6.687,29.288,7.607c3.021,2.075,5.578,3.227,5.578,3.227
		s23.476,12.682,28.822,14.065l-0.233,1.614l-3.022,1.843l-2.787,1.383l-1.628,1.843l-3.022,0.463l-2.323,0.92l-1.858,2.538
		l-1.396,0.692l-1.858-0.232l-2.557-1.152h-3.953h-6.508l-3.021-0.229l-0.697-2.306l-0.232-4.381l0.698-2.997v-3.229l-0.233-2.073
		l-3.021,2.073l-3.489,2.769l-2.554,0.923l-6.275-0.696l-0.465-2.764l-2.79-2.077l-2.093-0.92h-2.323l0.464-1.612v-2.768
		l-1.628-1.846l-2.786-2.996l-2.094-4.149l-1.627-3.227v-2.074L11.418,130.516z"/>
	<path fill="#ECF7F9" d="M11.418,127.518l4.416,2.765c0,0,20.455,6.226,25.104,6.226c0.93,0,2.324,1.152,2.324,1.152l2.79,1.845
		c0,0,26.032,14.063,28.821,14.296c2.792,0.229,2.792-0.922,2.792-0.922l1.625-1.386l1.628-1.612l2.786-0.462l3.256,0.92
		l3.253-1.379h2.094l1.627-0.694l0.698-1.843l3.021-0.691l3.952-0.233l0.929-2.073l1.394-0.923v-2.072l3.022-1.846l0.234-2.077
		l9.296-0.46l1.162,2.306l2.323,2.077l3.022,2.996l2.79-0.233l2.557,0.462h15.339l13.483-0.229l2.322-1.844l0.234-4.612l1.627-3.689
		l0.463-3.918l-1.394-3.229l-0.931-2.304l19.759-39.655l0.93-3.458l0.929-1.846l-3.717,0.922l-3.023-2.074l-3.022-2.535
		l-7.669-0.691l-2.324-3.46c0,0-4.649-6.346-5.113-6.455c-0.699,0.694-0.364-1.837-0.364-1.837l-0.159-3.206l-0.436-2.593
		l-1.717-0.203h-2.845l-3.777,0.057l-0.988,0.257l-1.57,2.137l-2.321,3.053l-1.076,1.7c0,0-0.467,2.249-0.493,2.364
		c-0.03,0.115-0.668,0.892-0.668,0.892l-1.454,0.608l-2.498-0.032l-1.802-1.325l-1.132-1.323l-1.543,0.287
		c0,0-1.305,0.833-1.393,0.893c-0.089,0.056-0.959,1.383-0.959,1.383l-0.115,2.303l-0.205,3.518l-1.364,0.259l-1.54,0.028
		c0,0-1.512-0.835-1.688-0.923c-0.172-0.086-1.045-0.979-1.045-0.979s-1.336-1.182-1.481-1.327
		c-0.144-0.142-1.134-1.411-1.134-1.411s-1.221-1.182-1.278-1.295c-0.058-0.117-0.667-1.124-0.667-1.124v-0.868l0.058-2.044
		l-0.174-4.006c0,0-0.291-1.554-0.32-1.642c-0.028-0.086-0.492-2.708-0.492-2.794c0-0.088-0.06-2.623-0.06-2.623
		s-0.145-2.135-0.261-2.364s-0.96-1.586-1.104-1.788c-0.145-0.199-1.074-1.902-1.074-1.902l-1.046-2.567c0,0-0.67-1.839-0.929-2.216
		c-0.264-0.377-0.96-1.817-1.018-1.903c-0.062-0.088-0.351-0.717-0.351-0.717l-2.703-0.03l-0.407-0.606l-0.841,0.259l-0.843,0.779
		l-2.12,0.921l-0.438,1.815l-1.448,1.584l-1.514,1.615l-2.061,0.291L97.71,46.54l-1.337,1.036l-1.569,1.182l-2.12,2.249
		l-1.803,0.433l-1.684,0.375l-1.046-0.75l-0.088-1.036h-1.334l-1.02,0.199l-0.464,1.212l-1.975-0.032l-2.44-0.026l-0.784-0.548
		c0,0-0.61-0.807-0.697-0.893c-0.089-0.088-1.252-1.039-1.252-1.039l-0.987-0.749l-3.806-0.315l-0.117-5.477l-1.075-1.672
		l-0.636-0.952l-0.613-0.602l-1.365,1.034l-1.191,0.809l-0.666,1.238l-1.688,1.01l-1.424-1.789l-0.438-0.921l-0.84,1.242
		l-0.844,1.122l-4.531,0.03l-3.11-0.176l-4.413-0.116c0,0-0.931,0.231-1.019,0.261c-0.087,0.03-1.279,0.664-1.279,0.664
		s-0.405,0.893-0.38,0.979c0.031,0.088,0.236,1.874,0.236,1.874l0.144,1.328c0,0,0.291,0.488,0.698,0.518
		c0.406,0.028,1.743,0.028,1.743,0.028s1.655,0.088,1.801,0.088c0.146,0,0.755,0.489,0.755,0.489s0.61,0.49,0.669,0.605
		c0.058,0.113,0.698,1.154,0.698,1.154l0.261,1.295c0,0,0,1.21,0,1.297c0,0.085-0.291,1.154-0.291,1.154h-1.018l-1.802,0.113
		l-0.463-0.462l-1.543-0.116l-1.363,0.548l-1.803,0.087l0.029,1.614l-0.057,5.015l0.871,0.833c0,0,1.047,0.576,1.161,0.696
		c0.117,0.113,0.814,0.602,0.989,0.747c0.172,0.144,0.873,0.403,0.873,0.403l0.144,2.449l-0.174,1.182l1.249,1.658l0.566,1.599
		l-0.522,6.31v2.899c0,0-0.74,2.246-0.74,2.633c0,0.39-1.004,2.812-1.004,2.812l-0.042,2.897c0,0-0.568,0.865-0.609,1.164
		C49.087,89.739,49,93.325,49,93.325s-0.653,1.73-0.696,1.987c-0.042,0.264,0,2.509,0,2.509s-0.958,2.895-1.09,3.111
		c-0.132,0.216-0.957,1.557-1.135,1.602c-0.172,0.042-1.829-0.045-2.048-0.045c-0.217,0-1.916-0.606-2.048-0.734
		c-0.13-0.131-0.915-0.647-0.915-0.647h-1.961l-1.481,0.562l-0.61,1.079l-2.311,0.908l-3.27,0.302l-2.962,0.085l-1.742,0.737
		l-2.007,1.167l-1.395,1.039c0,0-2.179,1.469-2.179,1.599c0,0.128-1.917,2.462-2.092,2.681c-0.173,0.214-0.742,2.161-0.742,2.161
		l-0.302,1.383l-0.961,1.34c0,0-0.785,1.167-0.826,1.298c-0.044,0.128,0.26,1.986,0.26,1.986l0.305,1.255l-0.872,2.292l-1.613,1.466
		c0,0-1.785,0.955-1.785,1.126C12.522,125.745,11.418,127.518,11.418,127.518z"/>
	<path fill="#ECF7F9" d="M197.745,37.085l2.615,0.868l1.743,0.342l1.57-0.257l0.695-0.779l2.177-0.085h1.834l1.569,0.78l1.654,0.17
		l2.267-0.085l2.267-1.469c0,0,0.958-1.471,1.22-1.903c0.262-0.433,1.918-4.323,1.918-4.323l2.438-4.149l2.267-3.456l2.354-2.856
		l1.83-1.555l1.568,1.209l1.133,1.383c0,0,0.174,1.818,0.174,2.161c0,0.347,0.09,4.413,0.09,4.413l0.435,1.293l0.959,1.471
		c0,0,0.695,0.777,0.695,1.209c0,0.433,0.35,2.51,0.265,2.767c-0.09,0.259,0.609,3.113,0.609,3.113l0.784,1.557l1.655,1.728
		l1.828,1.382l2.097,0.347l1.046,1.037l1.045,1.73l-0.263,2.072c0,0-0.873,0.347-1.132,0.694c-0.264,0.347-2.267,2.334-3.225,3.199
		c-0.961,0.865-2.617,3.287-2.617,3.287l-2.439,1.987c0,0-1.742,1.21-2.441,1.469c-0.697,0.261-1.742,1.3-1.742,1.557
		c0,0.261-1.136,2.854-1.136,2.854l-1.305,1.816l-1.569,1.987l-0.612,2.421c0,0-0.436,0.52-0.956,0.52c-0.523,0-1.918,0-1.918,0
		s-0.699-1.124-0.959-1.383c-0.263-0.261-1.133-1.817-1.396-2.595c-0.262-0.777-1.567-2.852-1.567-2.852s-0.872-1.383-1.309-1.989
		c-0.434-0.605-1.308-2.336-1.742-2.766c-0.438-0.433-1.219-1.471-1.219-1.471s-0.176-1.903-0.263-2.332
		c-0.088-0.433-0.87-3.027-1.479-3.548c-0.613-0.516-1.659-3.368-1.92-3.631c-0.263-0.255-0.784-1.643-1.57-1.901
		c-0.785-0.259-1.917-0.692-2.613-1.124c-0.695-0.433-2.18-0.951-2.615-1.037s-1.308-1.124-2.266-1.298
		c-0.959-0.173-1.482-0.605-1.919-0.952c-0.436-0.342-1.657-1.554-1.657-2.158C196.697,37.346,197.745,37.085,197.745,37.085z"/>
	<path fill="#ECF7F9" d="M365.361,107.116h1.565l2.268,0.865l2.092,1.036l2.789,0.171h3.311h2.792l2.439,0.347l1.918,1.037
		l1.221,1.559v1.207l1.045,2.596v1.903l0.348,2.766l-0.521,1.036h-2.966h-3.484l-2.267-0.865l-1.566-0.345l-1.049,0.345l-1.221,1.21
		l-0.173,1.385l-0.352,1.557h-1.74l-0.873-1.212l-2.266,0.173h-0.873l-0.523-1.209l1.396-2.422v-1.728l-2.614-0.517l-2.44,0.343
		l-1.396,1.383l-2.439,1.383c0,0-1.221,0.345-1.742,0.345c-0.525,0-1.746,0.173-1.746-0.345s1.572-2.593,1.572-2.593l1.218-2.077
		l2.612-3.976L365.361,107.116z"/>
	<polygon fill="#ECF7F9" points="359.781,150.169 361.352,151.034 363.268,152.244 365.185,152.933 367.275,153.974 
		368.496,154.839 370.066,155.702 371.982,157.084 373.551,158.123 375.119,158.642 376.691,157.258 379.305,155.181 
		381.571,152.417 383.314,150.34 384.535,149.132 385.23,147.055 385.58,145.673 382.966,144.983 380.699,145.33 379.131,145.846 
		378.26,148.267 376.345,149.302 373.902,149.651 371.111,149.651 368.496,149.651 366.927,148.961 365.185,147.92 364.138,147.055 
		362.744,147.055 361.175,147.92 360.302,149.132 	"/>
	<path fill="#ECF7F9" d="M240.713,74.089l1.396-0.345l0.873,0.345l1.045,0.516l1.221-0.689l1.047-1.039l1.221-0.689l1.218,0.521
		l0.873-0.521l1.566-1.385l1.922-0.171l1.566-2.248l1.396-2.074l0.348-1.73l0.523-1.728l-2.788-0.171l-1.918-0.347h-2.443
		l-1.217,0.171h-2.441l-1.569-0.52l-2.092-0.692l-1.746,0.347l-0.695,1.899l-0.173,1.561L239.669,67c0,0,0.349,1.901,0,2.417
		c-0.348,0.521-0.524,2.771-0.524,2.771l-0.173,2.417l0.697,0.175L240.713,74.089z M248.562,59.048l-0.699-1.559l-1.393,0.173
		l-1.048,1.729l1.395,0.867L248.562,59.048z M244.201,58.702l0.175-1.212l0.872-2.246l-2.789-0.693l-1.57,1.901l-0.871,1.556
		c0,0,2.092,0.347,2.617,0.347C243.156,58.354,244.201,58.702,244.201,58.702z M234.789,61.465l1.221-0.689l0.697-1.559v-1.036
		h-1.743l-1.919,1.036l-0.522,2.248l0.349,2.073L234.789,61.465z M227.99,68.557l1.568-1.732l-0.696-1.381l-1.221,0.691
		l-1.569,2.766l-1.047,2.767l1.568-0.865L227.99,68.557z M236.707,65.962l-0.872,0.347l-1.222,0.345l-0.695,0.864l1.046,0.347
		l1.046,0.518l1.918-1.038L236.707,65.962z M237.928,62.851l0.172-2.075l-1.219,0.516l-0.35,1.559H237.928z M235.485,71.147
		l0.172,1.561h1.571l0.175-1.385l-0.696-1.21h-1.05L235.485,71.147z M277.846,69.852h-2.7l-0.783-1.383c0,0-2.703-0.345-3.139-0.518
		s-2.181-0.345-2.181-0.345l-2.526-0.261l-2.268-0.433l-1.481,0.174l-1.046,1.038l-5.405,5.792l-3.05,3.717l-2.354,1.298
		l-2.527,0.085l-1.394-0.863l-1.223,0.085l-0.696,1.037l-0.521,1.039l-1.568-0.606l-1.48-1.21l-4.186-0.777
		c0,0-1.307-0.604-1.57-0.777c-0.261-0.173-1.394-1.73-1.394-1.73l-1.308-2.854l-0.699-0.606h-2.003l-2.701,1.645l-2.528,1.208
		l-4.01,0.78l-1.046-1.037l0.522-1.902l2.266-0.433l-0.174-1.036l-2.614-0.347c0,0-1.394-1.471-1.743-1.643
		c-0.348-0.173-1.652-2.247-1.652-2.247l-0.353-2.163l-1.306-1.642l-2.704-3.719c0,0-0.433-2.246-0.871-2.94
		c-0.435-0.689-0.697-2.074-0.697-2.592c0-0.517-1.133-2.075-1.656-2.51c-0.521-0.43-1.046-2.505-1.392-3.023
		c-0.352-0.516-1.744-1.73-1.744-1.73l-2.705-1.557l-2.787-1.987c0,0-2.093-0.433-2.441-0.694c-0.349-0.257-2.354-1.036-2.526-1.378
		c-0.177-0.349-0.523-2.595-0.523-2.595l-0.263-2.421l-1.047-1.297c0,0-1.916,0-2.177,0c-0.264,0-2.266,0.605-2.266,0.605
		l-1.048,0.78h-2.266l-1.22-0.259l-0.261,1.12l0.085,1.905v1.726l-0.259,0.779H180.4l-4.098-0.342l-2.093,0.171
		c0,0-2.353-0.171-2.788-0.088c-0.438,0.088-2.963,1.728-2.963,1.728l-2.27,0.867l-2.351,1.125l-3.837,1.295l-1.832,1.295
		l-1.393,0.523l-0.087,6.57l0.175,2.762c0,0,0.523,4.327,0.523,4.755c0,0.435,0.523,2.25,0.523,2.25l1.566,1.124l0.872,1.039
		l0.437,1.986l1.133,1.469l1.482,1.733l1.395,1.466l1.744,0.173l1.655,0.173l0.61,0.259l1.395-0.518l1.221,0.085l1.309,0.865
		l1.479,1.728l1.831,0.694l1.918,1.125l1.828,0.085l0.961-0.865l1.482-0.259l1.654,0.863l-0.175,1.385l-0.173,1.469l-0.87,0.344
		l-0.874,2.075l-0.521,1.994l-1.309,1.469l-1.916,4.841l-16.3,32.677l0.087,1.3l1.219,1.464l0.174,1.387
		c0,0,1.133,1.037,1.047,1.295c-0.086,0.259,0,2.249,0,2.249l1.047,1.124l0.785,1.124l0.782,2.249l1.134,1.297l0.262,2.334
		l0.088,3.458l2.005,1.471l2.354,1.899l1.567,1.644l1.918,1.641l1.308,0.347l3.66,0.264l4.882,0.516l1.306,0.518l12.38,0.521
		l11.593,0.085l7.667,0.606h7.759l10.547,0.435l3.14,0.083l1.132-2.854l2.613-4.234c0,0,1.919-1.904,2.178-2.075
		c0.264-0.173,1.57-1.728,1.57-1.728l0.959-2.595l0.263-2.681l-0.351-1.816l-0.958-1.036l0.264-2.68l1.045-1.471l0.436-1.987
		l0.522-1.901c0,0,0.697-0.437,1.134-0.692c0.435-0.259,2.7-2.163,2.7-2.163l1.743-1.039l0.872-1.295l1.397-2.508l0.085-2.333
		l-0.085-2.25l-0.96-0.174l-1.745-0.777l-0.697-1.728l2.182-2.595l5.577-4.755l2.964-1.295l2.179-2.767l4.359-6.916l3.051-4.063
		l0.174-2.852l0.697-1.732l1.133-1.985l1.223-2.856l0.433-4.321l0.871-1.126v-2.766L277.846,69.852z"/>
	<path fill="#ECF7F9" d="M257.625,110.918l2.614,0.347l2.093,0.865l2.613,1.036l0.874,1.73l0.87,3.458l-0.349,3.805l-0.175,3.458
		l-0.695,1.728l-0.697,1.73l0.172,1.901l2.094,1.383l1.219,1.728l1.571,1.903l2.617,1.212h2.612l0.697,1.901l-0.871,1.554
		l-1.743,0.868l-1.221,1.554l-0.348,1.903l-0.35,1.901l0.871,1.383l1.568,2.073l1.047,1.559l0.349,1.903l0.522,1.557l1.222,1.899
		l1.043,0.865l1.569,1.038l1.919,0.345l0.699,1.037l-1.223,0.867l-1.567,1.726l-1.046,1.559l-1.222,2.075l-0.173,2.593v1.557
		l2.092,1.38c0,0,0.175,0.347,0,1.041c-0.176,0.687,0,3.631,0,3.631l-0.871,1.208v2.077l0.695,1.212l-0.175,2.072l-1.394,0.173
		l-4.185,1.729l-2.962,0.692l-3.487,0.518L264.6,187l-0.351,1.037l-2.614-1.383l-1.744-0.691l-1.569-0.691l-1.743-1.039
		l-1.393-1.383h-1.396l-2.789,0.174l-1.918,1.382l-0.871,1.73l-2.092-0.692l-1.744-0.691l-1.22-1.385l-1.568-2.764
		c0,0,0.347-1.383-0.35-1.383c-0.697,0-2.615,1.383-2.615,1.383l-0.871-3.114v-5.706l0.696-6.224l1.744-5.017l1.569-2.938
		l0.697-3.113l0.349-3.632l1.045-2.074l2.79-2.94l1.395-1.383l1.395-2.075l1.049-2.249l0.692-2.938v-2.077l-0.692-2.419l0.171-2.592
		l0.698-2.942l2.613-1.38l2.441-2.077l1.744-1.901l1.044-2.595l0.698-2.938v-2.595l-1.569-1.901L257.625,110.918z"/>
	<path fill="#ECF7F9" d="M281.944,71.841l2.005,0.173l1.744,1.469l1.479,0.173l2.355,0.088l1.918,0.777l1.221,1.645l2.438,1.812
		c0,0,1.222,1.646,1.222,1.903c0,0.259,0.346,1.468,0.346,1.817c0,0.343,0,1.811-0.259,1.901c-0.262,0.083-1.917,1.728-1.917,1.728
		l-0.438,1.643l0.175,2.075l1.221,1.039l1.57-0.435l0.782-1.728l1.919-1.036h1.569l0.783-1.039c0,0,0.785-0.951,1.394-0.951
		c0.612,0,3.312-0.085,3.312-0.085l1.396-0.692l1.133-0.518l2.18,0.43l1.83,0.865l2.179,1.381l1.656,0.781l2.876,0.345l1.655,0.432
		l-0.172,1.645l-1.222,1.295l-1.917,1.036l-0.784,0.521l-2.791,0.604l-1.22,2.421l-1.396,2.42l-1.047,1.815
		c0,0-0.172,3.115-0.172,4.67c0,1.556,0.785,2.939,0.785,3.543c0,0.606,0.608,2.424,0,3.113c-0.613,0.689-1.137,2.854-1.744,3.372
		c-0.612,0.518-0.349,2.852-0.349,2.852l0.175,1.385l1.656,1.901l-0.352,2.507l-1.046,1.383l-2.264,0.173
		c0,0-1.396-0.606-1.743-0.606c-0.349,0-2.179,0.088-2.179,0.088l-2.005,0.17l-1.309,0.694l-1.919,1.64l-1.653,1.73l-2.27,2.163
		l-2.176,0.863l-3.836,1.038l-2.443,2.075l-1.132,2.591l-0.26,1.732c0,0-0.522,2.162-0.61,2.505c-0.09,0.349-1.395,2.25-1.57,2.509
		c-0.175,0.257-1.047,3.025-1.047,3.284c0,0.259,0.176,3.116,0.176,3.116l0.61,1.381c0,0,0.61,1.383,0.349,1.643
		c-0.263,0.259-0.175,3.717-0.175,3.717l-1.046,1.383c0,0-1.48-0.518-1.828-0.604c-0.353-0.085-1.57-0.865-1.57-0.865
		s-0.784-2.249-0.872-2.767c-0.087-0.518-0.175-2.507-0.522-2.94c-0.35-0.432-1.135-0.948-1.57-1.559
		c-0.434-0.604-1.657-1.985-1.657-2.246c0-0.259,0.175-1.987,0.175-2.246c0-0.261,1.049-2.421,1.049-2.421s1.916-0.777,2.264-0.953
		c0.351-0.169,0.873-2.593,0.873-2.593v-2.248c0,0-0.262-0.347-0.873-1.036c-0.609-0.691-4.531-0.349-4.531-0.349l-2.091-1.295
		l-2.183-2.764c0,0-1.133-1.728-1.045-2.077c0.088-0.347,0.872-3.629,0.872-3.629l0.436-8.215l-0.263-2.764l-0.871-1.815
		c0,0-4.011-2.593-4.359-2.593c-0.347,0-2.439-0.521-2.439-0.521l-0.521-1.124l2.614-3.027l3.139-1.555l2.003-1.729l2.093-3.285
		l2.531-4.063l2.088-2.938l1.834-2.854l0.435-1.73l0.522-1.73l0.349-1.554c0,0,0.438-1.124,0.609-1.385
		c0.173-0.259,1.221-2.16,1.221-2.16s0.611-2.595,0.611-2.852c0-0.259,0.434-2.163,0.434-2.421c0-0.259,0.871-3.025,0.871-3.025
		L281.944,71.841z"/>
	<path fill="#ECF7F9" d="M323.172,87.921h1.395l2.09,0.691l0.525,0.868l-0.871,1.208l-0.348,1.383l0.172,1.383l1.221,1.903
		l0.873,2.075l1.046,1.901v1.903l0.521,2.073v3.978l0.696,6.051l0.175,2.596l0.351,1.903l0.696,3.455l0.696,1.904l0.523,1.383
		l1.742,1.212l0.523,1.554c0,0-0.347,1.036-0.871,1.21c-0.522,0.173-1.219,1.903-1.219,1.903l0.173,2.421l0.7,1.899l0.346,1.73
		l-0.696,2.077l-2.965,1.726l-2.964,2.251l-2.092,1.901l-2.265,2.421l-2.44,1.383l-2.439,0.176l-1.569,1.032l-1.742,0.52h-2.093
		l-1.396-0.173l-2.093-0.689l-2.613-0.52l-1.395,0.173l-0.874,1.036l-1.22,1.385l-0.173,2.075v1.726l-0.524,2.077l-1.044,1.385
		l-1.394,1.384l-1.919,0.516l-1.917,1.041l-1.918,1.037l-1.917,0.689c0,0-0.699-0.519-1.745-0.689
		c-1.044-0.174-1.044-0.174-1.044-0.174l-1.222-1.554l-0.698-1.212l-1.046-0.692h-2.266l-0.175-2.59l-0.173-2.25v-2.422
		l-0.524-1.901l-0.35-2.767l0.874-2.248l1.045-1.901l1.219-2.769l0.698-2.765l0.522-1.901l1.049-1.041l1.394-1.036l1.569-0.519
		l1.917-0.693l2.266-0.863l2.267-2.075l1.742-1.904l1.569-1.209l2.268-0.345l1.743-0.173l1.918,0.347h1.915l2.095-0.865l1.218-2.248
		l0.175-2.422l-0.522-1.385l-0.87-1.555l0.35-2.248l0.346-1.73l0.697-1.383l1.045-1.383l-0.521-1.728l-0.174-2.595l-0.35-3.112
		v-2.072l0.35-2.248l1.046-1.73l1.396-2.422l1.743-0.518l3.66-2.077l1.567-2.075L323.172,87.921z"/>
	<path fill="#ECF7F9" d="M355.246,123.887l-0.87,2.249l0.349,1.556l0.872,1.383l-0.351,2.075l-0.348,1.556l1.047,0.519l2.094,0.173
		l2.785-0.518l2.268-1.556l2.789-1.728l1.046-0.176l2.79,0.521l0.35,1.728l-0.698,0.863l-0.872,2.941v1.21l0.524,0.689l1.568,0.349
		l1.222-1.559l2.265-1.557h1.568l3.312-0.518l2.793-0.689l2.089-1.901l1.393-1.039l1.57-0.345h2.963v-1.732
		c0,0,0.174-2.077-0.347-2.246c-0.524-0.174-1.047-1.904-1.047-1.904l-0.87-0.691l-4.186-0.692h-2.789l-2.44-0.171h-2.092
		l-0.874,1.726l-1.394,1.901l-2.093,0.349l-1.566-1.21l-1.744,0.173l-1.221,0.688l-1.221-1.032l-1.219-1.732l0.871-2.593
		l1.222-1.729h-1.57l-1.917,1.038l-0.871,1.383l-1.572,0.691l-1.043,0.171l-2.442,0.176L355.246,123.887z"/>
	<path fill="#D9F0F4" d="M329.621,88.094l-0.697,1.555l-0.524,1.385l0.177,1.902l0.175,0.867l0.695,1.21l0.698,1.383l0.522,1.037
		v1.73l0.873,1.73l0.174,1.901v2.764l0.175,1.903l0.172,2.939l0.35,2.938l0.175,2.942l0.349,2.248c0,0,0.176,1.038,0.349,1.901
		c0.175,0.863,1.222,2.767,1.222,2.767l1.741,0.863l0.698,1.214l-0.349,2.073c0,0,0.175,0.691-0.35,1.21
		c-0.521,0.52-0.347,1.728-0.347,1.728l1.917,0.175l2.439-0.175l2.269-0.169h1.918l1.566,0.518l1.918,1.21l1.568,1.901l1.396-0.173
		l1.744-1.728l1.046-1.21l-0.522-1.557l-0.523-1.211v-2.247l1.046-2.248l0.348-2.595l1.743-2.937l2.438-2.94l1.747-2.942
		l1.567-2.767l1.395-2.591l2.443-1.558l-4.537-3.974l-3.831-2.944l-1.048-1.555c0,0-1.569-1.039-2.091-1.039
		c-0.526,0-2.267-1.036-2.267-1.036l-2.441-1.729l-2.613-1.729l-2.617-1.385l-2.613-1.381h-2.79h-3.66h-1.743L329.621,88.094z"/>
	<polygon fill="#D9F0F4" points="330.844,143.08 332.76,144.636 333.457,146.019 333.632,147.229 334.504,148.612 334.504,149.302 
		335.026,150.169 336.245,149.475 337.293,148.267 338.337,146.537 340.081,146.537 341.127,144.983 342.698,143.598 
		344.963,142.215 346.707,141.695 348.45,142.042 350.365,142.735 352.283,143.08 354.027,144.463 356.293,145.673 357.514,147.229 
		359.432,147.055 361.352,145.673 362.744,144.81 364.312,145.846 366.229,147.055 367.974,147.576 370.066,148.443 373.38,148.267 
		376.167,148.092 376.691,147.055 377.911,145.155 379.131,144.292 380.875,143.771 382.792,143.771 384.711,143.771 
		386.628,143.771 387.324,142.562 388.022,140.658 388.719,138.41 389.764,135.125 389.764,132.706 388.37,131.841 386.279,131.668 
		384.887,132.531 383.662,133.569 382.096,134.434 380.699,135.125 378.432,135.472 376.691,135.472 375.119,136.162 
		373.205,137.029 372.331,138.239 371.111,139.622 369.021,139.793 367.799,138.757 367.275,136.855 367.275,134.952 
		367.627,132.531 367.799,131.668 366.927,131.323 365.361,131.668 363.789,132.706 361.695,134.26 360.127,135.125 
		357.339,134.952 356.118,134.952 354.55,134.952 352.111,134.952 349.844,135.125 347.926,134.952 346.357,133.053 
		344.441,132.013 342.869,132.013 339.559,131.668 335.026,131.497 335.375,132.879 335.55,134.087 336.245,135.99 336.245,136.855 
		335.375,138.41 334.154,139.793 332.585,141.176 	"/>
	<path fill="#C6E8EE" d="M278.895,170.053l0.175-2.767l1.219-2.593l1.916-1.036l1.221-1.212l1.572-1.728l1.565,0.342l1.049,1.556
		l1.221,1.386l1.567,0.518l2.093,1.039l1.394-0.175l2.092-1.208l1.571-0.694h2.789l1.044-1.21l2.441-2.074l1.568-2.593l0.523-1.381
		v-1.904l-0.349-0.691l-0.175-1.904l0.87-1.209h1.744l1.047,0.691c0,0,1.743-0.173,2.441,0c0.695,0.172,1.218,1.037,1.218,1.037
		h2.443l1.915-0.519l2.443-1.036l2.963-0.694l2.264-0.863l1.395-2.248l1.568-1.039l2.269-1.036l1.393,0.689l0.35,1.038l0.347,1.555
		l0.35,2.424l1.396,1.209l1.744,0.345l3.136-2.075l1.92-1.903l1.918-0.516l1.393-2.076l1.222-1.381l1.396-0.52h1.217l1.221,0.52
		l1.744,0.692l1.396,0.52l2.265,1.555l1.221,1.036l1.396,1.041l1.394,1.034l0.696,2.422l-0.175,1.557l0.349,1.208l1.567,0.867v0.865
		l-0.171,5.358l-1.396,0.692l-1.392,0.694v1.901l0.344,1.383l0.874,1.728l1.219,1.903l1.919,1.726l1.744,0.87l-0.873,2.591
		l-2.613,3.115l-2.27,2.593l-1.916,2.246l-0.175-1.039l-1.568-1.037l-1.916-0.17l-1.744,0.518c0,0-0.696,1.037-0.696,1.555
		c0,0.522,0.172,1.558,0.172,1.558v2.073l-0.871,1.729l-1.218,2.249l0.348,3.285l0.347,1.728l0.523,1.384l-0.172,1.557l-0.352,1.034
		l0.176,4.672l0.348,3.63l-0.172,2.074l0.696,1.385v1.729l-0.35,3.113l-0.872,1.9l-0.347,2.768l-0.7,2.421l-0.872,1.556v2.94
		l0.698,0.518v1.384l-2.438,2.246l-2.269,2.766l-1.218,0.348l-1.746-1.037l-0.871-1.729l-0.349-1.73l-1.393-1.037l-0.871-1.557
		l-0.351-1.73l0.174-1.381l1.57-1.729l1.219-2.248l1.745-1.73l1.043-2.249v-2.593l-2.788-2.074l-2.612-1.037l-2.268-0.864h-2.44
		h-2.439l-1.221-0.691l-0.525-1.384l-1.917-1.902l-1.566-0.863c0,0-1.919-0.348-2.614-0.348c-0.697,0-1.917-0.52-1.917-0.52
		l-2.616-0.863l-2.093-1.729l-2.093-1.037l-1.218-0.517l-2.615-0.173l-1.918,0.344l-1.395,0.516l-0.697-1.385l-0.523-1.723
		L303.3,197.2l-2.962-0.518l-1.571,0.173l-2.614,0.691l-2.615,1.902l-3.138,1.559l-2.616,1.729l-2.439,1.208l-1.743,1.384
		l0.174-2.422c0,0,0.349-2.598-0.174-3.114c-0.522-0.516-1.221-2.592-1.221-2.592l-1.219-1.899l-0.351-3.46l0.351-1.557l0.347-2.938
		v-3.807l-0.697-2.072l-0.522-3.46l0.873-1.73l0.521-2.25l-0.871-2.764L278.895,170.053z"/>
	<path fill="#C6E8EE" d="M169.592,353.105l1.857-0.227l1.628-1.041l1.86-0.688l1.742,0.344l1.626,1.732l2.674,2.303l2.208,2.418v1.5
		l0.931,1.039l1.279-0.35l1.511-0.805l1.043-0.574l1.165,1.037l0.697,0.805l1.044,1.385l1.514,1.27l1.742-0.348l1.511,1.498
		l1.743,0.807l1.279,0.922l1.51,1.73l1.162,1.5l1.744-0.115l1.859,1.379l0.348,1.156l1.276,1.154l1.281,1.727
		c0,0,0.464-0.002,0.812,0.23c0.352,0.23,1.744,1.156,1.744,1.156l0.929,1.035l-0.115,2.65l-0.926,1.268
		c0,0-1.514,0.807-1.514,1.152c0,0.348-0.118,4.727-0.118,4.727l1.164-0.922l1.742-1.268l2.441-1.154l1.044-1.957l1.979-2.076
		l0.696-2.996l1.047-2.885l1.044-1.727v-3l1.044-1.727l1.397-1.15l0.114-2.652l2.56-0.578l1.276-0.922l0.348-2.766l1.629-1.156
		l1.161-4.842l1.046-0.572l1.628,0.459l0.116,0.807l1.277,0.461l0.93-1.033l1.279-0.348h1.742l-0.115,2.766l-1.16,1.152
		l-1.396,1.961l-2.44,2.186l-1.161,2.078l-1.046,1.613l-2.327,1.498l-2.556,1.617c0,0-1.512,0.688-1.858,0.918
		c-0.349,0.23-1.278,0.809-1.278,0.809l0.116,1.383l0.93-0.113l1.276-0.119l1.979-0.922l2.321-1.729l2.209-2.072l2.209-2.078
		l2.44-2.764l2.788-3.807l1.744-3.227l1.978-4.035l0.812-2.189l1.161-2.652l-1.045-0.689l-1.513-0.348l-0.231-2.189l0.93-2.307
		l1.28-1.957v-0.924l-3.139,0.234l-2.558-0.578l-1.858-0.463l-2.442-2.42l-1.394-1.613l-1.859-1.73c0,0-1.974-1.15-2.442-1.498
		c-0.463-0.346-2.672-0.92-2.672-0.92s-2.439-0.924-3.138-1.039c-0.696-0.115-2.788-0.115-3.484-0.461
		c-0.698-0.348-3.602-0.807-3.952-0.922c-0.349-0.115-2.094-0.922-4.301-0.807c-2.206,0.117-4.995,0.117-5.811,0.117
		c-0.813,0-2.557,0-2.557,0l-1.741,1.264l-1.977,1.387l-2.674,1.264l-2.092,1.268l-1.861,1.154l-1.856,1.039l-20.688,20.746
		L169.592,353.105z"/>
	<path fill="#C6E8EE" d="M206.779,315.992v2.533l0.119,2.537l0.23,1.381l1.975,0.115h2.56l2.323,0.117l2.559,0.348l3.483,0.92
		l2.093,0.922l1.625,0.348l2.093,0.689l1.858,0.463l1.512,0.805l8.135,7.725l1.744,0.578l2.323-0.117h2.558
		c0,0,0.699-0.346,0.93,0.346c0.233,0.693,0.698,1.498,0.698,1.498l-0.232,1.385l-0.583,1.27l-1.392,1.498l-0.582,1.266l1.394,0.344
		l1.396,0.578l0.931-1.383l1.975-1.729l1.742-1.498l3.139-1.613c0,0,0.814-0.693,0.93-1.152c0.113-0.463,0.932-3.346,0.932-3.346
		l0.695-2.535l0.233-2.766v-2.652l-0.116-3.111c0,0,0-2.307,0-2.652s-0.117-2.883-0.117-2.883l-0.349-1.613l-2.091-1.613h-1.861
		l-1.51,0.576l-0.93,0.807l-1.045,0.23l-1.977,0.578l-1.046-0.463l-0.698-0.805l-0.694-0.809l-1.744,0.119l-1.513,0.113
		l-2.325,0.344h-1.512l-1.275,1.385l-1.048,0.807l-1.977-0.117l-0.695,0.691l-1.047,1.385l-0.579,1.268h-1.397h-1.626l-1.741-0.232
		l-2.442-0.227l-2.325-0.578l-1.973-0.689l-1.857-0.578l-1.86-0.234h-1.279l-2.906-0.455l-2.206-0.232L206.779,315.992z"/>
	<polygon fill="#C6E8EE" points="201.897,292.934 201.897,297.312 201.669,300.773 201.669,304.578 200.156,306.305 
		199.459,306.766 200.271,307.227 201.318,307.227 202.132,306.535 202.83,306.879 204.223,309.072 205.037,310.688 
		205.502,312.875 207.71,313.916 210.383,314.375 212.941,314.605 215.728,314.721 218.52,315.068 219.564,315.875 222.005,316.562 
		225.724,317.371 228.627,317.486 229.441,316.68 229.559,315.41 230.257,313.916 233.045,313.797 234.555,313.684 235.835,312.301 
		236.763,311.492 239.202,311.492 242.459,311.492 245.014,311.492 245.597,312.76 246.756,313.34 247.92,313.221 249.432,312.07 
		250.943,311.721 252.567,311.721 254.426,311.721 255.591,312.412 256.404,312.412 257.103,311.15 257.566,309.529 
		258.729,308.381 259.076,307.344 259.891,306.766 259.773,305.039 258.729,304.23 257.219,304.23 255.824,304.117 255.242,303.654 
		255.359,301.926 255.359,300.541 248.85,300.541 248.269,298.006 248.037,295.469 246.991,293.742 245.48,292.471 245.364,290.975 
		245.014,287.746 244.781,285.213 243.271,283.711 241.297,283.482 234.092,283.367 232.346,282.213 231.188,281.52 
		229.791,281.174 228.627,280.947 225.373,280.715 221.654,280.484 220.377,280.484 217.821,280.484 215.845,280.598 
		213.637,280.598 212.475,280.598 210.497,281.52 208.523,283.135 206.546,284.98 205.851,286.592 203.526,289.131 202.712,290.744 
			"/>
	<path fill="#42B3C6" d="M215.38,278.064l3.372,0.229l3.485,0.232h2.788l2.672,0.23l2.094,0.461l2.208,1.381l1.628,0.465h3.254
		h2.556h3.022l1.627,0.346l0.695,1.035l1.048,1.039l0.927,0.922l0.468,1.268v1.844v1.383l0.117,1.498l0.462,1.152l0.582,0.232
		l0.349,1.152l0.815,1.039l0.229,1.266l-0.114,1.846l0.114,1.037l2.443,0.113h3.253l1.044,0.23l0.584,1.154l0.116,1.615l0.348,0.691
		l1.626,0.111l1.63,0.58l0.347,0.574l1.163-0.344l1.161-1.848l2.44-1.381c0,0,1.162-0.918,1.395-1.268
		c0.234-0.346,3.605-2.303,3.605-2.303l2.208-1.963l1.278-1.037l2.322-0.922l1.629-0.578l1.279-0.23l1.511-1.498l5.927-0.117
		l0.929-1.609l2.673-1.617l1.395-0.57l2.324-0.234l1.512-0.344l-0.117-1.041l0.117-1.037l1.395-1.381v-2.076h-1.742l-1.746-1.152
		h-2.092l-1.975,0.807l-1.859,0.689l-1.627,0.811l-1.975,0.691c0,0,0,0.918-0.35,1.033c-0.349,0.119-3.37,0.119-3.37,0.119
		l-2.672,0.111l-1.28-0.574l-1.046-2.076l-0.462-1.496c0,0-0.582-1.498-0.699-1.844c-0.115-0.346-0.115-2.652-0.115-2.652
		l-0.116-2.418l0.116-1.617l0.347-1.613l-1.744-0.463c0,0-1.743,0-2.092-0.689c-0.347-0.695-1.396-2.076-1.396-2.42
		c0-0.348-0.581-1.73-0.581-2.305c0-0.58-0.114-1.848-0.114-2.654c0-0.805-0.116-1.268-0.116-1.613c0-0.348-0.814-2.305-0.814-2.305
		l-1.277-0.924l-1.743-0.229l-1.397,0.345l-3.021,0.575h-3.717l-1.511,0.115l-0.701,1.502l-0.463,1.15l-1.741-0.805l-2.093-0.811
		l-1.161-1.728c0,0-0.699-1.04-1.514-1.15c-0.812-0.117-1.744-0.117-2.903-0.117c-1.161,0-4.418,0-4.418,0l-2.205-0.692
		l-1.396-0.115l-1.395,0.691l-1.979,1.039l-1.394,1.844l-2.671,2.076l-2.093,2.535l-0.582,1.729l-1.508,2.189l-0.233,1.844
		l-1.048,1.615l-0.114,1.5l-1.047,1.729l-2.092,1.496l-2.207,1.963L215.38,278.064z"/>
	<path fill="#B3E1E8" d="M296.385,277.832l3.139-1.842l1.858-0.348l3.487-0.232l2.323-0.572h1.277h1.743l2.326-0.691l1.978-1.041
		l1.046-0.459l1.275-0.576l0.93-0.924l1.281-1.498l0.465-2.074l0.462-1.5l0.118-1.383l1.627-1.037l0.697,0.461l0.581,1.268
		c0,0,0.928,0.461,1.277,0.691c0.349,0.232,1.858,0.463,1.858,0.463h2.441h1.045l0.117,3.688l0.581,1.039l-0.116,1.037l-1.046,0.689
		l-1.86,1.039l-0.812,0.459l-1.628,0.463l-1.51,1.152l-0.813,1.498l-1.044,1.615l-0.583,0.92v1.271l-2.207,0.23c0,0-3.137,0-3.486,0
		s-2.789,0-2.789,0l-1.045-0.924v-1.154h-1.63l-1.161,0.117v1.842l-0.814,0.924c0,0-2.789-0.115-3.141-0.115
		c-0.345,0-1.623-0.459-1.623-0.459l-1.744-0.461l-0.928,1.035l-0.931,0.348l-0.582-1.039l0.698-1.615l-0.465-1.264l-1.164-0.463
		L296.385,277.832z"/>
	<path fill="#ECF7F9" d="M324.276,263.885l1.396,0.576l1.278,0.578l3.717-0.461l0.929-1.037l1.164-1.156l0.932-1.264l1.508-1.846
		l1.396-1.963l0.698-1.264l0.93-2.423l0.463-2.192l2.326-1.15c0,0,0.811-0.461,0.811-0.922c0-0.463,0.352-2.883,0.352-2.883
		l0.35-3.918v-2.994l-0.815-2.307l-1.511-0.925l-1.743-1.268l-1.397-0.345h-2.67l-1.163,0.461l-1.044,0.691l-1.047,0.807v1.383
		l0.117,1.268l0.229,1.73l0.7,1.498l-0.7,1.037l-0.115,0.92v1.73l-0.347,2.193l-0.698,2.647l-0.698,1.499l-1.161,1.385l-0.581,1.498
		l-0.582,1.037l-1.857,0.346l-1.395,0.693l-0.118,1.959l-0.115,1.959l-0.232,2.189L324.276,263.885z"/>
	<path fill="#B3E1E8" d="M234.005,250.973l0.087,1.039l3.047-0.086h2.966l3.138,0.172l4.185,0.09l2.093,1.035l0.961,1.037
		l0.869,1.036h1.654l0.523-0.694c0,0,0.436-0.598,1.046-0.598c0.612,0,2.182,0.083,2.792,0c0.61-0.092,1.305-0.523,1.656-0.523
		c0.346,0,2.7-0.258,2.7-0.258s1.919-0.346,2.179-0.346c0.261,0,2.354,0,2.354,0l1.481,0.518l0.873,0.865l0.871,1.036l0.524,1.815
		l0.524,1.902v1.9l0.433,1.646l0.263,0.863l0.697,1.125l1.045,1.209l1.223,0.695l1.044,0.256l1.307,0.607l0.437,1.211l-0.087,1.467
		l-0.174,1.385l-0.522,1.209v1.729l0.087,1.645l0.523,1.379l0.436,0.781l0.785,1.209l0.088,1.213l0.172,0.865h1.484l2.177-0.088
		l0.436-1.125l0.958-1.207l1.484-0.521l0.521,0.521c0,0,1.219,0.082,1.481-0.088c0.263-0.174,1.048-0.607,1.048-0.607l1.917-0.604
		l1.393-0.777l1.133-0.607l2.269-0.518l1.918-0.43l1.306-0.52l1.395-0.434l2.008-0.434l1.916-0.26l1.306-0.258l1.483-0.174h2.613
		l1.83-0.086l1.919-0.691c0,0,2.005-0.865,2.005-1.123c0-0.26,1.916-1.469,1.916-1.469l1.048-1.471l0.87-2.164l0.785-2.072
		l0.697-1.297l0.872-1.555l0.96-1.211l0.522-1.73l0.611-1.988l1.131-1.383l2.615-0.086l0.697-1.125l0.871-2.075l1.133-1.47
		c0,0,0.086-1.123,0.086-1.559c0-0.43,0.611-2.937,0.611-2.937l-0.35-1.469l-0.608-0.782l0.261-1.811l0.87-0.523l-0.086-1.554
		l-0.957-0.692c0,0,0.085-1.211,0.085-1.555c0-0.348,0.785-1.729,0.785-1.729l0.436-0.694c0,0,0.088-1.21,0.699-1.554
		c0.608-0.346,1.217-0.519,1.217-0.519l0.699-0.087l0.784,0.172h2.006h1.394l0.173-0.777l-1.917-1.729c0,0-1.13-1.643-1.217-1.903
		c-0.089-0.257,0.172-2.854,0.172-2.854l0.436-2.591l0.96-0.52h1.48l0.173-1.381l0.7-1.643l0.959-1.126l0.871-1.039l0.087-2.077
		l-2.178-1.035l-1.571-0.689l-1.831-0.691c0,0-1.131,0-1.395,0c-0.261,0-1.916,0-1.916,0h-1.221l-1.31,0.518h-1.13l-0.35-1.21
		l-0.35-1.729l-1.393-1.207l-0.871-1.125l-0.96-0.435c0,0-1.221-0.171-1.569-0.171c-0.347,0-1.918,0-1.918,0l-0.87-0.086
		l-1.568-0.607l-3.051-1.641l-2.006-1.557l-1.48-1.212c0,0-1.046-0.088-1.397-0.088c-0.346,0-1.653,0.175-1.653,0.175l-0.175,0.865
		l-1.222,0.088l-2.091-0.088l-1.481-1.559l-0.438-1.034l-0.435-0.953l-1.22-0.777l-1.57-0.262l-1.566,0.088l-3.139,2.16
		l-5.318,3.375l-4.792,2.332l-2.183,0.693l-1.394,0.602l-0.173-2.334c0,0-1.046-1.209-1.308-1.209c-0.261,0-1.656,0-1.656,0
		l-1.047,1.297l-1.481,0.518l-0.872,0.26l0.089,2.51l0.522,1.812l-0.086,1.99l-0.35,1.471l-1.569,0.862l-1.395-0.171l-1.481,0.689
		l-0.175,1.557l-0.175,2.595l0.874,1.21l0.172,1.469l0.175,1.557l-0.175,1.469l-1.308,0.953l-0.612,1.123l0.263,1.381l0.698,0.35
		l0.263,1.471l-0.35,1.987l0.261,1.642c0,0-0.522,0.519-0.699,1.037c-0.173,0.518-1.653,1.901-1.653,1.901l-2.005,0.776
		l-1.657,1.559l-0.96,1.039l-1.132-1.295c0,0-1.395-0.953-1.831-0.953c-0.433,0-1.743,0-1.743,0h-2.613l-2.354-0.086l-1.395,0.26
		l-0.96,1.123l-1.393,0.517l-2.004,0.175l-1.832,0.343l-2.354,0.345l-1.742,0.09c0,0-1.047,0.084-1.309,0.348
		c-0.262,0.256-1.308,0.604-1.568,1.469c-0.263,0.86-2.528,3.455-2.528,3.455s-1.654,2.074-1.919,2.51
		C234.005,249.59,234.005,250.973,234.005,250.973z"/>
	<path fill="#ECF7F9" d="M166.453,230.455l0.582,2.65c0,0,1.278,1.615,1.396,2.078c0.114,0.462,0.114,2.304,0.114,2.304
		l-1.627,1.845l-0.231,2.998c0,0,0.579,2.307,0.462,2.648c-0.113,0.349-1.856,2.652-1.856,2.652l-1.628,1.844l-0.232,1.732
		l1.395,1.729l-1.047,2.073c0,0-0.579,1.152-0.695,1.613c-0.117,0.461,0.58,1.496,0.58,2.074s0.931,2.539,0.931,2.885
		c0,0.344,0.58,1.842,0.58,1.842v3.113l0.348,4.264v2.539l3.488,0.344l0.812,0.232h4.416l4.998-0.117l3.253,0.689l2.209,0.693
		l1.278,1.268l1.046,2.076l0.465,2.766v2.535l0.814,0.691l0.93,1.5l0.231,2.076l0.465,2.766l0.814,1.037l2.789-0.227l1.394-0.811
		l1.627-0.807l2.094,0.115l0.93,1.037l1.276,0.229l0.931-1.15l0.233-2.652l2.091-1.613l0.352-1.613l1.274-1.613l1.515-1.729
		l4.646-2.422l1.746-1.729l2.905-2.652l4.646-3.572c0,0,0.002-1.5,0.116-1.844c0.118-0.346,1.278-1.73,1.278-1.73l0.231-2.074
		l1.63-2.537l2.438-3.342l1.856-2.42l1.861-1.502l0.815-0.572v-6.804l-2.677-0.805l-3.599-1.156c0,0-3.836-1.96-4.417-2.419
		c-0.58-0.463-2.207-1.152-2.672-1.5c-0.465-0.342-2.324-0.457-2.906-0.457c-0.584,0-1.859,0.229-2.44-0.236
		c-0.582-0.456,0-3.686,0-3.686s-2.095-0.579-2.325-1.037c-0.232-0.463,0.233-1.037-0.465-1.383
		c-0.699-0.348-2.438-0.348-3.253-0.348c-0.814,0-2.789,0-2.789,0l-0.698-2.188l0.93-1.041l0.58-1.381l0.467-1.73l-0.931,0.347
		l-0.581,0.46l-1.974,0.811h-2.21c0,0-2.207,0.113-2.557,0.113s-2.557,0.229-2.557,0.229s-1.975,0-2.674,0
		c-0.697,0-1.743,0.118-2.439-0.342c-0.696-0.465-2.093-0.924-2.44-1.041c-0.349-0.115-2.674-1.612-2.674-1.612
		s-0.929-0.46-1.394-0.46s-2.439,0.344-2.79,0.344c-0.349,0-2.905,0.924-2.905,0.924l-1.511,1.152l-1.511,1.15l-1.512,1.5
		l-1.163,0.115c0,0-1.74-0.229-2.206-0.345C168.659,231.723,166.453,230.455,166.453,230.455z"/>
	<path fill="#ECF7F9" d="M129.962,145.27l29.868,0.46l0.812-1.958l1.048-2.882l0.23-2.882v-2.419l0.466-1.846l0.466-1.499
		l0.812,0.116l0.465,0.576l0.23,1.383l1.049,1.959l0.929,3.113l0.581,4.842l1.395,1.384l7.787,6.338l3.138,0.462l12.666,0.463
		l27.661,1.151l20.104,1.383l-0.116,1.036l-0.813,2.65l-2.787,7.726c0,0-0.351-0.231-0.233,3.344
		c0.116,3.572,0.116,11.066,0.116,11.066l0.696,2.995c0,0,0.116,3.342-1.277,5.188c-1.396,1.846-2.092,5.303-2.092,5.303
		l-1.045,6.455l-1.164,1.844l-2.441,1.268l-1.974,1.846l-1.627,2.305l-0.7,2.074l-1.394,0.809l-2.44,1.613l-1.974,1.727
		l-2.326,3.806l-2.091,2.999l-1.742,2.304l-1.513,1.73l-0.234,1.612l-0.114,2.307l0.813,1.267l-0.114,0.808v1.961h-3.721
		l-0.349-1.27l0.349-2.306l-0.349-1.267l-0.93-1.848l-1.743-0.115l-1.858,1.27l-1.048,0.923c0,0-1.625,0-2.323,0
		c-0.697,0-2.327-0.693-2.327-0.693l-1.392,0.233l-4.299,0.23l-2.79-1.153c0,0-0.465-0.46-1.977-1.499
		c-1.511-1.039-2.673-0.922-3.139-0.922c-0.464,0-2.902-0.232-4.066,0.23c-1.162,0.458-0.58,0.576-1.742,0.576
		c-1.163,0-2.559,0.92-2.907,1.154c-0.346,0.23-1.51,2.072-1.51,2.072l-0.697,1.27l-2.093-0.115h-0.812l-1.047-1.037l-2.441-1.5
		l-1.975-0.459l-2.207-1.503l-0.815-1.149l-0.579-3.92v-1.5l0.928-0.69l0.348-1.497v-1.27l-17.897-0.116l-0.346-3.342l-0.698-3.344
		l-0.58-0.808l-1.048-0.803l-0.579-1.499h1.973l0.35-2.419l-0.465-3.461l-0.929-1.383l-0.929-6.111l-1.162-0.922l1.394-1.268
		l5.229-7.609l0.117-7.145l-1.048-1.383l-0.582-1.961l0.35-1.497c0,0,0.699-2.192,0.349-2.651c-0.349-0.465-0.698-1.039-1.045-1.385
		c-0.351-0.344-3.022-1.036-3.022-1.036s-2.79-1.039-3.138-1.039s-7.901,0.116-7.901,0.116l0.232-4.61l-1.048-1.962l0.58-2.419
		L129.962,145.27z"/>
	<path fill="#ECF7F9" d="M268.938,213.731c0,0,0.151-3.771-0.255-4.535c-0.407-0.765-2.752-1.07-2.752-1.07l-5.453,0.204
		l-0.559,2.141l-0.97,1.273l0.408,1.987h2.599h2.002l2.177,0.306L268.938,213.731z"/>
	<path fill="#D9F0F4" d="M280.695,198.643l-1.045-1.385l-0.815-1.034l-0.232-6.111l0.812-0.462l-0.116-3.574l-1.392-0.115
		l-2.091,0.458l-2.441,0.696l-2.441,0.576l-1.745,1.034l-2.44,0.579v1.268l-2.557-0.116l-0.815-0.458l-1.627-0.925l-1.974-0.227
		l-2.442,0.227l-1.394-0.227l-0.465-1.499l-0.348-2.076l-3.488,0.115l-1.51,0.921l-0.465,3.113l-2.44-0.694l-1.976-1.843
		l-1.978-0.345l-1.974-1.497l-2.091-1.269l-0.697,1.149c0,0-0.469,2.194-0.931,2.426c-0.465,0.227-0.58,2.419-1.047,3.34
		c-0.463,0.92-0.463,2.424-0.463,2.424l-0.583,2.417l-1.279,2.422l-1.048,4.496l-0.695,1.959l-2.092,1.615l-1.509,0.689
		l-1.744,2.424l-0.931,2.534l-0.349,1.154l-2.209,0.921l-1.976,0.693l-3.369,3.918l-0.812,2.42l-1.746,1.499l-1.741,0.923
		l-1.512,3.346l0.35,3.225l0.347,1.615v1.844l0.466,2.07l1.743,1.04l0.234,1.269l1.048,1.152c0,0,1.159,0.459,2.204,0.811
		c1.047,0.344,1.626,1.148,1.974,1.267c0.352,0.111,1.978,1.384,2.327,1.384c0.349,0,2.672,1.381,3.252,1.381
		c0.582,0,1.977,0.809,1.977,0.809l2.44,1.266l2.209,1.615l2.092-2.422l1.279-1.383l1.741-2.073c0,0,1.628-1.614,1.976-1.614
		c0.35,0,1.977-0.347,1.977-0.347l3.72-0.579l2.788,0.232l1.396-1.152c0,0,1.742-0.574,2.092-0.574c0.347,0,1.857-0.347,1.857-0.347
		l3.022,0.112h2.673l2.21,0.463l1.276,0.692l0.349-0.921l1.28-1.383l1.743-0.925l1.391-1.038v-1.037v-2.072l-0.46-0.807
		l-1.048-0.463l-0.233-1.383l0.466-1.268l1.275-1.386l1.397-1.149l-0.116-1.037l-0.931-1.387l-0.695-0.805l-0.467-1.499l0.117-1.844
		l0.313-1.241l0.427-1.123l-1.842,0.049l-2.153,0.344l-5.849-0.662l-1.408-3.889l1.203-1.583l0.771-3.554l7.325,0.359l0.127,0.017
		c1.427,0.187,3.259,0.661,3.903,1.866c0.383,0.721,0.529,2.405,0.442,4.991l0.69-0.073l1.512-0.115l-0.229-1.381v-0.691
		l-0.468-1.268v-3.23v-1.496l1.396-0.232l2.09-0.457v-1.152l0.466-1.389l1.51-0.115l1.395,0.578l1.28,1.039l1.046,0.113l0.23-0.691
		v-3.803L280.695,198.643z"/>
</g>
<g>
	<g>
		<g>
			<path fill-rule="evenodd" clip-rule="evenodd" d="M218.102,333.144c0,0,0.126-0.293,0.406-0.836s0.711-1.34,1.301-2.355
				c0.593-1.015,1.34-2.254,2.271-3.669c0.956-1.398,2.09-2.978,3.409-4.701c5.333-6.859,12.561-16.714,20.648-28.676
				c8.573-11.594,18.887-24.566,29.881-37.888c9.546-14.462,21.802-27.685,31.624-41.878c4.327-7.483,9.104-14.399,13.438-21.207
				c4.325-6.796,8.321-13.458,10.767-20.218c5.586-13.169,9.103-24.84,10.318-33.318c0.472-4.246,0.834-7.606,0.862-9.919
				c0.124-2.309,0.19-3.553,0.19-3.553h1.032c0,0,0.312,1.255,0.558,3.625c0.323,2.371,0.262,5.857-0.401,10.183
				c-1.569,8.598-4.714,20.6-10.494,33.914c-3.122,6.542-6.534,13.536-10.465,20.677c-3.932,7.136-8.481,14.351-13.942,21.107
				c-10.966,13.443-20.858,28.52-31.712,41.997c-11.99,12.543-21.192,26.384-29.855,37.854
				c-9.035,11.211-15.211,21.793-20.562,28.556c-1.071,1.872-2.138,3.476-3.138,4.832c-0.975,1.371-1.874,2.5-2.653,3.389
				c-1.555,1.78-2.602,2.621-2.602,2.621S218.257,333.238,218.102,333.144z"/>
		</g>
		<g>
			<path d="M218.423,321.188c0.413-0.002,0.75,0.334,0.751,0.748l0.027,11.476l10.387-4.878c0.375-0.176,0.823-0.015,0.998,0.36
				c0.176,0.375,0.012,0.823-0.359,0.998l-11.453,5.378c-0.232,0.108-0.504,0.092-0.721-0.046s-0.348-0.376-0.349-0.632
				l-0.03-12.652c0-0.148,0.043-0.286,0.116-0.402C217.923,321.327,218.156,321.188,218.423,321.188z"/>
		</g>
	</g>
</g>
<text transform="matrix(1 0 0 1 335.5127 115)" font-family="'ArchitectsDaughter'" font-size="14">CE</text>
<text transform="matrix(1 0 0 1 200.6074 352)" font-family="'ArchitectsDaughter'" font-size="14">RS</text>
</svg>
