<?xml version="1.0" encoding="utf-8"?>
<!-- Generator: Adobe Illustrator 16.0.0, SVG Export Plug-In . SVG Version: 6.00 Build 0)  -->
<!DOCTYPE svg PUBLIC "-//W3C//DTD SVG 1.1//EN" "http://www.w3.org/Graphics/SVG/1.1/DTD/svg11.dtd">
<svg version="1.1" id="Layer_1" xmlns="http://www.w3.org/2000/svg" xmlns:xlink="http://www.w3.org/1999/xlink" x="0px" y="0px"
	 width="400px" height="200px" viewBox="0 0 400 200" enable-background="new 0 0 400 200" xml:space="preserve">
<g>
	<g>
		<g>
			<path fill="#ED6756" d="M26.101,34.72c0,0,0.048,0.164,0.098,0.481c0.05,0.317,0.107,0.786,0.145,1.396
				c0.075,1.22,0.068,3.004-0.243,5.257c-0.645,4.506-0.856,10.889,0,18.399c0.224,7.509,0.31,16.146,0,25.158
				c1.51,9.012-0.003,18.399,0,27.411c1.452,9.012-0.992,17.646,0,25.156c0.39,7.51-0.045,13.895,0,18.399
				c0.154,4.505,0,7.134,0,7.134h-1.032c0,0-1.434-2.629-1.234-7.134c0.29-4.506,0.272-10.89,0-18.399
				c0.422-7.51-1.239-16.146,0-25.156c1.365-9.012-0.128-18.399,0-27.411c1.573-9.012,0.078-17.648,0-25.158
				c0.352-7.51-0.714-13.893,0-18.399c-0.535-4.506,1.234-7.134,1.234-7.134S25.918,34.72,26.101,34.72z"/>
		</g>
	</g>
</g>
<g>
	<g>
		<g>
			<path fill="#ED6756" d="M371.273,162.143c0,0-0.39,0.051-1.139,0.106c-0.75,0.056-1.859,0.122-3.304,0.171
				c-2.888,0.098-7.107,0.124-12.441-0.145c-10.668-0.562-25.773-0.654-43.539,0.343c-17.77,0.364-38.206,0.61-59.532,0.47
				c-21.314,1.678-43.541,0.34-64.865,0.512c-21.313,1.619-41.77-0.664-59.533,0.469c-17.768,0.529-32.877,0.215-43.539,0.344
				c-10.661,0.238-16.882,0.133-16.882,0.133l-0.008-1.031c0,0,6.208-1.482,16.873-1.367c10.665,0.205,25.77,0.067,43.539-0.345
				c17.775,0.282,38.198-1.54,59.534-0.469c21.336,1.197,43.538-0.472,64.864-0.511c21.338,1.404,41.764-0.252,59.533-0.471
				c17.774,0.213,32.871-0.973,43.54-0.343c10.658-0.618,16.892,1.103,16.892,1.103S371.271,161.96,371.273,162.143z"/>
		</g>
		<g>
			<path fill="#ED6756" d="M361.07,168.391c-0.227-0.348-0.126-0.812,0.222-1.037l9.631-6.24l-9.728-6.088
				c-0.353-0.221-0.458-0.684-0.238-1.033s0.686-0.455,1.034-0.238l10.725,6.713c0.218,0.137,0.352,0.374,0.354,0.631
				c0.002,0.256-0.127,0.495-0.343,0.635l-10.617,6.882c-0.124,0.079-0.265,0.118-0.401,0.12
				C361.459,168.734,361.216,168.613,361.07,168.391z"/>
		</g>
	</g>
</g>
<g>
	<rect x="46.523" y="37.825" fill="#42B3C6" width="238.477" height="3.452"/>
	<g>
		<g>
			<path fill="#42B3C6" d="M282.936,41.277c-0.009,0.001-0.052-0.123-0.109-0.323c-0.046-0.169-0.114-0.42-0.204-0.75
				c-0.174,0.029-0.366,0.062-0.578,0.097c-0.091,0.014-0.187,0.028-0.284,0.043l-0.141,0.021c-0.16,0.006-0.324,0.012-0.49,0.019
				c-1.521,0.046-3.271,0.075-5.232,0.07c-3.926-0.011-8.709-0.157-14.246-0.564c-16.928-1.289-40.908-1.713-69.123,0
				c-28.212,0.448-60.659,0.62-94.514,0c-8.464,0.755-17.017,1.132-25.613,1.273c-4.298,0.071-8.607,0.082-12.922,0.053
				l-6.475-0.074l-3.081-0.056c-0.047-0.021-0.113-0.042-0.204-0.066l-0.081-2.858c0.062,0.024,0.144,0.05,0.25,0.077l0.041,0.01
				l0.375,0.01l0.756,0.021l1.511,0.042l6.042,0.172c4.025,0.115,8.045,0.229,12.054,0.343c8.018,0.213,15.995,0.377,23.896,0.376
				c33.855-2.904,66.301,1.984,94.514,0c28.213-0.78,52.194,0.09,69.122,0c16.928-0.309,26.803,0,26.803,0v2.064
				c0,0-9.875,2.868-26.803,2.469c-16.928-0.581-40.909-0.544-69.122,0c-28.214-0.843-60.659,2.479-94.514,0
				c-7.9-0.637-15.877-0.963-23.896-1.092c-4.009-0.064-8.028-0.079-12.054-0.059c-4.514,0.05-9.036,0.101-13.559,0.152l-0.07-6.463
				l4.702-0.073l3.318-0.079l6.475-0.168c4.314-0.111,8.624-0.221,12.922-0.332c8.596-0.202,17.148-0.34,25.613-0.276
				c33.855,3.146,66.302,0.156,94.514,0c28.213,0.704,52.195-1.427,69.123,0c5.562-0.352,10.36-0.206,14.289,0.149
				c1.965,0.177,3.711,0.406,5.226,0.652c0.216,0.031,0.317,0.062,0.616,0.093c0.26,0.032,0.515,0.063,0.765,0.094
				c0.47,0.065,0.918,0.128,1.349,0.189c0.821,0.126,1.489,0.252,2.027,0.373c-0.252,1.703-0.482,2.772-0.648,3.437
				c-0.168,0.661-0.271,0.936-0.271,0.936S283.3,41.277,282.936,41.277z"/>
		</g>
	</g>
</g>
<g>
	<rect x="45.068" y="73.913" fill="#42B3C6" width="141.933" height="3.452"/>
	<g>
		<g>
			<path fill="#42B3C6" d="M184.937,77.365c-0.023,0-0.277-0.51-0.436-0.952c-0.231,0.049-0.447,0.089-0.658,0.11l-0.159,0.013
				l-0.081,0.004l-0.333,0.001c-0.485-0.005-0.993-0.011-1.523-0.017c-2.121-0.048-4.6-0.206-7.4-0.548
				c-10.173-1.289-24.583-1.713-41.539,0c-16.954,0.448-36.452,0.62-56.797,0c-5.086,0.755-10.226,1.132-15.392,1.273
				c-2.583,0.071-5.173,0.082-7.766,0.053l-3.891-0.074l-0.486-0.013l-0.018-0.014l-0.045-0.029
				c-0.036-0.021-0.085-0.042-0.148-0.066l-0.138-2.8c0.089,0.05,0.138,0.103,0.404,0.157l3.458,0.167
				c2.303,0.108,4.603,0.215,6.897,0.323c4.587,0.199,9.152,0.347,13.675,0.346c20.345-2.904,39.843,1.984,56.797,0
				c16.955-0.78,31.366,0.09,41.538,0c10.173-0.309,16.107,0,16.107,0v2.064c0,0-5.934,2.868-16.107,2.469
				c-10.172-0.581-24.583-0.544-41.538,0c-16.955-0.843-36.452,2.479-56.797,0c-4.523-0.607-9.087-0.932-13.675-1.072
				c-2.294-0.07-4.594-0.094-6.897-0.085c-2.779,0.04-5.562,0.079-8.348,0.118l-0.111-6.422l5.434-0.152l3.891-0.168
				c2.593-0.111,5.183-0.221,7.766-0.332c5.166-0.202,10.305-0.34,15.392-0.276c20.345,3.146,39.843,0.156,56.797,0
				c16.955,0.704,31.366-1.427,41.539,0c2.817-0.296,5.31-0.239,7.433-0.001c1.287,0.171,2.468,0.328,3.542,0.47
				c1.326,0.188,2.337,0.398,3.068,0.611c-0.343,1.939-0.69,3.14-0.952,3.856c-0.262,0.714-0.438,0.985-0.438,0.985
				S185.301,77.365,184.937,77.365z"/>
		</g>
	</g>
</g>
<g>
	<rect x="45.068" y="91.828" fill="#42B3C6" width="129.266" height="3.452"/>
	<g>
		<g>
			<path fill="#42B3C6" d="M172.27,95.28c-0.024-0.003-0.301-0.506-0.458-0.93c-0.207,0.044-0.398,0.079-0.586,0.095
				c-0.095,0.008-0.188,0.012-0.288,0.011c-0.423-0.007-0.864-0.014-1.325-0.022c-1.885-0.054-4.072-0.213-6.53-0.542
				c-9.286-1.289-22.442-1.713-37.919,0c-15.477,0.448-33.276,0.62-51.849,0c-4.644,0.755-9.335,1.132-14.051,1.273
				c-2.358,0.071-4.722,0.082-7.089,0.053l-3.552-0.074c-0.212-0.004-0.137-0.008-0.157-0.013l-0.016-0.014l-0.044-0.029
				c-0.035-0.021-0.082-0.042-0.142-0.066l-0.153-2.786c0.062,0.049,0.166,0.102,0.32,0.156c-0.054,0.014,0.286,0.027,0.539,0.041
				l0.78,0.042l1.559,0.083c2.078,0.106,4.152,0.212,6.221,0.318c4.138,0.195,8.254,0.34,12.333,0.339
				c18.573-2.904,36.372,1.984,51.849,0c15.477-0.78,28.633,0.09,37.919,0c9.287-0.309,14.704,0,14.704,0v2.064
				c0,0-5.417,2.868-14.704,2.469c-9.286-0.581-22.442-0.544-37.919,0c-15.478-0.843-33.276,2.479-51.849,0
				c-4.079-0.6-8.196-0.924-12.333-1.067c-2.069-0.072-4.143-0.098-6.221-0.091c-2.55,0.036-5.104,0.073-7.66,0.109l-0.121-6.413
				l5.095-0.152l3.552-0.168c2.367-0.111,4.731-0.221,7.089-0.332c4.716-0.202,9.407-0.34,14.051-0.276
				c18.573,3.146,36.372,0.156,51.849,0c15.477,0.704,28.633-1.427,37.919,0c2.467-0.284,4.661-0.243,6.548-0.03
				c0.489,0.054,0.884,0.118,1.396,0.19c0.725,0.072,1.388,0.153,1.986,0.24c1.197,0.174,2.128,0.372,2.814,0.575
				c-0.358,1.983-0.731,3.216-1.015,3.946c-0.284,0.728-0.478,0.999-0.478,0.999S172.634,95.28,172.27,95.28z"/>
		</g>
	</g>
</g>
<g>
	<rect x="45.068" y="127.659" fill="#42B3C6" width="89.266" height="3.452"/>
	<g>
		<g>
			<path fill="#42B3C6" d="M132.27,131.111c-0.029-0.021-0.425-0.473-0.536-0.853c-0.248,0.042-0.437,0.043-0.705-0.034
				c-0.042-0.01-0.052-0.021-0.125-0.033c-0.146-0.012-0.295-0.025-0.447-0.039c-0.302-0.034-0.612-0.069-0.932-0.105
				c-0.638-0.082-1.309-0.188-2.012-0.322c-6.488-1.289-15.678-1.715-26.491,0c-10.812,0.447-23.247,0.619-36.222,0
				c-3.244,0.754-6.521,1.133-9.816,1.272c-1.647,0.069-3.299,0.082-4.952,0.053l-1.241-0.03l-0.31-0.01
				c-0.018-0.003-0.008-0.007-0.014-0.01l-0.018-0.023c-0.031-0.033-0.088-0.074-0.187-0.121c-0.066-1.047-0.143-1.969-0.226-2.713
				c0.039,0.049,0.104,0.1,0.202,0.15c0.147,0.053,0.002,0.104,0.925,0.156c1.365,0.098,2.727,0.195,4.084,0.293
				c2.717,0.178,5.42,0.306,8.1,0.305c12.975-2.904,25.41,1.984,36.222,0c10.812-0.779,20.003,0.09,26.491,0
				c6.488-0.309,10.272,0,10.272,0v2.064c0,0-3.784,2.867-10.272,2.469c-6.487-0.58-15.678-0.544-26.491,0
				c-10.812-0.844-23.247,2.479-36.222,0c-2.68-0.564-5.383-0.885-8.1-1.039c-1.358-0.078-2.72-0.114-4.084-0.119l-2.575,0.016
				l-2.902,0.055c-0.053-2.122-0.107-4.247-0.161-6.372l3.565-0.152l0.926-0.041l0.774-0.042l1.241-0.086
				c1.654-0.109,3.306-0.221,4.952-0.331c3.294-0.2,6.572-0.34,9.816-0.276c12.975,3.146,25.41,0.156,36.222,0
				c10.812,0.705,20.003-1.426,26.491,0c0.708-0.115,1.383-0.178,2.024-0.195c0.321-0.01,0.633-0.008,0.936,0.006
				c0.415,0.021,0.818,0.043,1.21,0.062c2.006,0.121,3.569,0.377,4.563,0.683c-0.395,2.153-0.874,3.532-1.253,4.313
				c-0.38,0.785-0.661,1.053-0.661,1.053S132.634,131.111,132.27,131.111z"/>
		</g>
	</g>
</g>
<g>
	<rect x="45.068" y="55.997" fill="#42B3C6" width="177.265" height="3.452"/>
	<g>
		<g>
			<path fill="#42B3C6" d="M220.27,59.449c-0.012,0.001-0.066-0.125-0.142-0.317c-0.073-0.192-0.163-0.438-0.242-0.688
				c-0.293,0.059-0.571,0.11-0.844,0.144l-0.103,0.012c-0.131,0.003-0.265,0.006-0.398,0.01c-0.297,0.004-0.604,0.008-0.916,0.013
				c-0.628-0.001-1.29-0.002-1.984-0.002c-2.781-0.032-6.094-0.186-9.877-0.558c-12.645-1.289-30.558-1.713-51.633,0
				c-21.075,0.448-45.311,0.62-70.601,0c-6.323,0.755-12.711,1.132-19.132,1.273c-3.21,0.071-6.43,0.082-9.652,0.053l-4.837-0.074
				l-1.21-0.026l-0.151-0.003l-0.073-0.002l-0.003-0.001l-0.012-0.007l-0.027-0.015c-0.04-0.021-0.095-0.042-0.168-0.066
				l-0.109-2.829c0.044,0.025,0.104,0.051,0.18,0.077l0.127,0.04l1.014,0.041l4.403,0.169c2.934,0.111,5.863,0.223,8.784,0.333
				c5.843,0.206,11.656,0.362,17.415,0.361c25.29-2.904,49.526,1.984,70.601,0c21.075-0.78,38.988,0.09,51.632,0
				c12.646-0.309,20.021,0,20.021,0v2.064c0,0-7.376,2.868-20.021,2.469c-12.645-0.581-30.558-0.544-51.632,0
				c-21.075-0.843-45.311,2.479-70.601,0c-5.759-0.622-11.572-0.947-17.415-1.082c-2.922-0.067-5.851-0.087-8.784-0.072
				c-3.416,0.044-6.836,0.089-10.259,0.134l-0.092-6.441l3.494-0.073l2.887-0.079l4.837-0.168c3.223-0.111,6.442-0.221,9.652-0.332
				c6.421-0.202,12.81-0.34,19.132-0.276c25.29,3.146,49.526,0.156,70.601,0c21.075,0.704,38.988-1.427,51.634,0
				c3.795-0.321,7.113-0.227,9.896,0.062c0.696,0.072,1.358,0.157,1.985,0.25c0.312,0.05,0.617,0.099,0.914,0.146
				c0.168,0.025,0.254,0.051,0.479,0.077c0.222,0.027,0.438,0.053,0.653,0.08c1.693,0.214,2.94,0.45,3.815,0.679
				c-0.305,1.831-0.6,2.97-0.817,3.664c-0.217,0.69-0.358,0.965-0.358,0.965S220.633,59.449,220.27,59.449z"/>
		</g>
	</g>
</g>
<g>
	<rect x="45.068" y="109.743" fill="#42B3C6" width="118.6" height="3.452"/>
	<g>
		<g>
			<path fill="#42B3C6" d="M161.604,113.195c-0.025-0.006-0.327-0.502-0.479-0.909c-0.186,0.039-0.357,0.067-0.525,0.08
				c-0.084,0.006-0.169,0.008-0.258,0.004c-0.303-0.009-0.619-0.019-0.947-0.027c-1.686-0.061-3.626-0.219-5.795-0.534
				c-8.54-1.289-20.638-1.715-34.872,0c-14.233,0.447-30.603,0.619-47.683,0c-4.27,0.754-8.585,1.133-12.921,1.272
				c-2.168,0.069-4.342,0.082-6.519,0.053l-1.633-0.03l-1.5-0.043c-0.03-0.033-0.092-0.074-0.207-0.121
				c-0.05-1.029-0.106-1.965-0.167-2.771c0.055,0.05,0.149,0.104,0.288,0.156l0.054,0.02c0.015,0.008,0.016,0.014,0.174,0.021
				l0.708,0.041l1.416,0.08c1.887,0.105,3.771,0.209,5.65,0.313c3.759,0.191,7.499,0.333,11.205,0.332
				c17.08-2.903,33.449,1.984,47.682,0c14.234-0.78,26.332,0.091,34.872,0c8.54-0.31,13.522,0,13.522,0v2.063
				c0,0-4.982,2.867-13.522,2.47c-8.54-0.581-20.638-0.544-34.872,0c-14.234-0.843-30.602,2.479-47.682,0
				c-3.706-0.593-7.446-0.916-11.205-1.062c-1.879-0.073-3.763-0.103-5.65-0.098l-3.057,0.029l-4.022,0.07l-0.129-6.403l4.741-0.152
				l3.335-0.169c2.177-0.109,4.351-0.221,6.519-0.331c4.336-0.2,8.651-0.34,12.921-0.276c17.08,3.146,33.449,0.156,47.683,0
				c14.234,0.705,26.332-1.426,34.872,0c2.172-0.271,4.113-0.246,5.8-0.056c0.602,0.095,2.221,0.23,3.257,0.392
				c1.091,0.16,1.956,0.346,2.608,0.537c-0.372,2.021-0.771,3.291-1.077,4.033c-0.306,0.743-0.52,1.016-0.52,1.016
				S161.968,113.195,161.604,113.195z"/>
		</g>
	</g>
</g>
<g>
	<rect x="45.068" y="145.574" fill="#42B3C6" width="62.271" height="3.451"/>
	<g>
		<g>
			<path fill="#42B3C6" d="M105.275,149.025c-0.018,0.002-0.166-0.133-0.306-0.278c-0.14-0.158-0.272-0.276-0.258-0.545
				c-0.115-0.007-0.207-0.048-0.334-0.138c-0.075-0.054-0.153-0.11-0.235-0.17l-0.165-0.117c-0.019-0.01-0.024-0.021-0.055-0.032
				l-0.136-0.034l-0.276-0.072c-4.599-1.289-11.114-1.713-18.778,0c-7.665,0.447-16.479,0.619-25.676,0
				c-2.299,0.756-4.623,1.133-6.958,1.273c-1.167,0.07-2.338,0.082-3.51,0.053l-0.11-0.003c-0.008-0.001-0.002-0.002-0.004-0.003
				l-0.002-0.008l-0.007-0.018c-0.006-0.012-0.017-0.025-0.033-0.043c-0.031-0.033-0.084-0.074-0.167-0.121
				c-0.093-1.076-0.208-1.975-0.33-2.608c0.046,0.093,0.165,0.188,0.357,0.282l0.158,0.068c-0.01,0.012,0.172,0.022,0.262,0.033
				l0.331,0.033l1.32,0.123c1.758,0.154,3.507,0.261,5.242,0.26c9.198-2.904,18.012,1.984,25.676,0c7.665-0.779,14.18,0.09,18.778,0
				c4.599-0.311,7.281,0,7.281,0v2.062c0,0-2.683,2.869-7.281,2.471c-4.599-0.581-11.114-0.544-18.778,0
				c-7.665-0.844-16.479,2.479-25.676,0c-1.735-0.516-3.484-0.827-5.242-0.995c-0.439-0.042-0.879-0.075-1.32-0.101l-0.698-0.032
				l-0.917-0.021c-1.22-0.021-2.435-0.013-3.696,0.018c-0.038-2.002-0.111-4.059-0.203-6.33l5.06-0.321
				c1.172-0.11,2.343-0.221,3.51-0.331c2.335-0.201,4.659-0.34,6.958-0.275c9.197,3.146,18.012,0.156,25.676,0
				c7.665,0.703,14.179-1.429,18.778,0l0.278-0.061l0.138-0.025l0.232-0.022c0.318-0.028,0.635-0.051,0.947-0.065
				c0.624-0.029,1.227-0.035,1.789-0.018c1.125,0.035,2.075,0.156,2.775,0.33c-0.36,2.252-0.942,3.818-1.435,4.662
				c-0.493,0.857-0.896,1.119-0.896,1.119S105.64,149.025,105.275,149.025z"/>
		</g>
	</g>
</g>
<g enable-background="new    ">
	<path fill="#ED6756" d="M20.438,19.63c-0.082-0.738-0.012-1.458,0.212-2.16c0.223-0.702,0.561-1.321,1.012-1.859
		s0.996-0.964,1.634-1.278c0.638-0.314,1.335-0.463,2.092-0.444c0.127,0,0.298,0.019,0.513,0.055
		c0.214,0.036,0.442,0.094,0.684,0.171c0.241,0.077,0.479,0.176,0.711,0.294s0.438,0.26,0.615,0.424s0.312,0.349,0.403,0.554
		c0.091,0.205,0.114,0.436,0.068,0.69c-0.374,0.265-0.805,0.446-1.292,0.547c-0.488,0.101-0.984,0.171-1.49,0.212
		s-1,0.077-1.483,0.109c-0.483,0.032-0.905,0.116-1.265,0.253c-0.36,0.137-0.638,0.354-0.834,0.649
		c-0.196,0.296-0.258,0.723-0.185,1.278c0.137,0.501,0.362,0.87,0.677,1.107s0.679,0.381,1.094,0.431
		c0.415,0.05,0.856,0.027,1.326-0.068c0.469-0.096,0.93-0.221,1.381-0.376s0.873-0.319,1.265-0.492
		c0.392-0.173,0.715-0.314,0.971-0.424c0.118,0,0.219,0.043,0.301,0.13s0.123,0.189,0.123,0.308
		c-0.228,0.392-0.574,0.743-1.039,1.053s-0.989,0.561-1.572,0.752c-0.583,0.191-1.192,0.31-1.825,0.355
		c-0.634,0.046-1.229,0-1.784-0.137c-0.556-0.137-1.044-0.378-1.463-0.725C20.866,20.691,20.583,20.223,20.438,19.63z
		 M25.264,14.913c-0.164,0-0.365,0.019-0.602,0.055c-0.237,0.036-0.465,0.101-0.684,0.191s-0.408,0.21-0.567,0.355
		c-0.16,0.146-0.239,0.333-0.239,0.561l3.391-0.561c-0.146-0.219-0.335-0.374-0.567-0.465S25.519,14.913,25.264,14.913z"/>
	<path fill="#ED6756" d="M31.895,21.599c0.647-0.21,1.251-0.456,1.812-0.738s1.03-0.561,1.408-0.834
		c0.378-0.273,0.633-0.526,0.766-0.759c0.132-0.232,0.096-0.408-0.109-0.526s-0.608-0.157-1.21-0.116s-1.454,0.198-2.557,0.472
		c-0.328-0.009-0.622-0.073-0.882-0.191s-0.481-0.265-0.663-0.438c-0.183-0.173-0.321-0.362-0.417-0.567s-0.144-0.403-0.144-0.595
		c0-0.301,0.103-0.6,0.308-0.896s0.48-0.576,0.827-0.841c0.346-0.265,0.747-0.504,1.203-0.718c0.456-0.214,0.934-0.388,1.436-0.52
		c0.501-0.132,1.014-0.219,1.538-0.26c0.524-0.041,1.027-0.016,1.511,0.075c0.273,0,0.433,0.121,0.479,0.362
		c0.045,0.241,0.068,0.631,0.068,1.169c-0.374-0.173-0.777-0.296-1.21-0.369c-0.433-0.073-0.868-0.101-1.306-0.082
		s-0.861,0.08-1.271,0.185s-0.772,0.251-1.087,0.438s-0.572,0.417-0.772,0.69c-0.201,0.273-0.306,0.583-0.314,0.93
		c0,0.191,0.075,0.316,0.226,0.376s0.328,0.087,0.533,0.082s0.419-0.027,0.643-0.068c0.223-0.041,0.403-0.062,0.54-0.062
		c1.23-0.265,2.188-0.374,2.871-0.328s1.144,0.191,1.381,0.438c0.237,0.246,0.273,0.562,0.109,0.95s-0.481,0.795-0.95,1.224
		c-0.47,0.429-1.064,0.846-1.784,1.251c-0.72,0.405-1.518,0.75-2.393,1.032c-0.046,0-0.096-0.034-0.15-0.103
		s-0.112-0.148-0.171-0.239c-0.06-0.091-0.112-0.178-0.157-0.26C31.958,21.681,31.922,21.626,31.895,21.599z"/>
	<path fill="#ED6756" d="M38.621,16.39l-0.027-1.176h2.557v-4.416c0.036-0.109,0.103-0.21,0.198-0.301s0.198-0.159,0.308-0.205
		s0.223-0.053,0.342-0.021c0.118,0.032,0.219,0.116,0.301,0.253c0.091,0.374,0.155,0.75,0.191,1.128
		c0.036,0.378,0.059,0.757,0.068,1.135c0.009,0.378,0.016,0.757,0.021,1.135c0.004,0.378,0.021,0.75,0.048,1.114
		c0.173-0.027,0.374-0.043,0.602-0.048c0.228-0.005,0.458-0.009,0.69-0.014s0.46-0.009,0.684-0.014
		c0.223-0.005,0.426-0.016,0.608-0.034l-0.055,1.23l-2.488-0.068c-0.009,0.565-0.009,1.087,0,1.565
		c0.009,0.479,0.021,0.945,0.034,1.401s0.025,0.921,0.034,1.395c0.009,0.474,0.014,0.989,0.014,1.545
		c-0.374,0.164-0.659,0.18-0.854,0.048c-0.196-0.132-0.335-0.354-0.417-0.663s-0.123-0.688-0.123-1.135s0.007-0.904,0.021-1.374
		s0.021-0.923,0.021-1.36s-0.041-0.812-0.123-1.121H38.621z"/>
	<path fill="#ED6756" d="M52.58,19.042c-0.265,0.41-0.57,0.781-0.916,1.114c-0.347,0.333-0.727,0.615-1.142,0.848
		c-0.415,0.232-0.866,0.403-1.354,0.513c-0.488,0.109-1,0.142-1.538,0.096c-0.191,0-0.396-0.022-0.615-0.068
		s-0.422-0.118-0.608-0.219c-0.187-0.101-0.34-0.232-0.458-0.396c-0.119-0.164-0.178-0.369-0.178-0.615
		c-0.101-0.511-0.08-1.027,0.062-1.552c0.141-0.524,0.362-1.03,0.663-1.518s0.67-0.938,1.107-1.354s0.904-0.766,1.401-1.053
		c0.497-0.287,1.007-0.494,1.531-0.622c0.524-0.128,1.032-0.146,1.524-0.055c0.374,0,0.665,0.123,0.875,0.369
		c0.209,0.246,0.367,0.574,0.472,0.984c0.104,0.41,0.171,0.882,0.198,1.415s0.05,1.082,0.068,1.647
		c0.018,0.565,0.043,1.123,0.075,1.675c0.032,0.552,0.103,1.055,0.212,1.511h-1.012c-0.046-0.31-0.08-0.583-0.103-0.82
		c-0.023-0.237-0.043-0.458-0.062-0.663c-0.019-0.205-0.043-0.403-0.075-0.595C52.678,19.493,52.635,19.279,52.58,19.042z
		 M51.541,15.392c-0.355-0.027-0.723,0.021-1.101,0.144c-0.378,0.123-0.743,0.296-1.094,0.52c-0.351,0.224-0.679,0.487-0.984,0.793
		c-0.306,0.306-0.572,0.622-0.8,0.95c-0.228,0.328-0.403,0.654-0.526,0.978s-0.173,0.622-0.15,0.896
		c0.022,0.273,0.125,0.506,0.308,0.697c0.182,0.191,0.465,0.319,0.848,0.383c0.547-0.009,1.073-0.148,1.579-0.417
		s0.957-0.602,1.354-0.998s0.727-0.825,0.991-1.285c0.264-0.46,0.435-0.887,0.513-1.278c0.077-0.392,0.043-0.72-0.103-0.984
		C52.229,15.523,51.951,15.392,51.541,15.392z"/>
	<path fill="#ED6756" d="M61.316,19.985c-0.629,0.483-1.26,0.887-1.894,1.21c-0.634,0.323-1.242,0.518-1.825,0.581
		c-0.583,0.063-1.137-0.025-1.661-0.267c-0.524-0.241-0.991-0.69-1.401-1.347c-0.128-0.593-0.119-1.153,0.027-1.682
		c0.146-0.528,0.387-1.012,0.725-1.449c0.337-0.438,0.747-0.818,1.23-1.142c0.483-0.323,0.998-0.576,1.545-0.759
		s1.109-0.282,1.688-0.301c0.579-0.019,1.132,0.06,1.661,0.232c0-0.137,0.007-0.347,0.021-0.629s0.029-0.602,0.048-0.957
		c0.018-0.355,0.036-0.729,0.055-1.121c0.018-0.392,0.039-0.766,0.062-1.121c0.022-0.355,0.043-0.672,0.062-0.95
		c0.018-0.278,0.032-0.485,0.041-0.622c0.018-0.219,0.043-0.419,0.075-0.602c0.032-0.183,0.089-0.342,0.171-0.479
		s0.193-0.244,0.335-0.321c0.141-0.077,0.33-0.116,0.567-0.116c0,1.094-0.032,2.16-0.096,3.199
		c-0.064,1.039-0.121,2.085-0.171,3.138c-0.05,1.053-0.073,2.126-0.068,3.22c0.004,1.094,0.08,2.247,0.226,3.459
		c0,0.265-0.048,0.451-0.144,0.561s-0.258,0.164-0.485,0.164c-0.219,0-0.385-0.07-0.499-0.212c-0.114-0.142-0.191-0.31-0.232-0.506
		s-0.062-0.403-0.062-0.622S61.316,20.141,61.316,19.985z M55.725,19.452c0.018,0.419,0.139,0.718,0.362,0.896
		c0.223,0.178,0.535,0.23,0.937,0.157c0.191,0,0.485-0.053,0.882-0.157s0.807-0.241,1.23-0.41s0.822-0.355,1.196-0.561
		c0.374-0.205,0.638-0.412,0.793-0.622v-2.27c0-0.137-0.034-0.246-0.103-0.328s-0.155-0.144-0.26-0.185
		c-0.105-0.041-0.214-0.066-0.328-0.075c-0.114-0.009-0.212-0.014-0.294-0.014c-0.246-0.036-0.531-0.021-0.854,0.048
		C58.962,16,58.63,16.109,58.288,16.26s-0.675,0.337-0.998,0.561c-0.324,0.224-0.608,0.474-0.854,0.752s-0.438,0.576-0.574,0.896
		S55.679,19.115,55.725,19.452z"/>
	<path fill="#ED6756" d="M64.16,18.632c0-0.747,0.164-1.388,0.492-1.921s0.743-0.978,1.244-1.333
		c0.501-0.355,1.048-0.627,1.641-0.813c0.592-0.187,1.157-0.308,1.695-0.362c0.52-0.027,1.007,0.039,1.463,0.198
		c0.456,0.159,0.848,0.385,1.176,0.677s0.581,0.638,0.759,1.039s0.244,0.825,0.198,1.271c0,0.747-0.148,1.401-0.444,1.962
		c-0.296,0.561-0.69,1.03-1.183,1.408s-1.064,0.661-1.716,0.848c-0.652,0.187-1.333,0.28-2.044,0.28
		c-1.076,0-1.892-0.251-2.447-0.752C64.438,20.633,64.16,19.799,64.16,18.632z M65.336,19.042c0,0.383,0.048,0.688,0.144,0.916
		s0.237,0.398,0.424,0.513c0.187,0.114,0.415,0.189,0.684,0.226c0.269,0.036,0.581,0.055,0.937,0.055
		c0.547,0,1.075-0.053,1.586-0.157c0.51-0.104,0.961-0.282,1.354-0.533c0.392-0.251,0.706-0.583,0.943-0.998
		c0.237-0.415,0.355-0.932,0.355-1.552c0-0.319-0.046-0.622-0.137-0.909c-0.091-0.287-0.228-0.538-0.41-0.752
		c-0.183-0.214-0.406-0.385-0.67-0.513c-0.265-0.128-0.565-0.191-0.902-0.191c-0.447,0.073-0.894,0.157-1.34,0.253
		c-0.447,0.096-0.866,0.269-1.258,0.52c-0.392,0.251-0.738,0.62-1.039,1.107S65.481,18.186,65.336,19.042z"/>
	<path fill="#ED6756" d="M75.48,21.599c0.647-0.21,1.251-0.456,1.812-0.738s1.03-0.561,1.408-0.834
		c0.378-0.273,0.633-0.526,0.766-0.759c0.132-0.232,0.096-0.408-0.109-0.526s-0.608-0.157-1.21-0.116s-1.454,0.198-2.557,0.472
		c-0.328-0.009-0.622-0.073-0.882-0.191s-0.481-0.265-0.663-0.438c-0.183-0.173-0.321-0.362-0.417-0.567s-0.144-0.403-0.144-0.595
		c0-0.301,0.103-0.6,0.308-0.896s0.48-0.576,0.827-0.841c0.346-0.265,0.747-0.504,1.203-0.718c0.456-0.214,0.934-0.388,1.436-0.52
		c0.501-0.132,1.014-0.219,1.538-0.26c0.524-0.041,1.027-0.016,1.511,0.075c0.273,0,0.433,0.121,0.479,0.362
		c0.045,0.241,0.068,0.631,0.068,1.169c-0.374-0.173-0.777-0.296-1.21-0.369c-0.433-0.073-0.868-0.101-1.306-0.082
		s-0.861,0.08-1.271,0.185s-0.772,0.251-1.087,0.438s-0.572,0.417-0.772,0.69c-0.201,0.273-0.306,0.583-0.314,0.93
		c0,0.191,0.075,0.316,0.226,0.376s0.328,0.087,0.533,0.082s0.419-0.027,0.643-0.068c0.223-0.041,0.403-0.062,0.54-0.062
		c1.23-0.265,2.188-0.374,2.871-0.328s1.144,0.191,1.381,0.438c0.237,0.246,0.273,0.562,0.109,0.95s-0.481,0.795-0.95,1.224
		c-0.47,0.429-1.064,0.846-1.784,1.251c-0.72,0.405-1.518,0.75-2.393,1.032c-0.046,0-0.096-0.034-0.15-0.103
		s-0.112-0.148-0.171-0.239c-0.06-0.091-0.112-0.178-0.157-0.26C75.544,21.681,75.508,21.626,75.48,21.599z"/>
</g>
<g enable-background="new    ">
	<path d="M177.94,21.325c0-0.237,0.089-0.456,0.267-0.656s0.385-0.301,0.622-0.301v0.301c0.273,0,0.583-0.005,0.93-0.014
		c0.346-0.009,0.699-0.039,1.06-0.089c0.36-0.05,0.711-0.125,1.053-0.226s0.645-0.241,0.909-0.424
		c0.264-0.183,0.479-0.412,0.643-0.69s0.246-0.622,0.246-1.032c0-0.392-0.103-0.704-0.308-0.937s-0.458-0.405-0.759-0.52
		s-0.627-0.187-0.978-0.219c-0.351-0.032-0.677-0.048-0.978-0.048c-0.319,0-0.625,0.046-0.916,0.137
		c-0.292,0.091-0.581,0.191-0.868,0.301s-0.574,0.21-0.861,0.301s-0.581,0.137-0.882,0.137c-0.082,0-0.171,0-0.267,0
		s-0.187-0.012-0.273-0.034c-0.087-0.022-0.16-0.062-0.219-0.116c-0.06-0.055-0.089-0.142-0.089-0.26
		c0-0.019,0.002-0.05,0.007-0.096c0.004-0.046,0.007-0.073,0.007-0.082c0.018-0.128,0.041-0.323,0.068-0.588
		s0.059-0.565,0.096-0.902c0.036-0.337,0.075-0.69,0.116-1.06s0.082-0.723,0.123-1.06s0.075-0.641,0.103-0.909
		s0.05-0.467,0.068-0.595c0.045-0.146,0.118-0.23,0.219-0.253c0.1-0.022,0.214-0.034,0.342-0.034c0.219,0,0.364,0.041,0.438,0.123
		c0.073,0.082,0.111,0.189,0.116,0.321c0.004,0.132-0.009,0.278-0.041,0.438c-0.032,0.159-0.048,0.312-0.048,0.458
		c0.802,0,1.6-0.084,2.393-0.253s1.581-0.355,2.365-0.561c0.784-0.205,1.567-0.395,2.352-0.567c0.784-0.173,1.577-0.26,2.379-0.26
		c0.118,0,0.228,0.014,0.328,0.041c0.1,0.027,0.173,0.118,0.219,0.273c-0.037,0.137-0.114,0.253-0.232,0.349
		c-0.119,0.096-0.31,0.187-0.574,0.273c-0.265,0.087-0.625,0.18-1.08,0.28c-0.456,0.101-1.044,0.226-1.764,0.376
		c-0.72,0.15-1.595,0.335-2.625,0.554c-1.03,0.219-2.247,0.487-3.65,0.807v2.188c0.374-0.036,0.793-0.091,1.258-0.164
		s0.941-0.132,1.429-0.178c0.487-0.046,0.966-0.06,1.436-0.041c0.469,0.019,0.896,0.103,1.278,0.253s0.699,0.381,0.95,0.69
		c0.25,0.31,0.403,0.733,0.458,1.271c0,0.483-0.091,0.911-0.273,1.285c-0.183,0.374-0.426,0.704-0.731,0.991
		c-0.306,0.287-0.661,0.528-1.066,0.725c-0.406,0.196-0.83,0.357-1.271,0.485c-0.442,0.128-0.889,0.219-1.34,0.273
		s-0.882,0.082-1.292,0.082c-0.319,0-0.547-0.032-0.684-0.096S177.94,21.562,177.94,21.325z"/>
	<path d="M188.851,18.618c0.027-0.465,0.103-0.969,0.226-1.511s0.289-1.082,0.499-1.62c0.209-0.538,0.462-1.055,0.759-1.552
		c0.296-0.497,0.64-0.937,1.032-1.319c0.392-0.383,0.829-0.688,1.312-0.916c0.483-0.228,1.016-0.342,1.6-0.342
		c0.766,0,1.426,0.148,1.982,0.444c0.556,0.296,1.016,0.686,1.381,1.169c0.364,0.483,0.633,1.037,0.807,1.661
		c0.173,0.624,0.26,1.27,0.26,1.935c0,0.866-0.144,1.629-0.431,2.29s-0.69,1.217-1.21,1.668s-1.137,0.793-1.853,1.025
		c-0.716,0.232-1.502,0.349-2.358,0.349c-0.419,0-0.871-0.063-1.354-0.191c-0.483-0.128-0.928-0.323-1.333-0.588
		c-0.406-0.265-0.736-0.604-0.991-1.019C188.923,19.687,188.814,19.192,188.851,18.618z M189.849,18.741
		c0,0.483,0.096,0.875,0.287,1.176s0.444,0.535,0.759,0.704s0.665,0.282,1.053,0.342c0.387,0.06,0.781,0.089,1.183,0.089
		c1.567,0,2.748-0.405,3.541-1.217s1.189-1.96,1.189-3.445c0.027-1.386-0.306-2.445-0.998-3.179
		c-0.693-0.733-1.695-1.064-3.008-0.991c-0.374-0.063-0.731,0.021-1.073,0.253s-0.661,0.549-0.957,0.95
		c-0.296,0.401-0.565,0.859-0.807,1.374c-0.242,0.515-0.449,1.023-0.622,1.524c-0.173,0.501-0.308,0.969-0.403,1.401
		S189.849,18.495,189.849,18.741z"/>
</g>
<g enable-background="new    ">
	<path d="M203.977,15.33c0,1.92-1.009,2.872-2.186,2.872c-1.135,0-2.115-0.91-2.129-2.745c0-1.821,0.994-2.844,2.199-2.844
		C203.136,12.613,203.977,13.594,203.977,15.33z M200.643,15.415c-0.028,1.162,0.406,2.045,1.176,2.045
		c0.812,0,1.178-0.869,1.178-2.073c0-1.106-0.322-2.031-1.178-2.031C201.049,13.355,200.643,14.266,200.643,15.415z M201.707,22.026
		l5.352-9.413h0.783l-5.35,9.413H201.707z M209.901,19.099c0,1.919-1.009,2.871-2.171,2.871c-1.135,0-2.115-0.91-2.129-2.731
		c0-1.835,0.994-2.857,2.199-2.857C209.075,16.381,209.901,17.361,209.901,19.099z M206.568,19.183
		c-0.015,1.163,0.434,2.045,1.189,2.045c0.812,0,1.178-0.868,1.178-2.073c0-1.106-0.322-2.031-1.178-2.031
		C206.988,17.123,206.568,18.034,206.568,19.183z"/>
</g>
<g enable-background="new    ">
	<path fill="#ED6756" d="M304.203,183.176c-0.019-0.246-0.041-0.526-0.068-0.841s-0.062-0.641-0.103-0.978s-0.096-0.67-0.164-0.998
		s-0.148-0.624-0.239-0.889c-0.237,0-0.472,0.029-0.704,0.089s-0.465,0.123-0.697,0.191s-0.47,0.135-0.711,0.198
		s-0.49,0.101-0.745,0.109c-0.137,0-0.265-0.032-0.383-0.096c-0.119-0.063-0.178-0.183-0.178-0.355c0-0.137,0.084-0.239,0.253-0.308
		s0.38-0.121,0.636-0.157c0.255-0.036,0.528-0.063,0.82-0.082c0.291-0.019,0.564-0.041,0.82-0.068
		c0.255-0.027,0.467-0.068,0.636-0.123s0.253-0.137,0.253-0.246v-2.83c0-0.082,0.022-0.144,0.068-0.185
		c0.045-0.041,0.1-0.073,0.164-0.096c0.063-0.022,0.13-0.036,0.198-0.041s0.12-0.007,0.157-0.007c0.2,0,0.33,0.034,0.39,0.103
		s0.111,0.234,0.157,0.499c0.018,0.082,0.043,0.232,0.075,0.451s0.063,0.449,0.096,0.69s0.06,0.47,0.082,0.684
		s0.038,0.362,0.048,0.444h3.746c0,0.173-0.075,0.312-0.226,0.417s-0.347,0.185-0.588,0.239s-0.506,0.089-0.793,0.103
		s-0.569,0.022-0.848,0.027s-0.533,0.012-0.766,0.021s-0.408,0.027-0.526,0.055c-0.046,0.273-0.051,0.579-0.014,0.916
		c0.036,0.337,0.082,0.682,0.137,1.032s0.103,0.702,0.144,1.053s0.043,0.677,0.007,0.978c-0.055,0.046-0.142,0.094-0.26,0.144
		c-0.119,0.05-0.239,0.087-0.362,0.109s-0.232,0.019-0.328-0.014S304.23,183.304,304.203,183.176z"/>
	<path fill="#ED6756" d="M323.385,181.193c-0.265,0.41-0.57,0.781-0.916,1.114c-0.347,0.333-0.727,0.615-1.142,0.848
		s-0.866,0.403-1.354,0.513s-1.001,0.142-1.538,0.096c-0.191,0-0.396-0.022-0.615-0.068s-0.422-0.118-0.608-0.219
		s-0.34-0.232-0.458-0.396c-0.119-0.164-0.178-0.369-0.178-0.615c-0.101-0.511-0.08-1.027,0.062-1.552s0.362-1.03,0.663-1.518
		s0.67-0.938,1.107-1.354s0.904-0.766,1.401-1.053s1.007-0.494,1.531-0.622s1.032-0.146,1.524-0.055
		c0.373,0,0.665,0.123,0.875,0.369c0.209,0.246,0.367,0.574,0.472,0.984s0.171,0.882,0.198,1.415s0.05,1.082,0.068,1.647
		c0.018,0.565,0.043,1.123,0.075,1.675s0.103,1.055,0.212,1.511h-1.012c-0.046-0.31-0.08-0.583-0.103-0.82s-0.044-0.458-0.062-0.663
		c-0.019-0.205-0.043-0.403-0.075-0.595S323.439,181.431,323.385,181.193z M322.346,177.543c-0.355-0.027-0.723,0.021-1.101,0.144
		s-0.743,0.296-1.094,0.52s-0.679,0.487-0.984,0.793s-0.572,0.622-0.8,0.95c-0.229,0.328-0.403,0.654-0.526,0.978
		s-0.173,0.622-0.15,0.896s0.125,0.506,0.308,0.697c0.182,0.191,0.465,0.319,0.848,0.383c0.547-0.009,1.073-0.148,1.579-0.417
		s0.957-0.602,1.354-0.998s0.727-0.825,0.991-1.285c0.264-0.46,0.436-0.887,0.513-1.278s0.043-0.72-0.103-0.984
		C323.033,177.675,322.756,177.543,322.346,177.543z"/>
	<path fill="#ED6756" d="M325.477,181.33c-0.037-0.419,0.041-0.836,0.232-1.251s0.458-0.812,0.8-1.189s0.743-0.729,1.203-1.053
		s0.945-0.6,1.456-0.827c0.51-0.228,1.027-0.398,1.552-0.513s1.019-0.148,1.483-0.103c0.173,0,0.346,0.009,0.52,0.027
		c0.173,0.019,0.326,0.063,0.458,0.137s0.239,0.178,0.321,0.314s0.123,0.323,0.123,0.561c0,0.118-0.029,0.224-0.089,0.314
		s-0.132,0.178-0.219,0.26s-0.181,0.155-0.28,0.219c-0.101,0.063-0.191,0.128-0.273,0.191c-0.027-0.128-0.055-0.248-0.082-0.362
		s-0.07-0.214-0.13-0.301s-0.137-0.155-0.232-0.205s-0.222-0.075-0.376-0.075c-0.538,0.109-1.119,0.275-1.743,0.499
		s-1.198,0.49-1.723,0.8s-0.946,0.658-1.265,1.046c-0.319,0.388-0.442,0.805-0.369,1.251c0,0.401,0.077,0.725,0.232,0.971
		c0.154,0.246,0.357,0.438,0.608,0.574s0.538,0.228,0.861,0.273s0.653,0.068,0.991,0.068c0.52,0,1.023-0.077,1.511-0.232
		s0.964-0.328,1.429-0.52s0.92-0.364,1.367-0.52c0.446-0.155,0.884-0.232,1.312-0.232c0.072,0,0.148,0.005,0.226,0.014
		s0.146,0.034,0.205,0.075s0.101,0.101,0.123,0.178s0.021,0.185-0.007,0.321c-0.046,0.164-0.207,0.328-0.485,0.492
		s-0.62,0.319-1.025,0.465s-0.848,0.282-1.326,0.41s-0.943,0.237-1.395,0.328s-0.856,0.162-1.217,0.212s-0.627,0.075-0.8,0.075
		c-0.401,0-0.834-0.046-1.299-0.137s-0.896-0.241-1.292-0.451s-0.728-0.485-0.991-0.827
		C325.608,182.267,325.477,181.841,325.477,181.33z"/>
	<path fill="#ED6756" d="M336.551,181.781c-0.082-0.738-0.012-1.458,0.212-2.16s0.561-1.321,1.012-1.859s0.995-0.964,1.634-1.278
		c0.638-0.314,1.335-0.463,2.092-0.444c0.127,0,0.299,0.019,0.513,0.055s0.442,0.094,0.684,0.171s0.479,0.176,0.711,0.294
		s0.438,0.26,0.615,0.424s0.312,0.349,0.403,0.554c0.091,0.205,0.113,0.436,0.068,0.69c-0.374,0.265-0.805,0.446-1.292,0.547
		s-0.984,0.171-1.49,0.212s-1.001,0.077-1.483,0.109c-0.483,0.032-0.904,0.116-1.265,0.253s-0.638,0.354-0.834,0.649
		s-0.258,0.723-0.185,1.278c0.137,0.501,0.362,0.87,0.677,1.107s0.679,0.381,1.094,0.431s0.856,0.027,1.326-0.068
		s0.93-0.221,1.381-0.376s0.872-0.319,1.265-0.492c0.392-0.173,0.715-0.314,0.971-0.424c0.118,0,0.219,0.043,0.301,0.13
		s0.123,0.189,0.123,0.308c-0.229,0.392-0.574,0.743-1.039,1.053s-0.989,0.561-1.572,0.752c-0.584,0.191-1.191,0.31-1.825,0.355
		s-1.229,0-1.784-0.137c-0.557-0.137-1.044-0.378-1.463-0.725C336.979,182.843,336.696,182.374,336.551,181.781z M341.377,177.064
		c-0.164,0-0.365,0.019-0.602,0.055c-0.237,0.036-0.465,0.101-0.684,0.191s-0.408,0.21-0.567,0.355s-0.239,0.333-0.239,0.561
		l3.391-0.561c-0.146-0.219-0.335-0.374-0.567-0.465S341.632,177.064,341.377,177.064z"/>
	<path fill="#ED6756" d="M348.008,183.75c0.646-0.21,1.251-0.456,1.812-0.738s1.03-0.561,1.408-0.834s0.634-0.526,0.766-0.759
		s0.096-0.408-0.109-0.526s-0.608-0.157-1.21-0.116s-1.454,0.198-2.557,0.472c-0.328-0.009-0.622-0.073-0.882-0.191
		s-0.481-0.265-0.663-0.438c-0.183-0.173-0.321-0.362-0.417-0.567s-0.144-0.403-0.144-0.595c0-0.301,0.103-0.6,0.308-0.896
		s0.48-0.576,0.827-0.841c0.346-0.265,0.747-0.504,1.203-0.718c0.455-0.214,0.934-0.388,1.436-0.52
		c0.501-0.132,1.014-0.219,1.538-0.26s1.027-0.016,1.511,0.075c0.273,0,0.433,0.121,0.479,0.362
		c0.045,0.241,0.068,0.631,0.068,1.169c-0.374-0.173-0.777-0.296-1.21-0.369s-0.868-0.101-1.306-0.082s-0.861,0.08-1.271,0.185
		s-0.772,0.251-1.087,0.438s-0.572,0.417-0.772,0.69c-0.201,0.273-0.306,0.583-0.314,0.93c0,0.191,0.075,0.316,0.226,0.376
		s0.328,0.087,0.533,0.082s0.419-0.027,0.643-0.068s0.403-0.062,0.54-0.062c1.23-0.265,2.188-0.374,2.871-0.328
		s1.144,0.191,1.381,0.438c0.236,0.246,0.273,0.562,0.109,0.95s-0.48,0.795-0.95,1.224s-1.064,0.846-1.784,1.251
		c-0.721,0.405-1.518,0.75-2.393,1.032c-0.046,0-0.096-0.034-0.15-0.103s-0.111-0.148-0.171-0.239s-0.112-0.178-0.157-0.26
		C348.071,183.832,348.035,183.777,348.008,183.75z"/>
	<path fill="#ED6756" d="M356.799,183.75c0.646-0.21,1.251-0.456,1.812-0.738s1.03-0.561,1.408-0.834s0.634-0.526,0.766-0.759
		s0.096-0.408-0.109-0.526s-0.608-0.157-1.21-0.116s-1.454,0.198-2.557,0.472c-0.328-0.009-0.622-0.073-0.882-0.191
		s-0.481-0.265-0.663-0.438c-0.183-0.173-0.321-0.362-0.417-0.567s-0.144-0.403-0.144-0.595c0-0.301,0.103-0.6,0.308-0.896
		s0.48-0.576,0.827-0.841c0.346-0.265,0.747-0.504,1.203-0.718c0.455-0.214,0.934-0.388,1.436-0.52
		c0.501-0.132,1.014-0.219,1.538-0.26s1.027-0.016,1.511,0.075c0.273,0,0.433,0.121,0.479,0.362
		c0.045,0.241,0.068,0.631,0.068,1.169c-0.374-0.173-0.777-0.296-1.21-0.369s-0.868-0.101-1.306-0.082s-0.861,0.08-1.271,0.185
		s-0.772,0.251-1.087,0.438s-0.572,0.417-0.772,0.69c-0.201,0.273-0.306,0.583-0.314,0.93c0,0.191,0.075,0.316,0.226,0.376
		s0.328,0.087,0.533,0.082s0.419-0.027,0.643-0.068s0.403-0.062,0.54-0.062c1.23-0.265,2.188-0.374,2.871-0.328
		s1.144,0.191,1.381,0.438c0.236,0.246,0.273,0.562,0.109,0.95s-0.48,0.795-0.95,1.224s-1.064,0.846-1.784,1.251
		c-0.721,0.405-1.518,0.75-2.393,1.032c-0.046,0-0.096-0.034-0.15-0.103s-0.111-0.148-0.171-0.239s-0.112-0.178-0.157-0.26
		C356.862,183.832,356.826,183.777,356.799,183.75z"/>
	<path fill="#ED6756" d="M364.113,180.783c0-0.747,0.164-1.388,0.492-1.921s0.742-0.978,1.244-1.333
		c0.501-0.355,1.048-0.627,1.641-0.813c0.592-0.187,1.157-0.308,1.695-0.362c0.52-0.027,1.007,0.039,1.463,0.198
		c0.455,0.159,0.848,0.385,1.176,0.677s0.581,0.638,0.759,1.039s0.243,0.825,0.198,1.271c0,0.747-0.148,1.401-0.444,1.962
		s-0.69,1.03-1.183,1.408s-1.064,0.661-1.716,0.848s-1.333,0.28-2.044,0.28c-1.076,0-1.892-0.251-2.447-0.752
		C364.391,182.784,364.113,181.95,364.113,180.783z M365.289,181.193c0,0.383,0.048,0.688,0.144,0.916s0.237,0.398,0.424,0.513
		s0.415,0.189,0.684,0.226s0.581,0.055,0.937,0.055c0.547,0,1.075-0.053,1.586-0.157c0.51-0.104,0.961-0.282,1.354-0.533
		c0.392-0.251,0.706-0.583,0.943-0.998c0.236-0.415,0.355-0.932,0.355-1.552c0-0.319-0.046-0.622-0.137-0.909
		c-0.092-0.287-0.229-0.538-0.41-0.752c-0.183-0.214-0.406-0.385-0.67-0.513c-0.265-0.128-0.565-0.191-0.902-0.191
		c-0.447,0.073-0.894,0.157-1.34,0.253c-0.447,0.096-0.866,0.269-1.258,0.52c-0.393,0.251-0.738,0.62-1.039,1.107
		S365.435,180.337,365.289,181.193z"/>
</g>
<g>
	<g>
		<g>
			<path d="M194.101,34.72c0,0,0.048,0.164,0.098,0.481c0.05,0.317,0.107,0.786,0.145,1.396c0.075,1.22,0.068,3.004-0.243,5.257
				c-0.645,4.506-0.856,10.889,0,18.399c0.224,7.509,0.31,16.146,0,25.158c1.51,9.012-0.003,18.399,0,27.411
				c1.452,9.012-0.992,17.646,0,25.156c0.39,7.51-0.045,13.895,0,18.399c0.154,4.505,0,7.134,0,7.134h-1.032
				c0,0-1.434-2.629-1.234-7.134c0.29-4.506,0.272-10.89,0-18.399c0.422-7.51-1.239-16.146,0-25.156
				c1.365-9.012-0.128-18.399,0-27.411c1.573-9.012,0.078-17.648,0-25.158c0.352-7.51-0.714-13.893,0-18.399
				c-0.535-4.506,1.234-7.134,1.234-7.134S193.918,34.72,194.101,34.72z"/>
		</g>
	</g>
</g>
</svg>
