<?xml version="1.0" encoding="utf-8"?>
<!-- Generator: Adobe Illustrator 16.0.0, SVG Export Plug-In . SVG Version: 6.00 Build 0)  -->
<!DOCTYPE svg PUBLIC "-//W3C//DTD SVG 1.1//EN" "http://www.w3.org/Graphics/SVG/1.1/DTD/svg11.dtd">
<svg version="1.1" id="Layer_1" xmlns="http://www.w3.org/2000/svg" xmlns:xlink="http://www.w3.org/1999/xlink" x="0px" y="0px"
	 width="400px" height="160px" viewBox="0 0 400 160" enable-background="new 0 0 400 160" xml:space="preserve">
<g>
	<g>
		<g>
			<path fill-rule="evenodd" clip-rule="evenodd" fill="#ED6756" d="M32.905,8.274c0,0,0.048,0.186,0.098,0.546
				c0.05,0.359,0.107,0.893,0.145,1.585c0.075,1.385,0.068,3.41-0.243,5.967c-0.645,5.114-0.856,12.359,0,20.883
				c0.224,8.523,0.31,18.326,0,28.555c1.51,10.229-0.003,20.883,0,31.112c1.452,10.229-0.992,20.031,0,28.556
				c0.39,8.523-0.045,15.769,0,20.883c0.154,5.114,0,8.098,0,8.098h-1.032c0,0-1.434-2.983-1.234-8.098
				c0.29-5.114,0.272-12.359,0-20.883c0.422-8.524-1.239-18.327,0-28.556c1.365-10.229-0.128-20.883,0-31.112
				c1.573-10.229,0.078-20.031,0-28.555c0.352-8.524-0.713-15.769,0-20.883c-0.535-5.114,1.234-8.098,1.234-8.098
				S32.723,8.274,32.905,8.274z"/>
		</g>
		<g>
			<path fill="#ED6756" d="M39.073,18.525c-0.349,0.223-0.813,0.12-1.036-0.229l-6.164-9.679l-6.164,9.679
				c-0.223,0.349-0.687,0.452-1.036,0.229s-0.45-0.689-0.23-1.035L31.24,6.818c0.138-0.216,0.376-0.347,0.633-0.347
				s0.495,0.131,0.633,0.347l6.797,10.672c0.079,0.124,0.117,0.264,0.117,0.402C39.42,18.14,39.297,18.382,39.073,18.525z"/>
		</g>
	</g>
</g>
<g>
	<g>
		<g>
			<path fill-rule="evenodd" clip-rule="evenodd" fill="#ED6756" d="M371.7,8.274c0,0,0.049,0.186,0.099,0.546
				c0.05,0.359,0.107,0.893,0.145,1.585c0.074,1.385,0.067,3.41-0.243,5.967c-0.645,5.114-0.856,12.359,0,20.883
				c0.224,8.523,0.31,18.326,0,28.555c1.511,10.229-0.003,20.883,0,31.112c1.452,10.229-0.992,20.031,0,28.556
				c0.39,8.523-0.045,15.769,0,20.883c0.154,5.114,0,8.098,0,8.098h-1.032c0,0-1.434-2.983-1.234-8.098
				c0.29-5.114,0.271-12.359,0-20.883c0.422-8.524-1.239-18.327,0-28.556c1.365-10.229-0.128-20.883,0-31.112
				c1.572-10.229,0.078-20.031,0-28.555c0.352-8.524-0.713-15.769,0-20.883c-0.535-5.114,1.234-8.098,1.234-8.098
				S371.518,8.274,371.7,8.274z"/>
		</g>
		<g>
			<path fill="#ED6756" d="M377.867,18.525c-0.348,0.223-0.812,0.12-1.035-0.229l-6.164-9.679l-6.164,9.679
				c-0.223,0.349-0.688,0.452-1.035,0.229c-0.35-0.223-0.45-0.689-0.23-1.035l6.797-10.672c0.138-0.216,0.377-0.347,0.633-0.347
				s0.495,0.131,0.633,0.347l6.797,10.672c0.079,0.124,0.117,0.264,0.117,0.402C378.215,18.14,378.092,18.382,377.867,18.525z"/>
		</g>
	</g>
</g>
<text transform="matrix(1 0 0 1 163.3555 19.7256)" fill="#ED6756" font-family="'ArchitectsDaughter'" font-size="14">+ acesso</text>
<g>
	<g>
		<g>
			<path fill-rule="evenodd" clip-rule="evenodd" fill="#42B3C6" d="M370.755,55.991c0,0-0.428,0.085-1.257,0.206
				c-0.829,0.12-2.06,0.282-3.661,0.456c-3.204,0.347-7.896,0.738-13.849,0.932c-11.907,0.364-28.717,1.577-48.399,4.107
				c-19.735,1.899-42.446,3.913-66.179,5.616c-23.578,3.517-48.399,4.105-72.105,6.119c-23.583,3.459-46.508,2.951-66.179,5.616
				c-19.722,2.065-36.55,3.057-48.399,4.107c-11.84,1.16-18.767,1.593-18.767,1.593l-0.087-1.028c0,0,6.793-2.016,18.663-2.823
				c11.877-0.716,28.667-2.16,48.399-4.107c19.791-1.256,42.368-4.839,66.179-5.616c23.821-0.651,48.389-4.234,72.105-6.119
				c23.839-0.445,46.431-3.862,66.179-5.616c19.784-1.326,36.485-3.812,48.399-4.107c11.807-1.539,18.871-0.363,18.871-0.363
				S370.74,55.81,370.755,55.991z"/>
		</g>
	</g>
</g>
<g>
	<g>
		<g>
			<path fill-rule="evenodd" clip-rule="evenodd" fill="#42B3C6" d="M370.83,47.688c0,0-0.424,0.117-1.25,0.299
				c-0.825,0.182-2.051,0.436-3.65,0.729c-3.198,0.585-7.891,1.327-13.866,1.964c-11.955,1.253-28.779,3.72-48.399,7.714
				c-19.719,3.37-42.424,7.076-66.179,10.548c-23.468,5.27-48.399,7.711-72.105,11.492c-23.477,5.212-46.58,6.419-66.179,10.548
				c-19.693,3.533-36.553,5.78-48.399,7.714c-11.829,2.042-18.767,2.991-18.767,2.991l-0.163-1.02c0,0,6.688-2.518,18.573-4.21
				c11.898-1.603,28.687-4.297,48.399-7.714c19.822-2.732,42.278-7.994,66.179-10.548c23.921-2.43,48.379-7.84,72.105-11.493
				c23.953-2.225,46.437-7.322,66.179-10.547c19.811-2.801,36.434-6.529,48.399-7.714c11.768-2.417,18.961-1.772,18.961-1.772
				S370.802,47.508,370.83,47.688z"/>
		</g>
	</g>
</g>
<g>
	<g>
		<g>
			<path fill-rule="evenodd" clip-rule="evenodd" fill="#42B3C6" d="M370.73,52.677c0,0-0.429,0.075-1.26,0.175
				c-0.83,0.101-2.062,0.233-3.664,0.368c-3.206,0.27-7.897,0.549-13.843,0.6c-11.893,0.08-28.696,0.891-48.399,2.949
				c-19.741,1.428-42.454,2.897-66.179,4.032c-23.614,2.952-48.399,2.946-72.105,4.393c-23.617,2.894-46.484,1.838-66.178,4.032
				c-19.731,1.593-36.549,2.182-48.399,2.949c-11.843,0.876-18.767,1.144-18.767,1.144l-0.063-1.03c0,0,6.827-1.852,18.692-2.375
				c11.871-0.433,28.661-1.474,48.399-2.949c19.781-0.783,42.398-3.825,66.179-4.032c23.789-0.081,48.392-3.076,72.105-4.393
				c23.801,0.125,46.429-2.75,66.179-4.032c19.776-0.853,36.503-2.939,48.399-2.949c11.819-1.256,18.842,0.089,18.842,0.089
				S370.72,52.495,370.73,52.677z"/>
		</g>
	</g>
</g>
<g>
	<g>
		<g>
			<path fill-rule="evenodd" clip-rule="evenodd" fill="#42B3C6" d="M370.82,62.987c0,0-0.425,0.113-1.251,0.287
				c-0.826,0.174-2.052,0.416-3.651,0.692c-3.199,0.554-7.892,1.25-13.864,1.829c-11.948,1.137-28.771,3.439-48.399,7.243
				c-19.721,3.178-42.427,6.663-66.179,9.904c-23.482,5.041-48.399,7.24-72.105,10.79c-23.491,4.984-46.571,5.967-66.179,9.904
				c-19.697,3.342-36.553,5.425-48.399,7.242c-11.83,1.927-18.767,2.809-18.767,2.809l-0.153-1.021c0,0,6.702-2.452,18.584-4.029
				c11.896-1.486,28.685-4.018,48.399-7.243c19.818-2.539,42.29-7.581,66.179-9.903c23.908-2.197,48.38-7.369,72.105-10.791
				c23.938-1.992,46.436-6.87,66.179-9.903c19.807-2.608,36.44-6.175,48.398-7.243c11.773-2.303,18.95-1.588,18.95-1.588
				S370.794,62.807,370.82,62.987z"/>
		</g>
	</g>
</g>
<g>
	<g>
		<g>
			<path fill-rule="evenodd" clip-rule="evenodd" d="M299.062,85.317c0,0-0.251,0.092-0.742,0.226
				c-0.49,0.134-1.22,0.315-2.175,0.516c-1.91,0.398-4.721,0.868-8.322,1.163c-7.206,0.567-17.297,2.061-28.984,4.909
				c-11.792,2.225-25.383,4.614-39.631,6.713c-13.944,3.895-28.984,4.907-43.181,7.314c-13.954,3.837-27.967,3.731-39.631,6.713
				c-11.765,2.389-21.893,3.663-28.984,4.91c-7.072,1.354-11.239,1.903-11.239,1.903L96,118.667c0,0,3.901-2.115,11.033-3.121
				c7.146-0.916,17.199-2.637,28.984-4.909c11.901-1.588,25.228-5.53,39.631-6.713c14.424-1.059,28.962-5.035,43.18-7.314
				c14.459-0.854,27.814-4.632,39.632-6.713c11.889-1.657,21.767-4.41,28.984-4.909c7.008-1.73,11.444-0.688,11.444-0.688
				S299.03,85.138,299.062,85.317z"/>
		</g>
		<g>
			<path d="M289.983,93.111c-0.277-0.307-0.253-0.782,0.054-1.06l8.514-7.694l-10.572-4.461c-0.382-0.161-0.561-0.602-0.399-0.983
				s0.604-0.559,0.982-0.399l11.657,4.918c0.236,0.101,0.405,0.313,0.448,0.566s-0.047,0.51-0.236,0.682l-9.388,8.484
				c-0.109,0.099-0.241,0.159-0.377,0.183C290.422,93.389,290.163,93.308,289.983,93.111z"/>
		</g>
	</g>
</g>
<text transform="matrix(1 0 0 1 238.1934 112)" font-family="'ArchitectsDaughter'" font-size="14">padrão</text>
</svg>
