<?xml version="1.0" encoding="utf-8"?>
<!-- Generator: Adobe Illustrator 16.0.0, SVG Export Plug-In . SVG Version: 6.00 Build 0)  -->
<!DOCTYPE svg PUBLIC "-//W3C//DTD SVG 1.1//EN" "http://www.w3.org/Graphics/SVG/1.1/DTD/svg11.dtd">
<svg version="1.1" id="Layer_1" xmlns="http://www.w3.org/2000/svg" xmlns:xlink="http://www.w3.org/1999/xlink" x="0px" y="0px"
	 width="400px" height="400px" viewBox="0 0 400 400" enable-background="new 0 0 400 400" xml:space="preserve">
<g>
	<path d="M238.998,117.983"/>
	<polygon fill="#C6E8EE" points="362.072,154.292 363.816,155.506 365.908,156.024 368.175,157.405 370.615,158.788 
		373.406,161.556 374.104,162.072 373.229,163.284 370.441,167.087 368.349,169.337 366.606,171.928 365.211,172.102 
		363.47,171.757 362.422,170.547 361.377,169.337 360.679,167.78 360.855,166.224 362.422,166.051 363.295,163.802 363.47,160.518 
		363.295,158.099 362.422,156.711 361.377,155.506 361.377,154.121 	"/>
	<path fill="#8ED1DD" d="M100.498,18.992c0.347,0,3.66,0,3.66,0l1.569,1.644l1.569,1.208l3.312,0.347l2.267,0.259l0.871,1.728
		l1.918,0.174h2.179l0.872-1.296l0.261-1.903l1.569-0.863l2.18-0.604h3.401l1.48-0.435l2.091-1.469l2.005-1.038l1.656-0.777
		l2.439-0.259l1.744-2.073l1.831-2.338l0.261-1.728l3.835,0.173l0.87,1.726l-0.87,1.473l-0.699,1.383l0.088,1.727l1.744,0.26
		l1.828,0.777l1.223,1.989l0.699,1.559l-0.438,1.555l-1.307,1.298l-0.35,1.642l-0.869,2.85l0.085,1.385l-0.521,1.124v3.287
		l0.085,1.732l0.957,1.293l0.874,1.73l0.087,2.681l1.309,0.777l2.09,1.816l1.135,1.554l2.703,1.73l0.784,1.036l0.173,5.103v2.854
		l-1.221,0.518h-3.835l-3.748-0.088c0,0-0.785,0.865-1.133,0.953c-0.347,0.085-2.265,2.334-2.265,2.334l-0.872,1.815v1.036
		l-0.872,0.691l-0.697,0.865l-0.872,1.21l-0.175,1.559l-0.524,0.775l-1.306,0.261l-0.784-0.777l-0.785-1.041l-1.83-1.122
		l-1.395-0.519l-1.569,0.345l-1.221,1.125l-1.221,0.865l-1.305,1.64l-0.263,4.323l-0.611,0.521l-1.307-0.865l-2.004-2.419
		l-1.221-1.383l-0.698-0.691l1.046-1.472V64.9l-0.348-0.95l-0.785-1.298l-0.261-1.642l-0.263-2.163l-0.261-1.816l-0.175-2.938
		v-3.199l-0.87-1.555l-1.046-1.214l-0.873-1.469l-0.958-1.989l-0.697-1.728l-0.959-2.163l-0.35-0.95l-1.393-1.21h-0.785l0.086-3.285
		c0,0-1.394,0-1.656-0.087c-0.261-0.088-2.354-0.088-2.354-0.088l-1.133,0.088l-1.83-0.345l-0.61-0.347h-0.784
		c0,0-0.262-7.003-0.262-7.26c0-0.259,1.046-1.471,1.046-1.471l0.61-0.951v-2.595l-2.093-1.383l-1.393-0.431l-1.309-0.432
		l-0.522-0.692L100.498,18.992z"/>
	<path fill="#A0D9E2" d="M137.193,191.988c0,0-3.312-0.608-3.835-0.608s-3.575,0.09-4.184,0c-0.611-0.083-2.964-0.257-2.964-0.257
		l-2.091-1.383l-0.96-1.643l-1.309-0.691l-3.223-0.518l-2.094-0.433l-1.221-1.126l-1.131-1.383l-0.697-1.298l-0.961-0.602
		l-1.656,0.692h-1.481l-0.958-0.867l-1.309-0.778l-1.48-0.085l-3.054,0.344l-2.089-0.95l-1.744-1.989l-2.441-2.16l-1.393-1.381
		l-1.311-1.817l-0.956-2.854l0.173-3.886l-0.521-1.818l-0.437-2.25l1.133-1.036l0.087-4.498l-0.783-1.64h-2.006
		c0,0-3.486,0.088-4.01,0.088c-0.521,0-3.574,0.777-3.574,0.777l-2.091,0.606l-0.437-0.606l0.698-0.95l1.046-1.125
		c0,0,1.395-0.259,1.655-0.259c0.263,0,2.182,0,2.182,0l2.7-0.086l2.79-0.521h3.227l1.306-0.865l1.219-1.643l1.047-1.124h4.53
		c0,0,1.31-0.085,1.484-0.519c0.175-0.432,0.349-1.988,0.349-1.988l1.57-0.951l0.347-1.989l0.784-1.039l1.484-0.085l1.132-2.075
		l1.132-0.951l1.656,0.088h2.701l1.656,1.296l2.529,1.642l1.656,1.818l1.656,1.728l1.307,0.863l1.222,0.173l1.044-0.257h1.31
		l0.813,2.276l-0.234,1.269l0.351,1.729l0.23,1.612l-0.116,2.88l-0.58,2.077l0.35,2.88l0.23,1.499v1.499l-0.114,2.192l0.464,0.574
		l0.231,1.157l3.14-0.231l4.183,0.115h4.068l0.466,1.383l2.205,0.345l1.279,0.579l-0.233,1.036l-1.278,1.383l-0.113,1.614
		l0.812,2.19l1.277,2.19l0.117,4.263l-1.047,1.151l-2.09,3L137.193,191.988z"/>
	<path fill="#A0D9E2" d="M12.316,132.22c0,0,14.877,6.686,29.289,7.607c3.021,2.075,5.577,3.227,5.577,3.227
		s23.476,12.682,28.822,14.065l-0.233,1.615l-3.021,1.843l-2.788,1.383l-1.628,1.843l-3.022,0.462l-2.323,0.921l-1.857,2.538
		l-1.397,0.691l-1.859-0.231l-2.556-1.152h-3.953h-6.508l-3.021-0.229l-0.697-2.306l-0.232-4.381l0.699-2.997v-3.229l-0.234-2.073
		l-3.021,2.073l-3.488,2.769l-2.555,0.923l-6.275-0.696l-0.465-2.764l-2.79-2.077l-2.093-0.921h-2.322l0.464-1.612v-2.768
		l-1.628-1.846l-2.787-2.996l-2.094-4.15l-1.627-3.227v-2.074L12.316,132.22z"/>
	<path fill="#B3E1E8" d="M12.316,129.222l4.416,2.765c0,0,20.455,6.226,25.104,6.226c0.93,0,2.324,1.152,2.324,1.152l2.79,1.845
		c0,0,26.033,14.063,28.821,14.296c2.792,0.229,2.792-0.923,2.792-0.923l1.624-1.386l1.629-1.612l2.787-0.462l3.255,0.921
		l3.255-1.38h2.092l1.626-0.693l0.7-1.843l3.02-0.692l3.952-0.232l0.929-2.073l1.394-0.923v-2.072l3.022-1.846l0.233-2.077
		l9.297-0.461l1.163,2.307l2.322,2.077l3.022,2.996l2.79-0.233l2.556,0.462h15.341l13.482-0.229l2.323-1.844l0.233-4.612
		l1.627-3.689l0.463-3.918l-1.393-3.229l-0.931-2.304l19.758-39.655l0.93-3.458l0.929-1.845l-3.717,0.922l-3.023-2.074l-3.021-2.535
		l-7.671-0.692l-2.323-3.46c0,0-4.649-6.346-5.113-6.455c-0.699,0.694-0.365-1.837-0.365-1.837l-0.158-3.205l-0.436-2.593
		l-1.716-0.203h-2.847l-3.776,0.058l-0.989,0.257l-1.569,2.137l-2.321,3.053l-1.076,1.7c0,0-0.467,2.249-0.493,2.364
		c-0.03,0.115-0.668,0.892-0.668,0.892l-1.454,0.608l-2.498-0.033l-1.802-1.324l-1.132-1.323l-1.542,0.287
		c0,0-1.307,0.833-1.394,0.893c-0.089,0.056-0.959,1.383-0.959,1.383l-0.115,2.303l-0.204,3.518l-1.366,0.259l-1.539,0.028
		c0,0-1.513-0.835-1.688-0.923c-0.172-0.085-1.045-0.978-1.045-0.978s-1.336-1.183-1.48-1.328c-0.145-0.142-1.135-1.411-1.135-1.411
		s-1.221-1.182-1.279-1.295c-0.057-0.118-0.666-1.124-0.666-1.124v-0.868l0.058-2.044l-0.174-4.006c0,0-0.292-1.554-0.32-1.642
		c-0.028-0.085-0.493-2.708-0.493-2.794c0-0.088-0.059-2.623-0.059-2.623s-0.145-2.134-0.26-2.364
		c-0.117-0.229-0.961-1.586-1.106-1.788c-0.144-0.199-1.073-1.902-1.073-1.902l-1.045-2.567c0,0-0.671-1.839-0.93-2.216
		c-0.264-0.377-0.96-1.818-1.018-1.903c-0.062-0.088-0.352-0.717-0.352-0.717l-2.702-0.03l-0.407-0.605l-0.842,0.259l-0.842,0.78
		l-2.12,0.92l-0.438,1.815l-1.448,1.584l-1.514,1.615l-2.062,0.291l-1.656,0.604l-1.338,1.037l-1.569,1.181l-2.12,2.249
		l-1.803,0.432l-1.684,0.375l-1.046-0.75l-0.087-1.036h-1.334l-1.02,0.199l-0.465,1.211L84.17,53.11l-2.439-0.025l-0.785-0.548
		c0,0-0.611-0.808-0.698-0.894c-0.088-0.088-1.251-1.039-1.251-1.039l-0.986-0.749l-3.807-0.315l-0.117-5.477l-1.075-1.672
		l-0.636-0.952l-0.613-0.602l-1.364,1.034l-1.192,0.809l-0.666,1.238l-1.688,1.011l-1.422-1.79l-0.438-0.921l-0.839,1.242
		l-0.845,1.122l-4.529,0.03l-3.112-0.176l-4.413-0.116c0,0-0.931,0.231-1.019,0.261c-0.087,0.03-1.279,0.664-1.279,0.664
		s-0.404,0.893-0.38,0.978c0.031,0.088,0.236,1.874,0.236,1.874l0.144,1.328c0,0,0.292,0.488,0.698,0.518
		c0.406,0.028,1.743,0.028,1.743,0.028s1.656,0.088,1.801,0.088c0.146,0,0.755,0.489,0.755,0.489s0.611,0.49,0.67,0.605
		c0.057,0.114,0.697,1.154,0.697,1.154l0.261,1.296c0,0,0,1.209,0,1.297c0,0.085-0.29,1.154-0.29,1.154h-1.019l-1.802,0.113
		l-0.463-0.462l-1.543-0.115L49.1,56.138l-1.803,0.087l0.029,1.615l-0.057,5.015l0.871,0.833c0,0,1.047,0.576,1.161,0.696
		c0.119,0.114,0.814,0.602,0.99,0.747c0.171,0.144,0.872,0.403,0.872,0.403l0.144,2.449l-0.174,1.181l1.249,1.658l0.566,1.599
		l-0.522,6.31v2.899c0,0-0.741,2.246-0.741,2.633c0,0.39-1.002,2.812-1.002,2.812l-0.043,2.897c0,0-0.568,0.865-0.609,1.165
		c-0.047,0.306-0.132,3.892-0.132,3.892s-0.653,1.73-0.696,1.987c-0.043,0.264,0,2.509,0,2.509s-0.959,2.895-1.091,3.111
		c-0.132,0.216-0.957,1.557-1.135,1.602c-0.171,0.042-1.828-0.045-2.047-0.045c-0.218,0-1.917-0.606-2.049-0.734
		c-0.13-0.131-0.915-0.647-0.915-0.647h-1.961l-1.481,0.562l-0.609,1.079l-2.312,0.908l-3.268,0.301l-2.964,0.086l-1.742,0.737
		l-2.008,1.166l-1.394,1.039c0,0-2.178,1.469-2.178,1.599c0,0.128-1.918,2.462-2.094,2.681c-0.172,0.214-0.74,2.161-0.74,2.161
		l-0.303,1.383l-0.961,1.34c0,0-0.785,1.167-0.827,1.298c-0.042,0.128,0.261,1.987,0.261,1.987l0.305,1.255l-0.871,2.292
		l-1.613,1.466c0,0-1.786,0.955-1.786,1.126C13.421,127.449,12.316,129.222,12.316,129.222z"/>
	<path fill="#A0D9E2" d="M198.644,38.789l2.615,0.868l1.743,0.342l1.57-0.257l0.695-0.779l2.178-0.085h1.832l1.57,0.78l1.653,0.171
		l2.267-0.086l2.267-1.469c0,0,0.96-1.471,1.221-1.903c0.263-0.433,1.919-4.323,1.919-4.323l2.438-4.149l2.267-3.456l2.354-2.856
		l1.83-1.554l1.568,1.209l1.133,1.383c0,0,0.174,1.818,0.174,2.161c0,0.347,0.09,4.413,0.09,4.413l0.436,1.293l0.959,1.471
		c0,0,0.696,0.778,0.696,1.209c0,0.433,0.349,2.51,0.263,2.767c-0.089,0.259,0.611,3.113,0.611,3.113l0.783,1.557l1.654,1.728
		l1.828,1.382l2.096,0.347l1.047,1.037l1.045,1.73l-0.262,2.072c0,0-0.873,0.347-1.132,0.694c-0.264,0.346-2.268,2.333-3.226,3.198
		c-0.961,0.865-2.617,3.287-2.617,3.287l-2.439,1.987c0,0-1.742,1.21-2.44,1.469c-0.697,0.262-1.742,1.3-1.742,1.557
		c0,0.261-1.136,2.854-1.136,2.854l-1.305,1.815l-1.569,1.987l-0.61,2.421c0,0-0.438,0.52-0.959,0.52s-1.917,0-1.917,0
		s-0.7-1.124-0.959-1.383c-0.264-0.261-1.133-1.817-1.396-2.595c-0.26-0.777-1.566-2.852-1.566-2.852s-0.872-1.383-1.309-1.989
		c-0.435-0.605-1.309-2.336-1.742-2.767c-0.438-0.432-1.219-1.47-1.219-1.47s-0.176-1.903-0.264-2.332
		c-0.088-0.433-0.869-3.027-1.479-3.547c-0.613-0.516-1.658-3.368-1.92-3.631c-0.262-0.255-0.783-1.643-1.57-1.902
		c-0.785-0.259-1.916-0.691-2.613-1.124c-0.695-0.433-2.18-0.951-2.615-1.037c-0.436-0.085-1.308-1.124-2.266-1.297
		c-0.959-0.174-1.482-0.605-1.918-0.953c-0.437-0.342-1.658-1.554-1.658-2.158C197.596,39.05,198.644,38.789,198.644,38.789z"/>
	<path fill="#B3E1E8" d="M366.26,108.819h1.565l2.268,0.865l2.092,1.036l2.789,0.171h3.312h2.791l2.438,0.347l1.917,1.037
		l1.223,1.559v1.207l1.045,2.596v1.903l0.349,2.767l-0.521,1.037h-2.969h-3.482l-2.269-0.866l-1.564-0.345l-1.049,0.345l-1.222,1.21
		l-0.174,1.385l-0.35,1.557h-1.741l-0.873-1.212l-2.266,0.173h-0.873l-0.522-1.209l1.396-2.422v-1.727l-2.614-0.517l-2.44,0.344
		l-1.396,1.382l-2.44,1.383c0,0-1.22,0.345-1.741,0.345c-0.524,0-1.745,0.174-1.745-0.345c0-0.518,1.571-2.592,1.571-2.592
		l1.219-2.077l2.612-3.977L366.26,108.819z"/>
	<polygon fill="#C6E8EE" points="360.679,151.872 362.25,152.737 364.166,153.947 366.083,154.636 368.175,155.677 369.395,156.542 
		370.965,157.405 372.881,158.788 374.45,159.827 376.019,160.345 377.59,158.961 380.204,156.885 382.47,154.121 384.213,152.044 
		385.433,150.836 386.13,148.759 386.479,147.376 383.865,146.686 381.599,147.033 380.029,147.549 379.158,149.971 
		377.243,151.005 374.8,151.354 372.011,151.354 369.395,151.354 367.825,150.664 366.083,149.624 365.035,148.759 363.643,148.759 
		362.072,149.624 361.2,150.836 	"/>
	<path fill="#C6E8EE" d="M241.611,75.793l1.396-0.345l0.873,0.345l1.046,0.516l1.221-0.689l1.047-1.039l1.222-0.689l1.218,0.521
		l0.873-0.521l1.566-1.385l1.921-0.171l1.567-2.249l1.396-2.074l0.349-1.73l0.522-1.728l-2.788-0.171l-1.919-0.347h-2.442
		l-1.216,0.171h-2.442l-1.567-0.52l-2.093-0.692l-1.746,0.347l-0.696,1.899l-0.173,1.561l-0.176,1.901c0,0,0.349,1.901,0,2.417
		c-0.346,0.52-0.523,2.771-0.523,2.771l-0.174,2.417l0.697,0.175L241.611,75.793z M249.461,60.752l-0.699-1.559l-1.394,0.173
		l-1.048,1.728l1.395,0.868L249.461,60.752z M245.1,60.405l0.176-1.212l0.871-2.246l-2.789-0.693l-1.568,1.901l-0.873,1.556
		c0,0,2.092,0.347,2.618,0.347C244.055,60.058,245.1,60.405,245.1,60.405z M235.688,63.169l1.222-0.69l0.696-1.559v-1.036h-1.742
		l-1.92,1.036l-0.521,2.249l0.35,2.072L235.688,63.169z M228.889,70.26l1.568-1.732l-0.695-1.381l-1.222,0.691l-1.569,2.766
		l-1.047,2.767l1.568-0.865L228.889,70.26z M237.605,67.666l-0.871,0.347l-1.225,0.344l-0.693,0.865l1.045,0.347l1.047,0.518
		l1.918-1.038L237.605,67.666z M238.826,64.554l0.172-2.075l-1.219,0.516l-0.35,1.559H238.826z M236.383,72.851l0.174,1.561h1.569
		l0.176-1.385l-0.696-1.21h-1.049L236.383,72.851z M278.743,71.556h-2.699l-0.782-1.383c0,0-2.703-0.345-3.141-0.519
		c-0.434-0.174-2.18-0.345-2.18-0.345l-2.526-0.261l-2.269-0.433l-1.48,0.174l-1.047,1.038l-5.404,5.792l-3.05,3.717l-2.354,1.298
		l-2.525,0.085l-1.395-0.863l-1.224,0.086l-0.696,1.036l-0.521,1.039l-1.57-0.606l-1.479-1.209l-4.186-0.777
		c0,0-1.307-0.604-1.57-0.777c-0.262-0.173-1.394-1.73-1.394-1.73l-1.308-2.854l-0.699-0.606h-2.002l-2.702,1.644l-2.528,1.208
		l-4.01,0.779l-1.046-1.036l0.522-1.901l2.266-0.433l-0.174-1.037l-2.614-0.346c0,0-1.394-1.471-1.741-1.643
		c-0.35-0.174-1.654-2.248-1.654-2.248l-0.352-2.163l-1.307-1.642l-2.703-3.719c0,0-0.434-2.246-0.872-2.939
		c-0.435-0.69-0.696-2.075-0.696-2.593c0-0.517-1.133-2.075-1.656-2.509c-0.521-0.431-1.047-2.505-1.393-3.023
		c-0.352-0.516-1.744-1.73-1.744-1.73l-2.705-1.557l-2.787-1.987c0,0-2.092-0.432-2.441-0.694c-0.349-0.256-2.354-1.036-2.525-1.378
		c-0.178-0.349-0.524-2.595-0.524-2.595l-0.262-2.421l-1.048-1.297c0,0-1.916,0-2.176,0c-0.265,0-2.266,0.604-2.266,0.604
		l-1.049,0.78h-2.267l-1.219-0.259l-0.262,1.12l0.087,1.906v1.726l-0.26,0.779h-3.836l-4.098-0.342l-2.093,0.171
		c0,0-2.353-0.171-2.788-0.088c-0.438,0.088-2.962,1.728-2.962,1.728l-2.271,0.867l-2.351,1.125l-3.837,1.295l-1.832,1.295
		l-1.392,0.522L157.586,56l0.175,2.762c0,0,0.522,4.328,0.522,4.755c0,0.435,0.525,2.25,0.525,2.25l1.566,1.125l0.872,1.039
		l0.436,1.986l1.132,1.468l1.484,1.733l1.394,1.466l1.744,0.173l1.655,0.173l0.61,0.259l1.395-0.518l1.221,0.085l1.309,0.865
		l1.479,1.728l1.832,0.694l1.916,1.125l1.829,0.085l0.961-0.865l1.482-0.259l1.655,0.863l-0.176,1.385l-0.173,1.469l-0.87,0.344
		l-0.874,2.075l-0.521,1.994l-1.309,1.469l-1.916,4.841l-16.299,32.677l0.086,1.299l1.219,1.465l0.176,1.387
		c0,0,1.131,1.036,1.045,1.295c-0.085,0.26,0,2.249,0,2.249l1.047,1.125L167,135.19l0.782,2.248l1.134,1.298l0.262,2.333
		l0.088,3.458l2.005,1.471l2.354,1.898l1.567,1.644l1.918,1.641l1.308,0.347l3.66,0.264l4.882,0.516l1.307,0.518l12.379,0.521
		l11.593,0.085l7.667,0.606h7.759l10.547,0.435l3.14,0.084l1.133-2.854l2.613-4.234c0,0,1.918-1.904,2.178-2.075
		c0.264-0.173,1.57-1.728,1.57-1.728l0.959-2.595l0.262-2.681l-0.351-1.816l-0.958-1.036l0.264-2.681l1.045-1.471l0.437-1.987
		l0.522-1.901c0,0,0.697-0.437,1.134-0.691c0.435-0.26,2.7-2.163,2.7-2.163l1.742-1.039l0.873-1.295l1.396-2.507l0.085-2.333
		l-0.085-2.25l-0.96-0.174l-1.744-0.777l-0.696-1.728l2.18-2.595l5.578-4.755l2.963-1.295l2.18-2.767l4.359-6.916l3.05-4.063
		l0.175-2.852l0.697-1.732l1.134-1.985l1.222-2.856l0.434-4.321l0.871-1.126v-2.766L278.743,71.556z"/>
	<path fill="#B3E1E8" d="M258.523,112.622l2.613,0.347l2.094,0.865l2.612,1.036l0.875,1.73l0.871,3.458l-0.353,3.804l-0.172,3.458
		l-0.696,1.727l-0.697,1.73l0.172,1.901l2.095,1.384l1.22,1.727l1.569,1.904l2.617,1.211h2.612l0.696,1.901l-0.871,1.554
		l-1.741,0.868l-1.224,1.554l-0.346,1.903l-0.352,1.902l0.872,1.383l1.567,2.073l1.047,1.559l0.35,1.903l0.521,1.557l1.223,1.899
		l1.042,0.865l1.571,1.038l1.918,0.345l0.699,1.036l-1.224,0.868l-1.567,1.726l-1.045,1.559l-1.223,2.075l-0.173,2.593v1.557
		l2.092,1.38c0,0,0.175,0.347,0,1.041c-0.175,0.687,0,3.631,0,3.631l-0.871,1.208v2.077l0.696,1.212l-0.176,2.073l-1.395,0.173
		l-4.185,1.729l-2.962,0.692l-3.487,0.518l-1.918,0.347l-0.351,1.036l-2.612-1.383l-1.745-0.691l-1.57-0.691l-1.742-1.039
		l-1.393-1.384h-1.396l-2.789,0.173l-1.916,1.383l-0.873,1.73l-2.092-0.692l-1.744-0.691l-1.219-1.385l-1.568-2.764
		c0,0,0.347-1.383-0.352-1.383c-0.693,0-2.613,1.383-2.613,1.383l-0.871-3.114v-5.706l0.697-6.224l1.741-5.017l1.57-2.937
		l0.696-3.114l0.351-3.631l1.044-2.075l2.79-2.94l1.396-1.382l1.395-2.075l1.049-2.249l0.691-2.938v-2.077l-0.691-2.419l0.171-2.593
		l0.698-2.942l2.613-1.38l2.441-2.077l1.743-1.901l1.045-2.595l0.697-2.938v-2.595l-1.57-1.901L258.523,112.622z"/>
	<path fill="#ECF7F9" d="M282.842,73.544l2.006,0.174l1.744,1.469l1.479,0.173l2.356,0.088l1.919,0.777l1.221,1.645l2.438,1.812
		c0,0,1.222,1.646,1.222,1.903c0,0.259,0.346,1.468,0.346,1.818c0,0.342,0,1.811-0.26,1.901c-0.262,0.083-1.916,1.728-1.916,1.728
		l-0.438,1.643l0.175,2.075l1.221,1.039l1.57-0.435l0.781-1.728l1.92-1.036h1.568l0.783-1.039c0,0,0.785-0.951,1.395-0.951
		c0.611,0,3.312-0.086,3.312-0.086l1.396-0.691l1.135-0.518l2.181,0.43l1.829,0.865l2.181,1.381l1.655,0.782l2.875,0.345
		l1.655,0.432l-0.173,1.645l-1.221,1.295l-1.917,1.037l-0.784,0.52l-2.791,0.604l-1.22,2.42l-1.396,2.42l-1.046,1.815
		c0,0-0.173,3.115-0.173,4.67c0,1.557,0.785,2.939,0.785,3.543c0,0.606,0.607,2.423,0,3.113c-0.612,0.689-1.137,2.854-1.744,3.372
		c-0.612,0.518-0.348,2.852-0.348,2.852l0.173,1.386l1.657,1.9l-0.352,2.507l-1.046,1.383l-2.265,0.173c0,0-1.396-0.606-1.743-0.606
		c-0.35,0-2.18,0.088-2.18,0.088l-2.004,0.17l-1.311,0.694l-1.919,1.641l-1.652,1.73l-2.271,2.163l-2.176,0.863l-3.836,1.038
		l-2.442,2.075l-1.132,2.59l-0.262,1.733c0,0-0.521,2.162-0.609,2.505c-0.09,0.349-1.395,2.25-1.569,2.509
		c-0.174,0.257-1.045,3.025-1.045,3.284c0,0.259,0.173,3.116,0.173,3.116l0.611,1.38c0,0,0.609,1.384,0.349,1.643
		c-0.262,0.259-0.175,3.717-0.175,3.717l-1.047,1.383c0,0-1.479-0.518-1.827-0.604c-0.353-0.086-1.569-0.865-1.569-0.865
		s-0.785-2.249-0.873-2.767c-0.087-0.518-0.175-2.507-0.521-2.939c-0.35-0.432-1.135-0.948-1.57-1.559
		c-0.434-0.604-1.656-1.985-1.656-2.246c0-0.259,0.174-1.987,0.174-2.247c0-0.261,1.05-2.421,1.05-2.421s1.915-0.777,2.264-0.953
		c0.351-0.169,0.873-2.593,0.873-2.593v-2.248c0,0-0.262-0.347-0.873-1.037c-0.608-0.691-4.53-0.349-4.53-0.349l-2.092-1.295
		l-2.182-2.764c0,0-1.133-1.728-1.047-2.077c0.089-0.347,0.873-3.629,0.873-3.629l0.437-8.216l-0.263-2.764l-0.872-1.815
		c0,0-4.011-2.593-4.359-2.593c-0.348,0-2.438-0.52-2.438-0.52l-0.521-1.124l2.613-3.027l3.141-1.555l2.002-1.729l2.094-3.285
		l2.531-4.064l2.088-2.937l1.834-2.854l0.435-1.73l0.522-1.73l0.349-1.554c0,0,0.438-1.124,0.61-1.385
		c0.172-0.259,1.219-2.16,1.219-2.16s0.611-2.595,0.611-2.853c0-0.259,0.435-2.163,0.435-2.421c0-0.26,0.87-3.025,0.87-3.025
		L282.842,73.544z"/>
	<path fill="#ECF7F9" d="M324.07,89.625h1.394l2.091,0.692l0.525,0.867l-0.872,1.208l-0.347,1.383l0.172,1.383l1.22,1.903
		l0.874,2.076l1.045,1.901v1.903l0.521,2.072v3.978l0.696,6.051l0.175,2.596l0.352,1.903l0.696,3.456l0.695,1.903l0.523,1.383
		l1.742,1.212l0.522,1.554c0,0-0.347,1.037-0.871,1.21c-0.522,0.173-1.218,1.904-1.218,1.904l0.173,2.421l0.699,1.899l0.346,1.73
		l-0.695,2.077l-2.966,1.726l-2.962,2.25l-2.094,1.901l-2.265,2.421l-2.44,1.383l-2.438,0.176l-1.57,1.032l-1.742,0.52h-2.093
		l-1.396-0.173l-2.093-0.689l-2.612-0.52l-1.396,0.173l-0.874,1.037l-1.22,1.385l-0.173,2.075v1.726l-0.524,2.077l-1.044,1.385
		l-1.396,1.383l-1.918,0.516l-1.916,1.041l-1.92,1.036l-1.914,0.689c0,0-0.7-0.519-1.746-0.689
		c-1.045-0.173-1.045-0.173-1.045-0.173l-1.221-1.555l-0.699-1.212l-1.045-0.692h-2.266l-0.175-2.59l-0.174-2.251v-2.421
		l-0.523-1.901l-0.352-2.766l0.875-2.248l1.045-1.901l1.221-2.768l0.696-2.765l0.523-1.901l1.047-1.041l1.395-1.036l1.568-0.518
		l1.918-0.694l2.266-0.863l2.268-2.075l1.742-1.904l1.568-1.209l2.268-0.344l1.743-0.174l1.918,0.347h1.915l2.097-0.865l1.217-2.248
		l0.176-2.422l-0.523-1.385l-0.868-1.555l0.349-2.248l0.346-1.73l0.698-1.383l1.044-1.383l-0.521-1.728l-0.175-2.595l-0.349-3.111
		v-2.073l0.349-2.248l1.048-1.73l1.395-2.422l1.742-0.518l3.661-2.077l1.566-2.075L324.07,89.625z"/>
	<path fill="#B3E1E8" d="M356.146,125.59l-0.871,2.249l0.349,1.556l0.872,1.383l-0.35,2.075l-0.35,1.557l1.047,0.518l2.093,0.173
		l2.786-0.518l2.27-1.556l2.788-1.728l1.046-0.175l2.79,0.52l0.35,1.728l-0.698,0.863l-0.871,2.941v1.21l0.523,0.689l1.568,0.349
		l1.222-1.559l2.265-1.557h1.569l3.312-0.518l2.793-0.689l2.091-1.901l1.393-1.039l1.569-0.345h2.963v-1.732
		c0,0,0.174-2.077-0.348-2.246c-0.524-0.174-1.048-1.904-1.048-1.904l-0.868-0.691l-4.187-0.692h-2.79l-2.438-0.171h-2.094
		l-0.872,1.726l-1.394,1.901l-2.094,0.349l-1.566-1.21l-1.745,0.174l-1.22,0.687l-1.221-1.032l-1.22-1.732l0.871-2.593l1.224-1.729
		h-1.571l-1.917,1.038l-0.871,1.384l-1.572,0.691l-1.044,0.171l-2.439,0.176L356.146,125.59z"/>
	<path fill="#C6E8EE" d="M330.52,89.798l-0.696,1.555l-0.523,1.385l0.176,1.902l0.176,0.866l0.694,1.21l0.698,1.383l0.521,1.037
		v1.73l0.872,1.73l0.176,1.901v2.764l0.175,1.903l0.172,2.94l0.35,2.937l0.176,2.942l0.349,2.249c0,0,0.177,1.038,0.35,1.9
		c0.175,0.863,1.222,2.767,1.222,2.767l1.74,0.863l0.699,1.214l-0.35,2.072c0,0,0.175,0.692-0.351,1.21
		c-0.521,0.521-0.347,1.729-0.347,1.729l1.917,0.175l2.439-0.175l2.269-0.169h1.918l1.568,0.518l1.915,1.21l1.568,1.901l1.396-0.173
		l1.744-1.728l1.047-1.21l-0.523-1.557l-0.522-1.211v-2.246l1.047-2.249l0.348-2.595l1.744-2.938l2.438-2.939l1.748-2.942
		l1.566-2.767l1.395-2.59l2.443-1.559l-4.537-3.974l-3.832-2.944l-1.047-1.554c0,0-1.568-1.039-2.091-1.039
		c-0.525,0-2.268-1.036-2.268-1.036l-2.44-1.729l-2.614-1.729l-2.616-1.385l-2.612-1.381h-2.789h-3.661h-1.742L330.52,89.798z"/>
	<polygon fill="#B3E1E8" points="331.742,144.783 333.658,146.34 334.355,147.723 334.53,148.933 335.402,150.316 335.402,151.005 
		335.924,151.872 337.144,151.179 338.191,149.971 339.236,148.241 340.979,148.241 342.024,146.686 343.596,145.302 
		345.861,143.918 347.605,143.398 349.349,143.745 351.265,144.438 353.182,144.783 354.926,146.167 357.191,147.376 
		358.412,148.933 360.329,148.759 362.25,147.376 363.643,146.514 365.211,147.549 367.128,148.759 368.872,149.28 370.965,150.146 
		374.277,149.971 377.065,149.795 377.59,148.759 378.809,146.858 380.029,145.996 381.773,145.476 383.69,145.476 385.609,145.476 
		387.527,145.476 388.223,144.265 388.921,142.361 389.617,140.114 390.662,136.829 390.662,134.41 389.268,133.545 
		387.177,133.371 385.783,134.234 384.56,135.272 382.994,136.137 381.599,136.829 379.33,137.176 377.59,137.176 376.019,137.865 
		374.104,138.733 373.229,139.942 372.011,141.326 369.919,141.497 368.697,140.46 368.175,138.559 368.175,136.655 
		368.525,134.234 368.697,133.371 367.825,133.027 366.26,133.371 364.688,134.41 362.595,135.964 361.026,136.829 358.238,136.655 
		357.018,136.655 355.448,136.655 353.01,136.655 350.742,136.829 348.823,136.655 347.256,134.756 345.34,133.716 343.768,133.716 
		340.457,133.371 335.924,133.2 336.274,134.583 336.448,135.791 337.144,137.694 337.144,138.559 336.274,140.114 335.053,141.497 
		333.483,142.88 	"/>
	<path fill="#B3E1E8" d="M279.793,171.757l0.175-2.767l1.22-2.593l1.914-1.036l1.222-1.212l1.573-1.728l1.566,0.342l1.048,1.557
		l1.22,1.385l1.567,0.519l2.093,1.039l1.395-0.176l2.092-1.208l1.571-0.693h2.788l1.045-1.209l2.439-2.075l1.569-2.592l0.522-1.381
		v-1.903l-0.349-0.692l-0.175-1.904l0.871-1.209h1.743l1.046,0.691c0,0,1.744-0.173,2.442,0c0.694,0.172,1.218,1.037,1.218,1.037
		h2.441l1.916-0.519l2.443-1.036l2.963-0.694l2.264-0.863l1.396-2.248l1.568-1.039l2.269-1.035l1.394,0.689l0.35,1.038l0.347,1.554
		l0.35,2.424l1.396,1.209l1.745,0.345l3.136-2.075l1.92-1.903l1.918-0.516l1.394-2.077l1.221-1.381l1.396-0.521h1.219l1.222,0.521
		l1.743,0.692l1.396,0.52l2.266,1.555l1.221,1.036l1.396,1.04l1.396,1.035l0.696,2.422l-0.176,1.556l0.349,1.208l1.567,0.867v0.865
		l-0.172,5.359l-1.396,0.691l-1.392,0.694v1.901l0.345,1.383l0.874,1.728l1.219,1.903l1.919,1.726l1.744,0.87l-0.872,2.591
		l-2.614,3.115l-2.27,2.593l-1.916,2.246l-0.174-1.039l-1.569-1.036l-1.917-0.171l-1.744,0.518c0,0-0.695,1.036-0.695,1.555
		c0,0.522,0.173,1.558,0.173,1.558v2.073l-0.871,1.729l-1.22,2.249l0.35,3.285l0.348,1.728l0.522,1.384l-0.173,1.558l-0.351,1.033
		l0.175,4.672l0.348,3.631l-0.172,2.073l0.697,1.386v1.729l-0.352,3.113l-0.871,1.9l-0.348,2.768l-0.699,2.422l-0.871,1.556v2.94
		l0.696,0.518v1.383l-2.438,2.246l-2.269,2.768l-1.219,0.347l-1.744-1.036l-0.871-1.729l-0.35-1.73l-1.393-1.036l-0.871-1.558
		l-0.353-1.729l0.175-1.382l1.57-1.729l1.22-2.248l1.744-1.73l1.044-2.247v-2.595l-2.788-2.073l-2.612-1.037l-2.269-0.863h-2.439
		h-2.44l-1.22-0.691l-0.524-1.384l-1.918-1.903l-1.566-0.863c0,0-1.918-0.347-2.614-0.347s-1.916-0.521-1.916-0.521l-2.617-0.863
		l-2.092-1.729l-2.093-1.037l-1.218-0.518l-2.614-0.173l-1.919,0.345l-1.396,0.516l-0.698-1.385l-0.521-1.724l-1.046-1.385
		l-2.964-0.518l-1.569,0.173l-2.614,0.691l-2.615,1.901l-3.138,1.559l-2.614,1.73l-2.44,1.207l-1.743,1.384l0.175-2.423
		c0,0,0.347-2.598-0.175-3.112c-0.521-0.517-1.221-2.592-1.221-2.592l-1.219-1.899l-0.352-3.46l0.352-1.557l0.348-2.938v-3.807
		l-0.698-2.073l-0.522-3.46l0.875-1.73l0.521-2.25l-0.873-2.764L279.793,171.757z"/>
	<path fill="#8ED1DD" d="M170.49,354.809l1.857-0.227l1.629-1.04l1.859-0.688l1.742,0.345l1.627,1.731l2.674,2.303l2.207,2.418v1.5
		l0.931,1.039l1.279-0.348l1.511-0.807l1.044-0.574l1.164,1.036l0.698,0.806l1.043,1.387l1.514,1.27l1.742-0.35l1.511,1.5
		l1.744,0.806l1.278,0.922l1.509,1.729l1.163,1.5l1.745-0.114l1.857,1.381l0.349,1.153l1.276,1.154l1.281,1.728
		c0,0,0.463-0.002,0.812,0.229c0.351,0.23,1.743,1.156,1.743,1.156l0.931,1.035l-0.116,2.65l-0.926,1.268
		c0,0-1.514,0.809-1.514,1.152c0,0.347-0.118,4.727-0.118,4.727l1.164-0.922l1.741-1.27l2.441-1.151l1.045-1.957l1.977-2.078
		l0.697-2.995l1.047-2.884l1.045-1.728V370.6l1.043-1.726l1.397-1.149l0.114-2.652l2.559-0.578l1.277-0.922l0.348-2.766l1.629-1.158
		l1.162-4.84l1.045-0.572l1.629,0.457l0.115,0.809l1.277,0.46l0.93-1.032l1.279-0.348h1.742l-0.116,2.768l-1.158,1.15l-1.397,1.961
		l-2.439,2.188l-1.162,2.076l-1.046,1.613l-2.325,1.498l-2.557,1.615c0,0-1.512,0.689-1.857,0.92
		c-0.35,0.229-1.279,0.809-1.279,0.809l0.117,1.383l0.93-0.111l1.275-0.118l1.979-0.923l2.321-1.73l2.209-2.07l2.209-2.078
		l2.438-2.766l2.789-3.805l1.743-3.229l1.979-4.035l0.813-2.188l1.16-2.649l-1.046-0.691l-1.512-0.348l-0.231-2.189l0.929-2.307
		l1.281-1.957v-0.922l-3.141,0.232l-2.558-0.578l-1.856-0.464l-2.442-2.418l-1.394-1.614l-1.859-1.73c0,0-1.973-1.148-2.441-1.498
		c-0.464-0.346-2.673-0.92-2.673-0.92s-2.438-0.924-3.138-1.039c-0.696-0.115-2.788-0.115-3.484-0.46
		c-0.697-0.347-3.602-0.808-3.951-0.923c-0.35-0.113-2.094-0.922-4.301-0.805c-2.208,0.113-4.996,0.113-5.811,0.113
		c-0.815,0-2.559,0-2.559,0l-1.742,1.268l-1.976,1.385l-2.674,1.263l-2.092,1.271l-1.86,1.154l-1.858,1.037l-20.688,20.746
		L170.49,354.809z"/>
	<path fill="#7BCAD7" d="M207.678,317.695v2.533l0.119,2.537l0.23,1.381l1.975,0.114h2.561l2.322,0.118l2.559,0.348l3.483,0.92
		l2.093,0.922l1.625,0.35l2.092,0.689l1.861,0.463l1.51,0.805l8.136,7.723l1.743,0.577l2.324-0.114h2.558
		c0,0,0.698-0.349,0.93,0.344c0.231,0.693,0.698,1.498,0.698,1.498l-0.232,1.386l-0.582,1.271l-1.393,1.498l-0.581,1.266
		l1.394,0.344l1.396,0.578l0.93-1.383l1.978-1.729l1.74-1.498l3.14-1.613c0,0,0.815-0.691,0.93-1.151
		c0.115-0.464,0.933-3.347,0.933-3.347l0.694-2.533l0.233-2.766v-2.654l-0.116-3.11c0,0,0-2.306,0-2.651
		c0-0.347-0.117-2.884-0.117-2.884l-0.349-1.612l-2.092-1.613h-1.859l-1.512,0.576l-0.93,0.807l-1.045,0.23l-1.977,0.578
		l-1.047-0.464l-0.697-0.805l-0.693-0.81l-1.746,0.119l-1.511,0.113l-2.327,0.346h-1.51l-1.275,1.383l-1.049,0.808l-1.977-0.116
		l-0.695,0.691l-1.047,1.384l-0.58,1.269h-1.396H227.9l-1.742-0.232l-2.441-0.227l-2.326-0.578l-1.973-0.689l-1.857-0.578
		l-1.859-0.232h-1.279l-2.904-0.457l-2.207-0.231L207.678,317.695z"/>
	<polygon fill="#8ED1DD" points="202.797,294.636 202.797,299.018 202.566,302.477 202.566,306.281 201.055,308.009 
		200.357,308.471 201.17,308.93 202.217,308.93 203.031,308.238 203.729,308.582 205.121,310.775 205.936,312.391 206.4,314.578 
		208.607,315.619 211.281,316.078 213.839,316.309 216.626,316.424 219.418,316.771 220.463,317.578 222.902,318.266 
		226.621,319.074 229.525,319.189 230.34,318.383 230.457,317.113 231.154,315.619 233.943,315.502 235.453,315.389 
		236.734,314.004 237.662,313.195 240.102,313.195 243.357,313.195 245.913,313.195 246.495,314.463 247.654,315.043 
		248.818,314.926 250.33,313.773 251.841,313.424 253.467,313.424 255.326,313.424 256.489,314.115 257.305,314.115 
		258.001,312.854 258.465,311.232 259.629,310.084 259.977,309.048 260.789,308.471 260.672,306.742 259.629,305.934 
		258.117,305.934 256.723,305.82 256.141,305.359 256.257,303.629 256.257,302.245 249.748,302.245 249.168,299.711 
		248.936,297.171 247.891,295.445 246.379,294.176 246.264,292.68 245.913,289.451 245.682,286.916 244.169,285.415 
		242.193,285.186 234.991,285.072 233.244,283.916 232.086,283.225 230.688,282.877 229.525,282.65 226.271,282.419 
		222.553,282.188 221.275,282.188 218.721,282.188 216.743,282.301 214.535,282.301 213.373,282.301 211.396,283.225 
		209.422,284.838 207.445,286.684 206.75,288.297 204.425,290.836 203.609,292.447 	"/>
	<path fill="#68C2D1" d="M216.279,279.77l3.371,0.229l3.484,0.23h2.788l2.673,0.23l2.094,0.461l2.207,1.381l1.627,0.465h3.256h2.556
		h3.022l1.627,0.346l0.695,1.035l1.047,1.039l0.928,0.922l0.469,1.269v1.845v1.383l0.116,1.498l0.462,1.151l0.583,0.234l0.348,1.149
		l0.815,1.041l0.229,1.264l-0.113,1.847l0.113,1.036l2.442,0.113h3.253l1.046,0.23l0.583,1.154l0.116,1.615l0.348,0.69l1.627,0.111
		l1.63,0.579l0.346,0.576l1.164-0.344l1.162-1.849l2.438-1.382c0,0,1.163-0.918,1.395-1.268c0.235-0.345,3.606-2.305,3.606-2.305
		l2.209-1.961l1.276-1.038l2.322-0.921l1.631-0.579l1.277-0.229l1.512-1.496l5.926-0.117l0.93-1.611l2.673-1.615l1.396-0.572
		l2.324-0.233l1.51-0.344l-0.115-1.041l0.115-1.037l1.396-1.38v-2.077h-1.741l-1.746-1.151h-2.091l-1.975,0.807l-1.86,0.689
		l-1.627,0.811l-1.975,0.691c0,0,0,0.918-0.35,1.033c-0.35,0.118-3.371,0.118-3.371,0.118l-2.672,0.11l-1.279-0.573l-1.047-2.075
		l-0.461-1.497c0,0-0.582-1.498-0.699-1.843c-0.115-0.348-0.115-2.652-0.115-2.652l-0.117-2.42l0.117-1.615l0.348-1.613
		l-1.744-0.461c0,0-1.744,0-2.093-0.689c-0.346-0.697-1.396-2.077-1.396-2.422c0-0.348-0.58-1.73-0.58-2.305
		c0-0.58-0.115-1.848-0.115-2.654c0-0.805-0.116-1.268-0.116-1.612c0-0.349-0.813-2.306-0.813-2.306l-1.277-0.924l-1.743-0.229
		l-1.397,0.346l-3.021,0.576h-3.716l-1.512,0.115l-0.699,1.5l-0.465,1.152l-1.742-0.809l-2.092-0.81l-1.16-1.728
		c0,0-0.699-1.039-1.516-1.149c-0.812-0.118-1.744-0.118-2.901-0.118c-1.162,0-4.418,0-4.418,0l-2.206-0.691l-1.396-0.115
		l-1.395,0.69l-1.977,1.039l-1.396,1.845l-2.671,2.075l-2.094,2.535l-0.582,1.729l-1.51,2.189l-0.231,1.844l-1.048,1.614l-0.114,1.5
		l-1.047,1.729l-2.093,1.496l-2.207,1.963L216.279,279.77z"/>
	<path fill="#7BCAD7" d="M297.283,279.535l3.14-1.842l1.856-0.348l3.486-0.232l2.325-0.57h1.276h1.744l2.324-0.693l1.979-1.039
		l1.046-0.461l1.275-0.576l0.93-0.924l1.281-1.498l0.465-2.074l0.463-1.5l0.117-1.383l1.627-1.035l0.696,0.459l0.582,1.27
		c0,0,0.929,0.46,1.276,0.689c0.349,0.232,1.858,0.464,1.858,0.464h2.44h1.045l0.117,3.688l0.581,1.037l-0.116,1.039l-1.046,0.688
		l-1.858,1.039l-0.813,0.461l-1.627,0.461l-1.511,1.152l-0.812,1.5l-1.045,1.613l-0.583,0.921v1.271l-2.207,0.23
		c0,0-3.137,0-3.486,0c-0.351,0-2.788,0-2.788,0l-1.046-0.923v-1.153h-1.629l-1.161,0.117v1.842l-0.814,0.922
		c0,0-2.789-0.114-3.139-0.114c-0.347,0-1.625-0.458-1.625-0.458l-1.744-0.463l-0.929,1.035l-0.93,0.349l-0.584-1.039l0.7-1.614
		l-0.466-1.266l-1.164-0.463L297.283,279.535z"/>
	<path fill="#8ED1DD" d="M325.175,265.588l1.396,0.576l1.277,0.578l3.717-0.461l0.931-1.037l1.163-1.155l0.932-1.265l1.508-1.846
		l1.396-1.963l0.698-1.266l0.93-2.421l0.463-2.193l2.326-1.149c0,0,0.812-0.461,0.812-0.922c0-0.463,0.352-2.881,0.352-2.881
		l0.35-3.92v-2.994l-0.815-2.308l-1.511-0.924l-1.741-1.269l-1.397-0.346h-2.671l-1.163,0.461l-1.043,0.691l-1.049,0.807v1.383
		l0.118,1.269l0.229,1.729l0.701,1.5l-0.701,1.035l-0.114,0.921v1.729l-0.348,2.193l-0.698,2.647l-0.697,1.498l-1.161,1.386
		l-0.581,1.497l-0.581,1.038l-1.858,0.346l-1.396,0.692l-0.116,1.959l-0.116,1.959l-0.232,2.19L325.175,265.588z"/>
	<path fill="#A0D9E2" d="M234.902,252.677l0.089,1.038l3.047-0.085h2.964l3.139,0.171l4.187,0.09l2.091,1.037l0.962,1.035
		l0.869,1.037h1.655l0.521-0.693c0,0,0.436-0.6,1.047-0.6s2.182,0.083,2.791,0c0.61-0.09,1.307-0.523,1.656-0.523
		c0.346,0,2.699-0.256,2.699-0.256s1.919-0.348,2.181-0.348c0.261,0,2.353,0,2.353,0l1.481,0.52l0.873,0.863l0.871,1.037
		l0.524,1.814l0.524,1.901v1.901l0.433,1.646l0.262,0.862l0.697,1.127l1.045,1.208l1.223,0.695l1.045,0.255l1.307,0.606l0.438,1.211
		l-0.086,1.469l-0.176,1.384l-0.522,1.209v1.729l0.089,1.645l0.522,1.379l0.437,0.781l0.784,1.209l0.089,1.212l0.172,0.864h1.483
		l2.176-0.086l0.438-1.125l0.959-1.207l1.481-0.521l0.522,0.521c0,0,1.221,0.082,1.481-0.09c0.262-0.172,1.047-0.604,1.047-0.604
		l1.916-0.603l1.396-0.778l1.133-0.607l2.267-0.519l1.92-0.43l1.305-0.519l1.396-0.437l2.006-0.433l1.918-0.259l1.306-0.26
		l1.482-0.174h2.612l1.831-0.086l1.919-0.69c0,0,2.006-0.866,2.006-1.124c0-0.26,1.916-1.469,1.916-1.469l1.047-1.471l0.87-2.164
		l0.784-2.072l0.698-1.297l0.872-1.556l0.959-1.211l0.523-1.729l0.609-1.987l1.132-1.384l2.614-0.086l0.698-1.125l0.871-2.075
		l1.133-1.47c0,0,0.087-1.123,0.087-1.558c0-0.432,0.61-2.938,0.61-2.938l-0.351-1.47l-0.607-0.783l0.261-1.811l0.87-0.521
		l-0.087-1.555l-0.956-0.691c0,0,0.085-1.213,0.085-1.555c0-0.35,0.785-1.729,0.785-1.729l0.436-0.694c0,0,0.088-1.209,0.699-1.554
		c0.606-0.345,1.217-0.519,1.217-0.519l0.699-0.088l0.784,0.174h2.006h1.395l0.172-0.777l-1.917-1.729c0,0-1.13-1.644-1.217-1.904
		c-0.09-0.256,0.172-2.854,0.172-2.854l0.438-2.591l0.959-0.521h1.479l0.175-1.381l0.698-1.644l0.96-1.126l0.872-1.038l0.085-2.077
		l-2.177-1.035l-1.572-0.689l-1.83-0.691c0,0-1.13,0-1.395,0c-0.261,0-1.916,0-1.916,0h-1.221l-1.31,0.519h-1.131l-0.35-1.21
		l-0.351-1.729l-1.392-1.207l-0.873-1.125l-0.959-0.434c0,0-1.221-0.173-1.569-0.173c-0.348,0-1.917,0-1.917,0l-0.871-0.086
		l-1.568-0.606l-3.051-1.642l-2.006-1.557l-1.479-1.212c0,0-1.047-0.087-1.396-0.087c-0.347,0-1.653,0.176-1.653,0.176l-0.176,0.864
		l-1.222,0.088l-2.091-0.088l-1.48-1.56l-0.438-1.033l-0.435-0.953l-1.221-0.777l-1.568-0.261l-1.566,0.087l-3.139,2.161
		l-5.319,3.374l-4.791,2.332l-2.185,0.693l-1.393,0.602l-0.173-2.334c0,0-1.046-1.209-1.31-1.209c-0.26,0-1.654,0-1.654,0
		l-1.047,1.298l-1.481,0.519l-0.872,0.259l0.09,2.51l0.521,1.812l-0.085,1.99l-0.351,1.471l-1.568,0.863l-1.395-0.172l-1.481,0.689
		l-0.175,1.557l-0.176,2.596l0.875,1.209l0.172,1.469l0.174,1.558l-0.174,1.47l-1.309,0.952l-0.611,1.123l0.262,1.382l0.699,0.35
		l0.263,1.472l-0.351,1.987l0.262,1.642c0,0-0.522,0.519-0.699,1.036c-0.174,0.518-1.653,1.9-1.653,1.9l-2.004,0.777l-1.657,1.559
		l-0.96,1.039l-1.133-1.295c0,0-1.394-0.953-1.832-0.953c-0.433,0-1.742,0-1.742,0h-2.614l-2.354-0.086l-1.395,0.26l-0.961,1.123
		l-1.394,0.517l-2.003,0.175l-1.832,0.344l-2.354,0.345l-1.742,0.091c0,0-1.045,0.084-1.31,0.348
		c-0.263,0.256-1.309,0.604-1.567,1.469c-0.262,0.859-2.528,3.455-2.528,3.455s-1.654,2.076-1.919,2.51
		C234.902,251.294,234.902,252.677,234.902,252.677z"/>
	<path fill="#7BCAD7" d="M167.353,232.158l0.581,2.65c0,0,1.277,1.614,1.396,2.077c0.114,0.464,0.114,2.304,0.114,2.304
		l-1.626,1.846l-0.233,2.998c0,0,0.581,2.307,0.464,2.648c-0.114,0.35-1.857,2.653-1.857,2.653l-1.629,1.842l-0.231,1.732
		l1.395,1.729l-1.047,2.072c0,0-0.579,1.152-0.695,1.614c-0.116,0.461,0.579,1.495,0.579,2.075c0,0.576,0.932,2.537,0.932,2.885
		c0,0.342,0.581,1.84,0.581,1.84v3.113l0.347,4.266v2.537l3.488,0.346l0.812,0.23h4.416l4.998-0.116l3.255,0.688l2.207,0.692
		l1.277,1.271l1.046,2.074l0.465,2.767v2.534l0.814,0.69l0.931,1.5l0.231,2.076l0.464,2.767l0.815,1.037l2.788-0.228l1.395-0.812
		l1.627-0.807l2.094,0.116l0.929,1.036l1.277,0.229l0.931-1.148l0.233-2.652l2.091-1.614l0.352-1.612l1.275-1.613l1.514-1.729
		l4.646-2.422l1.745-1.728l2.903-2.652l4.647-3.573c0,0,0.002-1.499,0.115-1.845c0.119-0.344,1.278-1.729,1.278-1.729l0.232-2.074
		l1.629-2.537l2.438-3.344l1.856-2.418l1.86-1.502l0.815-0.574v-6.801l-2.676-0.807l-3.6-1.154c0,0-3.838-1.961-4.418-2.42
		c-0.58-0.464-2.207-1.152-2.672-1.5c-0.465-0.343-2.324-0.457-2.906-0.457s-1.859,0.229-2.439-0.236c-0.582-0.456,0-3.687,0-3.687
		s-2.095-0.577-2.326-1.036c-0.23-0.464,0.234-1.037-0.465-1.384c-0.697-0.347-2.438-0.347-3.252-0.347c-0.813,0-2.789,0-2.789,0
		l-0.698-2.188l0.93-1.041l0.58-1.382l0.467-1.729l-0.931,0.348l-0.581,0.46l-1.974,0.81h-2.21c0,0-2.207,0.113-2.556,0.113
		c-0.351,0-2.558,0.229-2.558,0.229s-1.975,0-2.674,0c-0.698,0-1.744,0.119-2.439-0.342c-0.696-0.465-2.093-0.922-2.44-1.041
		c-0.349-0.114-2.674-1.61-2.674-1.61s-0.928-0.461-1.394-0.461c-0.465,0-2.44,0.345-2.79,0.345c-0.348,0-2.905,0.923-2.905,0.923
		l-1.511,1.152l-1.511,1.151l-1.512,1.498l-1.162,0.116c0,0-1.742-0.229-2.207-0.345
		C169.559,233.427,167.353,232.158,167.353,232.158z"/>
	<path fill="#8ED1DD" d="M130.861,146.973l29.867,0.46l0.812-1.958l1.048-2.883l0.229-2.882v-2.419l0.467-1.846l0.466-1.499
		l0.812,0.116l0.466,0.575l0.23,1.383l1.048,1.959l0.93,3.113l0.582,4.842l1.394,1.384l7.788,6.338l3.137,0.462l12.667,0.462
		l27.66,1.152l20.104,1.383l-0.116,1.036l-0.813,2.65l-2.787,7.726c0,0-0.351-0.231-0.232,3.344
		c0.117,3.572,0.117,11.065,0.117,11.065l0.695,2.996c0,0,0.116,3.341-1.277,5.187c-1.396,1.846-2.092,5.304-2.092,5.304
		l-1.045,6.456l-1.164,1.844l-2.44,1.268l-1.976,1.846l-1.627,2.305l-0.697,2.074l-1.396,0.809l-2.44,1.613l-1.975,1.728
		l-2.326,3.806l-2.09,3l-1.742,2.305l-1.513,1.729l-0.233,1.61l-0.115,2.308l0.812,1.269l-0.113,0.807v1.961h-3.721l-0.35-1.27
		l0.35-2.307l-0.35-1.266l-0.93-1.849l-1.742-0.116l-1.859,1.271l-1.048,0.924c0,0-1.625,0-2.323,0
		c-0.697,0-2.326-0.692-2.326-0.692l-1.393,0.232l-4.299,0.23l-2.791-1.153c0,0-0.464-0.461-1.975-1.499
		c-1.512-1.039-2.674-0.923-3.14-0.923c-0.463,0-2.903-0.232-4.066,0.229c-1.163,0.459-0.58,0.576-1.742,0.576
		c-1.163,0-2.558,0.921-2.907,1.154c-0.346,0.23-1.51,2.072-1.51,2.072l-0.696,1.27l-2.094-0.115h-0.812l-1.047-1.035l-2.442-1.502
		l-1.974-0.457l-2.207-1.504l-0.816-1.149l-0.578-3.921v-1.498l0.929-0.691l0.347-1.496v-1.271l-17.896-0.115l-0.347-3.342
		l-0.697-3.345l-0.581-0.809l-1.047-0.803l-0.58-1.498h1.973l0.35-2.42l-0.465-3.46l-0.929-1.383l-0.929-6.111l-1.162-0.922
		l1.394-1.268l5.229-7.609l0.118-7.146l-1.048-1.383l-0.583-1.961l0.35-1.497c0,0,0.7-2.192,0.348-2.651
		c-0.348-0.464-0.697-1.038-1.044-1.385c-0.35-0.344-3.021-1.036-3.021-1.036s-2.79-1.039-3.139-1.039c-0.348,0-7.9,0.116-7.9,0.116
		l0.231-4.61l-1.048-1.962l0.579-2.419L130.861,146.973z"/>
	<path fill="#42B3C6" d="M269.836,215.436c0,0,0.15-3.771-0.255-4.535c-0.407-0.766-2.753-1.069-2.753-1.069l-5.451,0.203
		l-0.561,2.141l-0.969,1.273l0.407,1.987h2.599h2.002l2.178,0.306L269.836,215.436z"/>
	<path fill="#8ED1DD" d="M281.594,200.347l-1.045-1.385l-0.814-1.034l-0.231-6.111l0.812-0.462l-0.115-3.574l-1.393-0.116
		l-2.092,0.458l-2.441,0.696l-2.44,0.576l-1.745,1.034l-2.439,0.579v1.268l-2.558-0.116l-0.815-0.458l-1.627-0.925l-1.974-0.227
		l-2.44,0.227l-1.396-0.227l-0.466-1.499l-0.348-2.076l-3.486,0.115l-1.512,0.92l-0.465,3.113l-2.438-0.694l-1.978-1.843
		l-1.978-0.345l-1.974-1.497l-2.092-1.269l-0.697,1.15c0,0-0.467,2.194-0.93,2.426c-0.466,0.227-0.58,2.419-1.047,3.34
		c-0.463,0.92-0.463,2.424-0.463,2.424l-0.585,2.417l-1.278,2.421l-1.045,4.496l-0.699,1.959l-2.092,1.615l-1.508,0.688
		l-1.744,2.424l-0.931,2.535l-0.351,1.153l-2.207,0.92l-1.977,0.693l-3.367,3.92l-0.812,2.42l-1.747,1.498l-1.741,0.922
		l-1.512,3.348l0.35,3.224l0.348,1.615v1.844l0.466,2.07l1.743,1.041l0.234,1.269l1.047,1.152c0,0,1.159,0.458,2.205,0.811
		c1.047,0.344,1.625,1.148,1.973,1.267c0.353,0.112,1.979,1.384,2.326,1.384c0.351,0,2.672,1.381,3.254,1.381
		s1.977,0.811,1.977,0.811l2.439,1.266l2.209,1.614l2.093-2.423l1.278-1.383l1.74-2.072c0,0,1.629-1.614,1.979-1.614
		s1.975-0.347,1.975-0.347l3.721-0.578l2.789,0.23l1.396-1.151c0,0,1.741-0.574,2.092-0.574c0.349,0,1.856-0.347,1.856-0.347
		l3.023,0.111h2.672l2.209,0.463l1.277,0.693l0.35-0.922l1.279-1.383l1.743-0.924l1.392-1.039v-1.036v-2.072l-0.461-0.808
		l-1.049-0.463l-0.23-1.383l0.466-1.269l1.274-1.386l1.396-1.149l-0.116-1.036l-0.93-1.388l-0.696-0.806l-0.467-1.498l0.117-1.844
		l0.313-1.242l0.427-1.123l-1.843,0.05l-2.153,0.346l-5.849-0.664l-1.407-3.889l1.202-1.582l0.771-3.556l7.326,0.359l0.127,0.018
		c1.427,0.187,3.26,0.66,3.902,1.867c0.383,0.719,0.53,2.404,0.441,4.99l0.691-0.074l1.512-0.113l-0.229-1.383v-0.689l-0.468-1.268
		v-3.231v-1.496l1.396-0.231l2.09-0.457v-1.152l0.467-1.389l1.509-0.114l1.396,0.577l1.279,1.039l1.047,0.112l0.23-0.69v-3.803
		L281.594,200.347z"/>
</g>
<g>
	<g>
		<g>
			<path d="M363.356,120.251c0,0,0.026,0.125,0.057,0.369s0.065,0.61,0.104,1.093s0.078,1.082,0.106,1.794
				c-0.003,0.711-0.018,1.536-0.052,2.468c-0.089,1.862-0.366,4.151-0.936,6.782c-0.629,2.616-1.534,5.582-2.994,8.689
				c-2.949,6.185-7.175,13.25-13.448,20.023c-3.147,3.365-6.776,6.667-10.953,9.693c-4.195,2.988-8.899,5.768-14.17,7.965
				c-10.688,3.866-23.492,4.871-35.986,1.543c-12.455-3.271-24.417-10.933-32.605-21.912c-4.854-4.87-8.649-10.966-11.117-17.6
				c-2.519-6.632-3.543-13.827-3.402-20.909c0.24-7.089,1.635-14.124,4.206-20.627c2.532-6.516,6.062-12.544,10.315-17.881
				c1.834-2.901,4.002-5.59,6.422-8.005c2.435-2.399,5.111-4.527,7.941-6.365c2.826-1.847,5.819-3.386,8.895-4.612
				c3.074-1.227,6.203-2.216,9.359-2.876c3.156-0.66,6.307-1.103,9.426-1.295c3.119-0.161,6.191-0.19,9.205,0.02
				c3.013,0.214,5.972,0.511,8.854,1.021c2.889,0.473,5.718,1.053,8.488,1.745c5.472,1.605,10.453,4.08,14.849,6.951
				c4.381,2.907,8.138,6.275,11.294,9.771c6.31,7.05,10.051,14.584,12.429,20.958c1.239,3.187,2.021,6.16,2.602,8.769
				c0.518,2.624,0.815,4.889,0.959,6.736c0.058,0.924,0.107,1.742,0.15,2.449c0.005,0.708,0.009,1.304,0.011,1.785
				C363.359,119.753,363.356,120.251,363.356,120.251h-2.063c0,0-0.192-0.483-0.478-1.399c-0.146-0.458-0.309-1.023-0.489-1.688
				c-0.212-0.664-0.44-1.426-0.673-2.282c-0.485-1.695-1.077-3.764-1.769-6.175c-0.735-2.383-1.518-5.096-2.505-8.105
				c-1.892-6.024-5.44-13.07-11.388-19.551c-2.979-3.217-6.514-6.293-10.6-8.954c-4.103-2.625-8.717-4.899-13.771-6.427
				c-9.874-3.806-21.905-3.941-33.111-0.48c-2.815,0.835-5.569,1.946-8.276,3.194c-2.709,1.249-5.348,2.709-7.895,4.356
				c-2.553,1.638-5.029,3.443-7.426,5.406c-2.381,1.98-4.672,4.12-6.881,6.408c-4.49,4.527-7.982,10.188-10.245,16.335
				c-2.312,6.145-3.233,12.801-3.097,19.361c0.238,6.569,1.523,13.067,3.89,19.085c2.325,6.03,5.555,11.624,9.452,16.612
				c1.656,2.725,3.615,5.272,5.812,7.581c2.212,2.292,4.654,4.348,7.251,6.14c2.594,1.802,5.354,3.321,8.209,4.542
				c2.852,1.222,5.77,2.221,8.729,2.89c2.958,0.669,5.923,1.12,8.863,1.304c2.941,0.152,5.848,0.158,8.687-0.104
				c2.835-0.267,5.61-0.644,8.282-1.27c2.677-0.588,5.27-1.319,7.756-2.198c5.07-1.49,9.648-3.867,13.652-6.605
				c3.988-2.776,7.365-5.975,10.207-9.244c5.677-6.606,9.061-13.417,11.897-19.083c0.829-3.066,1.523-5.783,2.229-8.161
				c0.641-2.389,1.269-4.441,1.794-6.142c0.253-0.851,0.508-1.609,0.747-2.269c0.209-0.662,0.4-1.225,0.57-1.681
				c0.338-0.913,0.572-1.397,0.572-1.397S362.992,120.251,363.356,120.251z"/>
		</g>
	</g>
</g>
<g enable-background="new    ">
	<path d="M287.353,111.774c-0.019-0.164-0.048-0.417-0.089-0.759s-0.089-0.727-0.144-1.155s-0.112-0.88-0.171-1.354
		c-0.06-0.474-0.119-0.925-0.178-1.354c-0.06-0.429-0.111-0.813-0.157-1.155s-0.077-0.595-0.096-0.759
		c0-0.237-0.007-0.451-0.021-0.643s-0.06-0.308-0.137-0.349c-0.078-0.041-0.198,0.016-0.362,0.171s-0.395,0.46-0.69,0.916
		c-0.297,0.456-0.67,1.089-1.121,1.9s-1,1.851-1.647,3.117c-0.063,0.128-0.153,0.212-0.267,0.253
		c-0.114,0.041-0.237,0.022-0.369-0.055c-0.133-0.077-0.27-0.224-0.41-0.438c-0.142-0.214-0.267-0.513-0.376-0.896l-3.145-6.686
		c-0.073,0.137-0.142,0.355-0.205,0.656s-0.123,0.645-0.178,1.032s-0.104,0.802-0.15,1.244s-0.087,0.875-0.123,1.299
		s-0.068,0.825-0.096,1.203s-0.05,0.699-0.068,0.964c-0.046,0.292-0.066,0.576-0.062,0.854c0.004,0.278,0.014,0.538,0.027,0.779
		s0.021,0.463,0.021,0.663s-0.034,0.367-0.103,0.499s-0.183,0.23-0.342,0.294c-0.16,0.063-0.39,0.082-0.69,0.055
		c-0.191,0-0.337-0.048-0.438-0.144s-0.142-0.244-0.123-0.444c0.046-0.355,0.101-0.813,0.164-1.374s0.137-1.162,0.219-1.805
		s0.164-1.294,0.246-1.955s0.159-1.267,0.232-1.818s0.132-1.021,0.178-1.408s0.077-0.631,0.096-0.731
		c0.036-0.255,0.077-0.474,0.123-0.656s0.114-0.333,0.205-0.451s0.214-0.203,0.369-0.253s0.36-0.075,0.615-0.075
		c0.347,0.173,0.667,0.442,0.964,0.807c0.296,0.364,0.572,0.777,0.827,1.237s0.497,0.943,0.725,1.449s0.444,0.984,0.649,1.436
		s0.405,0.848,0.602,1.189c0.195,0.342,0.39,0.581,0.581,0.718l3.418-5.947c0.31-0.228,0.581-0.308,0.813-0.239
		s0.436,0.248,0.608,0.54s0.323,0.675,0.451,1.148s0.241,0.993,0.342,1.559s0.187,1.16,0.26,1.784s0.144,1.232,0.212,1.825
		s0.139,1.15,0.212,1.675s0.155,0.973,0.246,1.347c0.063,0.383,0.034,0.663-0.089,0.841s-0.275,0.267-0.458,0.267
		s-0.364-0.073-0.547-0.219S287.407,112.029,287.353,111.774z"/>
	<path d="M290.866,112.39c-0.036,0.046-0.112,0.063-0.226,0.055c-0.114-0.009-0.23-0.036-0.349-0.082s-0.222-0.098-0.308-0.157
		c-0.087-0.06-0.121-0.111-0.103-0.157c0.091-0.246,0.234-0.629,0.431-1.148c0.195-0.52,0.414-1.105,0.656-1.757
		c0.241-0.651,0.496-1.338,0.766-2.058c0.269-0.72,0.523-1.406,0.766-2.058c0.241-0.651,0.458-1.235,0.649-1.75
		s0.333-0.9,0.424-1.155c0.073-0.21,0.123-0.403,0.15-0.581s0.07-0.33,0.13-0.458c0.059-0.128,0.15-0.226,0.273-0.294
		s0.316-0.103,0.581-0.103c0.328,0.191,0.602,0.417,0.82,0.677s0.41,0.542,0.574,0.848s0.308,0.627,0.431,0.964
		s0.246,0.675,0.369,1.012s0.255,0.67,0.396,0.998c0.141,0.328,0.316,0.634,0.526,0.916c0.073,0.109,0.18,0.183,0.321,0.219
		c0.141,0.036,0.296,0.057,0.465,0.062c0.168,0.005,0.342,0,0.52-0.014s0.34-0.012,0.485,0.007s0.267,0.057,0.362,0.116
		s0.144,0.162,0.144,0.308c0.036,0.191,0.019,0.333-0.055,0.424s-0.176,0.152-0.308,0.185c-0.133,0.032-0.283,0.046-0.451,0.041
		c-0.169-0.005-0.324-0.012-0.465-0.021c-0.142-0.009-0.258-0.012-0.349-0.007s-0.128,0.034-0.109,0.089
		c0.109,0.337,0.229,0.711,0.362,1.121c0.132,0.41,0.28,0.82,0.444,1.23s0.342,0.807,0.533,1.189s0.401,0.711,0.629,0.984
		c-0.046,0.055-0.128,0.135-0.246,0.239s-0.239,0.205-0.362,0.301s-0.237,0.176-0.342,0.239c-0.105,0.063-0.166,0.082-0.185,0.055
		l-2.406-5.086l-4.662,1.148c-0.046,0.183-0.107,0.422-0.185,0.718c-0.078,0.296-0.169,0.61-0.273,0.943
		c-0.105,0.333-0.226,0.661-0.362,0.984S291.039,112.171,290.866,112.39z M294.558,102.669c-0.055,0.41-0.157,0.836-0.308,1.278
		s-0.319,0.88-0.506,1.312c-0.188,0.433-0.376,0.853-0.567,1.258s-0.36,0.777-0.506,1.114c0.328,0,0.656-0.034,0.984-0.103
		s0.647-0.155,0.957-0.26s0.61-0.217,0.902-0.335s0.569-0.228,0.834-0.328c-0.027-0.128-0.068-0.303-0.123-0.526
		s-0.121-0.465-0.198-0.725c-0.078-0.26-0.164-0.531-0.26-0.813s-0.205-0.547-0.328-0.793s-0.258-0.465-0.403-0.656
		S294.73,102.76,294.558,102.669z"/>
</g>
<g enable-background="new    ">
	<path d="M313.772,134.802c0.137,0,0.342,0.009,0.615,0.027s0.574,0.055,0.902,0.109s0.665,0.128,1.012,0.219s0.663,0.21,0.95,0.355
		s0.521,0.323,0.704,0.533s0.273,0.456,0.273,0.738c0,0.62-0.162,1.16-0.485,1.62c-0.324,0.46-0.745,0.859-1.265,1.196
		s-1.103,0.615-1.75,0.834s-1.297,0.392-1.948,0.52c-0.652,0.128-1.271,0.217-1.859,0.267s-1.082,0.075-1.483,0.075l-0.082,3.828
		c0,0.082-0.06,0.137-0.178,0.164s-0.258,0.041-0.417,0.041c-0.16,0-0.312-0.007-0.458-0.021s-0.246-0.016-0.301-0.007
		c0-0.656-0.003-1.308-0.007-1.955c-0.005-0.647-0.002-1.321,0.007-2.023c0.063-0.856,0.109-1.615,0.137-2.276
		s0.089-1.232,0.185-1.716s0.246-0.887,0.451-1.21s0.51-0.583,0.916-0.779c0.405-0.196,0.937-0.335,1.593-0.417
		S312.77,134.802,313.772,134.802z M309.712,137.577c-0.019,0.137-0.05,0.301-0.096,0.492s-0.089,0.39-0.13,0.595
		s-0.068,0.405-0.082,0.602s0.007,0.369,0.062,0.52s0.152,0.267,0.294,0.349c0.141,0.082,0.344,0.104,0.608,0.068
		c0.265,0,0.61-0.016,1.039-0.048s0.882-0.087,1.36-0.164s0.959-0.187,1.442-0.328s0.918-0.319,1.306-0.533
		c0.387-0.214,0.704-0.47,0.95-0.766s0.369-0.645,0.369-1.046c-0.063-0.292-0.212-0.54-0.444-0.745s-0.52-0.367-0.861-0.485
		s-0.718-0.198-1.128-0.239s-0.827-0.048-1.251-0.021s-0.836,0.087-1.237,0.178s-0.761,0.212-1.08,0.362s-0.579,0.328-0.779,0.533
		S309.739,137.331,309.712,137.577z"/>
	<path d="M319.159,145.028c-0.063-0.137-0.109-0.376-0.137-0.718s-0.048-0.743-0.062-1.203s-0.016-0.964-0.007-1.511
		s0.021-1.096,0.034-1.647s0.029-1.085,0.048-1.6s0.038-0.971,0.062-1.367c0.022-0.396,0.039-0.716,0.048-0.957
		s0.014-0.367,0.014-0.376c0.137-0.082,0.257-0.15,0.362-0.205c0.104-0.055,0.226-0.082,0.362-0.082
		c0.082,0,0.171,0.019,0.267,0.055s0.144,0.114,0.144,0.232v9.379c0,0.118-0.048,0.196-0.144,0.232s-0.185,0.055-0.267,0.055
		c-0.137,0-0.258-0.027-0.362-0.082C319.416,145.179,319.296,145.11,319.159,145.028z"/>
</g>
</svg>
