<?xml version="1.0" encoding="utf-8"?>
<!-- Generator: Adobe Illustrator 16.0.0, SVG Export Plug-In . SVG Version: 6.00 Build 0)  -->
<!DOCTYPE svg PUBLIC "-//W3C//DTD SVG 1.1//EN" "http://www.w3.org/Graphics/SVG/1.1/DTD/svg11.dtd">
<svg version="1.1" id="Layer_1" xmlns="http://www.w3.org/2000/svg" xmlns:xlink="http://www.w3.org/1999/xlink" x="0px" y="0px"
	 width="400px" height="200px" viewBox="0 0 400 200" enable-background="new 0 0 400 200" xml:space="preserve">
<g enable-background="new    ">
	<path fill="#909090" d="M179.017,172.651c0.383-0.337,0.811-0.764,1.285-1.278c0.474-0.515,0.934-1.062,1.381-1.641
		c0.446-0.579,0.848-1.162,1.203-1.75s0.604-1.133,0.745-1.634c0.141-0.501,0.148-0.928,0.021-1.278
		c-0.128-0.351-0.451-0.581-0.971-0.69c-0.328,0-0.618,0.048-0.868,0.144c-0.251,0.096-0.479,0.217-0.684,0.362
		s-0.396,0.306-0.574,0.479s-0.362,0.333-0.554,0.479s-0.396,0.267-0.615,0.362s-0.47,0.144-0.752,0.144
		c0.009-0.374,0.162-0.738,0.458-1.094c0.296-0.355,0.661-0.67,1.094-0.943c0.433-0.273,0.904-0.485,1.415-0.636
		c0.51-0.15,0.991-0.203,1.442-0.157s0.836,0.205,1.155,0.479c0.319,0.273,0.506,0.697,0.561,1.271c0,0.629-0.107,1.253-0.321,1.873
		c-0.214,0.62-0.488,1.222-0.82,1.805c-0.333,0.583-0.707,1.14-1.121,1.668c-0.415,0.528-0.818,1.021-1.21,1.477
		c0.528,0.046,1.06-0.005,1.593-0.15s1.06-0.314,1.579-0.506s1.037-0.371,1.552-0.54c0.515-0.169,1.027-0.253,1.538-0.253
		c0.137,0,0.267,0.032,0.39,0.096s0.185,0.183,0.185,0.355s-0.06,0.319-0.178,0.438c-0.119,0.118-0.269,0.214-0.451,0.287
		c-0.183,0.073-0.381,0.125-0.595,0.157c-0.214,0.032-0.417,0.057-0.608,0.075s-0.358,0.027-0.499,0.027
		c-0.142,0-0.226,0.005-0.253,0.014c-0.101,0.019-0.28,0.066-0.54,0.144s-0.565,0.166-0.916,0.267
		c-0.351,0.101-0.729,0.203-1.135,0.308c-0.406,0.104-0.812,0.198-1.217,0.28c-0.406,0.082-0.791,0.146-1.155,0.191
		c-0.365,0.046-0.675,0.06-0.93,0.041c-0.255-0.019-0.444-0.08-0.567-0.185S178.935,172.87,179.017,172.651z"/>
	<path fill="#909090" d="M189.038,170.245c0.027-0.465,0.103-0.969,0.226-1.511s0.289-1.082,0.499-1.62
		c0.209-0.538,0.462-1.055,0.759-1.552c0.296-0.497,0.64-0.937,1.032-1.319c0.392-0.383,0.829-0.688,1.312-0.916
		c0.483-0.228,1.016-0.342,1.6-0.342c0.766,0,1.426,0.148,1.982,0.444c0.556,0.296,1.016,0.686,1.381,1.169
		c0.364,0.483,0.633,1.037,0.807,1.661c0.173,0.624,0.26,1.27,0.26,1.935c0,0.866-0.144,1.629-0.431,2.29s-0.69,1.217-1.21,1.668
		s-1.137,0.793-1.853,1.025c-0.716,0.232-1.502,0.349-2.358,0.349c-0.419,0-0.871-0.063-1.354-0.191
		c-0.483-0.128-0.928-0.323-1.333-0.588c-0.406-0.265-0.736-0.604-0.991-1.019C189.111,171.313,189.001,170.819,189.038,170.245z
		 M190.036,170.368c0,0.483,0.096,0.875,0.287,1.176s0.444,0.535,0.759,0.704s0.665,0.282,1.053,0.342
		c0.387,0.06,0.781,0.089,1.183,0.089c1.567,0,2.748-0.405,3.541-1.217s1.189-1.96,1.189-3.445c0.027-1.386-0.306-2.445-0.998-3.179
		c-0.693-0.733-1.695-1.064-3.008-0.991c-0.374-0.063-0.731,0.021-1.073,0.253s-0.661,0.549-0.957,0.95
		c-0.296,0.401-0.565,0.859-0.807,1.374c-0.242,0.515-0.449,1.023-0.622,1.524c-0.173,0.501-0.308,0.969-0.403,1.401
		S190.036,170.122,190.036,170.368z"/>
	<path fill="#909090" d="M200.085,170.245c0.027-0.465,0.103-0.969,0.226-1.511s0.289-1.082,0.499-1.62s0.462-1.055,0.759-1.552
		c0.296-0.497,0.641-0.937,1.032-1.319s0.829-0.688,1.312-0.916s1.017-0.342,1.6-0.342c0.766,0,1.427,0.148,1.982,0.444
		s1.017,0.686,1.381,1.169s0.634,1.037,0.807,1.661s0.26,1.27,0.26,1.935c0,0.866-0.144,1.629-0.431,2.29s-0.69,1.217-1.21,1.668
		s-1.138,0.793-1.853,1.025c-0.716,0.232-1.502,0.349-2.358,0.349c-0.419,0-0.87-0.063-1.354-0.191s-0.928-0.323-1.333-0.588
		c-0.406-0.265-0.736-0.604-0.991-1.019C200.158,171.313,200.048,170.819,200.085,170.245z M201.083,170.368
		c0,0.483,0.096,0.875,0.287,1.176s0.444,0.535,0.759,0.704s0.665,0.282,1.053,0.342c0.387,0.06,0.781,0.089,1.183,0.089
		c1.567,0,2.748-0.405,3.541-1.217s1.189-1.96,1.189-3.445c0.027-1.386-0.306-2.445-0.998-3.179s-1.695-1.064-3.008-0.991
		c-0.374-0.063-0.731,0.021-1.073,0.253s-0.661,0.549-0.957,0.95c-0.297,0.401-0.565,0.859-0.807,1.374
		c-0.242,0.515-0.449,1.023-0.622,1.524s-0.308,0.969-0.403,1.401S201.083,170.122,201.083,170.368z"/>
	<path fill="#909090" d="M212.608,172.952c0-0.237,0.089-0.456,0.267-0.656s0.385-0.301,0.622-0.301v0.301
		c0.273,0,0.583-0.005,0.93-0.014s0.699-0.039,1.06-0.089c0.359-0.05,0.711-0.125,1.053-0.226s0.645-0.241,0.909-0.424
		s0.479-0.412,0.643-0.69s0.246-0.622,0.246-1.032c0-0.392-0.103-0.704-0.308-0.937s-0.458-0.405-0.759-0.52
		s-0.627-0.187-0.978-0.219c-0.352-0.032-0.677-0.048-0.978-0.048c-0.319,0-0.624,0.046-0.916,0.137s-0.581,0.191-0.868,0.301
		s-0.574,0.21-0.861,0.301s-0.581,0.137-0.882,0.137c-0.082,0-0.171,0-0.267,0s-0.188-0.012-0.273-0.034
		c-0.087-0.022-0.16-0.062-0.219-0.116c-0.06-0.055-0.089-0.142-0.089-0.26c0-0.019,0.002-0.05,0.007-0.096
		c0.004-0.046,0.007-0.073,0.007-0.082c0.019-0.128,0.041-0.323,0.068-0.588s0.06-0.565,0.096-0.902s0.075-0.69,0.116-1.06
		s0.082-0.723,0.123-1.06s0.075-0.641,0.103-0.909s0.05-0.467,0.068-0.595c0.046-0.146,0.118-0.23,0.219-0.253
		s0.214-0.034,0.342-0.034c0.219,0,0.364,0.041,0.438,0.123s0.111,0.189,0.116,0.321c0.004,0.132-0.01,0.278-0.041,0.438
		c-0.032,0.159-0.048,0.312-0.048,0.458c0.802,0,1.6-0.084,2.393-0.253s1.581-0.355,2.365-0.561s1.567-0.395,2.352-0.567
		s1.577-0.26,2.379-0.26c0.118,0,0.228,0.014,0.328,0.041s0.173,0.118,0.219,0.273c-0.036,0.137-0.114,0.253-0.232,0.349
		s-0.31,0.187-0.574,0.273s-0.624,0.18-1.08,0.28s-1.044,0.226-1.764,0.376s-1.595,0.335-2.625,0.554s-2.247,0.487-3.65,0.807v2.188
		c0.374-0.036,0.793-0.091,1.258-0.164s0.94-0.132,1.429-0.178c0.487-0.046,0.966-0.06,1.436-0.041
		c0.469,0.019,0.896,0.103,1.278,0.253s0.699,0.381,0.95,0.69c0.25,0.31,0.403,0.733,0.458,1.271c0,0.483-0.091,0.911-0.273,1.285
		s-0.427,0.704-0.731,0.991c-0.306,0.287-0.661,0.528-1.066,0.725c-0.406,0.196-0.83,0.357-1.271,0.485
		c-0.442,0.128-0.889,0.219-1.34,0.273s-0.882,0.082-1.292,0.082c-0.319,0-0.547-0.032-0.684-0.096S212.608,173.189,212.608,172.952
		z"/>
</g>
<line fill="none" stroke="#C8C8B4" stroke-width="3" stroke-miterlimit="10" x1="199.663" y1="58.874" x2="290.936" y2="87"/>
<line fill="none" stroke="#42B3C6" stroke-width="3" stroke-miterlimit="10" x1="199.663" y1="130.391" x2="290.629" y2="102.357"/>
<line fill="none" stroke="#C0C0C0" stroke-miterlimit="10" x1="199.663" y1="10" x2="199.663" y2="153.412"/>
<circle fill="#FFFFFF" stroke="#C8C8B4" stroke-width="3" stroke-miterlimit="10" cx="199.663" cy="58.874" r="12.406"/>
<circle fill="#FFFFFF" stroke="#42B3C6" stroke-width="3" stroke-miterlimit="10" cx="199.663" cy="130.39" r="12.406"/>
<g>
	<g>
		<g>
			<path fill="#ED6756" d="M292.693,100.018c0,0,0.025,0.184,0.053,0.546c0.02,0.365,0.05,0.906,0.09,1.617
				c0.03,0.715,0.066,1.602,0.083,2.654c-0.028,1.051-0.073,2.27-0.142,3.646c-0.166,2.75-0.592,6.127-1.402,10.021
				c-0.9,3.872-2.164,8.271-4.186,12.927c-4.078,9.269-10.192,19.922-19.531,30.041c-4.684,5.025-10.122,9.93-16.391,14.359
				c-6.297,4.377-13.365,8.383-21.242,11.441c-15.873,5.625-34.812,7.029-53.283,2.102c-18.413-4.85-36.115-16.111-48.369-32.287
				c-6.909-7.443-12.326-16.496-15.898-26.285c-3.643-9.783-5.193-20.345-5.077-30.784c0.265-10.446,2.184-20.848,5.881-30.502
				c3.637-9.671,8.787-18.656,15.095-26.566c2.856-4.191,6.143-8.082,9.762-11.596c3.642-3.49,7.604-6.604,11.777-9.319
				c2.074-1.38,4.245-2.583,6.404-3.775c1.106-0.545,2.211-1.088,3.313-1.631c1.096-0.553,2.245-0.987,3.362-1.479
				c4.515-1.858,9.114-3.387,13.766-4.434c4.649-1.046,9.301-1.779,13.918-2.131c4.618-0.304,9.18-0.406,13.66-0.126
				c4.475,0.286,8.876,0.718,13.152,1.505l1.607,0.261l1.586,0.331c1.055,0.224,2.114,0.414,3.159,0.648
				c2.075,0.522,4.162,0.958,6.187,1.56c8.078,2.467,15.424,6.168,21.92,10.427c6.474,4.313,12.039,9.282,16.732,14.439
				c9.372,10.395,15.006,21.52,18.51,30.976c1.803,4.735,2.94,9.142,3.793,13.007c0.76,3.887,1.207,7.24,1.428,9.975
				c0.091,1.369,0.172,2.58,0.24,3.626c0.014,1.048,0.023,1.931,0.033,2.644C292.689,99.28,292.693,100.018,292.693,100.018h-2.064
				c0,0-0.197-0.724-0.495-2.102c-0.149-0.689-0.319-1.542-0.512-2.547c-0.237-1.003-0.496-2.159-0.763-3.459
				c-0.562-2.599-1.319-5.756-2.234-9.414c-1.01-3.639-2.148-7.786-3.695-12.343c-3.021-9.106-8.461-19.742-17.473-29.568
				c-4.512-4.878-9.857-9.555-16.035-13.622c-6.203-4.013-13.182-7.513-20.843-9.903c-15.06-5.565-33.227-6.1-50.408-1.038
				c-17.216,5.042-33.403,15.381-46.242,29.74c-6.544,7.1-11.658,15.718-15.025,25.019c-3.437,9.296-4.882,19.319-4.77,29.237
				c0.263,9.925,2.072,19.791,5.562,28.96c3.431,9.184,8.281,17.734,14.232,25.295c2.679,4.016,5.756,7.766,9.152,11.172
				c3.42,3.384,7.146,6.427,11.085,9.096c1.957,1.355,4.011,2.543,6.056,3.725c1.05,0.541,2.097,1.08,3.142,1.618
				c1.039,0.55,2.132,0.981,3.194,1.474c4.293,1.853,8.682,3.392,13.136,4.447c4.451,1.055,8.918,1.795,13.358,2.139
				c4.44,0.297,8.834,0.375,13.139,0.041c4.297-0.338,8.516-0.852,12.582-1.754l1.525-0.307l1.503-0.378
				c0.999-0.257,2-0.483,2.984-0.756c1.954-0.597,3.909-1.117,5.792-1.812c7.677-2.354,14.621-5.955,20.724-10.082
				c6.082-4.183,11.269-8.981,15.646-13.912c4.369-4.947,7.873-10.076,10.785-15.006c2.908-4.938,5.203-9.701,7.196-14.095
				c1.39-4.612,2.442-8.765,3.419-12.397c0.885-3.672,1.644-6.813,2.262-9.381c0.287-1.295,0.572-2.446,0.836-3.446
				c0.221-1.002,0.418-1.853,0.596-2.54c0.35-1.376,0.589-2.1,0.589-2.1S292.329,100.018,292.693,100.018z"/>
		</g>
	</g>
</g>
</svg>
