<?xml version="1.0" encoding="utf-8"?>
<!-- Generator: Adobe Illustrator 16.0.0, SVG Export Plug-In . SVG Version: 6.00 Build 0)  -->
<!DOCTYPE svg PUBLIC "-//W3C//DTD SVG 1.1//EN" "http://www.w3.org/Graphics/SVG/1.1/DTD/svg11.dtd">
<svg version="1.1" id="Layer_1" xmlns="http://www.w3.org/2000/svg" xmlns:xlink="http://www.w3.org/1999/xlink" x="0px" y="0px"
	 width="400px" height="200px" viewBox="0 0 400 200" enable-background="new 0 0 400 200" xml:space="preserve">
<g>
	<g>
		<g>
			<path fill="#ED6756" d="M27.61,37.22c0,0,0.048,0.162,0.098,0.474s0.107,0.775,0.145,1.377c0.075,1.203,0.068,2.962-0.243,5.183
				c-0.645,4.443-0.856,10.736,0,18.141c0.224,7.404,0.31,15.92,0,24.805c1.51,8.886-0.003,18.142,0,27.026
				c1.452,8.885-0.992,17.4,0,24.806c0.39,7.405-0.045,13.698,0,18.142c0.154,4.442,0,7.034,0,7.034h-1.032
				c0,0-1.434-2.592-1.234-7.034c0.29-4.443,0.272-10.736,0-18.142c0.422-7.404-1.239-15.921,0-24.806
				c1.365-8.886-0.128-18.142,0-27.026c1.573-8.885,0.078-17.401,0-24.805c0.352-7.405-0.714-13.698,0-18.141
				c-0.535-4.443,1.234-7.034,1.234-7.034S27.428,37.22,27.61,37.22z"/>
		</g>
		<g>
			<path fill="#ED6756" d="M33.778,47.471c-0.349,0.223-0.813,0.12-1.036-0.229l-6.164-9.679l-6.164,9.679
				c-0.223,0.349-0.687,0.452-1.036,0.229c-0.349-0.223-0.45-0.689-0.23-1.035l6.797-10.672c0.138-0.216,0.376-0.347,0.633-0.347
				c0.257,0,0.495,0.131,0.633,0.347l6.797,10.672c0.079,0.124,0.117,0.264,0.117,0.402C34.125,47.085,34.002,47.327,33.778,47.471z
				"/>
		</g>
	</g>
</g>
<g>
	<g>
		<g>
			<path fill="#ED6756" d="M372.783,162.839c0,0-0.39,0.052-1.139,0.106c-0.75,0.056-1.859,0.121-3.304,0.171
				c-2.888,0.098-7.106,0.124-12.44-0.146c-10.668-0.561-25.774-0.654-43.539,0.344c-17.771,0.363-38.207,0.61-59.533,0.47
				c-21.314,1.678-43.54,0.34-64.865,0.511c-21.313,1.62-41.77-0.663-59.533,0.469c-17.768,0.53-32.877,0.215-43.539,0.344
				c-10.661,0.238-16.882,0.134-16.882,0.134L68,164.208c0,0,6.208-1.481,16.873-1.367c10.665,0.206,25.77,0.068,43.539-0.344
				c17.775,0.282,38.198-1.54,59.534-0.47c21.336,1.197,43.539-0.471,64.865-0.51c21.338,1.403,41.764-0.252,59.532-0.471
				c17.774,0.212,32.871-0.973,43.54-0.343c10.658-0.619,16.893,1.103,16.893,1.103S372.781,162.656,372.783,162.839z"/>
		</g>
		<g>
			<path fill="#ED6756" d="M362.58,169.087c-0.227-0.348-0.126-0.812,0.222-1.038l9.631-6.24l-9.728-6.086
				c-0.353-0.222-0.458-0.685-0.238-1.035c0.22-0.35,0.687-0.455,1.034-0.237l10.725,6.713c0.219,0.136,0.352,0.374,0.354,0.63
				s-0.127,0.496-0.342,0.637l-10.618,6.881c-0.124,0.08-0.265,0.119-0.401,0.119C362.969,169.432,362.726,169.311,362.58,169.087z"
				/>
		</g>
	</g>
</g>
<g>
	<rect x="46.578" y="40.265" fill="#42B3C6" width="280.54" height="6.905"/>
	<g>
		<g>
			<path fill="#42B3C6" d="M325.054,47.169c0,0-0.082-0.6-0.169-1.762c-0.02-0.291-0.042-0.617-0.066-0.977
				c-0.023-0.331-0.047-0.883-0.07-0.889c-0.038-0.223-0.082-0.481-0.132-0.773c-0.188,0.02-0.388,0.042-0.601,0.064
				c-0.096,0.008-0.192,0.016-0.294,0.025c-0.399,0.006-0.812,0.013-1.234,0.019c-1.731,0.021-3.646,0.024-5.736,0
				c-4.181-0.049-9.062-0.207-14.571-0.547c-20.113-1.289-48.605-1.713-82.127,0c-33.521,0.448-72.072,0.62-112.297,0
				c-10.057,0.755-20.218,1.132-30.432,1.273c-5.107,0.071-10.227,0.082-15.353,0.053l-7.693-0.074l-3.849-0.056l-0.445-0.008
				l-0.023-0.008l-0.052-0.016l-0.134-0.034c-0.042,0.053-0.09,0.415-0.14,0.654c0.097,0.025,0.199,0.05,0.362,0.077l3.416,0.08
				l6.826,0.167c4.547,0.107,9.088,0.215,13.616,0.322c9.058,0.198,18.069,0.346,26.998,0.345c40.225-2.904,78.775,1.984,112.295,0
				c33.521-0.78,62.015,0.09,82.127,0c20.112-0.309,31.846,0,31.846,0v2.064c0,0-11.732,2.868-31.846,2.469
				c-20.112-0.581-48.604-0.544-82.127,0c-33.521-0.843-72.07,2.479-112.295,0c-8.929-0.606-17.94-0.931-26.998-1.071
				c-4.529-0.071-9.069-0.095-13.616-0.086c-5.022,0.039-10.053,0.078-15.086,0.117l-0.112-9.874l5.39-0.073l3.849-0.079
				l7.693-0.168c5.126-0.111,10.246-0.221,15.353-0.332c10.213-0.202,20.375-0.34,30.432-0.276c40.225,3.146,78.776,0.156,112.297,0
				c33.521,0.704,62.014-1.427,82.127,0c5.541-0.295,10.447-0.24,14.633-0.005c2.093,0.117,4.005,0.279,5.727,0.465
				c0.445,0.049,0.878,0.097,1.299,0.143c0.609,0.052,1.201,0.102,1.774,0.15c1.11,0.102,2.077,0.207,2.909,0.313
				c-0.173,1.775-0.347,3.184-0.511,4.289c-0.082,0.594-0.161,0.917-0.235,1.293c-0.078,0.359-0.149,0.685-0.214,0.975
				c-0.265,1.159-0.442,1.75-0.442,1.75S325.418,47.169,325.054,47.169z"/>
		</g>
	</g>
</g>
<g>
	<rect x="46.578" y="67.445" fill="#42B3C6" width="236.244" height="6.904"/>
	<g>
		<g>
			<path fill="#42B3C6" d="M280.758,74.35c0,0-0.029-0.151-0.064-0.447c-0.027-0.297-0.07-0.739-0.127-1.32
				c-0.022-0.292-0.049-0.618-0.075-0.978c-0.025-0.334-0.052-0.88-0.076-0.88c-0.051-0.245-0.099-0.49-0.136-0.735
				c-0.152,0.016-0.314,0.032-0.485,0.05c-0.078,0.006-0.157,0.012-0.239,0.018l-0.119,0.007c-0.154,0.001-0.312,0.003-0.471,0.005
				c-1.42,0.012-2.972,0.006-4.648-0.024c-3.354-0.061-7.213-0.219-11.525-0.535c-17.014-1.289-41.115-1.713-69.471,0
				c-28.355,0.448-60.964,0.62-94.991,0c-8.507,0.755-17.102,1.132-25.742,1.273c-4.32,0.071-8.651,0.082-12.987,0.053l-6.508-0.074
				l-3.112-0.056c-0.047-0.021-0.113-0.042-0.204-0.066c-0.05,0.045-0.107,0.413-0.168,0.682c0.08,0.025,0.18,0.05,0.301,0.076
				l0.046,0.01c0.022,0.003-0.007,0.006,0.155,0.01l0.706,0.02l1.411,0.04l5.64,0.163c3.757,0.104,7.509,0.209,11.25,0.313
				c7.483,0.191,14.929,0.333,22.308,0.332c34.026-2.904,66.635,1.984,94.991,0c28.355-0.78,52.457,0.09,69.471,0
				c17.014-0.309,26.938,0,26.938,0v2.064c0,0-9.925,2.868-26.938,2.469c-17.014-0.581-41.115-0.544-69.471,0
				c-28.356-0.843-60.965,2.479-94.991,0c-7.379-0.592-14.825-0.916-22.308-1.062c-3.742-0.073-7.493-0.102-11.25-0.097
				c-4.227,0.034-8.46,0.067-12.697,0.101l-0.13-9.855l4.726-0.073l3.326-0.079l6.508-0.168c4.336-0.111,8.667-0.221,12.987-0.332
				c8.64-0.202,17.235-0.34,25.742-0.276c34.027,3.146,66.636,0.156,94.991,0c28.356,0.704,52.458-1.427,69.471,0
				c4.316-0.271,8.179-0.246,11.534-0.057c1.677,0.094,3.229,0.23,4.647,0.39c0.192,0.021,0.385,0.041,0.573,0.061
				c0.274,0.021,0.546,0.042,0.813,0.063c0.518,0.045,1.021,0.089,1.513,0.131c0.955,0.09,1.805,0.184,2.553,0.28
				c-0.187,1.84-0.379,3.305-0.563,4.446c-0.094,0.619-0.184,0.94-0.271,1.316c-0.091,0.359-0.173,0.686-0.245,0.978
				c-0.309,1.164-0.521,1.766-0.521,1.766S281.122,74.35,280.758,74.35z"/>
		</g>
	</g>
</g>
<g>
	<rect x="46.578" y="100.584" fill="#42B3C6" width="184.566" height="6.905"/>
	<g>
		<g>
			<path fill="#42B3C6" d="M229.08,107.489c0,0-0.036-0.151-0.078-0.449s-0.098-0.741-0.152-1.324
				c-0.026-0.292-0.056-0.618-0.088-0.979c-0.027-0.338-0.057-0.877-0.082-0.866c-0.054-0.229-0.101-0.454-0.13-0.69
				c-0.233,0.023-0.457,0.037-0.694,0.034c-0.922-0.019-1.912-0.037-2.969-0.058c-2.395-0.075-5.086-0.231-8.05-0.508
				c-13.397-1.287-32.377-1.713-54.706,0c-22.329,0.449-48.008,0.621-74.802,0c-6.699,0.756-13.468,1.134-20.271,1.274
				c-3.402,0.07-6.812,0.082-10.227,0.052c-3.069-0.029-8.238-0.101-7.057-0.195c-0.064,0.033-0.138,0.412-0.218,0.732
				c0.064,0.024,0.145,0.051,0.24,0.075l0.155,0.038c0.035,0.004-0.02,0.007,0.09,0.01l0.266,0.01l0.533,0.021l4.256,0.155
				c2.835,0.101,5.667,0.199,8.49,0.297c5.647,0.18,11.267,0.31,16.837,0.309c26.795-2.904,52.473,1.984,74.802,0
				c22.329-0.779,41.309,0.09,54.707,0c13.396-0.31,21.213,0,21.213,0v2.063c0,0-7.815,2.868-21.213,2.47
				c-13.397-0.581-32.376-0.544-54.707,0c-22.33-0.843-48.007,2.479-74.802,0c-5.571-0.566-11.19-0.889-16.837-1.042
				c-2.824-0.077-5.655-0.112-8.49-0.116c-3.296,0.024-6.597,0.049-9.901,0.073l-0.157-9.829c5.614-0.093,8.226-0.206,11.793-0.32
				c3.415-0.111,6.826-0.221,10.227-0.332c6.803-0.202,13.572-0.34,20.271-0.276c26.794,3.146,52.474,0.156,74.802,0
				c22.329,0.704,41.309-1.427,54.706,0c2.983-0.238,5.69-0.248,8.087-0.119c0.6,0.032,1.18,0.073,1.738,0.122
				c0.586,0.048,0.96,0.104,1.984,0.165c1.721,0.123,3.184,0.269,4.373,0.427c-0.197,1.942-0.412,3.498-0.625,4.696
				c-0.106,0.656-0.213,0.963-0.314,1.342c-0.107,0.359-0.206,0.686-0.294,0.979c-0.37,1.164-0.642,1.765-0.642,1.765
				S229.443,107.489,229.08,107.489z"/>
		</g>
	</g>
</g>
<g>
	<rect x="46.578" y="136.096" fill="#42B3C6" width="107.002" height="6.904"/>
	<g>
		<g>
			<path fill="#42B3C6" d="M151.516,143c-0.009,0-0.057-0.154-0.12-0.455s-0.144-0.748-0.218-1.334
				c-0.031-0.294-0.066-0.622-0.104-0.982c-0.014-0.181-0.029-0.369-0.044-0.566l-0.01-0.148c-0.003-0.029-0.006-0.029-0.009-0.047
				l-0.017-0.074c-0.042-0.203-0.057-0.396-0.023-0.687c-0.167-0.024-0.336-0.077-0.585-0.165l-0.205-0.073
				c-0.242-0.028-0.489-0.058-0.739-0.087c-0.508-0.07-1.033-0.145-1.575-0.221c-7.97-1.288-19.261-1.715-32.545,0
				c-13.283,0.447-28.56,0.619-44.5,0c-3.985,0.755-8.012,1.133-12.06,1.273c-2.023,0.069-4.052,0.082-6.084,0.053l-1.524-0.03
				l-0.762-0.021l-0.381-0.012c-0.054-0.004-0.02-0.008-0.035-0.012c-0.03-0.033-0.091-0.075-0.201-0.122
				c-0.107-0.013-0.245,0.399-0.386,0.901c0.083,0.045,0.194,0.09,0.334,0.135l0.231,0.066l0.035,0.008l0.136,0.01l0.272,0.016
				l0.545,0.033c1.452,0.08,2.902,0.16,4.348,0.239c2.892,0.142,5.77,0.237,8.627,0.237c15.94-2.904,31.217,1.983,44.5,0
				c13.284-0.78,24.574,0.09,32.544,0c7.97-0.31,12.62,0,12.62,0V143c0,0-4.649,2.867-12.62,2.469c-7.97-0.58-19.261-0.544-32.544,0
				c-13.284-0.844-28.56,2.479-44.5,0c-2.857-0.488-5.735-0.795-8.627-0.969c-1.446-0.087-2.896-0.141-4.348-0.168l-2.65-0.021
				l-3.036,0.014c-0.031-3.182-0.111-6.295-0.217-9.77l4.415-0.152l3.225-0.168c2.032-0.11,4.061-0.221,6.084-0.332
				c4.047-0.2,8.074-0.34,12.06-0.275c15.94,3.146,31.217,0.155,44.5,0c13.284,0.704,24.575-1.427,32.545,0
				c0.542-0.072,1.069-0.124,1.579-0.156c0.262-0.013,0.519-0.023,0.772-0.035c0.441-0.004,0.874-0.006,1.3-0.01
				c1.704,0.006,3.257,0.073,4.546,0.188c-0.152,2.075-0.383,3.843-0.645,5.19c-0.13,0.76-0.269,1.053-0.408,1.428
				c-0.14,0.361-0.281,0.688-0.417,0.981c-0.545,1.171-1.014,1.787-1.014,1.787S151.88,143,151.516,143z"/>
		</g>
	</g>
</g>
<g enable-background="new    ">
	<path fill="#ED6756" d="M25.748,21.721c-0.019-0.246-0.041-0.526-0.068-0.841s-0.062-0.641-0.103-0.978s-0.096-0.67-0.164-0.998
		s-0.148-0.624-0.239-0.889c-0.237,0-0.472,0.029-0.704,0.089s-0.465,0.123-0.697,0.191s-0.47,0.135-0.711,0.198
		c-0.242,0.063-0.49,0.101-0.745,0.109c-0.137,0-0.265-0.032-0.383-0.096c-0.119-0.063-0.178-0.183-0.178-0.355
		c0-0.137,0.084-0.239,0.253-0.308c0.168-0.068,0.38-0.121,0.636-0.157c0.255-0.036,0.528-0.063,0.82-0.082
		c0.292-0.019,0.565-0.041,0.82-0.068c0.255-0.027,0.467-0.068,0.636-0.123c0.168-0.055,0.253-0.137,0.253-0.246v-2.83
		c0-0.082,0.022-0.144,0.068-0.185c0.045-0.041,0.1-0.073,0.164-0.096c0.063-0.022,0.13-0.036,0.198-0.041s0.121-0.007,0.157-0.007
		c0.2,0,0.33,0.034,0.39,0.103c0.059,0.068,0.111,0.234,0.157,0.499c0.018,0.082,0.043,0.232,0.075,0.451
		c0.032,0.219,0.063,0.449,0.096,0.69c0.032,0.241,0.059,0.47,0.082,0.684c0.022,0.214,0.039,0.362,0.048,0.444h3.746
		c0,0.173-0.075,0.312-0.226,0.417s-0.347,0.185-0.588,0.239c-0.242,0.055-0.506,0.089-0.793,0.103s-0.57,0.022-0.848,0.027
		c-0.278,0.005-0.533,0.012-0.766,0.021s-0.408,0.027-0.526,0.055c-0.046,0.273-0.05,0.579-0.014,0.916
		c0.036,0.337,0.082,0.682,0.137,1.032s0.103,0.702,0.144,1.053s0.043,0.677,0.007,0.978c-0.055,0.046-0.142,0.094-0.26,0.144
		c-0.119,0.05-0.239,0.087-0.362,0.109s-0.232,0.019-0.328-0.014S25.775,21.849,25.748,21.721z"/>
	<path fill="#ED6756" d="M44.93,19.738c-0.265,0.41-0.57,0.781-0.916,1.114c-0.347,0.333-0.727,0.615-1.142,0.848
		c-0.415,0.232-0.866,0.403-1.354,0.513c-0.488,0.109-1,0.142-1.538,0.096c-0.191,0-0.396-0.022-0.615-0.068
		s-0.422-0.118-0.608-0.219c-0.187-0.101-0.34-0.232-0.458-0.396c-0.119-0.164-0.178-0.369-0.178-0.615
		c-0.101-0.511-0.08-1.027,0.062-1.552c0.141-0.524,0.362-1.03,0.663-1.518s0.67-0.938,1.107-1.354s0.904-0.766,1.401-1.053
		c0.497-0.287,1.007-0.494,1.531-0.622c0.524-0.128,1.032-0.146,1.524-0.055c0.374,0,0.665,0.123,0.875,0.369
		c0.209,0.246,0.367,0.574,0.472,0.984c0.104,0.41,0.171,0.882,0.198,1.415s0.05,1.082,0.068,1.647
		c0.018,0.565,0.043,1.123,0.075,1.675c0.032,0.552,0.103,1.055,0.212,1.511h-1.012c-0.046-0.31-0.08-0.583-0.103-0.82
		c-0.023-0.237-0.043-0.458-0.062-0.663c-0.019-0.205-0.043-0.403-0.075-0.595C45.027,20.189,44.984,19.976,44.93,19.738z
		 M43.891,16.088c-0.355-0.027-0.723,0.021-1.101,0.144c-0.378,0.123-0.743,0.296-1.094,0.52c-0.351,0.224-0.679,0.487-0.984,0.793
		c-0.306,0.306-0.572,0.622-0.8,0.95c-0.228,0.328-0.403,0.654-0.526,0.978s-0.173,0.622-0.15,0.896
		c0.022,0.273,0.125,0.506,0.308,0.697c0.182,0.191,0.465,0.319,0.848,0.383c0.547-0.009,1.073-0.148,1.579-0.417
		s0.957-0.602,1.354-0.998s0.727-0.825,0.991-1.285c0.264-0.46,0.435-0.887,0.513-1.278c0.077-0.392,0.043-0.72-0.103-0.984
		C44.579,16.22,44.301,16.088,43.891,16.088z"/>
	<path fill="#ED6756" d="M53.557,15.842c0.063-0.146-0.005-0.23-0.205-0.253c-0.201-0.022-0.474-0.002-0.82,0.062
		c-0.347,0.063-0.734,0.164-1.162,0.301c-0.429,0.137-0.836,0.299-1.224,0.485c-0.388,0.187-0.725,0.395-1.012,0.622
		s-0.463,0.456-0.526,0.684l-0.014,4.648h-1.135c-0.055-0.128-0.098-0.33-0.13-0.608c-0.032-0.278-0.057-0.606-0.075-0.984
		c-0.019-0.378-0.03-0.788-0.034-1.23c-0.005-0.442-0.002-0.889,0.007-1.34c0.009-0.451,0.022-0.894,0.041-1.326
		c0.018-0.433,0.039-0.827,0.062-1.183c0.022-0.355,0.045-0.654,0.068-0.896c0.022-0.241,0.048-0.403,0.075-0.485
		c0.1-0.073,0.214-0.142,0.342-0.205c0.127-0.063,0.255-0.096,0.383-0.096c0.164,0.009,0.275,0.116,0.335,0.321
		c0.059,0.205,0.089,0.438,0.089,0.697s-0.016,0.513-0.048,0.759c-0.032,0.246-0.048,0.415-0.048,0.506
		c0.948-0.702,1.764-1.212,2.447-1.531s1.26-0.487,1.729-0.506c0.469-0.019,0.845,0.091,1.128,0.328
		c0.282,0.237,0.501,0.565,0.656,0.984c0.155,0.419,0.257,0.909,0.308,1.47c0.05,0.561,0.08,1.15,0.089,1.771
		c0.009,0.62,0.009,1.251,0,1.894c-0.009,0.643,0,1.256,0.027,1.839c-0.109,0.055-0.185,0.087-0.226,0.096s-0.087,0.007-0.137-0.007
		c-0.05-0.014-0.116-0.029-0.198-0.048s-0.21-0.032-0.383-0.041c-0.109-0.446-0.171-0.957-0.185-1.531s-0.016-1.162-0.007-1.764
		c0.009-0.602,0.004-1.198-0.014-1.791C53.743,16.89,53.675,16.343,53.557,15.842z"/>
	<path fill="#ED6756" d="M56.291,19.328c0-0.747,0.164-1.388,0.492-1.921s0.743-0.978,1.244-1.333
		c0.501-0.355,1.048-0.627,1.641-0.813c0.592-0.187,1.157-0.308,1.695-0.362c0.52-0.027,1.007,0.039,1.463,0.198
		c0.456,0.159,0.848,0.385,1.176,0.677s0.581,0.638,0.759,1.039s0.244,0.825,0.198,1.271c0,0.747-0.148,1.401-0.444,1.962
		c-0.296,0.561-0.69,1.03-1.183,1.408s-1.064,0.661-1.716,0.848c-0.652,0.187-1.333,0.28-2.044,0.28
		c-1.076,0-1.892-0.251-2.447-0.752C56.569,21.329,56.291,20.495,56.291,19.328z M57.467,19.738c0,0.383,0.048,0.688,0.144,0.916
		s0.237,0.398,0.424,0.513c0.187,0.114,0.415,0.189,0.684,0.226c0.269,0.036,0.581,0.055,0.937,0.055
		c0.547,0,1.075-0.053,1.586-0.157c0.51-0.104,0.961-0.282,1.354-0.533c0.392-0.251,0.706-0.583,0.943-0.998
		c0.237-0.415,0.355-0.932,0.355-1.552c0-0.319-0.046-0.622-0.137-0.909c-0.091-0.287-0.228-0.538-0.41-0.752
		c-0.183-0.214-0.406-0.385-0.67-0.513c-0.265-0.128-0.565-0.191-0.902-0.191c-0.447,0.073-0.894,0.157-1.34,0.253
		c-0.447,0.096-0.866,0.269-1.258,0.52c-0.392,0.251-0.738,0.62-1.039,1.107S57.612,18.882,57.467,19.738z"/>
	<path fill="#ED6756" d="M67.611,22.295c0.647-0.21,1.251-0.456,1.812-0.738s1.03-0.561,1.408-0.834
		c0.378-0.273,0.633-0.526,0.766-0.759c0.132-0.232,0.096-0.408-0.109-0.526s-0.608-0.157-1.21-0.116s-1.454,0.198-2.557,0.472
		c-0.328-0.009-0.622-0.073-0.882-0.191s-0.481-0.265-0.663-0.438c-0.183-0.173-0.321-0.362-0.417-0.567s-0.144-0.403-0.144-0.595
		c0-0.301,0.103-0.6,0.308-0.896s0.48-0.576,0.827-0.841c0.346-0.265,0.747-0.504,1.203-0.718c0.456-0.214,0.934-0.388,1.436-0.52
		c0.501-0.132,1.014-0.219,1.538-0.26c0.524-0.041,1.027-0.016,1.511,0.075c0.273,0,0.433,0.121,0.479,0.362
		c0.045,0.241,0.068,0.631,0.068,1.169c-0.374-0.173-0.777-0.296-1.21-0.369c-0.433-0.073-0.868-0.101-1.306-0.082
		s-0.861,0.08-1.271,0.185s-0.772,0.251-1.087,0.438s-0.572,0.417-0.772,0.69c-0.201,0.273-0.306,0.583-0.314,0.93
		c0,0.191,0.075,0.316,0.226,0.376s0.328,0.087,0.533,0.082s0.419-0.027,0.643-0.068c0.223-0.041,0.403-0.062,0.54-0.062
		c1.23-0.265,2.188-0.374,2.871-0.328s1.144,0.191,1.381,0.438c0.237,0.246,0.273,0.562,0.109,0.95s-0.481,0.795-0.95,1.224
		c-0.47,0.429-1.064,0.846-1.784,1.251c-0.72,0.405-1.518,0.75-2.393,1.032c-0.046,0-0.096-0.034-0.15-0.103
		s-0.112-0.148-0.171-0.239c-0.06-0.091-0.112-0.178-0.157-0.26C67.675,22.377,67.639,22.322,67.611,22.295z"/>
	<path fill="#ED6756" d="M88.051,20.682c-0.629,0.483-1.26,0.887-1.894,1.21c-0.634,0.323-1.242,0.518-1.825,0.581
		c-0.583,0.063-1.137-0.025-1.661-0.267c-0.524-0.241-0.991-0.69-1.401-1.347c-0.128-0.593-0.119-1.153,0.027-1.682
		c0.146-0.528,0.387-1.012,0.725-1.449c0.337-0.438,0.747-0.818,1.23-1.142c0.483-0.323,0.998-0.576,1.545-0.759
		s1.109-0.282,1.688-0.301c0.579-0.019,1.132,0.06,1.661,0.232c0-0.137,0.007-0.347,0.021-0.629s0.029-0.602,0.048-0.957
		c0.018-0.355,0.036-0.729,0.055-1.121c0.018-0.392,0.039-0.766,0.062-1.121c0.022-0.355,0.043-0.672,0.062-0.95
		c0.018-0.278,0.032-0.485,0.041-0.622c0.018-0.219,0.043-0.419,0.075-0.602c0.032-0.183,0.089-0.342,0.171-0.479
		s0.193-0.244,0.335-0.321c0.141-0.077,0.33-0.116,0.567-0.116c0,1.094-0.032,2.16-0.096,3.199
		c-0.064,1.039-0.121,2.085-0.171,3.138c-0.05,1.053-0.073,2.126-0.068,3.22c0.004,1.094,0.08,2.247,0.226,3.459
		c0,0.265-0.048,0.451-0.144,0.561s-0.258,0.164-0.485,0.164c-0.219,0-0.385-0.07-0.499-0.212c-0.114-0.142-0.191-0.31-0.232-0.506
		s-0.062-0.403-0.062-0.622S88.051,20.837,88.051,20.682z M82.459,20.148c0.018,0.419,0.139,0.718,0.362,0.896
		c0.223,0.178,0.535,0.23,0.937,0.157c0.191,0,0.485-0.053,0.882-0.157s0.807-0.241,1.23-0.41s0.822-0.355,1.196-0.561
		c0.374-0.205,0.638-0.412,0.793-0.622v-2.27c0-0.137-0.034-0.246-0.103-0.328s-0.155-0.144-0.26-0.185
		c-0.105-0.041-0.214-0.066-0.328-0.075c-0.114-0.009-0.212-0.014-0.294-0.014c-0.246-0.036-0.531-0.021-0.854,0.048
		c-0.324,0.068-0.656,0.178-0.998,0.328s-0.675,0.337-0.998,0.561c-0.324,0.224-0.608,0.474-0.854,0.752s-0.438,0.576-0.574,0.896
		S82.413,19.812,82.459,20.148z"/>
	<path fill="#ED6756" d="M90.375,20.326c-0.082-0.738-0.012-1.458,0.212-2.16c0.223-0.702,0.561-1.321,1.012-1.859
		s0.996-0.964,1.634-1.278c0.638-0.314,1.335-0.463,2.092-0.444c0.127,0,0.298,0.019,0.513,0.055
		c0.214,0.036,0.442,0.094,0.684,0.171c0.241,0.077,0.479,0.176,0.711,0.294s0.438,0.26,0.615,0.424s0.312,0.349,0.403,0.554
		c0.091,0.205,0.114,0.436,0.068,0.69c-0.374,0.265-0.805,0.446-1.292,0.547c-0.488,0.101-0.984,0.171-1.49,0.212
		s-1,0.077-1.483,0.109c-0.483,0.032-0.905,0.116-1.265,0.253c-0.36,0.137-0.638,0.354-0.834,0.649
		c-0.196,0.296-0.258,0.723-0.185,1.278c0.137,0.501,0.362,0.87,0.677,1.107s0.679,0.381,1.094,0.431
		c0.415,0.05,0.856,0.027,1.326-0.068c0.469-0.096,0.93-0.221,1.381-0.376s0.873-0.319,1.265-0.492
		c0.392-0.173,0.715-0.314,0.971-0.424c0.118,0,0.219,0.043,0.301,0.13s0.123,0.189,0.123,0.308
		c-0.228,0.392-0.574,0.743-1.039,1.053s-0.989,0.561-1.572,0.752c-0.583,0.191-1.192,0.31-1.825,0.355
		c-0.634,0.046-1.229,0-1.784-0.137c-0.556-0.137-1.044-0.378-1.463-0.725C90.803,21.388,90.521,20.919,90.375,20.326z
		 M95.201,15.609c-0.164,0-0.365,0.019-0.602,0.055c-0.237,0.036-0.465,0.101-0.684,0.191s-0.408,0.21-0.567,0.355
		c-0.16,0.146-0.239,0.333-0.239,0.561l3.391-0.561c-0.146-0.219-0.335-0.374-0.567-0.465S95.456,15.609,95.201,15.609z"/>
	<path fill="#ED6756" d="M106.836,20.326c-0.082-0.738-0.012-1.458,0.212-2.16c0.223-0.702,0.561-1.321,1.012-1.859
		s0.996-0.964,1.634-1.278c0.638-0.314,1.335-0.463,2.092-0.444c0.127,0,0.298,0.019,0.513,0.055
		c0.214,0.036,0.442,0.094,0.684,0.171c0.241,0.077,0.479,0.176,0.711,0.294s0.438,0.26,0.615,0.424s0.312,0.349,0.403,0.554
		c0.091,0.205,0.114,0.436,0.068,0.69c-0.374,0.265-0.805,0.446-1.292,0.547c-0.488,0.101-0.984,0.171-1.49,0.212
		s-1,0.077-1.483,0.109c-0.483,0.032-0.905,0.116-1.265,0.253c-0.36,0.137-0.638,0.354-0.834,0.649
		c-0.196,0.296-0.258,0.723-0.185,1.278c0.137,0.501,0.362,0.87,0.677,1.107s0.679,0.381,1.094,0.431
		c0.415,0.05,0.856,0.027,1.326-0.068c0.469-0.096,0.93-0.221,1.381-0.376s0.873-0.319,1.265-0.492
		c0.392-0.173,0.715-0.314,0.971-0.424c0.118,0,0.219,0.043,0.301,0.13s0.123,0.189,0.123,0.308
		c-0.228,0.392-0.574,0.743-1.039,1.053s-0.989,0.561-1.572,0.752c-0.583,0.191-1.192,0.31-1.825,0.355
		c-0.634,0.046-1.229,0-1.784-0.137c-0.556-0.137-1.044-0.378-1.463-0.725C107.264,21.388,106.981,20.919,106.836,20.326z
		 M111.662,15.609c-0.164,0-0.365,0.019-0.602,0.055c-0.237,0.036-0.465,0.101-0.684,0.191s-0.408,0.21-0.567,0.355
		c-0.16,0.146-0.239,0.333-0.239,0.561l3.391-0.561c-0.146-0.219-0.335-0.374-0.567-0.465S111.917,15.609,111.662,15.609z"/>
	<path fill="#ED6756" d="M118.293,22.295c0.647-0.21,1.251-0.456,1.812-0.738s1.03-0.561,1.408-0.834
		c0.378-0.273,0.633-0.526,0.766-0.759c0.132-0.232,0.096-0.408-0.109-0.526s-0.608-0.157-1.21-0.116s-1.454,0.198-2.557,0.472
		c-0.328-0.009-0.622-0.073-0.882-0.191s-0.481-0.265-0.663-0.438c-0.183-0.173-0.321-0.362-0.417-0.567s-0.144-0.403-0.144-0.595
		c0-0.301,0.103-0.6,0.308-0.896s0.48-0.576,0.827-0.841c0.346-0.265,0.747-0.504,1.203-0.718c0.456-0.214,0.934-0.388,1.436-0.52
		c0.501-0.132,1.014-0.219,1.538-0.26c0.524-0.041,1.027-0.016,1.511,0.075c0.273,0,0.433,0.121,0.479,0.362
		c0.045,0.241,0.068,0.631,0.068,1.169c-0.374-0.173-0.777-0.296-1.21-0.369c-0.433-0.073-0.868-0.101-1.306-0.082
		s-0.861,0.08-1.271,0.185s-0.772,0.251-1.087,0.438s-0.572,0.417-0.772,0.69c-0.201,0.273-0.306,0.583-0.314,0.93
		c0,0.191,0.075,0.316,0.226,0.376s0.328,0.087,0.533,0.082s0.419-0.027,0.643-0.068c0.223-0.041,0.403-0.062,0.54-0.062
		c1.23-0.265,2.188-0.374,2.871-0.328s1.144,0.191,1.381,0.438c0.237,0.246,0.273,0.562,0.109,0.95s-0.481,0.795-0.95,1.224
		c-0.47,0.429-1.064,0.846-1.784,1.251c-0.72,0.405-1.518,0.75-2.393,1.032c-0.046,0-0.096-0.034-0.15-0.103
		s-0.112-0.148-0.171-0.239c-0.06-0.091-0.112-0.178-0.157-0.26C118.356,22.377,118.32,22.322,118.293,22.295z"/>
	<path fill="#ED6756" d="M125.02,17.086l-0.027-1.176h2.557v-4.416c0.036-0.109,0.103-0.21,0.198-0.301s0.198-0.159,0.308-0.205
		s0.223-0.053,0.342-0.021c0.118,0.032,0.219,0.116,0.301,0.253c0.091,0.374,0.155,0.75,0.191,1.128
		c0.036,0.378,0.059,0.757,0.068,1.135c0.009,0.378,0.016,0.757,0.021,1.135c0.004,0.378,0.021,0.75,0.048,1.114
		c0.173-0.027,0.374-0.043,0.602-0.048c0.228-0.005,0.458-0.009,0.69-0.014s0.46-0.009,0.684-0.014
		c0.223-0.005,0.426-0.016,0.608-0.034l-0.055,1.23l-2.488-0.068c-0.009,0.565-0.009,1.087,0,1.565
		c0.009,0.479,0.021,0.945,0.034,1.401s0.025,0.921,0.034,1.395c0.009,0.474,0.014,0.989,0.014,1.545
		c-0.374,0.164-0.659,0.18-0.854,0.048c-0.196-0.132-0.335-0.354-0.417-0.663s-0.123-0.688-0.123-1.135s0.007-0.904,0.021-1.374
		s0.021-0.923,0.021-1.36s-0.041-0.812-0.123-1.121H125.02z"/>
	<path fill="#ED6756" d="M132.184,20.299c0-0.183-0.016-0.438-0.048-0.766c-0.032-0.328-0.06-0.686-0.082-1.073
		c-0.023-0.388-0.032-0.781-0.027-1.183c0.004-0.401,0.039-0.764,0.103-1.087c0.063-0.323,0.166-0.59,0.308-0.8
		c0.141-0.21,0.344-0.314,0.608-0.314c0.319,0.091,0.535,0.21,0.649,0.355c0.114,0.146,0.164,0.323,0.15,0.533
		s-0.068,0.451-0.164,0.725s-0.194,0.586-0.294,0.937c-0.101,0.351-0.178,0.738-0.232,1.162s-0.046,0.891,0.027,1.401
		c0.082,0.328,0.248,0.581,0.499,0.759c0.25,0.178,0.549,0.292,0.896,0.342c0.346,0.05,0.718,0.046,1.114-0.014
		s0.781-0.159,1.155-0.301c0.374-0.142,0.715-0.314,1.025-0.52c0.31-0.205,0.551-0.426,0.725-0.663
		c0.091-0.456,0.141-0.873,0.15-1.251c0.009-0.378,0-0.745-0.027-1.101s-0.064-0.718-0.109-1.087
		c-0.046-0.369-0.073-0.777-0.082-1.224c0.346-0.146,0.62-0.123,0.82,0.068c0.2,0.191,0.353,0.49,0.458,0.896
		c0.104,0.405,0.175,0.887,0.212,1.442c0.036,0.556,0.057,1.128,0.062,1.716c0.004,0.588,0.007,1.16,0.007,1.716
		s0.022,1.03,0.068,1.422c-0.246,0.237-0.504,0.26-0.772,0.068c-0.269-0.191-0.477-0.606-0.622-1.244
		c-0.146,0.128-0.396,0.285-0.752,0.472s-0.764,0.354-1.224,0.499c-0.46,0.146-0.943,0.251-1.449,0.314s-0.978,0.041-1.415-0.068
		s-0.816-0.33-1.135-0.663C132.466,21.436,132.266,20.946,132.184,20.299z"/>
	<path fill="#ED6756" d="M147.701,20.682c-0.629,0.483-1.26,0.887-1.894,1.21c-0.634,0.323-1.242,0.518-1.825,0.581
		c-0.583,0.063-1.137-0.025-1.661-0.267c-0.524-0.241-0.991-0.69-1.401-1.347c-0.128-0.593-0.119-1.153,0.027-1.682
		c0.146-0.528,0.387-1.012,0.725-1.449c0.337-0.438,0.747-0.818,1.23-1.142c0.483-0.323,0.998-0.576,1.545-0.759
		s1.109-0.282,1.688-0.301c0.579-0.019,1.132,0.06,1.661,0.232c0-0.137,0.007-0.347,0.021-0.629s0.029-0.602,0.048-0.957
		c0.018-0.355,0.036-0.729,0.055-1.121c0.018-0.392,0.039-0.766,0.062-1.121c0.022-0.355,0.043-0.672,0.062-0.95
		c0.018-0.278,0.032-0.485,0.041-0.622c0.018-0.219,0.043-0.419,0.075-0.602c0.032-0.183,0.089-0.342,0.171-0.479
		s0.193-0.244,0.335-0.321c0.141-0.077,0.33-0.116,0.567-0.116c0,1.094-0.032,2.16-0.096,3.199
		c-0.064,1.039-0.121,2.085-0.171,3.138c-0.05,1.053-0.073,2.126-0.068,3.22c0.004,1.094,0.08,2.247,0.226,3.459
		c0,0.265-0.048,0.451-0.144,0.561s-0.258,0.164-0.485,0.164c-0.219,0-0.385-0.07-0.499-0.212c-0.114-0.142-0.191-0.31-0.232-0.506
		s-0.062-0.403-0.062-0.622S147.701,20.837,147.701,20.682z M142.109,20.148c0.018,0.419,0.139,0.718,0.362,0.896
		c0.223,0.178,0.535,0.23,0.937,0.157c0.191,0,0.485-0.053,0.882-0.157s0.807-0.241,1.23-0.41s0.822-0.355,1.196-0.561
		c0.374-0.205,0.638-0.412,0.793-0.622v-2.27c0-0.137-0.034-0.246-0.103-0.328s-0.155-0.144-0.26-0.185
		c-0.105-0.041-0.214-0.066-0.328-0.075c-0.114-0.009-0.212-0.014-0.294-0.014c-0.246-0.036-0.531-0.021-0.854,0.048
		c-0.324,0.068-0.656,0.178-0.998,0.328s-0.675,0.337-0.998,0.561c-0.324,0.224-0.608,0.474-0.854,0.752s-0.438,0.576-0.574,0.896
		S142.063,19.812,142.109,20.148z"/>
	<path fill="#ED6756" d="M150.545,19.328c0-0.747,0.164-1.388,0.492-1.921s0.743-0.978,1.244-1.333
		c0.501-0.355,1.048-0.627,1.641-0.813c0.592-0.187,1.157-0.308,1.695-0.362c0.52-0.027,1.007,0.039,1.463,0.198
		c0.456,0.159,0.848,0.385,1.176,0.677s0.581,0.638,0.759,1.039s0.244,0.825,0.198,1.271c0,0.747-0.148,1.401-0.444,1.962
		c-0.296,0.561-0.69,1.03-1.183,1.408s-1.064,0.661-1.716,0.848c-0.652,0.187-1.333,0.28-2.044,0.28
		c-1.076,0-1.892-0.251-2.447-0.752C150.823,21.329,150.545,20.495,150.545,19.328z M151.721,19.738
		c0,0.383,0.048,0.688,0.144,0.916s0.237,0.398,0.424,0.513c0.187,0.114,0.415,0.189,0.684,0.226
		c0.269,0.036,0.581,0.055,0.937,0.055c0.547,0,1.075-0.053,1.586-0.157c0.51-0.104,0.961-0.282,1.354-0.533
		c0.392-0.251,0.706-0.583,0.943-0.998c0.237-0.415,0.355-0.932,0.355-1.552c0-0.319-0.046-0.622-0.137-0.909
		c-0.091-0.287-0.228-0.538-0.41-0.752c-0.183-0.214-0.406-0.385-0.67-0.513c-0.265-0.128-0.565-0.191-0.902-0.191
		c-0.447,0.073-0.894,0.157-1.34,0.253c-0.447,0.096-0.866,0.269-1.258,0.52c-0.392,0.251-0.738,0.62-1.039,1.107
		S151.866,18.882,151.721,19.738z"/>
</g>
<g enable-background="new    ">
	<path fill="#ED6756" d="M305.713,183.872c-0.019-0.246-0.041-0.526-0.068-0.841s-0.062-0.641-0.103-0.978s-0.096-0.67-0.164-0.998
		s-0.148-0.624-0.239-0.889c-0.237,0-0.472,0.029-0.704,0.089s-0.465,0.123-0.697,0.191s-0.47,0.135-0.711,0.198
		s-0.49,0.101-0.745,0.109c-0.137,0-0.265-0.032-0.383-0.096c-0.119-0.063-0.178-0.183-0.178-0.355c0-0.137,0.084-0.239,0.253-0.308
		s0.38-0.121,0.636-0.157c0.255-0.036,0.528-0.063,0.82-0.082c0.291-0.019,0.564-0.041,0.82-0.068
		c0.255-0.027,0.467-0.068,0.636-0.123s0.253-0.137,0.253-0.246v-2.83c0-0.082,0.022-0.144,0.068-0.185
		c0.045-0.041,0.1-0.073,0.164-0.096c0.063-0.022,0.13-0.036,0.198-0.041s0.12-0.007,0.157-0.007c0.2,0,0.33,0.034,0.39,0.103
		s0.111,0.234,0.157,0.499c0.018,0.082,0.043,0.232,0.075,0.451s0.063,0.449,0.096,0.69s0.06,0.47,0.082,0.684
		s0.038,0.362,0.048,0.444h3.746c0,0.173-0.075,0.312-0.226,0.417s-0.347,0.185-0.588,0.239s-0.506,0.089-0.793,0.103
		s-0.569,0.022-0.848,0.027s-0.533,0.012-0.766,0.021s-0.408,0.027-0.526,0.055c-0.046,0.273-0.051,0.579-0.014,0.916
		c0.036,0.337,0.082,0.682,0.137,1.032s0.103,0.702,0.144,1.053s0.043,0.677,0.007,0.978c-0.055,0.046-0.142,0.094-0.26,0.144
		c-0.119,0.05-0.239,0.087-0.362,0.109s-0.232,0.019-0.328-0.014S305.74,184,305.713,183.872z"/>
	<path fill="#ED6756" d="M324.895,181.89c-0.265,0.41-0.57,0.781-0.916,1.114c-0.347,0.333-0.727,0.615-1.142,0.848
		s-0.866,0.403-1.354,0.513s-1.001,0.142-1.538,0.096c-0.191,0-0.396-0.022-0.615-0.068s-0.422-0.118-0.608-0.219
		s-0.34-0.232-0.458-0.396c-0.119-0.164-0.178-0.369-0.178-0.615c-0.101-0.511-0.08-1.027,0.062-1.552s0.362-1.03,0.663-1.518
		s0.67-0.938,1.107-1.354s0.904-0.766,1.401-1.053s1.007-0.494,1.531-0.622s1.032-0.146,1.524-0.055
		c0.373,0,0.665,0.123,0.875,0.369c0.209,0.246,0.367,0.574,0.472,0.984s0.171,0.882,0.198,1.415s0.05,1.082,0.068,1.647
		c0.018,0.565,0.043,1.123,0.075,1.675s0.103,1.055,0.212,1.511h-1.012c-0.046-0.31-0.08-0.583-0.103-0.82s-0.044-0.458-0.062-0.663
		c-0.019-0.205-0.043-0.403-0.075-0.595S324.949,182.127,324.895,181.89z M323.855,178.239c-0.355-0.027-0.723,0.021-1.101,0.144
		s-0.743,0.296-1.094,0.52s-0.679,0.487-0.984,0.793s-0.572,0.622-0.8,0.95c-0.229,0.328-0.403,0.654-0.526,0.978
		s-0.173,0.622-0.15,0.896s0.125,0.506,0.308,0.697c0.182,0.191,0.465,0.319,0.848,0.383c0.547-0.009,1.073-0.148,1.579-0.417
		s0.957-0.602,1.354-0.998s0.727-0.825,0.991-1.285c0.264-0.46,0.436-0.887,0.513-1.278s0.043-0.72-0.103-0.984
		C324.543,178.371,324.266,178.239,323.855,178.239z"/>
	<path fill="#ED6756" d="M326.986,182.026c-0.037-0.419,0.041-0.836,0.232-1.251s0.458-0.812,0.8-1.189s0.743-0.729,1.203-1.053
		s0.945-0.6,1.456-0.827c0.51-0.228,1.027-0.398,1.552-0.513s1.019-0.148,1.483-0.103c0.173,0,0.346,0.009,0.52,0.027
		c0.173,0.019,0.326,0.063,0.458,0.137s0.239,0.178,0.321,0.314s0.123,0.323,0.123,0.561c0,0.118-0.029,0.224-0.089,0.314
		s-0.132,0.178-0.219,0.26s-0.181,0.155-0.28,0.219c-0.101,0.063-0.191,0.128-0.273,0.191c-0.027-0.128-0.055-0.248-0.082-0.362
		s-0.07-0.214-0.13-0.301s-0.137-0.155-0.232-0.205s-0.222-0.075-0.376-0.075c-0.538,0.109-1.119,0.275-1.743,0.499
		s-1.198,0.49-1.723,0.8s-0.946,0.658-1.265,1.046c-0.319,0.388-0.442,0.805-0.369,1.251c0,0.401,0.077,0.725,0.232,0.971
		c0.154,0.246,0.357,0.438,0.608,0.574s0.538,0.228,0.861,0.273s0.653,0.068,0.991,0.068c0.52,0,1.023-0.077,1.511-0.232
		s0.964-0.328,1.429-0.52s0.92-0.364,1.367-0.52c0.446-0.155,0.884-0.232,1.312-0.232c0.072,0,0.148,0.005,0.226,0.014
		s0.146,0.034,0.205,0.075s0.101,0.101,0.123,0.178s0.021,0.185-0.007,0.321c-0.046,0.164-0.207,0.328-0.485,0.492
		s-0.62,0.319-1.025,0.465s-0.848,0.282-1.326,0.41s-0.943,0.237-1.395,0.328s-0.856,0.162-1.217,0.212s-0.627,0.075-0.8,0.075
		c-0.401,0-0.834-0.046-1.299-0.137s-0.896-0.241-1.292-0.451s-0.728-0.485-0.991-0.827
		C327.118,182.963,326.986,182.537,326.986,182.026z"/>
	<path fill="#ED6756" d="M338.061,182.478c-0.082-0.738-0.012-1.458,0.212-2.16s0.561-1.321,1.012-1.859s0.995-0.964,1.634-1.278
		c0.638-0.314,1.335-0.463,2.092-0.444c0.127,0,0.299,0.019,0.513,0.055s0.442,0.094,0.684,0.171s0.479,0.176,0.711,0.294
		s0.438,0.26,0.615,0.424s0.312,0.349,0.403,0.554c0.091,0.205,0.113,0.436,0.068,0.69c-0.374,0.265-0.805,0.446-1.292,0.547
		s-0.984,0.171-1.49,0.212s-1.001,0.077-1.483,0.109c-0.483,0.032-0.904,0.116-1.265,0.253s-0.638,0.354-0.834,0.649
		s-0.258,0.723-0.185,1.278c0.137,0.501,0.362,0.87,0.677,1.107s0.679,0.381,1.094,0.431s0.856,0.027,1.326-0.068
		s0.93-0.221,1.381-0.376s0.872-0.319,1.265-0.492c0.392-0.173,0.715-0.314,0.971-0.424c0.118,0,0.219,0.043,0.301,0.13
		s0.123,0.189,0.123,0.308c-0.229,0.392-0.574,0.743-1.039,1.053s-0.989,0.561-1.572,0.752c-0.584,0.191-1.191,0.31-1.825,0.355
		s-1.229,0-1.784-0.137c-0.557-0.137-1.044-0.378-1.463-0.725C338.488,183.539,338.206,183.07,338.061,182.478z M342.887,177.761
		c-0.164,0-0.365,0.019-0.602,0.055c-0.237,0.036-0.465,0.101-0.684,0.191s-0.408,0.21-0.567,0.355s-0.239,0.333-0.239,0.561
		l3.391-0.561c-0.146-0.219-0.335-0.374-0.567-0.465S343.142,177.761,342.887,177.761z"/>
	<path fill="#ED6756" d="M349.518,184.446c0.646-0.21,1.251-0.456,1.812-0.738s1.03-0.561,1.408-0.834s0.634-0.526,0.766-0.759
		s0.096-0.408-0.109-0.526s-0.608-0.157-1.21-0.116s-1.454,0.198-2.557,0.472c-0.328-0.009-0.622-0.073-0.882-0.191
		s-0.481-0.265-0.663-0.438c-0.183-0.173-0.321-0.362-0.417-0.567s-0.144-0.403-0.144-0.595c0-0.301,0.103-0.6,0.308-0.896
		s0.48-0.576,0.827-0.841c0.346-0.265,0.747-0.504,1.203-0.718c0.455-0.214,0.934-0.388,1.436-0.52
		c0.501-0.132,1.014-0.219,1.538-0.26s1.027-0.016,1.511,0.075c0.273,0,0.433,0.121,0.479,0.362
		c0.045,0.241,0.068,0.631,0.068,1.169c-0.374-0.173-0.777-0.296-1.21-0.369s-0.868-0.101-1.306-0.082s-0.861,0.08-1.271,0.185
		s-0.772,0.251-1.087,0.438s-0.572,0.417-0.772,0.69c-0.201,0.273-0.306,0.583-0.314,0.93c0,0.191,0.075,0.316,0.226,0.376
		s0.328,0.087,0.533,0.082s0.419-0.027,0.643-0.068s0.403-0.062,0.54-0.062c1.23-0.265,2.188-0.374,2.871-0.328
		s1.144,0.191,1.381,0.438c0.236,0.246,0.273,0.562,0.109,0.95s-0.48,0.795-0.95,1.224s-1.064,0.846-1.784,1.251
		c-0.721,0.405-1.518,0.75-2.393,1.032c-0.046,0-0.096-0.034-0.15-0.103s-0.111-0.148-0.171-0.239s-0.112-0.178-0.157-0.26
		C349.581,184.528,349.545,184.474,349.518,184.446z"/>
	<path fill="#ED6756" d="M358.309,184.446c0.646-0.21,1.251-0.456,1.812-0.738s1.03-0.561,1.408-0.834s0.634-0.526,0.766-0.759
		s0.096-0.408-0.109-0.526s-0.608-0.157-1.21-0.116s-1.454,0.198-2.557,0.472c-0.328-0.009-0.622-0.073-0.882-0.191
		s-0.481-0.265-0.663-0.438c-0.183-0.173-0.321-0.362-0.417-0.567s-0.144-0.403-0.144-0.595c0-0.301,0.103-0.6,0.308-0.896
		s0.48-0.576,0.827-0.841c0.346-0.265,0.747-0.504,1.203-0.718c0.455-0.214,0.934-0.388,1.436-0.52
		c0.501-0.132,1.014-0.219,1.538-0.26s1.027-0.016,1.511,0.075c0.273,0,0.433,0.121,0.479,0.362
		c0.045,0.241,0.068,0.631,0.068,1.169c-0.374-0.173-0.777-0.296-1.21-0.369s-0.868-0.101-1.306-0.082s-0.861,0.08-1.271,0.185
		s-0.772,0.251-1.087,0.438s-0.572,0.417-0.772,0.69c-0.201,0.273-0.306,0.583-0.314,0.93c0,0.191,0.075,0.316,0.226,0.376
		s0.328,0.087,0.533,0.082s0.419-0.027,0.643-0.068s0.403-0.062,0.54-0.062c1.23-0.265,2.188-0.374,2.871-0.328
		s1.144,0.191,1.381,0.438c0.236,0.246,0.273,0.562,0.109,0.95s-0.48,0.795-0.95,1.224s-1.064,0.846-1.784,1.251
		c-0.721,0.405-1.518,0.75-2.393,1.032c-0.046,0-0.096-0.034-0.15-0.103s-0.111-0.148-0.171-0.239s-0.112-0.178-0.157-0.26
		C358.372,184.528,358.336,184.474,358.309,184.446z"/>
	<path fill="#ED6756" d="M365.623,181.479c0-0.747,0.164-1.388,0.492-1.921s0.742-0.978,1.244-1.333
		c0.501-0.355,1.048-0.627,1.641-0.813c0.592-0.187,1.157-0.308,1.695-0.362c0.52-0.027,1.007,0.039,1.463,0.198
		c0.455,0.159,0.848,0.385,1.176,0.677s0.581,0.638,0.759,1.039s0.243,0.825,0.198,1.271c0,0.747-0.148,1.401-0.444,1.962
		s-0.69,1.03-1.183,1.408s-1.064,0.661-1.716,0.848s-1.333,0.28-2.044,0.28c-1.076,0-1.892-0.251-2.447-0.752
		C365.9,183.48,365.623,182.646,365.623,181.479z M366.799,181.89c0,0.383,0.048,0.688,0.144,0.916s0.237,0.398,0.424,0.513
		s0.415,0.189,0.684,0.226s0.581,0.055,0.937,0.055c0.547,0,1.075-0.053,1.586-0.157c0.51-0.104,0.961-0.282,1.354-0.533
		c0.392-0.251,0.706-0.583,0.943-0.998c0.236-0.415,0.355-0.932,0.355-1.552c0-0.319-0.046-0.622-0.137-0.909
		c-0.092-0.287-0.229-0.538-0.41-0.752c-0.183-0.214-0.406-0.385-0.67-0.513c-0.265-0.128-0.565-0.191-0.902-0.191
		c-0.447,0.073-0.894,0.157-1.34,0.253c-0.447,0.096-0.866,0.269-1.258,0.52c-0.393,0.251-0.738,0.62-1.039,1.107
		S366.944,181.033,366.799,181.89z"/>
</g>
<g enable-background="new    ">
	<path d="M287.545,83.841c0.036-0.036,0.104-0.077,0.205-0.123c0.1-0.046,0.205-0.066,0.314-0.062s0.214,0.048,0.314,0.13
		c0.1,0.082,0.173,0.224,0.219,0.424c1.303-0.438,2.42-0.69,3.35-0.759s1.686-0.005,2.27,0.191c0.583,0.196,1.002,0.497,1.258,0.902
		c0.255,0.405,0.359,0.861,0.314,1.367c-0.046,0.506-0.234,1.037-0.567,1.593s-0.798,1.08-1.395,1.572s-1.317,0.928-2.16,1.306
		s-1.794,0.645-2.851,0.8c0,0.128,0.002,0.328,0.007,0.602s0.011,0.583,0.021,0.93c0.009,0.347,0.016,0.711,0.021,1.094
		s0.011,0.75,0.021,1.101c0.009,0.351,0.021,0.668,0.034,0.95s0.029,0.492,0.048,0.629c0.055,0.419-0.027,0.718-0.246,0.896
		s-0.52,0.244-0.902,0.198L287.545,83.841z M292.275,84.511c-0.355,0-0.748,0.041-1.176,0.123c-0.429,0.082-0.827,0.221-1.196,0.417
		s-0.673,0.46-0.909,0.793c-0.237,0.333-0.342,0.745-0.314,1.237v2.953c1.267-0.282,2.306-0.615,3.117-0.998
		c0.811-0.383,1.434-0.779,1.866-1.189s0.699-0.815,0.8-1.217c0.1-0.401,0.072-0.759-0.082-1.073
		c-0.155-0.314-0.42-0.567-0.793-0.759C293.214,84.606,292.776,84.511,292.275,84.511z"/>
	<path d="M303.418,88.229c-0.265,0.41-0.57,0.781-0.916,1.114c-0.347,0.333-0.727,0.615-1.142,0.848s-0.866,0.403-1.354,0.513
		s-1.001,0.142-1.538,0.096c-0.191,0-0.396-0.022-0.615-0.068s-0.422-0.118-0.608-0.219s-0.34-0.232-0.458-0.396
		c-0.119-0.164-0.178-0.369-0.178-0.615c-0.101-0.511-0.08-1.027,0.062-1.552s0.362-1.03,0.663-1.518s0.67-0.938,1.107-1.354
		s0.904-0.766,1.401-1.053s1.007-0.494,1.531-0.622s1.032-0.146,1.524-0.055c0.373,0,0.665,0.123,0.875,0.369
		c0.209,0.246,0.367,0.574,0.472,0.984s0.171,0.882,0.198,1.415s0.05,1.082,0.068,1.647c0.018,0.565,0.043,1.123,0.075,1.675
		s0.103,1.055,0.212,1.511h-1.012c-0.046-0.31-0.08-0.583-0.103-0.82s-0.044-0.458-0.062-0.663
		c-0.019-0.205-0.043-0.403-0.075-0.595S303.473,88.467,303.418,88.229z M302.379,84.579c-0.355-0.027-0.723,0.021-1.101,0.144
		s-0.743,0.296-1.094,0.52s-0.679,0.487-0.984,0.793s-0.572,0.622-0.8,0.95c-0.229,0.328-0.403,0.654-0.526,0.978
		s-0.173,0.622-0.15,0.896s0.125,0.506,0.308,0.697c0.182,0.191,0.465,0.319,0.848,0.383c0.547-0.009,1.073-0.148,1.579-0.417
		s0.957-0.602,1.354-0.998s0.727-0.825,0.991-1.285c0.264-0.46,0.436-0.887,0.513-1.278s0.043-0.72-0.103-0.984
		C303.066,84.711,302.789,84.579,302.379,84.579z"/>
	<path d="M312.154,89.173c-0.629,0.483-1.26,0.887-1.894,1.21s-1.242,0.518-1.825,0.581c-0.584,0.063-1.137-0.025-1.661-0.267
		s-0.991-0.69-1.401-1.347c-0.128-0.593-0.119-1.153,0.027-1.682c0.146-0.528,0.387-1.012,0.725-1.449
		c0.337-0.438,0.747-0.818,1.23-1.142c0.482-0.323,0.998-0.576,1.545-0.759s1.109-0.282,1.688-0.301s1.132,0.06,1.661,0.232
		c0-0.137,0.007-0.347,0.021-0.629s0.029-0.602,0.048-0.957c0.018-0.355,0.036-0.729,0.055-1.121
		c0.018-0.392,0.039-0.766,0.062-1.121s0.043-0.672,0.062-0.95c0.018-0.278,0.031-0.485,0.041-0.622
		c0.018-0.219,0.043-0.419,0.075-0.602s0.089-0.342,0.171-0.479s0.193-0.244,0.335-0.321s0.33-0.116,0.567-0.116
		c0,1.094-0.032,2.16-0.096,3.199c-0.064,1.039-0.121,2.085-0.171,3.138s-0.073,2.126-0.068,3.22s0.079,2.247,0.226,3.459
		c0,0.265-0.048,0.451-0.144,0.561s-0.258,0.164-0.485,0.164c-0.219,0-0.385-0.07-0.499-0.212s-0.191-0.31-0.232-0.506
		s-0.062-0.403-0.062-0.622S312.154,89.328,312.154,89.173z M306.562,88.64c0.018,0.419,0.139,0.718,0.362,0.896
		s0.535,0.23,0.937,0.157c0.191,0,0.485-0.053,0.882-0.157s0.807-0.241,1.23-0.41s0.822-0.355,1.196-0.561
		c0.373-0.205,0.638-0.412,0.793-0.622v-2.27c0-0.137-0.034-0.246-0.103-0.328s-0.155-0.144-0.26-0.185s-0.214-0.066-0.328-0.075
		s-0.212-0.014-0.294-0.014c-0.246-0.036-0.531-0.021-0.854,0.048s-0.656,0.178-0.998,0.328s-0.675,0.337-0.998,0.561
		s-0.608,0.474-0.854,0.752s-0.438,0.576-0.574,0.896S306.517,88.303,306.562,88.64z"/>
	<path d="M314.574,83.239c0-0.173,0.062-0.287,0.185-0.342s0.257-0.082,0.403-0.082c0.236,0,0.426,0.098,0.567,0.294
		s0.251,0.424,0.328,0.684s0.132,0.515,0.164,0.766s0.057,0.431,0.075,0.54c0.337-0.31,0.715-0.597,1.135-0.861
		c0.419-0.265,0.887-0.49,1.401-0.677s1.089-0.323,1.723-0.41s1.342-0.107,2.126-0.062c0.246-0.055,0.431-0.002,0.554,0.157
		s0.193,0.349,0.212,0.567c0.018,0.219-0.016,0.433-0.103,0.643s-0.217,0.333-0.39,0.369c-0.319-0.237-0.704-0.39-1.155-0.458
		s-0.921-0.066-1.408,0.007s-0.969,0.207-1.442,0.403c-0.475,0.196-0.896,0.444-1.265,0.745s-0.661,0.647-0.875,1.039
		s-0.304,0.815-0.267,1.271c0,0.282,0.018,0.559,0.055,0.827c0.036,0.269,0.075,0.538,0.116,0.807s0.079,0.538,0.116,0.807
		c0.036,0.269,0.055,0.54,0.055,0.813c-0.246,0.019-0.444,0.05-0.595,0.096s-0.276,0.066-0.376,0.062
		c-0.101-0.005-0.188-0.05-0.26-0.137c-0.073-0.087-0.155-0.262-0.246-0.526c-0.01-0.063-0.032-0.255-0.068-0.574
		c-0.037-0.319-0.08-0.706-0.13-1.162s-0.107-0.955-0.171-1.497c-0.064-0.542-0.125-1.075-0.185-1.6s-0.114-1.007-0.164-1.449
		S314.602,83.504,314.574,83.239z"/>
	<path d="M330.939,88.229c-0.265,0.41-0.57,0.781-0.916,1.114c-0.347,0.333-0.727,0.615-1.142,0.848s-0.866,0.403-1.354,0.513
		s-1.001,0.142-1.538,0.096c-0.191,0-0.396-0.022-0.615-0.068s-0.422-0.118-0.608-0.219s-0.34-0.232-0.458-0.396
		c-0.119-0.164-0.178-0.369-0.178-0.615c-0.101-0.511-0.08-1.027,0.062-1.552s0.362-1.03,0.663-1.518s0.67-0.938,1.107-1.354
		s0.904-0.766,1.401-1.053s1.007-0.494,1.531-0.622s1.032-0.146,1.524-0.055c0.373,0,0.665,0.123,0.875,0.369
		c0.209,0.246,0.367,0.574,0.472,0.984s0.171,0.882,0.198,1.415s0.05,1.082,0.068,1.647c0.018,0.565,0.043,1.123,0.075,1.675
		s0.103,1.055,0.212,1.511h-1.012c-0.046-0.31-0.08-0.583-0.103-0.82s-0.044-0.458-0.062-0.663
		c-0.019-0.205-0.043-0.403-0.075-0.595S330.994,88.467,330.939,88.229z M327.85,82.077c-0.229-0.2-0.429-0.369-0.602-0.506
		c-0.174-0.137-0.349-0.198-0.526-0.185s-0.374,0.123-0.588,0.328s-0.485,0.549-0.813,1.032c-0.037,0-0.087-0.005-0.15-0.014
		c-0.064-0.009-0.128-0.027-0.191-0.055c-0.064-0.027-0.123-0.063-0.178-0.109s-0.092-0.104-0.109-0.178
		c0.173-0.547,0.431-1.03,0.772-1.449s0.704-0.706,1.087-0.861c0.154-0.063,0.303-0.068,0.444-0.014s0.282,0.139,0.424,0.253
		s0.278,0.246,0.41,0.396s0.269,0.294,0.41,0.431s0.287,0.251,0.438,0.342s0.308,0.137,0.472,0.137c0.255,0,0.453-0.039,0.595-0.116
		s0.271-0.191,0.39-0.342c0.118-0.15,0.248-0.335,0.39-0.554s0.339-0.465,0.595-0.738c0.072,0,0.146,0.062,0.219,0.185
		c0.072,0.123,0.109,0.23,0.109,0.321c0.045,0.255,0.018,0.506-0.082,0.752c-0.101,0.246-0.248,0.47-0.444,0.67
		s-0.429,0.369-0.697,0.506s-0.545,0.226-0.827,0.267c-0.283,0.041-0.559,0.025-0.827-0.048S328.059,82.305,327.85,82.077z
		 M329.9,84.579c-0.355-0.027-0.723,0.021-1.101,0.144s-0.743,0.296-1.094,0.52s-0.679,0.487-0.984,0.793s-0.572,0.622-0.8,0.95
		c-0.229,0.328-0.403,0.654-0.526,0.978s-0.173,0.622-0.15,0.896s0.125,0.506,0.308,0.697c0.182,0.191,0.465,0.319,0.848,0.383
		c0.547-0.009,1.073-0.148,1.579-0.417s0.957-0.602,1.354-0.998s0.727-0.825,0.991-1.285c0.264-0.46,0.436-0.887,0.513-1.278
		s0.043-0.72-0.103-0.984C330.588,84.711,330.311,84.579,329.9,84.579z"/>
	<path d="M333.551,87.819c0-0.747,0.164-1.388,0.492-1.921s0.742-0.978,1.244-1.333c0.501-0.355,1.048-0.627,1.641-0.813
		c0.592-0.187,1.157-0.308,1.695-0.362c0.52-0.027,1.007,0.039,1.463,0.198c0.455,0.159,0.848,0.385,1.176,0.677
		s0.581,0.638,0.759,1.039s0.243,0.825,0.198,1.271c0,0.747-0.148,1.401-0.444,1.962s-0.69,1.03-1.183,1.408
		s-1.064,0.661-1.716,0.848s-1.333,0.28-2.044,0.28c-1.076,0-1.892-0.251-2.447-0.752C333.828,89.82,333.551,88.986,333.551,87.819z
		 M334.727,88.229c0,0.383,0.048,0.688,0.144,0.916s0.237,0.398,0.424,0.513s0.415,0.189,0.684,0.226s0.581,0.055,0.937,0.055
		c0.547,0,1.075-0.053,1.586-0.157c0.51-0.104,0.961-0.282,1.354-0.533c0.392-0.251,0.706-0.583,0.943-0.998
		c0.236-0.415,0.355-0.932,0.355-1.552c0-0.319-0.046-0.622-0.137-0.909c-0.092-0.287-0.229-0.538-0.41-0.752
		c-0.183-0.214-0.406-0.385-0.67-0.513c-0.265-0.128-0.565-0.191-0.902-0.191c-0.447,0.073-0.894,0.157-1.34,0.253
		c-0.447,0.096-0.866,0.269-1.258,0.52c-0.393,0.251-0.738,0.62-1.039,1.107S334.872,87.373,334.727,88.229z"/>
</g>
<g>
	<g>
		<g>
			<path d="M330.923,45.494c0,0-0.21,0.172-0.638,0.466s-1.069,0.715-1.921,1.23c-1.703,1.03-4.249,2.434-7.611,3.942
				c-6.735,2.997-15.938,7.855-26.228,14.539c-10.598,6.13-22.867,13.03-35.863,19.88c-12.114,8.442-26.229,14.537-39.074,21.661
				c-12.143,8.392-25.639,13.078-35.863,19.88c-10.516,6.276-19.827,10.939-26.228,14.539c-6.348,3.696-10.17,5.639-10.17,5.639
				l-0.5-0.902c0,0,3.052-3.331,9.572-6.717c6.564-3.309,15.654-8.367,26.228-14.541c10.91-5.564,22.416-13.842,35.863-19.879
				c13.509-5.928,26.166-14.651,39.074-21.662c13.608-5.746,25.195-13.878,35.863-19.88c10.875-5.626,19.458-11.603,26.229-14.539
				c6.163-4.028,10.769-4.558,10.769-4.558S330.835,45.335,330.923,45.494z"/>
		</g>
		<g>
			<path d="M324.947,55.858c-0.363-0.197-0.498-0.653-0.301-1.018l5.477-10.083l-11.454-0.699c-0.413-0.025-0.729-0.381-0.703-0.794
				c0.026-0.413,0.385-0.728,0.795-0.704l12.629,0.771c0.257,0.016,0.486,0.161,0.61,0.385c0.124,0.224,0.125,0.497,0.003,0.722
				l-6.038,11.119c-0.07,0.13-0.175,0.231-0.295,0.298C325.453,55.975,325.182,55.985,324.947,55.858z"/>
		</g>
	</g>
</g>
</svg>
