<?xml version="1.0" encoding="utf-8"?>
<!-- Generator: Adobe Illustrator 16.0.0, SVG Export Plug-In . SVG Version: 6.00 Build 0)  -->
<!DOCTYPE svg PUBLIC "-//W3C//DTD SVG 1.1//EN" "http://www.w3.org/Graphics/SVG/1.1/DTD/svg11.dtd">
<svg version="1.1" id="Layer_1" xmlns="http://www.w3.org/2000/svg" xmlns:xlink="http://www.w3.org/1999/xlink" x="0px" y="0px"
	 width="400px" height="200px" viewBox="0 0 400 200" enable-background="new 0 0 400 200" xml:space="preserve">
<g>
	<g>
		<g>
			<g>
				<path fill-rule="evenodd" clip-rule="evenodd" fill="#ED6756" d="M33.032,38.724c0,0,0.048,0.184,0.098,0.539
					c0.05,0.354,0.107,0.88,0.145,1.563c0.075,1.366,0.068,3.363-0.243,5.885c-0.645,5.045-0.856,12.191,0,20.6
					c0.224,8.408,0.31,18.077,0,28.167c1.51,10.089-0.003,20.6,0,30.689c1.452,10.09-0.992,19.759,0,28.167
					c0.39,8.408-0.045,15.555,0,20.6c0.154,5.045,0,7.987,0,7.987H32c0,0-1.434-2.942-1.234-7.987c0.29-5.045,0.272-12.191,0-20.6
					c0.422-8.408-1.239-18.077,0-28.167c1.365-10.089-0.128-20.6,0-30.689c1.573-10.089,0.078-19.759,0-28.167
					c0.352-8.408-0.714-15.555,0-20.6C30.23,41.667,32,38.724,32,38.724S32.85,38.724,33.032,38.724z"/>
			</g>
			<g>
				<path fill="#ED6756" d="M39.2,48.975c-0.349,0.223-0.813,0.12-1.036-0.229L32,39.066l-6.164,9.679
					c-0.223,0.349-0.687,0.452-1.036,0.229s-0.45-0.689-0.23-1.035l6.797-10.672c0.138-0.216,0.376-0.347,0.633-0.347
					s0.495,0.131,0.633,0.347l6.797,10.672c0.079,0.124,0.117,0.264,0.117,0.402C39.547,48.589,39.424,48.831,39.2,48.975z"/>
			</g>
		</g>
	</g>
	<g>
		<g>
			<g>
				<path fill-rule="evenodd" clip-rule="evenodd" fill="#ED6756" d="M379.203,45.649c0,0-0.199,0.215-0.608,0.594
					c-0.41,0.379-1.026,0.928-1.852,1.612c-1.649,1.367-4.132,3.274-7.451,5.444c-6.653,4.321-15.65,10.997-25.56,19.727
					c-10.296,8.229-22.241,17.557-34.95,26.974c-11.597,10.857-25.562,19.725-38.079,29.389
					c-11.632,10.812-25.123,18.137-34.949,26.974c-10.194,8.36-19.328,14.86-25.56,19.727c-6.165,4.953-9.911,7.649-9.911,7.649
					l-0.631-0.817c0,0,2.775-3.953,9.157-8.626c6.437-4.602,15.293-11.46,25.56-19.728c10.69-7.718,21.673-18.292,34.949-26.973
					c13.354-8.581,25.482-19.828,38.079-29.389c13.48-8.417,24.564-18.86,34.949-26.974c10.648-7.773,18.864-15.46,25.561-19.727
					c5.933-5.254,10.665-6.672,10.665-6.672S379.092,45.505,379.203,45.649z"/>
			</g>
			<g>
				<path fill="#ED6756" d="M374.855,56.795c-0.389-0.14-0.591-0.571-0.45-0.96l3.896-10.793l-11.428,1.034
					c-0.413,0.037-0.778-0.268-0.815-0.68c-0.036-0.412,0.271-0.777,0.68-0.814l12.602-1.14c0.255-0.023,0.505,0.086,0.661,0.289
					s0.199,0.472,0.111,0.713l-4.295,11.901c-0.051,0.139-0.138,0.254-0.247,0.338C375.373,56.834,375.106,56.885,374.855,56.795z"
					/>
			</g>
		</g>
	</g>
	<g>
		<rect x="52" y="43.255" fill="#42B3C6" width="280.54" height="13.81"/>
		<g>
			<g>
				<path fill-rule="evenodd" clip-rule="evenodd" fill="#42B3C6" d="M330.476,57.064c0,0-0.046-0.306-0.098-0.904
					c-0.052-0.598-0.118-1.488-0.184-2.657c-0.066-1.169-0.133-2.617-0.185-4.329c-0.021-0.797-0.042-1.655-0.064-2.573
					c-0.018-0.234-0.028-0.468-0.032-0.718c-0.144,0-0.292,0-0.444,0c-0.304-0.005-0.616-0.011-0.938-0.017
					c-1.416-0.028-2.91-0.058-4.481-0.089c-3.141-0.087-6.585-0.232-10.311-0.457c-20.596-1.289-49.772-1.713-84.1,0
					c-34.326,0.448-73.802,0.62-114.994,0c-10.298,0.755-20.703,1.132-31.162,1.273c-5.229,0.071-10.472,0.082-15.722,0.053
					l-7.878-0.074l-3.941-0.056l-0.493-0.008c-0.09-0.002-0.038-0.005-0.064-0.008l-0.053-0.016l-0.136-0.034
					c-0.021,0.07-0.043,0.077-0.065,0.258l-0.071,3.453l-0.075,3.453l-0.079,0.546l0.446,0.072l2.799,0.074l6.141,0.146
					c4.091,0.091,8.175,0.181,12.249,0.271c8.148,0.163,16.256,0.277,24.298,0.276c41.191-2.904,80.667,1.984,114.993,0
					c34.327-0.78,63.504,0.09,84.1,0c20.596-0.309,32.61,0,32.61,0v2.064c0,0-12.015,2.868-32.61,2.469
					c-20.596-0.581-49.772-0.544-84.1,0c-34.327-0.843-73.802,2.479-114.993,0c-8.042-0.533-16.15-0.849-24.298-1.013
					c-4.074-0.082-8.158-0.126-12.249-0.141c-4.541,0.012-9.088,0.024-13.641,0.036l-0.079-8.255l-0.11-8.447l5.482-0.073
					l3.941-0.079l7.878-0.168c5.25-0.111,10.493-0.221,15.722-0.332c10.459-0.202,20.864-0.34,31.162-0.276
					c41.192,3.146,80.668,0.156,114.994,0c34.327,0.704,63.504-1.427,84.1,0c3.73-0.194,7.18-0.236,10.322-0.176
					c1.57,0.03,3.064,0.086,4.479,0.162c2.191,0.099,4.26,0.192,6.203,0.279c-0.096,1.933-0.202,3.677-0.314,5.221
					c-0.028,0.444-0.057,0.615-0.086,0.867c-0.029,0.239-0.059,0.474-0.087,0.704c-0.062,0.461-0.122,0.906-0.18,1.334
					c-0.243,1.713-0.494,3.16-0.723,4.329c-0.455,2.337-0.815,3.559-0.815,3.559S330.84,57.064,330.476,57.064z"/>
			</g>
		</g>
	</g>
	<g>
		<rect x="52" y="80.621" fill="#42B3C6" width="236.244" height="13.81"/>
		<g>
			<g>
				<path fill-rule="evenodd" clip-rule="evenodd" fill="#42B3C6" d="M286.18,94.431c0,0-0.053-0.308-0.111-0.909
					c-0.06-0.601-0.134-1.494-0.205-2.665c-0.072-1.171-0.141-2.62-0.188-4.331c-0.016-0.793-0.033-1.647-0.051-2.56
					c-0.011-0.227-0.013-0.458-0.005-0.721c-0.217-0.007-0.441-0.021-0.698-0.045c-0.983-0.033-2.011-0.067-3.08-0.102
					c-2.319-0.089-4.82-0.222-7.491-0.412c-17.496-1.289-42.282-1.713-71.443,0c-29.16,0.448-62.696,0.62-97.689,0
					c-8.748,0.755-17.588,1.132-26.473,1.273c-4.442,0.071-8.896,0.082-13.356,0.053l-6.692-0.074l-3.294-0.056
					c-0.048-0.021-0.116-0.042-0.208-0.066c-0.024,0.066-0.05,0.073-0.078,0.259l-0.085,3.453l-0.091,3.452l-0.095,0.604
					l0.389,0.069l0.113,0.018l0.063,0.009l0.31,0.009l1.24,0.035l4.955,0.138c3.301,0.084,6.596,0.168,9.883,0.252
					c6.575,0.149,13.117,0.253,19.61,0.252c34.993-2.904,68.528,1.984,97.689,0c29.161-0.78,53.947,0.09,71.443,0
					c17.497-0.309,27.703,0,27.703,0v2.064c0,0-10.206,2.868-27.703,2.469c-17.496-0.581-42.282-0.544-71.443,0
					c-29.162-0.843-62.696,2.479-97.689,0c-6.493-0.507-13.035-0.816-19.61-0.987c-3.287-0.085-6.582-0.135-9.883-0.158
					l-4.955-0.014l-6.294,0.022c-0.027-2.743-0.054-5.489-0.082-8.235l-0.126-8.448l4.862-0.073l3.375-0.079l6.692-0.168
					c4.46-0.111,8.914-0.221,13.356-0.332c8.885-0.202,17.725-0.34,26.473-0.276c34.993,3.146,68.529,0.156,97.689,0
					c29.161,0.704,53.947-1.427,71.443,0c2.69-0.165,5.209-0.22,7.531-0.196c0.581,0.011,1.149,0.022,1.706,0.032
					c0.653,0.021,1.292,0.04,1.917,0.06c1.857,0.048,3.577,0.112,5.124,0.188c-0.086,1.981-0.188,3.785-0.3,5.384
					c-0.028,0.464-0.057,0.63-0.086,0.883c-0.03,0.238-0.061,0.473-0.09,0.704c-0.064,0.46-0.127,0.905-0.188,1.334
					c-0.256,1.712-0.532,3.16-0.787,4.329c-0.511,2.338-0.935,3.562-0.935,3.562S286.544,94.431,286.18,94.431z"/>
			</g>
		</g>
	</g>
	<g>
		<rect x="52" y="117.987" fill="#42B3C6" width="184.566" height="13.81"/>
		<g>
			<g>
				<path fill-rule="evenodd" clip-rule="evenodd" fill="#42B3C6" d="M234.502,131.797c0,0-0.064-0.311-0.135-0.914
					c-0.07-0.604-0.158-1.502-0.236-2.675c-0.077-1.174-0.145-2.624-0.176-4.333c-0.005-0.789-0.01-1.638-0.015-2.545
					c0.006-0.226,0.024-0.47,0.06-0.776c-0.139-0.023-0.281-0.048-0.43-0.073l-0.255-0.049l-0.141-0.027l-0.473-0.029
					c-1.363-0.082-2.8-0.188-4.304-0.323c-13.881-1.288-33.544-1.714-56.679,0c-23.134,0.448-49.739,0.62-77.5,0
					c-6.94,0.755-13.953,1.133-21.002,1.273c-3.524,0.07-7.058,0.082-10.596,0.053l-5.31-0.073l-1.328-0.026l-0.583-0.015
					l-0.028-0.015c-0.042-0.021-0.101-0.043-0.179-0.066c-0.031,0.061-0.064,0.065-0.099,0.26l-0.111,3.454l-0.118,3.451
					l-0.122,0.704l0.316,0.063l0.184,0.031l0.098,0.016c0.031,0.006,0.038,0.011,0.234,0.016l3.572,0.123
					c2.379,0.073,4.754,0.146,7.124,0.219c4.738,0.129,9.455,0.214,14.138,0.213c27.761-2.904,54.365,1.984,77.5,0
					c23.134-0.78,42.798,0.09,56.679,0c13.881-0.309,21.978,0,21.978,0v2.064c0,0-8.097,2.867-21.978,2.469
					c-13.88-0.58-33.544-0.544-56.679,0c-23.135-0.844-49.739,2.479-77.5,0c-4.684-0.461-9.4-0.759-14.138-0.938
					c-2.37-0.089-4.745-0.147-7.124-0.183l-3.572-0.034l-4.89-0.002l-0.026-4.762l-0.049-3.451l-0.153-8.449l3.842-0.073
					l3.011-0.079l5.31-0.169c3.538-0.11,7.071-0.221,10.596-0.331c7.049-0.201,14.062-0.34,21.002-0.276
					c27.761,3.146,54.366,0.155,77.5,0c23.134,0.704,42.798-1.427,56.679,0c1.512-0.116,2.955-0.179,4.319-0.196
					c1.097,0.002,2.162,0.004,3.193,0.006c1.12,0.021,2.205,0.043,3.251,0.063c-0.054,2.005-0.135,3.873-0.235,5.545
					c-0.024,0.488-0.051,0.67-0.079,0.912c-0.028,0.237-0.057,0.472-0.085,0.701c-0.064,0.459-0.128,0.903-0.188,1.331
					c-0.263,1.71-0.574,3.159-0.872,4.332c-0.595,2.346-1.136,3.584-1.136,3.584S234.866,131.797,234.502,131.797z"/>
			</g>
		</g>
	</g>
	<g>
		<rect x="52" y="155.354" fill="#42B3C6" width="136.578" height="13.81"/>
		<g>
			<g>
				<path fill-rule="evenodd" clip-rule="evenodd" fill="#42B3C6" d="M186.514,169.163c0,0-0.082-0.314-0.169-0.924
					c-0.087-0.608-0.191-1.512-0.271-2.689s-0.135-2.63-0.124-4.336c0.007-0.427,0.014-0.869,0.021-1.327
					c0.007-0.229,0.014-0.462,0.021-0.698l0.013-0.358c0.005-0.137,0.01-0.089,0.016-0.144c0.063-0.307,0.13-0.633,0.201-0.979
					c-0.201-0.077-0.46-0.173-0.833-0.29l-0.194-0.06c-0.099-0.02-0.315-0.039-0.469-0.059c-0.338-0.037-0.679-0.075-1.025-0.113
					c-0.692-0.067-1.4-0.138-2.124-0.209c-1.449-0.132-2.963-0.247-4.539-0.344c-3.151-0.194-6.549-0.315-10.167-0.342
					c-7.234-0.053-15.346,0.27-24.115,1.126c-17.538,0.447-37.707,0.619-58.752,0c-5.262,0.755-10.578,1.133-15.922,1.273
					c-2.672,0.07-5.35,0.082-8.032,0.053l-4.025-0.073l-0.503-0.013l-0.119-0.004l-0.004-0.003l-0.009-0.007l-0.046-0.029
					c-0.037-0.021-0.086-0.043-0.151-0.066c-0.041,0.051-0.086,0.053-0.134,0.262l-0.151,3.454l-0.16,3.452
					c-0.054,0.286-0.108,0.514-0.161,0.856c0.147,0.035,0.32,0.07,0.515,0.104c0.107,0.017,0.18,0.033,0.33,0.05l1.143,0.048
					c1.523,0.056,3.044,0.112,4.561,0.168c3.035,0.096,6.056,0.157,9.059,0.156c21.045-2.904,41.214,1.984,58.752,0
					c17.538-0.78,32.445,0.09,42.968,0c10.523-0.31,16.661,0,16.661,0v2.063c0,0-6.138,2.868-16.661,2.47
					c-10.522-0.581-25.43-0.544-42.968,0c-17.538-0.843-37.707,2.479-58.752,0c-3.003-0.39-6.024-0.663-9.059-0.846
					c-1.517-0.092-3.038-0.16-4.561-0.21l-1.143-0.033l-1.587-0.027l-3.167-0.033l0.006-4.766l-0.041-3.452
					c-0.062-2.814-0.124-5.633-0.187-8.451l5.568-0.152l4.025-0.169c2.682-0.11,5.361-0.221,8.032-0.331
					c5.344-0.201,10.66-0.34,15.922-0.276c21.045,3.146,41.214,0.156,58.752,0c8.769,0.352,16.88-0.005,24.115-0.271
					c3.617-0.133,7.015-0.243,10.167-0.231c1.576,0.006,3.089,0.042,4.539,0.122c0.724,0.04,1.433,0.091,2.124,0.153
					c0.345,0.035,0.687,0.069,1.025,0.104l0.546,0.06l0.855,0.064c1.749-0.102,3.508-0.162,5.106-0.188
					c0.03,1.926,0.011,3.818-0.045,5.55l-0.023,0.586l-0.026,0.358c-0.021,0.237-0.042,0.47-0.062,0.699
					c-0.045,0.458-0.099,0.9-0.158,1.327c-0.238,1.707-0.578,3.158-0.925,4.335c-0.694,2.354-1.418,3.61-1.418,3.61
					S186.878,169.163,186.514,169.163z"/>
			</g>
		</g>
	</g>
	<text transform="matrix(1 0 0 1 27 24.0723)" fill="#ED6756" font-family="'ArchitectsDaughter'" font-size="14">+ anos de estudo</text>
	<text transform="matrix(1 0 0 1 306.9648 24.0723)" fill="#ED6756" font-family="'ArchitectsDaughter'" font-size="14">+ acesso</text>
</g>
</svg>
