<?xml version="1.0" encoding="utf-8"?>
<!-- Generator: Adobe Illustrator 16.0.0, SVG Export Plug-In . SVG Version: 6.00 Build 0)  -->
<!DOCTYPE svg PUBLIC "-//W3C//DTD SVG 1.1//EN" "http://www.w3.org/Graphics/SVG/1.1/DTD/svg11.dtd">
<svg version="1.1" id="Layer_1" xmlns="http://www.w3.org/2000/svg" xmlns:xlink="http://www.w3.org/1999/xlink" x="0px" y="0px"
	 width="400px" height="170px" viewBox="0 0 400 170" enable-background="new 0 0 400 170" xml:space="preserve">
<g enable-background="new    ">
	<path fill="#ED6756" d="M273.748,146.212c-0.019-0.246-0.041-0.526-0.068-0.841s-0.062-0.641-0.103-0.978s-0.096-0.67-0.164-0.998
		s-0.148-0.624-0.239-0.889c-0.237,0-0.472,0.029-0.704,0.089s-0.465,0.123-0.697,0.191s-0.47,0.135-0.711,0.198
		s-0.49,0.101-0.745,0.109c-0.137,0-0.265-0.032-0.383-0.096c-0.119-0.063-0.178-0.183-0.178-0.355c0-0.137,0.084-0.239,0.253-0.308
		s0.38-0.121,0.636-0.157c0.255-0.036,0.528-0.063,0.82-0.082c0.291-0.019,0.564-0.041,0.82-0.068
		c0.255-0.027,0.467-0.068,0.636-0.123s0.253-0.137,0.253-0.246v-2.83c0-0.082,0.022-0.144,0.068-0.185
		c0.045-0.041,0.1-0.073,0.164-0.096c0.063-0.022,0.13-0.036,0.198-0.041s0.12-0.007,0.157-0.007c0.2,0,0.33,0.034,0.39,0.103
		s0.111,0.234,0.157,0.499c0.018,0.082,0.043,0.232,0.075,0.451s0.063,0.449,0.096,0.69s0.06,0.47,0.082,0.684
		s0.038,0.362,0.048,0.444h3.746c0,0.173-0.075,0.312-0.226,0.417s-0.347,0.185-0.588,0.239s-0.506,0.089-0.793,0.103
		s-0.569,0.022-0.848,0.027s-0.533,0.012-0.766,0.021s-0.408,0.027-0.526,0.055c-0.046,0.273-0.051,0.579-0.014,0.916
		c0.036,0.337,0.082,0.682,0.137,1.032s0.103,0.702,0.144,1.053s0.043,0.677,0.007,0.978c-0.055,0.046-0.142,0.094-0.26,0.144
		c-0.119,0.05-0.239,0.087-0.362,0.109s-0.232,0.019-0.328-0.014S273.775,146.34,273.748,146.212z"/>
	<path fill="#ED6756" d="M292.93,144.229c-0.265,0.41-0.57,0.781-0.916,1.114c-0.347,0.333-0.727,0.615-1.142,0.848
		s-0.866,0.403-1.354,0.513s-1.001,0.142-1.538,0.096c-0.191,0-0.396-0.022-0.615-0.068s-0.422-0.118-0.608-0.219
		s-0.34-0.232-0.458-0.396c-0.119-0.164-0.178-0.369-0.178-0.615c-0.101-0.511-0.08-1.027,0.062-1.552s0.362-1.03,0.663-1.518
		s0.67-0.938,1.107-1.354s0.904-0.766,1.401-1.053s1.007-0.494,1.531-0.622s1.032-0.146,1.524-0.055
		c0.373,0,0.665,0.123,0.875,0.369c0.209,0.246,0.367,0.574,0.472,0.984s0.171,0.882,0.198,1.415s0.05,1.082,0.068,1.647
		c0.018,0.565,0.043,1.123,0.075,1.675s0.103,1.055,0.212,1.511h-1.012c-0.046-0.31-0.08-0.583-0.103-0.82s-0.044-0.458-0.062-0.663
		c-0.019-0.205-0.043-0.403-0.075-0.595S292.984,144.467,292.93,144.229z M291.891,140.579c-0.355-0.027-0.723,0.021-1.101,0.144
		s-0.743,0.296-1.094,0.52s-0.679,0.487-0.984,0.793s-0.572,0.622-0.8,0.95c-0.229,0.328-0.403,0.654-0.526,0.978
		s-0.173,0.622-0.15,0.896s0.125,0.506,0.308,0.697c0.182,0.191,0.465,0.319,0.848,0.383c0.547-0.009,1.073-0.148,1.579-0.417
		s0.957-0.602,1.354-0.998s0.727-0.825,0.991-1.285c0.264-0.46,0.436-0.887,0.513-1.278s0.043-0.72-0.103-0.984
		C292.578,140.711,292.301,140.579,291.891,140.579z"/>
	<path fill="#ED6756" d="M295.021,144.366c-0.037-0.419,0.041-0.836,0.232-1.251s0.458-0.812,0.8-1.189s0.743-0.729,1.203-1.053
		s0.945-0.6,1.456-0.827c0.51-0.228,1.027-0.398,1.552-0.513s1.019-0.148,1.483-0.103c0.173,0,0.346,0.009,0.52,0.027
		c0.173,0.019,0.326,0.063,0.458,0.137s0.239,0.178,0.321,0.314s0.123,0.323,0.123,0.561c0,0.118-0.029,0.224-0.089,0.314
		s-0.132,0.178-0.219,0.26s-0.181,0.155-0.28,0.219c-0.101,0.063-0.191,0.128-0.273,0.191c-0.027-0.128-0.055-0.248-0.082-0.362
		s-0.07-0.214-0.13-0.301s-0.137-0.155-0.232-0.205s-0.222-0.075-0.376-0.075c-0.538,0.109-1.119,0.275-1.743,0.499
		s-1.198,0.49-1.723,0.8s-0.946,0.658-1.265,1.046c-0.319,0.388-0.442,0.805-0.369,1.251c0,0.401,0.077,0.725,0.232,0.971
		c0.154,0.246,0.357,0.438,0.608,0.574s0.538,0.228,0.861,0.273s0.653,0.068,0.991,0.068c0.52,0,1.023-0.077,1.511-0.232
		s0.964-0.328,1.429-0.52s0.92-0.364,1.367-0.52c0.446-0.155,0.884-0.232,1.312-0.232c0.072,0,0.148,0.005,0.226,0.014
		s0.146,0.034,0.205,0.075s0.101,0.101,0.123,0.178s0.021,0.185-0.007,0.321c-0.046,0.164-0.207,0.328-0.485,0.492
		s-0.62,0.319-1.025,0.465s-0.848,0.282-1.326,0.41s-0.943,0.237-1.395,0.328s-0.856,0.162-1.217,0.212s-0.627,0.075-0.8,0.075
		c-0.401,0-0.834-0.046-1.299-0.137s-0.896-0.241-1.292-0.451s-0.728-0.485-0.991-0.827
		C295.153,145.303,295.021,144.877,295.021,144.366z"/>
	<path fill="#ED6756" d="M306.096,144.817c-0.082-0.738-0.012-1.458,0.212-2.16s0.561-1.321,1.012-1.859s0.995-0.964,1.634-1.278
		c0.638-0.314,1.335-0.463,2.092-0.444c0.127,0,0.299,0.019,0.513,0.055s0.442,0.094,0.684,0.171s0.479,0.176,0.711,0.294
		s0.438,0.26,0.615,0.424s0.312,0.349,0.403,0.554c0.091,0.205,0.113,0.436,0.068,0.69c-0.374,0.265-0.805,0.446-1.292,0.547
		s-0.984,0.171-1.49,0.212s-1.001,0.077-1.483,0.109c-0.483,0.032-0.904,0.116-1.265,0.253s-0.638,0.354-0.834,0.649
		s-0.258,0.723-0.185,1.278c0.137,0.501,0.362,0.87,0.677,1.107s0.679,0.381,1.094,0.431s0.856,0.027,1.326-0.068
		s0.93-0.221,1.381-0.376s0.872-0.319,1.265-0.492c0.392-0.173,0.715-0.314,0.971-0.424c0.118,0,0.219,0.043,0.301,0.13
		s0.123,0.189,0.123,0.308c-0.229,0.392-0.574,0.743-1.039,1.053s-0.989,0.561-1.572,0.752c-0.584,0.191-1.191,0.31-1.825,0.355
		s-1.229,0-1.784-0.137c-0.557-0.137-1.044-0.378-1.463-0.725C306.523,145.879,306.241,145.41,306.096,144.817z M310.922,140.101
		c-0.164,0-0.365,0.019-0.602,0.055c-0.237,0.036-0.465,0.101-0.684,0.191s-0.408,0.21-0.567,0.355s-0.239,0.333-0.239,0.561
		l3.391-0.561c-0.146-0.219-0.335-0.374-0.567-0.465S311.177,140.101,310.922,140.101z"/>
	<path fill="#ED6756" d="M317.553,146.786c0.646-0.21,1.251-0.456,1.812-0.738s1.03-0.561,1.408-0.834s0.634-0.526,0.766-0.759
		s0.096-0.408-0.109-0.526s-0.608-0.157-1.21-0.116s-1.454,0.198-2.557,0.472c-0.328-0.009-0.622-0.073-0.882-0.191
		s-0.481-0.265-0.663-0.438c-0.183-0.173-0.321-0.362-0.417-0.567s-0.144-0.403-0.144-0.595c0-0.301,0.103-0.6,0.308-0.896
		s0.48-0.576,0.827-0.841c0.346-0.265,0.747-0.504,1.203-0.718c0.455-0.214,0.934-0.388,1.436-0.52
		c0.501-0.132,1.014-0.219,1.538-0.26s1.027-0.016,1.511,0.075c0.273,0,0.433,0.121,0.479,0.362
		c0.045,0.241,0.068,0.631,0.068,1.169c-0.374-0.173-0.777-0.296-1.21-0.369s-0.868-0.101-1.306-0.082s-0.861,0.08-1.271,0.185
		s-0.772,0.251-1.087,0.438s-0.572,0.417-0.772,0.69c-0.201,0.273-0.306,0.583-0.314,0.93c0,0.191,0.075,0.316,0.226,0.376
		s0.328,0.087,0.533,0.082s0.419-0.027,0.643-0.068s0.403-0.062,0.54-0.062c1.23-0.265,2.188-0.374,2.871-0.328
		s1.144,0.191,1.381,0.438c0.236,0.246,0.273,0.562,0.109,0.95s-0.48,0.795-0.95,1.224s-1.064,0.846-1.784,1.251
		c-0.721,0.405-1.518,0.75-2.393,1.032c-0.046,0-0.096-0.034-0.15-0.103s-0.111-0.148-0.171-0.239s-0.112-0.178-0.157-0.26
		C317.616,146.868,317.58,146.813,317.553,146.786z"/>
	<path fill="#ED6756" d="M326.344,146.786c0.646-0.21,1.251-0.456,1.812-0.738s1.03-0.561,1.408-0.834s0.634-0.526,0.766-0.759
		s0.096-0.408-0.109-0.526s-0.608-0.157-1.21-0.116s-1.454,0.198-2.557,0.472c-0.328-0.009-0.622-0.073-0.882-0.191
		s-0.481-0.265-0.663-0.438c-0.183-0.173-0.321-0.362-0.417-0.567s-0.144-0.403-0.144-0.595c0-0.301,0.103-0.6,0.308-0.896
		s0.48-0.576,0.827-0.841c0.346-0.265,0.747-0.504,1.203-0.718c0.455-0.214,0.934-0.388,1.436-0.52
		c0.501-0.132,1.014-0.219,1.538-0.26s1.027-0.016,1.511,0.075c0.273,0,0.433,0.121,0.479,0.362
		c0.045,0.241,0.068,0.631,0.068,1.169c-0.374-0.173-0.777-0.296-1.21-0.369s-0.868-0.101-1.306-0.082s-0.861,0.08-1.271,0.185
		s-0.772,0.251-1.087,0.438s-0.572,0.417-0.772,0.69c-0.201,0.273-0.306,0.583-0.314,0.93c0,0.191,0.075,0.316,0.226,0.376
		s0.328,0.087,0.533,0.082s0.419-0.027,0.643-0.068s0.403-0.062,0.54-0.062c1.23-0.265,2.188-0.374,2.871-0.328
		s1.144,0.191,1.381,0.438c0.236,0.246,0.273,0.562,0.109,0.95s-0.48,0.795-0.95,1.224s-1.064,0.846-1.784,1.251
		c-0.721,0.405-1.518,0.75-2.393,1.032c-0.046,0-0.096-0.034-0.15-0.103s-0.111-0.148-0.171-0.239s-0.112-0.178-0.157-0.26
		C326.407,146.868,326.371,146.813,326.344,146.786z"/>
	<path fill="#ED6756" d="M333.658,143.819c0-0.747,0.164-1.388,0.492-1.921s0.742-0.978,1.244-1.333
		c0.501-0.355,1.048-0.627,1.641-0.813c0.592-0.187,1.157-0.308,1.695-0.362c0.52-0.027,1.007,0.039,1.463,0.198
		c0.455,0.159,0.848,0.385,1.176,0.677s0.581,0.638,0.759,1.039s0.243,0.825,0.198,1.271c0,0.747-0.148,1.401-0.444,1.962
		s-0.69,1.03-1.183,1.408s-1.064,0.661-1.716,0.848s-1.333,0.28-2.044,0.28c-1.076,0-1.892-0.251-2.447-0.752
		C333.936,145.82,333.658,144.986,333.658,143.819z M334.834,144.229c0,0.383,0.048,0.688,0.144,0.916s0.237,0.398,0.424,0.513
		s0.415,0.189,0.684,0.226s0.581,0.055,0.937,0.055c0.547,0,1.075-0.053,1.586-0.157c0.51-0.104,0.961-0.282,1.354-0.533
		c0.392-0.251,0.706-0.583,0.943-0.998c0.236-0.415,0.355-0.932,0.355-1.552c0-0.319-0.046-0.622-0.137-0.909
		c-0.092-0.287-0.229-0.538-0.41-0.752c-0.183-0.214-0.406-0.385-0.67-0.513c-0.265-0.128-0.565-0.191-0.902-0.191
		c-0.447,0.073-0.894,0.157-1.34,0.253c-0.447,0.096-0.866,0.269-1.258,0.52c-0.393,0.251-0.738,0.62-1.039,1.107
		S334.979,143.373,334.834,144.229z"/>
</g>
<g enable-background="new    ">
	<path fill="#ED6756" d="M271.014,158.336c0.009-0.019,0.104-0.039,0.287-0.062c0.182-0.022,0.414-0.05,0.697-0.082
		c0.282-0.032,0.604-0.068,0.964-0.109s0.729-0.082,1.107-0.123s0.752-0.084,1.121-0.13s0.704-0.091,1.005-0.137
		c0.182-0.055,0.321-0.055,0.417,0s0.152,0.137,0.171,0.246c0.018,0.109,0.002,0.226-0.048,0.349s-0.13,0.221-0.239,0.294
		l-4.977,0.67c-0.055,0-0.125,0.002-0.212,0.007s-0.176,0-0.267-0.014c-0.092-0.014-0.171-0.041-0.239-0.082
		s-0.112-0.111-0.13-0.212L271.014,158.336z M270.781,160.893c0-0.046,0.036-0.104,0.109-0.178c0.072-0.073,0.132-0.109,0.178-0.109
		c0.455-0.073,0.854-0.135,1.196-0.185s0.656-0.091,0.943-0.123s0.561-0.062,0.82-0.089s0.528-0.06,0.807-0.096
		s0.576-0.082,0.896-0.137c0.318-0.055,0.688-0.123,1.107-0.205c0.264,0,0.436,0.084,0.513,0.253s0.093,0.371,0.048,0.608
		c-0.647,0-1.217,0.046-1.709,0.137s-0.969,0.189-1.429,0.294s-0.933,0.2-1.415,0.287c-0.483,0.087-1.035,0.13-1.654,0.13
		c-0.137,0-0.239-0.041-0.308-0.123S270.781,161.12,270.781,160.893z"/>
	<path fill="#ED6756" d="M292.369,161.029c-0.265,0.41-0.57,0.781-0.916,1.114c-0.347,0.333-0.727,0.615-1.142,0.848
		s-0.866,0.403-1.354,0.513s-1.001,0.142-1.538,0.096c-0.191,0-0.396-0.022-0.615-0.068s-0.422-0.118-0.608-0.219
		s-0.34-0.232-0.458-0.396c-0.119-0.164-0.178-0.369-0.178-0.615c-0.101-0.511-0.08-1.027,0.062-1.552s0.362-1.03,0.663-1.518
		s0.67-0.938,1.107-1.354s0.904-0.766,1.401-1.053s1.007-0.494,1.531-0.622s1.032-0.146,1.524-0.055
		c0.373,0,0.665,0.123,0.875,0.369c0.209,0.246,0.367,0.574,0.472,0.984s0.171,0.882,0.198,1.415s0.05,1.082,0.068,1.647
		c0.018,0.565,0.043,1.123,0.075,1.675s0.103,1.055,0.212,1.511h-1.012c-0.046-0.31-0.08-0.583-0.103-0.82s-0.044-0.458-0.062-0.663
		c-0.019-0.205-0.043-0.403-0.075-0.595S292.424,161.267,292.369,161.029z M291.33,157.379c-0.355-0.027-0.723,0.021-1.101,0.144
		s-0.743,0.296-1.094,0.52s-0.679,0.487-0.984,0.793s-0.572,0.622-0.8,0.95c-0.229,0.328-0.403,0.654-0.526,0.978
		s-0.173,0.622-0.15,0.896s0.125,0.506,0.308,0.697c0.182,0.191,0.465,0.319,0.848,0.383c0.547-0.009,1.073-0.148,1.579-0.417
		s0.957-0.602,1.354-0.998s0.727-0.825,0.991-1.285c0.264-0.46,0.436-0.887,0.513-1.278s0.043-0.72-0.103-0.984
		C292.018,157.511,291.74,157.379,291.33,157.379z"/>
	<path fill="#ED6756" d="M300.996,157.133c0.063-0.146-0.005-0.23-0.205-0.253c-0.201-0.022-0.475-0.002-0.82,0.062
		c-0.347,0.063-0.734,0.164-1.162,0.301c-0.429,0.137-0.836,0.299-1.224,0.485s-0.725,0.395-1.012,0.622s-0.463,0.456-0.526,0.684
		l-0.014,4.648h-1.135c-0.055-0.128-0.098-0.33-0.13-0.608s-0.058-0.606-0.075-0.984c-0.019-0.378-0.029-0.788-0.034-1.23
		s-0.003-0.889,0.007-1.34c0.009-0.451,0.022-0.894,0.041-1.326c0.018-0.433,0.039-0.827,0.062-1.183s0.046-0.654,0.068-0.896
		s0.048-0.403,0.075-0.485c0.1-0.073,0.214-0.142,0.342-0.205c0.127-0.063,0.255-0.096,0.383-0.096
		c0.164,0.009,0.275,0.116,0.335,0.321s0.089,0.438,0.089,0.697s-0.016,0.513-0.048,0.759s-0.048,0.415-0.048,0.506
		c0.947-0.702,1.764-1.212,2.447-1.531s1.26-0.487,1.729-0.506s0.845,0.091,1.128,0.328c0.282,0.237,0.501,0.565,0.656,0.984
		c0.154,0.419,0.258,0.909,0.308,1.47s0.079,1.15,0.089,1.771c0.009,0.62,0.009,1.251,0,1.894c-0.01,0.643,0,1.256,0.027,1.839
		c-0.109,0.055-0.185,0.087-0.226,0.096s-0.087,0.007-0.137-0.007s-0.116-0.029-0.198-0.048s-0.21-0.032-0.383-0.041
		c-0.109-0.446-0.171-0.957-0.185-1.531s-0.017-1.162-0.007-1.764c0.009-0.602,0.004-1.198-0.014-1.791
		C301.183,158.181,301.114,157.634,300.996,157.133z"/>
	<path fill="#ED6756" d="M310.02,161.029c-0.265,0.41-0.57,0.781-0.916,1.114c-0.347,0.333-0.727,0.615-1.142,0.848
		s-0.866,0.403-1.354,0.513s-1.001,0.142-1.538,0.096c-0.191,0-0.396-0.022-0.615-0.068s-0.422-0.118-0.608-0.219
		s-0.34-0.232-0.458-0.396c-0.119-0.164-0.178-0.369-0.178-0.615c-0.101-0.511-0.08-1.027,0.062-1.552s0.362-1.03,0.663-1.518
		s0.67-0.938,1.107-1.354s0.904-0.766,1.401-1.053s1.007-0.494,1.531-0.622s1.032-0.146,1.524-0.055
		c0.373,0,0.665,0.123,0.875,0.369c0.209,0.246,0.367,0.574,0.472,0.984s0.171,0.882,0.198,1.415s0.05,1.082,0.068,1.647
		c0.018,0.565,0.043,1.123,0.075,1.675s0.103,1.055,0.212,1.511h-1.012c-0.046-0.31-0.08-0.583-0.103-0.82s-0.044-0.458-0.062-0.663
		c-0.019-0.205-0.043-0.403-0.075-0.595S310.074,161.267,310.02,161.029z M308.98,157.379c-0.355-0.027-0.723,0.021-1.101,0.144
		s-0.743,0.296-1.094,0.52s-0.679,0.487-0.984,0.793s-0.572,0.622-0.8,0.95c-0.229,0.328-0.403,0.654-0.526,0.978
		s-0.173,0.622-0.15,0.896s0.125,0.506,0.308,0.697c0.182,0.191,0.465,0.319,0.848,0.383c0.547-0.009,1.073-0.148,1.579-0.417
		s0.957-0.602,1.354-0.998s0.727-0.825,0.991-1.285c0.264-0.46,0.436-0.887,0.513-1.278s0.043-0.72-0.103-0.984
		C309.668,157.511,309.391,157.379,308.98,157.379z"/>
	<path fill="#ED6756" d="M312.125,152.785c0.1-0.137,0.198-0.267,0.294-0.39s0.234-0.185,0.417-0.185
		c0.118,0,0.228,0.142,0.328,0.424c0.1,0.282,0.187,0.658,0.26,1.128c0.072,0.47,0.137,1.005,0.191,1.606s0.1,1.226,0.137,1.873
		c0.036,0.647,0.066,1.292,0.089,1.935s0.041,1.23,0.055,1.764s0.022,0.991,0.027,1.374s0.007,0.643,0.007,0.779
		c0,0.164-0.034,0.296-0.103,0.396s-0.155,0.18-0.26,0.239s-0.224,0.098-0.355,0.116s-0.258,0.027-0.376,0.027
		c-0.019,0-0.043-0.002-0.075-0.007s-0.053-0.007-0.062-0.007c0-0.237-0.007-0.6-0.021-1.087s-0.03-1.039-0.048-1.654
		c-0.019-0.615-0.037-1.263-0.055-1.941c-0.019-0.679-0.039-1.326-0.062-1.941s-0.046-1.167-0.068-1.654s-0.039-0.85-0.048-1.087
		c0-0.063-0.012-0.178-0.034-0.342s-0.048-0.337-0.075-0.52s-0.057-0.354-0.089-0.513S312.143,152.849,312.125,152.785z"/>
	<path fill="#ED6756" d="M315.379,161.029c-0.073,0-0.148-0.034-0.226-0.103s-0.148-0.155-0.212-0.26
		c-0.064-0.104-0.116-0.221-0.157-0.349s-0.062-0.246-0.062-0.355l2.598-0.93c-0.155-1.304-0.256-2.442-0.301-3.418
		c-0.046-0.976-0.046-1.81,0-2.502c0.045-0.692,0.137-1.263,0.273-1.709s0.314-0.8,0.533-1.06s0.479-0.438,0.779-0.533
		s0.633-0.144,0.998-0.144c0.337,0,0.736,0.096,1.196,0.287s0.902,0.438,1.326,0.738s0.784,0.636,1.08,1.005
		s0.444,0.731,0.444,1.087c0,0.027-0.002,0.068-0.007,0.123s-0.012,0.111-0.021,0.171c-0.01,0.06-0.019,0.116-0.027,0.171
		c-0.01,0.055-0.019,0.091-0.027,0.109c-0.201-0.265-0.442-0.549-0.725-0.854c-0.283-0.306-0.593-0.586-0.93-0.841
		c-0.338-0.255-0.693-0.467-1.066-0.636c-0.374-0.169-0.748-0.253-1.121-0.253c-0.383,0-0.675,0.135-0.875,0.403
		c-0.201,0.269-0.344,0.595-0.431,0.978s-0.135,0.777-0.144,1.183c-0.01,0.405-0.014,0.745-0.014,1.019
		c0,0.757,0.022,1.495,0.068,2.215c0.045,0.72,0.182,1.444,0.41,2.174c0.492,0,0.982-0.029,1.47-0.089s0.979-0.123,1.477-0.191
		s1-0.135,1.511-0.198c0.51-0.063,1.029-0.101,1.559-0.109c0.027,0,0.048,0.034,0.062,0.103s0.021,0.157,0.021,0.267
		s0.002,0.228,0.007,0.355s0.016,0.251,0.034,0.369l-5.865,0.711l0.314,3.787l-1.395-0.055c0-0.602-0.029-1.191-0.089-1.771
		s-0.14-1.164-0.239-1.757L315.379,161.029z"/>
	<path fill="#ED6756" d="M332.059,161.029c-0.265,0.41-0.57,0.781-0.916,1.114c-0.347,0.333-0.727,0.615-1.142,0.848
		s-0.866,0.403-1.354,0.513s-1.001,0.142-1.538,0.096c-0.191,0-0.396-0.022-0.615-0.068s-0.422-0.118-0.608-0.219
		s-0.34-0.232-0.458-0.396c-0.119-0.164-0.178-0.369-0.178-0.615c-0.101-0.511-0.08-1.027,0.062-1.552s0.362-1.03,0.663-1.518
		s0.67-0.938,1.107-1.354s0.904-0.766,1.401-1.053s1.007-0.494,1.531-0.622s1.032-0.146,1.524-0.055
		c0.373,0,0.665,0.123,0.875,0.369c0.209,0.246,0.367,0.574,0.472,0.984s0.171,0.882,0.198,1.415s0.05,1.082,0.068,1.647
		c0.018,0.565,0.043,1.123,0.075,1.675s0.103,1.055,0.212,1.511h-1.012c-0.046-0.31-0.08-0.583-0.103-0.82s-0.044-0.458-0.062-0.663
		c-0.019-0.205-0.043-0.403-0.075-0.595S332.113,161.267,332.059,161.029z M331.02,157.379c-0.355-0.027-0.723,0.021-1.101,0.144
		s-0.743,0.296-1.094,0.52s-0.679,0.487-0.984,0.793s-0.572,0.622-0.8,0.95c-0.229,0.328-0.403,0.654-0.526,0.978
		s-0.173,0.622-0.15,0.896s0.125,0.506,0.308,0.697c0.182,0.191,0.465,0.319,0.848,0.383c0.547-0.009,1.073-0.148,1.579-0.417
		s0.957-0.602,1.354-0.998s0.727-0.825,0.991-1.285c0.264-0.46,0.436-0.887,0.513-1.278s0.043-0.72-0.103-0.984
		C331.707,157.511,331.43,157.379,331.02,157.379z"/>
	<path fill="#ED6756" d="M337.021,163.736c-0.064-0.019-0.178-0.022-0.342-0.014s-0.36,0.014-0.588,0.014
		c-0.229,0-0.48-0.014-0.759-0.041s-0.563-0.087-0.854-0.178c-0.046-0.52-0.08-1.089-0.103-1.709s-0.036-1.267-0.041-1.941
		s-0.005-1.365,0-2.071s0.009-1.403,0.014-2.092s0.005-1.355,0-2.003s-0.017-1.253-0.034-1.818
		c-0.037-0.255,0.016-0.438,0.157-0.547s0.301-0.164,0.479-0.164s0.339,0.048,0.485,0.144c0.146,0.096,0.205,0.226,0.178,0.39
		l0.109,7.383c0.355-0.465,0.791-0.907,1.306-1.326s1.05-0.779,1.606-1.08c0.556-0.301,1.111-0.526,1.668-0.677
		c0.556-0.15,1.053-0.187,1.49-0.109s0.793,0.287,1.066,0.629s0.41,0.846,0.41,1.511c0,0.456-0.105,0.894-0.314,1.312
		c-0.21,0.419-0.488,0.818-0.834,1.196c-0.347,0.378-0.738,0.731-1.176,1.06s-0.889,0.627-1.354,0.896s-0.921,0.508-1.367,0.718
		C337.777,163.427,337.377,163.6,337.021,163.736z M342.271,158.199c-0.073-0.337-0.226-0.583-0.458-0.738s-0.515-0.232-0.848-0.232
		s-0.697,0.068-1.094,0.205s-0.796,0.323-1.196,0.561c-0.401,0.237-0.786,0.515-1.155,0.834s-0.69,0.665-0.964,1.039
		s-0.48,0.766-0.622,1.176s-0.189,0.82-0.144,1.23c-0.046,0.146,0.039,0.23,0.253,0.253s0.511-0.016,0.889-0.116
		s0.809-0.265,1.292-0.492c0.482-0.228,0.973-0.518,1.47-0.868s0.973-0.764,1.429-1.237
		C341.578,159.339,341.961,158.801,342.271,158.199z"/>
	<path fill="#ED6756" d="M343.98,161.617c-0.082-0.738-0.012-1.458,0.212-2.16s0.561-1.321,1.012-1.859s0.995-0.964,1.634-1.278
		c0.638-0.314,1.335-0.463,2.092-0.444c0.127,0,0.299,0.019,0.513,0.055s0.442,0.094,0.684,0.171s0.479,0.176,0.711,0.294
		s0.438,0.26,0.615,0.424s0.312,0.349,0.403,0.554c0.091,0.205,0.113,0.436,0.068,0.69c-0.374,0.265-0.805,0.446-1.292,0.547
		s-0.984,0.171-1.49,0.212s-1.001,0.077-1.483,0.109c-0.483,0.032-0.904,0.116-1.265,0.253s-0.638,0.354-0.834,0.649
		s-0.258,0.723-0.185,1.278c0.137,0.501,0.362,0.87,0.677,1.107s0.679,0.381,1.094,0.431s0.856,0.027,1.326-0.068
		s0.93-0.221,1.381-0.376s0.872-0.319,1.265-0.492c0.392-0.173,0.715-0.314,0.971-0.424c0.118,0,0.219,0.043,0.301,0.13
		s0.123,0.189,0.123,0.308c-0.229,0.392-0.574,0.743-1.039,1.053s-0.989,0.561-1.572,0.752c-0.584,0.191-1.191,0.31-1.825,0.355
		s-1.229,0-1.784-0.137c-0.557-0.137-1.044-0.378-1.463-0.725C344.408,162.679,344.126,162.21,343.98,161.617z M348.807,156.9
		c-0.164,0-0.365,0.019-0.602,0.055c-0.237,0.036-0.465,0.101-0.684,0.191s-0.408,0.21-0.567,0.355s-0.239,0.333-0.239,0.561
		l3.391-0.561c-0.146-0.219-0.335-0.374-0.567-0.465S349.062,156.9,348.807,156.9z"/>
	<path fill="#ED6756" d="M353.373,158.377l-0.027-1.176h2.557v-4.416c0.036-0.109,0.103-0.21,0.198-0.301s0.198-0.159,0.308-0.205
		s0.223-0.053,0.342-0.021c0.118,0.032,0.219,0.116,0.301,0.253c0.091,0.374,0.154,0.75,0.191,1.128
		c0.036,0.378,0.059,0.757,0.068,1.135c0.009,0.378,0.016,0.757,0.021,1.135s0.021,0.75,0.048,1.114
		c0.173-0.027,0.373-0.043,0.602-0.048c0.228-0.005,0.458-0.009,0.69-0.014s0.46-0.009,0.684-0.014s0.426-0.016,0.608-0.034
		l-0.055,1.23l-2.488-0.068c-0.01,0.565-0.01,1.087,0,1.565c0.009,0.479,0.021,0.945,0.034,1.401s0.024,0.921,0.034,1.395
		c0.009,0.474,0.014,0.989,0.014,1.545c-0.374,0.164-0.658,0.18-0.854,0.048s-0.335-0.354-0.417-0.663s-0.123-0.688-0.123-1.135
		s0.007-0.904,0.021-1.374s0.021-0.923,0.021-1.36s-0.041-0.812-0.123-1.121H353.373z"/>
	<path fill="#ED6756" d="M360.564,153.51c0-0.21,0.059-0.36,0.178-0.451c0.118-0.091,0.26-0.144,0.424-0.157
		s0.328,0.002,0.492,0.048s0.282,0.101,0.355,0.164c0.082,0.301,0.068,0.52-0.041,0.656s-0.253,0.212-0.431,0.226
		s-0.362-0.025-0.554-0.116S360.655,153.665,360.564,153.51z M362.15,155.834c0.082,1.121,0.154,2.312,0.219,3.575
		c0.063,1.263,0.118,2.536,0.164,3.821c-0.046,0.183-0.139,0.314-0.28,0.396s-0.294,0.125-0.458,0.13s-0.316-0.021-0.458-0.075
		s-0.23-0.128-0.267-0.219v-7.629H362.15z"/>
	<path fill="#ED6756" d="M365.172,163.586c0.646-0.21,1.251-0.456,1.812-0.738s1.03-0.561,1.408-0.834s0.634-0.526,0.766-0.759
		s0.096-0.408-0.109-0.526s-0.608-0.157-1.21-0.116s-1.454,0.198-2.557,0.472c-0.328-0.009-0.622-0.073-0.882-0.191
		s-0.481-0.265-0.663-0.438c-0.183-0.173-0.321-0.362-0.417-0.567s-0.144-0.403-0.144-0.595c0-0.301,0.103-0.6,0.308-0.896
		s0.48-0.576,0.827-0.841c0.346-0.265,0.747-0.504,1.203-0.718c0.455-0.214,0.934-0.388,1.436-0.52
		c0.501-0.132,1.014-0.219,1.538-0.26s1.027-0.016,1.511,0.075c0.273,0,0.433,0.121,0.479,0.362
		c0.045,0.241,0.068,0.631,0.068,1.169c-0.374-0.173-0.777-0.296-1.21-0.369s-0.868-0.101-1.306-0.082s-0.861,0.08-1.271,0.185
		s-0.772,0.251-1.087,0.438s-0.572,0.417-0.772,0.69c-0.201,0.273-0.306,0.583-0.314,0.93c0,0.191,0.075,0.316,0.226,0.376
		s0.328,0.087,0.533,0.082s0.419-0.027,0.643-0.068s0.403-0.062,0.54-0.062c1.23-0.265,2.188-0.374,2.871-0.328
		s1.144,0.191,1.381,0.438c0.236,0.246,0.273,0.562,0.109,0.95s-0.48,0.795-0.95,1.224s-1.064,0.846-1.784,1.251
		c-0.721,0.405-1.518,0.75-2.393,1.032c-0.046,0-0.096-0.034-0.15-0.103s-0.111-0.148-0.171-0.239s-0.112-0.178-0.157-0.26
		C365.235,163.668,365.199,163.613,365.172,163.586z"/>
	<path fill="#ED6756" d="M372.049,163.586c-0.01-0.374,0.002-0.846,0.034-1.415s0.06-1.181,0.082-1.832s0.032-1.308,0.027-1.969
		s-0.039-1.265-0.103-1.812c0-0.21,0.072-0.354,0.219-0.431c0.146-0.077,0.318-0.116,0.52-0.116c0.072,0,0.135,0.089,0.185,0.267
		s0.091,0.383,0.123,0.615s0.062,0.463,0.089,0.69s0.055,0.392,0.082,0.492c0.146-0.273,0.378-0.52,0.697-0.738
		c0.318-0.219,0.674-0.39,1.066-0.513c0.392-0.123,0.795-0.196,1.21-0.219s0.795,0.021,1.142,0.13
		c0.346,0.109,0.629,0.289,0.848,0.54s0.328,0.59,0.328,1.019c0.146-0.273,0.4-0.545,0.766-0.813
		c0.364-0.269,0.777-0.506,1.237-0.711s0.937-0.364,1.429-0.479s0.941-0.159,1.347-0.137s0.735,0.13,0.991,0.321
		c0.255,0.191,0.378,0.492,0.369,0.902l0.369,6.357c0,0.019-0.075,0.043-0.226,0.075s-0.317,0.053-0.499,0.062
		c-0.183,0.009-0.352,0.002-0.506-0.021c-0.155-0.022-0.232-0.08-0.232-0.171c-0.019-0.501-0.014-1.027,0.014-1.579
		s0.043-1.109,0.048-1.675s-0.014-1.123-0.055-1.675s-0.144-1.073-0.308-1.565c-0.265,0.019-0.559,0.057-0.882,0.116
		s-0.649,0.164-0.978,0.314s-0.645,0.364-0.95,0.643s-0.577,0.651-0.813,1.121c-0.237,0.47-0.431,1.044-0.581,1.723
		s-0.226,1.497-0.226,2.454c-0.046,0.155-0.152,0.255-0.321,0.301s-0.345,0.06-0.526,0.041c-0.183-0.019-0.34-0.062-0.472-0.13
		s-0.185-0.139-0.157-0.212c0.082-0.474,0.15-0.894,0.205-1.258s0.091-0.702,0.109-1.012c0.018-0.31,0.021-0.602,0.007-0.875
		s-0.044-0.554-0.089-0.841c-0.046-0.287-0.107-0.593-0.185-0.916s-0.171-0.695-0.28-1.114c-0.611,0-1.133,0.084-1.565,0.253
		s-0.793,0.396-1.08,0.684s-0.511,0.627-0.67,1.019s-0.276,0.812-0.349,1.258c-0.073,0.446-0.109,0.911-0.109,1.395
		s0.018,0.962,0.055,1.436c-0.146,0.055-0.308,0.116-0.485,0.185s-0.354,0.103-0.526,0.103c-0.101,0-0.178-0.019-0.232-0.055
		S372.121,163.704,372.049,163.586z"/>
	<path fill="#ED6756" d="M386.104,160.619c0-0.747,0.164-1.388,0.492-1.921s0.742-0.978,1.244-1.333
		c0.501-0.355,1.048-0.627,1.641-0.813c0.592-0.187,1.157-0.308,1.695-0.362c0.52-0.027,1.007,0.039,1.463,0.198
		c0.455,0.159,0.848,0.385,1.176,0.677s0.581,0.638,0.759,1.039s0.243,0.825,0.198,1.271c0,0.747-0.148,1.401-0.444,1.962
		s-0.69,1.03-1.183,1.408s-1.064,0.661-1.716,0.848s-1.333,0.28-2.044,0.28c-1.076,0-1.892-0.251-2.447-0.752
		C386.381,162.62,386.104,161.786,386.104,160.619z M387.279,161.029c0,0.383,0.048,0.688,0.144,0.916s0.237,0.398,0.424,0.513
		s0.415,0.189,0.684,0.226s0.581,0.055,0.937,0.055c0.547,0,1.075-0.053,1.586-0.157c0.51-0.104,0.961-0.282,1.354-0.533
		c0.392-0.251,0.706-0.583,0.943-0.998c0.236-0.415,0.355-0.932,0.355-1.552c0-0.319-0.046-0.622-0.137-0.909
		c-0.092-0.287-0.229-0.538-0.41-0.752c-0.183-0.214-0.406-0.385-0.67-0.513c-0.265-0.128-0.565-0.191-0.902-0.191
		c-0.447,0.073-0.894,0.157-1.34,0.253c-0.447,0.096-0.866,0.269-1.258,0.52c-0.393,0.251-0.738,0.62-1.039,1.107
		S387.425,160.173,387.279,161.029z"/>
</g>
<g>
	<g>
		<g>
			<path fill="#42B3C6" d="M332.165,6.945c0,0-0.097,0.057-0.292,0.143s-0.489,0.209-0.878,0.36
				c-0.777,0.302-1.938,0.717-3.465,1.185c-3.055,0.935-7.574,2.078-13.435,2.936c-11.73,1.671-28.002,5.395-46.599,11.921
				c-18.908,5.299-40.739,11.062-63.716,16.3c-22.075,8.765-46.6,11.916-69.422,17.76c-22.104,8.653-45.188,9.512-63.716,16.3
				c-18.826,5.622-35.208,8.915-46.598,11.921C12.71,88.99,5.976,90.395,5.976,90.395l-0.512-2c0,0,5.946-4.481,17.457-7.015
				c11.556-2.357,27.713-6.528,46.598-11.921c19.229-4.049,40.278-12.863,63.716-16.3c23.501-3.193,46.535-12.168,69.422-17.76
				c23.604-2.792,44.735-11.284,63.717-16.3c19.194-4.184,34.832-10.384,46.598-11.921c11.146-3.956,18.682-2.23,18.682-2.23
				S332.075,6.593,332.165,6.945z"/>
		</g>
	</g>
</g>
<g>
	<g>
		<g>
			<path fill="#ED6756" d="M324.673,21.679c0,0-0.137,0.085-0.41,0.207c-0.272,0.122-0.683,0.286-1.225,0.462
				c-1.083,0.354-2.694,0.759-4.805,0.979c-4.228,0.416-10.04,1.684-16.606,4.248c-6.723,1.951-14.496,4.028-22.707,5.808
				c-7.76,3.544-16.605,4.246-24.74,6.329c-7.772,3.487-16.174,3.113-22.705,5.808c-6.683,2.112-12.552,3.164-16.606,4.248
				c-4.029,1.19-6.438,1.647-6.438,1.647l-0.257-1c0,0,2.019-1.996,6.134-2.843c4.139-0.759,9.896-2.25,16.605-4.248
				c6.883-1.325,14.268-4.928,22.707-5.808c8.473-0.758,16.574-4.372,24.74-6.329c8.522-0.557,15.947-3.999,22.707-5.808
				c6.864-1.393,12.361-3.899,16.605-4.248c3.935-1.558,6.745-0.451,6.745-0.451S324.628,21.503,324.673,21.679z"/>
		</g>
		<g>
			<path fill="#ED6756" d="M316.27,30.195c-0.303-0.282-0.316-0.758-0.033-1.06l7.85-8.371l-10.904-3.573
				c-0.394-0.129-0.608-0.553-0.479-0.946c0.129-0.393,0.556-0.606,0.946-0.479l12.022,3.94c0.243,0.08,0.43,0.278,0.493,0.527
				s-0.004,0.512-0.18,0.699l-8.654,9.229c-0.102,0.107-0.228,0.179-0.361,0.213C316.729,30.436,316.464,30.376,316.27,30.195z"/>
		</g>
	</g>
</g>
<g>
	<g>
		<g>
			<path fill="#C8C8B4" d="M344.507,114.617c0.001,0.006-0.104,0.033-0.312,0.076s-0.519,0.1-0.928,0.164
				c-0.817,0.127-2.03,0.285-3.61,0.416c-3.159,0.261-7.784,0.41-13.647-0.006c-11.729-0.877-28.297-0.721-47.71,1.678
				c-19.458,1.132-41.847,2.092-65.236,2.294c-23.262,3.841-47.709,1.672-71.078,2.499c-23.266,3.725-45.832-0.373-65.236,2.295
				c-19.446,1.464-36.029,1.177-47.709,1.678c-11.673,0.721-18.5,0.65-18.5,0.65l-0.073-2.062c0,0,6.715-3.105,18.413-3.119
				c11.704,0.17,28.255-0.449,47.709-1.678c19.503,0.158,41.781-3.949,65.236-2.294c23.464,1.908,47.701-1.933,71.077-2.499
				c23.479,2.32,45.77-1.454,65.236-2.294c19.498,0.019,35.976-2.692,47.709-1.679c11.646-1.479,18.587,1.818,18.587,1.818
				S344.494,114.253,344.507,114.617z"/>
		</g>
	</g>
</g>
<g>
	<g>
		<g>
			<path fill="#ED6756" d="M329.799,90.936c0,0-0.148,0.054-0.439,0.113c-0.291,0.061-0.724,0.133-1.285,0.189
				c-1.125,0.113-2.773,0.166-4.866-0.072c-4.187-0.497-10.092-0.502-17.001,0.598c-6.932,0.469-14.908,0.834-23.246,0.817
				c-8.273,1.802-17.001,0.595-25.328,0.892c-8.275,1.742-16.342-0.42-23.246,0.815c-6.925,0.634-12.839,0.405-17,0.598
				c-4.158,0.302-6.593,0.231-6.593,0.231l-0.036-1.031c0,0,2.379-1.52,6.549-1.465c4.174,0.145,10.071-0.082,17.002-0.598
				c6.953,0.177,14.875-1.765,23.246-0.817c8.375,1.071,16.995-0.726,25.327-0.892c8.382,1.279,16.31-0.494,23.246-0.815
				c6.951,0.106,12.812-1.165,17.001-0.599c4.146-0.68,6.635,1.002,6.635,1.002S329.793,90.753,329.799,90.936z"/>
		</g>
		<g>
			<path fill="#ED6756" d="M319.771,97.459c-0.234-0.341-0.147-0.809,0.192-1.044l9.457-6.5l-9.89-5.82
				c-0.357-0.21-0.478-0.67-0.268-1.027c0.211-0.356,0.674-0.474,1.027-0.266l10.904,6.419c0.221,0.129,0.359,0.363,0.369,0.619
				c0.009,0.256-0.113,0.499-0.325,0.645l-10.428,7.168c-0.12,0.084-0.26,0.127-0.396,0.132
				C320.169,97.792,319.922,97.678,319.771,97.459z"/>
		</g>
	</g>
</g>
</svg>
