<?xml version="1.0" encoding="utf-8"?>
<!-- Generator: Adobe Illustrator 16.0.0, SVG Export Plug-In . SVG Version: 6.00 Build 0)  -->
<!DOCTYPE svg PUBLIC "-//W3C//DTD SVG 1.1//EN" "http://www.w3.org/Graphics/SVG/1.1/DTD/svg11.dtd">
<svg version="1.1" id="Layer_1" xmlns="http://www.w3.org/2000/svg" xmlns:xlink="http://www.w3.org/1999/xlink" x="0px" y="0px"
	 width="400px" height="140px" viewBox="0 0 400 140" enable-background="new 0 0 400 140" xml:space="preserve">
<text transform="matrix(1 0 0 1 269.5781 104.3555)"><tspan x="0" y="0" fill="#ED6756" font-family="'ArchitectsDaughter'" font-size="14">+ acesso</tspan><tspan x="0" y="16.8" fill="#ED6756" font-family="'ArchitectsDaughter'" font-size="14">+ analfabetismo</tspan></text>
<g>
	<g>
		<g>
			<path fill-rule="evenodd" clip-rule="evenodd" fill="#42B3C6" d="M332.165,11.172c0,0-0.097,0.057-0.292,0.143
				c-0.195,0.086-0.489,0.209-0.878,0.36c-0.777,0.302-1.938,0.717-3.465,1.185c-3.054,0.935-7.574,2.078-13.434,2.936
				c-11.731,1.671-28.003,5.395-46.599,11.921c-18.908,5.299-40.739,11.062-63.716,16.3c-22.075,8.765-46.6,11.916-69.422,17.76
				c-22.104,8.653-45.188,9.512-63.716,16.301c-18.826,5.621-35.208,8.914-46.598,11.921c-11.335,3.219-18.069,4.622-18.069,4.622
				l-0.512-2c0,0,5.946-4.48,17.457-7.015c11.556-2.356,27.713-6.527,46.598-11.921c19.229-4.048,40.278-12.862,63.716-16.3
				c23.501-3.193,46.535-12.168,69.422-17.76c23.604-2.792,44.735-11.284,63.717-16.3c19.194-4.184,34.832-10.384,46.598-11.921
				c11.146-3.956,18.681-2.23,18.681-2.23S332.075,10.819,332.165,11.172z"/>
		</g>
	</g>
</g>
<g>
	<g>
		<g>
			<path fill-rule="evenodd" clip-rule="evenodd" fill="#ED6756" d="M324.673,25.906c0,0-0.137,0.085-0.41,0.207
				s-0.683,0.286-1.225,0.462c-1.083,0.354-2.694,0.759-4.805,0.979c-4.227,0.416-10.04,1.684-16.606,4.248
				c-6.723,1.951-14.496,4.028-22.707,5.808c-7.76,3.544-16.606,4.246-24.74,6.329c-7.773,3.487-16.174,3.113-22.706,5.808
				c-6.682,2.112-12.551,3.164-16.606,4.248c-4.029,1.19-6.439,1.647-6.439,1.647l-0.256-1c0,0,2.018-1.996,6.134-2.843
				c4.139-0.759,9.896-2.25,16.605-4.248c6.883-1.325,14.267-4.928,22.707-5.808c8.473-0.758,16.575-4.372,24.74-6.329
				c8.523-0.557,15.948-3.999,22.707-5.808c6.865-1.393,12.362-3.899,16.606-4.248c3.934-1.558,6.745-0.451,6.745-0.451
				S324.628,25.729,324.673,25.906z"/>
		</g>
		<g>
			<path fill="#ED6756" d="M316.27,34.421c-0.303-0.282-0.317-0.758-0.034-1.06l7.85-8.371l-10.904-3.573
				c-0.394-0.129-0.609-0.553-0.479-0.946c0.129-0.393,0.556-0.606,0.946-0.479l12.023,3.94c0.243,0.08,0.43,0.278,0.493,0.527
				s-0.004,0.512-0.18,0.699l-8.654,9.229c-0.102,0.107-0.228,0.179-0.361,0.213C316.729,34.662,316.464,34.603,316.27,34.421z"/>
		</g>
	</g>
</g>
<g>
	<g>
		<g>
			<path fill-rule="evenodd" clip-rule="evenodd" fill="#C8C8B4" d="M332.165,47.077c0,0-0.097,0.057-0.292,0.143
				c-0.195,0.086-0.489,0.209-0.878,0.36c-0.777,0.302-1.938,0.717-3.465,1.185c-3.054,0.935-7.574,2.078-13.434,2.936
				c-11.731,1.671-28.003,5.395-46.599,11.921c-18.908,5.299-40.739,11.062-63.716,16.3c-22.075,8.766-46.6,11.916-69.422,17.76
				c-22.104,8.652-45.188,9.512-63.716,16.301c-18.826,5.621-35.208,8.914-46.598,11.921c-11.335,3.219-18.069,4.622-18.069,4.622
				l-0.512-2c0,0,5.946-4.48,17.457-7.015c11.556-2.356,27.713-6.527,46.598-11.921c19.229-4.049,40.278-12.862,63.716-16.3
				c23.501-3.193,46.535-12.168,69.422-17.76c23.604-2.792,44.735-11.284,63.717-16.3c19.194-4.184,34.832-10.384,46.598-11.921
				c11.146-3.956,18.681-2.23,18.681-2.23S332.075,46.725,332.165,47.077z"/>
		</g>
	</g>
</g>
<g>
	<g>
		<g>
			<path fill-rule="evenodd" clip-rule="evenodd" fill="#ED6756" d="M324.673,61.81c0,0-0.137,0.085-0.41,0.207
				s-0.683,0.286-1.225,0.462c-1.083,0.354-2.694,0.76-4.805,0.979c-4.227,0.416-10.04,1.684-16.606,4.248
				c-6.723,1.951-14.496,4.028-22.707,5.809c-7.759,3.543-16.606,4.245-24.74,6.328c-7.773,3.487-16.174,3.113-22.706,5.809
				c-6.682,2.112-12.551,3.164-16.606,4.248c-4.029,1.19-6.439,1.647-6.439,1.647l-0.256-1c0,0,2.017-1.996,6.133-2.843
				c4.14-0.76,9.896-2.251,16.606-4.248c6.883-1.326,14.267-4.929,22.707-5.809c8.473-0.758,16.575-4.372,24.74-6.329
				c8.523-0.557,15.948-4,22.707-5.809c6.865-1.393,12.362-3.899,16.606-4.248c3.934-1.559,6.745-0.451,6.745-0.451
				S324.628,61.634,324.673,61.81z"/>
		</g>
		<g>
			<path fill="#ED6756" d="M316.27,70.326c-0.302-0.283-0.317-0.758-0.034-1.061l7.85-8.371l-10.904-3.573
				c-0.394-0.129-0.609-0.554-0.479-0.946c0.129-0.393,0.556-0.607,0.946-0.479l12.023,3.94c0.243,0.08,0.43,0.278,0.493,0.527
				s-0.004,0.512-0.18,0.699l-8.654,9.229c-0.102,0.107-0.228,0.179-0.36,0.213C316.729,70.566,316.464,70.507,316.27,70.326z"/>
		</g>
	</g>
</g>
</svg>
