<?xml version="1.0" encoding="utf-8"?>
<!-- Generator: Adobe Illustrator 16.0.0, SVG Export Plug-In . SVG Version: 6.00 Build 0)  -->
<!DOCTYPE svg PUBLIC "-//W3C//DTD SVG 1.1//EN" "http://www.w3.org/Graphics/SVG/1.1/DTD/svg11.dtd">
<svg version="1.1" id="Layer_1" xmlns="http://www.w3.org/2000/svg" xmlns:xlink="http://www.w3.org/1999/xlink" x="0px" y="0px"
	 width="400px" height="170px" viewBox="0 0 400 170" enable-background="new 0 0 400 170" xml:space="preserve">
<text transform="matrix(1 0 0 1 269.5781 147.0596)"><tspan x="0" y="0" fill="#ED6756" font-family="'ArchitectsDaughter'" font-size="14">+ acesso</tspan><tspan x="0" y="16.8" fill="#ED6756" font-family="'ArchitectsDaughter'" font-size="14">= analfabetismo</tspan></text>
<g>
	<g>
		<g>
			<path fill-rule="evenodd" clip-rule="evenodd" fill="#42B3C6" d="M332.165,6.945c0,0-0.097,0.057-0.292,0.143
				c-0.195,0.086-0.489,0.209-0.878,0.36c-0.777,0.302-1.938,0.717-3.465,1.185c-3.054,0.935-7.574,2.078-13.434,2.936
				c-11.731,1.671-28.003,5.395-46.599,11.921c-18.908,5.299-40.739,11.062-63.716,16.3c-22.075,8.765-46.6,11.916-69.422,17.76
				c-22.104,8.653-45.188,9.512-63.716,16.3c-18.826,5.622-35.208,8.915-46.598,11.921c-11.335,3.219-18.069,4.623-18.069,4.623
				l-0.512-2c0,0,5.946-4.481,17.457-7.014c11.556-2.357,27.713-6.528,46.598-11.921c19.229-4.049,40.278-12.863,63.716-16.3
				c23.501-3.193,46.535-12.168,69.422-17.76c23.604-2.792,44.735-11.284,63.717-16.3c19.194-4.184,34.832-10.384,46.598-11.921
				c11.146-3.956,18.681-2.23,18.681-2.23S332.075,6.593,332.165,6.945z"/>
		</g>
	</g>
</g>
<g>
	<g>
		<g>
			<path fill-rule="evenodd" clip-rule="evenodd" fill="#ED6756" d="M324.673,21.679c0,0-0.137,0.085-0.41,0.207
				s-0.683,0.286-1.225,0.462c-1.083,0.354-2.694,0.759-4.805,0.979c-4.227,0.416-10.04,1.684-16.606,4.248
				c-6.723,1.951-14.496,4.028-22.707,5.808c-7.76,3.544-16.606,4.246-24.74,6.329c-7.773,3.487-16.174,3.113-22.706,5.808
				c-6.682,2.112-12.551,3.164-16.606,4.248c-4.029,1.19-6.439,1.647-6.439,1.647l-0.256-1c0,0,2.018-1.996,6.134-2.843
				c4.139-0.759,9.896-2.25,16.605-4.248c6.883-1.325,14.267-4.928,22.707-5.808c8.473-0.758,16.575-4.372,24.74-6.329
				c8.523-0.557,15.948-3.999,22.707-5.808c6.865-1.393,12.362-3.899,16.606-4.248c3.934-1.558,6.745-0.451,6.745-0.451
				S324.628,21.503,324.673,21.679z"/>
		</g>
		<g>
			<path fill="#ED6756" d="M316.27,30.195c-0.303-0.282-0.317-0.758-0.034-1.06l7.85-8.371l-10.904-3.573
				c-0.394-0.129-0.609-0.553-0.479-0.946c0.129-0.393,0.556-0.606,0.946-0.479l12.023,3.94c0.243,0.08,0.43,0.278,0.493,0.527
				s-0.004,0.512-0.18,0.699l-8.654,9.229c-0.102,0.107-0.228,0.179-0.361,0.213C316.729,30.436,316.464,30.376,316.27,30.195z"/>
		</g>
	</g>
</g>
<g>
	<g>
		<g>
			<path fill-rule="evenodd" clip-rule="evenodd" fill="#C8C8B4" d="M344.507,114.617c0.001,0.006-0.105,0.034-0.313,0.076
				c-0.208,0.043-0.518,0.1-0.927,0.164c-0.818,0.128-2.031,0.286-3.611,0.416c-3.159,0.261-7.784,0.41-13.647-0.006
				c-11.729-0.877-28.297-0.72-47.71,1.678c-19.458,1.132-41.847,2.092-65.236,2.294c-23.262,3.841-47.71,1.672-71.078,2.499
				c-23.266,3.725-45.832-0.373-65.236,2.295c-19.446,1.464-36.029,1.177-47.709,1.678c-11.673,0.72-18.5,0.65-18.5,0.65
				l-0.073-2.062c0,0,6.715-3.106,18.413-3.119c11.704,0.17,28.255-0.449,47.709-1.678c19.503,0.158,41.781-3.949,65.236-2.294
				c23.464,1.908,47.701-1.933,71.078-2.499c23.479,2.321,45.769-1.454,65.236-2.294c19.498,0.019,35.975-2.693,47.709-1.678
				c11.646-1.48,18.587,1.817,18.587,1.817S344.494,114.253,344.507,114.617z"/>
		</g>
	</g>
</g>
<g>
	<g>
		<g>
			<path fill-rule="evenodd" clip-rule="evenodd" fill="#ED6756" d="M329.799,90.935c0,0-0.149,0.054-0.44,0.114
				c-0.291,0.06-0.723,0.133-1.285,0.189c-1.125,0.114-2.773,0.166-4.866-0.072c-4.187-0.497-10.092-0.502-17.001,0.598
				c-6.931,0.468-14.908,0.834-23.246,0.817c-8.273,1.802-17.001,0.595-25.328,0.891c-8.275,1.743-16.342-0.419-23.246,0.816
				c-6.925,0.634-12.839,0.406-17,0.598c-4.158,0.301-6.593,0.231-6.593,0.231l-0.036-1.031c0,0,2.378-1.519,6.549-1.465
				c4.174,0.144,10.071-0.082,17.001-0.598c6.954,0.177,14.875-1.764,23.246-0.817c8.375,1.072,16.996-0.726,25.328-0.891
				c8.382,1.279,16.31-0.495,23.246-0.816c6.951,0.107,12.812-1.165,17.001-0.598c4.145-0.681,6.635,1.002,6.635,1.002
				S329.793,90.753,329.799,90.935z"/>
		</g>
		<g>
			<path fill="#ED6756" d="M319.771,97.459c-0.234-0.341-0.147-0.809,0.193-1.044l9.457-6.5l-9.89-5.82
				c-0.357-0.21-0.477-0.67-0.267-1.027c0.211-0.356,0.674-0.474,1.027-0.266l10.904,6.418c0.221,0.13,0.36,0.364,0.369,0.62
				s-0.113,0.499-0.325,0.645l-10.427,7.168c-0.121,0.083-0.26,0.126-0.397,0.131C320.169,97.792,319.922,97.678,319.771,97.459z"/>
		</g>
	</g>
</g>
</svg>
