<?xml version="1.0" encoding="utf-8"?>
<!-- Generator: Adobe Illustrator 16.0.0, SVG Export Plug-In . SVG Version: 6.00 Build 0)  -->
<!DOCTYPE svg PUBLIC "-//W3C//DTD SVG 1.1//EN" "http://www.w3.org/Graphics/SVG/1.1/DTD/svg11.dtd">
<svg version="1.1" id="Layer_1" xmlns="http://www.w3.org/2000/svg" xmlns:xlink="http://www.w3.org/1999/xlink" x="0px" y="0px"
	 width="400px" height="200px" viewBox="0 0 400 200" enable-background="new 0 0 400 200" xml:space="preserve">
<g>
	<g>
		<g>
			<g>
				<path fill="#ED6756" d="M33.032,38.724c0,0,0.048,0.184,0.098,0.539c0.05,0.354,0.107,0.88,0.145,1.563
					c0.075,1.366,0.068,3.363-0.243,5.885c-0.645,5.045-0.856,12.191,0,20.6c0.224,8.408,0.31,18.077,0,28.167
					c1.51,10.088-0.003,20.6,0,30.689c1.452,10.09-0.992,19.759,0,28.167c0.39,8.408-0.045,15.555,0,20.6
					c0.154,5.045,0,7.987,0,7.987H32c0,0-1.434-2.942-1.234-7.987c0.29-5.045,0.272-12.19,0-20.6c0.422-8.408-1.239-18.077,0-28.167
					c1.365-10.089-0.128-20.601,0-30.689c1.573-10.089,0.078-19.759,0-28.167c0.352-8.408-0.714-15.555,0-20.6
					C30.23,41.667,32,38.724,32,38.724S32.85,38.724,33.032,38.724z"/>
			</g>
			<g>
				<path fill="#ED6756" d="M39.2,48.975c-0.349,0.223-0.813,0.12-1.036-0.229L32,39.066l-6.164,9.679
					c-0.223,0.349-0.687,0.452-1.036,0.229c-0.349-0.223-0.45-0.689-0.23-1.035l6.797-10.672c0.138-0.216,0.376-0.347,0.633-0.347
					s0.495,0.131,0.633,0.347l6.797,10.672c0.079,0.124,0.117,0.264,0.117,0.402C39.547,48.589,39.424,48.831,39.2,48.975z"/>
			</g>
		</g>
	</g>
	<g>
		<g>
			<g>
				<path fill="#ED6756" d="M379.203,45.649c0,0-0.199,0.215-0.608,0.594c-0.41,0.379-1.025,0.928-1.852,1.612
					c-1.649,1.367-4.132,3.274-7.451,5.444c-6.653,4.321-15.65,10.997-25.56,19.727c-10.297,8.229-22.241,17.557-34.95,26.974
					c-11.597,10.857-25.562,19.725-38.079,29.389c-11.633,10.812-25.123,18.137-34.949,26.975
					c-10.193,8.359-19.328,14.859-25.561,19.727c-6.164,4.953-9.91,7.649-9.91,7.649l-0.631-0.817c0,0,2.775-3.953,9.157-8.626
					c6.438-4.603,15.293-11.46,25.561-19.728c10.689-7.719,21.673-18.293,34.949-26.973c13.354-8.582,25.481-19.828,38.079-29.39
					c13.479-8.417,24.563-18.86,34.948-26.974c10.648-7.773,18.864-15.46,25.562-19.727c5.933-5.254,10.665-6.672,10.665-6.672
					S379.092,45.505,379.203,45.649z"/>
			</g>
			<g>
				<path fill="#ED6756" d="M374.855,56.795c-0.39-0.14-0.592-0.571-0.45-0.96l3.896-10.793l-11.428,1.034
					c-0.413,0.037-0.778-0.268-0.815-0.68c-0.036-0.412,0.271-0.777,0.681-0.814l12.602-1.14c0.255-0.023,0.505,0.086,0.661,0.289
					s0.199,0.472,0.111,0.713l-4.295,11.901c-0.052,0.139-0.139,0.254-0.247,0.338C375.373,56.834,375.106,56.885,374.855,56.795z"
					/>
			</g>
		</g>
	</g>
	<g>
		<rect x="52" y="43.255" fill="#42B3C6" width="280.54" height="13.81"/>
		<g>
			<g>
				<path fill="#42B3C6" d="M330.476,57.064c0,0-0.046-0.306-0.098-0.904c-0.052-0.598-0.118-1.488-0.184-2.657
					c-0.066-1.169-0.134-2.617-0.186-4.329c-0.021-0.797-0.042-1.655-0.063-2.573c-0.019-0.234-0.028-0.468-0.032-0.718
					c-0.145,0-0.292,0-0.444,0c-0.304-0.005-0.615-0.011-0.938-0.017c-1.416-0.028-2.91-0.058-4.481-0.089
					c-3.141-0.087-6.585-0.232-10.311-0.457c-20.597-1.289-49.772-1.713-84.101,0c-34.326,0.448-73.802,0.62-114.994,0
					c-10.298,0.755-20.703,1.132-31.162,1.273c-5.229,0.071-10.472,0.082-15.722,0.053l-7.878-0.074l-3.941-0.056l-0.493-0.008
					c-0.09-0.002-0.038-0.005-0.064-0.008l-0.053-0.016l-0.136-0.034c-0.021,0.07-0.043,0.077-0.065,0.258l-0.071,3.453
					l-0.075,3.453l-0.079,0.546l0.446,0.072l2.799,0.074l6.141,0.146c4.091,0.091,8.175,0.181,12.249,0.271
					c8.148,0.163,16.256,0.277,24.298,0.276c41.191-2.904,80.667,1.984,114.993,0c34.327-0.78,63.504,0.09,84.1,0
					c20.597-0.309,32.61,0,32.61,0v2.064c0,0-12.015,2.868-32.61,2.469c-20.596-0.581-49.771-0.544-84.1,0
					c-34.327-0.843-73.802,2.479-114.993,0c-8.042-0.533-16.15-0.849-24.298-1.013c-4.074-0.082-8.158-0.126-12.249-0.141
					c-4.541,0.012-9.088,0.024-13.641,0.036l-0.079-8.255l-0.11-8.447l5.482-0.073l3.941-0.079l7.878-0.168
					c5.25-0.111,10.493-0.221,15.722-0.332c10.459-0.202,20.864-0.34,31.162-0.276c41.192,3.146,80.668,0.156,114.994,0
					c34.328,0.704,63.504-1.427,84.101,0c3.729-0.194,7.18-0.236,10.322-0.176c1.569,0.03,3.063,0.086,4.479,0.162
					c2.191,0.099,4.26,0.192,6.203,0.279c-0.096,1.933-0.202,3.677-0.314,5.221c-0.027,0.444-0.057,0.615-0.086,0.867
					c-0.028,0.239-0.059,0.474-0.087,0.704c-0.062,0.461-0.122,0.906-0.18,1.334c-0.243,1.713-0.494,3.16-0.723,4.329
					c-0.455,2.337-0.815,3.559-0.815,3.559S330.84,57.064,330.476,57.064z"/>
			</g>
		</g>
	</g>
	<g>
		<rect x="52" y="80.621" fill="#42B3C6" width="236.244" height="13.81"/>
		<g>
			<g>
				<path fill="#42B3C6" d="M286.18,94.431c0,0-0.053-0.308-0.111-0.909c-0.06-0.601-0.133-1.494-0.204-2.665
					c-0.072-1.171-0.142-2.62-0.188-4.331c-0.016-0.793-0.033-1.647-0.051-2.56c-0.011-0.227-0.014-0.458-0.005-0.721
					c-0.218-0.007-0.44-0.021-0.698-0.045c-0.982-0.033-2.011-0.067-3.08-0.102c-2.318-0.089-4.82-0.222-7.49-0.412
					c-17.496-1.289-42.283-1.713-71.443,0c-29.16,0.448-62.696,0.62-97.689,0c-8.748,0.755-17.588,1.132-26.473,1.273
					c-4.442,0.071-8.896,0.082-13.356,0.053l-6.692-0.074l-3.294-0.056c-0.048-0.021-0.116-0.042-0.208-0.066
					c-0.024,0.066-0.05,0.073-0.078,0.259l-0.085,3.453l-0.091,3.452l-0.095,0.604l0.389,0.069l0.113,0.018l0.063,0.009l0.31,0.009
					l1.24,0.035l4.955,0.138c3.301,0.084,6.596,0.168,9.883,0.252c6.575,0.149,13.117,0.253,19.61,0.252
					c34.993-2.904,68.528,1.984,97.689,0c29.161-0.78,53.947,0.09,71.443,0c17.497-0.309,27.703,0,27.703,0v2.064
					c0,0-10.206,2.868-27.703,2.469c-17.496-0.581-42.282-0.544-71.443,0c-29.162-0.843-62.696,2.479-97.689,0
					c-6.493-0.507-13.035-0.816-19.61-0.987c-3.287-0.085-6.582-0.135-9.883-0.158l-4.955-0.014l-6.294,0.022
					c-0.027-2.743-0.054-5.489-0.082-8.235l-0.126-8.448l4.862-0.073l3.375-0.079l6.692-0.168c4.46-0.111,8.914-0.221,13.356-0.332
					c8.885-0.202,17.725-0.34,26.473-0.276c34.993,3.146,68.529,0.156,97.689,0c29.161,0.704,53.946-1.427,71.442,0
					c2.69-0.165,5.209-0.22,7.531-0.196c0.581,0.011,1.149,0.022,1.706,0.032c0.653,0.021,1.292,0.04,1.917,0.06
					c1.857,0.048,3.577,0.112,5.124,0.188c-0.086,1.981-0.188,3.785-0.3,5.384c-0.028,0.464-0.057,0.63-0.086,0.883
					c-0.03,0.238-0.061,0.473-0.09,0.704c-0.064,0.46-0.127,0.905-0.188,1.334c-0.256,1.712-0.532,3.16-0.786,4.329
					c-0.512,2.338-0.936,3.562-0.936,3.562S286.544,94.431,286.18,94.431z"/>
			</g>
		</g>
	</g>
	<g>
		<rect x="52" y="117.986" fill="#42B3C6" width="184.566" height="13.811"/>
		<g>
			<g>
				<path fill="#42B3C6" d="M234.502,131.797c0,0-0.064-0.311-0.135-0.914s-0.158-1.502-0.236-2.675
					c-0.076-1.174-0.145-2.624-0.176-4.333c-0.005-0.789-0.01-1.639-0.016-2.545c0.006-0.227,0.024-0.471,0.061-0.775
					c-0.139-0.023-0.281-0.049-0.43-0.074l-0.256-0.049l-0.141-0.027l-0.473-0.028c-1.363-0.082-2.801-0.188-4.305-0.323
					c-13.881-1.287-33.543-1.714-56.679,0c-23.134,0.448-49.739,0.62-77.5,0c-6.94,0.756-13.953,1.133-21.002,1.273
					c-3.524,0.07-7.058,0.082-10.596,0.053l-5.31-0.072l-1.328-0.027l-0.583-0.014l-0.028-0.016
					c-0.042-0.021-0.101-0.043-0.179-0.066c-0.031,0.062-0.064,0.065-0.099,0.26l-0.111,3.455l-0.118,3.451l-0.122,0.703
					l0.316,0.063l0.184,0.03l0.098,0.017c0.031,0.006,0.038,0.011,0.234,0.017l3.572,0.122c2.379,0.073,4.754,0.146,7.124,0.22
					c4.738,0.129,9.455,0.213,14.138,0.213c27.761-2.904,54.365,1.983,77.5,0c23.134-0.78,42.798,0.09,56.679,0
					c13.881-0.31,21.978,0,21.978,0v2.063c0,0-8.097,2.867-21.978,2.47c-13.88-0.58-33.544-0.545-56.679,0
					c-23.135-0.845-49.739,2.479-77.5,0c-4.684-0.461-9.4-0.76-14.138-0.938c-2.37-0.089-4.745-0.147-7.124-0.183l-3.572-0.035
					l-4.89-0.002l-0.026-4.762l-0.049-3.451l-0.153-8.448l3.842-0.073l3.011-0.079l5.31-0.169c3.538-0.109,7.071-0.221,10.596-0.331
					c7.049-0.2,14.062-0.34,21.002-0.276c27.761,3.146,54.366,0.155,77.5,0c23.134,0.705,42.799-1.427,56.68,0
					c1.512-0.115,2.955-0.179,4.318-0.195c1.098,0.002,2.162,0.004,3.193,0.006c1.119,0.021,2.205,0.043,3.251,0.062
					c-0.054,2.006-0.136,3.873-0.235,5.545c-0.023,0.488-0.051,0.67-0.078,0.912c-0.029,0.237-0.058,0.473-0.086,0.701
					c-0.064,0.459-0.128,0.903-0.188,1.331c-0.264,1.71-0.574,3.159-0.872,4.332c-0.595,2.347-1.136,3.584-1.136,3.584
					S234.866,131.797,234.502,131.797z"/>
			</g>
		</g>
	</g>
	<g>
		<rect x="52" y="155.354" fill="#42B3C6" width="136.578" height="13.811"/>
		<g>
			<g>
				<path fill="#42B3C6" d="M186.514,169.163c0,0-0.082-0.313-0.169-0.924c-0.087-0.608-0.191-1.513-0.271-2.689
					c-0.08-1.177-0.135-2.63-0.124-4.336c0.007-0.427,0.014-0.868,0.021-1.327c0.007-0.229,0.014-0.462,0.021-0.697l0.013-0.358
					c0.005-0.138,0.01-0.089,0.016-0.144c0.063-0.308,0.13-0.633,0.201-0.979c-0.201-0.077-0.46-0.173-0.833-0.29l-0.194-0.061
					c-0.099-0.02-0.315-0.039-0.469-0.059c-0.338-0.037-0.679-0.074-1.025-0.113c-0.692-0.066-1.4-0.138-2.124-0.209
					c-1.449-0.131-2.963-0.246-4.539-0.344c-3.151-0.193-6.549-0.314-10.167-0.342c-7.234-0.053-15.346,0.27-24.115,1.126
					c-17.538,0.447-37.707,0.619-58.752,0c-5.262,0.755-10.578,1.133-15.922,1.272c-2.672,0.07-5.35,0.082-8.032,0.054l-4.025-0.073
					l-0.503-0.013l-0.119-0.005l-0.004-0.002l-0.009-0.008l-0.046-0.028c-0.037-0.021-0.086-0.044-0.151-0.066
					c-0.041,0.052-0.086,0.054-0.134,0.263l-0.151,3.453l-0.16,3.452c-0.054,0.286-0.108,0.515-0.161,0.856
					c0.147,0.035,0.32,0.07,0.515,0.104c0.107,0.018,0.18,0.033,0.33,0.051l1.143,0.047c1.523,0.057,3.044,0.112,4.561,0.168
					c3.035,0.097,6.056,0.158,9.059,0.156c21.045-2.904,41.214,1.984,58.752,0c17.538-0.779,32.445,0.09,42.968,0
					c10.523-0.31,16.661,0,16.661,0v2.063c0,0-6.138,2.868-16.661,2.47c-10.522-0.581-25.43-0.544-42.968,0
					c-17.538-0.843-37.707,2.479-58.752,0c-3.003-0.39-6.024-0.663-9.059-0.846c-1.517-0.092-3.038-0.16-4.561-0.21l-1.143-0.033
					l-1.587-0.026l-3.167-0.033l0.006-4.767l-0.041-3.452c-0.062-2.813-0.124-5.633-0.187-8.451l5.568-0.151l4.025-0.169
					c2.682-0.11,5.361-0.221,8.032-0.331c5.344-0.201,10.66-0.341,15.922-0.276c21.045,3.146,41.214,0.156,58.752,0
					c8.769,0.352,16.88-0.005,24.115-0.271c3.617-0.134,7.015-0.243,10.167-0.231c1.576,0.006,3.089,0.042,4.539,0.122
					c0.724,0.04,1.433,0.091,2.124,0.153c0.345,0.035,0.687,0.068,1.025,0.104l0.546,0.061l0.855,0.063
					c1.749-0.102,3.508-0.161,5.106-0.188c0.03,1.926,0.011,3.817-0.045,5.55l-0.023,0.586l-0.026,0.357
					c-0.021,0.238-0.042,0.471-0.062,0.699c-0.045,0.459-0.099,0.9-0.158,1.327c-0.238,1.707-0.578,3.158-0.925,4.335
					c-0.694,2.354-1.418,3.61-1.418,3.61S186.878,169.163,186.514,169.163z"/>
			</g>
		</g>
	</g>
	<g enable-background="new    ">
		<path fill="#ED6756" d="M31.17,23.225c-0.019-0.246-0.041-0.526-0.068-0.841s-0.062-0.641-0.103-0.978s-0.096-0.67-0.164-0.998
			s-0.148-0.624-0.239-0.889c-0.237,0-0.472,0.029-0.704,0.089s-0.465,0.123-0.697,0.191s-0.47,0.135-0.711,0.198
			c-0.242,0.063-0.49,0.101-0.745,0.109c-0.137,0-0.265-0.032-0.383-0.096c-0.119-0.063-0.178-0.183-0.178-0.355
			c0-0.137,0.084-0.239,0.253-0.308c0.168-0.068,0.38-0.121,0.636-0.157c0.255-0.036,0.528-0.063,0.82-0.082
			c0.292-0.019,0.565-0.041,0.82-0.068c0.255-0.027,0.467-0.068,0.636-0.123c0.168-0.055,0.253-0.137,0.253-0.246v-2.83
			c0-0.082,0.022-0.144,0.068-0.185c0.045-0.041,0.1-0.073,0.164-0.096c0.063-0.022,0.13-0.036,0.198-0.041s0.121-0.007,0.157-0.007
			c0.2,0,0.33,0.034,0.39,0.103c0.059,0.068,0.111,0.234,0.157,0.499c0.018,0.082,0.043,0.232,0.075,0.451
			c0.032,0.219,0.063,0.449,0.096,0.69c0.032,0.241,0.059,0.47,0.082,0.684c0.022,0.214,0.039,0.362,0.048,0.444h3.746
			c0,0.173-0.075,0.312-0.226,0.417s-0.347,0.185-0.588,0.239c-0.242,0.055-0.506,0.089-0.793,0.103s-0.57,0.022-0.848,0.027
			c-0.278,0.005-0.533,0.012-0.766,0.021s-0.408,0.027-0.526,0.055c-0.046,0.273-0.05,0.579-0.014,0.916
			c0.036,0.337,0.082,0.682,0.137,1.032s0.103,0.702,0.144,1.053s0.043,0.677,0.007,0.978c-0.055,0.046-0.142,0.094-0.26,0.144
			c-0.119,0.05-0.239,0.087-0.362,0.109s-0.232,0.019-0.328-0.014S31.197,23.353,31.17,23.225z"/>
		<path fill="#ED6756" d="M50.352,21.242c-0.265,0.41-0.57,0.781-0.916,1.114c-0.347,0.333-0.727,0.615-1.142,0.848
			c-0.415,0.232-0.866,0.403-1.354,0.513c-0.488,0.109-1,0.142-1.538,0.096c-0.191,0-0.396-0.022-0.615-0.068
			s-0.422-0.118-0.608-0.219c-0.187-0.101-0.34-0.232-0.458-0.396c-0.119-0.164-0.178-0.369-0.178-0.615
			c-0.101-0.511-0.08-1.027,0.062-1.552c0.141-0.524,0.362-1.03,0.663-1.518s0.67-0.938,1.107-1.354s0.904-0.766,1.401-1.053
			c0.497-0.287,1.007-0.494,1.531-0.622c0.524-0.128,1.032-0.146,1.524-0.055c0.374,0,0.665,0.123,0.875,0.369
			c0.209,0.246,0.367,0.574,0.472,0.984c0.104,0.41,0.171,0.882,0.198,1.415s0.05,1.082,0.068,1.647
			c0.018,0.565,0.043,1.123,0.075,1.675c0.032,0.552,0.103,1.055,0.212,1.511h-1.012c-0.046-0.31-0.08-0.583-0.103-0.82
			c-0.023-0.237-0.043-0.458-0.062-0.663c-0.019-0.205-0.043-0.403-0.075-0.595C50.449,21.693,50.406,21.479,50.352,21.242z
			 M49.312,17.592c-0.355-0.027-0.723,0.021-1.101,0.144c-0.378,0.123-0.743,0.296-1.094,0.52c-0.351,0.224-0.679,0.487-0.984,0.793
			c-0.306,0.306-0.572,0.622-0.8,0.95c-0.228,0.328-0.403,0.654-0.526,0.978s-0.173,0.622-0.15,0.896
			c0.022,0.273,0.125,0.506,0.308,0.697c0.182,0.191,0.465,0.319,0.848,0.383c0.547-0.009,1.073-0.148,1.579-0.417
			s0.957-0.602,1.354-0.998s0.727-0.825,0.991-1.285c0.264-0.46,0.435-0.887,0.513-1.278c0.077-0.392,0.043-0.72-0.103-0.984
			C50,17.724,49.723,17.592,49.312,17.592z"/>
		<path fill="#ED6756" d="M58.979,17.346c0.063-0.146-0.005-0.23-0.205-0.253c-0.201-0.022-0.474-0.002-0.82,0.062
			c-0.347,0.063-0.734,0.164-1.162,0.301c-0.429,0.137-0.836,0.299-1.224,0.485c-0.388,0.187-0.725,0.395-1.012,0.622
			s-0.463,0.456-0.526,0.684l-0.014,4.648h-1.135c-0.055-0.128-0.098-0.33-0.13-0.608c-0.032-0.278-0.057-0.606-0.075-0.984
			c-0.019-0.378-0.03-0.788-0.034-1.23c-0.005-0.442-0.002-0.889,0.007-1.34c0.009-0.451,0.022-0.894,0.041-1.326
			c0.018-0.433,0.039-0.827,0.062-1.183c0.022-0.355,0.045-0.654,0.068-0.896c0.022-0.241,0.048-0.403,0.075-0.485
			c0.1-0.073,0.214-0.142,0.342-0.205c0.127-0.063,0.255-0.096,0.383-0.096c0.164,0.009,0.275,0.116,0.335,0.321
			c0.059,0.205,0.089,0.438,0.089,0.697s-0.016,0.513-0.048,0.759c-0.032,0.246-0.048,0.415-0.048,0.506
			c0.948-0.702,1.764-1.212,2.447-1.531s1.26-0.487,1.729-0.506c0.469-0.019,0.845,0.091,1.128,0.328
			c0.282,0.237,0.501,0.565,0.656,0.984c0.155,0.419,0.257,0.909,0.308,1.47c0.05,0.561,0.08,1.15,0.089,1.771
			c0.009,0.62,0.009,1.251,0,1.894c-0.009,0.643,0,1.256,0.027,1.839c-0.109,0.055-0.185,0.087-0.226,0.096
			s-0.087,0.007-0.137-0.007c-0.05-0.014-0.116-0.029-0.198-0.048s-0.21-0.032-0.383-0.041c-0.109-0.446-0.171-0.957-0.185-1.531
			s-0.016-1.162-0.007-1.764c0.009-0.602,0.004-1.198-0.014-1.791C59.165,18.394,59.097,17.847,58.979,17.346z"/>
		<path fill="#ED6756" d="M61.713,20.832c0-0.747,0.164-1.388,0.492-1.921s0.743-0.978,1.244-1.333
			c0.501-0.355,1.048-0.627,1.641-0.813c0.592-0.187,1.157-0.308,1.695-0.362c0.52-0.027,1.007,0.039,1.463,0.198
			c0.456,0.159,0.848,0.385,1.176,0.677s0.581,0.638,0.759,1.039s0.244,0.825,0.198,1.271c0,0.747-0.148,1.401-0.444,1.962
			c-0.296,0.561-0.69,1.03-1.183,1.408s-1.064,0.661-1.716,0.848c-0.652,0.187-1.333,0.28-2.044,0.28
			c-1.076,0-1.892-0.251-2.447-0.752C61.991,22.833,61.713,21.999,61.713,20.832z M62.889,21.242c0,0.383,0.048,0.688,0.144,0.916
			s0.237,0.398,0.424,0.513c0.187,0.114,0.415,0.189,0.684,0.226c0.269,0.036,0.581,0.055,0.937,0.055
			c0.547,0,1.075-0.053,1.586-0.157c0.51-0.104,0.961-0.282,1.354-0.533c0.392-0.251,0.706-0.583,0.943-0.998
			c0.237-0.415,0.355-0.932,0.355-1.552c0-0.319-0.046-0.622-0.137-0.909c-0.091-0.287-0.228-0.538-0.41-0.752
			c-0.183-0.214-0.406-0.385-0.67-0.513c-0.265-0.128-0.565-0.191-0.902-0.191c-0.447,0.073-0.894,0.157-1.34,0.253
			c-0.447,0.096-0.866,0.269-1.258,0.52c-0.392,0.251-0.738,0.62-1.039,1.107S63.034,20.386,62.889,21.242z"/>
		<path fill="#ED6756" d="M73.033,23.799c0.647-0.21,1.251-0.456,1.812-0.738s1.03-0.561,1.408-0.834
			c0.378-0.273,0.633-0.526,0.766-0.759c0.132-0.232,0.096-0.408-0.109-0.526s-0.608-0.157-1.21-0.116s-1.454,0.198-2.557,0.472
			c-0.328-0.009-0.622-0.073-0.882-0.191s-0.481-0.265-0.663-0.438c-0.183-0.173-0.321-0.362-0.417-0.567s-0.144-0.403-0.144-0.595
			c0-0.301,0.103-0.6,0.308-0.896s0.48-0.576,0.827-0.841c0.346-0.265,0.747-0.504,1.203-0.718c0.456-0.214,0.934-0.388,1.436-0.52
			c0.501-0.132,1.014-0.219,1.538-0.26c0.524-0.041,1.027-0.016,1.511,0.075c0.273,0,0.433,0.121,0.479,0.362
			c0.045,0.241,0.068,0.631,0.068,1.169c-0.374-0.173-0.777-0.296-1.21-0.369c-0.433-0.073-0.868-0.101-1.306-0.082
			s-0.861,0.08-1.271,0.185s-0.772,0.251-1.087,0.438s-0.572,0.417-0.772,0.69c-0.201,0.273-0.306,0.583-0.314,0.93
			c0,0.191,0.075,0.316,0.226,0.376s0.328,0.087,0.533,0.082s0.419-0.027,0.643-0.068c0.223-0.041,0.403-0.062,0.54-0.062
			c1.23-0.265,2.188-0.374,2.871-0.328s1.144,0.191,1.381,0.438c0.237,0.246,0.273,0.562,0.109,0.95s-0.481,0.795-0.95,1.224
			c-0.47,0.429-1.064,0.846-1.784,1.251c-0.72,0.405-1.518,0.75-2.393,1.032c-0.046,0-0.096-0.034-0.15-0.103
			s-0.112-0.148-0.171-0.239c-0.06-0.091-0.112-0.178-0.157-0.26C73.097,23.881,73.061,23.826,73.033,23.799z"/>
		<path fill="#ED6756" d="M93.473,22.186c-0.629,0.483-1.26,0.887-1.894,1.21c-0.634,0.323-1.242,0.518-1.825,0.581
			c-0.583,0.063-1.137-0.025-1.661-0.267c-0.524-0.241-0.991-0.69-1.401-1.347c-0.128-0.593-0.119-1.153,0.027-1.682
			c0.146-0.528,0.387-1.012,0.725-1.449c0.337-0.438,0.747-0.818,1.23-1.142c0.483-0.323,0.998-0.576,1.545-0.759
			s1.109-0.282,1.688-0.301c0.579-0.019,1.132,0.06,1.661,0.232c0-0.137,0.007-0.347,0.021-0.629s0.029-0.602,0.048-0.957
			c0.018-0.355,0.036-0.729,0.055-1.121c0.018-0.392,0.039-0.766,0.062-1.121c0.022-0.355,0.043-0.672,0.062-0.95
			c0.018-0.278,0.032-0.485,0.041-0.622c0.018-0.219,0.043-0.419,0.075-0.602c0.032-0.183,0.089-0.342,0.171-0.479
			s0.193-0.244,0.335-0.321c0.141-0.077,0.33-0.116,0.567-0.116c0,1.094-0.032,2.16-0.096,3.199
			c-0.064,1.039-0.121,2.085-0.171,3.138c-0.05,1.053-0.073,2.126-0.068,3.22c0.004,1.094,0.08,2.247,0.226,3.459
			c0,0.265-0.048,0.451-0.144,0.561s-0.258,0.164-0.485,0.164c-0.219,0-0.385-0.07-0.499-0.212c-0.114-0.142-0.191-0.31-0.232-0.506
			s-0.062-0.403-0.062-0.622S93.473,22.341,93.473,22.186z M87.881,21.652c0.018,0.419,0.139,0.718,0.362,0.896
			c0.223,0.178,0.535,0.23,0.937,0.157c0.191,0,0.485-0.053,0.882-0.157s0.807-0.241,1.23-0.41s0.822-0.355,1.196-0.561
			c0.374-0.205,0.638-0.412,0.793-0.622v-2.27c0-0.137-0.034-0.246-0.103-0.328s-0.155-0.144-0.26-0.185
			c-0.105-0.041-0.214-0.066-0.328-0.075c-0.114-0.009-0.212-0.014-0.294-0.014c-0.246-0.036-0.531-0.021-0.854,0.048
			c-0.324,0.068-0.656,0.178-0.998,0.328s-0.675,0.337-0.998,0.561c-0.324,0.224-0.608,0.474-0.854,0.752s-0.438,0.576-0.574,0.896
			S87.835,21.315,87.881,21.652z"/>
		<path fill="#ED6756" d="M95.797,21.83c-0.082-0.738-0.012-1.458,0.212-2.16c0.223-0.702,0.561-1.321,1.012-1.859
			s0.996-0.964,1.634-1.278c0.638-0.314,1.335-0.463,2.092-0.444c0.127,0,0.298,0.019,0.513,0.055
			c0.214,0.036,0.442,0.094,0.684,0.171c0.241,0.077,0.479,0.176,0.711,0.294s0.438,0.26,0.615,0.424s0.312,0.349,0.403,0.554
			c0.091,0.205,0.114,0.436,0.068,0.69c-0.374,0.265-0.805,0.446-1.292,0.547c-0.488,0.101-0.984,0.171-1.49,0.212
			s-1,0.077-1.483,0.109c-0.483,0.032-0.905,0.116-1.265,0.253c-0.36,0.137-0.638,0.354-0.834,0.649
			c-0.196,0.296-0.258,0.723-0.185,1.278c0.137,0.501,0.362,0.87,0.677,1.107s0.679,0.381,1.094,0.431
			c0.415,0.05,0.856,0.027,1.326-0.068c0.469-0.096,0.93-0.221,1.381-0.376s0.873-0.319,1.265-0.492
			c0.392-0.173,0.715-0.314,0.971-0.424c0.118,0,0.219,0.043,0.301,0.13s0.123,0.189,0.123,0.308
			c-0.228,0.392-0.574,0.743-1.039,1.053s-0.989,0.561-1.572,0.752c-0.583,0.191-1.192,0.31-1.825,0.355
			c-0.634,0.046-1.229,0-1.784-0.137c-0.556-0.137-1.044-0.378-1.463-0.725C96.225,22.892,95.942,22.423,95.797,21.83z
			 M100.623,17.113c-0.164,0-0.365,0.019-0.602,0.055c-0.237,0.036-0.465,0.101-0.684,0.191s-0.408,0.21-0.567,0.355
			c-0.16,0.146-0.239,0.333-0.239,0.561l3.391-0.561c-0.146-0.219-0.335-0.374-0.567-0.465S100.878,17.113,100.623,17.113z"/>
		<path fill="#ED6756" d="M112.258,21.83c-0.082-0.738-0.012-1.458,0.212-2.16c0.223-0.702,0.561-1.321,1.012-1.859
			s0.996-0.964,1.634-1.278c0.638-0.314,1.335-0.463,2.092-0.444c0.127,0,0.298,0.019,0.513,0.055
			c0.214,0.036,0.442,0.094,0.684,0.171c0.241,0.077,0.479,0.176,0.711,0.294s0.438,0.26,0.615,0.424s0.312,0.349,0.403,0.554
			c0.091,0.205,0.114,0.436,0.068,0.69c-0.374,0.265-0.805,0.446-1.292,0.547c-0.488,0.101-0.984,0.171-1.49,0.212
			s-1,0.077-1.483,0.109c-0.483,0.032-0.905,0.116-1.265,0.253c-0.36,0.137-0.638,0.354-0.834,0.649
			c-0.196,0.296-0.258,0.723-0.185,1.278c0.137,0.501,0.362,0.87,0.677,1.107s0.679,0.381,1.094,0.431
			c0.415,0.05,0.856,0.027,1.326-0.068c0.469-0.096,0.93-0.221,1.381-0.376s0.873-0.319,1.265-0.492
			c0.392-0.173,0.715-0.314,0.971-0.424c0.118,0,0.219,0.043,0.301,0.13s0.123,0.189,0.123,0.308
			c-0.228,0.392-0.574,0.743-1.039,1.053s-0.989,0.561-1.572,0.752c-0.583,0.191-1.192,0.31-1.825,0.355
			c-0.634,0.046-1.229,0-1.784-0.137c-0.556-0.137-1.044-0.378-1.463-0.725C112.686,22.892,112.403,22.423,112.258,21.83z
			 M117.084,17.113c-0.164,0-0.365,0.019-0.602,0.055c-0.237,0.036-0.465,0.101-0.684,0.191s-0.408,0.21-0.567,0.355
			c-0.16,0.146-0.239,0.333-0.239,0.561l3.391-0.561c-0.146-0.219-0.335-0.374-0.567-0.465S117.339,17.113,117.084,17.113z"/>
		<path fill="#ED6756" d="M123.715,23.799c0.647-0.21,1.251-0.456,1.812-0.738s1.03-0.561,1.408-0.834
			c0.378-0.273,0.633-0.526,0.766-0.759c0.132-0.232,0.096-0.408-0.109-0.526s-0.608-0.157-1.21-0.116s-1.454,0.198-2.557,0.472
			c-0.328-0.009-0.622-0.073-0.882-0.191s-0.481-0.265-0.663-0.438c-0.183-0.173-0.321-0.362-0.417-0.567s-0.144-0.403-0.144-0.595
			c0-0.301,0.103-0.6,0.308-0.896s0.48-0.576,0.827-0.841c0.346-0.265,0.747-0.504,1.203-0.718c0.456-0.214,0.934-0.388,1.436-0.52
			c0.501-0.132,1.014-0.219,1.538-0.26c0.524-0.041,1.027-0.016,1.511,0.075c0.273,0,0.433,0.121,0.479,0.362
			c0.045,0.241,0.068,0.631,0.068,1.169c-0.374-0.173-0.777-0.296-1.21-0.369c-0.433-0.073-0.868-0.101-1.306-0.082
			s-0.861,0.08-1.271,0.185s-0.772,0.251-1.087,0.438s-0.572,0.417-0.772,0.69c-0.201,0.273-0.306,0.583-0.314,0.93
			c0,0.191,0.075,0.316,0.226,0.376s0.328,0.087,0.533,0.082s0.419-0.027,0.643-0.068c0.223-0.041,0.403-0.062,0.54-0.062
			c1.23-0.265,2.188-0.374,2.871-0.328s1.144,0.191,1.381,0.438c0.237,0.246,0.273,0.562,0.109,0.95s-0.481,0.795-0.95,1.224
			c-0.47,0.429-1.064,0.846-1.784,1.251c-0.72,0.405-1.518,0.75-2.393,1.032c-0.046,0-0.096-0.034-0.15-0.103
			s-0.112-0.148-0.171-0.239c-0.06-0.091-0.112-0.178-0.157-0.26C123.778,23.881,123.742,23.826,123.715,23.799z"/>
		<path fill="#ED6756" d="M130.441,18.59l-0.027-1.176h2.557v-4.416c0.036-0.109,0.103-0.21,0.198-0.301s0.198-0.159,0.308-0.205
			s0.223-0.053,0.342-0.021c0.118,0.032,0.219,0.116,0.301,0.253c0.091,0.374,0.155,0.75,0.191,1.128
			c0.036,0.378,0.059,0.757,0.068,1.135c0.009,0.378,0.016,0.757,0.021,1.135c0.004,0.378,0.021,0.75,0.048,1.114
			c0.173-0.027,0.374-0.043,0.602-0.048c0.228-0.005,0.458-0.009,0.69-0.014s0.46-0.009,0.684-0.014
			c0.223-0.005,0.426-0.016,0.608-0.034l-0.055,1.23l-2.488-0.068c-0.009,0.565-0.009,1.087,0,1.565
			c0.009,0.479,0.021,0.945,0.034,1.401s0.025,0.921,0.034,1.395c0.009,0.474,0.014,0.989,0.014,1.545
			c-0.374,0.164-0.659,0.18-0.854,0.048c-0.196-0.132-0.335-0.354-0.417-0.663s-0.123-0.688-0.123-1.135s0.007-0.904,0.021-1.374
			s0.021-0.923,0.021-1.36s-0.041-0.812-0.123-1.121H130.441z"/>
		<path fill="#ED6756" d="M137.605,21.803c0-0.183-0.016-0.438-0.048-0.766c-0.032-0.328-0.06-0.686-0.082-1.073
			c-0.023-0.388-0.032-0.781-0.027-1.183c0.004-0.401,0.039-0.764,0.103-1.087c0.063-0.323,0.166-0.59,0.308-0.8
			c0.141-0.21,0.344-0.314,0.608-0.314c0.319,0.091,0.535,0.21,0.649,0.355c0.114,0.146,0.164,0.323,0.15,0.533
			s-0.068,0.451-0.164,0.725s-0.194,0.586-0.294,0.937c-0.101,0.351-0.178,0.738-0.232,1.162s-0.046,0.891,0.027,1.401
			c0.082,0.328,0.248,0.581,0.499,0.759c0.25,0.178,0.549,0.292,0.896,0.342c0.346,0.05,0.718,0.046,1.114-0.014
			s0.781-0.159,1.155-0.301c0.374-0.142,0.715-0.314,1.025-0.52c0.31-0.205,0.551-0.426,0.725-0.663
			c0.091-0.456,0.141-0.873,0.15-1.251c0.009-0.378,0-0.745-0.027-1.101s-0.064-0.718-0.109-1.087
			c-0.046-0.369-0.073-0.777-0.082-1.224c0.346-0.146,0.62-0.123,0.82,0.068c0.2,0.191,0.353,0.49,0.458,0.896
			c0.104,0.405,0.175,0.887,0.212,1.442c0.036,0.556,0.057,1.128,0.062,1.716c0.004,0.588,0.007,1.16,0.007,1.716
			s0.022,1.03,0.068,1.422c-0.246,0.237-0.504,0.26-0.772,0.068c-0.269-0.191-0.477-0.606-0.622-1.244
			c-0.146,0.128-0.396,0.285-0.752,0.472s-0.764,0.354-1.224,0.499c-0.46,0.146-0.943,0.251-1.449,0.314s-0.978,0.041-1.415-0.068
			s-0.816-0.33-1.135-0.663C137.888,22.939,137.688,22.45,137.605,21.803z"/>
		<path fill="#ED6756" d="M153.123,22.186c-0.629,0.483-1.26,0.887-1.894,1.21c-0.634,0.323-1.242,0.518-1.825,0.581
			c-0.583,0.063-1.137-0.025-1.661-0.267c-0.524-0.241-0.991-0.69-1.401-1.347c-0.128-0.593-0.119-1.153,0.027-1.682
			c0.146-0.528,0.387-1.012,0.725-1.449c0.337-0.438,0.747-0.818,1.23-1.142c0.483-0.323,0.998-0.576,1.545-0.759
			s1.109-0.282,1.688-0.301c0.579-0.019,1.132,0.06,1.661,0.232c0-0.137,0.007-0.347,0.021-0.629s0.029-0.602,0.048-0.957
			c0.018-0.355,0.036-0.729,0.055-1.121c0.018-0.392,0.039-0.766,0.062-1.121c0.022-0.355,0.043-0.672,0.062-0.95
			c0.018-0.278,0.032-0.485,0.041-0.622c0.018-0.219,0.043-0.419,0.075-0.602c0.032-0.183,0.089-0.342,0.171-0.479
			s0.193-0.244,0.335-0.321c0.141-0.077,0.33-0.116,0.567-0.116c0,1.094-0.032,2.16-0.096,3.199
			c-0.064,1.039-0.121,2.085-0.171,3.138c-0.05,1.053-0.073,2.126-0.068,3.22c0.004,1.094,0.08,2.247,0.226,3.459
			c0,0.265-0.048,0.451-0.144,0.561s-0.258,0.164-0.485,0.164c-0.219,0-0.385-0.07-0.499-0.212c-0.114-0.142-0.191-0.31-0.232-0.506
			s-0.062-0.403-0.062-0.622S153.123,22.341,153.123,22.186z M147.531,21.652c0.018,0.419,0.139,0.718,0.362,0.896
			c0.223,0.178,0.535,0.23,0.937,0.157c0.191,0,0.485-0.053,0.882-0.157s0.807-0.241,1.23-0.41s0.822-0.355,1.196-0.561
			c0.374-0.205,0.638-0.412,0.793-0.622v-2.27c0-0.137-0.034-0.246-0.103-0.328s-0.155-0.144-0.26-0.185
			c-0.105-0.041-0.214-0.066-0.328-0.075c-0.114-0.009-0.212-0.014-0.294-0.014c-0.246-0.036-0.531-0.021-0.854,0.048
			c-0.324,0.068-0.656,0.178-0.998,0.328s-0.675,0.337-0.998,0.561c-0.324,0.224-0.608,0.474-0.854,0.752s-0.438,0.576-0.574,0.896
			S147.485,21.315,147.531,21.652z"/>
		<path fill="#ED6756" d="M155.967,20.832c0-0.747,0.164-1.388,0.492-1.921s0.743-0.978,1.244-1.333
			c0.501-0.355,1.048-0.627,1.641-0.813c0.592-0.187,1.157-0.308,1.695-0.362c0.52-0.027,1.007,0.039,1.463,0.198
			c0.456,0.159,0.848,0.385,1.176,0.677s0.581,0.638,0.759,1.039s0.244,0.825,0.198,1.271c0,0.747-0.148,1.401-0.444,1.962
			c-0.296,0.561-0.69,1.03-1.183,1.408s-1.064,0.661-1.716,0.848c-0.652,0.187-1.333,0.28-2.044,0.28
			c-1.076,0-1.892-0.251-2.447-0.752C156.245,22.833,155.967,21.999,155.967,20.832z M157.143,21.242
			c0,0.383,0.048,0.688,0.144,0.916s0.237,0.398,0.424,0.513c0.187,0.114,0.415,0.189,0.684,0.226
			c0.269,0.036,0.581,0.055,0.937,0.055c0.547,0,1.075-0.053,1.586-0.157c0.51-0.104,0.961-0.282,1.354-0.533
			c0.392-0.251,0.706-0.583,0.943-0.998c0.237-0.415,0.355-0.932,0.355-1.552c0-0.319-0.046-0.622-0.137-0.909
			c-0.091-0.287-0.228-0.538-0.41-0.752c-0.183-0.214-0.406-0.385-0.67-0.513c-0.265-0.128-0.565-0.191-0.902-0.191
			c-0.447,0.073-0.894,0.157-1.34,0.253c-0.447,0.096-0.866,0.269-1.258,0.52c-0.392,0.251-0.738,0.62-1.039,1.107
			S157.288,20.386,157.143,21.242z"/>
	</g>
	<g enable-background="new    ">
		<path fill="#ED6756" d="M311.135,23.225c-0.019-0.246-0.041-0.526-0.068-0.841s-0.062-0.641-0.103-0.978s-0.096-0.67-0.164-0.998
			s-0.148-0.624-0.239-0.889c-0.237,0-0.472,0.029-0.704,0.089s-0.465,0.123-0.697,0.191s-0.47,0.135-0.711,0.198
			s-0.49,0.101-0.745,0.109c-0.137,0-0.265-0.032-0.383-0.096c-0.119-0.063-0.178-0.183-0.178-0.355
			c0-0.137,0.084-0.239,0.253-0.308s0.38-0.121,0.636-0.157c0.255-0.036,0.528-0.063,0.82-0.082c0.291-0.019,0.564-0.041,0.82-0.068
			c0.255-0.027,0.467-0.068,0.636-0.123s0.253-0.137,0.253-0.246v-2.83c0-0.082,0.022-0.144,0.068-0.185
			c0.045-0.041,0.1-0.073,0.164-0.096c0.063-0.022,0.13-0.036,0.198-0.041s0.12-0.007,0.157-0.007c0.2,0,0.33,0.034,0.39,0.103
			s0.111,0.234,0.157,0.499c0.018,0.082,0.043,0.232,0.075,0.451s0.063,0.449,0.096,0.69s0.06,0.47,0.082,0.684
			s0.038,0.362,0.048,0.444h3.746c0,0.173-0.075,0.312-0.226,0.417s-0.347,0.185-0.588,0.239s-0.506,0.089-0.793,0.103
			s-0.569,0.022-0.848,0.027s-0.533,0.012-0.766,0.021s-0.408,0.027-0.526,0.055c-0.046,0.273-0.051,0.579-0.014,0.916
			c0.036,0.337,0.082,0.682,0.137,1.032s0.103,0.702,0.144,1.053s0.043,0.677,0.007,0.978c-0.055,0.046-0.142,0.094-0.26,0.144
			c-0.119,0.05-0.239,0.087-0.362,0.109s-0.232,0.019-0.328-0.014S311.162,23.353,311.135,23.225z"/>
		<path fill="#ED6756" d="M330.316,21.242c-0.265,0.41-0.57,0.781-0.916,1.114c-0.347,0.333-0.727,0.615-1.142,0.848
			s-0.866,0.403-1.354,0.513s-1.001,0.142-1.538,0.096c-0.191,0-0.396-0.022-0.615-0.068s-0.422-0.118-0.608-0.219
			s-0.34-0.232-0.458-0.396c-0.119-0.164-0.178-0.369-0.178-0.615c-0.101-0.511-0.08-1.027,0.062-1.552s0.362-1.03,0.663-1.518
			s0.67-0.938,1.107-1.354s0.904-0.766,1.401-1.053s1.007-0.494,1.531-0.622s1.032-0.146,1.524-0.055
			c0.373,0,0.665,0.123,0.875,0.369c0.209,0.246,0.367,0.574,0.472,0.984s0.171,0.882,0.198,1.415s0.05,1.082,0.068,1.647
			c0.018,0.565,0.043,1.123,0.075,1.675s0.103,1.055,0.212,1.511h-1.012c-0.046-0.31-0.08-0.583-0.103-0.82
			s-0.044-0.458-0.062-0.663c-0.019-0.205-0.043-0.403-0.075-0.595S330.371,21.479,330.316,21.242z M329.277,17.592
			c-0.355-0.027-0.723,0.021-1.101,0.144s-0.743,0.296-1.094,0.52s-0.679,0.487-0.984,0.793s-0.572,0.622-0.8,0.95
			c-0.229,0.328-0.403,0.654-0.526,0.978s-0.173,0.622-0.15,0.896s0.125,0.506,0.308,0.697c0.182,0.191,0.465,0.319,0.848,0.383
			c0.547-0.009,1.073-0.148,1.579-0.417s0.957-0.602,1.354-0.998s0.727-0.825,0.991-1.285c0.264-0.46,0.436-0.887,0.513-1.278
			s0.043-0.72-0.103-0.984C329.965,17.724,329.688,17.592,329.277,17.592z"/>
		<path fill="#ED6756" d="M332.408,21.379c-0.037-0.419,0.041-0.836,0.232-1.251s0.458-0.812,0.8-1.189s0.743-0.729,1.203-1.053
			s0.945-0.6,1.456-0.827c0.51-0.228,1.027-0.398,1.552-0.513s1.019-0.148,1.483-0.103c0.173,0,0.346,0.009,0.52,0.027
			c0.173,0.019,0.326,0.063,0.458,0.137s0.239,0.178,0.321,0.314s0.123,0.323,0.123,0.561c0,0.118-0.029,0.224-0.089,0.314
			s-0.132,0.178-0.219,0.26s-0.181,0.155-0.28,0.219c-0.101,0.063-0.191,0.128-0.273,0.191c-0.027-0.128-0.055-0.248-0.082-0.362
			s-0.07-0.214-0.13-0.301s-0.137-0.155-0.232-0.205s-0.222-0.075-0.376-0.075c-0.538,0.109-1.119,0.275-1.743,0.499
			s-1.198,0.49-1.723,0.8s-0.946,0.658-1.265,1.046c-0.319,0.388-0.442,0.805-0.369,1.251c0,0.401,0.077,0.725,0.232,0.971
			c0.154,0.246,0.357,0.438,0.608,0.574s0.538,0.228,0.861,0.273s0.653,0.068,0.991,0.068c0.52,0,1.023-0.077,1.511-0.232
			s0.964-0.328,1.429-0.52s0.92-0.364,1.367-0.52c0.446-0.155,0.884-0.232,1.312-0.232c0.072,0,0.148,0.005,0.226,0.014
			s0.146,0.034,0.205,0.075s0.101,0.101,0.123,0.178s0.021,0.185-0.007,0.321c-0.046,0.164-0.207,0.328-0.485,0.492
			s-0.62,0.319-1.025,0.465s-0.848,0.282-1.326,0.41s-0.943,0.237-1.395,0.328s-0.856,0.162-1.217,0.212s-0.627,0.075-0.8,0.075
			c-0.401,0-0.834-0.046-1.299-0.137s-0.896-0.241-1.292-0.451s-0.728-0.485-0.991-0.827
			C332.54,22.315,332.408,21.89,332.408,21.379z"/>
		<path fill="#ED6756" d="M343.482,21.83c-0.082-0.738-0.012-1.458,0.212-2.16s0.561-1.321,1.012-1.859s0.995-0.964,1.634-1.278
			c0.638-0.314,1.335-0.463,2.092-0.444c0.127,0,0.299,0.019,0.513,0.055s0.442,0.094,0.684,0.171s0.479,0.176,0.711,0.294
			s0.438,0.26,0.615,0.424s0.312,0.349,0.403,0.554c0.091,0.205,0.113,0.436,0.068,0.69c-0.374,0.265-0.805,0.446-1.292,0.547
			s-0.984,0.171-1.49,0.212s-1.001,0.077-1.483,0.109c-0.483,0.032-0.904,0.116-1.265,0.253s-0.638,0.354-0.834,0.649
			s-0.258,0.723-0.185,1.278c0.137,0.501,0.362,0.87,0.677,1.107s0.679,0.381,1.094,0.431s0.856,0.027,1.326-0.068
			s0.93-0.221,1.381-0.376s0.872-0.319,1.265-0.492c0.392-0.173,0.715-0.314,0.971-0.424c0.118,0,0.219,0.043,0.301,0.13
			s0.123,0.189,0.123,0.308c-0.229,0.392-0.574,0.743-1.039,1.053s-0.989,0.561-1.572,0.752c-0.584,0.191-1.191,0.31-1.825,0.355
			s-1.229,0-1.784-0.137c-0.557-0.137-1.044-0.378-1.463-0.725C343.91,22.892,343.628,22.423,343.482,21.83z M348.309,17.113
			c-0.164,0-0.365,0.019-0.602,0.055c-0.237,0.036-0.465,0.101-0.684,0.191s-0.408,0.21-0.567,0.355s-0.239,0.333-0.239,0.561
			l3.391-0.561c-0.146-0.219-0.335-0.374-0.567-0.465S348.563,17.113,348.309,17.113z"/>
		<path fill="#ED6756" d="M354.939,23.799c0.646-0.21,1.251-0.456,1.812-0.738s1.03-0.561,1.408-0.834s0.634-0.526,0.766-0.759
			s0.096-0.408-0.109-0.526s-0.608-0.157-1.21-0.116s-1.454,0.198-2.557,0.472c-0.328-0.009-0.622-0.073-0.882-0.191
			s-0.481-0.265-0.663-0.438c-0.183-0.173-0.321-0.362-0.417-0.567s-0.144-0.403-0.144-0.595c0-0.301,0.103-0.6,0.308-0.896
			s0.48-0.576,0.827-0.841c0.346-0.265,0.747-0.504,1.203-0.718c0.455-0.214,0.934-0.388,1.436-0.52
			c0.501-0.132,1.014-0.219,1.538-0.26s1.027-0.016,1.511,0.075c0.273,0,0.433,0.121,0.479,0.362
			c0.045,0.241,0.068,0.631,0.068,1.169c-0.374-0.173-0.777-0.296-1.21-0.369s-0.868-0.101-1.306-0.082s-0.861,0.08-1.271,0.185
			s-0.772,0.251-1.087,0.438s-0.572,0.417-0.772,0.69c-0.201,0.273-0.306,0.583-0.314,0.93c0,0.191,0.075,0.316,0.226,0.376
			s0.328,0.087,0.533,0.082s0.419-0.027,0.643-0.068s0.403-0.062,0.54-0.062c1.23-0.265,2.188-0.374,2.871-0.328
			s1.144,0.191,1.381,0.438c0.236,0.246,0.273,0.562,0.109,0.95s-0.48,0.795-0.95,1.224s-1.064,0.846-1.784,1.251
			c-0.721,0.405-1.518,0.75-2.393,1.032c-0.046,0-0.096-0.034-0.15-0.103s-0.111-0.148-0.171-0.239s-0.112-0.178-0.157-0.26
			C355.003,23.881,354.967,23.826,354.939,23.799z"/>
		<path fill="#ED6756" d="M363.73,23.799c0.646-0.21,1.251-0.456,1.812-0.738s1.03-0.561,1.408-0.834s0.634-0.526,0.766-0.759
			s0.096-0.408-0.109-0.526s-0.608-0.157-1.21-0.116s-1.454,0.198-2.557,0.472c-0.328-0.009-0.622-0.073-0.882-0.191
			s-0.481-0.265-0.663-0.438c-0.183-0.173-0.321-0.362-0.417-0.567s-0.144-0.403-0.144-0.595c0-0.301,0.103-0.6,0.308-0.896
			s0.48-0.576,0.827-0.841c0.346-0.265,0.747-0.504,1.203-0.718c0.455-0.214,0.934-0.388,1.436-0.52
			c0.501-0.132,1.014-0.219,1.538-0.26s1.027-0.016,1.511,0.075c0.273,0,0.433,0.121,0.479,0.362
			c0.045,0.241,0.068,0.631,0.068,1.169c-0.374-0.173-0.777-0.296-1.21-0.369s-0.868-0.101-1.306-0.082s-0.861,0.08-1.271,0.185
			s-0.772,0.251-1.087,0.438s-0.572,0.417-0.772,0.69c-0.201,0.273-0.306,0.583-0.314,0.93c0,0.191,0.075,0.316,0.226,0.376
			s0.328,0.087,0.533,0.082s0.419-0.027,0.643-0.068s0.403-0.062,0.54-0.062c1.23-0.265,2.188-0.374,2.871-0.328
			s1.144,0.191,1.381,0.438c0.236,0.246,0.273,0.562,0.109,0.95s-0.48,0.795-0.95,1.224s-1.064,0.846-1.784,1.251
			c-0.721,0.405-1.518,0.75-2.393,1.032c-0.046,0-0.096-0.034-0.15-0.103s-0.111-0.148-0.171-0.239s-0.112-0.178-0.157-0.26
			C363.794,23.881,363.758,23.826,363.73,23.799z"/>
		<path fill="#ED6756" d="M371.045,20.832c0-0.747,0.164-1.388,0.492-1.921s0.742-0.978,1.244-1.333
			c0.501-0.355,1.048-0.627,1.641-0.813c0.592-0.187,1.157-0.308,1.695-0.362c0.52-0.027,1.007,0.039,1.463,0.198
			c0.455,0.159,0.848,0.385,1.176,0.677s0.581,0.638,0.759,1.039s0.243,0.825,0.198,1.271c0,0.747-0.148,1.401-0.444,1.962
			s-0.69,1.03-1.183,1.408s-1.064,0.661-1.716,0.848s-1.333,0.28-2.044,0.28c-1.076,0-1.892-0.251-2.447-0.752
			C371.322,22.833,371.045,21.999,371.045,20.832z M372.221,21.242c0,0.383,0.048,0.688,0.144,0.916s0.237,0.398,0.424,0.513
			s0.415,0.189,0.684,0.226s0.581,0.055,0.937,0.055c0.547,0,1.075-0.053,1.586-0.157c0.51-0.104,0.961-0.282,1.354-0.533
			c0.392-0.251,0.706-0.583,0.943-0.998c0.236-0.415,0.355-0.932,0.355-1.552c0-0.319-0.046-0.622-0.137-0.909
			c-0.092-0.287-0.229-0.538-0.41-0.752c-0.183-0.214-0.406-0.385-0.67-0.513c-0.265-0.128-0.565-0.191-0.902-0.191
			c-0.447,0.073-0.894,0.157-1.34,0.253c-0.447,0.096-0.866,0.269-1.258,0.52c-0.393,0.251-0.738,0.62-1.039,1.107
			S372.366,20.386,372.221,21.242z"/>
	</g>
</g>
</svg>
