<?xml version="1.0" encoding="utf-8"?>
<!-- Generator: Adobe Illustrator 16.0.0, SVG Export Plug-In . SVG Version: 6.00 Build 0)  -->
<!DOCTYPE svg PUBLIC "-//W3C//DTD SVG 1.1//EN" "http://www.w3.org/Graphics/SVG/1.1/DTD/svg11.dtd">
<svg version="1.1" id="Layer_1" xmlns="http://www.w3.org/2000/svg" xmlns:xlink="http://www.w3.org/1999/xlink" x="0px" y="0px"
	 width="400px" height="200px" viewBox="0 0 400 200" enable-background="new 0 0 400 200" xml:space="preserve">
<text transform="matrix(1 0 0 1 178.3604 173.499)" fill="#909090" font-family="'ArchitectsDaughter'" font-size="14">2005</text>
<line fill="none" stroke="#C8C8B4" stroke-width="3" stroke-miterlimit="10" x1="199.663" y1="58.874" x2="290.936" y2="87"/>
<line fill="none" stroke="#42B3C6" stroke-width="3" stroke-miterlimit="10" x1="199.663" y1="130.39" x2="290.629" y2="102.358"/>
<line fill="none" stroke="#C0C0C0" stroke-miterlimit="10" x1="199.663" y1="10" x2="199.663" y2="153.412"/>
<circle fill="#FFFFFF" stroke="#C8C8B4" stroke-width="3" stroke-miterlimit="10" cx="199.663" cy="58.874" r="12.406"/>
<circle fill="#FFFFFF" stroke="#42B3C6" stroke-width="3" stroke-miterlimit="10" cx="199.663" cy="130.39" r="12.406"/>
<g>
	<g>
		<g>
			<path fill-rule="evenodd" clip-rule="evenodd" fill="#ED6756" d="M292.693,100.018c0,0,0.026,0.184,0.053,0.547
				c0.02,0.364,0.05,0.905,0.09,1.617c0.03,0.714,0.066,1.601,0.083,2.654c-0.028,1.051-0.073,2.269-0.142,3.646
				c-0.166,2.75-0.592,6.127-1.402,10.021c-0.901,3.872-2.164,8.271-4.186,12.927c-4.077,9.268-10.192,19.922-19.531,30.04
				c-4.684,5.026-10.122,9.93-16.391,14.36c-6.296,4.377-13.364,8.383-21.241,11.442c-15.873,5.625-34.813,7.029-53.284,2.101
				c-18.413-4.85-36.115-16.111-48.369-32.287c-6.909-7.443-12.326-16.496-15.898-26.285c-3.643-9.783-5.193-20.345-5.077-30.784
				c0.265-10.446,2.184-20.848,5.881-30.502c3.637-9.671,8.787-18.656,15.095-26.566c2.856-4.191,6.143-8.082,9.762-11.596
				c3.642-3.49,7.604-6.604,11.777-9.319c2.074-1.38,4.245-2.583,6.404-3.775c1.106-0.545,2.211-1.088,3.313-1.631
				c1.096-0.553,2.245-0.987,3.362-1.479c4.515-1.858,9.114-3.387,13.766-4.434c4.649-1.046,9.301-1.779,13.918-2.131
				c4.618-0.304,9.18-0.406,13.66-0.126c4.474,0.286,8.876,0.718,13.153,1.505l1.606,0.261l1.587,0.331
				c1.055,0.224,2.114,0.414,3.159,0.648c2.075,0.522,4.162,0.958,6.186,1.56c8.078,2.467,15.424,6.168,21.92,10.427
				c6.474,4.313,12.04,9.282,16.732,14.439c9.373,10.395,15.007,21.52,18.511,30.976c1.802,4.735,2.94,9.142,3.793,13.007
				c0.759,3.887,1.207,7.24,1.427,9.975c0.091,1.369,0.172,2.58,0.241,3.626c0.013,1.048,0.023,1.931,0.032,2.644
				C292.689,99.28,292.693,100.018,292.693,100.018h-2.064c0,0-0.197-0.724-0.495-2.102c-0.149-0.689-0.319-1.542-0.512-2.547
				c-0.237-1.003-0.496-2.159-0.762-3.459c-0.562-2.599-1.32-5.756-2.235-9.414c-1.01-3.639-2.148-7.786-3.696-12.343
				c-3.02-9.106-8.46-19.742-17.472-29.568c-4.512-4.878-9.857-9.555-16.035-13.622c-6.204-4.013-13.182-7.513-20.843-9.903
				c-15.059-5.565-33.227-6.1-50.408-1.038c-17.216,5.042-33.403,15.381-46.242,29.74c-6.544,7.1-11.658,15.718-15.025,25.019
				c-3.437,9.296-4.882,19.319-4.77,29.237c0.263,9.925,2.072,19.791,5.562,28.96c3.431,9.184,8.281,17.735,14.232,25.296
				c2.679,4.015,5.756,7.765,9.152,11.172c3.42,3.383,7.146,6.426,11.085,9.095c1.957,1.356,4.011,2.543,6.056,3.725
				c1.05,0.54,2.097,1.079,3.142,1.618c1.039,0.55,2.132,0.981,3.194,1.473c4.293,1.853,8.682,3.392,13.136,4.447
				c4.451,1.056,8.918,1.796,13.358,2.14c4.44,0.296,8.834,0.374,13.138,0.041c4.298-0.339,8.516-0.852,12.582-1.755l1.526-0.306
				l1.503-0.378c0.999-0.257,2-0.483,2.984-0.756c1.954-0.597,3.91-1.117,5.792-1.812c7.677-2.353,14.621-5.955,20.724-10.082
				c6.082-4.182,11.269-8.981,15.645-13.911c4.37-4.948,7.873-10.077,10.785-15.006c2.909-4.938,5.203-9.702,7.197-14.095
				c1.39-4.613,2.442-8.765,3.418-12.398c0.886-3.671,1.644-6.813,2.263-9.381c0.286-1.295,0.571-2.446,0.836-3.446
				c0.22-1.002,0.418-1.853,0.595-2.54c0.35-1.376,0.589-2.1,0.589-2.1S292.329,100.018,292.693,100.018z"/>
		</g>
	</g>
</g>
</svg>
