<?xml version="1.0" encoding="utf-8"?>
<!-- Generator: Adobe Illustrator 16.0.0, SVG Export Plug-In . SVG Version: 6.00 Build 0)  -->
<!DOCTYPE svg PUBLIC "-//W3C//DTD SVG 1.1//EN" "http://www.w3.org/Graphics/SVG/1.1/DTD/svg11.dtd">
<svg version="1.1" id="Layer_1" xmlns="http://www.w3.org/2000/svg" xmlns:xlink="http://www.w3.org/1999/xlink" x="0px" y="0px"
	 width="400px" height="200px" viewBox="0 0 400 200" enable-background="new 0 0 400 200" xml:space="preserve">
<g>
	<g>
		<g>
			<path fill-rule="evenodd" clip-rule="evenodd" fill="#ED6756" d="M27.61,37.22c0,0,0.048,0.162,0.098,0.474
				s0.107,0.775,0.145,1.377c0.075,1.203,0.068,2.962-0.243,5.183c-0.645,4.443-0.856,10.736,0,18.141
				c0.224,7.404,0.31,15.92,0,24.805c1.51,8.886-0.003,18.142,0,27.027c1.452,8.885-0.992,17.4,0,24.805
				c0.39,7.405-0.045,13.698,0,18.142c0.154,4.442,0,7.034,0,7.034h-1.032c0,0-1.434-2.592-1.234-7.034
				c0.29-4.443,0.272-10.736,0-18.142c0.422-7.404-1.239-15.92,0-24.805c1.365-8.886-0.128-18.142,0-27.027
				c1.573-8.885,0.078-17.401,0-24.805c0.352-7.405-0.714-13.698,0-18.141c-0.535-4.443,1.234-7.034,1.234-7.034
				S27.428,37.22,27.61,37.22z"/>
		</g>
		<g>
			<path fill="#ED6756" d="M33.778,47.471c-0.349,0.223-0.813,0.12-1.036-0.229l-6.164-9.679l-6.164,9.679
				c-0.223,0.349-0.687,0.452-1.036,0.229s-0.45-0.689-0.23-1.035l6.797-10.672c0.138-0.216,0.376-0.347,0.633-0.347
				s0.495,0.131,0.633,0.347l6.797,10.672c0.079,0.124,0.117,0.264,0.117,0.402C34.125,47.085,34.002,47.327,33.778,47.471z"/>
		</g>
	</g>
</g>
<g>
	<g>
		<g>
			<path fill-rule="evenodd" clip-rule="evenodd" fill="#ED6756" d="M372.783,162.839c0,0-0.389,0.051-1.138,0.106
				c-0.75,0.056-1.86,0.122-3.304,0.171c-2.888,0.098-7.107,0.124-12.441-0.145c-10.668-0.561-25.774-0.654-43.539,0.343
				c-17.77,0.364-38.206,0.611-59.533,0.47c-21.314,1.678-43.54,0.34-64.865,0.511c-21.313,1.62-41.77-0.663-59.533,0.469
				c-17.768,0.53-32.877,0.215-43.539,0.344c-10.661,0.238-16.882,0.133-16.882,0.133L68,164.208c0,0,6.208-1.482,16.873-1.367
				c10.665,0.206,25.77,0.068,43.539-0.344c17.775,0.282,38.198-1.54,59.534-0.469c21.336,1.197,43.538-0.471,64.864-0.511
				c21.338,1.404,41.764-0.252,59.533-0.47c17.774,0.212,32.871-0.973,43.54-0.343c10.658-0.619,16.892,1.102,16.892,1.102
				S372.781,162.656,372.783,162.839z"/>
		</g>
		<g>
			<path fill="#ED6756" d="M362.58,169.087c-0.226-0.348-0.126-0.812,0.222-1.038l9.631-6.24l-9.728-6.087
				c-0.352-0.221-0.458-0.684-0.238-1.034s0.686-0.455,1.034-0.238l10.725,6.713c0.218,0.136,0.351,0.374,0.353,0.63
				s-0.127,0.496-0.342,0.636l-10.618,6.881c-0.124,0.08-0.264,0.119-0.401,0.12C362.969,169.431,362.726,169.31,362.58,169.087z"/>
		</g>
	</g>
</g>
<g>
	<rect x="46.578" y="40.265" fill="#42B3C6" width="280.54" height="6.905"/>
	<g>
		<g>
			<path fill-rule="evenodd" clip-rule="evenodd" fill="#42B3C6" d="M325.054,47.169c0,0-0.082-0.6-0.169-1.762
				c-0.02-0.291-0.042-0.617-0.067-0.977c-0.023-0.331-0.047-0.883-0.07-0.889c-0.038-0.223-0.082-0.481-0.132-0.773
				c-0.188,0.02-0.387,0.042-0.6,0.064c-0.096,0.008-0.193,0.016-0.294,0.025c-0.4,0.006-0.812,0.013-1.235,0.019
				c-1.731,0.021-3.646,0.024-5.736,0c-4.181-0.049-9.062-0.207-14.572-0.547c-20.113-1.289-48.605-1.713-82.127,0
				c-33.521,0.448-72.071,0.62-112.296,0c-10.057,0.755-20.218,1.132-30.432,1.273c-5.107,0.071-10.227,0.082-15.353,0.053
				l-7.693-0.074l-3.849-0.056l-0.445-0.008l-0.023-0.008l-0.052-0.016l-0.134-0.034c-0.042,0.053-0.09,0.415-0.14,0.654
				c0.097,0.025,0.199,0.05,0.362,0.077l3.416,0.08l6.826,0.167c4.547,0.107,9.088,0.215,13.616,0.322
				c9.058,0.198,18.069,0.346,26.998,0.345c40.225-2.904,78.775,1.984,112.296,0c33.521-0.78,62.014,0.09,82.127,0
				c20.112-0.309,31.845,0,31.845,0v2.064c0,0-11.732,2.868-31.845,2.469c-20.113-0.581-48.605-0.544-82.127,0
				c-33.522-0.843-72.071,2.479-112.296,0c-8.929-0.606-17.94-0.931-26.998-1.071c-4.529-0.071-9.069-0.095-13.616-0.086
				c-5.022,0.039-10.053,0.078-15.086,0.117l-0.112-9.874l5.39-0.073l3.849-0.079l7.693-0.168
				c5.126-0.111,10.246-0.221,15.353-0.332c10.213-0.202,20.375-0.34,30.432-0.276c40.225,3.146,78.776,0.156,112.296,0
				c33.521,0.704,62.014-1.427,82.127,0c5.542-0.295,10.448-0.24,14.633-0.005c2.093,0.117,4.005,0.279,5.727,0.465
				c0.445,0.049,0.878,0.097,1.299,0.143c0.609,0.052,1.201,0.102,1.774,0.15c1.111,0.102,2.077,0.207,2.909,0.313
				c-0.172,1.775-0.346,3.184-0.51,4.289c-0.082,0.594-0.161,0.917-0.236,1.293c-0.078,0.359-0.149,0.685-0.213,0.975
				c-0.265,1.159-0.443,1.75-0.443,1.75S325.418,47.169,325.054,47.169z"/>
		</g>
	</g>
</g>
<g>
	<rect x="46.578" y="67.445" fill="#42B3C6" width="236.244" height="6.904"/>
	<g>
		<g>
			<path fill-rule="evenodd" clip-rule="evenodd" fill="#42B3C6" d="M280.758,74.35c0,0-0.03-0.151-0.064-0.447
				c-0.028-0.297-0.071-0.739-0.128-1.32c-0.022-0.292-0.048-0.618-0.075-0.978c-0.025-0.334-0.052-0.88-0.076-0.88
				c-0.051-0.245-0.098-0.49-0.136-0.735c-0.152,0.016-0.314,0.032-0.485,0.05c-0.078,0.006-0.158,0.012-0.239,0.018l-0.12,0.007
				c-0.154,0.001-0.312,0.003-0.47,0.005c-1.42,0.012-2.972,0.006-4.648-0.024c-3.355-0.061-7.213-0.219-11.526-0.535
				c-17.014-1.289-41.115-1.713-69.471,0c-28.355,0.448-60.964,0.62-94.991,0c-8.507,0.755-17.102,1.132-25.742,1.273
				c-4.32,0.071-8.651,0.082-12.987,0.053l-6.508-0.074l-3.112-0.056c-0.047-0.021-0.113-0.042-0.204-0.066
				c-0.05,0.045-0.107,0.413-0.168,0.682c0.08,0.025,0.18,0.05,0.301,0.076l0.046,0.01c0.022,0.003-0.007,0.006,0.155,0.01
				l0.706,0.02l1.411,0.04l5.64,0.163c3.757,0.104,7.509,0.209,11.25,0.313c7.483,0.191,14.929,0.333,22.308,0.332
				c34.026-2.904,66.635,1.984,94.991,0c28.355-0.78,52.457,0.09,69.471,0c17.013-0.309,26.938,0,26.938,0v2.064
				c0,0-9.925,2.868-26.938,2.469c-17.014-0.581-41.115-0.544-69.471,0c-28.356-0.843-60.965,2.479-94.991,0
				c-7.379-0.592-14.825-0.916-22.308-1.062c-3.742-0.073-7.493-0.102-11.25-0.097c-4.227,0.034-8.46,0.067-12.697,0.101
				l-0.13-9.855l4.726-0.073l3.326-0.079l6.508-0.168c4.336-0.111,8.667-0.221,12.987-0.332c8.64-0.202,17.235-0.34,25.742-0.276
				c34.027,3.146,66.636,0.156,94.991,0c28.356,0.704,52.458-1.427,69.471,0c4.317-0.271,8.179-0.246,11.534-0.057
				c1.677,0.094,3.229,0.23,4.647,0.39c0.193,0.021,0.385,0.041,0.574,0.061c0.274,0.021,0.546,0.042,0.814,0.063
				c0.517,0.045,1.021,0.089,1.512,0.131c0.955,0.09,1.805,0.184,2.553,0.28c-0.187,1.84-0.379,3.305-0.564,4.446
				c-0.093,0.619-0.183,0.94-0.27,1.316c-0.091,0.359-0.173,0.686-0.246,0.978c-0.308,1.164-0.521,1.766-0.521,1.766
				S281.122,74.35,280.758,74.35z"/>
		</g>
	</g>
</g>
<g>
	<rect x="46.578" y="100.584" fill="#42B3C6" width="184.566" height="6.905"/>
	<g>
		<g>
			<path fill-rule="evenodd" clip-rule="evenodd" fill="#42B3C6" d="M229.08,107.489c0,0-0.036-0.151-0.078-0.449
				s-0.097-0.741-0.153-1.324c-0.026-0.292-0.055-0.619-0.087-0.979c-0.028-0.338-0.057-0.877-0.083-0.867
				c-0.053-0.23-0.1-0.454-0.129-0.69c-0.234,0.023-0.457,0.037-0.695,0.034c-0.922-0.018-1.912-0.037-2.969-0.058
				c-2.394-0.075-5.085-0.231-8.049-0.507c-13.397-1.288-32.377-1.713-54.706,0c-22.329,0.448-48.008,0.62-74.802,0
				c-6.699,0.756-13.468,1.133-20.271,1.274c-3.402,0.07-6.812,0.082-10.227,0.052c-3.069-0.029-8.238-0.101-7.057-0.195
				c-0.064,0.032-0.138,0.411-0.218,0.732c0.064,0.024,0.145,0.05,0.24,0.075l0.155,0.038c0.035,0.004-0.02,0.007,0.09,0.01
				l0.266,0.01l0.533,0.02l4.256,0.156c2.835,0.1,5.667,0.198,8.49,0.296c5.647,0.18,11.267,0.31,16.837,0.309
				c26.795-2.904,52.473,1.984,74.802,0c22.329-0.78,41.309,0.09,54.706,0c13.397-0.31,21.213,0,21.213,0v2.063
				c0,0-7.815,2.868-21.213,2.47c-13.397-0.581-32.376-0.544-54.706,0c-22.33-0.843-48.007,2.479-74.802,0
				c-5.571-0.567-11.19-0.889-16.837-1.042c-2.824-0.077-5.655-0.113-8.49-0.116c-3.296,0.024-6.597,0.049-9.901,0.073l-0.157-9.829
				c5.614-0.093,8.226-0.206,11.793-0.32c3.415-0.111,6.826-0.221,10.227-0.332c6.803-0.202,13.572-0.34,20.271-0.276
				c26.794,3.146,52.474,0.156,74.802,0c22.329,0.704,41.309-1.427,54.706,0c2.983-0.238,5.69-0.248,8.087-0.119
				c0.599,0.032,1.179,0.073,1.738,0.122c0.586,0.048,0.96,0.104,1.984,0.165c1.721,0.123,3.184,0.269,4.373,0.427
				c-0.197,1.943-0.412,3.498-0.625,4.696c-0.106,0.657-0.212,0.963-0.314,1.342c-0.107,0.359-0.206,0.686-0.294,0.978
				c-0.37,1.164-0.642,1.765-0.642,1.765S229.444,107.489,229.08,107.489z"/>
		</g>
	</g>
</g>
<g>
	<rect x="46.578" y="136.095" fill="#42B3C6" width="107.002" height="6.905"/>
	<g>
		<g>
			<path fill-rule="evenodd" clip-rule="evenodd" fill="#42B3C6" d="M151.516,143c-0.009,0-0.057-0.154-0.12-0.455
				s-0.144-0.748-0.218-1.334c-0.031-0.294-0.066-0.622-0.104-0.982c-0.014-0.181-0.029-0.37-0.044-0.567l-0.01-0.149
				c-0.003-0.029-0.006-0.029-0.009-0.046l-0.017-0.075c-0.042-0.202-0.057-0.396-0.023-0.686c-0.167-0.025-0.336-0.077-0.585-0.165
				l-0.205-0.073c-0.242-0.028-0.489-0.058-0.739-0.087c-0.508-0.071-1.033-0.145-1.575-0.221c-7.97-1.288-19.261-1.714-32.545,0
				c-13.283,0.448-28.56,0.62-44.5,0c-3.985,0.755-8.012,1.133-12.06,1.273c-2.023,0.07-4.052,0.082-6.084,0.053l-1.524-0.03
				l-0.762-0.02l-0.381-0.012c-0.054-0.004-0.02-0.008-0.035-0.012c-0.03-0.033-0.091-0.075-0.201-0.122
				c-0.107-0.013-0.245,0.4-0.386,0.901c0.083,0.045,0.194,0.09,0.334,0.135l0.231,0.067l0.035,0.008l0.136,0.009l0.272,0.016
				l0.545,0.033c1.452,0.08,2.902,0.16,4.348,0.239c2.892,0.142,5.77,0.238,8.627,0.237c15.94-2.904,31.217,1.984,44.5,0
				c13.284-0.78,24.574,0.09,32.544,0c7.97-0.309,12.62,0,12.62,0V143c0,0-4.649,2.867-12.62,2.469
				c-7.97-0.58-19.261-0.544-32.544,0c-13.284-0.844-28.56,2.479-44.5,0c-2.857-0.489-5.735-0.795-8.627-0.969
				c-1.446-0.087-2.896-0.141-4.348-0.168l-2.65-0.022l-3.036,0.014c-0.031-3.181-0.111-6.294-0.217-9.769l4.415-0.152l3.225-0.169
				c2.032-0.11,4.061-0.221,6.084-0.331c4.047-0.201,8.074-0.34,12.06-0.276c15.94,3.146,31.217,0.155,44.5,0
				c13.284,0.704,24.575-1.427,32.545,0c0.542-0.072,1.069-0.124,1.579-0.157c0.262-0.012,0.519-0.023,0.772-0.035
				c0.441-0.003,0.874-0.006,1.3-0.009c1.704,0.005,3.257,0.073,4.546,0.188c-0.152,2.076-0.383,3.843-0.645,5.19
				c-0.13,0.76-0.269,1.053-0.408,1.429c-0.14,0.361-0.281,0.688-0.417,0.981c-0.545,1.171-1.014,1.787-1.014,1.787
				S151.88,143,151.516,143z"/>
		</g>
	</g>
</g>
<text transform="matrix(1 0 0 1 21.5781 22.5684)" fill="#ED6756" font-family="'ArchitectsDaughter'" font-size="14">+ anos de estudo</text>
<text transform="matrix(1 0 0 1 301.543 184.7197)" fill="#ED6756" font-family="'ArchitectsDaughter'" font-size="14">+ acesso</text>
<text transform="matrix(1 0 0 1 286.4922 91.0596)" font-family="'ArchitectsDaughter'" font-size="14">padrão</text>
<g>
	<g>
		<g>
			<path fill-rule="evenodd" clip-rule="evenodd" d="M330.923,45.494c0,0-0.21,0.172-0.638,0.466
				c-0.428,0.294-1.069,0.715-1.921,1.23c-1.703,1.03-4.249,2.434-7.611,3.942c-6.735,2.997-15.938,7.855-26.228,14.539
				c-10.597,6.13-22.867,13.03-35.863,19.88c-12.114,8.442-26.229,14.537-39.074,21.661c-12.143,8.392-25.639,13.078-35.863,19.88
				c-10.516,6.276-19.827,10.939-26.228,14.539c-6.348,3.696-10.17,5.638-10.17,5.638l-0.5-0.902c0,0,3.052-3.331,9.572-6.717
				c6.564-3.308,15.654-8.367,26.228-14.54c10.91-5.565,22.416-13.843,35.863-19.88c13.509-5.927,26.166-14.651,39.075-21.661
				c13.608-5.746,25.195-13.878,35.862-19.88c10.876-5.626,19.459-11.603,26.229-14.539c6.163-4.028,10.769-4.558,10.769-4.558
				S330.835,45.335,330.923,45.494z"/>
		</g>
		<g>
			<path d="M324.947,55.858c-0.363-0.197-0.498-0.653-0.301-1.018l5.477-10.083l-11.454-0.699c-0.413-0.025-0.729-0.381-0.703-0.794
				c0.026-0.413,0.385-0.728,0.795-0.704l12.629,0.771c0.256,0.016,0.486,0.161,0.61,0.385s0.125,0.497,0.003,0.722l-6.038,11.119
				c-0.07,0.13-0.175,0.231-0.295,0.298C325.453,55.975,325.182,55.985,324.947,55.858z"/>
		</g>
	</g>
</g>
</svg>
