<?xml version="1.0" encoding="utf-8"?>
<!-- Generator: Adobe Illustrator 16.0.0, SVG Export Plug-In . SVG Version: 6.00 Build 0)  -->
<!DOCTYPE svg PUBLIC "-//W3C//DTD SVG 1.1//EN" "http://www.w3.org/Graphics/SVG/1.1/DTD/svg11.dtd">
<svg version="1.1" id="Layer_1" xmlns="http://www.w3.org/2000/svg" xmlns:xlink="http://www.w3.org/1999/xlink" x="0px" y="0px"
	 width="400px" height="140px" viewBox="0 0 400 140" enable-background="new 0 0 400 140" xml:space="preserve">
<text transform="matrix(1 0 0 1 272.5781 63.2148)"><tspan x="0" y="0" fill="#ED6756" font-family="'ArchitectsDaughter'" font-size="14">+ acesso</tspan><tspan x="0" y="16.8" fill="#ED6756" font-family="'ArchitectsDaughter'" font-size="14">- analfabetismo</tspan></text>
<g>
	<g>
		<g>
			<path fill-rule="evenodd" clip-rule="evenodd" fill="#C8C8B4" d="M334.045,132.777c0,0-0.112-0.002-0.327-0.032
				c-0.215-0.029-0.533-0.079-0.949-0.155c-0.831-0.151-2.054-0.408-3.621-0.813c-3.135-0.81-7.648-2.214-13.171-4.566
				c-11.032-4.748-27.073-10.136-46.598-14.359c-19.151-5.434-41.075-12.009-63.717-19.635
				c-23.713-4.146-46.596-14.364-69.422-21.393c-23.679-4.257-44.111-15.669-63.716-19.634c-19.25-5.115-35.16-10.928-46.598-14.359
				c-11.503-3.221-18.069-5.568-18.069-5.568l0.608-1.973c0,0,7.501-0.689,18.796,3.208c11.241,4.072,27.418,9.019,46.598,14.359
				c18.772,6.667,41.623,10.232,63.716,19.634c22.02,9.644,46.674,14.115,69.423,21.393c21.896,10.039,44.65,13.922,63.716,19.635
				c18.812,6.533,35.606,9.479,46.598,14.359c11.727,2.494,17.342,7.927,17.342,7.927S334.152,132.43,334.045,132.777z"/>
		</g>
	</g>
</g>
<g>
	<g>
		<g>
			<path fill-rule="evenodd" clip-rule="evenodd" fill="#42B3C6" d="M335.262,10.418c0,0-0.096,0.061-0.289,0.158
				c-0.194,0.097-0.485,0.234-0.872,0.406c-0.772,0.342-1.928,0.818-3.451,1.366c-3.047,1.095-7.568,2.475-13.457,3.639
				c-11.791,2.285-28.083,6.861-46.598,14.359c-18.888,6.289-40.71,13.193-63.716,19.634c-21.935,9.919-46.6,14.354-69.422,21.392
				c-21.968,9.809-45.281,11.877-63.716,19.635c-18.79,6.606-35.212,10.757-46.598,14.359c-11.321,3.812-18.069,5.567-18.069,5.567
				l-0.608-1.973c0,0,5.812-4.791,17.342-7.927c11.583-2.962,27.738-7.979,46.598-14.359c19.269-5.056,40.163-14.97,63.716-19.635
				c23.628-4.423,46.523-14.604,69.421-21.393c23.75-4.027,44.743-13.625,63.717-19.634c19.227-5.188,34.766-12.207,46.598-14.359
				c11.097-4.539,18.796-3.208,18.796-3.208S335.154,10.07,335.262,10.418z"/>
		</g>
	</g>
</g>
<g>
	<g>
		<g>
			<path fill-rule="evenodd" clip-rule="evenodd" fill="#ED6756" d="M327.137,111.523c0,0-0.163,0.001-0.464-0.039
				c-0.3-0.041-0.741-0.116-1.303-0.251c-1.124-0.269-2.731-0.771-4.674-1.694c-3.878-1.869-9.578-3.848-16.61-5.118
				c-6.845-1.875-14.667-4.195-22.711-6.998c-8.58-1.063-16.609-5.12-24.745-7.625c-8.563-1.119-15.64-5.857-22.712-6.998
				c-6.895-1.716-12.528-3.907-16.609-5.118c-4.113-1.105-6.44-1.984-6.44-1.984l0.304-0.986c0,0,2.795-0.639,6.804,0.805
				c3.982,1.531,9.75,3.289,16.61,5.118c6.655,2.492,14.94,3.308,22.711,6.998c7.733,3.812,16.647,4.996,24.745,7.625
				c7.673,4.01,15.909,4.983,22.712,6.998c6.676,2.426,12.752,3.183,16.609,5.118c4.226,0.742,6.077,3.164,6.077,3.164
				S327.19,111.35,327.137,111.523z"/>
		</g>
		<g>
			<path fill="#ED6756" d="M315.523,114.399c-0.11-0.399,0.125-0.812,0.524-0.923l11.065-3.04l-7.435-8.741
				c-0.269-0.315-0.23-0.79,0.085-1.058s0.791-0.227,1.058,0.086l8.197,9.638c0.166,0.195,0.221,0.462,0.146,0.707
				s-0.271,0.435-0.519,0.503l-12.2,3.353c-0.142,0.039-0.287,0.034-0.419-0.007C315.79,114.845,315.595,114.655,315.523,114.399z"
				/>
		</g>
	</g>
</g>
<g>
	<g>
		<g>
			<path fill-rule="evenodd" clip-rule="evenodd" fill="#ED6756" d="M327.744,28.376c0,0-0.134,0.092-0.405,0.228
				c-0.271,0.136-0.678,0.321-1.218,0.527c-1.08,0.411-2.691,0.9-4.817,1.23c-4.257,0.638-10.082,2.21-16.609,5.118
				c-6.714,2.303-14.485,4.787-22.712,6.998c-7.69,3.95-16.61,5.116-24.745,7.625c-7.708,3.895-16.224,3.96-22.711,6.998
				c-6.665,2.461-12.556,3.821-16.61,5.118c-4.021,1.401-6.44,1.984-6.44,1.984l-0.304-0.986c0,0,1.951-2.101,6.077-3.164
				c4.153-0.976,9.91-2.769,16.609-5.118c6.904-1.686,14.211-5.675,22.712-6.998c8.537-1.202,16.572-5.24,24.745-7.625
				c8.599-1.003,15.955-4.834,22.711-6.998c6.884-1.752,12.332-4.546,16.61-5.118c3.91-1.765,6.804-0.805,6.804-0.805
				S327.69,28.202,327.744,28.376z"/>
		</g>
		<g>
			<path fill="#ED6756" d="M319.764,37.289c-0.315-0.268-0.354-0.742-0.085-1.058l7.435-8.741l-11.065-3.041
				c-0.399-0.11-0.635-0.523-0.524-0.922c0.11-0.399,0.526-0.633,0.922-0.525l12.2,3.353c0.247,0.068,0.443,0.257,0.519,0.502
				s0.021,0.512-0.146,0.707l-8.197,9.638c-0.096,0.112-0.219,0.19-0.35,0.23C320.234,37.507,319.967,37.46,319.764,37.289z"/>
		</g>
	</g>
</g>
</svg>
