<?xml version="1.0" encoding="utf-8"?>
<!-- Generator: Adobe Illustrator 16.0.0, SVG Export Plug-In . SVG Version: 6.00 Build 0)  -->
<!DOCTYPE svg PUBLIC "-//W3C//DTD SVG 1.1//EN" "http://www.w3.org/Graphics/SVG/1.1/DTD/svg11.dtd">
<svg version="1.1" id="Layer_1" xmlns="http://www.w3.org/2000/svg" xmlns:xlink="http://www.w3.org/1999/xlink" x="0px" y="0px"
	 width="400px" height="200px" viewBox="0 0 400 200" enable-background="new 0 0 400 200" xml:space="preserve">
<g>
	<g>
		<g>
			<path fill="#ED6756" d="M17.277,36.724c0,0,0.048,0.167,0.098,0.487c0.05,0.321,0.107,0.797,0.145,1.415
				c0.075,1.237,0.068,3.044-0.243,5.327c-0.645,4.566-0.856,11.034,0,18.644c0.224,7.61,0.31,16.362,0,25.494
				c1.51,9.132-0.003,18.646,0,27.776c1.452,9.132-0.992,17.884,0,25.492c0.39,7.611-0.045,14.078,0,18.646
				c0.154,4.565,0,7.229,0,7.229h-1.032c0,0-1.434-2.664-1.234-7.229c0.29-4.565,0.272-11.034,0-18.646
				c0.422-7.609-1.239-16.36,0-25.492c1.365-9.133-0.128-18.645,0-27.776c1.573-9.132,0.078-17.884,0-25.494
				c0.352-7.61-0.714-14.078,0-18.644c-0.535-4.566,1.234-7.229,1.234-7.229S17.095,36.724,17.277,36.724z"/>
		</g>
		<g>
			<path fill="#ED6756" d="M23.445,46.975c-0.349,0.223-0.813,0.12-1.036-0.229l-6.164-9.679l-6.164,9.679
				c-0.223,0.349-0.687,0.452-1.036,0.229s-0.45-0.689-0.23-1.035l6.797-10.672c0.138-0.216,0.376-0.347,0.633-0.347
				c0.257,0,0.495,0.131,0.633,0.347l6.797,10.672c0.079,0.124,0.117,0.264,0.117,0.402C23.792,46.589,23.669,46.831,23.445,46.975z
				"/>
		</g>
	</g>
</g>
<g>
	<g>
		<g>
			<path fill="#ED6756" d="M382.774,160.592c0,0-0.371,0.049-1.09,0.1c-0.717,0.05-1.777,0.106-3.158,0.145
				c-2.763,0.074-6.799,0.066-11.896-0.243c-10.196-0.645-24.641-0.856-41.635,0c-16.993,0.224-36.536,0.31-56.929,0
				c-20.394,1.511-41.635-0.003-62.026,0c-20.393,1.452-39.935-0.991-56.929,0c-16.993,0.392-31.438-0.045-41.634,0
				c-10.196,0.154-16.144,0-16.144,0v-1.032c0,0,5.948-1.434,16.144-1.233c10.196,0.29,24.641,0.272,41.634,0
				c16.994,0.422,36.537-1.239,56.929,0c20.394,1.364,41.634-0.128,62.026,0c20.393,1.573,39.936,0.078,56.929,0
				c16.994,0.353,31.438-0.714,41.635,0c10.195-0.535,16.145,1.233,16.145,1.233S382.774,160.41,382.774,160.592z"/>
		</g>
		<g>
			<path fill="#ED6756" d="M372.523,166.76c-0.224-0.35-0.119-0.812,0.229-1.035l9.679-6.164l-9.679-6.164
				c-0.349-0.224-0.452-0.688-0.229-1.037c0.223-0.348,0.688-0.448,1.034-0.229l10.673,6.797c0.217,0.139,0.348,0.377,0.348,0.633
				c0,0.258-0.131,0.496-0.348,0.633l-10.673,6.798c-0.124,0.079-0.264,0.116-0.401,0.116
				C372.909,167.105,372.667,166.982,372.523,166.76z"/>
		</g>
	</g>
</g>
<g enable-background="new    ">
	<path fill="#ED6756" d="M15.415,21.225c-0.019-0.246-0.041-0.526-0.068-0.841s-0.062-0.641-0.103-0.978s-0.096-0.67-0.164-0.998
		s-0.148-0.624-0.239-0.889c-0.237,0-0.472,0.029-0.704,0.089s-0.465,0.123-0.697,0.191s-0.47,0.135-0.711,0.198
		c-0.242,0.063-0.49,0.101-0.745,0.109c-0.137,0-0.265-0.032-0.383-0.096c-0.119-0.063-0.178-0.183-0.178-0.355
		c0-0.137,0.084-0.239,0.253-0.308c0.168-0.068,0.38-0.121,0.636-0.157c0.255-0.036,0.528-0.063,0.82-0.082
		c0.292-0.019,0.565-0.041,0.82-0.068c0.255-0.027,0.467-0.068,0.636-0.123c0.168-0.055,0.253-0.137,0.253-0.246v-2.83
		c0-0.082,0.022-0.144,0.068-0.185c0.045-0.041,0.1-0.073,0.164-0.096c0.063-0.022,0.13-0.036,0.198-0.041s0.121-0.007,0.157-0.007
		c0.2,0,0.33,0.034,0.39,0.103c0.059,0.068,0.111,0.234,0.157,0.499c0.018,0.082,0.043,0.232,0.075,0.451
		c0.032,0.219,0.063,0.449,0.096,0.69c0.032,0.241,0.059,0.47,0.082,0.684c0.022,0.214,0.039,0.362,0.048,0.444h3.746
		c0,0.173-0.075,0.312-0.226,0.417s-0.347,0.185-0.588,0.239c-0.242,0.055-0.506,0.089-0.793,0.103s-0.57,0.022-0.848,0.027
		c-0.278,0.005-0.533,0.012-0.766,0.021s-0.408,0.027-0.526,0.055c-0.046,0.273-0.05,0.579-0.014,0.916
		c0.036,0.337,0.082,0.682,0.137,1.032s0.103,0.702,0.144,1.053s0.043,0.677,0.007,0.978c-0.055,0.046-0.142,0.094-0.26,0.144
		c-0.119,0.05-0.239,0.087-0.362,0.109s-0.232,0.019-0.328-0.014S15.442,21.353,15.415,21.225z"/>
	<path fill="#ED6756" d="M34.597,19.242c-0.265,0.41-0.57,0.781-0.916,1.114c-0.347,0.333-0.727,0.615-1.142,0.848
		c-0.415,0.232-0.866,0.403-1.354,0.513c-0.488,0.109-1,0.142-1.538,0.096c-0.191,0-0.396-0.022-0.615-0.068
		s-0.422-0.118-0.608-0.219c-0.187-0.101-0.34-0.232-0.458-0.396c-0.119-0.164-0.178-0.369-0.178-0.615
		c-0.101-0.511-0.08-1.027,0.062-1.552c0.141-0.524,0.362-1.03,0.663-1.518s0.67-0.938,1.107-1.354s0.904-0.766,1.401-1.053
		c0.497-0.287,1.007-0.494,1.531-0.622c0.524-0.128,1.032-0.146,1.524-0.055c0.374,0,0.665,0.123,0.875,0.369
		c0.209,0.246,0.367,0.574,0.472,0.984c0.104,0.41,0.171,0.882,0.198,1.415s0.05,1.082,0.068,1.647
		c0.018,0.565,0.043,1.123,0.075,1.675c0.032,0.552,0.103,1.055,0.212,1.511h-1.012c-0.046-0.31-0.08-0.583-0.103-0.82
		c-0.023-0.237-0.043-0.458-0.062-0.663c-0.019-0.205-0.043-0.403-0.075-0.595C34.694,19.693,34.651,19.479,34.597,19.242z
		 M33.558,15.592c-0.355-0.027-0.723,0.021-1.101,0.144c-0.378,0.123-0.743,0.296-1.094,0.52c-0.351,0.224-0.679,0.487-0.984,0.793
		c-0.306,0.306-0.572,0.622-0.8,0.95c-0.228,0.328-0.403,0.654-0.526,0.978s-0.173,0.622-0.15,0.896
		c0.022,0.273,0.125,0.506,0.308,0.697c0.182,0.191,0.465,0.319,0.848,0.383c0.547-0.009,1.073-0.148,1.579-0.417
		s0.957-0.602,1.354-0.998s0.727-0.825,0.991-1.285c0.264-0.46,0.435-0.887,0.513-1.278c0.077-0.392,0.043-0.72-0.103-0.984
		C34.246,15.724,33.968,15.592,33.558,15.592z"/>
	<path fill="#ED6756" d="M36.688,19.379c-0.037-0.419,0.041-0.836,0.232-1.251s0.458-0.812,0.8-1.189s0.743-0.729,1.203-1.053
		c0.46-0.323,0.945-0.6,1.456-0.827c0.51-0.228,1.027-0.398,1.552-0.513c0.524-0.114,1.019-0.148,1.483-0.103
		c0.173,0,0.346,0.009,0.52,0.027c0.173,0.019,0.326,0.063,0.458,0.137c0.132,0.073,0.239,0.178,0.321,0.314
		s0.123,0.323,0.123,0.561c0,0.118-0.03,0.224-0.089,0.314c-0.06,0.091-0.132,0.178-0.219,0.26c-0.087,0.082-0.18,0.155-0.28,0.219
		c-0.101,0.063-0.191,0.128-0.273,0.191c-0.027-0.128-0.055-0.248-0.082-0.362s-0.071-0.214-0.13-0.301
		c-0.06-0.087-0.137-0.155-0.232-0.205s-0.221-0.075-0.376-0.075c-0.538,0.109-1.119,0.275-1.743,0.499
		c-0.625,0.224-1.199,0.49-1.723,0.8c-0.524,0.31-0.946,0.658-1.265,1.046c-0.319,0.388-0.442,0.805-0.369,1.251
		c0,0.401,0.077,0.725,0.232,0.971c0.155,0.246,0.357,0.438,0.608,0.574c0.25,0.137,0.538,0.228,0.861,0.273
		c0.323,0.046,0.654,0.068,0.991,0.068c0.52,0,1.023-0.077,1.511-0.232c0.487-0.155,0.964-0.328,1.429-0.52s0.92-0.364,1.367-0.52
		c0.446-0.155,0.884-0.232,1.312-0.232c0.073,0,0.148,0.005,0.226,0.014c0.077,0.009,0.146,0.034,0.205,0.075
		c0.059,0.041,0.1,0.101,0.123,0.178c0.022,0.077,0.021,0.185-0.007,0.321c-0.046,0.164-0.208,0.328-0.485,0.492
		c-0.278,0.164-0.62,0.319-1.025,0.465c-0.406,0.146-0.848,0.282-1.326,0.41s-0.943,0.237-1.395,0.328s-0.857,0.162-1.217,0.212
		c-0.36,0.05-0.627,0.075-0.8,0.075c-0.401,0-0.834-0.046-1.299-0.137s-0.896-0.241-1.292-0.451s-0.727-0.485-0.991-0.827
		C36.82,20.315,36.688,19.89,36.688,19.379z"/>
	<path fill="#ED6756" d="M47.763,19.83c-0.082-0.738-0.012-1.458,0.212-2.16c0.223-0.702,0.561-1.321,1.012-1.859
		s0.996-0.964,1.634-1.278c0.638-0.314,1.335-0.463,2.092-0.444c0.127,0,0.298,0.019,0.513,0.055
		c0.214,0.036,0.442,0.094,0.684,0.171c0.241,0.077,0.479,0.176,0.711,0.294s0.438,0.26,0.615,0.424s0.312,0.349,0.403,0.554
		c0.091,0.205,0.114,0.436,0.068,0.69c-0.374,0.265-0.805,0.446-1.292,0.547c-0.488,0.101-0.984,0.171-1.49,0.212
		s-1,0.077-1.483,0.109c-0.483,0.032-0.905,0.116-1.265,0.253c-0.36,0.137-0.638,0.354-0.834,0.649
		c-0.196,0.296-0.258,0.723-0.185,1.278c0.137,0.501,0.362,0.87,0.677,1.107s0.679,0.381,1.094,0.431
		c0.415,0.05,0.856,0.027,1.326-0.068c0.469-0.096,0.93-0.221,1.381-0.376s0.873-0.319,1.265-0.492
		c0.392-0.173,0.715-0.314,0.971-0.424c0.118,0,0.219,0.043,0.301,0.13s0.123,0.189,0.123,0.308
		c-0.228,0.392-0.574,0.743-1.039,1.053s-0.989,0.561-1.572,0.752c-0.583,0.191-1.192,0.31-1.825,0.355
		c-0.634,0.046-1.229,0-1.784-0.137c-0.556-0.137-1.044-0.378-1.463-0.725C48.191,20.892,47.908,20.423,47.763,19.83z
		 M52.589,15.113c-0.164,0-0.365,0.019-0.602,0.055c-0.237,0.036-0.465,0.101-0.684,0.191s-0.408,0.21-0.567,0.355
		c-0.16,0.146-0.239,0.333-0.239,0.561l3.391-0.561c-0.146-0.219-0.335-0.374-0.567-0.465S52.844,15.113,52.589,15.113z"/>
	<path fill="#ED6756" d="M59.22,21.799c0.647-0.21,1.251-0.456,1.812-0.738s1.03-0.561,1.408-0.834
		c0.378-0.273,0.633-0.526,0.766-0.759c0.132-0.232,0.096-0.408-0.109-0.526s-0.608-0.157-1.21-0.116s-1.454,0.198-2.557,0.472
		c-0.328-0.009-0.622-0.073-0.882-0.191s-0.481-0.265-0.663-0.438c-0.183-0.173-0.321-0.362-0.417-0.567s-0.144-0.403-0.144-0.595
		c0-0.301,0.103-0.6,0.308-0.896s0.48-0.576,0.827-0.841c0.346-0.265,0.747-0.504,1.203-0.718c0.456-0.214,0.934-0.388,1.436-0.52
		c0.501-0.132,1.014-0.219,1.538-0.26c0.524-0.041,1.027-0.016,1.511,0.075c0.273,0,0.433,0.121,0.479,0.362
		c0.045,0.241,0.068,0.631,0.068,1.169c-0.374-0.173-0.777-0.296-1.21-0.369c-0.433-0.073-0.868-0.101-1.306-0.082
		s-0.861,0.08-1.271,0.185s-0.772,0.251-1.087,0.438s-0.572,0.417-0.772,0.69c-0.201,0.273-0.306,0.583-0.314,0.93
		c0,0.191,0.075,0.316,0.226,0.376s0.328,0.087,0.533,0.082s0.419-0.027,0.643-0.068c0.223-0.041,0.403-0.062,0.54-0.062
		c1.23-0.265,2.188-0.374,2.871-0.328s1.144,0.191,1.381,0.438c0.237,0.246,0.273,0.562,0.109,0.95s-0.481,0.795-0.95,1.224
		c-0.47,0.429-1.064,0.846-1.784,1.251c-0.72,0.405-1.518,0.75-2.393,1.032c-0.046,0-0.096-0.034-0.15-0.103
		s-0.112-0.148-0.171-0.239c-0.06-0.091-0.112-0.178-0.157-0.26C59.283,21.881,59.247,21.826,59.22,21.799z"/>
	<path fill="#ED6756" d="M68.011,21.799c0.647-0.21,1.251-0.456,1.812-0.738s1.03-0.561,1.408-0.834
		c0.378-0.273,0.633-0.526,0.766-0.759c0.132-0.232,0.096-0.408-0.109-0.526s-0.608-0.157-1.21-0.116s-1.454,0.198-2.557,0.472
		c-0.328-0.009-0.622-0.073-0.882-0.191s-0.481-0.265-0.663-0.438c-0.183-0.173-0.321-0.362-0.417-0.567s-0.144-0.403-0.144-0.595
		c0-0.301,0.103-0.6,0.308-0.896s0.48-0.576,0.827-0.841c0.346-0.265,0.747-0.504,1.203-0.718c0.456-0.214,0.934-0.388,1.436-0.52
		c0.501-0.132,1.014-0.219,1.538-0.26c0.524-0.041,1.027-0.016,1.511,0.075c0.273,0,0.433,0.121,0.479,0.362
		c0.045,0.241,0.068,0.631,0.068,1.169c-0.374-0.173-0.777-0.296-1.21-0.369c-0.433-0.073-0.868-0.101-1.306-0.082
		s-0.861,0.08-1.271,0.185s-0.772,0.251-1.087,0.438s-0.572,0.417-0.772,0.69c-0.201,0.273-0.306,0.583-0.314,0.93
		c0,0.191,0.075,0.316,0.226,0.376s0.328,0.087,0.533,0.082s0.419-0.027,0.643-0.068c0.223-0.041,0.403-0.062,0.54-0.062
		c1.23-0.265,2.188-0.374,2.871-0.328s1.144,0.191,1.381,0.438c0.237,0.246,0.273,0.562,0.109,0.95s-0.481,0.795-0.95,1.224
		c-0.47,0.429-1.064,0.846-1.784,1.251c-0.72,0.405-1.518,0.75-2.393,1.032c-0.046,0-0.096-0.034-0.15-0.103
		s-0.112-0.148-0.171-0.239c-0.06-0.091-0.112-0.178-0.157-0.26C68.074,21.881,68.038,21.826,68.011,21.799z"/>
	<path fill="#ED6756" d="M75.325,18.832c0-0.747,0.164-1.388,0.492-1.921s0.743-0.978,1.244-1.333
		c0.501-0.355,1.048-0.627,1.641-0.813c0.592-0.187,1.157-0.308,1.695-0.362c0.52-0.027,1.007,0.039,1.463,0.198
		c0.456,0.159,0.848,0.385,1.176,0.677s0.581,0.638,0.759,1.039s0.244,0.825,0.198,1.271c0,0.747-0.148,1.401-0.444,1.962
		c-0.296,0.561-0.69,1.03-1.183,1.408s-1.064,0.661-1.716,0.848c-0.652,0.187-1.333,0.28-2.044,0.28
		c-1.076,0-1.892-0.251-2.447-0.752C75.603,20.833,75.325,19.999,75.325,18.832z M76.501,19.242c0,0.383,0.048,0.688,0.144,0.916
		s0.237,0.398,0.424,0.513c0.187,0.114,0.415,0.189,0.684,0.226c0.269,0.036,0.581,0.055,0.937,0.055
		c0.547,0,1.075-0.053,1.586-0.157c0.51-0.104,0.961-0.282,1.354-0.533c0.392-0.251,0.706-0.583,0.943-0.998
		c0.237-0.415,0.355-0.932,0.355-1.552c0-0.319-0.046-0.622-0.137-0.909c-0.091-0.287-0.228-0.538-0.41-0.752
		c-0.183-0.214-0.406-0.385-0.67-0.513c-0.265-0.128-0.565-0.191-0.902-0.191c-0.447,0.073-0.894,0.157-1.34,0.253
		c-0.447,0.096-0.866,0.269-1.258,0.52c-0.392,0.251-0.738,0.62-1.039,1.107S76.646,18.386,76.501,19.242z"/>
</g>
<g enable-background="new    ">
	<path fill="#ED6756" d="M326.842,183.721c-0.019-0.246-0.041-0.526-0.068-0.841s-0.062-0.641-0.103-0.978s-0.096-0.67-0.164-0.998
		s-0.148-0.624-0.239-0.889c-0.237,0-0.472,0.029-0.704,0.089s-0.465,0.123-0.697,0.191s-0.47,0.135-0.711,0.198
		s-0.49,0.101-0.745,0.109c-0.137,0-0.265-0.032-0.383-0.096c-0.119-0.063-0.178-0.183-0.178-0.355c0-0.137,0.084-0.239,0.253-0.308
		s0.38-0.121,0.636-0.157c0.255-0.036,0.528-0.063,0.82-0.082c0.291-0.019,0.564-0.041,0.82-0.068
		c0.255-0.027,0.467-0.068,0.636-0.123s0.253-0.137,0.253-0.246v-2.83c0-0.082,0.022-0.144,0.068-0.185
		c0.045-0.041,0.1-0.073,0.164-0.096c0.063-0.022,0.13-0.036,0.198-0.041s0.12-0.007,0.157-0.007c0.2,0,0.33,0.034,0.39,0.103
		s0.111,0.234,0.157,0.499c0.018,0.082,0.043,0.232,0.075,0.451s0.063,0.449,0.096,0.69s0.06,0.47,0.082,0.684
		s0.038,0.362,0.048,0.444h3.746c0,0.173-0.075,0.312-0.226,0.417s-0.347,0.185-0.588,0.239s-0.506,0.089-0.793,0.103
		s-0.569,0.022-0.848,0.027s-0.533,0.012-0.766,0.021s-0.408,0.027-0.526,0.055c-0.046,0.273-0.051,0.579-0.014,0.916
		c0.036,0.337,0.082,0.682,0.137,1.032s0.103,0.702,0.144,1.053s0.043,0.677,0.007,0.978c-0.055,0.046-0.142,0.094-0.26,0.144
		c-0.119,0.05-0.239,0.087-0.362,0.109s-0.232,0.019-0.328-0.014S326.869,183.849,326.842,183.721z"/>
	<path fill="#ED6756" d="M339.311,176.748c0-0.173,0.062-0.287,0.185-0.342s0.257-0.082,0.403-0.082
		c0.236,0,0.426,0.098,0.567,0.294s0.251,0.424,0.328,0.684s0.132,0.515,0.164,0.766s0.057,0.431,0.075,0.54
		c0.337-0.31,0.715-0.597,1.135-0.861c0.419-0.265,0.887-0.49,1.401-0.677s1.089-0.323,1.723-0.41s1.342-0.107,2.126-0.062
		c0.246-0.055,0.431-0.002,0.554,0.157s0.193,0.349,0.212,0.567c0.018,0.219-0.016,0.433-0.103,0.643s-0.217,0.333-0.39,0.369
		c-0.319-0.237-0.704-0.39-1.155-0.458s-0.921-0.066-1.408,0.007s-0.969,0.207-1.442,0.403c-0.475,0.196-0.896,0.444-1.265,0.745
		s-0.661,0.647-0.875,1.039s-0.304,0.815-0.267,1.271c0,0.282,0.018,0.559,0.055,0.827c0.036,0.269,0.075,0.538,0.116,0.807
		s0.079,0.538,0.116,0.807c0.036,0.269,0.055,0.54,0.055,0.813c-0.246,0.019-0.444,0.05-0.595,0.096s-0.276,0.066-0.376,0.062
		c-0.101-0.005-0.188-0.05-0.26-0.137c-0.073-0.087-0.155-0.262-0.246-0.526c-0.01-0.063-0.032-0.255-0.068-0.574
		c-0.037-0.319-0.08-0.706-0.13-1.162s-0.107-0.955-0.171-1.497c-0.064-0.542-0.125-1.075-0.185-1.6s-0.114-1.007-0.164-1.449
		S339.338,177.013,339.311,176.748z"/>
	<path fill="#ED6756" d="M348.867,182.326c-0.082-0.738-0.012-1.458,0.212-2.16s0.561-1.321,1.012-1.859s0.995-0.964,1.634-1.278
		c0.638-0.314,1.335-0.463,2.092-0.444c0.127,0,0.299,0.019,0.513,0.055s0.442,0.094,0.684,0.171s0.479,0.176,0.711,0.294
		s0.438,0.26,0.615,0.424s0.312,0.349,0.403,0.554c0.091,0.205,0.113,0.436,0.068,0.69c-0.374,0.265-0.805,0.446-1.292,0.547
		s-0.984,0.171-1.49,0.212s-1.001,0.077-1.483,0.109c-0.483,0.032-0.904,0.116-1.265,0.253s-0.638,0.354-0.834,0.649
		s-0.258,0.723-0.185,1.278c0.137,0.501,0.362,0.87,0.677,1.107s0.679,0.381,1.094,0.431s0.856,0.027,1.326-0.068
		s0.93-0.221,1.381-0.376s0.872-0.319,1.265-0.492c0.392-0.173,0.715-0.314,0.971-0.424c0.118,0,0.219,0.043,0.301,0.13
		s0.123,0.189,0.123,0.308c-0.229,0.392-0.574,0.743-1.039,1.053s-0.989,0.561-1.572,0.752c-0.584,0.191-1.191,0.31-1.825,0.355
		s-1.229,0-1.784-0.137c-0.557-0.137-1.044-0.378-1.463-0.725C349.295,183.388,349.013,182.919,348.867,182.326z M353.693,177.609
		c-0.164,0-0.365,0.019-0.602,0.055c-0.237,0.036-0.465,0.101-0.684,0.191s-0.408,0.21-0.567,0.355s-0.239,0.333-0.239,0.561
		l3.391-0.561c-0.146-0.219-0.335-0.374-0.567-0.465S353.948,177.609,353.693,177.609z"/>
	<path fill="#ED6756" d="M364.863,177.842c0.063-0.146-0.005-0.23-0.205-0.253c-0.201-0.022-0.475-0.002-0.82,0.062
		c-0.347,0.063-0.734,0.164-1.162,0.301c-0.429,0.137-0.836,0.299-1.224,0.485s-0.725,0.395-1.012,0.622s-0.463,0.456-0.526,0.684
		l-0.014,4.648h-1.135c-0.055-0.128-0.098-0.33-0.13-0.608s-0.058-0.606-0.075-0.984c-0.019-0.378-0.029-0.788-0.034-1.23
		s-0.003-0.889,0.007-1.34c0.009-0.451,0.022-0.894,0.041-1.326c0.018-0.433,0.039-0.827,0.062-1.183s0.046-0.654,0.068-0.896
		s0.048-0.403,0.075-0.485c0.1-0.073,0.214-0.142,0.342-0.205c0.127-0.063,0.255-0.096,0.383-0.096
		c0.164,0.009,0.275,0.116,0.335,0.321s0.089,0.438,0.089,0.697s-0.016,0.513-0.048,0.759s-0.048,0.415-0.048,0.506
		c0.947-0.702,1.764-1.212,2.447-1.531s1.26-0.487,1.729-0.506s0.845,0.091,1.128,0.328c0.282,0.237,0.501,0.565,0.656,0.984
		c0.154,0.419,0.258,0.909,0.308,1.47s0.079,1.15,0.089,1.771c0.009,0.62,0.009,1.251,0,1.894c-0.01,0.643,0,1.256,0.027,1.839
		c-0.109,0.055-0.185,0.087-0.226,0.096s-0.087,0.007-0.137-0.007s-0.116-0.029-0.198-0.048s-0.21-0.032-0.383-0.041
		c-0.109-0.446-0.171-0.957-0.185-1.531s-0.017-1.162-0.007-1.764c0.009-0.602,0.004-1.198-0.014-1.791
		C365.05,178.89,364.981,178.343,364.863,177.842z"/>
	<path fill="#ED6756" d="M373.723,182.682c-0.629,0.483-1.26,0.887-1.894,1.21s-1.242,0.518-1.825,0.581
		c-0.584,0.063-1.137-0.025-1.661-0.267s-0.991-0.69-1.401-1.347c-0.128-0.593-0.119-1.153,0.027-1.682
		c0.146-0.528,0.387-1.012,0.725-1.449c0.337-0.438,0.747-0.818,1.23-1.142c0.482-0.323,0.998-0.576,1.545-0.759
		s1.109-0.282,1.688-0.301s1.132,0.06,1.661,0.232c0-0.137,0.007-0.347,0.021-0.629s0.029-0.602,0.048-0.957
		c0.018-0.355,0.036-0.729,0.055-1.121c0.018-0.392,0.039-0.766,0.062-1.121s0.043-0.672,0.062-0.95
		c0.018-0.278,0.031-0.485,0.041-0.622c0.018-0.219,0.043-0.419,0.075-0.602s0.089-0.342,0.171-0.479s0.193-0.244,0.335-0.321
		s0.33-0.116,0.567-0.116c0,1.094-0.032,2.16-0.096,3.199c-0.064,1.039-0.121,2.085-0.171,3.138s-0.073,2.126-0.068,3.22
		s0.079,2.247,0.226,3.459c0,0.265-0.048,0.451-0.144,0.561s-0.258,0.164-0.485,0.164c-0.219,0-0.385-0.07-0.499-0.212
		s-0.191-0.31-0.232-0.506s-0.062-0.403-0.062-0.622S373.723,182.837,373.723,182.682z M368.131,182.148
		c0.018,0.419,0.139,0.718,0.362,0.896s0.535,0.23,0.937,0.157c0.191,0,0.485-0.053,0.882-0.157s0.807-0.241,1.23-0.41
		s0.822-0.355,1.196-0.561c0.373-0.205,0.638-0.412,0.793-0.622v-2.27c0-0.137-0.034-0.246-0.103-0.328s-0.155-0.144-0.26-0.185
		s-0.214-0.066-0.328-0.075s-0.212-0.014-0.294-0.014c-0.246-0.036-0.531-0.021-0.854,0.048s-0.656,0.178-0.998,0.328
		s-0.675,0.337-0.998,0.561s-0.608,0.474-0.854,0.752s-0.438,0.576-0.574,0.896S368.085,181.812,368.131,182.148z"/>
	<path fill="#ED6756" d="M382.855,181.738c-0.265,0.41-0.57,0.781-0.916,1.114c-0.347,0.333-0.727,0.615-1.142,0.848
		s-0.866,0.403-1.354,0.513s-1.001,0.142-1.538,0.096c-0.191,0-0.396-0.022-0.615-0.068s-0.422-0.118-0.608-0.219
		s-0.34-0.232-0.458-0.396c-0.119-0.164-0.178-0.369-0.178-0.615c-0.101-0.511-0.08-1.027,0.062-1.552s0.362-1.03,0.663-1.518
		s0.67-0.938,1.107-1.354s0.904-0.766,1.401-1.053s1.007-0.494,1.531-0.622s1.032-0.146,1.524-0.055
		c0.373,0,0.665,0.123,0.875,0.369c0.209,0.246,0.367,0.574,0.472,0.984s0.171,0.882,0.198,1.415s0.05,1.082,0.068,1.647
		c0.018,0.565,0.043,1.123,0.075,1.675s0.103,1.055,0.212,1.511h-1.012c-0.046-0.31-0.08-0.583-0.103-0.82s-0.044-0.458-0.062-0.663
		c-0.019-0.205-0.043-0.403-0.075-0.595S382.91,181.976,382.855,181.738z M381.816,178.088c-0.355-0.027-0.723,0.021-1.101,0.144
		s-0.743,0.296-1.094,0.52s-0.679,0.487-0.984,0.793s-0.572,0.622-0.8,0.95c-0.229,0.328-0.403,0.654-0.526,0.978
		s-0.173,0.622-0.15,0.896s0.125,0.506,0.308,0.697c0.182,0.191,0.465,0.319,0.848,0.383c0.547-0.009,1.073-0.148,1.579-0.417
		s0.957-0.602,1.354-0.998s0.727-0.825,0.991-1.285c0.264-0.46,0.436-0.887,0.513-1.278s0.043-0.72-0.103-0.984
		C382.504,178.22,382.227,178.088,381.816,178.088z"/>
</g>
<g enable-background="new    ">
	<path d="M296.284,64.017c0.036-0.036,0.104-0.077,0.205-0.123s0.205-0.066,0.314-0.062s0.214,0.048,0.314,0.13
		s0.173,0.224,0.219,0.424c1.304-0.438,2.42-0.69,3.35-0.759s1.687-0.005,2.27,0.191s1.003,0.497,1.258,0.902
		s0.36,0.861,0.314,1.367s-0.235,1.037-0.567,1.593c-0.333,0.556-0.798,1.08-1.395,1.572c-0.598,0.492-1.317,0.928-2.16,1.306
		c-0.844,0.378-1.793,0.645-2.851,0.8c0,0.128,0.002,0.328,0.007,0.602c0.004,0.273,0.012,0.583,0.021,0.93s0.016,0.711,0.021,1.094
		c0.004,0.383,0.012,0.75,0.021,1.101s0.021,0.668,0.034,0.95s0.029,0.492,0.048,0.629c0.055,0.419-0.027,0.718-0.246,0.896
		s-0.52,0.244-0.902,0.198L296.284,64.017z M301.015,64.687c-0.355,0-0.747,0.041-1.176,0.123s-0.827,0.221-1.196,0.417
		s-0.672,0.46-0.909,0.793s-0.342,0.745-0.314,1.237v2.953c1.267-0.282,2.306-0.615,3.117-0.998s1.433-0.779,1.866-1.189
		c0.433-0.41,0.699-0.815,0.8-1.217s0.073-0.759-0.082-1.073s-0.419-0.567-0.793-0.759S301.516,64.687,301.015,64.687z"/>
	<path d="M312.157,68.405c-0.265,0.41-0.569,0.781-0.916,1.114s-0.728,0.615-1.142,0.848c-0.415,0.232-0.866,0.403-1.354,0.513
		c-0.488,0.109-1,0.142-1.538,0.096c-0.191,0-0.396-0.022-0.615-0.068s-0.422-0.118-0.608-0.219
		c-0.188-0.101-0.34-0.232-0.458-0.396s-0.178-0.369-0.178-0.615c-0.101-0.511-0.08-1.027,0.062-1.552
		c0.141-0.524,0.362-1.03,0.663-1.518s0.67-0.938,1.107-1.354s0.904-0.766,1.401-1.053c0.496-0.287,1.007-0.494,1.531-0.622
		c0.523-0.128,1.032-0.146,1.524-0.055c0.374,0,0.665,0.123,0.875,0.369s0.366,0.574,0.472,0.984
		c0.104,0.41,0.171,0.882,0.198,1.415s0.05,1.082,0.068,1.647s0.043,1.123,0.075,1.675c0.031,0.552,0.103,1.055,0.212,1.511h-1.012
		c-0.046-0.31-0.08-0.583-0.103-0.82c-0.023-0.237-0.043-0.458-0.062-0.663s-0.044-0.403-0.075-0.595
		C312.255,68.856,312.212,68.643,312.157,68.405z M311.118,64.755c-0.355-0.027-0.723,0.021-1.101,0.144
		c-0.379,0.123-0.743,0.296-1.094,0.52c-0.352,0.224-0.68,0.487-0.984,0.793c-0.306,0.306-0.572,0.622-0.8,0.95
		s-0.403,0.654-0.526,0.978s-0.174,0.622-0.15,0.896c0.022,0.273,0.125,0.506,0.308,0.697s0.465,0.319,0.848,0.383
		c0.547-0.009,1.073-0.148,1.579-0.417s0.957-0.602,1.354-0.998s0.727-0.825,0.991-1.285s0.435-0.887,0.513-1.278
		c0.077-0.392,0.043-0.72-0.103-0.984S311.528,64.755,311.118,64.755z"/>
	<path d="M320.894,69.349c-0.629,0.483-1.261,0.887-1.894,1.21c-0.634,0.323-1.242,0.518-1.825,0.581s-1.138-0.025-1.661-0.267
		c-0.524-0.241-0.991-0.69-1.401-1.347c-0.128-0.593-0.118-1.153,0.027-1.682s0.388-1.012,0.725-1.449s0.747-0.818,1.23-1.142
		s0.998-0.576,1.545-0.759s1.109-0.282,1.688-0.301c0.578-0.019,1.133,0.06,1.661,0.232c0-0.137,0.007-0.347,0.021-0.629
		s0.029-0.602,0.048-0.957s0.036-0.729,0.055-1.121s0.038-0.766,0.062-1.121c0.022-0.355,0.043-0.672,0.062-0.95
		s0.032-0.485,0.041-0.622c0.019-0.219,0.043-0.419,0.075-0.602c0.031-0.183,0.089-0.342,0.171-0.479s0.193-0.244,0.335-0.321
		c0.141-0.077,0.33-0.116,0.567-0.116c0,1.094-0.032,2.16-0.096,3.199s-0.121,2.085-0.171,3.138
		c-0.051,1.053-0.073,2.126-0.068,3.22c0.004,1.094,0.08,2.247,0.226,3.459c0,0.265-0.048,0.451-0.144,0.561
		s-0.258,0.164-0.485,0.164c-0.219,0-0.386-0.07-0.499-0.212c-0.114-0.142-0.191-0.31-0.232-0.506s-0.062-0.403-0.062-0.622
		S320.894,69.504,320.894,69.349z M315.302,68.815c0.019,0.419,0.139,0.718,0.362,0.896c0.223,0.178,0.535,0.23,0.937,0.157
		c0.191,0,0.485-0.053,0.882-0.157s0.807-0.241,1.23-0.41s0.822-0.355,1.196-0.561s0.638-0.412,0.793-0.622v-2.27
		c0-0.137-0.034-0.246-0.103-0.328s-0.155-0.144-0.26-0.185c-0.105-0.041-0.215-0.066-0.328-0.075
		c-0.114-0.009-0.212-0.014-0.294-0.014c-0.246-0.036-0.531-0.021-0.854,0.048c-0.324,0.068-0.656,0.178-0.998,0.328
		s-0.675,0.337-0.998,0.561c-0.324,0.224-0.608,0.474-0.854,0.752s-0.438,0.576-0.574,0.896S315.256,68.479,315.302,68.815z"/>
	<path d="M323.313,63.415c0-0.173,0.062-0.287,0.185-0.342s0.258-0.082,0.403-0.082c0.237,0,0.426,0.098,0.567,0.294
		c0.141,0.196,0.25,0.424,0.328,0.684c0.077,0.26,0.132,0.515,0.164,0.766c0.031,0.251,0.057,0.431,0.075,0.54
		c0.337-0.31,0.716-0.597,1.135-0.861s0.886-0.49,1.401-0.677c0.515-0.187,1.089-0.323,1.723-0.41
		c0.633-0.087,1.342-0.107,2.126-0.062c0.246-0.055,0.431-0.002,0.554,0.157s0.193,0.349,0.212,0.567s-0.017,0.433-0.103,0.643
		c-0.087,0.21-0.217,0.333-0.39,0.369c-0.319-0.237-0.704-0.39-1.155-0.458s-0.921-0.066-1.408,0.007
		c-0.488,0.073-0.969,0.207-1.442,0.403s-0.896,0.444-1.265,0.745s-0.661,0.647-0.875,1.039c-0.215,0.392-0.303,0.815-0.267,1.271
		c0,0.282,0.019,0.559,0.055,0.827s0.075,0.538,0.116,0.807s0.08,0.538,0.116,0.807s0.055,0.54,0.055,0.813
		c-0.246,0.019-0.444,0.05-0.595,0.096s-0.275,0.066-0.376,0.062s-0.187-0.05-0.26-0.137s-0.155-0.262-0.246-0.526
		c-0.009-0.063-0.032-0.255-0.068-0.574s-0.08-0.706-0.13-1.162c-0.051-0.456-0.107-0.955-0.171-1.497s-0.126-1.075-0.185-1.6
		c-0.06-0.524-0.114-1.007-0.164-1.449C323.379,64.032,323.341,63.68,323.313,63.415z"/>
	<path d="M339.679,68.405c-0.265,0.41-0.569,0.781-0.916,1.114s-0.728,0.615-1.142,0.848c-0.415,0.232-0.866,0.403-1.354,0.513
		c-0.488,0.109-1,0.142-1.538,0.096c-0.191,0-0.396-0.022-0.615-0.068s-0.422-0.118-0.608-0.219
		c-0.188-0.101-0.34-0.232-0.458-0.396s-0.178-0.369-0.178-0.615c-0.101-0.511-0.08-1.027,0.062-1.552
		c0.141-0.524,0.362-1.03,0.663-1.518s0.67-0.938,1.107-1.354s0.904-0.766,1.401-1.053c0.496-0.287,1.007-0.494,1.531-0.622
		c0.523-0.128,1.032-0.146,1.524-0.055c0.374,0,0.665,0.123,0.875,0.369s0.366,0.574,0.472,0.984
		c0.104,0.41,0.171,0.882,0.198,1.415s0.05,1.082,0.068,1.647s0.043,1.123,0.075,1.675c0.031,0.552,0.103,1.055,0.212,1.511h-1.012
		c-0.046-0.31-0.08-0.583-0.103-0.82c-0.023-0.237-0.043-0.458-0.062-0.663s-0.044-0.403-0.075-0.595
		C339.776,68.856,339.733,68.643,339.679,68.405z M336.589,62.253c-0.228-0.2-0.429-0.369-0.602-0.506s-0.349-0.198-0.526-0.185
		s-0.374,0.123-0.588,0.328c-0.215,0.205-0.485,0.549-0.813,1.032c-0.036,0-0.087-0.005-0.15-0.014s-0.128-0.027-0.191-0.055
		s-0.123-0.063-0.178-0.109s-0.091-0.104-0.109-0.178c0.173-0.547,0.431-1.03,0.772-1.449s0.704-0.706,1.087-0.861
		c0.155-0.063,0.303-0.068,0.444-0.014c0.141,0.055,0.282,0.139,0.424,0.253c0.141,0.114,0.277,0.246,0.41,0.396
		c0.132,0.15,0.269,0.294,0.41,0.431c0.141,0.137,0.287,0.251,0.438,0.342s0.308,0.137,0.472,0.137c0.255,0,0.453-0.039,0.595-0.116
		c0.141-0.077,0.271-0.191,0.39-0.342s0.248-0.335,0.39-0.554c0.141-0.219,0.34-0.465,0.595-0.738c0.073,0,0.146,0.062,0.219,0.185
		s0.109,0.23,0.109,0.321c0.046,0.255,0.019,0.506-0.082,0.752s-0.249,0.47-0.444,0.67c-0.196,0.2-0.429,0.369-0.697,0.506
		c-0.27,0.137-0.545,0.226-0.827,0.267s-0.559,0.025-0.827-0.048C337.037,62.631,336.799,62.48,336.589,62.253z M338.64,64.755
		c-0.355-0.027-0.723,0.021-1.101,0.144c-0.379,0.123-0.743,0.296-1.094,0.52c-0.352,0.224-0.68,0.487-0.984,0.793
		c-0.306,0.306-0.572,0.622-0.8,0.95s-0.403,0.654-0.526,0.978s-0.174,0.622-0.15,0.896c0.022,0.273,0.125,0.506,0.308,0.697
		s0.465,0.319,0.848,0.383c0.547-0.009,1.073-0.148,1.579-0.417s0.957-0.602,1.354-0.998s0.727-0.825,0.991-1.285
		s0.435-0.887,0.513-1.278c0.077-0.392,0.043-0.72-0.103-0.984S339.05,64.755,338.64,64.755z"/>
	<path d="M342.29,67.995c0-0.747,0.164-1.388,0.492-1.921s0.743-0.978,1.244-1.333s1.048-0.627,1.641-0.813s1.157-0.308,1.695-0.362
		c0.52-0.027,1.007,0.039,1.463,0.198s0.848,0.385,1.176,0.677s0.581,0.638,0.759,1.039s0.244,0.825,0.198,1.271
		c0,0.747-0.148,1.401-0.444,1.962c-0.297,0.561-0.69,1.03-1.183,1.408s-1.064,0.661-1.716,0.848
		c-0.652,0.187-1.333,0.28-2.044,0.28c-1.075,0-1.892-0.251-2.447-0.752S342.29,69.162,342.29,67.995z M343.466,68.405
		c0,0.383,0.048,0.688,0.144,0.916s0.236,0.398,0.424,0.513c0.187,0.114,0.414,0.189,0.684,0.226
		c0.269,0.036,0.581,0.055,0.937,0.055c0.547,0,1.075-0.053,1.586-0.157s0.962-0.282,1.354-0.533s0.706-0.583,0.943-0.998
		s0.355-0.932,0.355-1.552c0-0.319-0.046-0.622-0.137-0.909s-0.228-0.538-0.41-0.752s-0.405-0.385-0.67-0.513
		s-0.565-0.191-0.902-0.191c-0.446,0.073-0.894,0.157-1.34,0.253s-0.866,0.269-1.258,0.52s-0.738,0.62-1.039,1.107
		S343.611,67.549,343.466,68.405z"/>
</g>
<circle fill="#42B3C6" stroke="#42B3C6" stroke-miterlimit="10" cx="55.492" cy="146.061" r="5.914"/>
<circle fill="#42B3C6" stroke="#42B3C6" stroke-miterlimit="10" cx="150.666" cy="121.828" r="5.914"/>
<circle fill="#42B3C6" stroke="#42B3C6" stroke-miterlimit="10" cx="109.161" cy="121.828" r="5.914"/>
<circle fill="#42B3C6" stroke="#42B3C6" stroke-miterlimit="10" cx="103.247" cy="104.086" r="5.914"/>
<circle fill="#42B3C6" stroke="#42B3C6" stroke-miterlimit="10" cx="129.695" cy="104.086" r="5.914"/>
<circle fill="#42B3C6" stroke="#42B3C6" stroke-miterlimit="10" cx="174.58" cy="77.149" r="5.914"/>
<circle fill="#42B3C6" stroke="#42B3C6" stroke-miterlimit="10" cx="221.913" cy="104.086" r="5.914"/>
<circle fill="#42B3C6" stroke="#42B3C6" stroke-miterlimit="10" cx="168.666" cy="104.086" r="5.914"/>
<circle fill="#42B3C6" stroke="#42B3C6" stroke-miterlimit="10" cx="215.999" cy="71.235" r="5.914"/>
<circle fill="#42B3C6" stroke="#42B3C6" stroke-miterlimit="10" cx="253.999" cy="71.235" r="5.914"/>
<circle fill="#42B3C6" stroke="#42B3C6" stroke-miterlimit="10" cx="304.666" cy="44.458" r="5.914"/>
<g>
	<g>
		<g>
			<path d="M328.735,40.193c0,0-0.348,0.198-1.033,0.541c-0.688,0.342-1.709,0.833-3.054,1.438c-2.688,1.209-6.662,2.869-11.8,4.687
				c-10.282,3.615-24.577,9.383-40.967,17.188c-16.635,7.222-35.831,15.369-56.017,23.502
				c-19.481,9.812-40.968,17.186-61.033,25.607c-19.504,9.758-39.679,15.57-56.017,23.502c-16.57,7.376-30.952,12.938-40.967,17.188
				c-9.973,4.353-15.885,6.665-15.885,6.665l-0.399-0.952c0,0,5.298-3.776,15.408-7.803c10.145-3.941,24.351-9.922,40.967-17.188
				c16.885-6.627,35.472-16.228,56.017-23.502c20.594-7.16,40.918-17.308,61.032-25.607c20.675-6.969,39.326-16.415,56.018-23.502
				c16.857-6.691,30.658-13.637,40.967-17.188c9.826-4.702,16.363-5.526,16.363-5.526S328.665,40.026,328.735,40.193z"/>
		</g>
		<g>
			<path d="M321.668,49.847c-0.34-0.235-0.424-0.703-0.188-1.044l6.541-9.429l-11.312-1.939c-0.408-0.07-0.683-0.458-0.612-0.866
				c0.071-0.408,0.461-0.681,0.865-0.613l12.471,2.139c0.253,0.043,0.467,0.213,0.565,0.449c0.099,0.236,0.07,0.507-0.075,0.718
				l-7.212,10.396c-0.084,0.121-0.198,0.21-0.325,0.264C322.158,50.018,321.888,49.998,321.668,49.847z"/>
		</g>
	</g>
</g>
</svg>
