<?xml version="1.0" encoding="utf-8"?>
<!-- Generator: Adobe Illustrator 16.0.0, SVG Export Plug-In . SVG Version: 6.00 Build 0)  -->
<!DOCTYPE svg PUBLIC "-//W3C//DTD SVG 1.1//EN" "http://www.w3.org/Graphics/SVG/1.1/DTD/svg11.dtd">
<svg version="1.1" id="Layer_1" xmlns="http://www.w3.org/2000/svg" xmlns:xlink="http://www.w3.org/1999/xlink" x="0px" y="0px"
	 width="400px" height="200px" viewBox="0 0 400 200" enable-background="new 0 0 400 200" xml:space="preserve">
<g>
	<g>
		<g>
			<path fill="#ED6756" d="M33.61,38.724c0,0,0.048,0.162,0.098,0.474c0.05,0.312,0.107,0.775,0.145,1.377
				c0.075,1.203,0.068,2.962-0.243,5.183c-0.645,4.443-0.856,10.736,0,18.141c0.224,7.404,0.31,15.92,0,24.805
				c1.51,8.886-0.003,18.142,0,27.026c1.452,8.886-0.992,17.4,0,24.806c0.39,7.405-0.045,13.698,0,18.142
				c0.154,4.442,0,7.034,0,7.034h-1.032c0,0-1.434-2.592-1.234-7.034c0.29-4.443,0.272-10.736,0-18.142
				c0.422-7.404-1.239-15.92,0-24.806c1.365-8.885-0.128-18.142,0-27.026c1.573-8.885,0.078-17.401,0-24.805
				c0.352-7.405-0.714-13.698,0-18.141c-0.535-4.443,1.234-7.034,1.234-7.034S33.428,38.724,33.61,38.724z"/>
		</g>
		<g>
			<path fill="#ED6756" d="M39.778,48.975c-0.349,0.223-0.813,0.12-1.036-0.229l-6.164-9.679l-6.164,9.679
				c-0.223,0.349-0.687,0.452-1.036,0.229s-0.45-0.689-0.23-1.035l6.797-10.672c0.138-0.216,0.376-0.347,0.633-0.347
				c0.257,0,0.495,0.131,0.633,0.347l6.797,10.672c0.079,0.124,0.117,0.264,0.117,0.402C40.125,48.589,40.002,48.831,39.778,48.975z
				"/>
		</g>
	</g>
</g>
<g>
	<g>
		<g>
			<path fill="#ED6756" d="M378.783,164.343c0,0-0.39,0.052-1.139,0.106c-0.75,0.056-1.859,0.121-3.304,0.171
				c-2.888,0.098-7.106,0.124-12.44-0.146c-10.668-0.561-25.774-0.654-43.539,0.344c-17.771,0.363-38.207,0.611-59.533,0.47
				c-21.314,1.678-43.54,0.34-64.865,0.511c-21.313,1.62-41.77-0.662-59.533,0.469c-17.768,0.53-32.877,0.215-43.539,0.344
				c-10.661,0.238-16.882,0.134-16.882,0.134L74,165.712c0,0,6.208-1.481,16.873-1.366c10.665,0.205,25.77,0.067,43.539-0.345
				c17.775,0.282,38.198-1.54,59.534-0.469c21.336,1.196,43.539-0.472,64.865-0.511c21.338,1.403,41.764-0.252,59.532-0.471
				c17.774,0.213,32.871-0.973,43.54-0.343c10.658-0.619,16.893,1.103,16.893,1.103S378.781,164.16,378.783,164.343z"/>
		</g>
		<g>
			<path fill="#ED6756" d="M368.58,170.591c-0.227-0.348-0.126-0.812,0.222-1.038l9.631-6.24l-9.728-6.086
				c-0.353-0.222-0.458-0.685-0.238-1.035c0.22-0.35,0.687-0.455,1.034-0.237l10.725,6.713c0.219,0.136,0.352,0.374,0.354,0.63
				s-0.127,0.496-0.342,0.637l-10.618,6.881c-0.124,0.08-0.265,0.119-0.401,0.119C368.969,170.936,368.726,170.812,368.58,170.591z"
				/>
		</g>
	</g>
</g>
<g>
	<rect x="52.578" y="40.282" fill="#42B3C6" width="246.423" height="3.452"/>
	<g>
		<g>
			<path fill="#42B3C6" d="M296.938,43.734c-0.01,0.001-0.051-0.123-0.107-0.324c-0.045-0.17-0.112-0.423-0.2-0.756
				c-0.179,0.03-0.377,0.062-0.596,0.099c-0.095,0.014-0.191,0.029-0.294,0.044l-0.149,0.021c-0.188,0.006-0.383,0.012-0.579,0.019
				c-1.572,0.048-3.385,0.078-5.423,0.074c-4.073-0.008-9.05-0.154-14.817-0.564c-17.483-1.289-42.252-1.713-71.394,0
				c-29.139,0.448-62.651,0.62-97.619,0c-8.742,0.755-17.575,1.132-26.454,1.273c-4.439,0.071-8.89,0.082-13.346,0.053l-6.688-0.074
				l-3.289-0.056c-0.048-0.021-0.116-0.042-0.208-0.066l-0.078-2.861c0.063,0.025,0.149,0.05,0.259,0.077l2.883,0.082l6.254,0.173
				c4.167,0.115,8.328,0.229,12.478,0.344c8.3,0.214,16.558,0.379,24.736,0.377c34.968-2.904,68.479,1.984,97.619,0
				c29.14-0.78,53.908,0.09,71.394,0c17.482-0.309,27.683,0,27.683,0v2.064c0,0-10.199,2.868-27.683,2.469
				c-17.484-0.581-42.254-0.544-71.394,0c-29.141-0.843-62.651,2.479-97.619,0c-8.178-0.639-16.436-0.965-24.736-1.093
				c-4.15-0.063-8.312-0.078-12.478-0.057c-4.657,0.051-9.321,0.102-13.986,0.153l-0.068-6.465l4.859-0.073l3.374-0.079l6.688-0.168
				c4.457-0.111,8.907-0.221,13.346-0.332c8.879-0.202,17.712-0.34,26.454-0.276c34.968,3.146,68.479,0.156,97.619,0
				c29.142,0.704,53.909-1.427,71.394,0c5.797-0.355,10.793-0.203,14.871,0.159c2.039,0.181,3.849,0.414,5.414,0.663
				c0.199,0.032,0.396,0.063,0.59,0.094c0.269,0.032,0.53,0.064,0.789,0.095c0.481,0.066,0.943,0.13,1.387,0.191
				c0.843,0.127,1.523,0.254,2.072,0.375c-0.246,1.69-0.469,2.753-0.631,3.414C299.102,43.46,299,43.734,299,43.734
				S297.301,43.734,296.938,43.734z"/>
		</g>
	</g>
</g>
<g>
	<rect x="52.578" y="76.113" fill="#42B3C6" width="236.244" height="3.452"/>
	<g>
		<g>
			<path fill="#42B3C6" d="M286.758,79.565c-0.009,0.001-0.053-0.123-0.111-0.323c-0.047-0.168-0.114-0.418-0.205-0.748
				c-0.172,0.029-0.362,0.062-0.572,0.097c-0.09,0.014-0.184,0.028-0.281,0.043l-0.14,0.02l-0.046,0.004l-0.139,0.005l-0.279,0.009
				c-1.508,0.046-3.238,0.074-5.182,0.068c-3.884-0.011-8.611-0.158-14.084-0.563c-16.771-1.289-40.531-1.713-68.484,0
				c-27.952,0.448-60.099,0.62-93.642,0c-8.386,0.755-16.86,1.132-25.376,1.273c-4.259,0.071-8.528,0.082-12.803,0.053l-6.416-0.074
				l-3.022-0.056c-0.046-0.021-0.112-0.042-0.202-0.066l-0.081-2.857c0.061,0.025,0.142,0.051,0.247,0.077l0.04,0.01l0.341,0.01
				l0.749,0.021l1.497,0.041l5.981,0.173c3.986,0.114,7.965,0.229,11.935,0.343c7.939,0.213,15.837,0.377,23.659,0.375
				c33.543-2.904,65.689,1.984,93.642,0c27.952-0.78,51.712,0.09,68.483,0c16.772-0.309,26.557,0,26.557,0v2.064
				c0,0-9.783,2.868-26.557,2.469c-16.771-0.581-40.531-0.544-68.483,0c-27.954-0.843-60.099,2.479-93.642,0
				c-7.822-0.637-15.72-0.963-23.659-1.091c-3.969-0.064-7.949-0.08-11.935-0.059c-4.474,0.05-8.955,0.101-13.438,0.151
				l-0.071-6.462l4.658-0.073l3.302-0.079l6.416-0.168c4.275-0.111,8.544-0.221,12.803-0.332c8.517-0.202,16.99-0.34,25.376-0.276
				c33.543,3.146,65.69,0.156,93.642,0c27.954,0.704,51.713-1.427,68.484,0c5.494-0.351,10.238-0.207,14.125,0.146
				c1.943,0.176,3.673,0.404,5.173,0.648c0.979,0.135,1.887,0.26,2.721,0.375c0.814,0.126,1.479,0.251,2.014,0.372
				c-0.254,1.707-0.484,2.778-0.654,3.444c-0.168,0.662-0.272,0.937-0.272,0.937S287.122,79.565,286.758,79.565z"/>
		</g>
	</g>
</g>
<g>
	<rect x="52.578" y="94.028" fill="#42B3C6" width="174.711" height="3.452"/>
	<g>
		<g>
			<path fill="#42B3C6" d="M225.225,97.48c-0.011,0.001-0.066-0.125-0.142-0.317c-0.074-0.192-0.166-0.437-0.244-0.685
				c-0.289,0.058-0.563,0.109-0.831,0.142l-0.101,0.011l-0.138,0.005l-0.217,0.004c-0.294,0.004-0.594,0.008-0.902,0.013
				c-0.617-0.001-1.27-0.002-1.952-0.003c-2.733-0.033-5.984-0.188-9.695-0.558c-12.466-1.289-30.126-1.713-50.904,0
				c-20.776,0.448-44.67,0.62-69.603,0c-6.233,0.755-12.531,1.132-18.862,1.273c-3.166,0.071-6.339,0.082-9.516,0.053l-4.769-0.074
				l-1.193-0.026l-0.149-0.003c-0.048-0.001-0.016-0.002-0.028-0.003l-0.012-0.007L55.94,97.29c-0.04-0.021-0.094-0.042-0.167-0.066
				l-0.111-2.827c0.043,0.025,0.102,0.05,0.177,0.077l0.125,0.04l0.018,0.005l0.122,0.005l0.271,0.01l0.542,0.021l4.335,0.169
				c2.888,0.111,5.771,0.222,8.647,0.333c5.752,0.206,11.476,0.361,17.145,0.36c24.932-2.904,48.826,1.984,69.603,0
				c20.777-0.78,38.438,0.09,50.903,0c12.466-0.309,19.738,0,19.738,0v2.064c0,0-7.272,2.868-19.738,2.469
				c-12.466-0.581-30.126-0.544-50.903,0c-20.777-0.843-44.671,2.479-69.603,0c-5.669-0.621-11.393-0.946-17.145-1.082
				c-2.876-0.067-5.76-0.087-8.647-0.073c-3.37,0.044-6.744,0.088-10.122,0.133l-0.093-6.44l3.443-0.073l2.869-0.079l4.769-0.168
				c3.177-0.111,6.351-0.221,9.516-0.332c6.331-0.202,12.628-0.34,18.862-0.276c24.933,3.146,48.827,0.156,69.603,0
				c20.777,0.704,38.438-1.427,50.904,0c7.582-0.639,12.508,0.367,17.476,1.28c-0.309,1.838-0.604,2.981-0.826,3.676
				c-0.221,0.691-0.362,0.965-0.362,0.965S225.589,97.48,225.225,97.48z"/>
		</g>
	</g>
</g>
<g>
	<rect x="52.578" y="129.859" fill="#42B3C6" width="103.089" height="3.451"/>
	<g>
		<g>
			<path fill="#42B3C6" d="M153.603,133.312c-0.027-0.013-0.371-0.489-0.508-0.879c-0.153,0.029-0.293,0.051-0.432,0.055
				c-0.07,0.002-0.14,0-0.213-0.008l-0.113-0.014c-0.039-0.006-0.041-0.014-0.271-0.021c-1.398-0.068-2.987-0.228-4.75-0.521
				c-7.455-1.289-18.016-1.713-30.44,0c-12.424,0.447-26.713,0.619-41.623,0c-3.728,0.755-7.494,1.134-11.279,1.273
				c-1.893,0.069-3.791,0.081-5.69,0.053l-1.426-0.03l-0.713-0.02l-0.161-0.006l-0.004-0.006l-0.01-0.013
				c-0.03-0.032-0.09-0.075-0.196-0.122c-0.058-1.037-0.123-1.966-0.194-2.744c0.046,0.049,0.126,0.102,0.243,0.153l0.095,0.04
				c0.036,0.014,0.02,0.025,0.291,0.04l1.208,0.08c1.611,0.103,3.219,0.203,4.822,0.304c3.208,0.187,6.399,0.32,9.563,0.319
				c14.909-2.904,29.198,1.983,41.622,0c12.425-0.78,22.985,0.09,30.44,0c7.455-0.31,11.803,0,11.803,0v2.063
				c0,0-4.349,2.867-11.803,2.469c-7.455-0.58-18.016-0.543-30.44,0c-12.425-0.842-26.713,2.479-41.622,0
				c-3.164-0.578-6.355-0.9-9.563-1.051c-1.604-0.076-3.212-0.107-4.822-0.107l-2.803,0.023l-3.431,0.062l-0.145-6.389l4.119-0.152
				l0.988-0.041l0.713-0.042l1.426-0.086c1.9-0.11,3.798-0.222,5.69-0.331c3.786-0.201,7.552-0.34,11.279-0.275
				c14.91,3.146,29.198,0.155,41.623,0c12.425,0.703,22.985-1.429,30.44,0c1.768-0.255,3.361-0.248,4.76-0.093
				c0.55,0.05,1.083,0.097,1.599,0.144c0.542,0.057,1.044,0.121,1.504,0.189c0.919,0.141,1.665,0.305,2.238,0.479
				c-0.386,2.091-0.824,3.408-1.165,4.17c-0.341,0.763-0.585,1.031-0.585,1.031S153.967,133.312,153.603,133.312z"/>
		</g>
	</g>
</g>
<g>
	<rect x="52.578" y="58.197" fill="#42B3C6" width="293.089" height="3.452"/>
	<g>
		<g>
			<path fill="#42B3C6" d="M343.603,61.649c-0.008,0.001-0.044-0.123-0.095-0.328c-0.04-0.177-0.101-0.44-0.18-0.786
				c-0.206,0.031-0.439,0.066-0.7,0.105c-0.11,0.015-0.227,0.031-0.349,0.048c-0.414,0.014-0.849,0.029-1.299,0.044
				c-1.877,0.055-4.061,0.091-6.533,0.093c-4.946,0.002-11.055-0.137-18.182-0.564c-20.75-1.289-50.144-1.713-84.727,0
				c-34.581,0.448-74.352,0.62-115.85,0c-10.375,0.755-20.858,1.132-31.395,1.273c-5.269,0.071-10.55,0.082-15.839,0.053
				l-7.937-0.074l-3.971-0.056l-0.496-0.008c-0.121-0.001-0.053-0.002-0.078-0.004l-0.012-0.004l-0.054-0.016l-0.137-0.034
				l-0.065-2.874l0.135,0.038l0.083,0.02l0.045,0.01l0.012,0.002l0.115,0.002l0.235,0.005l3.754,0.082l7.503,0.174
				c4.999,0.116,9.991,0.232,14.97,0.349c9.959,0.217,19.866,0.386,29.677,0.384c41.498-2.904,81.268,1.984,115.85,0
				c34.582-0.78,63.977,0.09,84.726,0c20.749-0.309,32.854,0,32.854,0v2.064c0,0-12.104,2.868-32.854,2.469
				c-20.749-0.581-50.144-0.544-84.726,0c-34.583-0.843-74.352,2.479-115.85,0c-9.811-0.646-19.718-0.972-29.677-1.097
				c-4.979-0.062-9.971-0.075-14.97-0.051c-5.493,0.054-10.993,0.108-16.496,0.162l-0.058-6.475l9.482-0.152l7.937-0.168
				c5.289-0.111,10.571-0.221,15.839-0.332c10.537-0.202,21.02-0.34,31.395-0.276c41.498,3.146,81.269,0.156,115.85,0
				c34.583,0.704,63.978-1.427,84.727,0c7.188-0.371,13.339-0.188,18.293,0.209c2.478,0.198,4.653,0.451,6.513,0.714
				c0.482,0.069,0.946,0.135,1.39,0.199c0.563,0.07,1.102,0.136,1.612,0.199c0.973,0.132,1.746,0.262,2.357,0.383
				c-0.216,1.626-0.407,2.657-0.544,3.302c-0.138,0.642-0.222,0.915-0.222,0.915S343.967,61.649,343.603,61.649z"/>
		</g>
	</g>
</g>
<g>
	<rect x="52.578" y="111.943" fill="#42B3C6" width="141.089" height="3.453"/>
	<g>
		<g>
			<path fill="#42B3C6" d="M191.603,115.396c-0.023,0-0.278-0.512-0.438-0.951c-0.23,0.049-0.444,0.088-0.653,0.109l-0.158,0.012
				c-0.128,0.002-0.259,0.004-0.394,0.006c-0.481-0.006-0.985-0.012-1.512-0.018c-2.105-0.049-4.564-0.205-7.341-0.548
				c-10.114-1.289-24.441-1.713-41.298,0c-16.856,0.447-36.241,0.619-56.468,0c-5.057,0.755-10.167,1.134-15.303,1.273
				c-2.568,0.069-5.143,0.081-7.72,0.053l-3.869-0.073l-0.466-0.013l-0.017-0.015l-0.045-0.028
				c-0.036-0.021-0.084-0.043-0.148-0.065l-0.139-2.799c0.08,0.051,0.156,0.104,0.382,0.156l3.435,0.167
				c2.288,0.106,4.573,0.215,6.852,0.321c4.558,0.199,9.092,0.348,13.585,0.347c20.228-2.904,39.612,1.983,56.468,0
				c16.856-0.78,31.184,0.09,41.298,0c10.113-0.31,16.013,0,16.013,0v2.063c0,0-5.9,2.867-16.013,2.47
				c-10.114-0.58-24.441-0.544-41.298,0c-16.856-0.845-36.241,2.479-56.468,0c-4.493-0.606-9.027-0.931-13.585-1.071
				c-2.279-0.07-4.563-0.095-6.852-0.086c-2.764,0.039-5.531,0.078-8.302,0.117l-0.112-6.422l5.412-0.152l3.869-0.169
				c2.578-0.11,5.153-0.222,7.72-0.331c5.136-0.201,10.246-0.34,15.303-0.275c20.227,3.146,39.612,0.155,56.468,0
				c16.856,0.703,31.184-1.429,41.298,0c2.793-0.297,5.265-0.24,7.373-0.004c1.282,0.17,2.46,0.325,3.531,0.467
				c1.317,0.188,2.323,0.397,3.052,0.609c-0.344,1.941-0.693,3.145-0.956,3.862c-0.263,0.715-0.44,0.985-0.44,0.985
				S191.967,115.396,191.603,115.396z"/>
		</g>
	</g>
</g>
<g>
	<rect x="52.578" y="147.773" fill="#42B3C6" width="68.423" height="3.453"/>
	<g>
		<g>
			<path fill="#42B3C6" d="M118.937,151.227c-0.017,0.002-0.152-0.133-0.287-0.283c-0.134-0.161-0.267-0.295-0.277-0.541
				c-0.146,0.007-0.261-0.023-0.421-0.111c-0.095-0.057-0.195-0.114-0.3-0.176c0.004-0.037-0.324-0.078-0.506-0.124
				c-0.213-0.05-0.432-0.101-0.655-0.151c-5.029-1.287-12.154-1.714-20.536,0c-8.382,0.448-18.021,0.62-28.08,0
				c-2.515,0.756-5.055,1.133-7.609,1.273c-1.277,0.07-2.557,0.082-3.839,0.053l-0.443-0.014l-0.006-0.018
				c-0.006-0.012-0.016-0.025-0.032-0.043c-0.031-0.033-0.085-0.074-0.172-0.121c-0.085-1.066-0.189-1.973-0.299-2.641
				c0.053,0.095,0.188,0.193,0.41,0.291l0.086,0.035c0.044,0.012,0.226,0.023,0.332,0.035l0.743,0.068l1.484,0.129
				c1.976,0.16,3.942,0.273,5.893,0.272c10.059-2.904,19.698,1.983,28.08,0c8.382-0.78,15.506,0.09,20.536,0
				c5.029-0.31,7.963,0,7.963,0v2.063c0,0-2.934,2.867-7.963,2.469c-5.029-0.579-12.154-0.543-20.536,0
				c-8.382-0.844-18.021,2.479-28.08,0c-1.951-0.528-3.917-0.844-5.893-1.008c-0.494-0.043-0.989-0.074-1.484-0.098l-0.743-0.029
				l-0.908-0.018c-1.373-0.016-2.741-0.002-4.165,0.032c-0.04-2.007-0.108-4.077-0.192-6.341l2.729-0.152l1.428-0.083l0.731-0.043
				l0.501-0.043c1.282-0.11,2.563-0.222,3.839-0.331c2.554-0.201,5.095-0.34,7.609-0.275c10.059,3.146,19.698,0.154,28.08,0
				c8.382,0.703,15.506-1.428,20.536,0c0.223-0.049,0.442-0.087,0.657-0.117c0.25-0.028,0.331-0.051,0.774-0.064
				c0.735-0.027,1.447-0.025,2.106,0.002c1.321,0.055,2.419,0.21,3.204,0.418c-0.379,2.234-0.937,3.751-1.4,4.579
				c-0.463,0.839-0.831,1.104-0.831,1.104S119.301,151.227,118.937,151.227z"/>
		</g>
	</g>
</g>
<g enable-background="new    ">
	<path fill="#ED6756" d="M31.748,23.225c-0.019-0.246-0.041-0.526-0.068-0.841s-0.062-0.641-0.103-0.978s-0.096-0.67-0.164-0.998
		s-0.148-0.624-0.239-0.889c-0.237,0-0.472,0.029-0.704,0.089s-0.465,0.123-0.697,0.191s-0.47,0.135-0.711,0.198
		c-0.242,0.063-0.49,0.101-0.745,0.109c-0.137,0-0.265-0.032-0.383-0.096c-0.119-0.063-0.178-0.183-0.178-0.355
		c0-0.137,0.084-0.239,0.253-0.308c0.168-0.068,0.38-0.121,0.636-0.157c0.255-0.036,0.528-0.063,0.82-0.082
		c0.292-0.019,0.565-0.041,0.82-0.068c0.255-0.027,0.467-0.068,0.636-0.123c0.168-0.055,0.253-0.137,0.253-0.246v-2.83
		c0-0.082,0.022-0.144,0.068-0.185c0.045-0.041,0.1-0.073,0.164-0.096c0.063-0.022,0.13-0.036,0.198-0.041s0.121-0.007,0.157-0.007
		c0.2,0,0.33,0.034,0.39,0.103c0.059,0.068,0.111,0.234,0.157,0.499c0.018,0.082,0.043,0.232,0.075,0.451
		c0.032,0.219,0.063,0.449,0.096,0.69c0.032,0.241,0.059,0.47,0.082,0.684c0.022,0.214,0.039,0.362,0.048,0.444h3.746
		c0,0.173-0.075,0.312-0.226,0.417s-0.347,0.185-0.588,0.239c-0.242,0.055-0.506,0.089-0.793,0.103s-0.57,0.022-0.848,0.027
		c-0.278,0.005-0.533,0.012-0.766,0.021s-0.408,0.027-0.526,0.055c-0.046,0.273-0.05,0.579-0.014,0.916
		c0.036,0.337,0.082,0.682,0.137,1.032s0.103,0.702,0.144,1.053s0.043,0.677,0.007,0.978c-0.055,0.046-0.142,0.094-0.26,0.144
		c-0.119,0.05-0.239,0.087-0.362,0.109s-0.232,0.019-0.328-0.014S31.775,23.353,31.748,23.225z"/>
	<path fill="#ED6756" d="M44.217,16.252c0-0.173,0.062-0.287,0.185-0.342s0.257-0.082,0.403-0.082c0.237,0,0.426,0.098,0.567,0.294
		c0.141,0.196,0.25,0.424,0.328,0.684c0.077,0.26,0.132,0.515,0.164,0.766c0.032,0.251,0.057,0.431,0.075,0.54
		c0.337-0.31,0.715-0.597,1.135-0.861c0.419-0.265,0.886-0.49,1.401-0.677c0.515-0.187,1.089-0.323,1.723-0.41
		c0.633-0.087,1.342-0.107,2.126-0.062c0.246-0.055,0.431-0.002,0.554,0.157s0.193,0.349,0.212,0.567
		c0.018,0.219-0.016,0.433-0.103,0.643c-0.087,0.21-0.217,0.333-0.39,0.369c-0.319-0.237-0.704-0.39-1.155-0.458
		s-0.921-0.066-1.408,0.007c-0.488,0.073-0.969,0.207-1.442,0.403c-0.474,0.196-0.896,0.444-1.265,0.745s-0.661,0.647-0.875,1.039
		c-0.214,0.392-0.303,0.815-0.267,1.271c0,0.282,0.018,0.559,0.055,0.827c0.036,0.269,0.075,0.538,0.116,0.807
		s0.08,0.538,0.116,0.807c0.036,0.269,0.055,0.54,0.055,0.813c-0.246,0.019-0.444,0.05-0.595,0.096s-0.276,0.066-0.376,0.062
		c-0.101-0.005-0.187-0.05-0.26-0.137c-0.073-0.087-0.155-0.262-0.246-0.526c-0.009-0.063-0.032-0.255-0.068-0.574
		c-0.037-0.319-0.08-0.706-0.13-1.162c-0.05-0.456-0.107-0.955-0.171-1.497c-0.064-0.542-0.125-1.075-0.185-1.6
		c-0.06-0.524-0.114-1.007-0.164-1.449C44.283,16.869,44.244,16.517,44.217,16.252z"/>
	<path fill="#ED6756" d="M53.773,21.83c-0.082-0.738-0.012-1.458,0.212-2.16c0.223-0.702,0.561-1.321,1.012-1.859
		s0.996-0.964,1.634-1.278c0.638-0.314,1.335-0.463,2.092-0.444c0.127,0,0.298,0.019,0.513,0.055
		c0.214,0.036,0.442,0.094,0.684,0.171c0.241,0.077,0.479,0.176,0.711,0.294s0.438,0.26,0.615,0.424s0.312,0.349,0.403,0.554
		c0.091,0.205,0.114,0.436,0.068,0.69c-0.374,0.265-0.805,0.446-1.292,0.547c-0.488,0.101-0.984,0.171-1.49,0.212
		s-1,0.077-1.483,0.109c-0.483,0.032-0.905,0.116-1.265,0.253c-0.36,0.137-0.638,0.354-0.834,0.649
		c-0.196,0.296-0.258,0.723-0.185,1.278c0.137,0.501,0.362,0.87,0.677,1.107s0.679,0.381,1.094,0.431
		c0.415,0.05,0.856,0.027,1.326-0.068c0.469-0.096,0.93-0.221,1.381-0.376s0.873-0.319,1.265-0.492
		c0.392-0.173,0.715-0.314,0.971-0.424c0.118,0,0.219,0.043,0.301,0.13s0.123,0.189,0.123,0.308
		c-0.228,0.392-0.574,0.743-1.039,1.053s-0.989,0.561-1.572,0.752c-0.583,0.191-1.192,0.31-1.825,0.355
		c-0.634,0.046-1.229,0-1.784-0.137c-0.556-0.137-1.044-0.378-1.463-0.725C54.202,22.892,53.919,22.423,53.773,21.83z M58.6,17.113
		c-0.164,0-0.365,0.019-0.602,0.055c-0.237,0.036-0.465,0.101-0.684,0.191s-0.408,0.21-0.567,0.355
		c-0.16,0.146-0.239,0.333-0.239,0.561l3.391-0.561c-0.146-0.219-0.335-0.374-0.567-0.465S58.854,17.113,58.6,17.113z"/>
	<path fill="#ED6756" d="M69.77,17.346c0.063-0.146-0.005-0.23-0.205-0.253c-0.201-0.022-0.474-0.002-0.82,0.062
		c-0.347,0.063-0.734,0.164-1.162,0.301c-0.429,0.137-0.836,0.299-1.224,0.485c-0.388,0.187-0.725,0.395-1.012,0.622
		s-0.463,0.456-0.526,0.684l-0.014,4.648h-1.135c-0.055-0.128-0.098-0.33-0.13-0.608c-0.032-0.278-0.057-0.606-0.075-0.984
		c-0.019-0.378-0.03-0.788-0.034-1.23c-0.005-0.442-0.002-0.889,0.007-1.34c0.009-0.451,0.022-0.894,0.041-1.326
		c0.018-0.433,0.039-0.827,0.062-1.183c0.022-0.355,0.045-0.654,0.068-0.896c0.022-0.241,0.048-0.403,0.075-0.485
		c0.1-0.073,0.214-0.142,0.342-0.205c0.127-0.063,0.255-0.096,0.383-0.096c0.164,0.009,0.275,0.116,0.335,0.321
		c0.059,0.205,0.089,0.438,0.089,0.697s-0.016,0.513-0.048,0.759c-0.032,0.246-0.048,0.415-0.048,0.506
		c0.948-0.702,1.764-1.212,2.447-1.531s1.26-0.487,1.729-0.506c0.469-0.019,0.845,0.091,1.128,0.328
		c0.282,0.237,0.501,0.565,0.656,0.984c0.155,0.419,0.257,0.909,0.308,1.47c0.05,0.561,0.08,1.15,0.089,1.771
		c0.009,0.62,0.009,1.251,0,1.894c-0.009,0.643,0,1.256,0.027,1.839c-0.109,0.055-0.185,0.087-0.226,0.096s-0.087,0.007-0.137-0.007
		c-0.05-0.014-0.116-0.029-0.198-0.048s-0.21-0.032-0.383-0.041c-0.109-0.446-0.171-0.957-0.185-1.531s-0.016-1.162-0.007-1.764
		c0.009-0.602,0.004-1.198-0.014-1.791C69.956,18.394,69.888,17.847,69.77,17.346z"/>
	<path fill="#ED6756" d="M78.629,22.186c-0.629,0.483-1.26,0.887-1.894,1.21c-0.634,0.323-1.242,0.518-1.825,0.581
		c-0.583,0.063-1.137-0.025-1.661-0.267c-0.524-0.241-0.991-0.69-1.401-1.347c-0.128-0.593-0.119-1.153,0.027-1.682
		c0.146-0.528,0.387-1.012,0.725-1.449c0.337-0.438,0.747-0.818,1.23-1.142c0.483-0.323,0.998-0.576,1.545-0.759
		s1.109-0.282,1.688-0.301c0.579-0.019,1.132,0.06,1.661,0.232c0-0.137,0.007-0.347,0.021-0.629s0.029-0.602,0.048-0.957
		c0.018-0.355,0.036-0.729,0.055-1.121c0.018-0.392,0.039-0.766,0.062-1.121c0.022-0.355,0.043-0.672,0.062-0.95
		c0.018-0.278,0.032-0.485,0.041-0.622c0.018-0.219,0.043-0.419,0.075-0.602c0.032-0.183,0.089-0.342,0.171-0.479
		s0.193-0.244,0.335-0.321c0.141-0.077,0.33-0.116,0.567-0.116c0,1.094-0.032,2.16-0.096,3.199
		c-0.064,1.039-0.121,2.085-0.171,3.138c-0.05,1.053-0.073,2.126-0.068,3.22c0.004,1.094,0.08,2.247,0.226,3.459
		c0,0.265-0.048,0.451-0.144,0.561s-0.258,0.164-0.485,0.164c-0.219,0-0.385-0.07-0.499-0.212c-0.114-0.142-0.191-0.31-0.232-0.506
		s-0.062-0.403-0.062-0.622S78.629,22.341,78.629,22.186z M73.037,21.652c0.018,0.419,0.139,0.718,0.362,0.896
		c0.223,0.178,0.535,0.23,0.937,0.157c0.191,0,0.485-0.053,0.882-0.157s0.807-0.241,1.23-0.41s0.822-0.355,1.196-0.561
		c0.374-0.205,0.638-0.412,0.793-0.622v-2.27c0-0.137-0.034-0.246-0.103-0.328s-0.155-0.144-0.26-0.185
		c-0.105-0.041-0.214-0.066-0.328-0.075c-0.114-0.009-0.212-0.014-0.294-0.014c-0.246-0.036-0.531-0.021-0.854,0.048
		c-0.324,0.068-0.656,0.178-0.998,0.328s-0.675,0.337-0.998,0.561c-0.324,0.224-0.608,0.474-0.854,0.752s-0.438,0.576-0.574,0.896
		S72.991,21.315,73.037,21.652z"/>
	<path fill="#ED6756" d="M87.762,21.242c-0.265,0.41-0.57,0.781-0.916,1.114c-0.347,0.333-0.727,0.615-1.142,0.848
		c-0.415,0.232-0.866,0.403-1.354,0.513c-0.488,0.109-1,0.142-1.538,0.096c-0.191,0-0.396-0.022-0.615-0.068
		s-0.422-0.118-0.608-0.219c-0.187-0.101-0.34-0.232-0.458-0.396c-0.119-0.164-0.178-0.369-0.178-0.615
		c-0.101-0.511-0.08-1.027,0.062-1.552c0.141-0.524,0.362-1.03,0.663-1.518s0.67-0.938,1.107-1.354s0.904-0.766,1.401-1.053
		c0.497-0.287,1.007-0.494,1.531-0.622c0.524-0.128,1.032-0.146,1.524-0.055c0.374,0,0.665,0.123,0.875,0.369
		c0.209,0.246,0.367,0.574,0.472,0.984c0.104,0.41,0.171,0.882,0.198,1.415s0.05,1.082,0.068,1.647
		c0.018,0.565,0.043,1.123,0.075,1.675c0.032,0.552,0.103,1.055,0.212,1.511h-1.012c-0.046-0.31-0.08-0.583-0.103-0.82
		c-0.023-0.237-0.043-0.458-0.062-0.663c-0.019-0.205-0.043-0.403-0.075-0.595C87.859,21.693,87.816,21.479,87.762,21.242z
		 M86.723,17.592c-0.355-0.027-0.723,0.021-1.101,0.144c-0.378,0.123-0.743,0.296-1.094,0.52c-0.351,0.224-0.679,0.487-0.984,0.793
		c-0.306,0.306-0.572,0.622-0.8,0.95c-0.228,0.328-0.403,0.654-0.526,0.978s-0.173,0.622-0.15,0.896
		c0.022,0.273,0.125,0.506,0.308,0.697c0.182,0.191,0.465,0.319,0.848,0.383c0.547-0.009,1.073-0.148,1.579-0.417
		s0.957-0.602,1.354-0.998s0.727-0.825,0.991-1.285c0.264-0.46,0.435-0.887,0.513-1.278c0.077-0.392,0.043-0.72-0.103-0.984
		C87.411,17.724,87.133,17.592,86.723,17.592z"/>
</g>
<g enable-background="new    ">
	<path fill="#ED6756" d="M311.713,185.376c-0.019-0.246-0.041-0.526-0.068-0.841s-0.062-0.641-0.103-0.978s-0.096-0.67-0.164-0.998
		s-0.148-0.624-0.239-0.889c-0.237,0-0.472,0.029-0.704,0.089s-0.465,0.123-0.697,0.191s-0.47,0.135-0.711,0.198
		s-0.49,0.101-0.745,0.109c-0.137,0-0.265-0.032-0.383-0.096c-0.119-0.063-0.178-0.183-0.178-0.355c0-0.137,0.084-0.239,0.253-0.308
		s0.38-0.121,0.636-0.157c0.255-0.036,0.528-0.063,0.82-0.082c0.291-0.019,0.564-0.041,0.82-0.068
		c0.255-0.027,0.467-0.068,0.636-0.123s0.253-0.137,0.253-0.246v-2.83c0-0.082,0.022-0.144,0.068-0.185
		c0.045-0.041,0.1-0.073,0.164-0.096c0.063-0.022,0.13-0.036,0.198-0.041s0.12-0.007,0.157-0.007c0.2,0,0.33,0.034,0.39,0.103
		s0.111,0.234,0.157,0.499c0.018,0.082,0.043,0.232,0.075,0.451s0.063,0.449,0.096,0.69s0.06,0.47,0.082,0.684
		s0.038,0.362,0.048,0.444h3.746c0,0.173-0.075,0.312-0.226,0.417s-0.347,0.185-0.588,0.239s-0.506,0.089-0.793,0.103
		s-0.569,0.022-0.848,0.027s-0.533,0.012-0.766,0.021s-0.408,0.027-0.526,0.055c-0.046,0.273-0.051,0.579-0.014,0.916
		c0.036,0.337,0.082,0.682,0.137,1.032s0.103,0.702,0.144,1.053s0.043,0.677,0.007,0.978c-0.055,0.046-0.142,0.094-0.26,0.144
		c-0.119,0.05-0.239,0.087-0.362,0.109s-0.232,0.019-0.328-0.014S311.74,185.504,311.713,185.376z"/>
	<path fill="#ED6756" d="M330.895,183.394c-0.265,0.41-0.57,0.781-0.916,1.114c-0.347,0.333-0.727,0.615-1.142,0.848
		s-0.866,0.403-1.354,0.513s-1.001,0.142-1.538,0.096c-0.191,0-0.396-0.022-0.615-0.068s-0.422-0.118-0.608-0.219
		s-0.34-0.232-0.458-0.396c-0.119-0.164-0.178-0.369-0.178-0.615c-0.101-0.511-0.08-1.027,0.062-1.552s0.362-1.03,0.663-1.518
		s0.67-0.938,1.107-1.354s0.904-0.766,1.401-1.053s1.007-0.494,1.531-0.622s1.032-0.146,1.524-0.055
		c0.373,0,0.665,0.123,0.875,0.369c0.209,0.246,0.367,0.574,0.472,0.984s0.171,0.882,0.198,1.415s0.05,1.082,0.068,1.647
		c0.018,0.565,0.043,1.123,0.075,1.675s0.103,1.055,0.212,1.511h-1.012c-0.046-0.31-0.08-0.583-0.103-0.82s-0.044-0.458-0.062-0.663
		c-0.019-0.205-0.043-0.403-0.075-0.595S330.949,183.631,330.895,183.394z M329.855,179.743c-0.355-0.027-0.723,0.021-1.101,0.144
		s-0.743,0.296-1.094,0.52s-0.679,0.487-0.984,0.793s-0.572,0.622-0.8,0.95c-0.229,0.328-0.403,0.654-0.526,0.978
		s-0.173,0.622-0.15,0.896s0.125,0.506,0.308,0.697c0.182,0.191,0.465,0.319,0.848,0.383c0.547-0.009,1.073-0.148,1.579-0.417
		s0.957-0.602,1.354-0.998s0.727-0.825,0.991-1.285c0.264-0.46,0.436-0.887,0.513-1.278s0.043-0.72-0.103-0.984
		C330.543,179.875,330.266,179.743,329.855,179.743z"/>
	<path fill="#ED6756" d="M332.986,183.53c-0.037-0.419,0.041-0.836,0.232-1.251s0.458-0.812,0.8-1.189s0.743-0.729,1.203-1.053
		s0.945-0.6,1.456-0.827c0.51-0.228,1.027-0.398,1.552-0.513s1.019-0.148,1.483-0.103c0.173,0,0.346,0.009,0.52,0.027
		c0.173,0.019,0.326,0.063,0.458,0.137s0.239,0.178,0.321,0.314s0.123,0.323,0.123,0.561c0,0.118-0.029,0.224-0.089,0.314
		s-0.132,0.178-0.219,0.26s-0.181,0.155-0.28,0.219c-0.101,0.063-0.191,0.128-0.273,0.191c-0.027-0.128-0.055-0.248-0.082-0.362
		s-0.07-0.214-0.13-0.301s-0.137-0.155-0.232-0.205s-0.222-0.075-0.376-0.075c-0.538,0.109-1.119,0.275-1.743,0.499
		s-1.198,0.49-1.723,0.8s-0.946,0.658-1.265,1.046c-0.319,0.388-0.442,0.805-0.369,1.251c0,0.401,0.077,0.725,0.232,0.971
		c0.154,0.246,0.357,0.438,0.608,0.574s0.538,0.228,0.861,0.273s0.653,0.068,0.991,0.068c0.52,0,1.023-0.077,1.511-0.232
		s0.964-0.328,1.429-0.52s0.92-0.364,1.367-0.52c0.446-0.155,0.884-0.232,1.312-0.232c0.072,0,0.148,0.005,0.226,0.014
		s0.146,0.034,0.205,0.075s0.101,0.101,0.123,0.178s0.021,0.185-0.007,0.321c-0.046,0.164-0.207,0.328-0.485,0.492
		s-0.62,0.319-1.025,0.465s-0.848,0.282-1.326,0.41s-0.943,0.237-1.395,0.328s-0.856,0.162-1.217,0.212s-0.627,0.075-0.8,0.075
		c-0.401,0-0.834-0.046-1.299-0.137s-0.896-0.241-1.292-0.451s-0.728-0.485-0.991-0.827
		C333.118,184.467,332.986,184.041,332.986,183.53z"/>
	<path fill="#ED6756" d="M344.061,183.981c-0.082-0.738-0.012-1.458,0.212-2.16s0.561-1.321,1.012-1.859s0.995-0.964,1.634-1.278
		c0.638-0.314,1.335-0.463,2.092-0.444c0.127,0,0.299,0.019,0.513,0.055s0.442,0.094,0.684,0.171s0.479,0.176,0.711,0.294
		s0.438,0.26,0.615,0.424s0.312,0.349,0.403,0.554c0.091,0.205,0.113,0.436,0.068,0.69c-0.374,0.265-0.805,0.446-1.292,0.547
		s-0.984,0.171-1.49,0.212s-1.001,0.077-1.483,0.109c-0.483,0.032-0.904,0.116-1.265,0.253s-0.638,0.354-0.834,0.649
		s-0.258,0.723-0.185,1.278c0.137,0.501,0.362,0.87,0.677,1.107s0.679,0.381,1.094,0.431s0.856,0.027,1.326-0.068
		s0.93-0.221,1.381-0.376s0.872-0.319,1.265-0.492c0.392-0.173,0.715-0.314,0.971-0.424c0.118,0,0.219,0.043,0.301,0.13
		s0.123,0.189,0.123,0.308c-0.229,0.392-0.574,0.743-1.039,1.053s-0.989,0.561-1.572,0.752c-0.584,0.191-1.191,0.31-1.825,0.355
		s-1.229,0-1.784-0.137c-0.557-0.137-1.044-0.378-1.463-0.725C344.488,185.043,344.206,184.574,344.061,183.981z M348.887,179.265
		c-0.164,0-0.365,0.019-0.602,0.055c-0.237,0.036-0.465,0.101-0.684,0.191s-0.408,0.21-0.567,0.355s-0.239,0.333-0.239,0.561
		l3.391-0.561c-0.146-0.219-0.335-0.374-0.567-0.465S349.142,179.265,348.887,179.265z"/>
	<path fill="#ED6756" d="M355.518,185.95c0.646-0.21,1.251-0.456,1.812-0.738s1.03-0.561,1.408-0.834s0.634-0.526,0.766-0.759
		s0.096-0.408-0.109-0.526s-0.608-0.157-1.21-0.116s-1.454,0.198-2.557,0.472c-0.328-0.009-0.622-0.073-0.882-0.191
		s-0.481-0.265-0.663-0.438c-0.183-0.173-0.321-0.362-0.417-0.567s-0.144-0.403-0.144-0.595c0-0.301,0.103-0.6,0.308-0.896
		s0.48-0.576,0.827-0.841c0.346-0.265,0.747-0.504,1.203-0.718c0.455-0.214,0.934-0.388,1.436-0.52
		c0.501-0.132,1.014-0.219,1.538-0.26s1.027-0.016,1.511,0.075c0.273,0,0.433,0.121,0.479,0.362
		c0.045,0.241,0.068,0.631,0.068,1.169c-0.374-0.173-0.777-0.296-1.21-0.369s-0.868-0.101-1.306-0.082s-0.861,0.08-1.271,0.185
		s-0.772,0.251-1.087,0.438s-0.572,0.417-0.772,0.69c-0.201,0.273-0.306,0.583-0.314,0.93c0,0.191,0.075,0.316,0.226,0.376
		s0.328,0.087,0.533,0.082s0.419-0.027,0.643-0.068s0.403-0.062,0.54-0.062c1.23-0.265,2.188-0.374,2.871-0.328
		s1.144,0.191,1.381,0.438c0.236,0.246,0.273,0.562,0.109,0.95s-0.48,0.795-0.95,1.224s-1.064,0.846-1.784,1.251
		c-0.721,0.405-1.518,0.75-2.393,1.032c-0.046,0-0.096-0.034-0.15-0.103s-0.111-0.148-0.171-0.239s-0.112-0.178-0.157-0.26
		C355.581,186.032,355.545,185.978,355.518,185.95z"/>
	<path fill="#ED6756" d="M364.309,185.95c0.646-0.21,1.251-0.456,1.812-0.738s1.03-0.561,1.408-0.834s0.634-0.526,0.766-0.759
		s0.096-0.408-0.109-0.526s-0.608-0.157-1.21-0.116s-1.454,0.198-2.557,0.472c-0.328-0.009-0.622-0.073-0.882-0.191
		s-0.481-0.265-0.663-0.438c-0.183-0.173-0.321-0.362-0.417-0.567s-0.144-0.403-0.144-0.595c0-0.301,0.103-0.6,0.308-0.896
		s0.48-0.576,0.827-0.841c0.346-0.265,0.747-0.504,1.203-0.718c0.455-0.214,0.934-0.388,1.436-0.52
		c0.501-0.132,1.014-0.219,1.538-0.26s1.027-0.016,1.511,0.075c0.273,0,0.433,0.121,0.479,0.362
		c0.045,0.241,0.068,0.631,0.068,1.169c-0.374-0.173-0.777-0.296-1.21-0.369s-0.868-0.101-1.306-0.082s-0.861,0.08-1.271,0.185
		s-0.772,0.251-1.087,0.438s-0.572,0.417-0.772,0.69c-0.201,0.273-0.306,0.583-0.314,0.93c0,0.191,0.075,0.316,0.226,0.376
		s0.328,0.087,0.533,0.082s0.419-0.027,0.643-0.068s0.403-0.062,0.54-0.062c1.23-0.265,2.188-0.374,2.871-0.328
		s1.144,0.191,1.381,0.438c0.236,0.246,0.273,0.562,0.109,0.95s-0.48,0.795-0.95,1.224s-1.064,0.846-1.784,1.251
		c-0.721,0.405-1.518,0.75-2.393,1.032c-0.046,0-0.096-0.034-0.15-0.103s-0.111-0.148-0.171-0.239s-0.112-0.178-0.157-0.26
		C364.372,186.032,364.336,185.978,364.309,185.95z"/>
	<path fill="#ED6756" d="M371.623,182.983c0-0.747,0.164-1.388,0.492-1.921s0.742-0.978,1.244-1.333
		c0.501-0.355,1.048-0.627,1.641-0.813c0.592-0.187,1.157-0.308,1.695-0.362c0.52-0.027,1.007,0.039,1.463,0.198
		c0.455,0.159,0.848,0.385,1.176,0.677s0.581,0.638,0.759,1.039s0.243,0.825,0.198,1.271c0,0.747-0.148,1.401-0.444,1.962
		s-0.69,1.03-1.183,1.408s-1.064,0.661-1.716,0.848s-1.333,0.28-2.044,0.28c-1.076,0-1.892-0.251-2.447-0.752
		C371.9,184.984,371.623,184.15,371.623,182.983z M372.799,183.394c0,0.383,0.048,0.688,0.144,0.916s0.237,0.398,0.424,0.513
		s0.415,0.189,0.684,0.226s0.581,0.055,0.937,0.055c0.547,0,1.075-0.053,1.586-0.157c0.51-0.104,0.961-0.282,1.354-0.533
		c0.392-0.251,0.706-0.583,0.943-0.998c0.236-0.415,0.355-0.932,0.355-1.552c0-0.319-0.046-0.622-0.137-0.909
		c-0.092-0.287-0.229-0.538-0.41-0.752c-0.183-0.214-0.406-0.385-0.67-0.513c-0.265-0.128-0.565-0.191-0.902-0.191
		c-0.447,0.073-0.894,0.157-1.34,0.253c-0.447,0.096-0.866,0.269-1.258,0.52c-0.393,0.251-0.738,0.62-1.039,1.107
		S372.944,182.537,372.799,183.394z"/>
</g>
<g enable-background="new    ">
	<path d="M239.951,115.281c0.036-0.036,0.104-0.077,0.205-0.123c0.1-0.046,0.205-0.066,0.314-0.062s0.214,0.048,0.314,0.13
		c0.1,0.082,0.173,0.224,0.219,0.424c1.303-0.438,2.42-0.69,3.35-0.759s1.686-0.005,2.27,0.191c0.583,0.196,1.002,0.497,1.258,0.902
		c0.255,0.405,0.359,0.861,0.314,1.367c-0.046,0.506-0.234,1.037-0.567,1.593s-0.798,1.08-1.395,1.572s-1.317,0.928-2.16,1.306
		s-1.794,0.645-2.851,0.8c0,0.128,0.002,0.328,0.007,0.602s0.011,0.583,0.021,0.93c0.009,0.347,0.016,0.711,0.021,1.094
		s0.011,0.75,0.021,1.101c0.009,0.351,0.021,0.668,0.034,0.95s0.029,0.492,0.048,0.629c0.055,0.419-0.027,0.718-0.246,0.896
		s-0.52,0.244-0.902,0.198L239.951,115.281z M244.682,115.951c-0.355,0-0.748,0.041-1.176,0.123
		c-0.429,0.082-0.827,0.221-1.196,0.417s-0.673,0.46-0.909,0.793c-0.237,0.333-0.342,0.745-0.314,1.237v2.953
		c1.267-0.282,2.306-0.615,3.117-0.998c0.811-0.383,1.434-0.779,1.866-1.189s0.699-0.815,0.8-1.217
		c0.1-0.401,0.072-0.759-0.082-1.073c-0.155-0.314-0.42-0.567-0.793-0.759C245.62,116.047,245.183,115.951,244.682,115.951z"/>
	<path d="M255.824,119.67c-0.265,0.41-0.57,0.781-0.916,1.114c-0.347,0.333-0.727,0.615-1.142,0.848s-0.866,0.403-1.354,0.513
		s-1.001,0.142-1.538,0.096c-0.191,0-0.396-0.022-0.615-0.068s-0.422-0.118-0.608-0.219s-0.34-0.232-0.458-0.396
		c-0.119-0.164-0.178-0.369-0.178-0.615c-0.101-0.511-0.08-1.027,0.062-1.552s0.362-1.03,0.663-1.518s0.67-0.938,1.107-1.354
		s0.904-0.766,1.401-1.053s1.007-0.494,1.531-0.622s1.032-0.146,1.524-0.055c0.373,0,0.665,0.123,0.875,0.369
		c0.209,0.246,0.367,0.574,0.472,0.984s0.171,0.882,0.198,1.415s0.05,1.082,0.068,1.647c0.018,0.565,0.043,1.123,0.075,1.675
		s0.103,1.055,0.212,1.511h-1.012c-0.046-0.31-0.08-0.583-0.103-0.82s-0.044-0.458-0.062-0.663
		c-0.019-0.205-0.043-0.403-0.075-0.595S255.879,119.907,255.824,119.67z M254.785,116.02c-0.355-0.027-0.723,0.021-1.101,0.144
		s-0.743,0.296-1.094,0.52s-0.679,0.487-0.984,0.793s-0.572,0.622-0.8,0.95c-0.229,0.328-0.403,0.654-0.526,0.978
		s-0.173,0.622-0.15,0.896s0.125,0.506,0.308,0.697c0.182,0.191,0.465,0.319,0.848,0.383c0.547-0.009,1.073-0.148,1.579-0.417
		s0.957-0.602,1.354-0.998s0.727-0.825,0.991-1.285c0.264-0.46,0.436-0.887,0.513-1.278s0.043-0.72-0.103-0.984
		C255.473,116.151,255.195,116.02,254.785,116.02z"/>
	<path d="M264.561,120.613c-0.629,0.483-1.26,0.887-1.894,1.21s-1.242,0.518-1.825,0.581c-0.584,0.063-1.137-0.025-1.661-0.267
		s-0.991-0.69-1.401-1.347c-0.128-0.593-0.119-1.153,0.027-1.682c0.146-0.528,0.387-1.012,0.725-1.449
		c0.337-0.438,0.747-0.818,1.23-1.142c0.482-0.323,0.998-0.576,1.545-0.759s1.109-0.282,1.688-0.301s1.132,0.06,1.661,0.232
		c0-0.137,0.007-0.347,0.021-0.629s0.029-0.602,0.048-0.957c0.018-0.355,0.036-0.729,0.055-1.121
		c0.018-0.392,0.039-0.766,0.062-1.121s0.043-0.672,0.062-0.95c0.018-0.278,0.031-0.485,0.041-0.622
		c0.018-0.219,0.043-0.419,0.075-0.602s0.089-0.342,0.171-0.479s0.193-0.244,0.335-0.321s0.33-0.116,0.567-0.116
		c0,1.094-0.032,2.16-0.096,3.199c-0.064,1.039-0.121,2.085-0.171,3.138s-0.073,2.126-0.068,3.22s0.079,2.247,0.226,3.459
		c0,0.265-0.048,0.451-0.144,0.561s-0.258,0.164-0.485,0.164c-0.219,0-0.385-0.07-0.499-0.212s-0.191-0.31-0.232-0.506
		s-0.062-0.403-0.062-0.622S264.561,120.769,264.561,120.613z M258.969,120.08c0.018,0.419,0.139,0.718,0.362,0.896
		s0.535,0.23,0.937,0.157c0.191,0,0.485-0.053,0.882-0.157s0.807-0.241,1.23-0.41s0.822-0.355,1.196-0.561
		c0.373-0.205,0.638-0.412,0.793-0.622v-2.27c0-0.137-0.034-0.246-0.103-0.328s-0.155-0.144-0.26-0.185s-0.214-0.066-0.328-0.075
		s-0.212-0.014-0.294-0.014c-0.246-0.036-0.531-0.021-0.854,0.048s-0.656,0.178-0.998,0.328s-0.675,0.337-0.998,0.561
		s-0.608,0.474-0.854,0.752s-0.438,0.576-0.574,0.896S258.923,119.743,258.969,120.08z"/>
	<path d="M266.98,114.68c0-0.173,0.062-0.287,0.185-0.342s0.257-0.082,0.403-0.082c0.236,0,0.426,0.098,0.567,0.294
		s0.251,0.424,0.328,0.684s0.132,0.515,0.164,0.766s0.057,0.431,0.075,0.54c0.337-0.31,0.715-0.597,1.135-0.861
		c0.419-0.265,0.887-0.49,1.401-0.677s1.089-0.323,1.723-0.41s1.342-0.107,2.126-0.062c0.246-0.055,0.431-0.002,0.554,0.157
		s0.193,0.349,0.212,0.567c0.018,0.219-0.016,0.433-0.103,0.643s-0.217,0.333-0.39,0.369c-0.319-0.237-0.704-0.39-1.155-0.458
		s-0.921-0.066-1.408,0.007s-0.969,0.207-1.442,0.403c-0.475,0.196-0.896,0.444-1.265,0.745s-0.661,0.647-0.875,1.039
		s-0.304,0.815-0.267,1.271c0,0.282,0.018,0.559,0.055,0.827c0.036,0.269,0.075,0.538,0.116,0.807s0.079,0.538,0.116,0.807
		c0.036,0.269,0.055,0.54,0.055,0.813c-0.246,0.019-0.444,0.05-0.595,0.096s-0.276,0.066-0.376,0.062
		c-0.101-0.005-0.188-0.05-0.26-0.137c-0.073-0.087-0.155-0.262-0.246-0.526c-0.01-0.063-0.032-0.255-0.068-0.574
		c-0.037-0.319-0.08-0.706-0.13-1.162s-0.107-0.955-0.171-1.497c-0.064-0.542-0.125-1.075-0.185-1.6s-0.114-1.007-0.164-1.449
		S267.008,114.944,266.98,114.68z"/>
	<path d="M283.346,119.67c-0.265,0.41-0.57,0.781-0.916,1.114c-0.347,0.333-0.727,0.615-1.142,0.848s-0.866,0.403-1.354,0.513
		s-1.001,0.142-1.538,0.096c-0.191,0-0.396-0.022-0.615-0.068s-0.422-0.118-0.608-0.219s-0.34-0.232-0.458-0.396
		c-0.119-0.164-0.178-0.369-0.178-0.615c-0.101-0.511-0.08-1.027,0.062-1.552s0.362-1.03,0.663-1.518s0.67-0.938,1.107-1.354
		s0.904-0.766,1.401-1.053s1.007-0.494,1.531-0.622s1.032-0.146,1.524-0.055c0.373,0,0.665,0.123,0.875,0.369
		c0.209,0.246,0.367,0.574,0.472,0.984s0.171,0.882,0.198,1.415s0.05,1.082,0.068,1.647c0.018,0.565,0.043,1.123,0.075,1.675
		s0.103,1.055,0.212,1.511h-1.012c-0.046-0.31-0.08-0.583-0.103-0.82s-0.044-0.458-0.062-0.663
		c-0.019-0.205-0.043-0.403-0.075-0.595S283.4,119.907,283.346,119.67z M280.256,113.518c-0.229-0.2-0.429-0.369-0.602-0.506
		c-0.174-0.137-0.349-0.198-0.526-0.185s-0.374,0.123-0.588,0.328s-0.485,0.549-0.813,1.032c-0.037,0-0.087-0.005-0.15-0.014
		c-0.064-0.009-0.128-0.027-0.191-0.055c-0.064-0.027-0.123-0.063-0.178-0.109s-0.092-0.104-0.109-0.178
		c0.173-0.547,0.431-1.03,0.772-1.449s0.704-0.706,1.087-0.861c0.154-0.063,0.303-0.068,0.444-0.014s0.282,0.139,0.424,0.253
		s0.278,0.246,0.41,0.396s0.269,0.294,0.41,0.431s0.287,0.251,0.438,0.342s0.308,0.137,0.472,0.137c0.255,0,0.453-0.039,0.595-0.116
		s0.271-0.191,0.39-0.342c0.118-0.15,0.248-0.335,0.39-0.554s0.339-0.465,0.595-0.738c0.072,0,0.146,0.062,0.219,0.185
		c0.072,0.123,0.109,0.23,0.109,0.321c0.045,0.255,0.018,0.506-0.082,0.752c-0.101,0.246-0.248,0.47-0.444,0.67
		s-0.429,0.369-0.697,0.506s-0.545,0.226-0.827,0.267c-0.283,0.041-0.559,0.025-0.827-0.048S280.465,113.745,280.256,113.518z
		 M282.307,116.02c-0.355-0.027-0.723,0.021-1.101,0.144s-0.743,0.296-1.094,0.52s-0.679,0.487-0.984,0.793s-0.572,0.622-0.8,0.95
		c-0.229,0.328-0.403,0.654-0.526,0.978s-0.173,0.622-0.15,0.896s0.125,0.506,0.308,0.697c0.182,0.191,0.465,0.319,0.848,0.383
		c0.547-0.009,1.073-0.148,1.579-0.417s0.957-0.602,1.354-0.998s0.727-0.825,0.991-1.285c0.264-0.46,0.436-0.887,0.513-1.278
		s0.043-0.72-0.103-0.984C282.994,116.151,282.717,116.02,282.307,116.02z"/>
	<path d="M285.957,119.26c0-0.747,0.164-1.388,0.492-1.921s0.742-0.978,1.244-1.333c0.501-0.355,1.048-0.627,1.641-0.813
		c0.592-0.187,1.157-0.308,1.695-0.362c0.52-0.027,1.007,0.039,1.463,0.198c0.455,0.159,0.848,0.385,1.176,0.677
		s0.581,0.638,0.759,1.039s0.243,0.825,0.198,1.271c0,0.747-0.148,1.401-0.444,1.962s-0.69,1.03-1.183,1.408
		s-1.064,0.661-1.716,0.848s-1.333,0.28-2.044,0.28c-1.076,0-1.892-0.251-2.447-0.752
		C286.234,121.261,285.957,120.427,285.957,119.26z M287.133,119.67c0,0.383,0.048,0.688,0.144,0.916s0.237,0.398,0.424,0.513
		s0.415,0.189,0.684,0.226s0.581,0.055,0.937,0.055c0.547,0,1.075-0.053,1.586-0.157c0.51-0.104,0.961-0.282,1.354-0.533
		c0.392-0.251,0.706-0.583,0.943-0.998c0.236-0.415,0.355-0.932,0.355-1.552c0-0.319-0.046-0.622-0.137-0.909
		c-0.092-0.287-0.229-0.538-0.41-0.752c-0.183-0.214-0.406-0.385-0.67-0.513c-0.265-0.128-0.565-0.191-0.902-0.191
		c-0.447,0.073-0.894,0.157-1.34,0.253c-0.447,0.096-0.866,0.269-1.258,0.52c-0.393,0.251-0.738,0.62-1.039,1.107
		S287.278,118.813,287.133,119.67z"/>
</g>
<g>
	<g>
		<g>
			<path d="M277.1,87.083c0,0-0.18,0.132-0.541,0.346c-0.363,0.214-0.908,0.516-1.631,0.875c-1.445,0.718-3.604,1.661-6.451,2.575
				c-5.707,1.808-13.509,5.01-22.24,9.79c-8.987,4.201-19.394,8.875-30.41,13.386c-10.285,6.178-22.242,9.787-33.134,14.584
				c-10.308,6.125-21.732,8.482-30.41,13.387c-8.92,4.354-16.812,7.352-22.24,9.789c-5.384,2.539-8.624,3.797-8.624,3.797
				l-0.416-0.944c0,0,2.6-2.711,8.126-4.926c5.563-2.132,13.272-5.546,22.24-9.79c9.248-3.609,19.018-9.725,30.41-13.387
				c11.443-3.545,22.189-9.905,33.133-14.584c11.526-3.355,21.364-9.318,30.411-13.386c9.219-3.674,16.506-8.045,22.24-9.79
				c5.229-2.887,9.121-2.666,9.121-2.666S277.025,86.917,277.1,87.083z"/>
		</g>
		<g>
			<path d="M270.201,96.858c-0.344-0.229-0.438-0.696-0.207-1.041l6.376-9.541l-11.343-1.743c-0.409-0.063-0.69-0.446-0.627-0.855
				c0.062-0.409,0.449-0.689,0.854-0.628l12.507,1.921c0.253,0.039,0.47,0.205,0.572,0.439c0.103,0.234,0.079,0.506-0.062,0.719
				l-7.029,10.52c-0.082,0.123-0.195,0.214-0.321,0.27C270.693,97.021,270.423,97.006,270.201,96.858z"/>
		</g>
	</g>
</g>
<g>
	<g>
		<g>
			<path fill="#ED6756" d="M282.202,30.382c0.006,0.001,0.021,0.08,0.034,0.234c0.015,0.154,0.029,0.383,0.039,0.683
				c0.019,0.6,0.015,1.484-0.065,2.624c-0.16,2.279-0.623,5.579-1.808,9.666c-1.129,3.821-2.176,8.429-2.989,13.708
				c-0.407,2.64-0.757,5.447-1.029,8.408c-0.137,1.48-0.255,2.999-0.351,4.555l-0.035,0.585l-0.016,0.286v0.172l0.014,0.651
				c0.015,0.413,0.043,0.778,0.087,1.082c0.494-0.093,0.976-0.194,1.371-0.304l0.53-0.041c0.441-0.013,0.888-0.026,1.334-0.04
				c0.893-0.024,1.793-0.049,2.701-0.073c1.816-0.04,3.664-0.081,5.539-0.122c3.748-0.069,7.605-0.114,11.553-0.125
				c7.892-0.021,16.135,0.091,24.553,0.4c5.021-0.901,10.105-1.264,15.215-1.33c2.555-0.033,5.116,0.008,7.679,0.094l3.845,0.158
				l0.209,0.011l0.021,0.012l0.045,0.024l0.112,0.05c0.085,0.033,0.188,0.068,0.313,0.104c0.045-0.069,0.089-0.174,0.13-0.317
				l0.029-0.115l0.017-0.062c0.006-0.001,0-0.187,0.001-0.271l-0.011-1.298c-0.019-1.731-0.037-3.459-0.057-5.182
				c-0.056-3.445-0.159-6.871-0.384-10.26c-1.179-4.889-1.68-9.761-1.874-14.555c-0.097-2.397-0.117-4.774-0.107-7.125
				c0.012-1.175,0.021-2.343,0.032-3.503l0.003-0.217c0-0.079,0.007-0.062,0.011-0.098l0.024-0.146l0.047-0.317l0.086-0.732
				c-0.589-0.122-0.844-0.235-2.796-0.324c-1.564-0.088-3.111-0.152-4.638-0.175c-3.055-0.045-6.027,0.072-8.913,0.48
				c-14.03,0.78-25.956-0.09-34.374,0c-8.418,0.309-13.328,0-13.328,0v-2.064c0,0,4.91-2.868,13.328-2.469
				c8.418,0.581,20.344,0.544,34.374,0c2.886,0.173,5.859,0.171,8.913,0.079c1.525-0.046,3.071-0.115,4.638-0.195
				c1.008-0.08,4.52-0.171,7.414-0.264c0.197,2.015,0.396,4.044,0.597,6.087c0.135,1.151,0.269,2.31,0.403,3.475
				c0.257,2.332,0.485,4.696,0.654,7.088c0.336,4.784,0.432,9.683,0.028,14.676c-0.325,3.425-0.418,6.864-0.351,10.309
				c0.033,1.723,0.107,3.447,0.212,5.171l0.205,2.99l0.287,3.643l-5.304,0.126l-3.845,0.174c-2.562,0.134-5.124,0.269-7.679,0.403
				c-5.108,0.263-10.193,0.475-15.215,0.399c-8.418-1.573-16.661-1.612-24.553-1.238c-3.946,0.187-7.806,0.477-11.553,0.73
				c-1.875,0.126-3.723,0.244-5.539,0.334c-0.908,0.038-1.81,0.076-2.701,0.114c-0.447,0.012-0.893,0.025-1.334,0.038
				c-0.76,0.007-1.516,0.015-2.268,0.022c-1.484-0.034-2.953-0.068-4.363-0.101c0.199-1.361,0.396-2.709,0.594-4.043
				c0.152-1.127,0.305-2.243,0.455-3.347c0.196-1.539,0.365-3.049,0.519-4.526c0.304-2.955,0.538-5.777,0.782-8.44
				c0.486-5.326,1.013-10.013,2.207-13.831c0.076-8.485,4.246-12.873,4.246-12.873S281.841,30.333,282.202,30.382z"/>
		</g>
	</g>
</g>
</svg>
