<?xml version="1.0" encoding="utf-8"?>
<!-- Generator: Adobe Illustrator 16.0.0, SVG Export Plug-In . SVG Version: 6.00 Build 0)  -->
<!DOCTYPE svg PUBLIC "-//W3C//DTD SVG 1.1//EN" "http://www.w3.org/Graphics/SVG/1.1/DTD/svg11.dtd">
<svg version="1.1" id="Layer_1" xmlns="http://www.w3.org/2000/svg" xmlns:xlink="http://www.w3.org/1999/xlink" x="0px" y="0px"
	 width="400px" height="200px" viewBox="0 0 400 200" enable-background="new 0 0 400 200" xml:space="preserve">
<g>
	<g>
		<g>
			<path fill-rule="evenodd" clip-rule="evenodd" fill="#ED6756" d="M17.277,36.724c0,0,0.048,0.167,0.098,0.487
				c0.05,0.321,0.107,0.797,0.145,1.415c0.075,1.237,0.068,3.044-0.243,5.327c-0.645,4.566-0.856,11.034,0,18.644
				c0.224,7.61,0.31,16.362,0,25.494c1.51,9.132-0.003,18.645,0,27.776c1.452,9.132-0.992,17.884,0,25.493
				c0.39,7.61-0.045,14.078,0,18.645c0.154,4.566,0,7.229,0,7.229h-1.032c0,0-1.434-2.663-1.234-7.229
				c0.29-4.566,0.272-11.034,0-18.645c0.422-7.61-1.239-16.361,0-25.493c1.365-9.132-0.128-18.645,0-27.776
				c1.573-9.132,0.078-17.884,0-25.494c0.352-7.61-0.714-14.078,0-18.644c-0.535-4.566,1.234-7.229,1.234-7.229
				S17.095,36.724,17.277,36.724z"/>
		</g>
		<g>
			<path fill="#ED6756" d="M23.445,46.975c-0.349,0.223-0.813,0.12-1.036-0.229l-6.164-9.679l-6.164,9.679
				c-0.223,0.349-0.687,0.452-1.036,0.229s-0.45-0.689-0.23-1.035l6.797-10.672c0.138-0.216,0.376-0.347,0.633-0.347
				s0.495,0.131,0.633,0.347l6.797,10.672c0.079,0.124,0.117,0.264,0.117,0.402C23.792,46.589,23.669,46.831,23.445,46.975z"/>
		</g>
	</g>
</g>
<g>
	<g>
		<g>
			<path fill-rule="evenodd" clip-rule="evenodd" fill="#ED6756" d="M382.774,160.592c0,0-0.371,0.049-1.089,0.099
				c-0.717,0.05-1.778,0.107-3.159,0.145c-2.762,0.074-6.798,0.067-11.896-0.243c-10.196-0.645-24.641-0.856-41.635,0
				c-16.993,0.224-36.536,0.31-56.929,0c-20.393,1.51-41.634-0.003-62.026,0c-20.393,1.452-39.935-0.992-56.929,0
				c-16.993,0.391-31.438-0.045-41.634,0c-10.196,0.154-16.144,0-16.144,0v-1.032c0,0,5.948-1.434,16.144-1.234
				c10.196,0.29,24.641,0.272,41.634,0c16.994,0.422,36.537-1.239,56.929,0c20.393,1.365,41.634-0.128,62.026,0
				c20.393,1.573,39.936,0.078,56.929,0c16.994,0.353,31.438-0.714,41.635,0c10.195-0.535,16.144,1.234,16.144,1.234
				S382.774,160.41,382.774,160.592z"/>
		</g>
		<g>
			<path fill="#ED6756" d="M372.523,166.76c-0.223-0.35-0.119-0.813,0.229-1.036l9.679-6.164l-9.679-6.164
				c-0.349-0.223-0.452-0.687-0.229-1.036c0.223-0.348,0.689-0.449,1.035-0.229l10.672,6.797c0.217,0.138,0.348,0.376,0.348,0.633
				s-0.131,0.495-0.348,0.633l-10.672,6.797c-0.124,0.079-0.264,0.117-0.402,0.117C372.909,167.106,372.667,166.983,372.523,166.76z
				"/>
		</g>
	</g>
</g>
<text transform="matrix(1 0 0 1 11.2451 22.0723)" fill="#ED6756" font-family="'ArchitectsDaughter'" font-size="14">+ acesso</text>
<text transform="matrix(1 0 0 1 322.6719 184.5684)" fill="#ED6756" font-family="'ArchitectsDaughter'" font-size="14">+ renda</text>
<text transform="matrix(1 0 0 1 295.2314 71.2349)" font-family="'ArchitectsDaughter'" font-size="14">padrão</text>
<circle fill="#42B3C6" stroke="#42B3C6" stroke-miterlimit="10" cx="55.492" cy="146.06" r="5.914"/>
<circle fill="#42B3C6" stroke="#42B3C6" stroke-miterlimit="10" cx="150.666" cy="121.828" r="5.914"/>
<circle fill="#42B3C6" stroke="#42B3C6" stroke-miterlimit="10" cx="109.161" cy="121.828" r="5.914"/>
<circle fill="#42B3C6" stroke="#42B3C6" stroke-miterlimit="10" cx="103.247" cy="104.086" r="5.914"/>
<circle fill="#42B3C6" stroke="#42B3C6" stroke-miterlimit="10" cx="129.695" cy="104.086" r="5.914"/>
<circle fill="#42B3C6" stroke="#42B3C6" stroke-miterlimit="10" cx="174.58" cy="77.149" r="5.914"/>
<circle fill="#42B3C6" stroke="#42B3C6" stroke-miterlimit="10" cx="221.913" cy="104.086" r="5.914"/>
<circle fill="#42B3C6" stroke="#42B3C6" stroke-miterlimit="10" cx="168.666" cy="104.086" r="5.914"/>
<circle fill="#42B3C6" stroke="#42B3C6" stroke-miterlimit="10" cx="215.999" cy="71.235" r="5.914"/>
<circle fill="#42B3C6" stroke="#42B3C6" stroke-miterlimit="10" cx="253.999" cy="71.235" r="5.914"/>
<circle fill="#42B3C6" stroke="#42B3C6" stroke-miterlimit="10" cx="304.666" cy="44.458" r="5.914"/>
<g>
	<g>
		<g>
			<path fill-rule="evenodd" clip-rule="evenodd" d="M328.735,40.193c0,0-0.347,0.198-1.033,0.541
				c-0.687,0.342-1.709,0.833-3.054,1.438c-2.688,1.209-6.662,2.869-11.799,4.687c-10.282,3.615-24.577,9.383-40.967,17.188
				c-16.635,7.222-35.831,15.369-56.017,23.502c-19.481,9.812-40.968,17.186-61.033,25.607
				c-19.504,9.758-39.679,15.571-56.017,23.502c-16.57,7.376-30.952,12.938-40.967,17.188c-9.973,4.352-15.885,6.665-15.885,6.665
				l-0.399-0.952c0,0,5.298-3.777,15.408-7.803c10.145-3.942,24.351-9.922,40.967-17.188c16.885-6.627,35.472-16.227,56.017-23.502
				c20.594-7.16,40.918-17.307,61.033-25.607c20.674-6.969,39.326-16.415,56.017-23.502c16.857-6.691,30.658-13.637,40.967-17.188
				c9.826-4.702,16.363-5.526,16.363-5.526S328.665,40.026,328.735,40.193z"/>
		</g>
		<g>
			<path d="M321.668,49.847c-0.34-0.235-0.424-0.703-0.188-1.044l6.541-9.429l-11.311-1.939c-0.408-0.07-0.683-0.458-0.612-0.866
				s0.461-0.681,0.865-0.613l12.471,2.139c0.253,0.043,0.466,0.213,0.565,0.449s0.07,0.507-0.075,0.718l-7.212,10.396
				c-0.084,0.121-0.198,0.21-0.325,0.264C322.158,50.018,321.888,49.998,321.668,49.847z"/>
		</g>
	</g>
</g>
</svg>
