<?xml version="1.0" encoding="utf-8"?>
<!-- Generator: Adobe Illustrator 16.0.0, SVG Export Plug-In . SVG Version: 6.00 Build 0)  -->
<!DOCTYPE svg PUBLIC "-//W3C//DTD SVG 1.1//EN" "http://www.w3.org/Graphics/SVG/1.1/DTD/svg11.dtd">
<svg version="1.1" id="Layer_1" xmlns="http://www.w3.org/2000/svg" xmlns:xlink="http://www.w3.org/1999/xlink" x="0px" y="0px"
	 width="400px" height="200px" viewBox="0 0 400 200" enable-background="new 0 0 400 200" xml:space="preserve">
<g>
	<g>
		<g>
			<path fill="#ED6756" d="M33.61,37.154c0,0,0.048,0.164,0.098,0.481c0.05,0.317,0.107,0.786,0.145,1.396
				c0.075,1.22,0.068,3.004-0.243,5.257c-0.645,4.506-0.856,10.889,0,18.399c0.224,7.509,0.31,16.146,0,25.158
				c1.51,9.012-0.003,18.399,0,27.411c1.452,9.012-0.992,17.646,0,25.157c0.39,7.51-0.045,13.894,0,18.399
				c0.154,4.506,0,7.133,0,7.133h-1.032c0,0-1.434-2.627-1.234-7.133c0.29-4.506,0.272-10.891,0-18.399
				c0.422-7.511-1.239-16.146,0-25.157c1.365-9.012-0.128-18.399,0-27.411c1.573-9.012,0.078-17.648,0-25.158
				c0.352-7.51-0.714-13.893,0-18.399c-0.535-4.506,1.234-7.134,1.234-7.134S33.428,37.154,33.61,37.154z"/>
		</g>
	</g>
</g>
<g>
	<g>
		<g>
			<path fill="#ED6756" d="M378.783,164.577c0,0-0.39,0.051-1.139,0.106c-0.75,0.056-1.859,0.121-3.304,0.17
				c-2.888,0.099-7.106,0.125-12.44-0.145c-10.668-0.561-25.774-0.654-43.539,0.343c-17.771,0.364-38.207,0.611-59.533,0.47
				c-21.314,1.679-43.54,0.34-64.865,0.512c-21.313,1.619-41.77-0.663-59.533,0.469c-17.768,0.53-32.877,0.215-43.539,0.344
				c-10.661,0.238-16.882,0.133-16.882,0.133L74,165.945c0,0,6.208-1.481,16.873-1.366c10.665,0.206,25.77,0.067,43.539-0.345
				c17.775,0.283,38.198-1.539,59.534-0.469c21.336,1.197,43.539-0.471,64.865-0.511c21.338,1.404,41.764-0.252,59.532-0.47
				c17.774,0.212,32.871-0.973,43.54-0.344c10.658-0.618,16.893,1.103,16.893,1.103S378.781,164.395,378.783,164.577z"/>
		</g>
		<g>
			<path fill="#ED6756" d="M368.58,170.825c-0.227-0.349-0.126-0.812,0.222-1.038l9.631-6.24l-9.728-6.087
				c-0.353-0.221-0.458-0.685-0.238-1.034s0.687-0.455,1.034-0.238l10.725,6.713c0.219,0.137,0.352,0.375,0.354,0.631
				s-0.127,0.496-0.342,0.636l-10.618,6.881c-0.124,0.08-0.265,0.119-0.401,0.12C368.969,171.169,368.726,171.048,368.58,170.825z"
				/>
		</g>
	</g>
</g>
<g>
	<rect x="52.578" y="40.517" fill="#42B3C6" width="293.089" height="3.452"/>
	<g>
		<g>
			<path fill="#42B3C6" d="M343.603,43.969c-0.008,0.001-0.044-0.123-0.095-0.328c-0.04-0.177-0.101-0.44-0.18-0.786
				c-0.206,0.031-0.439,0.066-0.7,0.105c-0.11,0.015-0.227,0.031-0.349,0.048c-0.414,0.014-0.849,0.029-1.299,0.044
				c-1.877,0.055-4.061,0.091-6.533,0.093c-4.946,0.002-11.055-0.137-18.182-0.564c-20.75-1.289-50.144-1.713-84.727,0
				c-34.581,0.448-74.352,0.62-115.85,0c-10.375,0.755-20.858,1.132-31.395,1.273c-5.269,0.071-10.55,0.082-15.839,0.053
				l-7.937-0.074l-3.971-0.056l-0.496-0.008c-0.121-0.001-0.053-0.002-0.078-0.004l-0.012-0.004l-0.054-0.016l-0.137-0.034
				l-0.065-2.874l0.135,0.038l0.083,0.02l0.045,0.01l0.012,0.002l0.115,0.002l0.235,0.005l3.754,0.082l7.503,0.174
				c4.999,0.116,9.991,0.232,14.97,0.349c9.959,0.217,19.866,0.386,29.677,0.384c41.498-2.904,81.268,1.984,115.85,0
				c34.582-0.78,63.977,0.09,84.726,0c20.749-0.309,32.854,0,32.854,0v2.064c0,0-12.104,2.868-32.854,2.469
				c-20.749-0.581-50.144-0.544-84.726,0c-34.583-0.843-74.352,2.479-115.85,0c-9.811-0.646-19.718-0.972-29.677-1.097
				c-4.979-0.062-9.971-0.075-14.97-0.051c-5.493,0.054-10.993,0.108-16.496,0.162l-0.058-6.475l9.482-0.152l7.937-0.168
				c5.289-0.111,10.571-0.221,15.839-0.332c10.537-0.202,21.02-0.34,31.395-0.276c41.498,3.146,81.269,0.156,115.85,0
				c34.583,0.704,63.978-1.427,84.727,0c7.188-0.371,13.339-0.188,18.293,0.209c2.478,0.198,4.653,0.451,6.513,0.714
				c0.482,0.069,0.946,0.135,1.39,0.199c0.563,0.07,1.102,0.136,1.612,0.199c0.973,0.132,1.746,0.262,2.357,0.383
				c-0.216,1.626-0.407,2.657-0.544,3.302c-0.138,0.642-0.222,0.915-0.222,0.915S343.967,43.969,343.603,43.969z"/>
		</g>
	</g>
</g>
<g>
	<rect x="52.578" y="76.348" fill="#42B3C6" width="249.087" height="3.452"/>
	<g>
		<g>
			<path fill="#42B3C6" d="M299.602,79.8c-0.01,0.001-0.051-0.123-0.106-0.324c-0.045-0.17-0.111-0.424-0.199-0.758
				c-0.18,0.03-0.381,0.062-0.603,0.099c-0.094,0.014-0.192,0.029-0.297,0.045c-0.062,0.007-0.068,0.014-0.176,0.021
				c-0.19,0.006-0.387,0.012-0.586,0.019c-1.59,0.048-3.423,0.079-5.484,0.075c-4.125-0.008-9.164-0.152-15.012-0.564
				c-17.67-1.289-42.703-1.713-72.152,0c-29.45,0.448-63.319,0.62-98.66,0c-8.835,0.755-17.763,1.132-26.736,1.273
				c-4.487,0.071-8.985,0.082-13.489,0.053l-6.759-0.074l-3.359-0.056c-0.048-0.021-0.116-0.042-0.209-0.066l-0.077-2.861
				c0.064,0.024,0.151,0.05,0.262,0.077l2.951,0.082l6.326,0.173c4.214,0.115,8.423,0.229,12.62,0.344
				c8.395,0.214,16.747,0.379,25.019,0.378c35.341-2.904,69.209,1.984,98.66,0c29.449-0.78,54.482,0.09,72.152,0
				c17.672-0.309,27.979,0,27.979,0V79.8c0,0-10.308,2.868-27.979,2.469c-17.67-0.581-42.703-0.544-72.152,0
				c-29.451-0.843-63.319,2.479-98.66,0c-8.271-0.639-16.624-0.965-25.019-1.093c-4.197-0.064-8.406-0.078-12.62-0.057
				c-4.705,0.051-9.416,0.103-14.13,0.154l-0.067-6.466l4.911-0.073l3.393-0.079l6.759-0.168c4.504-0.111,9.002-0.221,13.489-0.332
				c8.973-0.202,17.901-0.34,26.736-0.276c35.341,3.146,69.21,0.156,98.659,0c29.451,0.704,54.484-1.427,72.154,0
				c5.877-0.356,10.938-0.202,15.066,0.162c2.062,0.182,3.895,0.417,5.477,0.667c0.197,0.032,0.393,0.063,0.582,0.094
				c0.271,0.033,0.537,0.064,0.797,0.095c0.485,0.067,0.953,0.131,1.398,0.192c0.85,0.127,1.537,0.254,2.089,0.375
				c-0.243,1.686-0.465,2.747-0.625,3.406c-0.159,0.656-0.26,0.93-0.26,0.93S299.965,79.8,299.602,79.8z"/>
		</g>
	</g>
</g>
<g>
	<rect x="52.578" y="94.263" fill="#42B3C6" width="185.087" height="3.452"/>
	<g>
		<g>
			<path fill="#42B3C6" d="M235.602,97.715c-0.011,0.001-0.064-0.125-0.137-0.318s-0.158-0.443-0.236-0.697
				c-0.307,0.06-0.601,0.114-0.885,0.149l-0.054,0.006c-0.011,0.002-0.026,0.004-0.125,0.006c-0.151,0.003-0.306,0.007-0.46,0.01
				c-0.312,0.005-0.632,0.01-0.962,0.015c-0.66,0-1.354,0-2.089,0c-2.926-0.029-6.422-0.182-10.426-0.559
				c-13.191-1.289-31.88-1.713-53.868,0c-21.987,0.448-47.272,0.62-73.657,0c-6.597,0.755-13.261,1.132-19.96,1.273
				c-3.35,0.071-6.708,0.082-10.07,0.053l-5.046-0.074l-1.262-0.026l-0.315-0.007c-0.072-0.001-0.073-0.002-0.069-0.004
				l-0.006-0.003l-0.028-0.015c-0.041-0.021-0.097-0.042-0.173-0.066l-0.104-2.834c0.046,0.025,0.108,0.051,0.188,0.077
				c0.062,0.013,0.035,0.027,0.184,0.04l1.154,0.042l4.613,0.17c3.073,0.112,6.142,0.223,9.202,0.334
				c6.121,0.208,12.211,0.365,18.243,0.363c26.385-2.904,51.669,1.984,73.657,0c21.987-0.78,40.676,0.09,53.867,0
				c13.193-0.309,20.889,0,20.889,0v2.064c0,0-7.695,2.868-20.889,2.469c-13.191-0.581-31.88-0.544-53.867,0
				c-21.987-0.843-47.272,2.479-73.657,0c-6.032-0.625-12.122-0.95-18.243-1.083c-3.061-0.067-6.129-0.086-9.202-0.07
				c-3.556,0.046-7.118,0.091-10.682,0.137l-0.088-6.445l3.648-0.073l2.942-0.079l5.046-0.168c3.362-0.111,6.721-0.221,10.07-0.332
				c6.699-0.202,13.364-0.34,19.96-0.276c26.384,3.146,51.67,0.156,73.657,0c21.987,0.704,40.676-1.427,53.868,0
				c4.012-0.325,7.514-0.225,10.441,0.073c0.73,0.074,1.428,0.161,2.087,0.257c0.329,0.051,0.649,0.101,0.962,0.149
				c0.154,0.026,0.309,0.053,0.459,0.079c0.146,0.026,0.439,0.054,0.641,0.081c1.775,0.219,3.076,0.458,3.986,0.689
				c-0.299,1.81-0.584,2.939-0.795,3.63c-0.21,0.687-0.347,0.962-0.347,0.962S235.965,97.715,235.602,97.715z"/>
		</g>
	</g>
</g>
<g>
	<rect x="52.578" y="130.094" fill="#42B3C6" width="124.543" height="3.452"/>
	<g>
		<g>
			<path fill="#42B3C6" d="M175.057,133.546c-0.025-0.004-0.312-0.504-0.467-0.921c-0.198,0.042-0.38,0.074-0.56,0.089
				c-0.09,0.009-0.18,0.011-0.274,0.009c-0.37-0.009-0.756-0.017-1.158-0.024c-1.797-0.058-3.875-0.216-6.205-0.539
				c-8.956-1.289-21.644-1.714-36.57,0c-14.926,0.446-32.092,0.618-50.004,0c-4.478,0.755-9.002,1.133-13.551,1.272
				c-2.274,0.07-4.554,0.082-6.836,0.053l-3.426-0.072c-0.072-0.033-0.105-0.075-0.232-0.122l-0.159-2.779
				c0.059,0.05,0.158,0.103,0.306,0.155l0.058,0.021l0.343,0.021l0.749,0.041l1.495,0.082c1.994,0.104,3.984,0.211,5.968,0.315
				c3.97,0.193,7.92,0.338,11.834,0.336c17.912-2.903,35.077,1.984,50.004,0c14.926-0.779,27.614,0.09,36.57,0
				c8.956-0.31,14.18,0,14.18,0v2.063c0,0-5.224,2.868-14.18,2.47c-8.956-0.58-21.644-0.543-36.57,0
				c-14.927-0.843-32.092,2.479-50.004,0c-3.914-0.597-7.864-0.921-11.834-1.063c-1.985-0.072-3.975-0.101-5.968-0.095
				c-2.464,0.035-4.933,0.07-7.403,0.105l-0.124-6.408l4.968-0.152l3.426-0.168c2.283-0.11,4.563-0.221,6.836-0.332
				c4.548-0.2,9.073-0.34,13.551-0.275c17.912,3.146,35.078,0.156,50.004,0c14.926,0.704,27.614-1.428,36.57,0
				c2.336-0.279,4.418-0.244,6.217-0.041c0.225,0.027,0.445,0.057,0.661,0.084c0.242,0.03,0.349,0.062,0.763,0.1
				c0.692,0.068,1.328,0.146,1.902,0.23c1.15,0.168,2.051,0.359,2.722,0.561c-0.364,2-0.748,3.246-1.042,3.981
				c-0.293,0.733-0.496,1.006-0.496,1.006S175.421,133.546,175.057,133.546z"/>
		</g>
	</g>
</g>
<g>
	<rect x="52.578" y="58.432" fill="#42B3C6" width="278.42" height="3.452"/>
	<g>
		<g>
			<path fill="#42B3C6" d="M328.934,61.884c-0.008,0.001-0.046-0.123-0.098-0.327c-0.042-0.175-0.104-0.436-0.186-0.777
				c-0.198,0.03-0.422,0.064-0.668,0.103c-0.105,0.015-0.217,0.031-0.332,0.048c0.012,0.007-0.26,0.015-0.466,0.022
				c-0.214,0.007-0.433,0.014-0.653,0.021c-1.781,0.053-3.849,0.087-6.186,0.087c-4.673,0-10.424-0.142-17.123-0.564
				c-19.725-1.289-47.664-1.713-80.535,0c-32.872,0.448-70.674,0.62-110.12,0c-9.862,0.755-19.826,1.132-29.842,1.273
				c-5.007,0.071-10.028,0.082-15.055,0.053l-7.544-0.074l-3.774-0.056l-0.236-0.004l-0.118-0.002c-0.031,0-0.012-0.001-0.02-0.002
				l-0.022-0.008l-0.052-0.016l-0.132-0.034l-0.068-2.87l0.127,0.038l0.079,0.019l0.043,0.01c0.026,0.003-0.023,0.007,0.183,0.01
				l3.558,0.082l7.111,0.173c4.738,0.116,9.468,0.232,14.187,0.348c9.438,0.216,18.826,0.384,28.124,0.382
				c39.445-2.904,77.248,1.984,110.119,0c32.871-0.78,60.812,0.09,80.535,0c19.723-0.309,31.228,0,31.228,0v2.064
				c0,0-11.505,2.868-31.228,2.469c-19.724-0.581-47.664-0.544-80.535,0c-32.873-0.843-70.673,2.479-110.119,0
				c-9.298-0.644-18.687-0.97-28.124-1.096c-4.719-0.062-9.45-0.076-14.187-0.053c-5.23,0.053-10.468,0.106-15.707,0.159
				l-0.061-6.472l5.315-0.073l3.774-0.079l7.544-0.168c5.027-0.111,10.048-0.221,15.055-0.332c10.016-0.202,19.98-0.34,29.842-0.276
				c39.445,3.146,77.249,0.156,110.12,0c32.871,0.704,60.812-1.427,80.535,0c6.75-0.366,12.538-0.192,17.218,0.195
				c2.339,0.193,4.4,0.44,6.167,0.7c0.221,0.033,0.437,0.066,0.646,0.098l0.314,0.049l0.421,0.049
				c0.538,0.068,1.052,0.134,1.54,0.197c0.932,0.131,1.676,0.26,2.268,0.381c-0.224,1.645-0.424,2.684-0.568,3.333
				c-0.144,0.646-0.23,0.918-0.23,0.918S329.298,61.884,328.934,61.884z"/>
		</g>
	</g>
</g>
<g>
	<rect x="52.578" y="112.178" fill="#42B3C6" width="139.21" height="3.453"/>
	<g>
		<g>
			<path fill="#42B3C6" d="M189.724,115.631c-0.023-0.001-0.282-0.51-0.44-0.947c-0.227,0.047-0.437,0.086-0.643,0.106l-0.156,0.012
				c-0.113,0.003-0.229,0.003-0.349,0.005c-0.474-0.006-0.97-0.012-1.488-0.018c-2.07-0.049-4.486-0.207-7.212-0.547
				c-9.982-1.289-24.124-1.713-40.761,0c-16.637,0.447-35.77,0.619-55.734,0c-4.991,0.755-10.035,1.133-15.104,1.273
				c-2.534,0.069-5.076,0.082-7.62,0.053l-3.818-0.073l-0.417-0.013l-0.016-0.015l-0.045-0.028
				c-0.036-0.021-0.084-0.043-0.147-0.066l-0.141-2.796c0.067,0.05,0.181,0.103,0.349,0.155l3.369,0.166
				c2.255,0.107,4.506,0.216,6.751,0.322c4.491,0.198,8.959,0.346,13.386,0.346c19.964-2.904,39.097,1.983,55.734,0
				c16.637-0.78,30.778,0.09,40.761,0c9.982-0.31,15.805,0,15.805,0v2.063c0,0-5.823,2.867-15.805,2.47
				c-9.982-0.58-24.124-0.545-40.761,0c-16.638-0.845-35.77,2.479-55.734,0c-4.427-0.605-8.895-0.931-13.386-1.072
				c-2.245-0.069-4.497-0.094-6.751-0.086c-2.73,0.039-5.463,0.078-8.2,0.117l-0.113-6.422l5.361-0.152l3.818-0.168
				c2.544-0.11,5.085-0.221,7.62-0.332c5.069-0.2,10.113-0.34,15.104-0.275c19.964,3.146,39.097,0.156,55.734,0
				c16.637,0.704,30.778-1.428,40.761,0c2.742-0.294,5.169-0.24,7.242-0.007c0.519,0.058,1.014,0.127,1.487,0.205
				c0.705,0.09,1.378,0.175,2.02,0.257c1.298,0.186,2.292,0.393,3.013,0.604c-0.346,1.948-0.699,3.156-0.965,3.875
				c-0.266,0.717-0.446,0.988-0.446,0.988S190.088,115.631,189.724,115.631z"/>
		</g>
	</g>
</g>
<g>
	<rect x="52.578" y="148.009" fill="#42B3C6" width="21.422" height="3.452"/>
	<g>
		<g>
			<path fill="#42B3C6" d="M71.936,151.461c-0.026-0.002-0.337-0.105-0.486-0.189c-0.149-0.123-0.136-0.106,0.486-0.918
				c0.156-0.209,0.3-0.44,0.428-0.707c0.051-0.467-0.579-0.735-1.379-0.701c-0.324,0.019-0.975,0.111-1.55,0.296
				c-0.592,0.184-1.208,0.457-1.846,0.833c-2.9,0.447-6.236,0.619-9.717,0c-0.435,0.378-0.873,0.66-1.312,0.867
				c-0.11,0.052-0.22,0.099-0.33,0.141l-0.165,0.061l-0.082,0.027l-0.005,0.025c-0.013,0.066-0.013,0.117-0.009,0.152
				c0.021,0.142,0.056,0.045-0.196-0.144c-0.246-1.274-0.651-1.959-0.903-2.035c0.064,0.138,0.255,0.229,0.498,0.228
				c0.337-0.362,0.483-0.604,0.57-0.752c0.042-0.037-0.009-0.067,0.102-0.095c0.107-0.024,0.214-0.046,0.321-0.062
				c0.213-0.031,0.426-0.043,0.638-0.038c0.847,0.019,1.681,0.296,2.497,0.602c1.632,0.61,3.191,1.337,4.642,0.345
				c2.9-0.779,5.366,0.09,7.106,0c1.741-0.309,2.756,0,2.756,0v2.064c0,0-1.015,2.867-2.756,2.469c-1.74-0.58-4.206-0.544-7.106,0
				c-1.451-0.422-3.01,0.198-4.642,0.613c-0.816,0.208-1.65,0.364-2.497,0.312c-0.212-0.013-0.425-0.037-0.638-0.078
				c-0.107-0.021-0.214-0.045-0.321-0.072c-0.104-0.029-0.388-0.062-0.568-0.1c-0.815-0.146-1.577-0.366-2.186-0.676
				c-0.83-0.479-1.501-0.781-2.22-0.957c0.326-2.429,0.214-4.033-0.029-6.505c1.096-0.187,2.304-0.45,3.721-0.651
				c0.608-0.08,1.208-0.159,1.802-0.237c0.439-0.052,0.876-0.071,1.312-0.039c3.481,3.146,6.817,0.155,9.717,0
				c0.633,0.153,1.246,0.172,1.835,0.122c0.294-0.023,0.583-0.066,0.865-0.118c0.195-0.051,0.75-0.11,1.231-0.171
				c1.917-0.241,4.042-0.491,5.333-0.217c-0.08,0.523-0.204,1.056-0.384,1.578c0.268,0.537,0.247,1.3,0.065,1.968
				c-0.181,0.677-0.523,1.267-0.899,1.69c-0.751,0.858-1.636,1.067-1.636,1.067S72.3,151.461,71.936,151.461z"/>
		</g>
	</g>
</g>
<g enable-background="new    ">
	<path fill="#ED6756" d="M29.943,24.033c0.647-0.21,1.251-0.456,1.812-0.738s1.03-0.561,1.408-0.834
		c0.378-0.273,0.633-0.526,0.766-0.759c0.132-0.232,0.096-0.408-0.109-0.526s-0.608-0.157-1.21-0.116s-1.454,0.198-2.557,0.472
		c-0.328-0.009-0.622-0.073-0.882-0.191s-0.481-0.265-0.663-0.438c-0.183-0.173-0.321-0.362-0.417-0.567s-0.144-0.403-0.144-0.595
		c0-0.301,0.103-0.6,0.308-0.896s0.48-0.576,0.827-0.841c0.346-0.265,0.747-0.504,1.203-0.718c0.456-0.214,0.934-0.388,1.436-0.52
		c0.501-0.132,1.014-0.219,1.538-0.26c0.524-0.041,1.027-0.016,1.511,0.075c0.273,0,0.433,0.121,0.479,0.362
		c0.045,0.241,0.068,0.631,0.068,1.169c-0.374-0.173-0.777-0.296-1.21-0.369c-0.433-0.073-0.868-0.101-1.306-0.082
		s-0.861,0.08-1.271,0.185s-0.772,0.251-1.087,0.438s-0.572,0.417-0.772,0.69c-0.201,0.273-0.306,0.583-0.314,0.93
		c0,0.191,0.075,0.316,0.226,0.376s0.328,0.087,0.533,0.082s0.419-0.027,0.643-0.068c0.223-0.041,0.403-0.062,0.54-0.062
		c1.23-0.265,2.188-0.374,2.871-0.328s1.144,0.191,1.381,0.438c0.237,0.246,0.273,0.562,0.109,0.95s-0.481,0.795-0.95,1.224
		c-0.47,0.429-1.064,0.846-1.784,1.251c-0.72,0.405-1.518,0.75-2.393,1.032c-0.046,0-0.096-0.034-0.15-0.103
		s-0.112-0.148-0.171-0.239c-0.06-0.091-0.112-0.178-0.157-0.26C30.007,24.115,29.971,24.061,29.943,24.033z"/>
	<path fill="#ED6756" d="M36.738,22.064c-0.082-0.738-0.012-1.458,0.212-2.16c0.223-0.702,0.561-1.321,1.012-1.859
		s0.996-0.964,1.634-1.278c0.638-0.314,1.335-0.463,2.092-0.444c0.127,0,0.298,0.019,0.513,0.055
		c0.214,0.036,0.442,0.094,0.684,0.171c0.241,0.077,0.479,0.176,0.711,0.294s0.438,0.26,0.615,0.424s0.312,0.349,0.403,0.554
		c0.091,0.205,0.114,0.436,0.068,0.69c-0.374,0.265-0.805,0.446-1.292,0.547c-0.488,0.101-0.984,0.171-1.49,0.212
		s-1,0.077-1.483,0.109c-0.483,0.032-0.905,0.116-1.265,0.253c-0.36,0.137-0.638,0.354-0.834,0.649
		c-0.196,0.296-0.258,0.723-0.185,1.278c0.137,0.501,0.362,0.87,0.677,1.107s0.679,0.381,1.094,0.431
		c0.415,0.05,0.856,0.027,1.326-0.068c0.469-0.096,0.93-0.221,1.381-0.376s0.873-0.319,1.265-0.492
		c0.392-0.173,0.715-0.314,0.971-0.424c0.118,0,0.219,0.043,0.301,0.13s0.123,0.189,0.123,0.308
		c-0.228,0.392-0.574,0.743-1.039,1.053s-0.989,0.561-1.572,0.752c-0.583,0.191-1.192,0.31-1.825,0.355
		c-0.634,0.046-1.229,0-1.784-0.137c-0.556-0.137-1.044-0.378-1.463-0.725C37.167,23.126,36.884,22.657,36.738,22.064z
		 M41.564,17.348c-0.164,0-0.365,0.019-0.602,0.055c-0.237,0.036-0.465,0.101-0.684,0.191s-0.408,0.21-0.567,0.355
		c-0.16,0.146-0.239,0.333-0.239,0.561l3.391-0.561c-0.146-0.219-0.335-0.374-0.567-0.465S41.819,17.348,41.564,17.348z"/>
	<path fill="#ED6756" d="M46.131,18.824l-0.027-1.176h2.557v-4.416c0.036-0.109,0.103-0.21,0.198-0.301s0.198-0.159,0.308-0.205
		s0.223-0.053,0.342-0.021c0.118,0.032,0.219,0.116,0.301,0.253c0.091,0.374,0.155,0.75,0.191,1.128
		c0.036,0.378,0.059,0.757,0.068,1.135c0.009,0.378,0.016,0.757,0.021,1.135c0.004,0.378,0.021,0.75,0.048,1.114
		c0.173-0.027,0.374-0.043,0.602-0.048c0.228-0.005,0.458-0.009,0.69-0.014s0.46-0.009,0.684-0.014
		c0.223-0.005,0.426-0.016,0.608-0.034l-0.055,1.23l-2.488-0.068c-0.009,0.565-0.009,1.087,0,1.565
		c0.009,0.479,0.021,0.945,0.034,1.401s0.025,0.921,0.034,1.395c0.009,0.474,0.014,0.989,0.014,1.545
		c-0.374,0.164-0.659,0.18-0.854,0.048c-0.196-0.132-0.335-0.354-0.417-0.663s-0.123-0.688-0.123-1.135s0.007-0.904,0.021-1.374
		s0.021-0.923,0.021-1.36s-0.041-0.812-0.123-1.121H46.131z"/>
	<path fill="#ED6756" d="M53.801,21.066c0-0.747,0.164-1.388,0.492-1.921s0.743-0.978,1.244-1.333
		c0.501-0.355,1.048-0.627,1.641-0.813c0.592-0.187,1.157-0.308,1.695-0.362c0.52-0.027,1.007,0.039,1.463,0.198
		c0.456,0.159,0.848,0.385,1.176,0.677s0.581,0.638,0.759,1.039s0.244,0.825,0.198,1.271c0,0.747-0.148,1.401-0.444,1.962
		c-0.296,0.561-0.69,1.03-1.183,1.408s-1.064,0.661-1.716,0.848c-0.652,0.187-1.333,0.28-2.044,0.28
		c-1.076,0-1.892-0.251-2.447-0.752C54.079,23.067,53.801,22.233,53.801,21.066z M54.977,21.477c0,0.383,0.048,0.688,0.144,0.916
		s0.237,0.398,0.424,0.513c0.187,0.114,0.415,0.189,0.684,0.226c0.269,0.036,0.581,0.055,0.937,0.055
		c0.547,0,1.075-0.053,1.586-0.157c0.51-0.104,0.961-0.282,1.354-0.533c0.392-0.251,0.706-0.583,0.943-0.998
		c0.237-0.415,0.355-0.932,0.355-1.552c0-0.319-0.046-0.622-0.137-0.909c-0.091-0.287-0.228-0.538-0.41-0.752
		c-0.183-0.214-0.406-0.385-0.67-0.513c-0.265-0.128-0.565-0.191-0.902-0.191c-0.447,0.073-0.894,0.157-1.34,0.253
		c-0.447,0.096-0.866,0.269-1.258,0.52c-0.392,0.251-0.738,0.62-1.039,1.107S55.122,20.62,54.977,21.477z"/>
	<path fill="#ED6756" d="M63.221,16.486c0-0.173,0.062-0.287,0.185-0.342s0.257-0.082,0.403-0.082c0.237,0,0.426,0.098,0.567,0.294
		c0.141,0.196,0.25,0.424,0.328,0.684c0.077,0.26,0.132,0.515,0.164,0.766c0.032,0.251,0.057,0.431,0.075,0.54
		c0.337-0.31,0.715-0.597,1.135-0.861c0.419-0.265,0.886-0.49,1.401-0.677c0.515-0.187,1.089-0.323,1.723-0.41
		c0.633-0.087,1.342-0.107,2.126-0.062c0.246-0.055,0.431-0.002,0.554,0.157s0.193,0.349,0.212,0.567
		c0.018,0.219-0.016,0.433-0.103,0.643c-0.087,0.21-0.217,0.333-0.39,0.369c-0.319-0.237-0.704-0.39-1.155-0.458
		s-0.921-0.066-1.408,0.007c-0.488,0.073-0.969,0.207-1.442,0.403c-0.474,0.196-0.896,0.444-1.265,0.745s-0.661,0.647-0.875,1.039
		c-0.214,0.392-0.303,0.815-0.267,1.271c0,0.282,0.018,0.559,0.055,0.827c0.036,0.269,0.075,0.538,0.116,0.807
		s0.08,0.538,0.116,0.807c0.036,0.269,0.055,0.54,0.055,0.813c-0.246,0.019-0.444,0.05-0.595,0.096s-0.276,0.066-0.376,0.062
		c-0.101-0.005-0.187-0.05-0.26-0.137c-0.073-0.087-0.155-0.262-0.246-0.526c-0.009-0.063-0.032-0.255-0.068-0.574
		c-0.037-0.319-0.08-0.706-0.13-1.162c-0.05-0.456-0.107-0.955-0.171-1.497c-0.064-0.542-0.125-1.075-0.185-1.6
		c-0.06-0.524-0.114-1.007-0.164-1.449C63.287,17.104,63.248,16.751,63.221,16.486z"/>
	<path fill="#ED6756" d="M72.777,22.064c-0.082-0.738-0.012-1.458,0.212-2.16c0.223-0.702,0.561-1.321,1.012-1.859
		s0.996-0.964,1.634-1.278c0.638-0.314,1.335-0.463,2.092-0.444c0.127,0,0.298,0.019,0.513,0.055
		c0.214,0.036,0.442,0.094,0.684,0.171c0.241,0.077,0.479,0.176,0.711,0.294s0.438,0.26,0.615,0.424s0.312,0.349,0.403,0.554
		c0.091,0.205,0.114,0.436,0.068,0.69c-0.374,0.265-0.805,0.446-1.292,0.547c-0.488,0.101-0.984,0.171-1.49,0.212
		s-1,0.077-1.483,0.109c-0.483,0.032-0.905,0.116-1.265,0.253c-0.36,0.137-0.638,0.354-0.834,0.649
		c-0.196,0.296-0.258,0.723-0.185,1.278c0.137,0.501,0.362,0.87,0.677,1.107s0.679,0.381,1.094,0.431
		c0.415,0.05,0.856,0.027,1.326-0.068c0.469-0.096,0.93-0.221,1.381-0.376s0.873-0.319,1.265-0.492
		c0.392-0.173,0.715-0.314,0.971-0.424c0.118,0,0.219,0.043,0.301,0.13s0.123,0.189,0.123,0.308
		c-0.228,0.392-0.574,0.743-1.039,1.053s-0.989,0.561-1.572,0.752c-0.583,0.191-1.192,0.31-1.825,0.355
		c-0.634,0.046-1.229,0-1.784-0.137c-0.556-0.137-1.044-0.378-1.463-0.725C73.206,23.126,72.923,22.657,72.777,22.064z
		 M77.604,17.348c-0.164,0-0.365,0.019-0.602,0.055c-0.237,0.036-0.465,0.101-0.684,0.191s-0.408,0.21-0.567,0.355
		c-0.16,0.146-0.239,0.333-0.239,0.561l3.391-0.561c-0.146-0.219-0.335-0.374-0.567-0.465S77.858,17.348,77.604,17.348z"/>
	<path fill="#ED6756" d="M84.234,24.033c0.647-0.21,1.251-0.456,1.812-0.738s1.03-0.561,1.408-0.834
		c0.378-0.273,0.633-0.526,0.766-0.759c0.132-0.232,0.096-0.408-0.109-0.526s-0.608-0.157-1.21-0.116s-1.454,0.198-2.557,0.472
		c-0.328-0.009-0.622-0.073-0.882-0.191s-0.481-0.265-0.663-0.438c-0.183-0.173-0.321-0.362-0.417-0.567s-0.144-0.403-0.144-0.595
		c0-0.301,0.103-0.6,0.308-0.896s0.48-0.576,0.827-0.841c0.346-0.265,0.747-0.504,1.203-0.718c0.456-0.214,0.934-0.388,1.436-0.52
		c0.501-0.132,1.014-0.219,1.538-0.26c0.524-0.041,1.027-0.016,1.511,0.075c0.273,0,0.433,0.121,0.479,0.362
		c0.045,0.241,0.068,0.631,0.068,1.169c-0.374-0.173-0.777-0.296-1.21-0.369c-0.433-0.073-0.868-0.101-1.306-0.082
		s-0.861,0.08-1.271,0.185s-0.772,0.251-1.087,0.438s-0.572,0.417-0.772,0.69c-0.201,0.273-0.306,0.583-0.314,0.93
		c0,0.191,0.075,0.316,0.226,0.376s0.328,0.087,0.533,0.082s0.419-0.027,0.643-0.068c0.223-0.041,0.403-0.062,0.54-0.062
		c1.23-0.265,2.188-0.374,2.871-0.328s1.144,0.191,1.381,0.438c0.237,0.246,0.273,0.562,0.109,0.95s-0.481,0.795-0.95,1.224
		c-0.47,0.429-1.064,0.846-1.784,1.251c-0.72,0.405-1.518,0.75-2.393,1.032c-0.046,0-0.096-0.034-0.15-0.103
		s-0.112-0.148-0.171-0.239c-0.06-0.091-0.112-0.178-0.157-0.26C84.298,24.115,84.262,24.061,84.234,24.033z"/>
</g>
<g enable-background="new    ">
	<path fill="#ED6756" d="M311.713,185.61c-0.019-0.246-0.041-0.526-0.068-0.841s-0.062-0.641-0.103-0.978s-0.096-0.67-0.164-0.998
		s-0.148-0.624-0.239-0.889c-0.237,0-0.472,0.029-0.704,0.089s-0.465,0.123-0.697,0.191s-0.47,0.135-0.711,0.198
		s-0.49,0.101-0.745,0.109c-0.137,0-0.265-0.032-0.383-0.096c-0.119-0.063-0.178-0.183-0.178-0.355c0-0.137,0.084-0.239,0.253-0.308
		s0.38-0.121,0.636-0.157c0.255-0.036,0.528-0.063,0.82-0.082c0.291-0.019,0.564-0.041,0.82-0.068
		c0.255-0.027,0.467-0.068,0.636-0.123s0.253-0.137,0.253-0.246v-2.83c0-0.082,0.022-0.144,0.068-0.185
		c0.045-0.041,0.1-0.073,0.164-0.096c0.063-0.022,0.13-0.036,0.198-0.041s0.12-0.007,0.157-0.007c0.2,0,0.33,0.034,0.39,0.103
		s0.111,0.234,0.157,0.499c0.018,0.082,0.043,0.232,0.075,0.451s0.063,0.449,0.096,0.69s0.06,0.47,0.082,0.684
		s0.038,0.362,0.048,0.444h3.746c0,0.173-0.075,0.312-0.226,0.417s-0.347,0.185-0.588,0.239s-0.506,0.089-0.793,0.103
		s-0.569,0.022-0.848,0.027s-0.533,0.012-0.766,0.021s-0.408,0.027-0.526,0.055c-0.046,0.273-0.051,0.579-0.014,0.916
		c0.036,0.337,0.082,0.682,0.137,1.032s0.103,0.702,0.144,1.053s0.043,0.677,0.007,0.978c-0.055,0.046-0.142,0.094-0.26,0.144
		c-0.119,0.05-0.239,0.087-0.362,0.109s-0.232,0.019-0.328-0.014S311.74,185.738,311.713,185.61z"/>
	<path fill="#ED6756" d="M330.895,183.628c-0.265,0.41-0.57,0.781-0.916,1.114c-0.347,0.333-0.727,0.615-1.142,0.848
		s-0.866,0.403-1.354,0.513s-1.001,0.142-1.538,0.096c-0.191,0-0.396-0.022-0.615-0.068s-0.422-0.118-0.608-0.219
		s-0.34-0.232-0.458-0.396c-0.119-0.164-0.178-0.369-0.178-0.615c-0.101-0.511-0.08-1.027,0.062-1.552s0.362-1.03,0.663-1.518
		s0.67-0.938,1.107-1.354s0.904-0.766,1.401-1.053s1.007-0.494,1.531-0.622s1.032-0.146,1.524-0.055
		c0.373,0,0.665,0.123,0.875,0.369c0.209,0.246,0.367,0.574,0.472,0.984s0.171,0.882,0.198,1.415s0.05,1.082,0.068,1.647
		c0.018,0.565,0.043,1.123,0.075,1.675s0.103,1.055,0.212,1.511h-1.012c-0.046-0.31-0.08-0.583-0.103-0.82s-0.044-0.458-0.062-0.663
		c-0.019-0.205-0.043-0.403-0.075-0.595S330.949,183.865,330.895,183.628z M329.855,179.978c-0.355-0.027-0.723,0.021-1.101,0.144
		s-0.743,0.296-1.094,0.52s-0.679,0.487-0.984,0.793s-0.572,0.622-0.8,0.95c-0.229,0.328-0.403,0.654-0.526,0.978
		s-0.173,0.622-0.15,0.896s0.125,0.506,0.308,0.697c0.182,0.191,0.465,0.319,0.848,0.383c0.547-0.009,1.073-0.148,1.579-0.417
		s0.957-0.602,1.354-0.998s0.727-0.825,0.991-1.285c0.264-0.46,0.436-0.887,0.513-1.278s0.043-0.72-0.103-0.984
		C330.543,180.109,330.266,179.978,329.855,179.978z"/>
	<path fill="#ED6756" d="M332.986,183.765c-0.037-0.419,0.041-0.836,0.232-1.251s0.458-0.812,0.8-1.189s0.743-0.729,1.203-1.053
		s0.945-0.6,1.456-0.827c0.51-0.228,1.027-0.398,1.552-0.513s1.019-0.148,1.483-0.103c0.173,0,0.346,0.009,0.52,0.027
		c0.173,0.019,0.326,0.063,0.458,0.137s0.239,0.178,0.321,0.314s0.123,0.323,0.123,0.561c0,0.118-0.029,0.224-0.089,0.314
		s-0.132,0.178-0.219,0.26s-0.181,0.155-0.28,0.219c-0.101,0.063-0.191,0.128-0.273,0.191c-0.027-0.128-0.055-0.248-0.082-0.362
		s-0.07-0.214-0.13-0.301s-0.137-0.155-0.232-0.205s-0.222-0.075-0.376-0.075c-0.538,0.109-1.119,0.275-1.743,0.499
		s-1.198,0.49-1.723,0.8s-0.946,0.658-1.265,1.046c-0.319,0.388-0.442,0.805-0.369,1.251c0,0.401,0.077,0.725,0.232,0.971
		c0.154,0.246,0.357,0.438,0.608,0.574s0.538,0.228,0.861,0.273s0.653,0.068,0.991,0.068c0.52,0,1.023-0.077,1.511-0.232
		s0.964-0.328,1.429-0.52s0.92-0.364,1.367-0.52c0.446-0.155,0.884-0.232,1.312-0.232c0.072,0,0.148,0.005,0.226,0.014
		s0.146,0.034,0.205,0.075s0.101,0.101,0.123,0.178s0.021,0.185-0.007,0.321c-0.046,0.164-0.207,0.328-0.485,0.492
		s-0.62,0.319-1.025,0.465s-0.848,0.282-1.326,0.41s-0.943,0.237-1.395,0.328s-0.856,0.162-1.217,0.212s-0.627,0.075-0.8,0.075
		c-0.401,0-0.834-0.046-1.299-0.137s-0.896-0.241-1.292-0.451s-0.728-0.485-0.991-0.827
		C333.118,184.701,332.986,184.275,332.986,183.765z"/>
	<path fill="#ED6756" d="M344.061,184.216c-0.082-0.738-0.012-1.458,0.212-2.16s0.561-1.321,1.012-1.859s0.995-0.964,1.634-1.278
		c0.638-0.314,1.335-0.463,2.092-0.444c0.127,0,0.299,0.019,0.513,0.055s0.442,0.094,0.684,0.171s0.479,0.176,0.711,0.294
		s0.438,0.26,0.615,0.424s0.312,0.349,0.403,0.554c0.091,0.205,0.113,0.436,0.068,0.69c-0.374,0.265-0.805,0.446-1.292,0.547
		s-0.984,0.171-1.49,0.212s-1.001,0.077-1.483,0.109c-0.483,0.032-0.904,0.116-1.265,0.253s-0.638,0.354-0.834,0.649
		s-0.258,0.723-0.185,1.278c0.137,0.501,0.362,0.87,0.677,1.107s0.679,0.381,1.094,0.431s0.856,0.027,1.326-0.068
		s0.93-0.221,1.381-0.376s0.872-0.319,1.265-0.492c0.392-0.173,0.715-0.314,0.971-0.424c0.118,0,0.219,0.043,0.301,0.13
		s0.123,0.189,0.123,0.308c-0.229,0.392-0.574,0.743-1.039,1.053s-0.989,0.561-1.572,0.752c-0.584,0.191-1.191,0.31-1.825,0.355
		s-1.229,0-1.784-0.137c-0.557-0.137-1.044-0.378-1.463-0.725C344.488,185.277,344.206,184.809,344.061,184.216z M348.887,179.499
		c-0.164,0-0.365,0.019-0.602,0.055c-0.237,0.036-0.465,0.101-0.684,0.191s-0.408,0.21-0.567,0.355s-0.239,0.333-0.239,0.561
		l3.391-0.561c-0.146-0.219-0.335-0.374-0.567-0.465S349.142,179.499,348.887,179.499z"/>
	<path fill="#ED6756" d="M355.518,186.185c0.646-0.21,1.251-0.456,1.812-0.738s1.03-0.561,1.408-0.834s0.634-0.526,0.766-0.759
		s0.096-0.408-0.109-0.526s-0.608-0.157-1.21-0.116s-1.454,0.198-2.557,0.472c-0.328-0.009-0.622-0.073-0.882-0.191
		s-0.481-0.265-0.663-0.438c-0.183-0.173-0.321-0.362-0.417-0.567s-0.144-0.403-0.144-0.595c0-0.301,0.103-0.6,0.308-0.896
		s0.48-0.576,0.827-0.841c0.346-0.265,0.747-0.504,1.203-0.718c0.455-0.214,0.934-0.388,1.436-0.52
		c0.501-0.132,1.014-0.219,1.538-0.26s1.027-0.016,1.511,0.075c0.273,0,0.433,0.121,0.479,0.362
		c0.045,0.241,0.068,0.631,0.068,1.169c-0.374-0.173-0.777-0.296-1.21-0.369s-0.868-0.101-1.306-0.082s-0.861,0.08-1.271,0.185
		s-0.772,0.251-1.087,0.438s-0.572,0.417-0.772,0.69c-0.201,0.273-0.306,0.583-0.314,0.93c0,0.191,0.075,0.316,0.226,0.376
		s0.328,0.087,0.533,0.082s0.419-0.027,0.643-0.068s0.403-0.062,0.54-0.062c1.23-0.265,2.188-0.374,2.871-0.328
		s1.144,0.191,1.381,0.438c0.236,0.246,0.273,0.562,0.109,0.95s-0.48,0.795-0.95,1.224s-1.064,0.846-1.784,1.251
		c-0.721,0.405-1.518,0.75-2.393,1.032c-0.046,0-0.096-0.034-0.15-0.103s-0.111-0.148-0.171-0.239s-0.112-0.178-0.157-0.26
		C355.581,186.267,355.545,186.212,355.518,186.185z"/>
	<path fill="#ED6756" d="M364.309,186.185c0.646-0.21,1.251-0.456,1.812-0.738s1.03-0.561,1.408-0.834s0.634-0.526,0.766-0.759
		s0.096-0.408-0.109-0.526s-0.608-0.157-1.21-0.116s-1.454,0.198-2.557,0.472c-0.328-0.009-0.622-0.073-0.882-0.191
		s-0.481-0.265-0.663-0.438c-0.183-0.173-0.321-0.362-0.417-0.567s-0.144-0.403-0.144-0.595c0-0.301,0.103-0.6,0.308-0.896
		s0.48-0.576,0.827-0.841c0.346-0.265,0.747-0.504,1.203-0.718c0.455-0.214,0.934-0.388,1.436-0.52
		c0.501-0.132,1.014-0.219,1.538-0.26s1.027-0.016,1.511,0.075c0.273,0,0.433,0.121,0.479,0.362
		c0.045,0.241,0.068,0.631,0.068,1.169c-0.374-0.173-0.777-0.296-1.21-0.369s-0.868-0.101-1.306-0.082s-0.861,0.08-1.271,0.185
		s-0.772,0.251-1.087,0.438s-0.572,0.417-0.772,0.69c-0.201,0.273-0.306,0.583-0.314,0.93c0,0.191,0.075,0.316,0.226,0.376
		s0.328,0.087,0.533,0.082s0.419-0.027,0.643-0.068s0.403-0.062,0.54-0.062c1.23-0.265,2.188-0.374,2.871-0.328
		s1.144,0.191,1.381,0.438c0.236,0.246,0.273,0.562,0.109,0.95s-0.48,0.795-0.95,1.224s-1.064,0.846-1.784,1.251
		c-0.721,0.405-1.518,0.75-2.393,1.032c-0.046,0-0.096-0.034-0.15-0.103s-0.111-0.148-0.171-0.239s-0.112-0.178-0.157-0.26
		C364.372,186.267,364.336,186.212,364.309,186.185z"/>
	<path fill="#ED6756" d="M371.623,183.218c0-0.747,0.164-1.388,0.492-1.921s0.742-0.978,1.244-1.333
		c0.501-0.355,1.048-0.627,1.641-0.813c0.592-0.187,1.157-0.308,1.695-0.362c0.52-0.027,1.007,0.039,1.463,0.198
		c0.455,0.159,0.848,0.385,1.176,0.677s0.581,0.638,0.759,1.039s0.243,0.825,0.198,1.271c0,0.747-0.148,1.401-0.444,1.962
		s-0.69,1.03-1.183,1.408s-1.064,0.661-1.716,0.848s-1.333,0.28-2.044,0.28c-1.076,0-1.892-0.251-2.447-0.752
		C371.9,185.219,371.623,184.385,371.623,183.218z M372.799,183.628c0,0.383,0.048,0.688,0.144,0.916s0.237,0.398,0.424,0.513
		s0.415,0.189,0.684,0.226s0.581,0.055,0.937,0.055c0.547,0,1.075-0.053,1.586-0.157c0.51-0.104,0.961-0.282,1.354-0.533
		c0.392-0.251,0.706-0.583,0.943-0.998c0.236-0.415,0.355-0.932,0.355-1.552c0-0.319-0.046-0.622-0.137-0.909
		c-0.092-0.287-0.229-0.538-0.41-0.752c-0.183-0.214-0.406-0.385-0.67-0.513c-0.265-0.128-0.565-0.191-0.902-0.191
		c-0.447,0.073-0.894,0.157-1.34,0.253c-0.447,0.096-0.866,0.269-1.258,0.52c-0.393,0.251-0.738,0.62-1.039,1.107
		S372.944,182.771,372.799,183.628z"/>
</g>
<g>
	<g>
		<g>
			<path d="M87.922,148.009c0.013,0,0.088,0.196,0.169,0.581s0.168,0.961,0.202,1.715c0.015,0.748-0.124,1.67-0.343,2.725
				c-0.342,1.029-0.718,2.224-1.525,3.375c-1.525,2.326-3.39,4.894-5.826,7.472c-1.191,1.319-2.603,2.56-4.128,3.86
				c-0.813,0.574-1.589,1.285-2.499,1.84c-0.447,0.292-0.889,0.619-1.359,0.912c-0.481,0.279-0.968,0.562-1.46,0.851
				c-2.104,0.798-4.419,1.414-6.854,1.531c-0.607,0.06-1.221,0.094-1.839,0.057c-0.618-0.021-1.243-0.022-1.869-0.073
				c-1.246-0.164-2.515-0.313-3.756-0.679c-2.484-0.669-4.96-1.702-7.144-3.253c-2.195-1.521-4.152-3.439-5.717-5.65
				c-2.298-1.638-4.053-4.039-5.125-6.726c-1.085-2.688-1.488-5.653-1.324-8.536c0.216-2.89,0.988-5.695,2.127-8.255
				c1.137-2.567,2.625-4.901,4.322-7.006c1.118-2.573,3.083-4.69,5.377-6.173c2.289-1.52,4.948-2.299,7.498-2.678
				c1.277-0.222,2.558-0.226,3.792-0.269c0.62,0.009,1.235,0.06,1.839,0.079c0.604,0.005,1.2,0.068,1.79,0.145
				c2.368,0.183,4.586,0.608,6.882,0.826c2.219,0.504,4.211,1.493,5.998,2.588c1.729,1.186,3.269,2.488,4.469,3.939
				c2.47,2.855,3.853,5.891,4.805,8.407c0.587,1.229,0.839,2.433,1.131,3.454c0.168,1.048,0.329,1.945,0.368,2.68
				C87.965,147.223,87.922,148.009,87.922,148.009h-2.064c0,0-0.756-0.739-1.482-1.938c-0.381-0.6-0.852-1.299-1.176-2.118
				c-0.449-0.796-0.701-1.737-1.035-2.79c-0.467-2.167-1.658-4.714-3.765-7.001c-1.021-1.171-2.338-2.185-3.773-3.122
				c-1.493-0.848-3.119-1.637-4.92-2.062c-1.681-0.76-3.621-1.154-5.6-1.028c-0.494,0.002-0.988,0.028-1.482,0.125
				c-0.493,0.081-0.989,0.139-1.479,0.241c-0.973,0.266-1.947,0.496-2.881,0.892c-1.875,0.733-3.689,1.627-5.415,2.739
				c-1.739,1.094-3.454,2.279-5.319,3.617c-1.933,1.293-3.385,3.261-4.252,5.459c-0.879,2.201-1.177,4.629-1.016,6.988
				c0.214,2.367,0.876,4.637,1.809,6.713c0.932,2.082,2.119,3.981,3.459,5.735c0.761,2.219,2.249,4.131,4.077,5.524
				c1.82,1.428,4.024,2.224,6.181,2.621c1.078,0.229,2.175,0.24,3.232,0.275c0.532-0.013,1.061-0.072,1.578-0.104
				c0.518-0.02,1.028-0.104,1.529-0.202c2.016-0.287,3.849-0.938,5.58-1.53c1.816-0.389,3.407-1.279,4.8-2.241
				c1.338-1.054,2.498-2.188,3.382-3.411c1.838-2.412,2.863-4.724,4.276-6.533c0.176-1.108,0.341-2.056,0.758-2.846
				c0.291-0.813,0.781-1.496,1.203-2.086c0.809-1.175,1.733-1.916,1.733-1.916S87.558,148.009,87.922,148.009z"/>
		</g>
	</g>
</g>
</svg>
