<?xml version="1.0" encoding="utf-8"?>
<!-- Generator: Adobe Illustrator 16.0.0, SVG Export Plug-In . SVG Version: 6.00 Build 0)  -->
<!DOCTYPE svg PUBLIC "-//W3C//DTD SVG 1.1//EN" "http://www.w3.org/Graphics/SVG/1.1/DTD/svg11.dtd">
<svg version="1.1" id="Layer_1" xmlns="http://www.w3.org/2000/svg" xmlns:xlink="http://www.w3.org/1999/xlink" x="0px" y="0px"
	 width="400px" height="200px" viewBox="0 0 400 200" enable-background="new 0 0 400 200" xml:space="preserve">
<g>
	<g>
		<g>
			<path fill-rule="evenodd" clip-rule="evenodd" fill="#ED6756" d="M33.61,37.154c0,0,0.048,0.164,0.098,0.481
				s0.107,0.786,0.145,1.396c0.075,1.22,0.068,3.004-0.243,5.257c-0.645,4.506-0.856,10.889,0,18.399
				c0.224,7.509,0.31,16.146,0,25.158c1.51,9.012-0.003,18.399,0,27.411c1.452,9.012-0.992,17.647,0,25.157
				c0.39,7.51-0.045,13.894,0,18.399c0.154,4.506,0,7.134,0,7.134h-1.032c0,0-1.434-2.628-1.234-7.134
				c0.29-4.506,0.272-10.89,0-18.399c0.422-7.51-1.239-16.146,0-25.157c1.365-9.012-0.128-18.399,0-27.411
				c1.573-9.012,0.078-17.648,0-25.158c0.352-7.51-0.714-13.893,0-18.399c-0.535-4.506,1.234-7.134,1.234-7.134
				S33.428,37.154,33.61,37.154z"/>
		</g>
	</g>
</g>
<g>
	<g>
		<g>
			<path fill-rule="evenodd" clip-rule="evenodd" fill="#ED6756" d="M378.783,164.577c0,0-0.389,0.051-1.138,0.106
				c-0.75,0.056-1.86,0.122-3.304,0.171c-2.888,0.098-7.107,0.124-12.441-0.145c-10.668-0.561-25.774-0.654-43.539,0.343
				c-17.77,0.364-38.206,0.611-59.533,0.47c-21.314,1.678-43.54,0.34-64.865,0.511c-21.313,1.62-41.77-0.663-59.533,0.469
				c-17.768,0.53-32.877,0.215-43.539,0.344c-10.661,0.238-16.882,0.133-16.882,0.133L74,165.946c0,0,6.208-1.482,16.873-1.367
				c10.665,0.206,25.77,0.068,43.539-0.344c17.775,0.282,38.198-1.54,59.534-0.469c21.336,1.197,43.538-0.471,64.864-0.511
				c21.338,1.404,41.764-0.252,59.533-0.47c17.774,0.212,32.871-0.973,43.54-0.343c10.658-0.619,16.892,1.102,16.892,1.102
				S378.781,164.395,378.783,164.577z"/>
		</g>
		<g>
			<path fill="#ED6756" d="M368.58,170.825c-0.226-0.348-0.126-0.812,0.222-1.038l9.631-6.24l-9.728-6.087
				c-0.352-0.221-0.458-0.684-0.238-1.034s0.686-0.455,1.034-0.238l10.725,6.713c0.218,0.136,0.351,0.374,0.353,0.63
				s-0.127,0.496-0.342,0.636l-10.618,6.881c-0.124,0.08-0.264,0.119-0.401,0.12C368.969,171.169,368.726,171.048,368.58,170.825z"
				/>
		</g>
	</g>
</g>
<g>
	<rect x="52.578" y="40.517" fill="#42B3C6" width="293.089" height="3.452"/>
	<g>
		<g>
			<path fill-rule="evenodd" clip-rule="evenodd" fill="#42B3C6" d="M343.603,43.969c-0.008,0.001-0.044-0.123-0.095-0.328
				c-0.04-0.177-0.101-0.44-0.18-0.786c-0.206,0.031-0.439,0.066-0.7,0.105c-0.11,0.015-0.227,0.031-0.349,0.048
				c-0.414,0.014-0.848,0.029-1.299,0.044c-1.876,0.055-4.06,0.091-6.533,0.093c-4.946,0.002-11.054-0.137-18.181-0.564
				c-20.75-1.289-50.144-1.713-84.727,0c-34.581,0.448-74.352,0.62-115.85,0c-10.375,0.755-20.858,1.132-31.395,1.273
				c-5.269,0.071-10.55,0.082-15.839,0.053l-7.937-0.074l-3.971-0.056l-0.496-0.008c-0.121-0.001-0.053-0.002-0.078-0.004
				l-0.012-0.004l-0.054-0.016l-0.137-0.034l-0.065-2.874l0.135,0.038l0.083,0.02l0.045,0.01l0.012,0.002l0.115,0.002l0.235,0.005
				l3.754,0.082l7.503,0.174c4.999,0.116,9.991,0.232,14.97,0.349c9.959,0.217,19.866,0.386,29.677,0.384
				c41.498-2.904,81.268,1.984,115.85,0c34.582-0.78,63.976,0.09,84.726,0c20.749-0.309,32.853,0,32.853,0v2.064
				c0,0-12.104,2.868-32.853,2.469c-20.75-0.581-50.144-0.544-84.726,0c-34.583-0.843-74.352,2.479-115.85,0
				c-9.811-0.646-19.718-0.972-29.677-1.097c-4.979-0.062-9.971-0.075-14.97-0.051c-5.493,0.054-10.993,0.108-16.496,0.162
				l-0.058-6.475l9.482-0.152l7.937-0.168c5.289-0.111,10.571-0.221,15.839-0.332c10.537-0.202,21.02-0.34,31.395-0.276
				c41.498,3.146,81.269,0.156,115.85,0c34.583,0.704,63.977-1.427,84.727,0c7.188-0.371,13.339-0.188,18.293,0.209
				c2.477,0.198,4.653,0.451,6.512,0.714c0.483,0.069,0.947,0.135,1.39,0.199c0.564,0.07,1.102,0.136,1.612,0.199
				c0.973,0.132,1.746,0.262,2.358,0.383c-0.216,1.626-0.407,2.657-0.544,3.302c-0.138,0.642-0.222,0.915-0.222,0.915
				S343.967,43.969,343.603,43.969z"/>
		</g>
	</g>
</g>
<g>
	<rect x="52.578" y="76.348" fill="#42B3C6" width="249.087" height="3.452"/>
	<g>
		<g>
			<path fill-rule="evenodd" clip-rule="evenodd" fill="#42B3C6" d="M299.601,79.8c-0.009,0.001-0.05-0.123-0.106-0.324
				c-0.045-0.17-0.111-0.424-0.199-0.758c-0.18,0.03-0.381,0.062-0.602,0.099c-0.095,0.014-0.193,0.029-0.297,0.045
				c-0.062,0.007-0.069,0.014-0.176,0.021c-0.191,0.006-0.387,0.012-0.586,0.019c-1.59,0.048-3.423,0.079-5.485,0.075
				c-4.124-0.008-9.164-0.152-15.011-0.564c-17.67-1.289-42.703-1.713-72.153,0c-29.45,0.448-63.319,0.62-98.66,0
				c-8.835,0.755-17.763,1.132-26.736,1.273c-4.487,0.071-8.985,0.082-13.489,0.053l-6.759-0.074l-3.359-0.056
				c-0.048-0.021-0.116-0.042-0.209-0.066l-0.077-2.861c0.064,0.024,0.151,0.05,0.262,0.077l2.951,0.082l6.326,0.173
				c4.214,0.115,8.423,0.229,12.62,0.344c8.395,0.214,16.747,0.379,25.019,0.378c35.341-2.904,69.209,1.984,98.66,0
				c29.45-0.78,54.483,0.09,72.153,0c17.671-0.309,27.979,0,27.979,0v2.064c0,0-10.308,2.868-27.979,2.469
				c-17.67-0.581-42.703-0.544-72.153,0c-29.451-0.843-63.319,2.479-98.66,0c-8.271-0.639-16.624-0.965-25.019-1.093
				c-4.197-0.064-8.406-0.078-12.62-0.057c-4.705,0.051-9.416,0.103-14.13,0.154l-0.067-6.466l4.911-0.073l3.393-0.079l6.759-0.168
				c4.504-0.111,9.002-0.221,13.489-0.332c8.973-0.202,17.901-0.34,26.736-0.276c35.341,3.146,69.21,0.156,98.66,0
				c29.45,0.704,54.483-1.427,72.153,0c5.877-0.356,10.939-0.202,15.067,0.162c2.063,0.182,3.895,0.417,5.476,0.667
				c0.198,0.032,0.393,0.063,0.583,0.094c0.271,0.033,0.536,0.064,0.796,0.095c0.486,0.067,0.953,0.131,1.399,0.192
				c0.85,0.127,1.537,0.254,2.089,0.375c-0.244,1.686-0.465,2.747-0.625,3.406c-0.16,0.656-0.26,0.93-0.26,0.93
				S299.965,79.8,299.601,79.8z"/>
		</g>
	</g>
</g>
<g>
	<rect x="52.578" y="94.263" fill="#42B3C6" width="185.087" height="3.452"/>
	<g>
		<g>
			<path fill-rule="evenodd" clip-rule="evenodd" fill="#42B3C6" d="M235.601,97.715c-0.01,0.001-0.064-0.125-0.136-0.318
				s-0.159-0.443-0.236-0.697c-0.307,0.06-0.601,0.114-0.885,0.149l-0.054,0.006c-0.011,0.002-0.027,0.004-0.125,0.006
				c-0.151,0.003-0.305,0.007-0.46,0.01c-0.312,0.005-0.632,0.01-0.962,0.015c-0.66,0-1.355,0-2.088,0
				c-2.927-0.029-6.423-0.182-10.426-0.559c-13.192-1.289-31.881-1.713-53.868,0c-21.987,0.448-47.272,0.62-73.657,0
				c-6.597,0.755-13.261,1.132-19.96,1.273c-3.35,0.071-6.708,0.082-10.07,0.053l-5.046-0.074l-1.262-0.026l-0.315-0.007
				c-0.072-0.001-0.073-0.002-0.069-0.004l-0.006-0.003l-0.028-0.015c-0.041-0.021-0.097-0.042-0.173-0.066l-0.104-2.834
				c0.046,0.025,0.108,0.051,0.188,0.077c0.062,0.013,0.035,0.027,0.184,0.04l1.154,0.042l4.613,0.17
				c3.073,0.112,6.142,0.223,9.202,0.334c6.121,0.208,12.211,0.365,18.243,0.363c26.385-2.904,51.669,1.984,73.657,0
				c21.987-0.78,40.676,0.09,53.868,0c13.192-0.309,20.888,0,20.888,0v2.064c0,0-7.695,2.868-20.888,2.469
				c-13.192-0.581-31.881-0.544-53.868,0c-21.987-0.843-47.272,2.479-73.657,0c-6.032-0.625-12.122-0.95-18.243-1.083
				c-3.061-0.067-6.129-0.086-9.202-0.07c-3.556,0.046-7.118,0.091-10.682,0.137l-0.088-6.445l3.648-0.073l2.942-0.079l5.046-0.168
				c3.362-0.111,6.721-0.221,10.07-0.332c6.699-0.202,13.364-0.34,19.96-0.276c26.384,3.146,51.67,0.156,73.657,0
				c21.987,0.704,40.676-1.427,53.868,0c4.011-0.325,7.513-0.225,10.441,0.073c0.731,0.074,1.428,0.161,2.087,0.257
				c0.329,0.051,0.649,0.101,0.961,0.149c0.155,0.026,0.309,0.053,0.459,0.079c0.146,0.026,0.44,0.054,0.642,0.081
				c1.775,0.219,3.076,0.458,3.985,0.689c-0.298,1.81-0.583,2.939-0.794,3.63c-0.21,0.687-0.347,0.962-0.347,0.962
				S235.965,97.715,235.601,97.715z"/>
		</g>
	</g>
</g>
<g>
	<rect x="52.578" y="130.094" fill="#42B3C6" width="124.543" height="3.452"/>
	<g>
		<g>
			<path fill-rule="evenodd" clip-rule="evenodd" fill="#42B3C6" d="M175.057,133.546c-0.025-0.004-0.312-0.504-0.467-0.921
				c-0.198,0.042-0.38,0.074-0.56,0.089c-0.09,0.008-0.18,0.011-0.274,0.008c-0.37-0.008-0.756-0.016-1.158-0.024
				c-1.797-0.057-3.875-0.216-6.205-0.539c-8.956-1.289-21.644-1.713-36.57,0c-14.926,0.447-32.092,0.619-50.004,0
				c-4.478,0.755-9.002,1.133-13.551,1.273c-2.274,0.07-4.554,0.082-6.836,0.053l-3.426-0.073c-0.072-0.033-0.105-0.075-0.232-0.122
				l-0.159-2.779c0.059,0.049,0.158,0.102,0.306,0.155l0.058,0.021l0.343,0.021l0.749,0.041l1.495,0.082
				c1.994,0.105,3.984,0.211,5.968,0.316c3.97,0.193,7.92,0.337,11.834,0.336c17.912-2.904,35.077,1.984,50.004,0
				c14.926-0.78,27.614,0.09,36.57,0c8.956-0.31,14.18,0,14.18,0v2.063c0,0-5.224,2.868-14.18,2.47
				c-8.956-0.581-21.644-0.544-36.57,0c-14.927-0.843-32.092,2.479-50.004,0c-3.914-0.597-7.864-0.921-11.834-1.064
				c-1.985-0.072-3.975-0.1-5.968-0.094c-2.464,0.035-4.933,0.07-7.403,0.105l-0.124-6.408l4.968-0.152l3.426-0.169
				c2.283-0.11,4.563-0.221,6.836-0.331c4.548-0.201,9.073-0.34,13.551-0.276c17.912,3.146,35.078,0.156,50.004,0
				c14.926,0.704,27.614-1.428,36.57,0c2.336-0.279,4.418-0.244,6.217-0.041c0.225,0.028,0.445,0.057,0.661,0.084
				c0.242,0.03,0.349,0.063,0.763,0.099c0.692,0.069,1.328,0.147,1.902,0.231c1.15,0.168,2.051,0.36,2.722,0.56
				c-0.364,2-0.748,3.247-1.042,3.982c-0.293,0.734-0.496,1.006-0.496,1.006S175.421,133.546,175.057,133.546z"/>
		</g>
	</g>
</g>
<g>
	<rect x="52.578" y="58.432" fill="#42B3C6" width="278.42" height="3.452"/>
	<g>
		<g>
			<path fill-rule="evenodd" clip-rule="evenodd" fill="#42B3C6" d="M328.934,61.884c-0.008,0.001-0.046-0.123-0.098-0.327
				c-0.042-0.175-0.104-0.436-0.186-0.777c-0.198,0.03-0.421,0.065-0.668,0.103c-0.105,0.015-0.216,0.031-0.332,0.048
				c0.012,0.007-0.259,0.015-0.465,0.022c-0.214,0.007-0.433,0.014-0.654,0.021c-1.781,0.053-3.848,0.087-6.185,0.087
				c-4.673,0-10.424-0.142-17.124-0.564c-19.724-1.289-47.663-1.713-80.535,0c-32.871,0.448-70.674,0.62-110.119,0
				c-9.862,0.755-19.826,1.132-29.842,1.273c-5.007,0.071-10.028,0.082-15.055,0.053l-7.544-0.074l-3.774-0.056l-0.236-0.004
				l-0.118-0.002c-0.031,0-0.012-0.001-0.02-0.002l-0.022-0.008l-0.052-0.016l-0.132-0.034l-0.068-2.87l0.127,0.038l0.079,0.019
				l0.043,0.01c0.026,0.003-0.023,0.007,0.183,0.01l3.558,0.082l7.111,0.173c4.738,0.116,9.468,0.232,14.187,0.348
				c9.438,0.216,18.826,0.384,28.124,0.382c39.445-2.904,77.248,1.984,110.12,0c32.871-0.78,60.812,0.09,80.534,0
				c19.723-0.309,31.228,0,31.228,0v2.064c0,0-11.505,2.868-31.228,2.469c-19.723-0.581-47.663-0.544-80.534,0
				c-32.873-0.843-70.674,2.479-110.12,0c-9.298-0.644-18.687-0.97-28.124-1.096c-4.719-0.062-9.45-0.076-14.187-0.053
				c-5.23,0.053-10.468,0.106-15.707,0.159l-0.061-6.472l5.315-0.073l3.774-0.079l7.544-0.168
				c5.027-0.111,10.048-0.221,15.055-0.332c10.016-0.202,19.98-0.34,29.842-0.276c39.445,3.146,77.249,0.156,110.119,0
				c32.872,0.704,60.812-1.427,80.535,0c6.751-0.366,12.539-0.192,17.218,0.195c2.339,0.193,4.401,0.44,6.167,0.7
				c0.221,0.033,0.437,0.066,0.647,0.098l0.314,0.049l0.421,0.049c0.538,0.068,1.052,0.134,1.54,0.197
				c0.932,0.131,1.676,0.26,2.268,0.381c-0.224,1.645-0.424,2.684-0.568,3.333c-0.144,0.646-0.231,0.918-0.231,0.918
				S329.298,61.884,328.934,61.884z"/>
		</g>
	</g>
</g>
<g>
	<rect x="52.578" y="112.178" fill="#42B3C6" width="139.21" height="3.453"/>
	<g>
		<g>
			<path fill-rule="evenodd" clip-rule="evenodd" fill="#42B3C6" d="M189.724,115.631c-0.023-0.001-0.282-0.51-0.44-0.948
				c-0.227,0.048-0.437,0.087-0.643,0.107l-0.156,0.012c-0.113,0.002-0.229,0.003-0.349,0.005c-0.474-0.006-0.97-0.012-1.488-0.018
				c-2.07-0.049-4.486-0.207-7.212-0.547c-9.982-1.289-24.124-1.713-40.761,0c-16.637,0.447-35.77,0.619-55.734,0
				c-4.991,0.755-10.035,1.133-15.104,1.273c-2.534,0.07-5.076,0.082-7.62,0.053l-3.818-0.073l-0.417-0.013l-0.016-0.014
				l-0.045-0.029c-0.036-0.021-0.084-0.043-0.147-0.066l-0.141-2.796c0.067,0.05,0.181,0.103,0.349,0.156l3.369,0.166
				c2.255,0.107,4.506,0.215,6.751,0.322c4.491,0.198,8.959,0.346,13.386,0.345c19.964-2.904,39.097,1.984,55.734,0
				c16.637-0.78,30.778,0.09,40.761,0c9.982-0.309,15.805,0,15.805,0v2.064c0,0-5.823,2.867-15.805,2.469
				c-9.982-0.58-24.124-0.544-40.761,0c-16.638-0.844-35.77,2.479-55.734,0c-4.427-0.605-8.895-0.93-13.386-1.071
				c-2.245-0.07-4.497-0.095-6.751-0.086c-2.73,0.038-5.463,0.077-8.2,0.116l-0.113-6.421l5.361-0.152l3.818-0.169
				c2.544-0.11,5.085-0.221,7.62-0.331c5.069-0.201,10.113-0.34,15.104-0.276c19.964,3.146,39.097,0.156,55.734,0
				c16.637,0.704,30.778-1.428,40.761,0c2.742-0.294,5.169-0.24,7.242-0.007c0.519,0.058,1.014,0.127,1.487,0.205
				c0.705,0.09,1.378,0.175,2.02,0.257c1.298,0.185,2.292,0.393,3.013,0.604c-0.346,1.948-0.699,3.156-0.965,3.875
				c-0.266,0.717-0.446,0.988-0.446,0.988S190.088,115.631,189.724,115.631z"/>
		</g>
	</g>
</g>
<g>
	<rect x="52.578" y="148.009" fill="#42B3C6" width="21.422" height="3.452"/>
	<g>
		<g>
			<path fill-rule="evenodd" clip-rule="evenodd" fill="#42B3C6" d="M71.936,151.461c-0.026-0.002-0.337-0.105-0.486-0.189
				c-0.149-0.123-0.136-0.107,0.486-0.918c0.156-0.21,0.3-0.441,0.428-0.708c0.051-0.467-0.579-0.735-1.379-0.7
				c-0.324,0.018-0.975,0.111-1.55,0.295c-0.592,0.184-1.208,0.457-1.846,0.833c-2.9,0.448-6.236,0.62-9.717,0
				c-0.435,0.378-0.873,0.661-1.312,0.867c-0.11,0.052-0.22,0.099-0.33,0.141l-0.165,0.06l-0.082,0.028l-0.005,0.025
				c-0.013,0.067-0.013,0.117-0.009,0.152c0.021,0.142,0.056,0.046-0.196-0.143c-0.246-1.274-0.651-1.959-0.903-2.035
				c0.064,0.137,0.255,0.229,0.498,0.228c0.337-0.363,0.483-0.604,0.57-0.753c0.042-0.036-0.009-0.067,0.102-0.094
				c0.107-0.025,0.214-0.046,0.321-0.062c0.213-0.031,0.426-0.043,0.638-0.038c0.847,0.019,1.681,0.296,2.497,0.602
				c1.632,0.61,3.191,1.337,4.642,0.345c2.9-0.78,5.366,0.09,7.106,0c1.741-0.309,2.756,0,2.756,0v2.064
				c0,0-1.015,2.867-2.756,2.469c-1.74-0.58-4.206-0.544-7.106,0c-1.451-0.422-3.01,0.198-4.642,0.613
				c-0.816,0.208-1.65,0.364-2.497,0.313c-0.212-0.013-0.425-0.038-0.638-0.079c-0.107-0.02-0.214-0.044-0.321-0.072
				c-0.104-0.029-0.388-0.062-0.568-0.099c-0.815-0.147-1.577-0.367-2.186-0.677c-0.83-0.479-1.501-0.781-2.22-0.957
				c0.326-2.428,0.214-4.033-0.029-6.504c1.096-0.187,2.304-0.451,3.721-0.652c0.608-0.08,1.208-0.159,1.802-0.237
				c0.439-0.052,0.876-0.071,1.312-0.039c3.481,3.146,6.817,0.155,9.717,0c0.633,0.153,1.246,0.172,1.835,0.122
				c0.294-0.024,0.583-0.067,0.865-0.118c0.195-0.051,0.75-0.11,1.231-0.171c1.917-0.241,4.042-0.491,5.333-0.217
				c-0.08,0.524-0.204,1.056-0.384,1.578c0.268,0.538,0.247,1.3,0.065,1.968c-0.181,0.677-0.523,1.267-0.899,1.69
				c-0.751,0.859-1.636,1.068-1.636,1.068S72.3,151.461,71.936,151.461z"/>
		</g>
	</g>
</g>
<text transform="matrix(1 0 0 1 27.5781 24.3066)" fill="#ED6756" font-family="'ArchitectsDaughter'" font-size="14">setores</text>
<text transform="matrix(1 0 0 1 307.543 186.458)" fill="#ED6756" font-family="'ArchitectsDaughter'" font-size="14">+ acesso</text>
<g>
	<g>
		<g>
			<path fill-rule="evenodd" clip-rule="evenodd" d="M87.922,148.009c0.013,0,0.088,0.196,0.169,0.581s0.168,0.961,0.202,1.714
				c0.015,0.749-0.124,1.67-0.343,2.726c-0.342,1.028-0.718,2.223-1.525,3.374c-1.525,2.327-3.39,4.894-5.826,7.472
				c-1.191,1.32-2.603,2.559-4.128,3.861c-0.813,0.574-1.589,1.284-2.499,1.839c-0.447,0.292-0.889,0.619-1.359,0.912
				c-0.481,0.28-0.968,0.563-1.46,0.851c-2.104,0.798-4.419,1.414-6.854,1.531c-0.607,0.059-1.221,0.094-1.839,0.057
				c-0.618-0.022-1.243-0.023-1.869-0.074c-1.246-0.163-2.515-0.313-3.756-0.678c-2.484-0.669-4.96-1.703-7.144-3.253
				c-2.195-1.521-4.152-3.439-5.717-5.651c-2.298-1.637-4.053-4.039-5.125-6.725c-1.085-2.689-1.488-5.654-1.324-8.536
				c0.216-2.89,0.988-5.695,2.127-8.255c1.137-2.567,2.625-4.902,4.322-7.006c1.118-2.573,3.083-4.69,5.377-6.173
				c2.289-1.52,4.948-2.298,7.498-2.678c1.277-0.221,2.558-0.225,3.792-0.268c0.62,0.009,1.235,0.06,1.839,0.079
				c0.604,0.005,1.2,0.069,1.79,0.144c2.368,0.183,4.586,0.609,6.882,0.827c2.219,0.504,4.211,1.493,5.998,2.587
				c1.729,1.186,3.269,2.489,4.469,3.94c2.47,2.855,3.853,5.891,4.805,8.407c0.587,1.23,0.839,2.433,1.131,3.454
				c0.168,1.048,0.329,1.945,0.368,2.68C87.965,147.222,87.922,148.009,87.922,148.009h-2.064c0,0-0.756-0.74-1.482-1.938
				c-0.381-0.6-0.852-1.299-1.176-2.119c-0.449-0.796-0.701-1.737-1.035-2.79c-0.467-2.167-1.658-4.714-3.765-7.001
				c-1.021-1.171-2.338-2.184-3.773-3.122c-1.493-0.848-3.119-1.636-4.92-2.062c-1.681-0.76-3.621-1.155-5.6-1.029
				c-0.494,0.002-0.988,0.029-1.482,0.125c-0.493,0.081-0.989,0.139-1.479,0.241c-0.973,0.266-1.947,0.496-2.881,0.892
				c-1.875,0.734-3.689,1.627-5.415,2.739c-1.739,1.094-3.454,2.28-5.319,3.617c-1.933,1.293-3.385,3.261-4.252,5.459
				c-0.879,2.202-1.177,4.629-1.016,6.989c0.214,2.367,0.876,4.637,1.809,6.712c0.932,2.082,2.119,3.982,3.459,5.736
				c0.761,2.219,2.249,4.131,4.077,5.524c1.82,1.428,4.024,2.224,6.181,2.621c1.078,0.229,2.175,0.241,3.232,0.276
				c0.532-0.013,1.061-0.072,1.578-0.104c0.518-0.019,1.028-0.103,1.529-0.202c2.016-0.287,3.849-0.938,5.58-1.53
				c1.816-0.389,3.407-1.279,4.8-2.241c1.338-1.054,2.498-2.189,3.382-3.412c1.838-2.412,2.863-4.723,4.276-6.532
				c0.176-1.109,0.341-2.056,0.758-2.846c0.291-0.814,0.781-1.497,1.203-2.086c0.809-1.175,1.733-1.916,1.733-1.916
				S87.558,148.009,87.922,148.009z"/>
		</g>
	</g>
</g>
</svg>
