<?xml version="1.0" encoding="utf-8"?>
<!-- Generator: Adobe Illustrator 16.0.0, SVG Export Plug-In . SVG Version: 6.00 Build 0)  -->
<!DOCTYPE svg PUBLIC "-//W3C//DTD SVG 1.1//EN" "http://www.w3.org/Graphics/SVG/1.1/DTD/svg11.dtd">
<svg version="1.1" id="Layer_1" xmlns="http://www.w3.org/2000/svg" xmlns:xlink="http://www.w3.org/1999/xlink" x="0px" y="0px"
	 width="400px" height="200px" viewBox="0 0 400 200" enable-background="new 0 0 400 200" xml:space="preserve">
<g>
	<g>
		<g>
			<path fill-rule="evenodd" clip-rule="evenodd" fill="#ED6756" d="M33.61,38.724c0,0,0.048,0.162,0.098,0.474
				s0.107,0.775,0.145,1.377c0.075,1.203,0.068,2.962-0.243,5.183c-0.645,4.443-0.856,10.736,0,18.141
				c0.224,7.404,0.31,15.92,0,24.805c1.51,8.886-0.003,18.142,0,27.027c1.452,8.885-0.992,17.4,0,24.805
				c0.39,7.405-0.045,13.698,0,18.142c0.154,4.442,0,7.034,0,7.034h-1.032c0,0-1.434-2.592-1.234-7.034
				c0.29-4.443,0.272-10.736,0-18.142c0.422-7.404-1.239-15.92,0-24.805c1.365-8.886-0.128-18.142,0-27.027
				c1.573-8.885,0.078-17.401,0-24.805c0.352-7.405-0.714-13.698,0-18.141c-0.535-4.443,1.234-7.034,1.234-7.034
				S33.428,38.724,33.61,38.724z"/>
		</g>
		<g>
			<path fill="#ED6756" d="M39.778,48.975c-0.349,0.223-0.813,0.12-1.036-0.229l-6.164-9.679l-6.164,9.679
				c-0.223,0.349-0.687,0.452-1.036,0.229s-0.45-0.689-0.23-1.035l6.797-10.672c0.138-0.216,0.376-0.347,0.633-0.347
				s0.495,0.131,0.633,0.347l6.797,10.672c0.079,0.124,0.117,0.264,0.117,0.402C40.125,48.589,40.002,48.831,39.778,48.975z"/>
		</g>
	</g>
</g>
<g>
	<g>
		<g>
			<path fill-rule="evenodd" clip-rule="evenodd" fill="#ED6756" d="M378.783,164.343c0,0-0.389,0.051-1.138,0.106
				c-0.75,0.056-1.86,0.122-3.304,0.171c-2.888,0.098-7.107,0.124-12.441-0.145c-10.668-0.561-25.774-0.654-43.539,0.343
				c-17.77,0.364-38.206,0.611-59.533,0.47c-21.314,1.678-43.54,0.34-64.865,0.511c-21.313,1.62-41.77-0.663-59.533,0.469
				c-17.768,0.53-32.877,0.215-43.539,0.344c-10.661,0.238-16.882,0.133-16.882,0.133L74,165.712c0,0,6.208-1.482,16.873-1.367
				c10.665,0.206,25.77,0.068,43.539-0.344c17.775,0.282,38.198-1.54,59.534-0.469c21.336,1.197,43.538-0.471,64.864-0.511
				c21.338,1.404,41.764-0.252,59.533-0.47c17.774,0.212,32.871-0.973,43.54-0.343c10.658-0.619,16.892,1.102,16.892,1.102
				S378.781,164.16,378.783,164.343z"/>
		</g>
		<g>
			<path fill="#ED6756" d="M368.58,170.591c-0.226-0.348-0.126-0.812,0.222-1.038l9.631-6.24l-9.728-6.087
				c-0.352-0.221-0.458-0.684-0.238-1.034s0.686-0.455,1.034-0.238l10.725,6.713c0.218,0.136,0.351,0.374,0.353,0.63
				s-0.127,0.496-0.342,0.636l-10.618,6.881c-0.124,0.08-0.264,0.119-0.401,0.12C368.969,170.935,368.726,170.813,368.58,170.591z"
				/>
		</g>
	</g>
</g>
<g>
	<rect x="52.578" y="40.282" fill="#42B3C6" width="246.423" height="3.452"/>
	<g>
		<g>
			<path fill-rule="evenodd" clip-rule="evenodd" fill="#42B3C6" d="M296.937,43.734c-0.009,0.001-0.051-0.123-0.107-0.324
				c-0.045-0.17-0.112-0.423-0.2-0.756c-0.179,0.03-0.377,0.062-0.596,0.099c-0.094,0.014-0.191,0.029-0.294,0.044l-0.149,0.021
				c-0.189,0.006-0.383,0.012-0.579,0.019c-1.573,0.048-3.385,0.078-5.423,0.074c-4.074-0.008-9.05-0.154-14.817-0.564
				c-17.484-1.289-42.253-1.713-71.394,0c-29.139,0.448-62.651,0.62-97.619,0c-8.742,0.755-17.575,1.132-26.454,1.273
				c-4.439,0.071-8.89,0.082-13.346,0.053l-6.688-0.074l-3.289-0.056c-0.048-0.021-0.116-0.042-0.208-0.066l-0.078-2.861
				c0.063,0.025,0.149,0.05,0.259,0.077l2.883,0.082l6.254,0.173c4.167,0.115,8.328,0.229,12.478,0.344
				c8.3,0.214,16.558,0.379,24.736,0.377c34.968-2.904,68.479,1.984,97.619,0c29.14-0.78,53.908,0.09,71.393,0
				c17.483-0.309,27.683,0,27.683,0v2.064c0,0-10.199,2.868-27.683,2.469c-17.484-0.581-42.253-0.544-71.393,0
				c-29.141-0.843-62.651,2.479-97.619,0c-8.178-0.639-16.436-0.965-24.736-1.093c-4.15-0.063-8.312-0.078-12.478-0.057
				c-4.657,0.051-9.321,0.102-13.986,0.153l-0.068-6.465l4.859-0.073l3.374-0.079l6.688-0.168c4.457-0.111,8.907-0.221,13.346-0.332
				c8.879-0.202,17.712-0.34,26.454-0.276c34.968,3.146,68.479,0.156,97.619,0c29.141,0.704,53.909-1.427,71.394,0
				c5.797-0.355,10.793-0.203,14.871,0.159c2.039,0.181,3.848,0.414,5.413,0.663c0.2,0.032,0.397,0.063,0.591,0.094
				c0.268,0.032,0.53,0.064,0.788,0.095c0.482,0.066,0.944,0.13,1.387,0.191c0.843,0.127,1.524,0.254,2.073,0.375
				c-0.246,1.69-0.469,2.753-0.631,3.414C299.101,43.46,299,43.734,299,43.734S297.301,43.734,296.937,43.734z"/>
		</g>
	</g>
</g>
<g>
	<rect x="52.578" y="76.113" fill="#42B3C6" width="236.244" height="3.452"/>
	<g>
		<g>
			<path fill-rule="evenodd" clip-rule="evenodd" fill="#42B3C6" d="M286.758,79.565c-0.009,0.001-0.053-0.123-0.111-0.323
				c-0.047-0.168-0.115-0.418-0.206-0.748c-0.171,0.029-0.362,0.062-0.572,0.097c-0.09,0.014-0.184,0.028-0.281,0.043l-0.14,0.02
				l-0.046,0.004l-0.138,0.005l-0.28,0.009c-1.508,0.046-3.238,0.074-5.181,0.068c-3.884-0.011-8.611-0.158-14.084-0.563
				c-16.771-1.289-40.531-1.713-68.484,0c-27.952,0.448-60.099,0.62-93.642,0c-8.386,0.755-16.86,1.132-25.376,1.273
				c-4.259,0.071-8.528,0.082-12.803,0.053l-6.416-0.074l-3.022-0.056c-0.046-0.021-0.112-0.042-0.202-0.066l-0.081-2.857
				c0.061,0.025,0.142,0.051,0.247,0.077l0.04,0.01l0.341,0.01l0.749,0.021l1.497,0.041l5.981,0.173
				c3.986,0.114,7.965,0.229,11.935,0.343c7.939,0.213,15.837,0.377,23.659,0.375c33.543-2.904,65.689,1.984,93.642,0
				c27.953-0.78,51.712,0.09,68.484,0c16.772-0.309,26.556,0,26.556,0v2.064c0,0-9.783,2.868-26.556,2.469
				c-16.771-0.581-40.531-0.544-68.484,0c-27.954-0.843-60.099,2.479-93.642,0c-7.822-0.637-15.72-0.963-23.659-1.091
				c-3.969-0.064-7.949-0.08-11.935-0.059c-4.474,0.05-8.955,0.101-13.438,0.151l-0.071-6.462l4.658-0.073l3.302-0.079l6.416-0.168
				c4.275-0.111,8.544-0.221,12.803-0.332c8.517-0.202,16.99-0.34,25.376-0.276c33.543,3.146,65.69,0.156,93.642,0
				c27.953,0.704,51.713-1.427,68.484,0c5.494-0.351,10.238-0.207,14.125,0.146c1.943,0.176,3.672,0.404,5.173,0.648
				c0.979,0.135,1.886,0.26,2.72,0.375c0.815,0.126,1.479,0.251,2.014,0.372c-0.254,1.707-0.485,2.778-0.654,3.444
				c-0.169,0.662-0.273,0.937-0.273,0.937S287.122,79.565,286.758,79.565z"/>
		</g>
	</g>
</g>
<g>
	<rect x="52.578" y="94.028" fill="#42B3C6" width="174.711" height="3.452"/>
	<g>
		<g>
			<path fill-rule="evenodd" clip-rule="evenodd" fill="#42B3C6" d="M225.225,97.48c-0.011,0.001-0.067-0.125-0.142-0.317
				c-0.074-0.192-0.166-0.437-0.244-0.685c-0.289,0.058-0.564,0.109-0.831,0.142l-0.101,0.011l-0.138,0.005l-0.217,0.004
				c-0.293,0.004-0.593,0.008-0.902,0.013c-0.617-0.001-1.269-0.002-1.952-0.003c-2.733-0.033-5.984-0.188-9.695-0.558
				c-12.466-1.289-30.126-1.713-50.904,0c-20.776,0.448-44.67,0.62-69.603,0c-6.233,0.755-12.531,1.132-18.862,1.273
				c-3.166,0.071-6.339,0.082-9.516,0.053l-4.769-0.074l-1.193-0.026l-0.149-0.003c-0.048-0.001-0.016-0.002-0.028-0.003
				l-0.012-0.007L55.94,97.29c-0.04-0.021-0.094-0.042-0.167-0.066l-0.111-2.827c0.043,0.025,0.102,0.05,0.177,0.077l0.125,0.04
				l0.018,0.005l0.122,0.005l0.271,0.01l0.542,0.021l4.335,0.169c2.888,0.111,5.771,0.222,8.647,0.333
				c5.752,0.206,11.476,0.361,17.145,0.36c24.932-2.904,48.826,1.984,69.603,0c20.777-0.78,38.438,0.09,50.903,0
				c12.466-0.309,19.738,0,19.738,0v2.064c0,0-7.272,2.868-19.738,2.469c-12.466-0.581-30.126-0.544-50.903,0
				c-20.777-0.843-44.671,2.479-69.603,0c-5.669-0.621-11.393-0.946-17.145-1.082c-2.876-0.067-5.76-0.087-8.647-0.073
				c-3.37,0.044-6.744,0.088-10.122,0.133l-0.093-6.44l3.443-0.073l2.869-0.079l4.769-0.168c3.177-0.111,6.351-0.221,9.516-0.332
				c6.331-0.202,12.628-0.34,18.862-0.276c24.933,3.146,48.827,0.156,69.603,0c20.777,0.704,38.438-1.427,50.904,0
				c7.582-0.639,12.508,0.367,17.475,1.28c-0.308,1.838-0.604,2.981-0.825,3.676c-0.221,0.691-0.363,0.965-0.363,0.965
				S225.589,97.48,225.225,97.48z"/>
		</g>
	</g>
</g>
<g>
	<rect x="52.578" y="129.859" fill="#42B3C6" width="103.089" height="3.452"/>
	<g>
		<g>
			<path fill-rule="evenodd" clip-rule="evenodd" fill="#42B3C6" d="M153.603,133.312c-0.027-0.012-0.371-0.489-0.508-0.879
				c-0.153,0.03-0.293,0.051-0.432,0.055c-0.07,0.002-0.14,0-0.213-0.007l-0.113-0.014c-0.039-0.006-0.041-0.014-0.271-0.021
				c-1.398-0.069-2.987-0.228-4.75-0.521c-7.455-1.289-18.016-1.713-30.44,0c-12.424,0.447-26.713,0.619-41.623,0
				c-3.728,0.755-7.494,1.133-11.279,1.273c-1.893,0.07-3.791,0.082-5.69,0.053l-1.426-0.03l-0.713-0.02l-0.161-0.006l-0.004-0.006
				l-0.01-0.012c-0.03-0.033-0.09-0.075-0.196-0.122c-0.058-1.037-0.123-1.966-0.194-2.745c0.046,0.05,0.126,0.102,0.243,0.154
				l0.095,0.04c0.036,0.013,0.02,0.026,0.291,0.04l1.208,0.08c1.611,0.102,3.219,0.203,4.822,0.304
				c3.208,0.186,6.399,0.32,9.563,0.319c14.909-2.904,29.198,1.984,41.622,0c12.425-0.78,22.985,0.09,30.44,0
				c7.455-0.31,11.803,0,11.803,0v2.063c0,0-4.349,2.868-11.803,2.47c-7.455-0.581-18.016-0.544-30.44,0
				c-12.425-0.843-26.713,2.479-41.622,0c-3.164-0.579-6.355-0.901-9.563-1.052c-1.604-0.075-3.212-0.107-4.822-0.107l-2.803,0.023
				l-3.431,0.063l-0.145-6.389l4.119-0.152l0.988-0.041l0.713-0.042l1.426-0.086c1.9-0.11,3.798-0.221,5.69-0.331
				c3.786-0.201,7.552-0.34,11.279-0.276c14.91,3.146,29.198,0.156,41.623,0c12.425,0.704,22.985-1.428,30.44,0
				c1.768-0.254,3.361-0.248,4.76-0.092c0.55,0.049,1.083,0.097,1.599,0.144c0.542,0.056,1.044,0.12,1.504,0.189
				c0.919,0.14,1.665,0.304,2.238,0.478c-0.386,2.091-0.824,3.409-1.165,4.171s-0.585,1.031-0.585,1.031
				S153.967,133.312,153.603,133.312z"/>
		</g>
	</g>
</g>
<g>
	<rect x="52.578" y="58.197" fill="#42B3C6" width="293.089" height="3.452"/>
	<g>
		<g>
			<path fill-rule="evenodd" clip-rule="evenodd" fill="#42B3C6" d="M343.603,61.649c-0.008,0.001-0.044-0.123-0.095-0.328
				c-0.04-0.177-0.101-0.44-0.18-0.786c-0.206,0.031-0.439,0.066-0.7,0.105c-0.11,0.015-0.227,0.031-0.349,0.048
				c-0.414,0.014-0.848,0.029-1.299,0.044c-1.876,0.055-4.06,0.091-6.533,0.093c-4.946,0.002-11.054-0.137-18.181-0.564
				c-20.75-1.289-50.144-1.713-84.727,0c-34.581,0.448-74.352,0.62-115.85,0c-10.375,0.755-20.858,1.132-31.395,1.273
				c-5.269,0.071-10.55,0.082-15.839,0.053l-7.937-0.074l-3.971-0.056l-0.496-0.008c-0.121-0.001-0.053-0.002-0.078-0.004
				l-0.012-0.004l-0.054-0.016l-0.137-0.034l-0.065-2.874l0.135,0.038l0.083,0.02l0.045,0.01l0.012,0.002l0.115,0.002l0.235,0.005
				l3.754,0.082l7.503,0.174c4.999,0.116,9.991,0.232,14.97,0.349c9.959,0.217,19.866,0.386,29.677,0.384
				c41.498-2.904,81.268,1.984,115.85,0c34.582-0.78,63.976,0.09,84.726,0c20.749-0.309,32.853,0,32.853,0v2.064
				c0,0-12.104,2.868-32.853,2.469c-20.75-0.581-50.144-0.544-84.726,0c-34.583-0.843-74.352,2.479-115.85,0
				c-9.811-0.646-19.718-0.972-29.677-1.097c-4.979-0.062-9.971-0.075-14.97-0.051c-5.493,0.054-10.993,0.108-16.496,0.162
				l-0.058-6.475l9.482-0.152l7.937-0.168c5.289-0.111,10.571-0.221,15.839-0.332c10.537-0.202,21.02-0.34,31.395-0.276
				c41.498,3.146,81.269,0.156,115.85,0c34.583,0.704,63.977-1.427,84.727,0c7.188-0.371,13.339-0.188,18.293,0.209
				c2.477,0.198,4.653,0.451,6.512,0.714c0.483,0.069,0.947,0.135,1.39,0.199c0.564,0.07,1.102,0.136,1.612,0.199
				c0.973,0.132,1.746,0.262,2.358,0.383c-0.216,1.626-0.407,2.657-0.544,3.302c-0.138,0.642-0.222,0.915-0.222,0.915
				S343.967,61.649,343.603,61.649z"/>
		</g>
	</g>
</g>
<g>
	<rect x="52.578" y="111.943" fill="#42B3C6" width="141.089" height="3.453"/>
	<g>
		<g>
			<path fill-rule="evenodd" clip-rule="evenodd" fill="#42B3C6" d="M191.603,115.396c-0.023,0-0.278-0.511-0.438-0.951
				c-0.23,0.049-0.444,0.088-0.653,0.109l-0.158,0.013c-0.128,0.002-0.259,0.003-0.394,0.005c-0.481-0.006-0.985-0.011-1.512-0.017
				c-2.105-0.049-4.564-0.206-7.341-0.548c-10.114-1.289-24.441-1.713-41.298,0c-16.856,0.447-36.241,0.619-56.468,0
				c-5.057,0.755-10.167,1.133-15.303,1.273c-2.568,0.07-5.143,0.082-7.72,0.053l-3.869-0.073l-0.466-0.013l-0.017-0.014
				l-0.045-0.029c-0.036-0.021-0.084-0.043-0.148-0.066l-0.139-2.798c0.08,0.05,0.156,0.103,0.382,0.156l3.435,0.167
				c2.288,0.107,4.573,0.215,6.852,0.322c4.558,0.198,9.092,0.347,13.585,0.346c20.228-2.904,39.612,1.984,56.468,0
				c16.856-0.78,31.184,0.09,41.298,0c10.113-0.309,16.013,0,16.013,0v2.064c0,0-5.9,2.867-16.013,2.469
				c-10.114-0.58-24.441-0.544-41.298,0c-16.856-0.844-36.241,2.479-56.468,0c-4.493-0.606-9.027-0.931-13.585-1.071
				c-2.279-0.07-4.563-0.095-6.852-0.086c-2.764,0.039-5.531,0.078-8.302,0.117l-0.112-6.422l5.412-0.152l3.869-0.169
				c2.578-0.11,5.153-0.221,7.72-0.331c5.136-0.201,10.246-0.34,15.303-0.276c20.227,3.146,39.612,0.156,56.468,0
				c16.856,0.704,31.184-1.428,41.298,0c2.793-0.296,5.265-0.239,7.373-0.003c1.282,0.169,2.46,0.325,3.531,0.467
				c1.317,0.187,2.323,0.397,3.052,0.609c-0.344,1.941-0.693,3.145-0.956,3.862c-0.263,0.715-0.44,0.986-0.44,0.986
				S191.967,115.396,191.603,115.396z"/>
		</g>
	</g>
</g>
<g>
	<rect x="52.578" y="147.774" fill="#42B3C6" width="68.423" height="3.452"/>
	<g>
		<g>
			<path fill-rule="evenodd" clip-rule="evenodd" fill="#42B3C6" d="M118.937,151.227c-0.017,0.002-0.152-0.133-0.287-0.284
				c-0.134-0.161-0.267-0.295-0.277-0.54c-0.146,0.006-0.261-0.024-0.421-0.112c-0.095-0.056-0.195-0.114-0.3-0.176
				c0.004-0.037-0.324-0.078-0.506-0.124c-0.213-0.05-0.432-0.1-0.655-0.151c-5.029-1.288-12.154-1.714-20.536,0
				c-8.382,0.448-18.021,0.62-28.08,0c-2.515,0.755-5.055,1.133-7.609,1.273c-1.277,0.07-2.557,0.082-3.839,0.053l-0.443-0.014
				l-0.006-0.017c-0.006-0.012-0.016-0.026-0.032-0.043c-0.031-0.033-0.085-0.075-0.172-0.122c-0.085-1.066-0.189-1.972-0.299-2.64
				c0.053,0.095,0.188,0.194,0.41,0.291l0.086,0.035c0.044,0.012,0.226,0.023,0.332,0.035l0.743,0.069l1.484,0.129
				c1.976,0.16,3.942,0.273,5.893,0.272c10.059-2.904,19.698,1.984,28.08,0c8.382-0.78,15.506,0.09,20.536,0
				c5.029-0.309,7.963,0,7.963,0v2.064c0,0-2.934,2.867-7.963,2.469c-5.029-0.58-12.154-0.544-20.536,0
				c-8.382-0.844-18.021,2.479-28.08,0c-1.951-0.529-3.917-0.845-5.893-1.009c-0.494-0.042-0.989-0.073-1.484-0.097l-0.743-0.029
				l-0.908-0.018c-1.373-0.016-2.741-0.002-4.165,0.032c-0.04-2.007-0.108-4.077-0.192-6.341l2.729-0.152l1.428-0.083l0.731-0.043
				l0.501-0.043c1.282-0.11,2.563-0.221,3.839-0.331c2.554-0.201,5.095-0.34,7.609-0.276c10.059,3.146,19.698,0.155,28.08,0
				c8.382,0.704,15.506-1.427,20.536,0c0.223-0.048,0.442-0.086,0.657-0.116c0.25-0.029,0.331-0.052,0.774-0.065
				c0.735-0.028,1.447-0.025,2.106,0.002c1.321,0.055,2.419,0.21,3.204,0.418c-0.379,2.235-0.937,3.751-1.4,4.579
				c-0.463,0.839-0.831,1.104-0.831,1.104S119.301,151.227,118.937,151.227z"/>
		</g>
	</g>
</g>
<text transform="matrix(1 0 0 1 27.5781 24.0723)" fill="#ED6756" font-family="'ArchitectsDaughter'" font-size="14">+ renda</text>
<text transform="matrix(1 0 0 1 307.543 186.2236)" fill="#ED6756" font-family="'ArchitectsDaughter'" font-size="14">+ acesso</text>
<text transform="matrix(1 0 0 1 238.8984 122.5)" font-family="'ArchitectsDaughter'" font-size="14">padrão</text>
<g>
	<g>
		<g>
			<path fill-rule="evenodd" clip-rule="evenodd" d="M277.1,87.083c0,0-0.18,0.132-0.542,0.346c-0.363,0.214-0.907,0.516-1.63,0.875
				c-1.445,0.718-3.604,1.661-6.452,2.575c-5.706,1.808-13.508,5.01-22.24,9.79c-8.987,4.201-19.393,8.875-30.41,13.386
				c-10.285,6.177-22.242,9.787-33.134,14.584c-10.308,6.124-21.732,8.482-30.41,13.387c-8.92,4.353-16.812,7.351-22.24,9.789
				c-5.384,2.539-8.624,3.796-8.624,3.796l-0.416-0.944c0,0,2.6-2.711,8.126-4.926c5.563-2.132,13.272-5.545,22.24-9.79
				c9.248-3.609,19.018-9.725,30.41-13.386c11.443-3.545,22.189-9.906,33.133-14.585c11.527-3.355,21.364-9.318,30.411-13.386
				c9.219-3.674,16.506-8.045,22.24-9.79c5.23-2.887,9.121-2.666,9.121-2.666S277.025,86.917,277.1,87.083z"/>
		</g>
		<g>
			<path d="M270.201,96.858c-0.344-0.229-0.437-0.696-0.207-1.041l6.376-9.541l-11.343-1.743c-0.409-0.063-0.69-0.446-0.627-0.855
				c0.062-0.409,0.449-0.689,0.854-0.628l12.507,1.921c0.253,0.039,0.469,0.205,0.572,0.439s0.079,0.506-0.062,0.719l-7.029,10.52
				c-0.082,0.123-0.195,0.214-0.321,0.27C270.694,97.021,270.423,97.006,270.201,96.858z"/>
		</g>
	</g>
</g>
<g>
	<g>
		<g>
			<path fill-rule="evenodd" clip-rule="evenodd" fill="#ED6756" d="M282.202,30.382c0.006,0.001,0.02,0.08,0.034,0.234
				c0.015,0.154,0.029,0.383,0.039,0.683c0.019,0.6,0.015,1.484-0.065,2.624c-0.16,2.279-0.623,5.579-1.808,9.666
				c-1.129,3.821-2.175,8.429-2.989,13.708c-0.407,2.64-0.757,5.447-1.029,8.408c-0.137,1.48-0.255,2.999-0.351,4.555l-0.035,0.585
				l-0.016,0.286v0.172l0.014,0.651c0.015,0.413,0.043,0.778,0.087,1.082c0.494-0.093,0.975-0.194,1.371-0.304l0.53-0.041
				c0.442-0.013,0.888-0.026,1.334-0.04c0.893-0.024,1.794-0.049,2.702-0.073c1.816-0.04,3.664-0.081,5.538-0.122
				c3.748-0.069,7.606-0.114,11.553-0.125c7.892-0.021,16.135,0.091,24.553,0.4c5.021-0.901,10.106-1.264,15.215-1.33
				c2.555-0.033,5.116,0.008,7.679,0.094l3.844,0.158l0.209,0.011l0.021,0.012l0.045,0.024l0.112,0.05
				c0.085,0.033,0.189,0.068,0.314,0.104c0.044-0.069,0.088-0.174,0.129-0.317l0.03-0.115l0.016-0.062
				c0.006-0.001,0-0.187,0.001-0.271l-0.01-1.298c-0.019-1.731-0.038-3.459-0.057-5.182c-0.056-3.445-0.159-6.871-0.384-10.26
				c-1.179-4.889-1.68-9.761-1.874-14.555c-0.097-2.397-0.117-4.774-0.107-7.125c0.011-1.175,0.021-2.343,0.032-3.503l0.003-0.217
				c0-0.079,0.007-0.062,0.011-0.098l0.024-0.146l0.047-0.317l0.086-0.732c-0.589-0.122-0.844-0.235-2.796-0.324
				c-1.565-0.088-3.111-0.152-4.638-0.175c-3.054-0.045-6.027,0.072-8.913,0.48c-14.03,0.78-25.956-0.09-34.374,0
				c-8.418,0.309-13.328,0-13.328,0v-2.064c0,0,4.91-2.868,13.328-2.469c8.418,0.581,20.344,0.544,34.374,0
				c2.886,0.173,5.86,0.171,8.913,0.079c1.526-0.046,3.072-0.115,4.638-0.195c1.008-0.08,4.519-0.171,7.414-0.264
				c0.197,2.015,0.396,4.044,0.597,6.087c0.134,1.151,0.268,2.31,0.403,3.475c0.257,2.332,0.485,4.696,0.654,7.088
				c0.336,4.784,0.432,9.683,0.029,14.676c-0.326,3.425-0.418,6.864-0.351,10.309c0.033,1.723,0.107,3.447,0.212,5.171l0.205,2.99
				l0.287,3.643l-5.304,0.126l-3.844,0.174c-2.562,0.134-5.124,0.269-7.679,0.403c-5.108,0.263-10.193,0.475-15.215,0.399
				c-8.418-1.573-16.661-1.612-24.553-1.238c-3.946,0.187-7.805,0.477-11.553,0.73c-1.875,0.126-3.722,0.244-5.538,0.334
				c-0.909,0.038-1.81,0.076-2.702,0.114c-0.447,0.012-0.892,0.025-1.334,0.038c-0.759,0.007-1.515,0.015-2.267,0.022
				c-1.484-0.034-2.953-0.068-4.364-0.101c0.2-1.361,0.397-2.709,0.594-4.043c0.153-1.127,0.305-2.243,0.455-3.347
				c0.197-1.539,0.366-3.049,0.519-4.526c0.304-2.955,0.538-5.777,0.782-8.44c0.487-5.326,1.013-10.013,2.207-13.831
				c0.077-8.485,4.246-12.873,4.246-12.873S281.841,30.333,282.202,30.382z"/>
		</g>
	</g>
</g>
</svg>
