<?xml version="1.0" encoding="utf-8"?>
<!-- Generator: Adobe Illustrator 16.0.0, SVG Export Plug-In . SVG Version: 6.00 Build 0)  -->
<!DOCTYPE svg PUBLIC "-//W3C//DTD SVG 1.1//EN" "http://www.w3.org/Graphics/SVG/1.1/DTD/svg11.dtd">
<svg version="1.1" id="Layer_1" xmlns="http://www.w3.org/2000/svg" xmlns:xlink="http://www.w3.org/1999/xlink" x="0px" y="0px"
	 width="400px" height="160px" viewBox="0 0 400 160" enable-background="new 0 0 400 160" xml:space="preserve">
<g>
	<circle fill="#B291CE" cx="70.226" cy="75.71" r="41.607"/>
	<g>
		<g>
			<path fill-rule="evenodd" clip-rule="evenodd" fill="#B291CE" d="M113.897,75.71c0.006,0,0.027,0.087,0.054,0.259
				s0.06,0.429,0.093,0.768c0.066,0.679,0.132,1.69,0.137,3.008c-0.029,1.314-0.304,2.92-0.636,4.786
				c-0.249,0.917-0.566,1.889-0.916,2.913c-0.188,0.508-0.341,1.043-0.59,1.562c-0.258,0.514-0.523,1.041-0.796,1.585
				c-2.229,4.289-5.303,9.133-9.687,13.834c-2.139,2.404-4.743,4.612-7.571,6.841c-0.742,0.512-1.494,1.03-2.254,1.555
				c-0.383,0.259-0.754,0.548-1.155,0.791c-0.406,0.235-0.813,0.472-1.224,0.71c-0.826,0.468-1.643,0.995-2.507,1.451
				c-0.883,0.428-1.775,0.859-2.677,1.296c-3.758,1.329-7.858,2.351-12.159,2.501c-0.537,0.035-1.075,0.069-1.616,0.104
				c-0.541,0.014-1.084-0.028-1.629-0.041c-1.089-0.051-2.191-0.06-3.292-0.157c-1.096-0.158-2.199-0.317-3.309-0.478l-0.833-0.127
				l-0.82-0.204l-1.646-0.417c-4.368-1.187-8.731-2.981-12.606-5.675c-3.895-2.644-7.405-5.965-10.273-9.812
				c-3.615-3.263-6.392-7.554-8.156-12.245c-1.781-4.696-2.544-9.79-2.403-14.809c0.481-10.09,4.541-19.624,10.559-27.054
				c2.422-4.208,5.94-7.729,9.934-10.333c3.98-2.664,8.526-4.204,12.959-5.101l1.668-0.309l0.828-0.151l0.838-0.073
				c1.11-0.095,2.214-0.188,3.31-0.282c1.096-0.038,2.188,0.006,3.263-0.004c0.538,0.008,1.073-0.016,1.606,0.013
				c0.532,0.046,1.062,0.092,1.59,0.138c4.234,0.216,8.238,1.048,12.188,1.797c0.956,0.304,1.902,0.606,2.839,0.904
				c0.922,0.342,1.799,0.771,2.685,1.158c0.44,0.2,0.878,0.399,1.313,0.597c0.43,0.209,0.83,0.468,1.242,0.7
				c0.815,0.482,1.62,0.959,2.417,1.43c3.032,2.111,5.764,4.384,7.912,6.919c4.418,4.979,7.009,10.292,8.666,14.771
				c0.222,0.558,0.438,1.102,0.649,1.631c0.205,0.531,0.321,1.074,0.477,1.588c0.285,1.035,0.56,2.008,0.783,2.921
				c0.282,1.857,0.578,3.44,0.661,4.739C113.909,74.313,113.897,75.71,113.897,75.71h-2.064c0,0-0.787-1.35-1.57-3.68
				c-0.425-1.164-1.031-2.549-1.469-4.179c-0.301-0.8-0.615-1.651-0.889-2.571c-0.149-0.456-0.246-0.942-0.418-1.421
				c-0.175-0.478-0.344-0.972-0.506-1.485c-1.171-4.128-3.57-8.953-7.626-13.362c-1.968-2.256-4.478-4.237-7.216-6.102
				c-0.719-0.414-1.447-0.832-2.183-1.255c-0.371-0.205-0.729-0.438-1.116-0.622c-0.392-0.174-0.785-0.349-1.181-0.525
				c-0.795-0.34-1.578-0.73-2.403-1.038c-0.837-0.272-1.683-0.547-2.536-0.825c-3.334-1.291-7.06-2.091-10.905-1.999
				c-0.479-0.004-0.959-0.009-1.441-0.013c-0.481,0.017-0.963,0.088-1.446,0.131c-0.965,0.11-1.938,0.176-2.903,0.325
				c-0.956,0.202-1.917,0.406-2.885,0.611l-0.723,0.152l-0.708,0.227l-1.418,0.448l-1.423,0.44l-1.384,0.575l-1.388,0.571
				c-0.468,0.179-0.931,0.373-1.369,0.624c-0.893,0.466-1.793,0.922-2.703,1.367c-0.86,0.538-1.728,1.068-2.61,1.586
				c-3.439,2.215-6.707,4.805-9.875,7.777c-3.25,2.92-5.724,6.776-7.283,10.98c-1.575,4.209-2.233,8.765-2.096,13.262
				c0.486,9.038,4.08,17.502,9.378,24.242c2.066,3.854,5.105,7.169,8.634,9.684c3.511,2.572,7.602,4.129,11.643,5.045l1.522,0.314
				l0.756,0.154l0.769,0.075c1.019,0.094,2.031,0.187,3.038,0.279c1.008,0.034,2.013-0.018,3.002-0.021
				c0.495-0.015,0.987,0.001,1.476-0.037c0.488-0.058,0.975-0.115,1.459-0.172c3.882-0.32,7.5-1.375,10.885-2.499
				c0.854-0.276,1.7-0.55,2.538-0.821c0.822-0.314,1.599-0.717,2.384-1.075c0.39-0.186,0.778-0.37,1.164-0.555
				c0.379-0.194,0.73-0.439,1.092-0.656c0.715-0.45,1.421-0.896,2.12-1.336c2.642-1.979,4.993-4.083,6.825-6.392
				c3.786-4.534,6.019-9.123,8.136-12.895c0.122-0.527,0.256-1.032,0.4-1.518c0.141-0.487,0.211-0.979,0.337-1.439
				c0.228-0.927,0.513-1.779,0.797-2.575c0.405-1.624,1.03-2.993,1.496-4.146c0.865-2.307,1.821-3.657,1.821-3.657
				S113.532,75.71,113.897,75.71z"/>
		</g>
	</g>
</g>
<g>
	<circle fill="#42B3C6" cx="310.689" cy="37.969" r="33.337"/>
	<g>
		<g>
			<path fill-rule="evenodd" clip-rule="evenodd" fill="#42B3C6" d="M346.09,37.969c0.007,0,0.028,0.071,0.057,0.21
				c0.028,0.14,0.064,0.348,0.101,0.624c0.073,0.551,0.147,1.373,0.165,2.446c-0.01,1.069-0.226,2.377-0.509,3.891
				c-0.207,0.744-0.476,1.532-0.775,2.36c-0.16,0.411-0.295,0.842-0.507,1.26c-0.215,0.418-0.442,0.843-0.683,1.273
				c-1.924,3.438-4.472,7.292-8.01,11.071c-1.727,1.933-3.812,3.72-6.075,5.546c-0.593,0.422-1.194,0.849-1.803,1.281
				c-0.307,0.214-0.603,0.453-0.923,0.655c-0.325,0.196-0.651,0.393-0.979,0.592c-0.661,0.391-1.315,0.832-2.009,1.216
				c-0.708,0.364-1.425,0.731-2.148,1.103c-3.04,1.098-6.364,1.944-9.854,2.08l-1.312,0.089c-0.439,0.013-0.88-0.02-1.323-0.029
				c-0.884-0.038-1.779-0.043-2.674-0.121c-0.891-0.127-1.787-0.255-2.688-0.383c-0.454-0.052-0.9-0.144-1.343-0.267l-1.338-0.337
				c-3.55-0.961-7.094-2.426-10.233-4.623c-3.156-2.156-5.992-4.868-8.294-8.005c-3.043-2.557-5.376-6.027-6.84-9.848
				c-1.479-3.824-2.086-7.993-1.935-12.083c0.465-8.236,3.904-15.918,8.774-21.931c1.854-3.498,4.699-6.409,7.954-8.526
				c3.245-2.167,6.972-3.376,10.587-4.048l1.36-0.229c0.448-0.087,0.899-0.144,1.356-0.161c0.902-0.062,1.799-0.125,2.689-0.187
				c0.889-0.018,1.773,0.029,2.644,0.032c0.436,0.011,0.869-0.003,1.3,0.024c0.431,0.041,0.858,0.082,1.286,0.123
				c3.423,0.201,6.651,0.857,9.883,1.376c0.778,0.239,1.549,0.477,2.312,0.711c0.75,0.271,1.465,0.614,2.186,0.923
				c0.358,0.161,0.715,0.32,1.069,0.479c0.35,0.168,0.675,0.377,1.011,0.564c0.662,0.39,1.317,0.775,1.965,1.156
				c2.466,1.708,4.681,3.561,6.416,5.625c3.572,4.057,5.639,8.38,6.989,12.006c0.183,0.452,0.361,0.892,0.535,1.32
				c0.169,0.43,0.266,0.869,0.394,1.286c0.235,0.838,0.46,1.627,0.643,2.368c0.232,1.505,0.47,2.791,0.534,3.844
				C346.116,36.837,346.09,37.969,346.09,37.969h-2.063c0,0-0.773-1.085-1.532-2.924c-0.406-0.918-0.953-2.006-1.342-3.284
				c-0.26-0.627-0.524-1.295-0.748-2.018c-0.122-0.358-0.2-0.742-0.335-1.119c-0.139-0.376-0.27-0.767-0.392-1.173
				c-0.865-3.277-2.74-7.112-5.949-10.599c-1.557-1.785-3.549-3.346-5.721-4.808c-0.57-0.323-1.147-0.65-1.731-0.981
				c-0.294-0.16-0.578-0.342-0.885-0.485c-0.311-0.135-0.622-0.271-0.937-0.407c-0.63-0.264-1.25-0.567-1.903-0.804
				c-0.663-0.208-1.332-0.419-2.008-0.631c-2.616-1.06-5.566-1.685-8.601-1.578l-1.137,0.002c-0.38,0.018-0.76,0.08-1.141,0.119
				c-0.76,0.098-1.525,0.16-2.284,0.289c-0.75,0.171-1.505,0.343-2.264,0.516c-0.381,0.071-0.754,0.178-1.121,0.315l-1.11,0.369
				c-2.94,1.028-5.822,2.351-8.504,4.11c-2.701,1.728-5.294,3.708-7.896,5.97c-2.679,2.213-4.708,5.249-5.967,8.582
				c-1.272,3.337-1.774,6.969-1.627,10.538c0.47,7.185,3.442,13.795,7.594,19.119c1.499,3.144,3.864,5.85,6.654,7.877
				c2.775,2.075,6.048,3.301,9.27,3.992l1.214,0.236c0.4,0.089,0.805,0.147,1.215,0.166c0.811,0.062,1.616,0.124,2.417,0.185
				c0.801,0.014,1.6-0.041,2.383-0.058c0.393-0.018,0.783-0.012,1.17-0.049l1.155-0.157c3.071-0.305,5.914-1.185,8.58-2.078
				c0.677-0.211,1.347-0.42,2.01-0.627c0.65-0.244,1.265-0.56,1.886-0.841l0.919-0.437c0.3-0.154,0.576-0.348,0.861-0.521
				c0.562-0.358,1.119-0.712,1.669-1.062c2.075-1.578,3.908-3.261,5.329-5.097c2.94-3.613,4.648-7.212,6.46-10.131
				c0.083-0.42,0.179-0.822,0.286-1.207c0.104-0.385,0.155-0.774,0.255-1.136c0.178-0.73,0.412-1.399,0.656-2.023
				c0.355-1.272,0.922-2.343,1.368-3.25c0.841-1.815,1.783-2.901,1.783-2.901S345.726,37.969,346.09,37.969z"/>
		</g>
	</g>
</g>
<g>
	<circle fill="#C0C0C0" cx="347.811" cy="129.162" r="26.331"/>
	<g>
		<g>
			<path fill-rule="evenodd" clip-rule="evenodd" fill="#C0C0C0" d="M376.205,129.162c0.007,0,0.028,0.057,0.059,0.169
				c0.03,0.111,0.068,0.279,0.107,0.501c0.078,0.442,0.161,1.104,0.188,1.969c0.007,0.861-0.159,1.917-0.4,3.133
				c-0.173,0.599-0.398,1.23-0.656,1.892c-0.235,0.668-0.6,1.336-1.022,2.014c-1.664,2.715-3.768,5.731-6.589,8.729
				c-1.378,1.534-3.025,2.965-4.808,4.45c-0.95,0.653-1.858,1.459-2.921,2.08c-0.521,0.326-1.038,0.693-1.586,1.018
				c-0.561,0.31-1.127,0.622-1.701,0.939c-2.431,0.902-5.099,1.599-7.902,1.723l-1.054,0.076c-0.353,0.012-0.707-0.013-1.062-0.019
				c-0.711-0.027-1.431-0.03-2.15-0.091c-1.433-0.19-2.893-0.365-4.32-0.786c-2.856-0.771-5.706-1.955-8.224-3.731
				c-2.53-1.743-4.795-3.938-6.617-6.474c-2.559-1.958-4.515-4.734-5.725-7.816c-1.223-3.085-1.696-6.471-1.537-9.775
				c0.222-3.312,1.063-6.538,2.341-9.495c1.274-2.964,2.964-5.671,4.921-8.096c1.375-2.896,3.648-5.291,6.277-6.996
				c2.623-1.746,5.656-2.675,8.577-3.156c1.464-0.277,2.935-0.305,4.356-0.376c0.714-0.001,1.423,0.049,2.12,0.062
				c0.349,0.015,0.695,0.009,1.04,0.035l1.028,0.109c2.736,0.188,5.308,0.696,7.931,1.019c0.628,0.185,1.249,0.367,1.864,0.548
				c0.605,0.211,1.182,0.48,1.763,0.725c1.183,0.455,2.208,1.156,3.26,1.75c1.986,1.368,3.763,2.864,5.149,4.529
				c2.854,3.275,4.477,6.761,5.568,9.665c0.312,0.718,0.591,1.407,0.762,2.086c0.193,0.672,0.376,1.305,0.523,1.898
				c0.19,1.208,0.378,2.241,0.426,3.087C376.242,128.254,376.205,129.162,376.205,129.162h-2.063c0,0-0.763-0.86-1.5-2.283
				c-0.39-0.711-0.887-1.546-1.233-2.526c-0.226-0.48-0.448-0.992-0.629-1.549c-0.159-0.563-0.373-1.143-0.561-1.771
				c-0.605-2.555-2.035-5.552-4.527-8.259c-1.208-1.385-2.762-2.59-4.454-3.711c-0.903-0.471-1.766-1.061-2.768-1.426
				c-0.49-0.198-0.973-0.428-1.48-0.605c-0.515-0.154-1.035-0.31-1.561-0.467c-2.008-0.864-4.301-1.34-6.648-1.221l-0.879,0.016
				c-0.293,0.019-0.587,0.072-0.881,0.107c-0.586,0.087-1.177,0.146-1.761,0.259c-1.159,0.293-2.324,0.548-3.445,0.999
				c-2.246,0.838-4.435,1.88-6.494,3.219c-2.075,1.315-4.097,2.779-6.22,4.439c-2.193,1.615-3.847,3.956-4.851,6.55
				c-1.018,2.6-1.387,5.447-1.23,8.229c0.22,2.79,0.952,5.48,2.023,7.952c1.068,2.478,2.457,4.752,4.058,6.827
				c1.02,2.543,2.813,4.731,4.978,6.347c2.154,1.654,4.731,2.601,7.26,3.101c1.265,0.286,2.553,0.32,3.796,0.384
				c0.626-0.003,1.249-0.061,1.86-0.088c0.306-0.021,0.608-0.023,0.91-0.06l0.896-0.144c2.385-0.293,4.571-1.023,6.628-1.722
				c0.526-0.156,1.047-0.311,1.562-0.463c0.505-0.184,0.981-0.426,1.463-0.643c0.982-0.399,1.81-1.044,2.664-1.571
				c1.596-1.236,2.991-2.563,4.062-4.001c2.223-2.831,3.486-5.593,5.038-7.79c0.108-0.657,0.262-1.251,0.375-1.822
				c0.135-0.564,0.328-1.076,0.537-1.555c0.313-0.975,0.829-1.793,1.261-2.493c0.819-1.397,1.75-2.26,1.75-2.26
				S375.841,129.162,376.205,129.162z"/>
		</g>
	</g>
</g>
<g>
	<g>
		<g>
			<path fill-rule="evenodd" clip-rule="evenodd" d="M262.428,46.406c0,0-0.157,0.078-0.47,0.185
				c-0.312,0.107-0.777,0.25-1.389,0.398c-1.223,0.296-3.031,0.617-5.369,0.723c-4.679,0.191-11.184,1.15-18.64,3.367
				c-7.567,1.595-16.302,3.26-25.486,4.604c-8.861,3.135-18.641,3.364-27.77,5.016c-8.872,3.079-18.055,2.253-25.487,4.604
				c-7.539,1.758-14.083,2.499-18.64,3.367c-4.537,0.977-7.228,1.306-7.228,1.306l-0.184-1.016c0,0,2.408-1.892,7.008-2.52
				c4.616-0.539,11.08-1.725,18.64-3.367c7.683-0.959,16.137-4.174,25.487-4.604c9.373-0.306,18.617-3.493,27.77-5.016
				c9.409-0.101,17.893-3.152,25.487-4.604c7.671-1.027,13.947-3.244,18.64-3.367c4.47-1.351,7.447-0.09,7.447-0.09
				S262.396,46.227,262.428,46.406z"/>
		</g>
		<g>
			<path d="M253.437,54.298c-0.281-0.303-0.263-0.779,0.042-1.06l8.43-7.787l-10.621-4.345c-0.383-0.157-0.567-0.596-0.41-0.979
				s0.599-0.565,0.979-0.41l11.71,4.792c0.237,0.097,0.408,0.309,0.454,0.561s-0.041,0.511-0.229,0.685l-9.294,8.585
				c-0.108,0.1-0.239,0.162-0.375,0.187C253.878,54.571,253.617,54.493,253.437,54.298z"/>
		</g>
	</g>
</g>
<g>
	<g>
		<g>
			<path fill-rule="evenodd" clip-rule="evenodd" d="M299.363,123.584c0,0-0.226-0.003-0.649-0.054
				c-0.425-0.05-1.05-0.141-1.854-0.294c-1.607-0.308-3.931-0.87-6.794-1.874c-5.723-2.03-13.991-4.226-23.977-5.731
				c-9.839-2.121-21.113-4.728-32.784-7.837c-12.096-1.338-23.977-5.733-35.721-8.538c-12.082-1.395-22.768-6.462-32.785-7.837
				c-9.877-1.959-18.094-4.371-23.977-5.731c-5.908-1.253-9.297-2.222-9.297-2.222l0.24-1.004c0,0,3.759-0.575,9.584,1.021
				c5.804,1.687,14.127,3.657,23.977,5.731c9.688,2.749,21.329,3.824,32.785,7.837c11.426,4.135,24.006,5.606,35.72,8.538
				c11.378,4.337,22.98,5.573,32.784,7.837c9.705,2.682,18.271,3.634,23.977,5.731c5.996,0.883,9.011,3.423,9.011,3.423
				S299.406,123.407,299.363,123.584z"/>
		</g>
		<g>
			<path d="M287.959,127.2c-0.136-0.392,0.073-0.818,0.465-0.954l10.847-3.745l-7.981-8.245c-0.287-0.298-0.28-0.773,0.018-1.061
				c0.298-0.288,0.774-0.277,1.061,0.017l8.8,9.092c0.178,0.185,0.25,0.447,0.19,0.696s-0.242,0.451-0.484,0.535l-11.96,4.129
				c-0.14,0.048-0.285,0.053-0.419,0.021C288.254,127.627,288.047,127.451,287.959,127.2z"/>
		</g>
	</g>
</g>
</svg>
