<?xml version="1.0" encoding="utf-8"?>
<!-- Generator: Adobe Illustrator 16.0.0, SVG Export Plug-In . SVG Version: 6.00 Build 0)  -->
<!DOCTYPE svg PUBLIC "-//W3C//DTD SVG 1.1//EN" "http://www.w3.org/Graphics/SVG/1.1/DTD/svg11.dtd">
<svg version="1.1" id="Layer_1" xmlns="http://www.w3.org/2000/svg" xmlns:xlink="http://www.w3.org/1999/xlink" x="0px" y="0px"
	 width="400px" height="200px" viewBox="0 0 400 200" enable-background="new 0 0 400 200" xml:space="preserve">
<g>
	<g>
		<g>
			<path fill-rule="evenodd" clip-rule="evenodd" fill="#C0C0C0" d="M313.04,138.201c0,0-0.064-0.102-0.146-0.305
				c-0.08-0.202-0.184-0.505-0.28-0.903c-0.194-0.798-0.363-1.98-0.278-3.519c0.192-3.079-0.228-7.339-1.815-12.188
				c-0.963-4.941-1.899-10.649-2.482-16.665c-2.383-5.747-1.812-12.188-2.704-18.157c-2.326-5.755-0.761-11.836-2.482-16.665
				c-1.128-4.917-1.327-9.209-1.815-12.188c-0.598-2.962-0.704-4.726-0.704-4.726l1.021-0.152c0,0,1.678,1.53,1.925,4.544
				c0.157,3.027,0.806,7.253,1.815,12.188c0.324,5.037,2.819,10.513,2.482,16.665c-0.462,6.171,1.941,12.169,2.704,18.157
				c-0.666,6.201,1.665,11.702,2.482,16.665c0.394,5.026,2.077,9.098,1.815,12.188c0.974,2.906-0.517,4.908-0.517,4.908
				S313.22,138.174,313.04,138.201z"/>
		</g>
	</g>
</g>
<g>
	<g>
		<g>
			<path fill-rule="evenodd" clip-rule="evenodd" fill="#C0C0C0" d="M327.748,136.589c0,0-0.062-0.108-0.135-0.322
				c-0.073-0.213-0.167-0.531-0.25-0.948c-0.167-0.835-0.296-2.068-0.158-3.658c0.298-3.184,0.024-7.616-1.397-12.71
				c-0.794-5.163-1.535-11.12-1.912-17.379c-2.186-6.061-1.396-12.71-2.082-18.936c-2.129-6.066-0.355-12.299-1.912-17.379
				c-0.958-5.145-1.011-9.602-1.397-12.71c-0.496-3.096-0.542-4.928-0.542-4.928l1.025-0.113c0,0,1.625,1.659,1.77,4.793
				c0.054,3.145,0.557,7.552,1.397,12.71c0.151,5.234,2.459,11.018,1.912,17.379c-0.673,6.375,1.524,12.696,2.082,18.935
				c-0.878,6.397,1.264,12.2,1.912,17.379c0.221,5.227,1.765,9.52,1.397,12.71c0.874,3.055-0.685,5.063-0.685,5.063
				S327.929,136.568,327.748,136.589z"/>
		</g>
	</g>
</g>
<g>
	<g>
		<g>
			<path fill-rule="evenodd" clip-rule="evenodd" fill="#C0C0C0" d="M364.988,133.329c0,0-0.042-0.129-0.081-0.375
				c-0.038-0.246-0.079-0.61-0.094-1.081c-0.031-0.943,0.039-2.315,0.431-4.035c0.805-3.438,1.245-8.341,0.659-14.161
				c0.045-5.791,0.268-12.441,0.9-19.363c-1.187-7.007,0.661-14.162,0.981-21.098c-1.128-7.003,1.623-13.537,0.9-19.363
				c-0.121-5.798,0.542-10.691,0.659-14.161c0.007-3.476,0.255-5.491,0.255-5.491l1.031,0.048c0,0,1.338,2.09,0.978,5.548
				c-0.451,3.455-0.661,8.369-0.659,14.161c-0.689,5.761,0.66,12.485-0.9,19.364c-1.687,6.873-0.531,14.167-0.981,21.097
				c-1.894,6.863-0.71,13.58-0.9,19.364c-0.621,5.764,0.215,10.726-0.659,14.161c0.373,3.492-1.488,5.434-1.488,5.434
				S365.171,133.338,364.988,133.329z"/>
		</g>
	</g>
</g>
<g>
	<g>
		<g>
			<path fill-rule="evenodd" clip-rule="evenodd" fill="#C0C0C0" d="M352.987,132.008c0,0-0.05-0.118-0.101-0.348
				c-0.052-0.229-0.112-0.568-0.153-1.01c-0.081-0.884-0.085-2.176,0.213-3.811c0.618-3.269,0.794-7.895-0.106-13.328
				c-0.267-5.438-0.402-11.693-0.145-18.224c-1.562-6.516-0.104-13.328-0.158-19.856c-1.505-6.517,0.89-12.792-0.146-18.224
				c-0.434-5.437-0.035-10.064-0.106-13.328c-0.181-3.263-0.041-5.168-0.041-5.168l1.032-0.008c0,0,1.448,1.893,1.275,5.158
				c-0.265,3.266-0.209,7.89,0.106,13.328c-0.379,5.443,1.332,11.686,0.145,18.224c-1.312,6.539,0.234,13.327,0.158,19.856
				c-1.521,6.541,0.024,12.785,0.146,18.224c-0.309,5.442,0.794,10.059,0.106,13.328c0.561,3.26-1.193,5.178-1.193,5.178
				S353.17,132.007,352.987,132.008z"/>
		</g>
	</g>
</g>
<g>
	<g>
		<g>
			<path fill-rule="evenodd" clip-rule="evenodd" fill="#C0C0C0" d="M343.206,134.899c0,0-0.058-0.113-0.124-0.336
				s-0.149-0.554-0.219-0.987c-0.141-0.866-0.229-2.141-0.04-3.773c0.399-3.269,0.269-7.845-0.989-13.146
				c-0.627-5.349-1.177-11.513-1.352-17.975c-1.99-6.326-0.986-13.146-1.473-19.584c-1.933-6.33,0.04-12.684-1.353-17.975
				c-0.793-5.336-0.702-9.93-0.988-13.146c-0.396-3.208-0.384-5.097-0.384-5.097l1.029-0.078c0,0,1.57,1.771,1.614,5.005
				c-0.047,3.241,0.313,7.8,0.988,13.146c-0.017,5.397,2.104,11.443,1.353,17.975c-0.878,6.541,1.116,13.136,1.473,19.584
				c-1.084,6.557,0.871,12.616,1.352,17.975c0.053,5.393,1.458,9.873,0.989,13.146c0.775,3.18-0.848,5.19-0.848,5.19
				S343.388,134.886,343.206,134.899z"/>
		</g>
	</g>
</g>
<g>
	<g>
		<g>
			<path fill-rule="evenodd" clip-rule="evenodd" fill="#C0C0C0" d="M111.69,163.723c-0.025,0.007-0.68-0.134-0.217-0.804
				c0.485-0.676,0.496-1.451-0.559-2.074c-0.445-0.788-0.79-1.739-0.765-2.836c-1.732-0.623-0.557-2.075-0.833-3.09
				c-1.676-0.638,0.421-2.248-0.765-2.836c-0.605-0.745-0.379-1.578-0.559-2.074c-0.287-0.468-0.217-0.805-0.217-0.805l0.997-0.269
				c0,0,1.464-0.077,1.409,0.482c-0.144,0.584,0.068,1.299,0.559,2.074c-0.179,0.957,1.688,1.498,0.765,2.836
				c-1.044,1.372,0.682,2.041,0.833,3.09c-1.245,1.426,0.461,2.01,0.765,2.837c-0.111,0.938,1.111,1.38,0.56,2.073
				c0.653,0.369-0.975,1.126-0.975,1.126S111.866,163.676,111.69,163.723z"/>
		</g>
	</g>
</g>
<g>
	<g>
		<g>
			<path fill-rule="evenodd" clip-rule="evenodd" fill="#C0C0C0" d="M122.944,159.267c-0.026-0.001-0.604-0.396,0.048-0.996
				c0.674-0.599,0.929-1.48,0.124-2.57c-0.173-1.061-0.201-2.271,0.169-3.515c-1.448-1.332,0.126-2.57,0.185-3.829
				c-1.391-1.329,1.109-2.418,0.169-3.515c-0.34-1.068,0.138-1.938,0.124-2.57c-0.125-0.637,0.048-0.997,0.048-0.997l1.031,0.05
				c0,0,1.414,0.437,1.185,1.056c-0.32,0.616-0.345,1.509-0.124,2.57c-0.472,1.029,1.129,2.315-0.169,3.515
				c-1.425,1.193,0.004,2.576-0.184,3.829c-1.632,1.184-0.197,2.462-0.169,3.515c-0.402,1.032,0.62,1.976-0.124,2.57
				c0.504,0.655-1.281,0.938-1.281,0.938S123.126,159.275,122.944,159.267z"/>
		</g>
	</g>
</g>
<g>
	<g>
		<g>
			<path fill-rule="evenodd" clip-rule="evenodd" fill="#C0C0C0" d="M136.988,159.293c-0.013,0-0.166-0.128-0.235-0.362
				c-0.069-0.233-0.055-0.572,0.265-0.994c0.663-0.843,0.902-2.052,0.078-3.499c-0.192-1.434-0.242-3.078,0.106-4.784
				c-1.472-1.748,0.081-3.5,0.116-5.214c-1.414-1.746,1.066-3.334,0.106-4.784c-0.358-1.437,0.104-2.642,0.078-3.499
				c-0.136-0.86,0.03-1.357,0.03-1.357l1.032,0.023c0,0,1.422,0.532,1.204,1.385c-0.309,0.85-0.318,2.064-0.078,3.499
				c-0.454,1.419,1.17,3.098-0.107,4.784c-1.403,1.684,0.05,3.502-0.116,5.213c-1.61,1.679-0.152,3.354-0.106,4.785
				c-0.384,1.42,0.654,2.658-0.078,3.499c0.516,0.868-1.264,1.329-1.264,1.329S137.17,159.298,136.988,159.293z"/>
		</g>
	</g>
</g>
<g>
	<g>
		<g>
			<path fill-rule="evenodd" clip-rule="evenodd" fill="#C0C0C0" d="M154.995,158.088c-0.013,0.001-0.187-0.148-0.298-0.452
				c-0.111-0.303-0.158-0.76,0.083-1.372c0.504-1.228,0.522-2.884-0.554-4.704c-0.449-1.894-0.794-4.091-0.758-6.432
				c-1.771-2.127-0.552-4.703-0.825-7.007c-1.714-2.134,0.454-4.628-0.758-6.432c-0.614-1.874-0.374-3.557-0.554-4.704
				c-0.29-1.134-0.215-1.823-0.215-1.823l1.025-0.121c0,0,1.503,0.504,1.441,1.68c-0.153,1.186,0.058,2.815,0.554,4.703
				c-0.193,1.97,1.717,3.983,0.757,6.432c-1.084,2.464,0.681,4.689,0.826,7.008c-1.291,2.488,0.454,4.521,0.758,6.432
				c-0.124,1.961,1.127,3.468,0.554,4.703c0.667,1.09-1.011,1.969-1.011,1.969S155.176,158.066,154.995,158.088z"/>
		</g>
	</g>
</g>
<g>
	<g>
		<g>
			<path fill-rule="evenodd" clip-rule="evenodd" fill="#C0C0C0" d="M164.988,156.183c-0.013-0.001-0.167-0.179-0.237-0.508
				c-0.07-0.328-0.058-0.808,0.261-1.408c0.66-1.202,0.894-2.913,0.062-4.94c-0.198-2.02-0.255-4.34,0.085-6.756
				c-1.479-2.439,0.065-4.94,0.093-7.361c-1.422-2.438,1.052-4.726,0.085-6.755c-0.365-2.021,0.092-3.73,0.062-4.941
				c-0.14-1.212,0.024-1.915,0.024-1.915l1.032,0.013c0,0,1.424,0.724,1.21,1.932c-0.306,1.206-0.309,2.92-0.062,4.94
				c-0.447,2.012,1.185,4.352-0.085,6.756c-1.396,2.402,0.065,4.942-0.093,7.36c-1.603,2.4-0.138,4.738-0.085,6.756
				c-0.377,2.012,0.667,3.739-0.062,4.94c0.52,1.217-1.258,1.9-1.258,1.9S165.17,156.185,164.988,156.183z"/>
		</g>
	</g>
</g>
<g>
	<g>
		<g>
			<path fill-rule="evenodd" clip-rule="evenodd" fill="#C0C0C0" d="M181.414,151.824c-0.013,0-0.173-0.187-0.257-0.537
				c-0.084-0.352-0.092-0.868,0.202-1.528c0.608-1.322,0.771-3.176-0.144-5.326c-0.283-2.168-0.436-4.665-0.196-7.282
				c-1.581-2.567-0.142-5.326-0.214-7.935c-1.522-2.569,0.854-5.135-0.197-7.282c-0.449-2.163-0.064-4.022-0.144-5.326
				c-0.19-1.3-0.056-2.064-0.056-2.064l1.032-0.028c0,0,1.454,0.722,1.29,2.032c-0.255,1.312-0.187,3.159,0.144,5.325
				c-0.363,2.186,1.365,4.641,0.197,7.282c-1.295,2.646,0.271,5.323,0.214,7.935c-1.502,2.651,0.06,5.111,0.196,7.282
				c-0.293,2.184,0.822,4.003,0.144,5.326c0.57,1.29-1.178,2.099-1.178,2.099S181.596,151.818,181.414,151.824z"/>
		</g>
	</g>
</g>
<g>
	<g>
		<g>
			<path fill-rule="evenodd" clip-rule="evenodd" fill="#C0C0C0" d="M198.863,151.873c-0.006,0-0.053-0.054-0.11-0.159
				c-0.058-0.105-0.127-0.263-0.18-0.471c-0.106-0.416-0.146-1.032,0.106-1.833c0.526-1.603,0.573-3.821-0.475-6.35
				c-0.417-2.575-0.726-5.549-0.649-8.683c-1.739-2.997-0.473-6.35-0.708-9.46c-1.681-3.002,0.534-6.164-0.649-8.683
				c-0.583-2.562-0.314-4.798-0.475-6.35c-0.271-1.543-0.184-2.462-0.184-2.462l1.029-0.077c0,0,1.498,0.8,1.415,2.37
				c-0.173,1.577,0.01,3.778,0.475,6.35c-0.227,2.624,1.652,5.48,0.649,8.683c-1.129,3.212,0.602,6.341,0.707,9.46
				c-1.336,3.228,0.378,6.097,0.649,8.683c-0.157,2.618,1.069,4.742,0.475,6.35c0.649,1.516-1.047,2.555-1.047,2.555
				S199.045,151.859,198.863,151.873z"/>
		</g>
	</g>
</g>
<g>
	<g>
		<g>
			<path fill-rule="evenodd" clip-rule="evenodd" fill="#C0C0C0" d="M215.655,151.822c-0.007,0-0.051-0.064-0.104-0.19
				c-0.054-0.125-0.116-0.312-0.159-0.556c-0.087-0.487-0.1-1.203,0.188-2.114c0.597-1.823,0.743-4.388-0.19-7.377
				c-0.302-3.005-0.478-6.465-0.261-10.086c-1.604-3.574-0.188-7.377-0.284-10.99c-1.545-3.576,0.809-7.102-0.261-10.087
				c-0.468-3.001-0.099-5.571-0.19-7.377c-0.201-1.802-0.073-2.86-0.073-2.86l1.031-0.027c0,0,1.46,1.017,1.308,2.828
				c-0.243,1.814-0.159,4.373,0.19,7.377c-0.344,3.022,1.406,6.441,0.261,10.087c-1.271,3.648,0.318,7.373,0.284,10.99
				c-1.479,3.653,0.104,7.077,0.261,10.086c-0.274,3.021,0.856,5.552,0.19,7.377c0.581,1.793-1.16,2.893-1.16,2.893
				S215.837,151.817,215.655,151.822z"/>
		</g>
	</g>
</g>
<g>
	<g>
		<g>
			<path fill-rule="evenodd" clip-rule="evenodd" fill="#C0C0C0" d="M235.433,147.174c-0.007,0-0.057-0.076-0.122-0.227
				s-0.146-0.375-0.214-0.671c-0.135-0.592-0.218-1.469-0.021-2.606c0.416-2.278,0.309-5.436-0.918-9.037
				c-0.598-3.666-1.114-7.898-1.255-12.356c-1.952-4.273-0.916-9.037-1.368-13.463c-1.895-4.279,0.106-8.768-1.255-12.356
				c-0.763-3.649-0.648-6.828-0.918-9.037c-0.379-2.197-0.355-3.504-0.355-3.504l1.026-0.104c0,0,1.558,1.146,1.584,3.379
				c-0.064,2.242,0.272,5.375,0.918,9.037c-0.045,3.731,2.038,7.805,1.255,12.356c-0.908,4.563,1.045,9.023,1.368,13.463
				c-1.115,4.585,0.803,8.676,1.255,12.356c0.024,3.724,1.403,6.751,0.918,9.036c0.757,2.159-0.872,3.629-0.872,3.629
				S235.613,147.155,235.433,147.174z"/>
		</g>
	</g>
</g>
<g>
	<g>
		<g>
			<path fill-rule="evenodd" clip-rule="evenodd" fill="#C0C0C0" d="M249.991,144.876c-0.007,0.001-0.057-0.09-0.122-0.269
				c-0.064-0.178-0.145-0.443-0.212-0.792c-0.134-0.696-0.215-1.725-0.015-3.048c0.422-2.65,0.321-6.345-0.898-10.598
				c-0.591-4.307-1.098-9.273-1.229-14.49c-1.945-5.063-0.896-10.598-1.339-15.788c-1.888-5.068,0.126-10.249-1.229-14.49
				c-0.756-4.292-0.634-8.006-0.898-10.598c-0.374-2.582-0.349-4.109-0.349-4.109l1.028-0.087c0,0,1.557,1.393,1.578,4.005
				c-0.068,2.62,0.262,6.295,0.899,10.597c-0.054,4.361,2.023,9.195,1.229,14.49c-0.92,5.306,1.026,10.586,1.34,15.789
				c-1.127,5.323,0.784,10.171,1.229,14.49c0.017,4.354,1.39,7.941,0.899,10.597c0.753,2.551-0.882,4.214-0.882,4.214
				S250.173,144.861,249.991,144.876z"/>
		</g>
	</g>
</g>
<g>
	<g>
		<g>
			<path fill-rule="evenodd" clip-rule="evenodd" fill="#C0C0C0" d="M265.739,143.156c-0.007,0.001-0.055-0.102-0.114-0.302
				c-0.06-0.199-0.132-0.496-0.188-0.884c-0.113-0.775-0.163-1.914,0.076-3.366c0.5-2.908,0.51-6.992-0.583-11.741
				c-0.462-4.781-0.822-10.288-0.798-16.055c-1.794-5.676-0.581-11.741-0.869-17.492c-1.736-5.679,0.432-11.311-0.798-16.054
				c-0.628-4.773-0.396-8.868-0.583-11.741c-0.297-2.868-0.226-4.553-0.226-4.553l1.03-0.051c0,0,1.516,1.606,1.459,4.491
				c-0.147,2.89,0.073,6.962,0.583,11.741c-0.183,4.813,1.75,10.242,0.798,16.054c-1.078,5.818,0.711,11.735,0.869,17.492
				c-1.285,5.829,0.481,11.266,0.798,16.055c-0.114,4.81,1.152,8.83,0.583,11.74c0.677,2.849-1.007,4.614-1.007,4.614
				S265.921,143.147,265.739,143.156z"/>
		</g>
	</g>
</g>
<g>
	<g>
		<g>
			<path fill-rule="evenodd" clip-rule="evenodd" fill="#C0C0C0" d="M282.393,141.347c0,0-0.051-0.105-0.105-0.312
				c-0.054-0.206-0.118-0.512-0.164-0.91c-0.093-0.796-0.112-1.963,0.166-3.442c0.579-2.961,0.698-7.139-0.268-12.03
				c-0.333-4.904-0.544-10.55-0.365-16.448c-1.641-5.859-0.265-12.03-0.398-17.922c-1.583-5.86,0.735-11.561-0.365-16.449
				c-0.5-4.901-0.158-9.084-0.268-12.03c-0.221-2.942-0.104-4.665-0.104-4.665l1.031-0.023c0,0,1.472,1.687,1.338,4.637
				c-0.225,2.953-0.113,7.125,0.268,12.03c-0.312,4.919,1.474,10.529,0.365,16.449c-1.234,5.922,0.396,12.026,0.398,17.922
				c-1.441,5.927,0.179,11.541,0.366,16.449c-0.243,4.918,0.915,9.067,0.267,12.029c0.601,2.935-1.13,4.692-1.13,4.692
				S282.575,141.343,282.393,141.347z"/>
		</g>
	</g>
</g>
<g>
	<g>
		<g>
			<path fill-rule="evenodd" clip-rule="evenodd" fill="#C0C0C0" d="M296.756,139.838c0,0-0.054-0.107-0.113-0.316
				s-0.132-0.519-0.188-0.924c-0.113-0.81-0.162-1.998,0.078-3.514c0.502-3.032,0.515-7.295-0.576-12.258
				c-0.458-4.993-0.814-10.743-0.787-16.762c-1.79-5.933-0.572-12.258-0.857-18.262c-1.732-5.936,0.439-11.804-0.787-16.761
				c-0.625-4.985-0.39-9.258-0.575-12.258c-0.296-2.995-0.224-4.753-0.224-4.753l1.031-0.048c0,0,1.515,1.684,1.456,4.695
				c-0.148,3.016,0.069,7.268,0.576,12.258c-0.187,5.023,1.742,10.699,0.787,16.761c-1.082,6.068,0.703,12.252,0.857,18.262
				c-1.289,6.078,0.474,11.762,0.787,16.762c-0.117,5.02,1.146,9.223,0.575,12.258c0.676,2.978-1.01,4.812-1.01,4.812
				S296.938,139.829,296.756,139.838z"/>
		</g>
	</g>
</g>
<g>
	<g>
		<g>
			<path fill-rule="evenodd" clip-rule="evenodd" fill="#C8C8B4" d="M370.851,134.053c0,0.006-0.092,0.04-0.274,0.096
				c-0.184,0.055-0.457,0.13-0.818,0.219c-0.722,0.178-1.796,0.408-3.199,0.633c-2.808,0.45-6.936,0.878-12.212,0.816
				c-10.56-0.166-25.362,0.989-42.562,4.551c-17.326,2.304-37.291,4.611-58.196,6.223c-10.291,2.479-20.943,3.269-31.635,3.794
				c-2.674,0.106-5.35,0.214-8.021,0.321c-1.339,0.023-2.669,0.132-3.997,0.246l-3.981,0.327
				c-5.301,0.444-10.571,0.933-15.767,1.603c-20.457,5.56-40.924,3.264-58.019,7.463c-17.225,3.002-32.05,4.032-42.431,5.457
				c-10.353,1.644-16.453,2.116-16.453,2.116l-0.263-2.047c0,0,5.7-3.624,16.15-4.566c10.472-0.762,25.195-2.692,42.463-5.462
				c17.425-1.391,36.988-7.255,58.062-7.467c5.273,0.01,10.561-0.343,15.852-0.914l3.969-0.468c1.322-0.176,2.646-0.355,3.979-0.46
				c2.659-0.256,5.318-0.549,7.976-0.86c10.625-1.274,21.24-2.747,31.69-3.596c21.138,0.903,40.825-4.208,58.17-6.22
				c17.438-1.156,31.976-4.854,42.542-4.549c10.305-2.178,16.759,0.691,16.759,0.691S370.812,133.689,370.851,134.053z"/>
		</g>
	</g>
</g>
<g>
	<g>
		<g>
			<path fill-rule="evenodd" clip-rule="evenodd" fill="#42B3C6" d="M371.145,36.247c0.001,0.006-0.095,0.056-0.286,0.142
				s-0.478,0.207-0.858,0.355c-0.761,0.298-1.896,0.708-3.391,1.169c-2.989,0.921-7.416,2.044-13.157,2.876
				c-11.495,1.621-27.43,5.273-45.627,11.712c-8.391,2.364-17.368,4.82-26.792,7.282c-4.712,1.231-9.535,2.463-14.451,3.687
				c-2.46,0.604-4.941,1.213-7.442,1.827c-1.252,0.301-2.508,0.603-3.77,0.906l-1.896,0.45l-0.951,0.225l-0.257,0.056l-0.169,0.033
				c-1.383,1.177-2.878,2.451-4.38,3.729c-4.979,5.811-10.474,11.206-16.216,16.376c-2.871,2.586-5.804,5.116-8.765,7.614
				c-3.08,2.566-6.161,5.133-9.236,7.695c-3.826,1.636-7.645,3.268-11.442,4.892c-3.667,1.592-7.298,3.214-10.866,4.905
				c-19.608,12.502-41.684,17.549-58.21,27.573c-17.042,8.937-32.185,15.146-42.572,20.165c-10.293,5.219-16.507,7.819-16.507,7.819
				l-0.884-1.865c0,0,4.854-5.472,15.451-10.051c10.674-4.413,25.428-11.442,42.572-20.165c17.737-7.469,36.298-19.937,58.21-27.573
				c3.768-1.268,7.49-2.699,11.176-4.249c1.844-0.774,3.678-1.579,5.505-2.408l2.735-1.261l2.551-1.21l4.118-3.811l4.214-4.001
				c2.783-2.695,5.567-5.391,8.346-8.081c5.548-5.387,11.091-10.728,16.791-15.737c0.881-0.598,1.751-1.205,2.611-1.817l1.282-0.924
				l0.656-0.484l0.929-0.735l1.382-0.266l0.962-0.165l1.916-0.346c1.272-0.237,2.538-0.489,3.796-0.752
				c2.515-0.528,4.999-1.105,7.453-1.717c4.908-1.226,9.695-2.595,14.365-4c9.341-2.811,18.215-5.765,26.657-8.005
				c18.798-4.099,34.098-10.226,45.627-11.713c10.907-3.904,18.306-2.15,18.306-2.15S371.054,35.894,371.145,36.247z"/>
		</g>
	</g>
</g>
<g>
	<g>
		<g>
			<path fill-rule="evenodd" clip-rule="evenodd" fill="#ED6756" d="M32.925,38.882c0,0,0.048,0.162,0.098,0.474
				s0.107,0.775,0.145,1.377c0.075,1.203,0.068,2.962-0.243,5.183c-0.645,4.443-0.856,10.736,0,18.141
				c0.224,7.404,0.31,15.92,0,24.805c1.51,8.886-0.003,18.142,0,27.027c1.452,8.885-0.992,17.4,0,24.805
				c0.39,7.405-0.045,13.698,0,18.142c0.154,4.442,0,7.034,0,7.034h-1.032c0,0-1.434-2.592-1.234-7.034
				c0.29-4.443,0.272-10.736,0-18.142c0.422-7.404-1.239-15.92,0-24.805c1.365-8.886-0.128-18.142,0-27.027
				c1.573-8.885,0.078-17.401,0-24.805c0.352-7.405-0.713-13.698,0-18.141c-0.535-4.443,1.234-7.034,1.234-7.034
				S32.742,38.882,32.925,38.882z"/>
		</g>
		<g>
			<path fill="#ED6756" d="M39.092,49.133c-0.349,0.223-0.813,0.12-1.036-0.229l-6.164-9.679l-6.164,9.679
				c-0.223,0.349-0.687,0.452-1.036,0.229s-0.45-0.689-0.23-1.035l6.797-10.672c0.138-0.216,0.376-0.347,0.633-0.347
				s0.495,0.131,0.633,0.347l6.797,10.672c0.079,0.124,0.117,0.264,0.117,0.402C39.439,48.747,39.316,48.989,39.092,49.133z"/>
		</g>
	</g>
</g>
<g>
	<g>
		<g>
			<path fill-rule="evenodd" clip-rule="evenodd" fill="#ED6756" d="M378.097,164.499c0,0-0.426,0.052-1.247,0.107
				s-2.039,0.122-3.621,0.171c-3.165,0.097-7.791,0.124-13.638-0.146c-11.692-0.56-28.251-0.653-47.724,0.344
				c-19.478,0.364-41.879,0.611-65.256,0.47c-23.364,1.678-47.724,0.341-71.1,0.511c-23.364,1.621-45.783-0.662-65.255,0.47
				c-19.477,0.53-36.037,0.215-47.724,0.343c-11.687,0.239-18.505,0.134-18.505,0.134l-0.007-1.032c0,0,6.808-1.482,18.497-1.367
				c11.689,0.206,28.247,0.068,47.724-0.344c19.483,0.281,41.872-1.54,65.256-0.469c23.385,1.197,47.723-0.472,71.099-0.512
				c23.387,1.404,45.777-0.252,65.256-0.47c19.482,0.212,36.031-0.973,47.725-0.343c11.683-0.619,18.514,1.101,18.514,1.101
				S378.096,164.316,378.097,164.499z"/>
		</g>
		<g>
			<path fill="#ED6756" d="M367.89,170.74c-0.225-0.347-0.125-0.812,0.223-1.037l9.635-6.233l-9.724-6.095
				c-0.351-0.22-0.457-0.684-0.237-1.034c0.22-0.35,0.686-0.454,1.034-0.237l10.721,6.721c0.217,0.136,0.35,0.373,0.352,0.63
				s-0.128,0.496-0.343,0.636l-10.623,6.873c-0.124,0.08-0.264,0.119-0.401,0.12C368.278,171.085,368.035,170.964,367.89,170.74z"/>
		</g>
	</g>
</g>
<g>
	<path fill="#ED6756" d="M31.062,23.383c-0.019-0.246-0.041-0.526-0.068-0.841s-0.062-0.641-0.103-0.978s-0.096-0.67-0.164-0.998
		s-0.148-0.624-0.239-0.889c-0.237,0-0.472,0.029-0.704,0.089s-0.465,0.123-0.697,0.191s-0.47,0.135-0.711,0.198
		s-0.49,0.101-0.745,0.109c-0.137,0-0.265-0.032-0.383-0.096s-0.178-0.183-0.178-0.355c0-0.137,0.084-0.239,0.253-0.308
		s0.381-0.121,0.636-0.157s0.528-0.063,0.82-0.082s0.565-0.041,0.82-0.068s0.467-0.068,0.636-0.123s0.253-0.137,0.253-0.246V16
		c0-0.082,0.022-0.144,0.068-0.185s0.101-0.073,0.164-0.096s0.13-0.036,0.198-0.041s0.121-0.007,0.157-0.007
		c0.2,0,0.33,0.034,0.39,0.103s0.111,0.234,0.157,0.499c0.019,0.082,0.043,0.232,0.075,0.451s0.063,0.449,0.096,0.69
		s0.06,0.47,0.082,0.684s0.039,0.362,0.048,0.444h3.746c0,0.173-0.075,0.312-0.226,0.417s-0.347,0.185-0.588,0.239
		s-0.506,0.089-0.793,0.103s-0.569,0.022-0.848,0.027s-0.533,0.012-0.766,0.021s-0.408,0.027-0.526,0.055
		c-0.046,0.273-0.05,0.579-0.014,0.916s0.082,0.682,0.137,1.032s0.103,0.702,0.144,1.053s0.043,0.677,0.007,0.978
		c-0.055,0.046-0.142,0.094-0.26,0.144s-0.239,0.087-0.362,0.109s-0.232,0.019-0.328-0.014S31.09,23.511,31.062,23.383z"/>
	<path fill="#ED6756" d="M44.119,17.012c0.036-0.036,0.104-0.077,0.205-0.123s0.205-0.066,0.314-0.062s0.214,0.048,0.314,0.13
		s0.173,0.224,0.219,0.424c1.304-0.438,2.42-0.69,3.35-0.759s1.687-0.005,2.27,0.191s1.003,0.497,1.258,0.902
		s0.36,0.861,0.314,1.367s-0.234,1.037-0.567,1.593s-0.798,1.08-1.395,1.572s-1.317,0.928-2.16,1.306s-1.793,0.645-2.851,0.8
		c0,0.128,0.002,0.328,0.007,0.602s0.012,0.583,0.021,0.93s0.016,0.711,0.021,1.094s0.012,0.75,0.021,1.101s0.021,0.668,0.034,0.95
		s0.029,0.492,0.048,0.629c0.055,0.419-0.027,0.718-0.246,0.896s-0.52,0.244-0.902,0.198L44.119,17.012z M48.85,17.682
		c-0.355,0-0.747,0.041-1.176,0.123s-0.827,0.221-1.196,0.417s-0.672,0.46-0.909,0.793s-0.342,0.745-0.314,1.237v2.953
		c1.267-0.282,2.306-0.615,3.117-0.998s1.434-0.779,1.866-1.189s0.699-0.815,0.8-1.217s0.073-0.759-0.082-1.073
		s-0.419-0.567-0.793-0.759S49.351,17.682,48.85,17.682z"/>
	<path fill="#ED6756" d="M53.184,21.988c-0.082-0.738-0.012-1.458,0.212-2.16s0.561-1.321,1.012-1.859s0.996-0.964,1.634-1.278
		s1.335-0.463,2.092-0.444c0.128,0,0.299,0.019,0.513,0.055s0.442,0.094,0.684,0.171s0.479,0.176,0.711,0.294
		s0.438,0.26,0.615,0.424s0.312,0.349,0.403,0.554s0.114,0.436,0.068,0.69c-0.374,0.265-0.805,0.446-1.292,0.547
		s-0.984,0.171-1.49,0.212s-1,0.077-1.483,0.109s-0.904,0.116-1.265,0.253s-0.638,0.354-0.834,0.649s-0.258,0.723-0.185,1.278
		c0.137,0.501,0.362,0.87,0.677,1.107s0.679,0.381,1.094,0.431s0.856,0.027,1.326-0.068s0.93-0.221,1.381-0.376
		s0.873-0.319,1.265-0.492s0.716-0.314,0.971-0.424c0.118,0,0.219,0.043,0.301,0.13s0.123,0.189,0.123,0.308
		c-0.228,0.392-0.574,0.743-1.039,1.053s-0.989,0.561-1.572,0.752s-1.191,0.31-1.825,0.355s-1.229,0-1.784-0.137
		s-1.044-0.378-1.463-0.725S53.329,22.581,53.184,21.988z M58.01,17.271c-0.164,0-0.364,0.019-0.602,0.055s-0.465,0.101-0.684,0.191
		s-0.408,0.21-0.567,0.355s-0.239,0.333-0.239,0.561l3.391-0.561c-0.146-0.219-0.335-0.374-0.567-0.465S58.265,17.271,58.01,17.271z
		"/>
	<path fill="#ED6756" d="M64.641,23.957c0.647-0.21,1.251-0.456,1.812-0.738s1.03-0.561,1.408-0.834s0.634-0.526,0.766-0.759
		s0.096-0.408-0.109-0.526s-0.608-0.157-1.21-0.116s-1.454,0.198-2.557,0.472c-0.328-0.009-0.622-0.073-0.882-0.191
		s-0.48-0.265-0.663-0.438s-0.321-0.362-0.417-0.567s-0.144-0.403-0.144-0.595c0-0.301,0.103-0.6,0.308-0.896
		s0.48-0.576,0.827-0.841s0.747-0.504,1.203-0.718s0.935-0.388,1.436-0.52s1.014-0.219,1.538-0.26s1.027-0.016,1.511,0.075
		c0.273,0,0.433,0.121,0.479,0.362s0.068,0.631,0.068,1.169c-0.374-0.173-0.777-0.296-1.21-0.369s-0.868-0.101-1.306-0.082
		s-0.861,0.08-1.271,0.185s-0.772,0.251-1.087,0.438s-0.572,0.417-0.772,0.69s-0.306,0.583-0.314,0.93
		c0,0.191,0.075,0.316,0.226,0.376s0.328,0.087,0.533,0.082s0.419-0.027,0.643-0.068s0.403-0.062,0.54-0.062
		c1.23-0.265,2.188-0.374,2.871-0.328s1.144,0.191,1.381,0.438s0.273,0.562,0.109,0.95s-0.48,0.795-0.95,1.224
		s-1.064,0.846-1.784,1.251s-1.518,0.75-2.393,1.032c-0.046,0-0.096-0.034-0.15-0.103s-0.111-0.148-0.171-0.239
		s-0.111-0.178-0.157-0.26S64.668,23.984,64.641,23.957z"/>
	<path fill="#ED6756" d="M73.432,23.957c0.647-0.21,1.251-0.456,1.812-0.738s1.03-0.561,1.408-0.834s0.634-0.526,0.766-0.759
		s0.096-0.408-0.109-0.526s-0.608-0.157-1.21-0.116s-1.454,0.198-2.557,0.472c-0.328-0.009-0.622-0.073-0.882-0.191
		s-0.48-0.265-0.663-0.438s-0.321-0.362-0.417-0.567s-0.144-0.403-0.144-0.595c0-0.301,0.103-0.6,0.308-0.896
		s0.48-0.576,0.827-0.841s0.747-0.504,1.203-0.718s0.935-0.388,1.436-0.52s1.014-0.219,1.538-0.26s1.027-0.016,1.511,0.075
		c0.273,0,0.433,0.121,0.479,0.362s0.068,0.631,0.068,1.169c-0.374-0.173-0.777-0.296-1.21-0.369s-0.868-0.101-1.306-0.082
		s-0.861,0.08-1.271,0.185s-0.772,0.251-1.087,0.438s-0.572,0.417-0.772,0.69s-0.306,0.583-0.314,0.93
		c0,0.191,0.075,0.316,0.226,0.376s0.328,0.087,0.533,0.082s0.419-0.027,0.643-0.068s0.403-0.062,0.54-0.062
		c1.23-0.265,2.188-0.374,2.871-0.328s1.144,0.191,1.381,0.438s0.273,0.562,0.109,0.95s-0.48,0.795-0.95,1.224
		s-1.064,0.846-1.784,1.251s-1.518,0.75-2.393,1.032c-0.046,0-0.096-0.034-0.15-0.103s-0.111-0.148-0.171-0.239
		s-0.111-0.178-0.157-0.26S73.459,23.984,73.432,23.957z"/>
	<path fill="#ED6756" d="M80.746,20.99c0-0.747,0.164-1.388,0.492-1.921s0.743-0.978,1.244-1.333s1.048-0.627,1.641-0.813
		s1.157-0.308,1.695-0.362c0.52-0.027,1.007,0.039,1.463,0.198s0.848,0.385,1.176,0.677s0.581,0.638,0.759,1.039
		s0.244,0.825,0.198,1.271c0,0.747-0.148,1.401-0.444,1.962s-0.69,1.03-1.183,1.408s-1.064,0.661-1.716,0.848
		s-1.333,0.28-2.044,0.28c-1.075,0-1.892-0.251-2.447-0.752S80.746,22.157,80.746,20.99z M81.922,21.4
		c0,0.383,0.048,0.688,0.144,0.916s0.237,0.398,0.424,0.513s0.415,0.189,0.684,0.226s0.581,0.055,0.937,0.055
		c0.547,0,1.075-0.053,1.586-0.157s0.962-0.282,1.354-0.533s0.706-0.583,0.943-0.998s0.355-0.932,0.355-1.552
		c0-0.319-0.046-0.622-0.137-0.909s-0.228-0.538-0.41-0.752s-0.405-0.385-0.67-0.513s-0.565-0.191-0.902-0.191
		c-0.446,0.073-0.894,0.157-1.34,0.253s-0.866,0.269-1.258,0.52s-0.738,0.62-1.039,1.107S82.067,20.544,81.922,21.4z"/>
	<path fill="#ED6756" d="M96.879,21.4c-0.265,0.41-0.569,0.781-0.916,1.114s-0.727,0.615-1.142,0.848s-0.866,0.403-1.354,0.513
		s-1,0.142-1.538,0.096c-0.191,0-0.396-0.022-0.615-0.068s-0.422-0.118-0.608-0.219s-0.34-0.232-0.458-0.396
		s-0.178-0.369-0.178-0.615c-0.101-0.511-0.08-1.027,0.062-1.552s0.362-1.03,0.663-1.518s0.67-0.938,1.107-1.354
		s0.904-0.766,1.401-1.053s1.007-0.494,1.531-0.622s1.032-0.146,1.524-0.055c0.374,0,0.665,0.123,0.875,0.369
		s0.367,0.574,0.472,0.984s0.171,0.882,0.198,1.415s0.05,1.082,0.068,1.647s0.043,1.123,0.075,1.675s0.103,1.055,0.212,1.511h-1.012
		c-0.046-0.31-0.08-0.583-0.103-0.82s-0.043-0.458-0.062-0.663s-0.043-0.403-0.075-0.595S96.934,21.638,96.879,21.4z M95.84,17.75
		c-0.355-0.027-0.723,0.021-1.101,0.144s-0.743,0.296-1.094,0.52s-0.679,0.487-0.984,0.793s-0.572,0.622-0.8,0.95
		s-0.403,0.654-0.526,0.978s-0.173,0.622-0.15,0.896s0.125,0.506,0.308,0.697s0.465,0.319,0.848,0.383
		c0.547-0.009,1.073-0.148,1.579-0.417s0.957-0.602,1.354-0.998s0.727-0.825,0.991-1.285s0.436-0.887,0.513-1.278
		s0.043-0.72-0.103-0.984S96.25,17.75,95.84,17.75z"/>
	<path fill="#ED6756" d="M100.967,23.957c0.647-0.21,1.251-0.456,1.812-0.738s1.03-0.561,1.408-0.834s0.634-0.526,0.766-0.759
		s0.096-0.408-0.109-0.526s-0.608-0.157-1.21-0.116s-1.454,0.198-2.557,0.472c-0.328-0.009-0.622-0.073-0.882-0.191
		s-0.48-0.265-0.663-0.438s-0.321-0.362-0.417-0.567s-0.144-0.403-0.144-0.595c0-0.301,0.103-0.6,0.308-0.896
		s0.48-0.576,0.827-0.841s0.747-0.504,1.203-0.718s0.935-0.388,1.436-0.52s1.014-0.219,1.538-0.26s1.027-0.016,1.511,0.075
		c0.273,0,0.433,0.121,0.479,0.362s0.068,0.631,0.068,1.169c-0.374-0.173-0.777-0.296-1.21-0.369s-0.868-0.101-1.306-0.082
		s-0.861,0.08-1.271,0.185s-0.772,0.251-1.087,0.438s-0.572,0.417-0.772,0.69s-0.306,0.583-0.314,0.93
		c0,0.191,0.075,0.316,0.226,0.376s0.328,0.087,0.533,0.082s0.419-0.027,0.643-0.068s0.403-0.062,0.54-0.062
		c1.23-0.265,2.188-0.374,2.871-0.328s1.144,0.191,1.381,0.438s0.273,0.562,0.109,0.95s-0.48,0.795-0.95,1.224
		s-1.064,0.846-1.784,1.251s-1.518,0.75-2.393,1.032c-0.046,0-0.096-0.034-0.15-0.103s-0.111-0.148-0.171-0.239
		s-0.111-0.178-0.157-0.26S100.994,23.984,100.967,23.957z"/>
</g>
<g>
	<path fill="#ED6756" d="M318.137,185.534c-0.019-0.246-0.041-0.526-0.068-0.841s-0.062-0.641-0.103-0.978s-0.096-0.67-0.164-0.998
		s-0.148-0.624-0.239-0.889c-0.237,0-0.472,0.029-0.704,0.089s-0.465,0.123-0.697,0.191s-0.47,0.135-0.711,0.198
		s-0.49,0.101-0.745,0.109c-0.137,0-0.265-0.032-0.383-0.096s-0.178-0.183-0.178-0.355c0-0.137,0.084-0.239,0.253-0.308
		s0.381-0.121,0.636-0.157s0.528-0.063,0.82-0.082s0.565-0.041,0.82-0.068s0.467-0.068,0.636-0.123s0.253-0.137,0.253-0.246v-2.83
		c0-0.082,0.022-0.144,0.068-0.185s0.101-0.073,0.164-0.096s0.13-0.036,0.198-0.041s0.121-0.007,0.157-0.007
		c0.2,0,0.33,0.034,0.39,0.103s0.111,0.234,0.157,0.499c0.019,0.082,0.043,0.232,0.075,0.451s0.063,0.449,0.096,0.69
		s0.06,0.47,0.082,0.684s0.039,0.362,0.048,0.444h3.746c0,0.173-0.075,0.312-0.226,0.417s-0.347,0.185-0.588,0.239
		s-0.506,0.089-0.793,0.103s-0.569,0.022-0.848,0.027s-0.533,0.012-0.766,0.021s-0.408,0.027-0.526,0.055
		c-0.046,0.273-0.05,0.579-0.014,0.916s0.082,0.682,0.137,1.032s0.103,0.702,0.144,1.053s0.043,0.677,0.007,0.978
		c-0.055,0.046-0.142,0.094-0.26,0.144s-0.239,0.087-0.362,0.109s-0.232,0.019-0.328-0.014S318.164,185.662,318.137,185.534z"/>
	<path fill="#ED6756" d="M330.441,180.899l-0.027-1.176h2.557v-4.416c0.036-0.109,0.103-0.21,0.198-0.301s0.198-0.159,0.308-0.205
		s0.224-0.053,0.342-0.021s0.219,0.116,0.301,0.253c0.091,0.374,0.155,0.75,0.191,1.128s0.06,0.757,0.068,1.135
		s0.016,0.757,0.021,1.135s0.021,0.75,0.048,1.114c0.173-0.027,0.374-0.043,0.602-0.048s0.458-0.009,0.69-0.014
		s0.46-0.009,0.684-0.014s0.426-0.016,0.608-0.034l-0.055,1.23l-2.488-0.068c-0.009,0.565-0.009,1.087,0,1.565
		s0.021,0.945,0.034,1.401s0.025,0.921,0.034,1.395s0.014,0.989,0.014,1.545c-0.374,0.164-0.658,0.18-0.854,0.048
		s-0.335-0.354-0.417-0.663s-0.123-0.688-0.123-1.135s0.007-0.904,0.021-1.374s0.021-0.923,0.021-1.36s-0.041-0.812-0.123-1.121
		H330.441z"/>
	<path fill="#ED6756" d="M337.592,184.14c-0.082-0.738-0.012-1.458,0.212-2.16s0.561-1.321,1.012-1.859s0.996-0.964,1.634-1.278
		s1.335-0.463,2.092-0.444c0.128,0,0.299,0.019,0.513,0.055s0.442,0.094,0.684,0.171s0.479,0.176,0.711,0.294
		s0.438,0.26,0.615,0.424s0.312,0.349,0.403,0.554s0.114,0.436,0.068,0.69c-0.374,0.265-0.805,0.446-1.292,0.547
		s-0.984,0.171-1.49,0.212s-1,0.077-1.483,0.109s-0.904,0.116-1.265,0.253s-0.638,0.354-0.834,0.649s-0.258,0.723-0.185,1.278
		c0.137,0.501,0.362,0.87,0.677,1.107s0.679,0.381,1.094,0.431s0.856,0.027,1.326-0.068s0.93-0.221,1.381-0.376
		s0.873-0.319,1.265-0.492s0.716-0.314,0.971-0.424c0.118,0,0.219,0.043,0.301,0.13s0.123,0.189,0.123,0.308
		c-0.228,0.392-0.574,0.743-1.039,1.053s-0.989,0.561-1.572,0.752s-1.191,0.31-1.825,0.355s-1.229,0-1.784-0.137
		s-1.044-0.378-1.463-0.725S337.737,184.732,337.592,184.14z M342.418,179.423c-0.164,0-0.364,0.019-0.602,0.055
		s-0.465,0.101-0.684,0.191s-0.408,0.21-0.567,0.355s-0.239,0.333-0.239,0.561l3.391-0.561c-0.146-0.219-0.335-0.374-0.567-0.465
		S342.673,179.423,342.418,179.423z"/>
	<path fill="#ED6756" d="M347.135,186.108c-0.009-0.374,0.002-0.846,0.034-1.415s0.06-1.181,0.082-1.832s0.032-1.308,0.027-1.969
		s-0.039-1.265-0.103-1.812c0-0.21,0.073-0.354,0.219-0.431s0.319-0.116,0.52-0.116c0.073,0,0.135,0.089,0.185,0.267
		s0.091,0.383,0.123,0.615s0.062,0.463,0.089,0.69s0.055,0.392,0.082,0.492c0.146-0.273,0.378-0.52,0.697-0.738
		s0.675-0.39,1.066-0.513s0.795-0.196,1.21-0.219s0.795,0.021,1.142,0.13s0.629,0.289,0.848,0.54s0.328,0.59,0.328,1.019
		c0.146-0.273,0.401-0.545,0.766-0.813s0.777-0.506,1.237-0.711s0.937-0.364,1.429-0.479s0.941-0.159,1.347-0.137
		s0.736,0.13,0.991,0.321s0.378,0.492,0.369,0.902l0.369,6.357c0,0.019-0.075,0.043-0.226,0.075s-0.316,0.053-0.499,0.062
		s-0.351,0.002-0.506-0.021s-0.232-0.08-0.232-0.171c-0.019-0.501-0.014-1.027,0.014-1.579s0.043-1.109,0.048-1.675
		s-0.014-1.123-0.055-1.675s-0.144-1.073-0.308-1.565c-0.265,0.019-0.559,0.057-0.882,0.116s-0.649,0.164-0.978,0.314
		s-0.645,0.364-0.95,0.643s-0.576,0.651-0.813,1.121s-0.431,1.044-0.581,1.723s-0.226,1.497-0.226,2.454
		c-0.046,0.155-0.152,0.255-0.321,0.301s-0.344,0.06-0.526,0.041s-0.34-0.062-0.472-0.13s-0.185-0.139-0.157-0.212
		c0.082-0.474,0.15-0.894,0.205-1.258s0.091-0.702,0.109-1.012s0.021-0.602,0.007-0.875s-0.043-0.554-0.089-0.841
		s-0.107-0.593-0.185-0.916s-0.171-0.695-0.28-1.114c-0.61,0-1.133,0.084-1.565,0.253s-0.793,0.396-1.08,0.684
		s-0.511,0.627-0.67,1.019s-0.275,0.812-0.349,1.258s-0.109,0.911-0.109,1.395s0.019,0.962,0.055,1.436
		c-0.146,0.055-0.308,0.116-0.485,0.185s-0.354,0.103-0.526,0.103c-0.101,0-0.178-0.019-0.232-0.055
		S347.208,186.227,347.135,186.108z"/>
	<path fill="#ED6756" d="M361.354,179.163c0.036-0.036,0.104-0.077,0.205-0.123s0.205-0.066,0.314-0.062s0.214,0.048,0.314,0.13
		s0.173,0.224,0.219,0.424c1.304-0.438,2.42-0.69,3.35-0.759s1.687-0.005,2.27,0.191s1.003,0.497,1.258,0.902
		s0.36,0.861,0.314,1.367s-0.234,1.037-0.567,1.593s-0.798,1.08-1.395,1.572s-1.317,0.928-2.16,1.306s-1.793,0.645-2.851,0.8
		c0,0.128,0.002,0.328,0.007,0.602s0.012,0.583,0.021,0.93s0.016,0.711,0.021,1.094s0.012,0.75,0.021,1.101s0.021,0.668,0.034,0.95
		s0.029,0.492,0.048,0.629c0.055,0.419-0.027,0.718-0.246,0.896s-0.52,0.244-0.902,0.198L361.354,179.163z M366.084,179.833
		c-0.355,0-0.747,0.041-1.176,0.123s-0.827,0.221-1.196,0.417s-0.672,0.46-0.909,0.793s-0.342,0.745-0.314,1.237v2.953
		c1.267-0.282,2.306-0.615,3.117-0.998s1.434-0.779,1.866-1.189s0.699-0.815,0.8-1.217s0.073-0.759-0.082-1.073
		s-0.419-0.567-0.793-0.759S366.585,179.833,366.084,179.833z"/>
	<path fill="#ED6756" d="M370.938,183.142c0-0.747,0.164-1.388,0.492-1.921s0.743-0.978,1.244-1.333s1.048-0.627,1.641-0.813
		s1.157-0.308,1.695-0.362c0.52-0.027,1.007,0.039,1.463,0.198s0.848,0.385,1.176,0.677s0.581,0.638,0.759,1.039
		s0.244,0.825,0.198,1.271c0,0.747-0.148,1.401-0.444,1.962s-0.69,1.03-1.183,1.408s-1.064,0.661-1.716,0.848
		s-1.333,0.28-2.044,0.28c-1.075,0-1.892-0.251-2.447-0.752S370.938,184.309,370.938,183.142z M372.113,183.552
		c0,0.383,0.048,0.688,0.144,0.916s0.237,0.398,0.424,0.513s0.415,0.189,0.684,0.226s0.581,0.055,0.937,0.055
		c0.547,0,1.075-0.053,1.586-0.157s0.962-0.282,1.354-0.533s0.706-0.583,0.943-0.998s0.355-0.932,0.355-1.552
		c0-0.319-0.046-0.622-0.137-0.909s-0.228-0.538-0.41-0.752s-0.405-0.385-0.67-0.513s-0.565-0.191-0.902-0.191
		c-0.446,0.073-0.894,0.157-1.34,0.253s-0.866,0.269-1.258,0.52s-0.738,0.62-1.039,1.107S372.259,182.695,372.113,183.552z"/>
</g>
<g>
	<g>
		<g>
			<path fill-rule="evenodd" clip-rule="evenodd" d="M361.456,44.475c0,0-0.288,0.181-0.86,0.489
				c-0.573,0.308-1.429,0.75-2.555,1.29c-2.254,1.08-5.594,2.553-9.937,4.136c-8.692,3.147-20.724,8.246-34.431,15.256
				c-13.963,6.432-30.09,13.671-47.079,20.859c-16.253,8.854-34.432,15.253-51.295,22.728c-16.276,8.8-33.428,13.726-47.08,20.859
				c-13.896,6.584-26.017,11.479-34.431,15.256c-8.37,3.877-13.351,5.915-13.351,5.915l-0.418-0.943c0,0,4.338-3.49,12.851-7.044
				c8.55-3.471,20.488-8.78,34.431-15.256c14.225-5.841,29.713-14.521,47.079-20.859c17.418-6.224,34.38-15.372,51.296-22.728
				c17.501-6.034,33.058-14.562,47.079-20.86c14.196-5.905,25.71-12.171,34.431-15.255c8.216-4.225,13.852-4.787,13.852-4.787
				S361.382,44.308,361.456,44.475z"/>
		</g>
		<g>
			<path d="M354.582,54.267c-0.346-0.229-0.439-0.695-0.21-1.04l6.353-9.557l-11.347-1.714c-0.409-0.062-0.691-0.445-0.63-0.854
				c0.062-0.409,0.448-0.69,0.854-0.63l12.51,1.891c0.254,0.039,0.471,0.204,0.574,0.438s0.081,0.506-0.062,0.719l-7.004,10.538
				c-0.081,0.123-0.193,0.214-0.319,0.27C355.075,54.428,354.804,54.414,354.582,54.267z"/>
		</g>
	</g>
</g>
<g>
	<path d="M292.895,92.562c-0.265,0.41-0.569,0.781-0.916,1.114s-0.727,0.615-1.142,0.848s-0.866,0.403-1.354,0.513
		s-1,0.142-1.538,0.096c-0.191,0-0.396-0.022-0.615-0.068s-0.422-0.118-0.608-0.219s-0.34-0.232-0.458-0.396
		s-0.178-0.369-0.178-0.615c-0.101-0.511-0.08-1.027,0.062-1.552s0.362-1.03,0.663-1.518s0.67-0.938,1.107-1.354
		s0.904-0.766,1.401-1.053s1.007-0.494,1.531-0.622s1.032-0.146,1.524-0.055c0.374,0,0.665,0.123,0.875,0.369
		s0.367,0.574,0.472,0.984s0.171,0.882,0.198,1.415s0.05,1.082,0.068,1.647s0.043,1.123,0.075,1.675s0.103,1.055,0.212,1.511h-1.012
		c-0.046-0.31-0.08-0.583-0.103-0.82s-0.043-0.458-0.062-0.663s-0.043-0.403-0.075-0.595S292.949,92.799,292.895,92.562z
		 M291.855,88.911c-0.355-0.027-0.723,0.021-1.101,0.144s-0.743,0.296-1.094,0.52s-0.679,0.487-0.984,0.793s-0.572,0.622-0.8,0.95
		s-0.403,0.654-0.526,0.978s-0.173,0.622-0.15,0.896s0.125,0.506,0.308,0.697s0.465,0.319,0.848,0.383
		c0.547-0.009,1.073-0.148,1.579-0.417s0.957-0.602,1.354-0.998s0.727-0.825,0.991-1.285s0.436-0.887,0.513-1.278
		s0.043-0.72-0.103-0.984S292.266,88.911,291.855,88.911z"/>
	<path d="M295,93.122c0-0.183-0.016-0.438-0.048-0.766s-0.06-0.686-0.082-1.073s-0.032-0.781-0.027-1.183s0.039-0.764,0.103-1.087
		s0.166-0.59,0.308-0.8s0.344-0.314,0.608-0.314c0.319,0.091,0.535,0.21,0.649,0.355s0.164,0.323,0.15,0.533
		s-0.068,0.451-0.164,0.725s-0.193,0.586-0.294,0.937s-0.178,0.738-0.232,1.162s-0.046,0.891,0.027,1.401
		c0.082,0.328,0.248,0.581,0.499,0.759s0.549,0.292,0.896,0.342s0.718,0.046,1.114-0.014s0.781-0.159,1.155-0.301
		s0.716-0.314,1.025-0.52s0.552-0.426,0.725-0.663c0.091-0.456,0.142-0.873,0.15-1.251s0-0.745-0.027-1.101
		s-0.063-0.718-0.109-1.087s-0.073-0.777-0.082-1.224c0.347-0.146,0.62-0.123,0.82,0.068s0.354,0.49,0.458,0.896
		s0.176,0.887,0.212,1.442s0.057,1.128,0.062,1.716s0.007,1.16,0.007,1.716s0.022,1.03,0.068,1.422
		c-0.246,0.237-0.504,0.26-0.772,0.068s-0.477-0.606-0.622-1.244c-0.146,0.128-0.396,0.285-0.752,0.472s-0.764,0.354-1.224,0.499
		s-0.943,0.251-1.449,0.314s-0.978,0.041-1.415-0.068s-0.815-0.33-1.135-0.663S295.082,93.77,295,93.122z"/>
	<path d="M303.955,95.118c-0.009-0.374,0.002-0.846,0.034-1.415s0.06-1.181,0.082-1.832s0.032-1.308,0.027-1.969
		s-0.039-1.265-0.103-1.812c0-0.21,0.073-0.354,0.219-0.431s0.319-0.116,0.52-0.116c0.073,0,0.135,0.089,0.185,0.267
		s0.091,0.383,0.123,0.615s0.062,0.463,0.089,0.69s0.055,0.392,0.082,0.492c0.146-0.273,0.378-0.52,0.697-0.738
		s0.675-0.39,1.066-0.513s0.795-0.196,1.21-0.219s0.795,0.021,1.142,0.13s0.629,0.289,0.848,0.54s0.328,0.59,0.328,1.019
		c0.146-0.273,0.401-0.545,0.766-0.813s0.777-0.506,1.237-0.711s0.937-0.364,1.429-0.479s0.941-0.159,1.347-0.137
		s0.736,0.13,0.991,0.321s0.378,0.492,0.369,0.902l0.369,6.357c0,0.019-0.075,0.043-0.226,0.075s-0.316,0.053-0.499,0.062
		s-0.351,0.002-0.506-0.021s-0.232-0.08-0.232-0.171c-0.019-0.501-0.014-1.027,0.014-1.579s0.043-1.109,0.048-1.675
		s-0.014-1.123-0.055-1.675s-0.144-1.073-0.308-1.565c-0.265,0.019-0.559,0.057-0.882,0.116s-0.649,0.164-0.978,0.314
		s-0.645,0.364-0.95,0.643s-0.576,0.651-0.813,1.121s-0.431,1.044-0.581,1.723s-0.226,1.497-0.226,2.454
		c-0.046,0.155-0.152,0.255-0.321,0.301s-0.344,0.06-0.526,0.041s-0.34-0.062-0.472-0.13s-0.185-0.139-0.157-0.212
		c0.082-0.474,0.15-0.894,0.205-1.258s0.091-0.702,0.109-1.012s0.021-0.602,0.007-0.875s-0.043-0.554-0.089-0.841
		s-0.107-0.593-0.185-0.916s-0.171-0.695-0.28-1.114c-0.61,0-1.133,0.084-1.565,0.253s-0.793,0.396-1.08,0.684
		s-0.511,0.627-0.67,1.019s-0.275,0.812-0.349,1.258s-0.109,0.911-0.109,1.395s0.019,0.962,0.055,1.436
		c-0.146,0.055-0.308,0.116-0.485,0.185s-0.354,0.103-0.526,0.103c-0.101,0-0.178-0.019-0.232-0.055S304.028,95.236,303.955,95.118z
		"/>
	<path d="M317.49,93.149c-0.082-0.738-0.012-1.458,0.212-2.16s0.561-1.321,1.012-1.859s0.996-0.964,1.634-1.278
		s1.335-0.463,2.092-0.444c0.128,0,0.299,0.019,0.513,0.055s0.442,0.094,0.684,0.171s0.479,0.176,0.711,0.294
		s0.438,0.26,0.615,0.424s0.312,0.349,0.403,0.554s0.114,0.436,0.068,0.69c-0.374,0.265-0.805,0.446-1.292,0.547
		s-0.984,0.171-1.49,0.212s-1,0.077-1.483,0.109s-0.904,0.116-1.265,0.253s-0.638,0.354-0.834,0.649s-0.258,0.723-0.185,1.278
		c0.137,0.501,0.362,0.87,0.677,1.107s0.679,0.381,1.094,0.431s0.856,0.027,1.326-0.068s0.93-0.221,1.381-0.376
		s0.873-0.319,1.265-0.492s0.716-0.314,0.971-0.424c0.118,0,0.219,0.043,0.301,0.13s0.123,0.189,0.123,0.308
		c-0.228,0.392-0.574,0.743-1.039,1.053s-0.989,0.561-1.572,0.752s-1.191,0.31-1.825,0.355s-1.229,0-1.784-0.137
		s-1.044-0.378-1.463-0.725S317.636,93.742,317.49,93.149z M322.316,88.433c-0.164,0-0.364,0.019-0.602,0.055
		s-0.465,0.101-0.684,0.191s-0.408,0.21-0.567,0.355s-0.239,0.333-0.239,0.561l3.391-0.561c-0.146-0.219-0.335-0.374-0.567-0.465
		S322.571,88.433,322.316,88.433z"/>
	<path d="M333.486,88.665c0.063-0.146-0.005-0.23-0.205-0.253s-0.474-0.002-0.82,0.062s-0.733,0.164-1.162,0.301
		s-0.836,0.299-1.224,0.485s-0.725,0.395-1.012,0.622s-0.463,0.456-0.526,0.684l-0.014,4.648h-1.135
		c-0.055-0.128-0.098-0.33-0.13-0.608s-0.057-0.606-0.075-0.984s-0.029-0.788-0.034-1.23s-0.002-0.889,0.007-1.34
		s0.022-0.894,0.041-1.326s0.039-0.827,0.062-1.183s0.046-0.654,0.068-0.896s0.048-0.403,0.075-0.485
		c0.101-0.073,0.214-0.142,0.342-0.205s0.255-0.096,0.383-0.096c0.164,0.009,0.275,0.116,0.335,0.321s0.089,0.438,0.089,0.697
		s-0.016,0.513-0.048,0.759s-0.048,0.415-0.048,0.506c0.948-0.702,1.764-1.212,2.447-1.531s1.26-0.487,1.729-0.506
		s0.846,0.091,1.128,0.328s0.501,0.565,0.656,0.984s0.258,0.909,0.308,1.47s0.08,1.15,0.089,1.771s0.009,1.251,0,1.894
		s0,1.256,0.027,1.839c-0.109,0.055-0.185,0.087-0.226,0.096s-0.087,0.007-0.137-0.007s-0.116-0.029-0.198-0.048
		s-0.21-0.032-0.383-0.041c-0.109-0.446-0.171-0.957-0.185-1.531s-0.016-1.162-0.007-1.764s0.005-1.198-0.014-1.791
		S333.604,89.166,333.486,88.665z"/>
	<path d="M335.633,89.909l-0.027-1.176h2.557v-4.416c0.036-0.109,0.103-0.21,0.198-0.301s0.198-0.159,0.308-0.205
		s0.224-0.053,0.342-0.021s0.219,0.116,0.301,0.253c0.091,0.374,0.155,0.75,0.191,1.128s0.06,0.757,0.068,1.135
		s0.016,0.757,0.021,1.135s0.021,0.75,0.048,1.114c0.173-0.027,0.374-0.043,0.602-0.048s0.458-0.009,0.69-0.014
		s0.46-0.009,0.684-0.014s0.426-0.016,0.608-0.034l-0.055,1.23l-2.488-0.068c-0.009,0.565-0.009,1.087,0,1.565
		s0.021,0.945,0.034,1.401s0.025,0.921,0.034,1.395s0.014,0.989,0.014,1.545c-0.374,0.164-0.658,0.18-0.854,0.048
		s-0.335-0.354-0.417-0.663s-0.123-0.688-0.123-1.135s0.007-0.904,0.021-1.374s0.021-0.923,0.021-1.36s-0.041-0.812-0.123-1.121
		H335.633z"/>
	<path d="M343.303,92.151c0-0.747,0.164-1.388,0.492-1.921s0.743-0.978,1.244-1.333s1.048-0.627,1.641-0.813
		s1.157-0.308,1.695-0.362c0.52-0.027,1.007,0.039,1.463,0.198s0.848,0.385,1.176,0.677s0.581,0.638,0.759,1.039
		s0.244,0.825,0.198,1.271c0,0.747-0.148,1.401-0.444,1.962s-0.69,1.03-1.183,1.408s-1.064,0.661-1.716,0.848
		s-1.333,0.28-2.044,0.28c-1.075,0-1.892-0.251-2.447-0.752S343.303,93.318,343.303,92.151z M344.479,92.562
		c0,0.383,0.048,0.688,0.144,0.916s0.237,0.398,0.424,0.513s0.415,0.189,0.684,0.226s0.581,0.055,0.937,0.055
		c0.547,0,1.075-0.053,1.586-0.157s0.962-0.282,1.354-0.533s0.706-0.583,0.943-0.998s0.355-0.932,0.355-1.552
		c0-0.319-0.046-0.622-0.137-0.909s-0.228-0.538-0.41-0.752s-0.405-0.385-0.67-0.513s-0.565-0.191-0.902-0.191
		c-0.446,0.073-0.894,0.157-1.34,0.253s-0.866,0.269-1.258,0.52s-0.738,0.62-1.039,1.107S344.624,91.705,344.479,92.562z"/>
	<path d="M295.109,110.305c-0.629,0.483-1.26,0.887-1.894,1.21s-1.242,0.518-1.825,0.581s-1.137-0.025-1.661-0.267
		s-0.991-0.69-1.401-1.347c-0.128-0.593-0.118-1.153,0.027-1.682s0.388-1.012,0.725-1.449s0.747-0.818,1.23-1.142
		s0.998-0.576,1.545-0.759s1.109-0.282,1.688-0.301s1.133,0.06,1.661,0.232c0-0.137,0.007-0.347,0.021-0.629
		s0.029-0.602,0.048-0.957s0.036-0.729,0.055-1.121s0.039-0.766,0.062-1.121s0.043-0.672,0.062-0.95s0.032-0.485,0.041-0.622
		c0.019-0.219,0.043-0.419,0.075-0.602s0.089-0.342,0.171-0.479s0.193-0.244,0.335-0.321s0.33-0.116,0.567-0.116
		c0,1.094-0.032,2.16-0.096,3.199s-0.121,2.085-0.171,3.138s-0.073,2.126-0.068,3.22s0.08,2.247,0.226,3.459
		c0,0.265-0.048,0.451-0.144,0.561s-0.258,0.164-0.485,0.164c-0.219,0-0.385-0.07-0.499-0.212s-0.191-0.31-0.232-0.506
		s-0.062-0.403-0.062-0.622S295.109,110.46,295.109,110.305z M289.518,109.771c0.019,0.419,0.139,0.718,0.362,0.896
		s0.535,0.23,0.937,0.157c0.191,0,0.485-0.053,0.882-0.157s0.807-0.241,1.23-0.41s0.822-0.355,1.196-0.561s0.638-0.412,0.793-0.622
		v-2.27c0-0.137-0.034-0.246-0.103-0.328s-0.155-0.144-0.26-0.185s-0.214-0.066-0.328-0.075s-0.212-0.014-0.294-0.014
		c-0.246-0.036-0.531-0.021-0.854,0.048s-0.656,0.178-0.998,0.328s-0.675,0.337-0.998,0.561s-0.608,0.474-0.854,0.752
		s-0.438,0.576-0.574,0.896S289.472,109.435,289.518,109.771z"/>
	<path d="M304.242,109.361c-0.265,0.41-0.569,0.781-0.916,1.114s-0.727,0.615-1.142,0.848s-0.866,0.403-1.354,0.513
		s-1,0.142-1.538,0.096c-0.191,0-0.396-0.022-0.615-0.068s-0.422-0.118-0.608-0.219s-0.34-0.232-0.458-0.396
		s-0.178-0.369-0.178-0.615c-0.101-0.511-0.08-1.027,0.062-1.552s0.362-1.03,0.663-1.518s0.67-0.938,1.107-1.354
		s0.904-0.766,1.401-1.053s1.007-0.494,1.531-0.622s1.032-0.146,1.524-0.055c0.374,0,0.665,0.123,0.875,0.369
		s0.367,0.574,0.472,0.984s0.171,0.882,0.198,1.415s0.05,1.082,0.068,1.647s0.043,1.123,0.075,1.675s0.103,1.055,0.212,1.511h-1.012
		c-0.046-0.31-0.08-0.583-0.103-0.82s-0.043-0.458-0.062-0.663s-0.043-0.403-0.075-0.595S304.297,109.599,304.242,109.361z
		 M303.203,105.711c-0.355-0.027-0.723,0.021-1.101,0.144s-0.743,0.296-1.094,0.52s-0.679,0.487-0.984,0.793s-0.572,0.622-0.8,0.95
		s-0.403,0.654-0.526,0.978s-0.173,0.622-0.15,0.896s0.125,0.506,0.308,0.697s0.465,0.319,0.848,0.383
		c0.547-0.009,1.073-0.148,1.579-0.417s0.957-0.602,1.354-0.998s0.727-0.825,0.991-1.285s0.436-0.887,0.513-1.278
		s0.043-0.72-0.103-0.984S303.613,105.711,303.203,105.711z"/>
	<path d="M320.143,109.361c-0.265,0.41-0.569,0.781-0.916,1.114s-0.727,0.615-1.142,0.848s-0.866,0.403-1.354,0.513
		s-1,0.142-1.538,0.096c-0.191,0-0.396-0.022-0.615-0.068s-0.422-0.118-0.608-0.219s-0.34-0.232-0.458-0.396
		s-0.178-0.369-0.178-0.615c-0.101-0.511-0.08-1.027,0.062-1.552s0.362-1.03,0.663-1.518s0.67-0.938,1.107-1.354
		s0.904-0.766,1.401-1.053s1.007-0.494,1.531-0.622s1.032-0.146,1.524-0.055c0.374,0,0.665,0.123,0.875,0.369
		s0.367,0.574,0.472,0.984s0.171,0.882,0.198,1.415s0.05,1.082,0.068,1.647s0.043,1.123,0.075,1.675s0.103,1.055,0.212,1.511h-1.012
		c-0.046-0.31-0.08-0.583-0.103-0.82s-0.043-0.458-0.062-0.663s-0.043-0.403-0.075-0.595S320.197,109.599,320.143,109.361z
		 M319.104,105.711c-0.355-0.027-0.723,0.021-1.101,0.144s-0.743,0.296-1.094,0.52s-0.679,0.487-0.984,0.793s-0.572,0.622-0.8,0.95
		s-0.403,0.654-0.526,0.978s-0.173,0.622-0.15,0.896s0.125,0.506,0.308,0.697s0.465,0.319,0.848,0.383
		c0.547-0.009,1.073-0.148,1.579-0.417s0.957-0.602,1.354-0.998s0.727-0.825,0.991-1.285s0.436-0.887,0.513-1.278
		s0.043-0.72-0.103-0.984S319.514,105.711,319.104,105.711z M317.572,101.855c0.118-0.146,0.232-0.241,0.342-0.287
		s0.2-0.053,0.273-0.021s0.132,0.091,0.178,0.178s0.068,0.18,0.068,0.28c-0.027,0.109-0.062,0.207-0.103,0.294
		s-0.111,0.189-0.212,0.308s-0.246,0.262-0.438,0.431s-0.442,0.381-0.752,0.636l-0.533-0.479L317.572,101.855z"/>
	<path d="M322.33,104.371c0-0.173,0.062-0.287,0.185-0.342s0.258-0.082,0.403-0.082c0.237,0,0.426,0.098,0.567,0.294
		s0.251,0.424,0.328,0.684s0.132,0.515,0.164,0.766s0.057,0.431,0.075,0.54c0.337-0.31,0.716-0.597,1.135-0.861
		s0.887-0.49,1.401-0.677s1.089-0.323,1.723-0.41s1.342-0.107,2.126-0.062c0.246-0.055,0.431-0.002,0.554,0.157
		s0.193,0.349,0.212,0.567s-0.016,0.433-0.103,0.643s-0.217,0.333-0.39,0.369c-0.319-0.237-0.704-0.39-1.155-0.458
		s-0.921-0.066-1.408,0.007s-0.969,0.207-1.442,0.403s-0.896,0.444-1.265,0.745s-0.661,0.647-0.875,1.039s-0.303,0.815-0.267,1.271
		c0,0.282,0.019,0.559,0.055,0.827s0.075,0.538,0.116,0.807s0.08,0.538,0.116,0.807s0.055,0.54,0.055,0.813
		c-0.246,0.019-0.444,0.05-0.595,0.096s-0.275,0.066-0.376,0.062s-0.187-0.05-0.26-0.137s-0.155-0.262-0.246-0.526
		c-0.009-0.063-0.032-0.255-0.068-0.574s-0.08-0.706-0.13-1.162s-0.107-0.955-0.171-1.497s-0.125-1.075-0.185-1.6
		s-0.114-1.007-0.164-1.449S322.357,104.636,322.33,104.371z"/>
	<path d="M331.887,109.949c-0.082-0.738-0.012-1.458,0.212-2.16s0.561-1.321,1.012-1.859s0.996-0.964,1.634-1.278
		s1.335-0.463,2.092-0.444c0.128,0,0.299,0.019,0.513,0.055s0.442,0.094,0.684,0.171s0.479,0.176,0.711,0.294
		s0.438,0.26,0.615,0.424s0.312,0.349,0.403,0.554s0.114,0.436,0.068,0.69c-0.374,0.265-0.805,0.446-1.292,0.547
		s-0.984,0.171-1.49,0.212s-1,0.077-1.483,0.109s-0.904,0.116-1.265,0.253s-0.638,0.354-0.834,0.649s-0.258,0.723-0.185,1.278
		c0.137,0.501,0.362,0.87,0.677,1.107s0.679,0.381,1.094,0.431s0.856,0.027,1.326-0.068s0.93-0.221,1.381-0.376
		s0.873-0.319,1.265-0.492s0.716-0.314,0.971-0.424c0.118,0,0.219,0.043,0.301,0.13s0.123,0.189,0.123,0.308
		c-0.228,0.392-0.574,0.743-1.039,1.053s-0.989,0.561-1.572,0.752s-1.191,0.31-1.825,0.355s-1.229,0-1.784-0.137
		s-1.044-0.378-1.463-0.725S332.032,110.542,331.887,109.949z M336.713,105.232c-0.164,0-0.364,0.019-0.602,0.055
		s-0.465,0.101-0.684,0.191s-0.408,0.21-0.567,0.355s-0.239,0.333-0.239,0.561l3.391-0.561c-0.146-0.219-0.335-0.374-0.567-0.465
		S336.968,105.232,336.713,105.232z"/>
	<path d="M348.156,109.361c-0.265,0.41-0.569,0.781-0.916,1.114s-0.727,0.615-1.142,0.848s-0.866,0.403-1.354,0.513
		s-1,0.142-1.538,0.096c-0.191,0-0.396-0.022-0.615-0.068s-0.422-0.118-0.608-0.219s-0.34-0.232-0.458-0.396
		s-0.178-0.369-0.178-0.615c-0.101-0.511-0.08-1.027,0.062-1.552s0.362-1.03,0.663-1.518s0.67-0.938,1.107-1.354
		s0.904-0.766,1.401-1.053s1.007-0.494,1.531-0.622s1.032-0.146,1.524-0.055c0.374,0,0.665,0.123,0.875,0.369
		s0.367,0.574,0.472,0.984s0.171,0.882,0.198,1.415s0.05,1.082,0.068,1.647s0.043,1.123,0.075,1.675s0.103,1.055,0.212,1.511h-1.012
		c-0.046-0.31-0.08-0.583-0.103-0.82s-0.043-0.458-0.062-0.663s-0.043-0.403-0.075-0.595S348.211,109.599,348.156,109.361z
		 M347.117,105.711c-0.355-0.027-0.723,0.021-1.101,0.144s-0.743,0.296-1.094,0.52s-0.679,0.487-0.984,0.793s-0.572,0.622-0.8,0.95
		s-0.403,0.654-0.526,0.978s-0.173,0.622-0.15,0.896s0.125,0.506,0.308,0.697s0.465,0.319,0.848,0.383
		c0.547-0.009,1.073-0.148,1.579-0.417s0.957-0.602,1.354-0.998s0.727-0.825,0.991-1.285s0.436-0.887,0.513-1.278
		s0.043-0.72-0.103-0.984S347.527,105.711,347.117,105.711z"/>
</g>
</svg>
