<?xml version="1.0" encoding="utf-8"?>
<!-- Generator: Adobe Illustrator 16.0.0, SVG Export Plug-In . SVG Version: 6.00 Build 0)  -->
<!DOCTYPE svg PUBLIC "-//W3C//DTD SVG 1.1//EN" "http://www.w3.org/Graphics/SVG/1.1/DTD/svg11.dtd">
<svg version="1.1" id="Layer_1" xmlns="http://www.w3.org/2000/svg" xmlns:xlink="http://www.w3.org/1999/xlink" x="0px" y="0px"
	 width="600px" height="496px" viewBox="0 0 600 496" enable-background="new 0 0 600 496" xml:space="preserve">
<g>
	<path d="M538.607,6.461c0,0.257-0.051,0.504-0.15,0.744s-0.232,0.477-0.396,0.708c-0.164,0.232-0.351,0.46-0.558,0.684
		c-0.209,0.225-0.42,0.444-0.637,0.66c-0.119,0.12-0.26,0.265-0.42,0.433s-0.312,0.34-0.456,0.516s-0.264,0.348-0.36,0.516
		c-0.096,0.169-0.144,0.312-0.144,0.433h3.42v0.84h-4.5c-0.008-0.04-0.012-0.082-0.012-0.126s0-0.086,0-0.126
		c0-0.336,0.056-0.648,0.168-0.937c0.112-0.287,0.256-0.56,0.433-0.815c0.176-0.256,0.373-0.498,0.594-0.727
		c0.219-0.228,0.438-0.449,0.653-0.666c0.177-0.176,0.347-0.348,0.511-0.516s0.307-0.336,0.432-0.504
		c0.123-0.168,0.224-0.342,0.3-0.522c0.076-0.18,0.114-0.365,0.114-0.558c0-0.216-0.034-0.399-0.102-0.552
		c-0.068-0.152-0.16-0.278-0.277-0.378c-0.115-0.101-0.25-0.174-0.401-0.223c-0.151-0.048-0.315-0.071-0.492-0.071
		c-0.208,0-0.397,0.028-0.569,0.084s-0.324,0.124-0.457,0.204c-0.131,0.08-0.246,0.157-0.342,0.233s-0.168,0.139-0.216,0.187
		l-0.491-0.696c0.063-0.072,0.159-0.16,0.287-0.264c0.129-0.104,0.282-0.202,0.463-0.294c0.18-0.092,0.381-0.17,0.605-0.234
		c0.224-0.063,0.464-0.096,0.72-0.096c0.776,0,1.351,0.178,1.722,0.534C538.422,5.287,538.607,5.797,538.607,6.461z"/>
	<path d="M544.607,6.461c0,0.257-0.051,0.504-0.15,0.744s-0.232,0.477-0.396,0.708c-0.164,0.232-0.351,0.46-0.558,0.684
		c-0.209,0.225-0.42,0.444-0.637,0.66c-0.119,0.12-0.26,0.265-0.42,0.433s-0.312,0.34-0.456,0.516s-0.264,0.348-0.36,0.516
		c-0.096,0.169-0.144,0.312-0.144,0.433h3.42v0.84h-4.5c-0.008-0.04-0.012-0.082-0.012-0.126s0-0.086,0-0.126
		c0-0.336,0.056-0.648,0.168-0.937c0.112-0.287,0.256-0.56,0.433-0.815c0.176-0.256,0.373-0.498,0.594-0.727
		c0.219-0.228,0.438-0.449,0.653-0.666c0.177-0.176,0.347-0.348,0.511-0.516s0.307-0.336,0.432-0.504
		c0.123-0.168,0.224-0.342,0.3-0.522c0.076-0.18,0.114-0.365,0.114-0.558c0-0.216-0.034-0.399-0.102-0.552
		c-0.068-0.152-0.16-0.278-0.277-0.378c-0.115-0.101-0.25-0.174-0.401-0.223c-0.151-0.048-0.315-0.071-0.492-0.071
		c-0.208,0-0.397,0.028-0.569,0.084s-0.324,0.124-0.457,0.204c-0.131,0.08-0.246,0.157-0.342,0.233s-0.168,0.139-0.216,0.187
		l-0.491-0.696c0.063-0.072,0.159-0.16,0.287-0.264c0.129-0.104,0.282-0.202,0.463-0.294c0.18-0.092,0.381-0.17,0.605-0.234
		c0.224-0.063,0.464-0.096,0.72-0.096c0.776,0,1.351,0.178,1.722,0.534C544.422,5.287,544.607,5.797,544.607,6.461z"/>
	<path d="M552.06,6.581c0.479-0.184,0.932-0.276,1.356-0.276c0.231,0,0.449,0.034,0.653,0.103s0.378,0.174,0.522,0.318
		c0.344-0.28,0.711-0.421,1.104-0.421c0.191,0,0.374,0.036,0.546,0.108s0.324,0.18,0.456,0.324c0.133,0.144,0.238,0.324,0.318,0.54
		s0.119,0.468,0.119,0.756v3.96h-0.899V8.009c0-0.288-0.063-0.508-0.192-0.659c-0.127-0.152-0.287-0.229-0.479-0.229
		c-0.097,0-0.196,0.024-0.3,0.072c-0.104,0.048-0.2,0.124-0.288,0.228c0.048,0.185,0.071,0.389,0.071,0.612v1.812h-0.899V8.021
		c0-0.28-0.044-0.5-0.132-0.66s-0.26-0.24-0.516-0.24c-0.16,0-0.341,0.036-0.541,0.108v4.764h-0.899V6.581z"/>
	<path d="M559.823,7.253h-1.608V6.425h2.593v3.42c0,0.553,0.075,0.923,0.228,1.11c0.152,0.188,0.38,0.282,0.684,0.282
		c0.232,0,0.446-0.028,0.643-0.084c0.195-0.056,0.35-0.116,0.462-0.18l0.144,0.84c-0.047,0.023-0.115,0.054-0.203,0.09
		s-0.19,0.07-0.307,0.102c-0.115,0.032-0.244,0.061-0.384,0.084c-0.14,0.024-0.286,0.036-0.438,0.036
		c-0.352,0-0.644-0.048-0.875-0.144c-0.232-0.097-0.418-0.24-0.559-0.433c-0.14-0.191-0.238-0.43-0.294-0.714
		c-0.056-0.283-0.084-0.613-0.084-0.99V7.253z M560.075,5.562c-0.208,0-0.388-0.072-0.54-0.217c-0.152-0.144-0.228-0.34-0.228-0.588
		c0-0.247,0.075-0.443,0.228-0.588c0.152-0.144,0.332-0.216,0.54-0.216c0.216,0,0.397,0.072,0.546,0.216
		c0.148,0.145,0.223,0.341,0.223,0.588c0,0.248-0.074,0.444-0.223,0.588C560.473,5.489,560.291,5.562,560.075,5.562z"/>
	<path d="M567.623,12.125c-0.352,0-0.644-0.048-0.875-0.144c-0.232-0.097-0.416-0.24-0.553-0.433
		c-0.137-0.191-0.232-0.43-0.288-0.714c-0.056-0.283-0.084-0.613-0.084-0.99V4.577h-1.608v-0.84h2.593v6.107
		c0,0.28,0.018,0.509,0.054,0.685s0.092,0.317,0.168,0.426s0.17,0.183,0.282,0.222c0.112,0.041,0.243,0.061,0.396,0.061
		c0.232,0,0.448-0.028,0.648-0.084c0.199-0.056,0.355-0.116,0.468-0.18l0.144,0.84c-0.047,0.023-0.115,0.054-0.203,0.09
		s-0.192,0.07-0.312,0.102c-0.119,0.032-0.25,0.061-0.39,0.084C567.922,12.113,567.775,12.125,567.623,12.125z"/>
	<path d="M570.42,11.993V3.845l0.996-0.168v2.832c0.159-0.063,0.34-0.113,0.539-0.149c0.2-0.036,0.396-0.055,0.588-0.055
		c0.424,0,0.778,0.062,1.062,0.187c0.283,0.124,0.51,0.298,0.678,0.521c0.168,0.225,0.288,0.492,0.36,0.805
		c0.071,0.312,0.108,0.656,0.108,1.032v3.144h-0.984V9.065c0-0.688-0.096-1.174-0.288-1.458s-0.536-0.426-1.032-0.426
		c-0.208,0-0.41,0.021-0.605,0.065c-0.197,0.044-0.338,0.086-0.426,0.126v4.62H570.42z"/>
	<path d="M581.088,9.209c0,0.44-0.062,0.838-0.187,1.194c-0.124,0.355-0.298,0.662-0.522,0.918
		c-0.224,0.256-0.492,0.454-0.804,0.594s-0.651,0.21-1.021,0.21c-0.359,0-0.693-0.07-1.002-0.21
		c-0.308-0.14-0.573-0.338-0.797-0.594c-0.225-0.256-0.398-0.562-0.522-0.918c-0.124-0.356-0.187-0.754-0.187-1.194
		c0-0.439,0.062-0.84,0.187-1.2c0.124-0.359,0.298-0.666,0.522-0.918c0.224-0.252,0.489-0.447,0.797-0.588
		c0.309-0.14,0.643-0.21,1.002-0.21c0.369,0,0.709,0.07,1.021,0.21c0.312,0.141,0.58,0.336,0.804,0.588
		c0.225,0.252,0.398,0.559,0.522,0.918C581.025,8.369,581.088,8.77,581.088,9.209z M580.223,4.373
		c-0.023,0.088-0.065,0.188-0.125,0.3c-0.061,0.112-0.135,0.217-0.223,0.312s-0.191,0.178-0.312,0.246
		c-0.12,0.067-0.257,0.102-0.408,0.102c-0.104,0-0.226-0.027-0.366-0.084c-0.14-0.056-0.254-0.104-0.342-0.144
		c-0.208-0.112-0.376-0.168-0.504-0.168c-0.104,0-0.204,0.052-0.3,0.155c-0.097,0.104-0.168,0.213-0.216,0.324l-0.516-0.275
		c0.023-0.088,0.065-0.188,0.125-0.301c0.061-0.111,0.135-0.216,0.223-0.312s0.191-0.178,0.312-0.246s0.252-0.102,0.396-0.102
		c0.104,0,0.227,0.029,0.367,0.09c0.139,0.06,0.254,0.109,0.342,0.149c0.207,0.112,0.375,0.168,0.504,0.168
		c0.104,0,0.205-0.052,0.306-0.155c0.101-0.104,0.174-0.212,0.222-0.324L580.223,4.373z M580.067,9.209
		c0-0.632-0.136-1.13-0.408-1.494c-0.272-0.363-0.64-0.546-1.104-0.546c-0.455,0-0.817,0.183-1.086,0.546
		c-0.268,0.364-0.401,0.862-0.401,1.494c0,0.624,0.134,1.118,0.401,1.482c0.269,0.364,0.631,0.546,1.086,0.546
		c0.465,0,0.832-0.182,1.104-0.546S580.067,9.833,580.067,9.209z"/>
	<path d="M584.676,6.293c0.752,0,1.332,0.234,1.74,0.702c0.407,0.468,0.611,1.178,0.611,2.13v0.349h-3.984
		c0.041,0.575,0.23,1.014,0.57,1.313s0.818,0.45,1.434,0.45c0.353,0,0.652-0.028,0.9-0.084s0.436-0.116,0.564-0.18l0.132,0.84
		c-0.12,0.063-0.336,0.132-0.647,0.204c-0.312,0.071-0.665,0.107-1.057,0.107c-0.48,0-0.902-0.074-1.266-0.222
		c-0.365-0.148-0.666-0.35-0.906-0.606c-0.24-0.256-0.42-0.562-0.54-0.918c-0.12-0.355-0.181-0.741-0.181-1.158
		c0-0.495,0.076-0.928,0.229-1.296c0.152-0.367,0.352-0.672,0.6-0.912c0.248-0.239,0.528-0.42,0.84-0.539
		C584.027,6.354,584.348,6.293,584.676,6.293z M586.02,8.669c0-0.472-0.125-0.846-0.372-1.122c-0.248-0.275-0.576-0.414-0.983-0.414
		c-0.232,0-0.443,0.044-0.631,0.133c-0.188,0.088-0.35,0.203-0.486,0.348c-0.136,0.144-0.244,0.308-0.324,0.492
		c-0.079,0.184-0.131,0.372-0.155,0.563H586.02z"/>
	<path d="M591.779,10.602c0-0.2-0.082-0.364-0.246-0.492s-0.367-0.24-0.611-0.336c-0.244-0.097-0.51-0.19-0.799-0.282
		c-0.287-0.092-0.554-0.206-0.798-0.342s-0.448-0.304-0.612-0.504s-0.246-0.46-0.246-0.78c0-0.448,0.183-0.822,0.547-1.122
		c0.363-0.3,0.934-0.45,1.709-0.45c0.305,0,0.619,0.022,0.943,0.066c0.323,0.044,0.602,0.102,0.834,0.174l-0.181,0.888
		c-0.063-0.031-0.151-0.065-0.265-0.102c-0.111-0.036-0.239-0.068-0.383-0.096c-0.145-0.028-0.299-0.051-0.463-0.066
		s-0.322-0.024-0.474-0.024c-0.864,0-1.296,0.236-1.296,0.708c0,0.168,0.082,0.311,0.246,0.427c0.164,0.115,0.369,0.222,0.617,0.317
		c0.248,0.097,0.517,0.194,0.805,0.294c0.288,0.101,0.556,0.223,0.805,0.366c0.247,0.145,0.453,0.318,0.617,0.522
		c0.164,0.203,0.246,0.462,0.246,0.773c0,0.504-0.196,0.895-0.588,1.17c-0.393,0.276-1.012,0.414-1.86,0.414
		c-0.384,0-0.735-0.032-1.056-0.096c-0.32-0.064-0.624-0.16-0.912-0.288l0.191-0.9c0.281,0.128,0.574,0.234,0.883,0.318
		c0.308,0.084,0.638,0.126,0.99,0.126C591.327,11.285,591.779,11.058,591.779,10.602z"/>
</g>
<g>
	<path d="M534.467,54.102c0.408-0.16,0.805-0.362,1.188-0.606s0.739-0.554,1.067-0.93h0.697v6.588h1.403v0.84h-3.996v-0.84h1.608
		v-5.208c-0.088,0.08-0.194,0.162-0.318,0.246s-0.26,0.166-0.408,0.246s-0.302,0.155-0.461,0.228
		c-0.16,0.072-0.316,0.132-0.469,0.18L534.467,54.102z"/>
	<path d="M544.932,55.541c0,1.48-0.36,2.594-1.08,3.342c-0.721,0.748-1.805,1.126-3.252,1.135l-0.036-0.841
		c0.896,0,1.618-0.178,2.166-0.533c0.548-0.356,0.909-0.971,1.086-1.843c-0.192,0.089-0.404,0.158-0.636,0.21
		c-0.232,0.053-0.477,0.078-0.732,0.078c-0.424,0-0.779-0.062-1.068-0.186c-0.287-0.124-0.52-0.292-0.695-0.504
		s-0.305-0.454-0.385-0.727c-0.08-0.271-0.119-0.56-0.119-0.863c0-0.272,0.043-0.551,0.132-0.834
		c0.088-0.284,0.224-0.542,0.407-0.774c0.185-0.232,0.42-0.424,0.709-0.576c0.287-0.151,0.631-0.228,1.031-0.228
		c0.816,0,1.432,0.28,1.849,0.84C544.723,53.797,544.932,54.565,544.932,55.541z M542.555,56.273c0.257,0,0.494-0.024,0.715-0.072
		c0.22-0.048,0.434-0.116,0.643-0.204c0.008-0.08,0.012-0.156,0.012-0.228c0-0.072,0-0.148,0-0.229c0-0.312-0.022-0.607-0.066-0.888
		s-0.12-0.524-0.229-0.732c-0.107-0.208-0.256-0.374-0.443-0.498s-0.426-0.186-0.715-0.186c-0.239,0-0.439,0.05-0.6,0.149
		c-0.16,0.101-0.292,0.225-0.396,0.372c-0.104,0.148-0.179,0.314-0.222,0.498c-0.045,0.185-0.066,0.36-0.066,0.528
		c0,0.488,0.109,0.858,0.33,1.11C541.737,56.147,542.084,56.273,542.555,56.273z"/>
	<path d="M549.455,59.226c0,0.239-0.08,0.451-0.24,0.636c-0.16,0.184-0.371,0.275-0.635,0.275c-0.273,0-0.488-0.092-0.648-0.275
		c-0.16-0.185-0.24-0.396-0.24-0.636c0-0.248,0.08-0.464,0.24-0.648c0.16-0.184,0.375-0.276,0.648-0.276
		c0.264,0,0.475,0.093,0.635,0.276C549.375,58.762,549.455,58.978,549.455,59.226z"/>
	<path d="M556.955,58.062c0,0.624-0.197,1.128-0.594,1.512s-0.998,0.576-1.807,0.576c-0.463,0-0.848-0.062-1.151-0.187
		s-0.546-0.283-0.726-0.479s-0.309-0.414-0.385-0.654s-0.113-0.476-0.113-0.708c0-0.424,0.115-0.8,0.348-1.128
		s0.508-0.592,0.828-0.792c-0.68-0.384-1.02-0.972-1.02-1.764c0-0.272,0.051-0.532,0.155-0.78s0.252-0.464,0.444-0.648
		c0.191-0.184,0.426-0.331,0.701-0.443c0.277-0.112,0.586-0.168,0.931-0.168c0.399,0,0.741,0.06,1.026,0.18
		c0.283,0.12,0.514,0.274,0.689,0.462c0.176,0.188,0.305,0.396,0.385,0.624c0.079,0.229,0.119,0.45,0.119,0.666
		c0,0.424-0.107,0.79-0.324,1.098c-0.215,0.309-0.463,0.555-0.744,0.738C556.543,56.558,556.955,57.189,556.955,58.062z
		 M553.139,58.133c0,0.128,0.025,0.263,0.072,0.402c0.049,0.14,0.129,0.27,0.24,0.39c0.112,0.12,0.26,0.219,0.444,0.294
		c0.184,0.076,0.407,0.114,0.672,0.114c0.248,0,0.462-0.034,0.642-0.102c0.18-0.068,0.328-0.16,0.444-0.276s0.202-0.246,0.259-0.39
		c0.055-0.145,0.084-0.288,0.084-0.433c0-0.456-0.164-0.806-0.492-1.05s-0.781-0.43-1.356-0.558c-0.32,0.176-0.568,0.396-0.744,0.66
		C553.228,57.449,553.139,57.766,553.139,58.133z M555.827,54.329c0-0.104-0.024-0.222-0.071-0.354
		c-0.049-0.133-0.123-0.252-0.223-0.36s-0.23-0.2-0.39-0.276c-0.16-0.075-0.353-0.113-0.576-0.113c-0.231,0-0.426,0.035-0.582,0.107
		c-0.155,0.072-0.286,0.162-0.39,0.271c-0.104,0.107-0.178,0.228-0.223,0.359c-0.044,0.132-0.065,0.263-0.065,0.391
		c0,0.328,0.118,0.634,0.354,0.918c0.235,0.284,0.625,0.49,1.17,0.618c0.303-0.177,0.545-0.385,0.726-0.624
		C555.737,55.025,555.827,54.713,555.827,54.329z"/>
</g>
<g>
	<path d="M534.467,102.102c0.408-0.16,0.805-0.362,1.188-0.606s0.739-0.554,1.067-0.93h0.697v6.588h1.403v0.84h-3.996v-0.84h1.608
		v-5.208c-0.088,0.08-0.194,0.162-0.318,0.246s-0.26,0.166-0.408,0.246s-0.302,0.155-0.461,0.228
		c-0.16,0.072-0.316,0.132-0.469,0.18L534.467,102.102z"/>
	<path d="M541.428,107.993c0.039-0.568,0.142-1.17,0.306-1.806c0.164-0.637,0.362-1.252,0.594-1.849
		c0.231-0.596,0.488-1.147,0.769-1.655c0.279-0.509,0.556-0.927,0.828-1.255h-3.601v-0.863h4.704v0.828
		c-0.24,0.279-0.5,0.655-0.779,1.128c-0.281,0.472-0.547,1.002-0.799,1.59s-0.47,1.216-0.654,1.884
		c-0.184,0.668-0.299,1.334-0.348,1.998H541.428z"/>
	<path d="M549.455,107.226c0,0.239-0.08,0.451-0.24,0.636c-0.16,0.184-0.371,0.275-0.635,0.275c-0.273,0-0.488-0.092-0.648-0.275
		c-0.16-0.185-0.24-0.396-0.24-0.636c0-0.248,0.08-0.464,0.24-0.648c0.16-0.184,0.375-0.276,0.648-0.276
		c0.264,0,0.475,0.093,0.635,0.276C549.375,106.762,549.455,106.978,549.455,107.226z"/>
	<path d="M552.215,105.018c0-0.721,0.099-1.358,0.295-1.914c0.195-0.557,0.476-1.022,0.84-1.398
		c0.363-0.376,0.806-0.664,1.326-0.864c0.52-0.199,1.107-0.304,1.764-0.312l0.084,0.84c-0.424,0.008-0.811,0.054-1.158,0.138
		s-0.658,0.221-0.93,0.408c-0.272,0.188-0.5,0.431-0.684,0.727c-0.185,0.296-0.324,0.659-0.42,1.092
		c0.191-0.088,0.401-0.16,0.629-0.216c0.229-0.057,0.471-0.084,0.727-0.084c0.416,0,0.77,0.063,1.062,0.191
		c0.291,0.128,0.525,0.298,0.701,0.51c0.176,0.213,0.305,0.458,0.385,0.738c0.079,0.28,0.119,0.568,0.119,0.864
		c0,0.271-0.044,0.55-0.132,0.834s-0.224,0.544-0.407,0.78c-0.185,0.235-0.42,0.428-0.709,0.575
		c-0.287,0.148-0.632,0.223-1.031,0.223c-0.824,0-1.44-0.276-1.849-0.828C552.42,106.77,552.215,106.001,552.215,105.018z
		 M554.58,104.249c-0.257,0-0.49,0.024-0.703,0.072c-0.211,0.048-0.426,0.12-0.642,0.216c-0.008,0.08-0.013,0.158-0.013,0.234
		s0,0.158,0,0.246c0,0.312,0.022,0.605,0.066,0.882c0.045,0.275,0.12,0.52,0.229,0.731c0.107,0.212,0.254,0.38,0.438,0.504
		c0.184,0.125,0.42,0.187,0.709,0.187c0.239,0,0.439-0.05,0.6-0.15c0.16-0.1,0.291-0.226,0.396-0.378
		c0.104-0.151,0.179-0.321,0.222-0.51c0.045-0.188,0.066-0.366,0.066-0.534c0-0.487-0.109-0.859-0.33-1.116
		C555.397,104.377,555.051,104.249,554.58,104.249z"/>
</g>
<g>
	<path d="M534.467,150.102c0.408-0.16,0.805-0.362,1.188-0.606s0.739-0.554,1.067-0.93h0.697v6.588h1.403v0.84h-3.996v-0.84h1.608
		v-5.208c-0.088,0.08-0.194,0.162-0.318,0.246s-0.26,0.166-0.408,0.246s-0.302,0.155-0.461,0.228
		c-0.16,0.072-0.316,0.132-0.469,0.18L534.467,150.102z"/>
	<path d="M541.799,151.434c1.072,0.04,1.853,0.275,2.34,0.708c0.488,0.432,0.732,1.012,0.732,1.739c0,0.328-0.052,0.633-0.156,0.912
		c-0.104,0.28-0.266,0.521-0.485,0.72c-0.22,0.2-0.5,0.356-0.841,0.469c-0.34,0.111-0.741,0.168-1.205,0.168
		c-0.192,0-0.383-0.015-0.57-0.042c-0.188-0.028-0.365-0.062-0.533-0.103s-0.316-0.082-0.445-0.126
		c-0.127-0.044-0.22-0.082-0.275-0.113l0.191-0.853c0.129,0.064,0.326,0.141,0.595,0.229c0.268,0.088,0.606,0.132,1.014,0.132
		c0.32,0,0.589-0.036,0.804-0.108c0.217-0.072,0.391-0.17,0.522-0.294s0.228-0.266,0.288-0.426s0.09-0.328,0.09-0.504
		c0-0.272-0.046-0.515-0.138-0.727c-0.093-0.212-0.253-0.39-0.479-0.533c-0.229-0.145-0.541-0.254-0.937-0.33
		s-0.894-0.114-1.494-0.114c0.048-0.353,0.086-0.682,0.114-0.99c0.027-0.308,0.052-0.607,0.072-0.9
		c0.02-0.291,0.035-0.581,0.047-0.869c0.013-0.288,0.026-0.593,0.043-0.912h3.576v0.84h-2.713c-0.008,0.112-0.018,0.258-0.029,0.438
		c-0.012,0.181-0.026,0.37-0.043,0.57c-0.016,0.2-0.031,0.393-0.047,0.576C541.819,151.173,541.807,151.321,541.799,151.434z"/>
	<path d="M549.455,155.226c0,0.239-0.08,0.451-0.24,0.636c-0.16,0.184-0.371,0.275-0.635,0.275c-0.273,0-0.488-0.092-0.648-0.275
		c-0.16-0.185-0.24-0.396-0.24-0.636c0-0.248,0.08-0.464,0.24-0.648c0.16-0.184,0.375-0.276,0.648-0.276
		c0.264,0,0.475,0.093,0.635,0.276C549.375,154.762,549.455,154.978,549.455,155.226z"/>
	<path d="M552,153.425c0.135-0.319,0.321-0.688,0.558-1.104c0.235-0.416,0.501-0.846,0.798-1.29c0.296-0.444,0.611-0.88,0.947-1.308
		c0.336-0.429,0.677-0.814,1.021-1.158h0.96v4.716h0.876v0.815h-0.876v1.896h-0.96v-1.896H552V153.425z M555.323,149.741
		c-0.216,0.232-0.435,0.488-0.653,0.768c-0.221,0.28-0.435,0.574-0.643,0.883c-0.208,0.308-0.402,0.622-0.582,0.941
		c-0.18,0.32-0.342,0.636-0.486,0.948h2.364V149.741z"/>
</g>
<g>
	<path d="M534.467,198.102c0.408-0.16,0.805-0.362,1.188-0.606s0.739-0.554,1.067-0.93h0.697v6.588h1.403v0.84h-3.996v-0.84h1.608
		v-5.208c-0.088,0.08-0.194,0.162-0.318,0.246s-0.26,0.166-0.408,0.246s-0.302,0.155-0.461,0.228
		c-0.16,0.072-0.316,0.132-0.469,0.18L534.467,198.102z"/>
	<path d="M542.111,203.273c0.632,0,1.082-0.126,1.35-0.378c0.269-0.252,0.402-0.59,0.402-1.015c0-0.271-0.057-0.5-0.168-0.684
		s-0.26-0.332-0.443-0.444c-0.185-0.111-0.396-0.191-0.637-0.24c-0.24-0.048-0.492-0.071-0.756-0.071h-0.252v-0.805h0.348
		c0.176,0,0.358-0.018,0.547-0.054c0.188-0.036,0.359-0.1,0.516-0.191c0.156-0.093,0.281-0.219,0.378-0.379
		c0.096-0.159,0.144-0.363,0.144-0.611c0-0.408-0.125-0.698-0.377-0.87c-0.253-0.172-0.547-0.258-0.883-0.258
		c-0.344,0-0.636,0.05-0.876,0.149c-0.239,0.101-0.44,0.202-0.601,0.307l-0.383-0.756c0.168-0.12,0.422-0.246,0.762-0.379
		c0.34-0.132,0.718-0.197,1.134-0.197c0.392,0,0.728,0.048,1.008,0.144s0.511,0.232,0.69,0.408s0.313,0.382,0.402,0.618
		c0.088,0.236,0.131,0.494,0.131,0.773c0,0.393-0.102,0.725-0.306,0.996c-0.204,0.272-0.466,0.48-0.786,0.624
		c0.385,0.112,0.717,0.33,0.996,0.654c0.28,0.324,0.42,0.754,0.42,1.29c0,0.32-0.054,0.618-0.162,0.894
		c-0.107,0.276-0.271,0.515-0.492,0.714c-0.22,0.2-0.504,0.356-0.852,0.469c-0.348,0.111-0.762,0.168-1.242,0.168
		c-0.184,0-0.373-0.015-0.57-0.042c-0.195-0.028-0.377-0.064-0.545-0.108s-0.318-0.088-0.45-0.132s-0.227-0.078-0.282-0.102
		l0.191-0.853c0.129,0.064,0.332,0.141,0.613,0.229C541.359,203.229,541.703,203.273,542.111,203.273z"/>
	<path d="M549.455,203.226c0,0.239-0.08,0.451-0.24,0.636c-0.16,0.184-0.371,0.275-0.635,0.275c-0.273,0-0.488-0.092-0.648-0.275
		c-0.16-0.185-0.24-0.396-0.24-0.636c0-0.248,0.08-0.464,0.24-0.648c0.16-0.184,0.375-0.276,0.648-0.276
		c0.264,0,0.475,0.093,0.635,0.276C549.375,202.762,549.455,202.978,549.455,203.226z"/>
	<path d="M556.607,198.461c0,0.257-0.051,0.504-0.15,0.744s-0.232,0.477-0.396,0.708c-0.164,0.232-0.351,0.46-0.558,0.684
		c-0.209,0.225-0.42,0.444-0.637,0.66c-0.119,0.12-0.26,0.265-0.42,0.433s-0.312,0.34-0.456,0.516s-0.264,0.348-0.36,0.516
		c-0.096,0.169-0.144,0.312-0.144,0.433h3.42v0.84h-4.5c-0.008-0.04-0.012-0.082-0.012-0.126s0-0.086,0-0.126
		c0-0.336,0.056-0.648,0.168-0.937c0.112-0.287,0.256-0.56,0.433-0.815c0.176-0.256,0.373-0.498,0.594-0.727
		c0.219-0.228,0.438-0.449,0.653-0.666c0.177-0.176,0.347-0.348,0.511-0.516s0.307-0.336,0.432-0.504
		c0.123-0.168,0.224-0.342,0.3-0.522c0.076-0.18,0.114-0.365,0.114-0.558c0-0.216-0.034-0.399-0.102-0.552
		c-0.068-0.152-0.16-0.278-0.277-0.378c-0.115-0.101-0.25-0.174-0.401-0.223c-0.151-0.048-0.315-0.071-0.492-0.071
		c-0.208,0-0.397,0.028-0.569,0.084s-0.324,0.124-0.457,0.204c-0.131,0.08-0.246,0.157-0.342,0.233s-0.168,0.139-0.216,0.187
		l-0.491-0.696c0.063-0.072,0.159-0.16,0.287-0.264c0.129-0.104,0.282-0.202,0.463-0.294c0.18-0.092,0.381-0.17,0.605-0.234
		c0.224-0.063,0.464-0.096,0.72-0.096c0.776,0,1.351,0.178,1.722,0.534C556.422,197.287,556.607,197.797,556.607,198.461z"/>
</g>
<g>
	<path d="M534.467,246.103c0.408-0.16,0.805-0.362,1.188-0.606s0.739-0.554,1.067-0.93h0.697v6.588h1.403v0.84h-3.996v-0.84h1.608
		v-5.208c-0.088,0.08-0.194,0.162-0.318,0.246s-0.26,0.166-0.408,0.246s-0.302,0.155-0.461,0.228
		c-0.16,0.072-0.316,0.132-0.469,0.18L534.467,246.103z"/>
	<path d="M540.467,246.103c0.408-0.16,0.805-0.362,1.188-0.606s0.739-0.554,1.067-0.93h0.697v6.588h1.403v0.84h-3.996v-0.84h1.608
		v-5.208c-0.088,0.08-0.194,0.162-0.318,0.246s-0.26,0.166-0.408,0.246s-0.302,0.155-0.461,0.228
		c-0.16,0.072-0.316,0.132-0.469,0.18L540.467,246.103z"/>
</g>
<g>
	<path d="M538.955,298.062c0,0.624-0.197,1.128-0.594,1.512s-0.998,0.576-1.807,0.576c-0.463,0-0.848-0.062-1.151-0.187
		s-0.546-0.283-0.726-0.479s-0.309-0.414-0.385-0.654s-0.113-0.476-0.113-0.708c0-0.424,0.115-0.8,0.348-1.128
		s0.508-0.592,0.828-0.792c-0.68-0.384-1.02-0.972-1.02-1.764c0-0.272,0.051-0.532,0.155-0.78s0.252-0.464,0.444-0.648
		c0.191-0.184,0.426-0.331,0.701-0.443c0.277-0.112,0.586-0.168,0.931-0.168c0.399,0,0.741,0.06,1.026,0.18
		c0.283,0.12,0.514,0.274,0.689,0.462c0.176,0.188,0.305,0.396,0.385,0.624c0.079,0.229,0.119,0.45,0.119,0.666
		c0,0.424-0.107,0.79-0.324,1.098c-0.215,0.309-0.463,0.555-0.744,0.738C538.543,296.559,538.955,297.19,538.955,298.062z
		 M535.139,298.134c0,0.128,0.025,0.263,0.072,0.402c0.049,0.14,0.129,0.27,0.24,0.39c0.112,0.12,0.26,0.219,0.444,0.294
		c0.184,0.076,0.407,0.114,0.672,0.114c0.248,0,0.462-0.034,0.642-0.102c0.18-0.068,0.328-0.16,0.444-0.276s0.202-0.246,0.259-0.39
		c0.055-0.145,0.084-0.288,0.084-0.433c0-0.456-0.164-0.806-0.492-1.05s-0.781-0.43-1.356-0.558c-0.32,0.176-0.568,0.396-0.744,0.66
		C535.228,297.45,535.139,297.767,535.139,298.134z M537.827,294.33c0-0.104-0.024-0.222-0.071-0.354
		c-0.049-0.133-0.123-0.252-0.223-0.36s-0.23-0.2-0.39-0.276c-0.16-0.075-0.353-0.113-0.576-0.113c-0.231,0-0.426,0.035-0.582,0.107
		c-0.155,0.072-0.286,0.162-0.39,0.271c-0.104,0.107-0.178,0.228-0.223,0.359c-0.044,0.132-0.065,0.263-0.065,0.391
		c0,0.328,0.118,0.634,0.354,0.918c0.235,0.284,0.625,0.49,1.17,0.618c0.303-0.177,0.545-0.385,0.726-0.624
		C537.737,295.026,537.827,294.714,537.827,294.33z"/>
	<path d="M543.455,299.227c0,0.239-0.08,0.451-0.24,0.636c-0.16,0.184-0.371,0.275-0.635,0.275c-0.273,0-0.488-0.092-0.648-0.275
		c-0.16-0.185-0.24-0.396-0.24-0.636c0-0.248,0.08-0.464,0.24-0.648c0.16-0.184,0.375-0.276,0.648-0.276
		c0.264,0,0.475,0.093,0.635,0.276C543.375,298.763,543.455,298.979,543.455,299.227z"/>
	<path d="M550.955,298.062c0,0.624-0.197,1.128-0.594,1.512s-0.998,0.576-1.807,0.576c-0.463,0-0.848-0.062-1.151-0.187
		s-0.546-0.283-0.726-0.479s-0.309-0.414-0.385-0.654s-0.113-0.476-0.113-0.708c0-0.424,0.115-0.8,0.348-1.128
		s0.508-0.592,0.828-0.792c-0.68-0.384-1.02-0.972-1.02-1.764c0-0.272,0.051-0.532,0.155-0.78s0.252-0.464,0.444-0.648
		c0.191-0.184,0.426-0.331,0.701-0.443c0.277-0.112,0.586-0.168,0.931-0.168c0.399,0,0.741,0.06,1.026,0.18
		c0.283,0.12,0.514,0.274,0.689,0.462c0.176,0.188,0.305,0.396,0.385,0.624c0.079,0.229,0.119,0.45,0.119,0.666
		c0,0.424-0.107,0.79-0.324,1.098c-0.215,0.309-0.463,0.555-0.744,0.738C550.543,296.559,550.955,297.19,550.955,298.062z
		 M547.139,298.134c0,0.128,0.025,0.263,0.072,0.402c0.049,0.14,0.129,0.27,0.24,0.39c0.112,0.12,0.26,0.219,0.444,0.294
		c0.184,0.076,0.407,0.114,0.672,0.114c0.248,0,0.462-0.034,0.642-0.102c0.18-0.068,0.328-0.16,0.444-0.276s0.202-0.246,0.259-0.39
		c0.055-0.145,0.084-0.288,0.084-0.433c0-0.456-0.164-0.806-0.492-1.05s-0.781-0.43-1.356-0.558c-0.32,0.176-0.568,0.396-0.744,0.66
		C547.228,297.45,547.139,297.767,547.139,298.134z M549.827,294.33c0-0.104-0.024-0.222-0.071-0.354
		c-0.049-0.133-0.123-0.252-0.223-0.36s-0.23-0.2-0.39-0.276c-0.16-0.075-0.353-0.113-0.576-0.113c-0.231,0-0.426,0.035-0.582,0.107
		c-0.155,0.072-0.286,0.162-0.39,0.271c-0.104,0.107-0.178,0.228-0.223,0.359c-0.044,0.132-0.065,0.263-0.065,0.391
		c0,0.328,0.118,0.634,0.354,0.918c0.235,0.284,0.625,0.49,1.17,0.618c0.303-0.177,0.545-0.385,0.726-0.624
		C549.737,295.026,549.827,294.714,549.827,294.33z"/>
</g>
<g>
	<path d="M534.215,345.019c0-0.721,0.099-1.358,0.295-1.914c0.195-0.557,0.476-1.022,0.84-1.398
		c0.363-0.376,0.806-0.664,1.326-0.864c0.52-0.199,1.107-0.304,1.764-0.312l0.084,0.84c-0.424,0.008-0.811,0.054-1.158,0.138
		s-0.658,0.221-0.93,0.408c-0.272,0.188-0.5,0.431-0.684,0.727c-0.185,0.296-0.324,0.659-0.42,1.092
		c0.191-0.088,0.401-0.16,0.629-0.216c0.229-0.057,0.471-0.084,0.727-0.084c0.416,0,0.77,0.063,1.062,0.191
		c0.291,0.128,0.525,0.298,0.701,0.51c0.176,0.213,0.305,0.458,0.385,0.738c0.079,0.28,0.119,0.568,0.119,0.864
		c0,0.271-0.044,0.55-0.132,0.834s-0.224,0.544-0.407,0.78c-0.185,0.235-0.42,0.428-0.709,0.575
		c-0.287,0.148-0.632,0.223-1.031,0.223c-0.824,0-1.44-0.276-1.849-0.828C534.42,346.771,534.215,346.002,534.215,345.019z
		 M536.58,344.25c-0.257,0-0.49,0.024-0.703,0.072c-0.211,0.048-0.426,0.12-0.642,0.216c-0.008,0.08-0.013,0.158-0.013,0.234
		s0,0.158,0,0.246c0,0.312,0.022,0.605,0.066,0.882c0.045,0.275,0.12,0.52,0.229,0.731c0.107,0.212,0.254,0.38,0.438,0.504
		c0.184,0.125,0.42,0.187,0.709,0.187c0.239,0,0.439-0.05,0.6-0.15c0.16-0.1,0.291-0.226,0.396-0.378
		c0.104-0.151,0.179-0.321,0.222-0.51c0.045-0.188,0.066-0.366,0.066-0.534c0-0.487-0.109-0.859-0.33-1.116
		C537.397,344.378,537.051,344.25,536.58,344.25z"/>
	<path d="M543.455,347.227c0,0.239-0.08,0.451-0.24,0.636c-0.16,0.184-0.371,0.275-0.635,0.275c-0.273,0-0.488-0.092-0.648-0.275
		c-0.16-0.185-0.24-0.396-0.24-0.636c0-0.248,0.08-0.464,0.24-0.648c0.16-0.184,0.375-0.276,0.648-0.276
		c0.264,0,0.475,0.093,0.635,0.276C543.375,346.763,543.455,346.979,543.455,347.227z"/>
	<path d="M546.215,345.019c0-0.721,0.099-1.358,0.295-1.914c0.195-0.557,0.476-1.022,0.84-1.398
		c0.363-0.376,0.806-0.664,1.326-0.864c0.52-0.199,1.107-0.304,1.764-0.312l0.084,0.84c-0.424,0.008-0.811,0.054-1.158,0.138
		s-0.658,0.221-0.93,0.408c-0.272,0.188-0.5,0.431-0.684,0.727c-0.185,0.296-0.324,0.659-0.42,1.092
		c0.191-0.088,0.401-0.16,0.629-0.216c0.229-0.057,0.471-0.084,0.727-0.084c0.416,0,0.77,0.063,1.062,0.191
		c0.291,0.128,0.525,0.298,0.701,0.51c0.176,0.213,0.305,0.458,0.385,0.738c0.079,0.28,0.119,0.568,0.119,0.864
		c0,0.271-0.044,0.55-0.132,0.834s-0.224,0.544-0.407,0.78c-0.185,0.235-0.42,0.428-0.709,0.575
		c-0.287,0.148-0.632,0.223-1.031,0.223c-0.824,0-1.44-0.276-1.849-0.828C546.42,346.771,546.215,346.002,546.215,345.019z
		 M548.58,344.25c-0.257,0-0.49,0.024-0.703,0.072c-0.211,0.048-0.426,0.12-0.642,0.216c-0.008,0.08-0.013,0.158-0.013,0.234
		s0,0.158,0,0.246c0,0.312,0.022,0.605,0.066,0.882c0.045,0.275,0.12,0.52,0.229,0.731c0.107,0.212,0.254,0.38,0.438,0.504
		c0.184,0.125,0.42,0.187,0.709,0.187c0.239,0,0.439-0.05,0.6-0.15c0.16-0.1,0.291-0.226,0.396-0.378
		c0.104-0.151,0.179-0.321,0.222-0.51c0.045-0.188,0.066-0.366,0.066-0.534c0-0.487-0.109-0.859-0.33-1.116
		C549.397,344.378,549.051,344.25,548.58,344.25z"/>
</g>
<g>
	<path d="M534,393.426c0.135-0.319,0.321-0.688,0.558-1.104c0.235-0.416,0.501-0.846,0.798-1.29c0.296-0.444,0.611-0.88,0.947-1.308
		c0.336-0.429,0.677-0.814,1.021-1.158h0.96v4.716h0.876v0.815h-0.876v1.896h-0.96v-1.896H534V393.426z M537.323,389.742
		c-0.216,0.232-0.435,0.488-0.653,0.768c-0.221,0.28-0.435,0.574-0.643,0.883c-0.208,0.308-0.402,0.622-0.582,0.941
		c-0.18,0.32-0.342,0.636-0.486,0.948h2.364V389.742z"/>
	<path d="M543.455,395.227c0,0.239-0.08,0.451-0.24,0.636c-0.16,0.184-0.371,0.275-0.635,0.275c-0.273,0-0.488-0.092-0.648-0.275
		c-0.16-0.185-0.24-0.396-0.24-0.636c0-0.248,0.08-0.464,0.24-0.648c0.16-0.184,0.375-0.276,0.648-0.276
		c0.264,0,0.475,0.093,0.635,0.276C543.375,394.763,543.455,394.979,543.455,395.227z"/>
	<path d="M546,393.426c0.135-0.319,0.321-0.688,0.558-1.104c0.235-0.416,0.501-0.846,0.798-1.29c0.296-0.444,0.611-0.88,0.947-1.308
		c0.336-0.429,0.677-0.814,1.021-1.158h0.96v4.716h0.876v0.815h-0.876v1.896h-0.96v-1.896H546V393.426z M549.323,389.742
		c-0.216,0.232-0.435,0.488-0.653,0.768c-0.221,0.28-0.435,0.574-0.643,0.883c-0.208,0.308-0.402,0.622-0.582,0.941
		c-0.18,0.32-0.342,0.636-0.486,0.948h2.364V389.742z"/>
</g>
<g>
	<path d="M538.607,438.462c0,0.257-0.051,0.504-0.15,0.744s-0.232,0.477-0.396,0.708c-0.164,0.232-0.351,0.46-0.558,0.684
		c-0.209,0.225-0.42,0.444-0.637,0.66c-0.119,0.12-0.26,0.265-0.42,0.433s-0.312,0.34-0.456,0.516s-0.264,0.348-0.36,0.516
		c-0.096,0.169-0.144,0.312-0.144,0.433h3.42v0.84h-4.5c-0.008-0.04-0.012-0.082-0.012-0.126s0-0.086,0-0.126
		c0-0.336,0.056-0.648,0.168-0.937c0.112-0.287,0.256-0.56,0.433-0.815c0.176-0.256,0.373-0.498,0.594-0.727
		c0.219-0.228,0.438-0.449,0.653-0.666c0.177-0.176,0.347-0.348,0.511-0.516s0.307-0.336,0.432-0.504
		c0.123-0.168,0.224-0.342,0.3-0.522c0.076-0.18,0.114-0.365,0.114-0.558c0-0.216-0.034-0.399-0.102-0.552
		c-0.068-0.152-0.16-0.278-0.277-0.378c-0.115-0.101-0.25-0.174-0.401-0.223c-0.151-0.048-0.315-0.071-0.492-0.071
		c-0.208,0-0.397,0.028-0.569,0.084s-0.324,0.124-0.457,0.204c-0.131,0.08-0.246,0.157-0.342,0.233s-0.168,0.139-0.216,0.187
		l-0.491-0.696c0.063-0.072,0.159-0.16,0.287-0.264c0.129-0.104,0.282-0.202,0.463-0.294c0.18-0.092,0.381-0.17,0.605-0.234
		c0.224-0.063,0.464-0.096,0.72-0.096c0.776,0,1.351,0.178,1.722,0.534C538.422,437.288,538.607,437.798,538.607,438.462z"/>
	<path d="M543.455,443.227c0,0.239-0.08,0.451-0.24,0.636c-0.16,0.184-0.371,0.275-0.635,0.275c-0.273,0-0.488-0.092-0.648-0.275
		c-0.16-0.185-0.24-0.396-0.24-0.636c0-0.248,0.08-0.464,0.24-0.648c0.16-0.184,0.375-0.276,0.648-0.276
		c0.264,0,0.475,0.093,0.635,0.276C543.375,442.763,543.455,442.979,543.455,443.227z"/>
	<path d="M550.607,438.462c0,0.257-0.051,0.504-0.15,0.744s-0.232,0.477-0.396,0.708c-0.164,0.232-0.351,0.46-0.558,0.684
		c-0.209,0.225-0.42,0.444-0.637,0.66c-0.119,0.12-0.26,0.265-0.42,0.433s-0.312,0.34-0.456,0.516s-0.264,0.348-0.36,0.516
		c-0.096,0.169-0.144,0.312-0.144,0.433h3.42v0.84h-4.5c-0.008-0.04-0.012-0.082-0.012-0.126s0-0.086,0-0.126
		c0-0.336,0.056-0.648,0.168-0.937c0.112-0.287,0.256-0.56,0.433-0.815c0.176-0.256,0.373-0.498,0.594-0.727
		c0.219-0.228,0.438-0.449,0.653-0.666c0.177-0.176,0.347-0.348,0.511-0.516s0.307-0.336,0.432-0.504
		c0.123-0.168,0.224-0.342,0.3-0.522c0.076-0.18,0.114-0.365,0.114-0.558c0-0.216-0.034-0.399-0.102-0.552
		c-0.068-0.152-0.16-0.278-0.277-0.378c-0.115-0.101-0.25-0.174-0.401-0.223c-0.151-0.048-0.315-0.071-0.492-0.071
		c-0.208,0-0.397,0.028-0.569,0.084s-0.324,0.124-0.457,0.204c-0.131,0.08-0.246,0.157-0.342,0.233s-0.168,0.139-0.216,0.187
		l-0.491-0.696c0.063-0.072,0.159-0.16,0.287-0.264c0.129-0.104,0.282-0.202,0.463-0.294c0.18-0.092,0.381-0.17,0.605-0.234
		c0.224-0.063,0.464-0.096,0.72-0.096c0.776,0,1.351,0.178,1.722,0.534C550.422,437.288,550.607,437.798,550.607,438.462z"/>
</g>
<g>
	<path d="M534.119,488.274c0-1.248,0.215-2.206,0.643-2.874s1.029-1.002,1.806-1.002c0.784,0,1.388,0.334,1.812,1.002
		s0.637,1.626,0.637,2.874s-0.213,2.206-0.637,2.874s-1.027,1.002-1.812,1.002c-0.776,0-1.378-0.334-1.806-1.002
		S534.119,489.522,534.119,488.274z M538.008,488.274c0-0.408-0.024-0.794-0.072-1.158c-0.049-0.364-0.129-0.682-0.24-0.954
		c-0.111-0.271-0.26-0.488-0.443-0.648c-0.185-0.159-0.412-0.239-0.685-0.239s-0.5,0.08-0.685,0.239
		c-0.184,0.16-0.332,0.377-0.443,0.648c-0.112,0.272-0.191,0.59-0.24,0.954c-0.048,0.364-0.072,0.75-0.072,1.158
		s0.024,0.794,0.072,1.158c0.049,0.363,0.128,0.682,0.24,0.953c0.111,0.272,0.26,0.488,0.443,0.648
		c0.185,0.16,0.412,0.24,0.685,0.24s0.5-0.08,0.685-0.24c0.184-0.16,0.332-0.376,0.443-0.648c0.111-0.271,0.191-0.59,0.24-0.953
		C537.983,489.068,538.008,488.683,538.008,488.274z M537.264,488.143c0,0.208-0.062,0.388-0.187,0.54
		c-0.124,0.151-0.286,0.228-0.485,0.228c-0.209,0-0.377-0.076-0.504-0.228c-0.129-0.152-0.192-0.332-0.192-0.54
		s0.063-0.393,0.192-0.553c0.127-0.159,0.295-0.239,0.504-0.239c0.199,0,0.361,0.08,0.485,0.239
		C537.201,487.75,537.264,487.935,537.264,488.143z"/>
	<path d="M546.06,486.582c0.479-0.184,0.932-0.276,1.356-0.276c0.231,0,0.449,0.034,0.653,0.103s0.378,0.174,0.522,0.318
		c0.344-0.28,0.711-0.421,1.104-0.421c0.191,0,0.374,0.036,0.546,0.108s0.324,0.18,0.456,0.324c0.133,0.144,0.238,0.324,0.318,0.54
		s0.119,0.468,0.119,0.756v3.96h-0.899v-3.984c0-0.288-0.063-0.508-0.192-0.659c-0.127-0.152-0.287-0.229-0.479-0.229
		c-0.097,0-0.196,0.024-0.3,0.072c-0.104,0.048-0.2,0.124-0.288,0.228c0.048,0.185,0.071,0.389,0.071,0.612v1.812h-0.899v-1.823
		c0-0.28-0.044-0.5-0.132-0.66s-0.26-0.24-0.516-0.24c-0.16,0-0.341,0.036-0.541,0.108v4.764h-0.899V486.582z"/>
	<path d="M553.823,487.254h-1.608v-0.828h2.593v3.42c0,0.553,0.075,0.923,0.228,1.11c0.152,0.188,0.38,0.282,0.684,0.282
		c0.232,0,0.446-0.028,0.643-0.084c0.195-0.056,0.35-0.116,0.462-0.18l0.144,0.84c-0.047,0.023-0.115,0.054-0.203,0.09
		s-0.19,0.07-0.307,0.102c-0.115,0.032-0.244,0.061-0.384,0.084c-0.14,0.024-0.286,0.036-0.438,0.036
		c-0.352,0-0.644-0.048-0.875-0.144c-0.232-0.097-0.418-0.24-0.559-0.433c-0.14-0.191-0.238-0.43-0.294-0.714
		c-0.056-0.283-0.084-0.613-0.084-0.99V487.254z M554.075,485.562c-0.208,0-0.388-0.072-0.54-0.217
		c-0.152-0.144-0.228-0.34-0.228-0.588c0-0.247,0.075-0.443,0.228-0.588c0.152-0.144,0.332-0.216,0.54-0.216
		c0.216,0,0.397,0.072,0.546,0.216c0.148,0.145,0.223,0.341,0.223,0.588c0,0.248-0.074,0.444-0.223,0.588
		C554.473,485.49,554.291,485.562,554.075,485.562z"/>
	<path d="M561.623,492.126c-0.352,0-0.644-0.048-0.875-0.144c-0.232-0.097-0.416-0.24-0.553-0.433
		c-0.137-0.191-0.232-0.43-0.288-0.714c-0.056-0.283-0.084-0.613-0.084-0.99v-5.268h-1.608v-0.84h2.593v6.107
		c0,0.28,0.018,0.509,0.054,0.685s0.092,0.317,0.168,0.426s0.17,0.183,0.282,0.222c0.112,0.041,0.243,0.061,0.396,0.061
		c0.232,0,0.448-0.028,0.648-0.084c0.199-0.056,0.355-0.116,0.468-0.18l0.144,0.84c-0.047,0.023-0.115,0.054-0.203,0.09
		s-0.192,0.07-0.312,0.102c-0.119,0.032-0.25,0.061-0.39,0.084C561.922,492.114,561.775,492.126,561.623,492.126z"/>
	<path d="M564.42,491.994v-8.148l0.996-0.168v2.832c0.159-0.063,0.34-0.113,0.539-0.149c0.2-0.036,0.396-0.055,0.588-0.055
		c0.424,0,0.778,0.062,1.062,0.187c0.283,0.124,0.51,0.298,0.678,0.521c0.168,0.225,0.288,0.492,0.36,0.805
		c0.071,0.312,0.108,0.656,0.108,1.032v3.144h-0.984v-2.928c0-0.688-0.096-1.174-0.288-1.458s-0.536-0.426-1.032-0.426
		c-0.208,0-0.41,0.021-0.605,0.065c-0.197,0.044-0.338,0.086-0.426,0.126v4.62H564.42z"/>
	<path d="M575.088,489.21c0,0.44-0.062,0.838-0.187,1.194c-0.124,0.355-0.298,0.662-0.522,0.918
		c-0.224,0.256-0.492,0.454-0.804,0.594s-0.651,0.21-1.021,0.21c-0.359,0-0.693-0.07-1.002-0.21
		c-0.308-0.14-0.573-0.338-0.797-0.594c-0.225-0.256-0.398-0.562-0.522-0.918c-0.124-0.356-0.187-0.754-0.187-1.194
		c0-0.439,0.062-0.84,0.187-1.2c0.124-0.359,0.298-0.666,0.522-0.918c0.224-0.252,0.489-0.447,0.797-0.588
		c0.309-0.14,0.643-0.21,1.002-0.21c0.369,0,0.709,0.07,1.021,0.21c0.312,0.141,0.58,0.336,0.804,0.588
		c0.225,0.252,0.398,0.559,0.522,0.918C575.025,488.37,575.088,488.771,575.088,489.21z M574.223,484.374
		c-0.023,0.088-0.065,0.188-0.125,0.3c-0.061,0.112-0.135,0.217-0.223,0.312s-0.191,0.178-0.312,0.246
		c-0.12,0.067-0.257,0.102-0.408,0.102c-0.104,0-0.226-0.027-0.366-0.084c-0.14-0.056-0.254-0.104-0.342-0.144
		c-0.208-0.112-0.376-0.168-0.504-0.168c-0.104,0-0.204,0.052-0.3,0.155c-0.097,0.104-0.168,0.213-0.216,0.324l-0.516-0.275
		c0.023-0.088,0.065-0.188,0.125-0.301c0.061-0.111,0.135-0.216,0.223-0.312s0.191-0.178,0.312-0.246s0.252-0.102,0.396-0.102
		c0.104,0,0.227,0.029,0.367,0.09c0.139,0.06,0.254,0.109,0.342,0.149c0.207,0.112,0.375,0.168,0.504,0.168
		c0.104,0,0.205-0.052,0.306-0.155c0.101-0.104,0.174-0.212,0.222-0.324L574.223,484.374z M574.067,489.21
		c0-0.632-0.136-1.13-0.408-1.494c-0.272-0.363-0.64-0.546-1.104-0.546c-0.455,0-0.817,0.183-1.086,0.546
		c-0.268,0.364-0.401,0.862-0.401,1.494c0,0.624,0.134,1.118,0.401,1.482c0.269,0.364,0.631,0.546,1.086,0.546
		c0.465,0,0.832-0.182,1.104-0.546S574.067,489.834,574.067,489.21z"/>
	<path d="M578.676,486.294c0.752,0,1.332,0.234,1.74,0.702c0.407,0.468,0.611,1.178,0.611,2.13v0.349h-3.984
		c0.041,0.575,0.23,1.014,0.57,1.313s0.818,0.45,1.434,0.45c0.353,0,0.652-0.028,0.9-0.084s0.436-0.116,0.564-0.18l0.132,0.84
		c-0.12,0.063-0.336,0.132-0.647,0.204c-0.312,0.071-0.665,0.107-1.057,0.107c-0.48,0-0.902-0.074-1.266-0.222
		c-0.365-0.148-0.666-0.35-0.906-0.606c-0.24-0.256-0.42-0.562-0.54-0.918c-0.12-0.355-0.181-0.741-0.181-1.158
		c0-0.495,0.076-0.928,0.229-1.296c0.152-0.367,0.352-0.672,0.6-0.912c0.248-0.239,0.528-0.42,0.84-0.539
		C578.027,486.354,578.348,486.294,578.676,486.294z M580.02,488.67c0-0.472-0.125-0.846-0.372-1.122
		c-0.248-0.275-0.576-0.414-0.983-0.414c-0.232,0-0.443,0.044-0.631,0.133c-0.188,0.088-0.35,0.203-0.486,0.348
		c-0.136,0.144-0.244,0.308-0.324,0.492c-0.079,0.184-0.131,0.372-0.155,0.563H580.02z"/>
	<path d="M585.779,490.603c0-0.2-0.082-0.364-0.246-0.492s-0.367-0.24-0.611-0.336c-0.244-0.097-0.51-0.19-0.799-0.282
		c-0.287-0.092-0.554-0.206-0.798-0.342s-0.448-0.304-0.612-0.504s-0.246-0.46-0.246-0.78c0-0.448,0.183-0.822,0.547-1.122
		c0.363-0.3,0.934-0.45,1.709-0.45c0.305,0,0.619,0.022,0.943,0.066c0.323,0.044,0.602,0.102,0.834,0.174l-0.181,0.888
		c-0.063-0.031-0.151-0.065-0.265-0.102c-0.111-0.036-0.239-0.068-0.383-0.096c-0.145-0.028-0.299-0.051-0.463-0.066
		s-0.322-0.024-0.474-0.024c-0.864,0-1.296,0.236-1.296,0.708c0,0.168,0.082,0.311,0.246,0.427c0.164,0.115,0.369,0.222,0.617,0.317
		c0.248,0.097,0.517,0.194,0.805,0.294c0.288,0.101,0.556,0.223,0.805,0.366c0.247,0.145,0.453,0.318,0.617,0.522
		c0.164,0.203,0.246,0.462,0.246,0.773c0,0.504-0.196,0.895-0.588,1.17c-0.393,0.276-1.012,0.414-1.86,0.414
		c-0.384,0-0.735-0.032-1.056-0.096c-0.32-0.064-0.624-0.16-0.912-0.288l0.191-0.9c0.281,0.128,0.574,0.234,0.883,0.318
		c0.308,0.084,0.638,0.126,0.99,0.126C585.327,491.286,585.779,491.059,585.779,490.603z"/>
</g>
<g>
	<path d="M289.69,145.234"/>
	<polygon fill="#ECF7F9" points="445.557,191.216 447.765,192.753 450.413,193.41 453.283,195.159 456.375,196.91 459.908,200.416 
		460.792,201.069 459.686,202.604 456.155,207.42 453.505,210.27 451.298,213.551 449.531,213.771 447.325,213.334 445.998,211.802 
		444.675,210.27 443.792,208.298 444.014,206.327 445.998,206.108 447.104,203.26 447.325,199.101 447.104,196.037 445.998,194.28 
		444.675,192.753 444.675,190.999 	"/>
	<path fill="#ECF7F9" d="M114.29,19.868c0.439,0,4.635,0,4.635,0l1.988,2.083l1.986,1.529l4.194,0.439l2.871,0.328l1.103,2.188
		l2.431,0.22h2.759l1.104-1.641l0.329-2.411l1.988-1.093l2.76-0.765h4.307l1.875-0.551l2.648-1.86l2.54-1.314l2.097-0.984
		l3.09-0.328l2.209-2.625l2.318-2.961l0.33-2.188l4.857,0.22l1.102,2.186l-1.102,1.865l-0.885,1.752l0.109,2.188l2.21,0.329
		l2.315,0.983l1.549,2.519l0.885,1.975l-0.554,1.968l-1.655,1.644l-0.442,2.08l-1.102,3.609l0.108,1.754l-0.661,1.423v4.163
		l0.108,2.194l1.212,1.637l1.106,2.191l0.11,3.395l1.657,0.983l2.646,2.3l1.438,1.969l3.423,2.191l0.993,1.312l0.219,6.462v3.614
		l-1.545,0.656h-4.857l-4.748-0.111c0,0-0.993,1.096-1.434,1.207c-0.439,0.108-2.867,2.956-2.867,2.956l-1.105,2.299v1.312
		l-1.104,0.875l-0.884,1.096l-1.104,1.532l-0.221,1.974l-0.664,0.981l-1.654,0.331l-0.992-0.984l-0.994-1.318l-2.318-1.42
		l-1.767-0.656l-1.987,0.437l-1.545,1.424l-1.546,1.095l-1.653,2.077l-0.333,5.474l-0.774,0.659l-1.654-1.096l-2.537-3.064
		l-1.547-1.752l-0.884-0.875l1.325-1.863v-2.08l-0.441-1.204l-0.993-1.643l-0.33-2.08l-0.333-2.739l-0.33-2.299l-0.222-3.72V60.27
		l-1.103-1.968l-1.324-1.538l-1.105-1.86l-1.214-2.519l-0.883-2.188l-1.215-2.738l-0.442-1.204l-1.764-1.532h-0.993l0.107-4.16
		c0,0-1.765,0-2.097-0.111c-0.331-0.111-2.98-0.111-2.98-0.111l-1.436,0.111l-2.317-0.437l-0.772-0.439h-0.994
		c0,0-0.331-8.869-0.331-9.195c0-0.328,1.325-1.863,1.325-1.863l0.772-1.204v-3.287l-2.649-1.751l-1.765-0.545l-1.657-0.548
		l-0.661-0.876L114.29,19.868z"/>
	<path fill="#ECF7F9" d="M160.763,238.955c0,0-4.195-0.77-4.857-0.77c-0.663,0-4.527,0.114-5.298,0
		c-0.774-0.106-3.755-0.325-3.755-0.325l-2.647-1.752l-1.215-2.08l-1.657-0.875l-4.082-0.656l-2.65-0.548l-1.546-1.426l-1.433-1.751
		l-0.884-1.644l-1.217-0.762l-2.097,0.876h-1.877l-1.212-1.098l-1.658-0.984l-1.876-0.108l-3.865,0.436l-2.646-1.204l-2.209-2.519
		l-3.091-2.736l-1.765-1.749l-1.659-2.302l-1.212-3.615l0.221-4.921l-0.662-2.303l-0.553-2.85l1.436-1.312l0.11-5.697l-0.993-2.077
		h-2.54c0,0-4.414,0.111-5.077,0.111c-0.66,0-4.527,0.984-4.527,0.984l-2.648,0.768l-0.551-0.768l0.883-1.204l1.326-1.423
		c0,0,1.764-0.328,2.096-0.328s2.762,0,2.762,0l3.421-0.109l3.532-0.659h4.087l1.653-1.095l1.544-2.08l1.325-1.423h5.738
		c0,0,1.657-0.108,1.88-0.656c0.22-0.548,0.44-2.519,0.44-2.519l1.988-1.204l0.44-2.519l0.992-1.315l1.88-0.108l1.434-2.627
		l1.434-1.204l2.097,0.111h3.423l2.096,1.641l3.204,2.08l2.098,2.303l2.097,2.188l1.655,1.093l1.547,0.22l1.322-0.326h1.657
		l1.031,2.883l-0.297,1.607l0.443,2.189l0.293,2.042l-0.146,3.647l-0.735,2.63l0.442,3.646l0.293,1.898v1.898l-0.146,2.777
		l0.588,0.727l0.294,1.464l3.976-0.293l5.297,0.146h5.152l0.59,1.752l2.793,0.436l1.621,0.732l-0.297,1.312l-1.617,1.752
		l-0.145,2.044l1.028,2.774l1.618,2.774l0.148,5.399l-1.327,1.458l-2.646,3.799L160.763,238.955z"/>
	<path fill="#ECF7F9" d="M2.614,163.263c0,0,18.842,8.468,37.092,9.634c3.826,2.628,7.064,4.086,7.064,4.086
		s29.729,16.061,36.501,17.812l-0.296,2.045l-3.827,2.334l-3.53,1.752l-2.062,2.334l-3.827,0.586l-2.943,1.166l-2.353,3.213
		l-1.769,0.876l-2.354-0.293l-3.237-1.458h-5.007h-8.241l-3.826-0.29l-0.883-2.921l-0.294-5.548l0.884-3.796v-4.089l-0.296-2.625
		l-3.827,2.625l-4.418,3.506l-3.234,1.169l-7.947-0.882l-0.589-3.5l-3.533-2.63l-2.65-1.166h-2.942l0.588-2.042v-3.505l-2.062-2.337
		l-3.529-3.793l-2.651-5.255l-2.06-4.086v-2.627L2.614,163.263z"/>
	<path fill="#ECF7F9" d="M2.614,159.466l5.593,3.501c0,0,25.905,7.885,31.792,7.885c1.178,0,2.943,1.459,2.943,1.459l3.533,2.337
		c0,0,32.969,17.81,36.5,18.105c3.536,0.29,3.536-1.168,3.536-1.168l2.058-1.755l2.062-2.042l3.529-0.586l4.123,1.166l4.12-1.747
		h2.65l2.061-0.878l0.885-2.334l3.825-0.876l5.005-0.295l1.176-2.625l1.766-1.169v-2.625l3.827-2.337l0.297-2.63l11.773-0.583
		l1.472,2.92l2.941,2.63l3.828,3.793l3.533-0.295l3.237,0.585h19.427l17.075-0.29l2.941-2.335l0.296-5.84l2.061-4.672l0.587-4.962
		l-1.765-4.089l-1.179-2.918l25.022-50.221l1.178-4.379l1.177-2.337l-4.708,1.168l-3.829-2.627l-3.827-3.21l-9.713-0.876
		l-2.943-4.382c0,0-5.888-8.037-6.475-8.175c-0.886,0.879-0.462-2.326-0.462-2.326l-0.201-4.06l-0.552-3.284l-2.174-0.257h-3.604
		l-4.783,0.073l-1.252,0.326l-1.988,2.706l-2.939,3.867l-1.363,2.153c0,0-0.591,2.847-0.625,2.994
		c-0.038,0.146-0.846,1.13-0.846,1.13l-1.842,0.771l-3.163-0.041l-2.282-1.678l-1.434-1.676l-1.953,0.363
		c0,0-1.653,1.055-1.765,1.131c-0.112,0.07-1.214,1.752-1.214,1.752l-0.146,2.917l-0.259,4.455l-1.729,0.328l-1.95,0.035
		c0,0-1.915-1.058-2.137-1.169c-0.218-0.108-1.324-1.239-1.324-1.239s-1.691-1.497-1.875-1.681
		c-0.183-0.179-1.436-1.787-1.436-1.787s-1.547-1.497-1.62-1.641c-0.073-0.148-0.844-1.423-0.844-1.423v-1.099l0.072-2.589
		l-0.22-5.074c0,0-0.369-1.968-0.406-2.08c-0.035-0.108-0.623-3.43-0.623-3.539c0-0.111-0.075-3.321-0.075-3.321
		s-0.184-2.704-0.33-2.994c-0.147-0.29-1.216-2.009-1.399-2.264c-0.183-0.252-1.359-2.408-1.359-2.408l-1.325-3.251
		c0,0-0.849-2.329-1.177-2.807c-0.334-0.478-1.215-2.302-1.288-2.41c-0.078-0.111-0.444-0.908-0.444-0.908l-3.423-0.038
		l-0.516-0.768l-1.065,0.328l-1.067,0.987l-2.685,1.166l-0.556,2.299l-1.834,2.006l-1.917,2.045l-2.609,0.369l-2.1,0.765
		l-1.693,1.312l-1.987,1.497l-2.686,2.847l-2.283,0.548l-2.132,0.475l-1.324-0.949l-0.111-1.312h-1.689L96.7,61.583l-0.588,1.535
		l-2.5-0.041l-3.091-0.033l-0.993-0.694c0,0-0.773-1.022-0.884-1.131c-0.112-0.111-1.585-1.315-1.585-1.315l-1.25-0.949l-4.82-0.399
		l-0.147-6.936l-1.362-2.118l-0.806-1.206l-0.775-0.762l-1.729,1.31l-1.509,1.024l-0.844,1.567l-2.138,1.28l-1.802-2.266
		l-0.555-1.166l-1.063,1.572l-1.068,1.42l-5.738,0.039l-3.939-0.223l-5.59-0.146c0,0-1.178,0.293-1.289,0.331
		c-0.11,0.039-1.62,0.841-1.62,0.841s-0.513,1.13-0.481,1.239c0.04,0.111,0.3,2.373,0.3,2.373l0.182,1.681
		c0,0,0.368,0.618,0.885,0.656c0.514,0.035,2.207,0.035,2.207,0.035s2.097,0.111,2.28,0.111c0.186,0,0.956,0.619,0.956,0.619
		s0.773,0.621,0.848,0.767c0.073,0.144,0.884,1.461,0.884,1.461l0.33,1.641c0,0,0,1.532,0,1.643c0,0.108-0.368,1.462-0.368,1.462
		h-1.289l-2.281,0.144l-0.587-0.585l-1.953-0.146l-1.727,0.694l-2.283,0.11l0.037,2.044l-0.072,6.351l1.104,1.055
		c0,0,1.326,0.729,1.471,0.881c0.148,0.144,1.031,0.762,1.253,0.946c0.218,0.182,1.104,0.51,1.104,0.51l0.183,3.102l-0.22,1.496
		l1.581,2.1l0.718,2.025l-0.662,7.991v3.671c0,0-0.938,2.844-0.938,3.335c0,0.494-1.271,3.561-1.271,3.561l-0.053,3.669
		c0,0-0.72,1.095-0.772,1.475c-0.058,0.388-0.167,4.93-0.167,4.93s-0.828,2.191-0.882,2.517c-0.054,0.333,0,3.178,0,3.178
		s-1.214,3.666-1.381,3.939c-0.167,0.274-1.212,1.972-1.437,2.029c-0.218,0.054-2.316-0.057-2.594-0.057
		c-0.275,0-2.427-0.768-2.594-0.93c-0.164-0.166-1.159-0.819-1.159-0.819h-2.483l-1.876,0.711l-0.772,1.367l-2.926,1.15
		l-4.141,0.382l-3.752,0.108l-2.206,0.933l-2.542,1.478l-1.766,1.315c0,0-2.759,1.86-2.759,2.025c0,0.163-2.428,3.118-2.649,3.395
		c-0.219,0.271-0.939,2.736-0.939,2.736l-0.383,1.751l-1.217,1.697c0,0-0.994,1.478-1.047,1.644c-0.055,0.163,0.33,2.516,0.33,2.516
		l0.385,1.589l-1.104,2.902l-2.043,1.857c0,0-2.261,1.21-2.261,1.427C4.014,157.221,2.614,159.466,2.614,159.466z"/>
	<path fill="#ECF7F9" d="M238.585,44.939l3.312,1.099l2.208,0.434l1.988-0.326l0.881-0.987l2.757-0.108h2.322l1.987,0.987
		l2.095,0.216l2.871-0.108l2.87-1.86c0,0,1.214-1.863,1.545-2.411c0.332-0.548,2.429-5.475,2.429-5.475l3.089-5.254l2.87-4.376
		l2.982-3.617l2.316-1.969l1.987,1.532l1.435,1.752c0,0,0.22,2.302,0.22,2.736c0,0.439,0.113,5.588,0.113,5.588l0.551,1.638
		l1.215,1.863c0,0,0.881,0.985,0.881,1.532c0,0.548,0.442,3.178,0.334,3.503c-0.113,0.328,0.772,3.943,0.772,3.943l0.993,1.971
		l2.097,2.188l2.315,1.751l2.654,0.439l1.324,1.312l1.323,2.191l-0.332,2.625c0,0-1.105,0.439-1.433,0.879
		c-0.334,0.439-2.871,2.956-4.084,4.051c-1.217,1.096-3.315,4.162-3.315,4.162l-3.089,2.517c0,0-2.207,1.532-3.092,1.86
		c-0.883,0.331-2.207,1.646-2.207,1.972c0,0.331-1.438,3.614-1.438,3.614l-1.652,2.299l-1.988,2.517l-0.774,3.066
		c0,0-0.552,0.659-1.212,0.659c-0.662,0-2.428,0-2.428,0s-0.887-1.423-1.215-1.751c-0.333-0.33-1.435-2.302-1.768-3.286
		c-0.331-0.984-1.984-3.612-1.984-3.612s-1.104-1.752-1.658-2.519c-0.549-0.767-1.655-2.958-2.206-3.503
		c-0.554-0.548-1.544-1.863-1.544-1.863s-0.222-2.41-0.332-2.953c-0.111-0.548-1.102-3.833-1.874-4.493
		c-0.776-0.653-2.101-4.265-2.432-4.599c-0.332-0.323-0.992-2.08-1.988-2.408c-0.994-0.328-2.428-0.876-3.31-1.423
		c-0.881-0.548-2.761-1.204-3.312-1.312c-0.551-0.108-1.655-1.424-2.869-1.644s-1.877-0.767-2.43-1.206
		c-0.552-0.434-2.099-1.968-2.099-2.733C237.258,45.27,238.585,44.939,238.585,44.939z"/>
	<path fill="#ECF7F9" d="M450.858,133.628h1.983l2.871,1.096l2.649,1.312l3.532,0.216h4.192h3.536l3.089,0.439l2.429,1.312
		l1.546,1.974v1.529l1.324,3.287v2.411l0.44,3.503l-0.659,1.312h-3.757h-4.412l-2.871-1.096l-1.983-0.437l-1.328,0.437l-1.546,1.532
		l-0.22,1.754l-0.444,1.971h-2.204l-1.105-1.535l-2.869,0.22h-1.105l-0.663-1.532l1.769-3.067v-2.188l-3.312-0.654l-3.091,0.435
		l-1.769,1.751l-3.089,1.752c0,0-1.546,0.437-2.206,0.437c-0.665,0-2.211,0.22-2.211-0.437s1.991-3.283,1.991-3.283l1.542-2.63
		l3.309-5.036L450.858,133.628z"/>
	<polygon fill="#ECF7F9" points="443.792,188.152 445.78,189.247 448.207,190.779 450.635,191.652 453.283,192.97 454.829,194.066 
		456.817,195.159 459.244,196.91 461.23,198.226 463.217,198.882 465.208,197.13 468.518,194.5 471.388,190.999 473.596,188.369 
		475.141,186.839 476.022,184.209 476.465,182.458 473.153,181.584 470.283,182.023 468.297,182.677 467.194,185.744 
		464.769,187.054 461.675,187.496 458.142,187.496 454.829,187.496 452.842,186.622 450.635,185.304 449.31,184.209 
		447.544,184.209 445.557,185.304 444.451,186.839 	"/>
	<path fill="#ECF7F9" d="M293.001,91.803l1.768-0.437l1.105,0.437l1.323,0.653l1.547-0.873l1.325-1.315l1.546-0.873l1.543,0.659
		l1.105-0.659l1.983-1.754l2.434-0.217l1.984-2.847l1.767-2.627l0.441-2.191l0.662-2.188l-3.53-0.217l-2.43-0.439h-3.094
		l-1.541,0.217h-3.092l-1.987-0.659l-2.65-0.876l-2.21,0.439l-0.882,2.405l-0.218,1.977l-0.223,2.407c0,0,0.44,2.408,0,3.062
		c-0.44,0.659-0.665,3.509-0.665,3.509l-0.219,3.062l0.884,0.222L293.001,91.803z M302.94,72.754l-0.886-1.974L300.291,71
		l-1.327,2.188l1.767,1.098L302.94,72.754z M297.418,72.315l0.222-1.535l1.104-2.844l-3.533-0.878l-1.987,2.407l-1.104,1.971
		c0,0,2.649,0.439,3.314,0.439C296.095,71.875,297.418,72.315,297.418,72.315z M285.498,75.815l1.547-0.874l0.882-1.974v-1.312
		h-2.207l-2.431,1.312l-0.661,2.847l0.441,2.625L285.498,75.815z M276.888,84.796l1.986-2.193l-0.882-1.749l-1.546,0.876
		l-1.987,3.503l-1.326,3.503l1.986-1.096L276.888,84.796z M287.927,81.51l-1.104,0.439l-1.547,0.437l-0.882,1.095l1.325,0.439
		l1.325,0.656l2.429-1.314L287.927,81.51z M289.474,77.57l0.217-2.628l-1.543,0.654l-0.442,1.974H289.474z M286.38,88.077
		l0.218,1.977h1.989l0.222-1.754l-0.882-1.532h-1.329L286.38,88.077z M340.026,86.436h-3.42l-0.991-1.751
		c0,0-3.424-0.437-3.976-0.656c-0.551-0.22-2.762-0.437-2.762-0.437l-3.199-0.33l-2.871-0.548l-1.877,0.22l-1.324,1.314
		l-6.845,7.335l-3.863,4.707l-2.981,1.644l-3.2,0.108l-1.766-1.093l-1.548,0.108l-0.882,1.312l-0.66,1.315l-1.987-0.768
		l-1.875-1.532l-5.301-0.984c0,0-1.653-0.765-1.987-0.984c-0.331-0.22-1.766-2.191-1.766-2.191l-1.656-3.614l-0.886-0.768h-2.536
		l-3.421,2.083l-3.202,1.529l-5.077,0.987l-1.325-1.312l0.661-2.408l2.87-0.548l-0.22-1.312l-3.312-0.439
		c0,0-1.765-1.863-2.207-2.08c-0.44-0.22-2.094-2.846-2.094-2.846l-0.445-2.739l-1.654-2.08l-3.424-4.71
		c0,0-0.548-2.845-1.104-3.723c-0.551-0.873-0.883-2.627-0.883-3.283c0-0.654-1.435-2.627-2.098-3.178
		c-0.66-0.545-1.325-3.173-1.763-3.829c-0.445-0.653-2.209-2.191-2.209-2.191l-3.426-1.971l-3.529-2.517c0,0-2.65-0.547-3.092-0.878
		c-0.441-0.325-2.981-1.312-3.199-1.746c-0.224-0.441-0.663-3.286-0.663-3.286l-0.333-3.066l-1.325-1.644c0,0-2.427,0-2.757,0
		c-0.334,0-2.869,0.767-2.869,0.767l-1.327,0.987h-2.87l-1.544-0.328l-0.331,1.418l0.108,2.413v2.186l-0.328,0.986h-4.857
		l-5.189-0.434l-2.65,0.217c0,0-2.979-0.217-3.531-0.111c-0.554,0.111-3.752,2.188-3.752,2.188l-2.874,1.098l-2.978,1.424
		l-4.858,1.641l-2.32,1.64l-1.764,0.662l-0.11,8.321l0.221,3.498c0,0,0.663,5.48,0.663,6.022c0,0.55,0.664,2.85,0.664,2.85
		l1.983,1.424l1.104,1.315l0.553,2.516l1.434,1.86l1.879,2.194l1.766,1.857l2.209,0.22l2.096,0.22l0.773,0.328l1.766-0.656
		l1.546,0.108l1.657,1.096l1.874,2.188l2.319,0.879l2.428,1.424l2.316,0.108l1.216-1.095l1.878-0.328l2.095,1.093l-0.221,1.754
		l-0.219,1.86l-1.103,0.436l-1.107,2.628l-0.66,2.525l-1.657,1.86l-2.426,6.131l-20.643,41.383l0.109,1.646l1.544,1.854l0.221,1.757
		c0,0,1.435,1.312,1.325,1.641c-0.108,0.328,0,2.847,0,2.847l1.325,1.424l0.994,1.423l0.991,2.847l1.437,1.644l0.331,2.956
		l0.111,4.379l2.539,1.863l2.981,2.404l1.985,2.083l2.429,2.078l1.656,0.439l4.635,0.334l6.183,0.653l1.654,0.656l15.678,0.659
		l14.681,0.108l9.711,0.768h9.825l13.356,0.55l3.977,0.106l1.434-3.615l3.31-5.363c0,0,2.431-2.411,2.759-2.628
		c0.333-0.22,1.988-2.188,1.988-2.188l1.215-3.287l0.332-3.395l-0.443-2.3l-1.214-1.312l0.334-3.395l1.323-1.863l0.552-2.517
		l0.661-2.408c0,0,0.883-0.553,1.437-0.876c0.55-0.328,3.419-2.739,3.419-2.739l2.208-1.315l1.104-1.64l1.77-3.176l0.107-2.955
		l-0.107-2.85l-1.216-0.22l-2.21-0.984l-0.883-2.188l2.763-3.287l7.062-6.022l3.754-1.641l2.76-3.503l5.521-8.759l3.863-5.146
		l0.221-3.612l0.883-2.194l1.435-2.514l1.549-3.617l0.548-5.472l1.103-1.426V87.64L340.026,86.436z"/>
	<path fill="#ECF7F9" d="M314.418,138.444l3.312,0.439l2.649,1.096l3.311,1.312l1.106,2.191l1.103,4.379l-0.442,4.818l-0.222,4.379
		l-0.88,2.188l-0.883,2.191l0.218,2.408l2.651,1.752l1.544,2.188l1.989,2.411l3.314,1.535h3.309l0.883,2.408l-1.104,1.968
		l-2.207,1.099l-1.546,1.968l-0.44,2.41l-0.443,2.408l1.104,1.751l1.986,2.625l1.326,1.974l0.441,2.411l0.661,1.971l1.548,2.405
		l1.32,1.096l1.987,1.314l2.431,0.437l0.885,1.312l-1.548,1.098l-1.985,2.186l-1.324,1.974l-1.547,2.627l-0.219,3.284v1.971
		l2.648,1.748c0,0,0.222,0.439,0,1.318c-0.222,0.87,0,4.599,0,4.599l-1.104,1.53v2.63l0.882,1.535l-0.222,2.625l-1.766,0.22
		l-5.299,2.19l-3.752,0.876l-4.416,0.656l-2.428,0.439l-0.443,1.312l-3.311-1.751l-2.209-0.876l-1.988-0.875l-2.207-1.315
		l-1.764-1.752h-1.768l-3.532,0.22l-2.429,1.751l-1.104,2.191l-2.648-0.876l-2.209-0.876l-1.545-1.754l-1.986-3.5
		c0,0,0.439-1.751-0.443-1.751c-0.882,0-3.311,1.751-3.311,1.751l-1.104-3.943v-7.227l0.882-7.882l2.208-6.354l1.988-3.72
		l0.882-3.943l0.442-4.599l1.323-2.627l3.533-3.723l1.767-1.751l1.766-2.627l1.328-2.848l0.877-3.72v-2.63l-0.877-3.064l0.217-3.283
		l0.885-3.726l3.309-1.749l3.093-2.63l2.208-2.408l1.322-3.286l0.885-3.72v-3.287l-1.988-2.408L314.418,138.444z"/>
	<path fill="#ECF7F9" d="M345.217,88.955l2.54,0.22l2.208,1.86l1.874,0.22l2.982,0.111l2.43,0.985l1.546,2.083l3.088,2.294
		c0,0,1.547,2.084,1.547,2.411c0,0.328,0.438,1.859,0.438,2.302c0,0.434,0,2.293-0.328,2.408c-0.331,0.105-2.428,2.188-2.428,2.188
		l-0.554,2.08l0.222,2.627l1.545,1.315l1.989-0.551l0.99-2.188l2.431-1.312h1.987l0.992-1.315c0,0,0.994-1.204,1.765-1.204
		c0.775,0,4.195-0.108,4.195-0.108l1.768-0.876l1.436-0.656l2.761,0.545l2.317,1.096l2.759,1.749l2.098,0.99l3.643,0.437
		l2.096,0.547l-0.218,2.083l-1.547,1.64l-2.428,1.312l-0.993,0.659l-3.534,0.765l-1.545,3.066l-1.768,3.064l-1.325,2.299
		c0,0-0.218,3.945-0.218,5.915c0,1.971,0.994,3.722,0.994,4.487c0,0.768,0.771,3.07,0,3.943c-0.776,0.873-1.44,3.615-2.209,4.271
		c-0.775,0.656-0.441,3.612-0.441,3.612l0.221,1.754l2.099,2.407l-0.445,3.175l-1.325,1.751l-2.867,0.22
		c0,0-1.769-0.767-2.207-0.767c-0.441,0-2.76,0.111-2.76,0.111l-2.539,0.216l-1.657,0.879l-2.43,2.077l-2.094,2.191l-2.875,2.739
		l-2.755,1.093l-4.858,1.314l-3.094,2.628l-1.434,3.281l-0.329,2.194c0,0-0.662,2.739-0.773,3.172
		c-0.113,0.442-1.766,2.85-1.987,3.178c-0.222,0.325-1.326,3.831-1.326,4.159s0.222,3.946,0.222,3.946l0.773,1.749
		c0,0,0.773,1.752,0.442,2.08c-0.333,0.328-0.222,4.707-0.222,4.707l-1.324,1.752c0,0-1.875-0.656-2.316-0.765
		c-0.446-0.108-1.988-1.095-1.988-1.095s-0.993-2.848-1.104-3.504c-0.11-0.656-0.222-3.175-0.661-3.723
		c-0.443-0.547-1.438-1.201-1.989-1.974c-0.549-0.765-2.099-2.514-2.099-2.845c0-0.328,0.222-2.517,0.222-2.845
		c0-0.33,1.328-3.066,1.328-3.066s2.427-0.984,2.867-1.207c0.443-0.214,1.104-3.284,1.104-3.284v-2.847c0,0-0.331-0.439-1.104-1.312
		c-0.772-0.875-5.739-0.442-5.739-0.442l-2.647-1.641l-2.764-3.5c0,0-1.435-2.188-1.324-2.63c0.111-0.439,1.104-4.596,1.104-4.596
		l0.552-10.404l-0.332-3.5l-1.104-2.299c0,0-5.08-3.284-5.521-3.284c-0.439,0-3.09-0.659-3.09-0.659l-0.66-1.423l3.311-3.834
		l3.975-1.969l2.536-2.19l2.65-4.16l3.206-5.146l2.645-3.72l2.322-3.615l0.551-2.191l0.661-2.191l0.441-1.968
		c0,0,0.555-1.424,0.772-1.754c0.219-0.328,1.546-2.735,1.546-2.735s0.774-3.287,0.774-3.612c0-0.328,0.549-2.739,0.549-3.066
		c0-0.329,1.104-3.832,1.104-3.832L345.217,88.955z"/>
	<path fill="#ECF7F9" d="M397.429,109.319h1.766l2.647,0.875l0.665,1.099l-1.104,1.529l-0.439,1.751l0.217,1.751l1.546,2.411
		l1.105,2.628l1.325,2.408v2.41l0.66,2.625v5.038l0.882,7.663l0.222,3.287l0.444,2.411l0.882,4.376l0.881,2.411l0.664,1.752
		l2.205,1.535l0.664,1.968c0,0-0.439,1.312-1.104,1.532c-0.662,0.22-1.544,2.411-1.544,2.411l0.22,3.066l0.887,2.405l0.438,2.191
		l-0.882,2.63l-3.755,2.186l-3.753,2.85l-2.65,2.408l-2.867,3.066l-3.091,1.751l-3.09,0.223l-1.987,1.307l-2.206,0.659h-2.65
		l-1.768-0.22l-2.649-0.873l-3.311-0.659l-1.766,0.219l-1.106,1.312l-1.545,1.754l-0.219,2.627v2.186l-0.665,2.63l-1.321,1.754
		l-1.766,1.752l-2.43,0.653l-2.428,1.318l-2.43,1.312l-2.427,0.873c0,0-0.886-0.656-2.21-0.873c-1.322-0.22-1.322-0.22-1.322-0.22
		l-1.548-1.968l-0.884-1.535l-1.324-0.876h-2.869l-0.222-3.28l-0.22-2.85v-3.067l-0.663-2.408l-0.443-3.503l1.106-2.847l1.324-2.408
		l1.544-3.506l0.884-3.501l0.662-2.408l1.327-1.318l1.766-1.312l1.987-0.656l2.428-0.878l2.869-1.093l2.871-2.628l2.206-2.411
		l1.987-1.532l2.871-0.437l2.208-0.22l2.429,0.439h2.426l2.653-1.096l1.541-2.847l0.222-3.067l-0.661-1.754l-1.102-1.969
		l0.442-2.847l0.438-2.191l0.883-1.751l1.324-1.752l-0.661-2.188l-0.22-3.286l-0.443-3.94v-2.625l0.443-2.847l1.324-2.191
		l1.768-3.067l2.207-0.656l4.636-2.63l1.984-2.627L397.429,109.319z"/>
	<path fill="#ECF7F9" d="M438.049,154.868l-1.103,2.847l0.441,1.971l1.104,1.751l-0.443,2.628l-0.44,1.971l1.325,0.656l2.652,0.22
		l3.527-0.656l2.872-1.971l3.532-2.188l1.324-0.222l3.533,0.659l0.442,2.188l-0.884,1.093l-1.104,3.725v1.532l0.664,0.873
		l1.986,0.442l1.547-1.975l2.868-1.971h1.986l4.194-0.656l3.537-0.873l2.646-2.407l1.764-1.315l1.988-0.437h3.752v-2.194
		c0,0,0.22-2.63-0.439-2.844c-0.664-0.22-1.325-2.411-1.325-2.411l-1.102-0.876l-5.301-0.876h-3.533l-3.09-0.217h-2.649
		l-1.106,2.186l-1.766,2.408l-2.65,0.442l-1.983-1.532l-2.209,0.22l-1.546,0.87l-1.545-1.307l-1.544-2.194l1.104-3.284l1.547-2.19
		h-1.989l-2.428,1.314l-1.103,1.752l-1.991,0.875l-1.321,0.217l-3.093,0.222L438.049,154.868z"/>
	<path fill="#D9F0F4" d="M405.597,109.539l-0.883,1.968l-0.665,1.754l0.225,2.408l0.221,1.098l0.881,1.532l0.885,1.751l0.661,1.312
		v2.191l1.105,2.191l0.221,2.408v3.5l0.222,2.41l0.218,3.723l0.441,3.72l0.222,3.726l0.442,2.847c0,0,0.222,1.314,0.441,2.407
		c0.222,1.093,1.547,3.503,1.547,3.503l2.205,1.093l0.885,1.538l-0.442,2.625c0,0,0.222,0.876-0.442,1.532
		c-0.659,0.659-0.438,2.188-0.438,2.188l2.427,0.222l3.09-0.222l2.873-0.214h2.429l1.984,0.656l2.428,1.532l1.987,2.407l1.767-0.22
		l2.209-2.188l1.325-1.532l-0.662-1.972l-0.663-1.534v-2.845l1.325-2.847l0.439-3.287l2.208-3.72l3.088-3.723l2.213-3.726
		l1.984-3.504l1.767-3.281l3.094-1.974l-5.745-5.033l-4.853-3.729l-1.327-1.969c0,0-1.987-1.315-2.647-1.315
		c-0.666,0-2.871-1.312-2.871-1.312l-3.092-2.19l-3.31-2.188l-3.314-1.754l-3.309-1.749h-3.533h-4.636h-2.208L405.597,109.539z"/>
	<polygon fill="#D9F0F4" points="407.145,179.174 409.571,181.146 410.455,182.896 410.676,184.429 411.78,186.181 411.78,187.054 
		412.441,188.152 413.985,187.273 415.312,185.744 416.635,183.553 418.843,183.553 420.167,181.584 422.157,179.831 
		425.026,178.079 427.234,177.42 429.442,177.859 431.867,178.738 434.297,179.174 436.505,180.926 439.375,182.458 
		440.921,184.429 443.349,184.209 445.78,182.458 447.544,181.365 449.531,182.677 451.958,184.209 454.167,184.868 
		456.817,185.966 461.014,185.744 464.544,185.521 465.208,184.209 466.752,181.802 468.297,180.709 470.506,180.05 472.934,180.05 
		475.363,180.05 477.792,180.05 478.674,178.518 479.558,176.107 480.439,173.26 481.763,169.1 481.763,166.036 479.998,164.941 
		477.35,164.722 475.586,165.814 474.035,167.129 472.052,168.225 470.283,169.1 467.412,169.54 465.208,169.54 463.217,170.413 
		460.792,171.511 459.686,173.043 458.142,174.795 455.493,175.012 453.946,173.699 453.283,171.291 453.283,168.881 
		453.728,165.814 453.946,164.722 452.842,164.285 450.858,164.722 448.867,166.036 446.217,168.005 444.23,169.1 440.699,168.881 
		439.153,168.881 437.167,168.881 434.078,168.881 431.207,169.1 428.777,168.881 426.792,166.476 424.365,165.158 422.374,165.158 
		418.182,164.722 412.441,164.505 412.884,166.256 413.104,167.785 413.985,170.196 413.985,171.291 412.884,173.26 
		411.337,175.012 409.35,176.763 	"/>
	<path fill="#C6E8EE" d="M341.354,213.334l0.222-3.503l1.543-3.284l2.427-1.312l1.546-1.535l1.991-2.188l1.983,0.434l1.328,1.971
		l1.545,1.754l1.985,0.656l2.65,1.315l1.765-0.222l2.649-1.53l1.99-0.878h3.531l1.322-1.532l3.092-2.627l1.986-3.283l0.663-1.749
		v-2.411l-0.441-0.876l-0.222-2.411l1.103-1.532h2.209l1.325,0.875c0,0,2.208-0.22,3.093,0c0.88,0.217,1.541,1.312,1.541,1.312
		h3.095l2.425-0.656l3.095-1.312l3.753-0.879l2.866-1.093l1.766-2.847l1.987-1.315l2.872-1.312l1.764,0.873l0.443,1.314l0.439,1.969
		l0.441,3.07l1.768,1.532l2.209,0.437l3.972-2.627l2.431-2.411l2.43-0.653l1.763-2.63l1.548-1.749l1.767-0.659h1.542l1.546,0.659
		l2.209,0.876l1.768,0.658l2.868,1.969l1.546,1.312l1.769,1.318l1.766,1.31l0.882,3.067l-0.222,1.971l0.441,1.529l1.985,1.098v1.096
		l-0.217,6.787l-1.769,0.876l-1.762,0.879v2.408l0.435,1.751l1.107,2.188l1.543,2.41l2.43,2.186l2.209,1.102l-1.104,3.281
		l-3.311,3.945l-2.874,3.284l-2.426,2.844l-0.222-1.315l-1.986-1.312l-2.427-0.216l-2.209,0.656c0,0-0.882,1.312-0.882,1.969
		c0,0.661,0.218,1.974,0.218,1.974v2.625l-1.103,2.191l-1.543,2.847l0.44,4.16l0.439,2.188l0.663,1.753l-0.218,1.972l-0.445,1.31
		l0.222,5.917l0.441,4.597l-0.218,2.627l0.882,1.754v2.188l-0.443,3.942l-1.104,2.408l-0.438,3.504l-0.887,3.066l-1.104,1.971v3.723
		l0.885,0.656v1.752l-3.089,2.845l-2.873,3.503l-1.542,0.439l-2.212-1.312l-1.103-2.19l-0.441-2.191l-1.764-1.312l-1.104-1.972
		l-0.444-2.191l0.221-1.748l1.988-2.19l1.544-2.847l2.21-2.191l1.321-2.848v-3.283l-3.531-2.628l-3.309-1.312l-2.872-1.095h-3.09
		h-3.09l-1.546-0.876l-0.665-1.752l-2.429-2.41l-1.983-1.093c0,0-2.43-0.439-3.311-0.439c-0.883,0-2.428-0.659-2.428-0.659
		l-3.313-1.093l-2.649-2.188l-2.651-1.315l-1.541-0.652l-3.312-0.221l-2.43,0.438l-1.766,0.652l-0.884-1.754l-0.662-2.183
		l-1.324-1.754l-3.752-0.656l-1.989,0.22l-3.311,0.875l-3.312,2.408l-3.974,1.975l-3.312,2.19l-3.09,1.529l-2.208,1.752l0.221-3.067
		c0,0,0.44-3.289-0.221-3.942s-1.546-3.283-1.546-3.283l-1.543-2.405l-0.444-4.382l0.444-1.972l0.439-3.72v-4.821l-0.884-2.625
		l-0.662-4.382l1.106-2.191l0.659-2.85l-1.104-3.5L341.354,213.334z"/>
	<path fill="#C6E8EE" d="M202.931,445.157l2.353-0.288l2.062-1.316l2.355-0.873l2.207,0.436l2.059,2.194l3.387,2.918l2.796,3.061
		v1.9l1.179,1.315l1.62-0.441l1.913-1.02l1.321-0.728l1.476,1.312l0.883,1.02l1.322,1.755l1.916,1.607l2.207-0.441l1.913,1.898
		l2.208,1.02l1.619,1.168l1.912,2.191l1.473,1.9l2.209-0.146l2.354,1.748l0.439,1.463l1.617,1.461l1.622,2.188
		c0,0,0.588-0.003,1.028,0.29c0.444,0.293,2.209,1.465,2.209,1.465l1.176,1.312l-0.146,3.356l-1.173,1.605
		c0,0-1.917,1.022-1.917,1.459c0,0.439-0.149,5.987-0.149,5.987l1.474-1.169l2.207-1.605l3.092-1.461l1.322-2.479l2.505-2.63
		l0.883-3.794l1.325-3.652l1.322-2.188v-3.8l1.322-2.186l1.77-1.458l0.145-3.359l3.241-0.732l1.616-1.166l0.441-3.504l2.062-1.464
		l1.472-6.131l1.324-0.726l2.062,0.581l0.146,1.022l1.618,0.583l1.178-1.309l1.62-0.44h2.206l-0.146,3.504l-1.468,1.459l-1.77,2.483
		l-3.091,2.769l-1.471,2.631l-1.324,2.044l-2.946,1.896l-3.237,2.048c0,0-1.914,0.872-2.354,1.163
		c-0.441,0.292-1.619,1.024-1.619,1.024l0.147,1.752l1.177-0.144l1.617-0.15l2.506-1.168l2.939-2.19l2.798-2.624l2.797-2.631
		l3.091-3.501l3.531-4.819l2.208-4.088l2.505-5.108l1.029-2.774l1.471-3.357l-1.324-0.875l-1.915-0.439l-0.294-2.773l1.178-2.92
		l1.622-2.479v-1.17l-3.976,0.297l-3.239-0.732l-2.353-0.586l-3.094-3.064l-1.765-2.045l-2.354-2.19c0,0-2.499-1.456-3.093-1.898
		c-0.587-0.437-3.385-1.165-3.385-1.165s-3.089-1.169-3.974-1.315c-0.881-0.145-3.53-0.145-4.412-0.583
		c-0.884-0.439-4.562-1.021-5.006-1.168c-0.441-0.145-2.65-1.167-5.445-1.02c-2.795,0.146-6.327,0.146-7.359,0.146
		c-1.03,0-3.238,0-3.238,0l-2.205,1.603l-2.503,1.755l-3.386,1.6l-2.649,1.607l-2.357,1.462l-2.352,1.314l-26.2,26.273
		L202.931,445.157z"/>
	<path fill="#C6E8EE" d="M250.026,398.155v3.208l0.15,3.213l0.292,1.749l2.501,0.146h3.241l2.942,0.149l3.239,0.439l4.412,1.166
		l2.65,1.166l2.058,0.441l2.65,0.873l2.354,0.586l1.914,1.02l10.302,9.781l2.209,0.731l2.942-0.146h3.239
		c0,0,0.885-0.439,1.177,0.437c0.296,0.879,0.885,1.898,0.885,1.898l-0.295,1.752l-0.737,1.607l-1.763,1.898l-0.737,1.604
		l1.765,0.435l1.768,0.732l1.178-1.751l2.502-2.189l2.206-1.897l3.975-2.044c0,0,1.032-0.876,1.178-1.459
		c0.144-0.586,1.18-4.236,1.18-4.236l0.88-3.21l0.296-3.503v-3.359l-0.147-3.94c0,0,0-2.921,0-3.36c0-0.436-0.148-3.649-0.148-3.649
		l-0.441-2.044l-2.647-2.041h-2.357l-1.912,0.729l-1.177,1.022l-1.324,0.29l-2.502,0.732l-1.325-0.586l-0.884-1.02l-0.88-1.025
		l-2.209,0.152l-1.915,0.144l-2.945,0.437h-1.914l-1.615,1.752l-1.327,1.022l-2.504-0.147l-0.88,0.876l-1.325,1.752l-0.734,1.604
		h-1.77h-2.06l-2.204-0.292l-3.094-0.288l-2.945-0.731l-2.497-0.874l-2.354-0.731l-2.355-0.296h-1.62l-3.681-0.577l-2.794-0.295
		L250.026,398.155z"/>
	<polygon fill="#C6E8EE" points="243.844,368.951 243.844,374.5 243.554,378.882 243.554,383.699 241.638,385.889 240.755,386.471 
		241.783,387.055 243.11,387.055 244.141,386.178 245.024,386.615 246.788,389.392 247.819,391.437 248.408,394.207 
		251.204,395.525 254.59,396.108 257.829,396.398 261.358,396.545 264.895,396.984 266.217,398.007 269.308,398.877 
		274.018,399.901 277.694,400.048 278.726,399.025 278.874,397.418 279.759,395.525 283.289,395.377 285.201,395.232 
		286.823,393.48 287.998,392.456 291.087,392.456 295.211,392.456 298.447,392.456 299.186,394.061 300.653,394.796 
		302.128,394.646 304.042,393.188 305.956,392.746 308.014,392.746 310.367,392.746 311.842,393.622 312.873,393.622 
		313.757,392.021 314.345,389.972 315.817,388.516 316.257,387.203 317.288,386.471 317.14,384.283 315.817,383.261 
		313.903,383.261 312.138,383.117 311.401,382.531 311.549,380.341 311.549,378.589 303.306,378.589 302.569,375.379 
		302.276,372.162 300.951,369.977 299.038,368.369 298.891,366.474 298.447,362.385 298.153,359.174 296.239,357.273 
		293.739,356.983 284.615,356.84 282.403,355.375 280.937,354.5 279.168,354.061 277.694,353.773 273.574,353.48 268.864,353.188 
		267.246,353.188 264.01,353.188 261.507,353.33 258.71,353.33 257.239,353.33 254.734,354.5 252.234,356.544 249.73,358.881 
		248.85,360.924 245.906,364.139 244.875,366.181 	"/>
	<path fill="#42B3C6" d="M260.918,350.123l4.271,0.29l4.414,0.293h3.53l3.385,0.293l2.65,0.583l2.797,1.748l2.062,0.59h4.121h3.236
		h3.827l2.062,0.436l0.881,1.312l1.326,1.315l1.174,1.169l0.593,1.605v2.334v1.752l0.148,1.897l0.585,1.459l0.737,0.296l0.441,1.455
		l1.032,1.318l0.291,1.603l-0.146,2.338l0.146,1.312l3.094,0.144h4.119l1.323,0.293l0.739,1.461l0.146,2.045l0.441,0.876
		l2.059,0.142l2.064,0.733l0.438,0.729l1.473-0.436l1.471-2.34l3.091-1.75c0,0,1.472-1.163,1.766-1.605
		c0.297-0.436,4.566-2.917,4.566-2.917l2.797-2.483l1.619-1.316l2.94-1.165l2.063-0.732l1.619-0.293l1.914-1.896l7.505-0.148
		l1.177-2.039l3.385-2.047l1.767-0.725l2.942-0.295l1.915-0.438l-0.147-1.317l0.147-1.312l1.766-1.749v-2.631h-2.205l-2.212-1.459
		h-2.649l-2.5,1.023l-2.354,0.873l-2.062,1.025l-2.501,0.875c0,0,0,1.163-0.441,1.311c-0.442,0.148-4.269,0.148-4.269,0.148
		l-3.384,0.141l-1.622-0.727l-1.324-2.627l-0.585-1.896c0,0-0.737-1.898-0.885-2.335c-0.146-0.439-0.146-3.359-0.146-3.359
		l-0.147-3.064l0.147-2.047l0.439-2.042l-2.209-0.585c0,0-2.207,0-2.649-0.873c-0.438-0.882-1.767-2.631-1.767-3.067
		c0-0.439-0.736-2.191-0.736-2.917c0-0.735-0.145-2.34-0.145-3.363c0-1.02-0.147-1.604-0.147-2.041c0-0.442-1.031-2.921-1.031-2.921
		l-1.618-1.169l-2.207-0.289l-1.771,0.436l-3.826,0.73h-4.707l-1.913,0.146l-0.888,1.9l-0.587,1.459l-2.205-1.023l-2.65-1.023
		l-1.47-2.189c0,0-0.886-1.314-1.917-1.455c-1.028-0.15-2.209-0.15-3.677-0.15c-1.471,0-5.596,0-5.596,0l-2.792-0.875l-1.769-0.146
		l-1.767,0.875l-2.505,1.316l-1.766,2.334l-3.382,2.631l-2.651,3.21l-0.736,2.188l-1.91,2.773l-0.296,2.334l-1.326,2.045
		l-0.145,1.901l-1.326,2.188l-2.648,1.895l-2.796,2.486L260.918,350.123z"/>
	<path fill="#B3E1E8" d="M363.505,349.828l3.976-2.333l2.353-0.439l4.416-0.295l2.943-0.724h1.617h2.208l2.946-0.876l2.504-1.317
		l1.324-0.584l1.615-0.729l1.178-1.169l1.622-1.898l0.589-2.628l0.585-1.898l0.15-1.751l2.06-1.312l0.883,0.583l0.736,1.605
		c0,0,1.175,0.583,1.618,0.875c0.44,0.293,2.353,0.587,2.353,0.587h3.093h1.323l0.147,4.669l0.736,1.314l-0.147,1.316l-1.324,0.873
		l-2.355,1.314l-1.029,0.583l-2.062,0.586l-1.912,1.459l-1.03,1.897l-1.322,2.045l-0.738,1.166v1.607l-2.795,0.293
		c0,0-3.973,0-4.416,0c-0.442,0-3.531,0-3.531,0l-1.324-1.168v-1.462h-2.063l-1.47,0.149v2.332l-1.032,1.168
		c0,0-3.532-0.146-3.977-0.146c-0.438,0-2.056-0.58-2.056-0.58l-2.209-0.586l-1.176,1.312l-1.178,0.439l-0.737-1.314l0.885-2.045
		l-0.59-1.603l-1.474-0.586L363.505,349.828z"/>
	<path fill="#ECF7F9" d="M398.828,332.164l1.767,0.73l1.619,0.731l4.707-0.583l1.177-1.314l1.474-1.462l1.18-1.603l1.91-2.338
		l1.767-2.483l0.885-1.603l1.178-3.066l0.586-2.777l2.945-1.456c0,0,1.027-0.585,1.027-1.168c0-0.586,0.445-3.649,0.445-3.649
		l0.442-4.963v-3.793l-1.033-2.921l-1.913-1.171l-2.207-1.605l-1.77-0.437h-3.382l-1.473,0.583l-1.322,0.876l-1.326,1.021v1.752
		l0.148,1.604l0.291,2.191l0.887,1.898l-0.887,1.312l-0.146,1.166v2.191l-0.438,2.776l-0.885,3.354l-0.884,1.898l-1.471,1.755
		l-0.736,1.895l-0.736,1.315l-2.353,0.437l-1.767,0.879l-0.149,2.48l-0.146,2.481l-0.295,2.773L398.828,332.164z"/>
	<path fill="#B3E1E8" d="M284.505,315.813l0.11,1.315l3.859-0.108h3.755l3.975,0.217l5.299,0.114l2.65,1.312l1.217,1.312
		l1.102,1.312h2.095l0.662-0.879c0,0,0.552-0.76,1.325-0.76c0.775,0,2.763,0.105,3.535,0c0.773-0.113,1.653-0.661,2.098-0.661
		c0.438,0,3.42-0.325,3.42-0.325s2.43-0.439,2.76-0.439s2.98,0,2.98,0l1.876,0.656l1.105,1.096l1.104,1.312l0.663,2.299l0.665,2.408
		v2.408l0.548,2.084l0.332,1.093l0.884,1.427l1.323,1.529l1.548,0.881l1.322,0.322l1.655,0.771l0.553,1.531l-0.11,1.86l-0.22,1.752
		l-0.662,1.532v2.188l0.109,2.083l0.664,1.748l0.551,0.987l0.994,1.532l0.112,1.534l0.218,1.096h1.879l2.757-0.108l0.552-1.427
		l1.214-1.529l1.879-0.658l0.661,0.658c0,0,1.544,0.106,1.876-0.11c0.332-0.22,1.327-0.768,1.327-0.768l2.428-0.765l1.764-0.984
		l1.435-0.77l2.872-0.656l2.43-0.545l1.653-0.656l1.767-0.551l2.542-0.547l2.427-0.328l1.654-0.329l1.878-0.22h3.31l2.317-0.107
		l2.431-0.877c0,0,2.539-1.096,2.539-1.423c0-0.328,2.427-1.86,2.427-1.86l1.326-1.863l1.103-2.738l0.994-2.625l0.883-1.643
		l1.105-1.969l1.215-1.535l0.661-2.19l0.774-2.517l1.433-1.752l3.312-0.108l0.883-1.427l1.104-2.627l1.436-1.86
		c0,0,0.108-1.423,0.108-1.974c0-0.545,0.774-3.72,0.774-3.72l-0.443-1.86l-0.771-0.99l0.331-2.293l1.102-0.662l-0.109-1.969
		l-1.212-0.876c0,0,0.108-1.535,0.108-1.969c0-0.441,0.994-2.19,0.994-2.19l0.552-0.879c0,0,0.11-1.531,0.885-1.969
		c0.771-0.436,1.542-0.656,1.542-0.656l0.885-0.11l0.993,0.22h2.54h1.766l0.219-0.984l-2.428-2.191c0,0-1.432-2.08-1.541-2.41
		c-0.113-0.326,0.217-3.615,0.217-3.615l0.553-3.28l1.215-0.659h1.875l0.22-1.749l0.886-2.079l1.215-1.427l1.104-1.315l0.109-2.631
		l-2.758-1.312l-1.99-0.873l-2.318-0.876c0,0-1.433,0-1.766,0c-0.331,0-2.428,0-2.428,0h-1.545l-1.659,0.656h-1.431l-0.442-1.532
		l-0.442-2.19l-1.764-1.529l-1.104-1.424l-1.215-0.551c0,0-1.546-0.217-1.987-0.217c-0.439,0-2.429,0-2.429,0l-1.103-0.108
		l-1.986-0.77l-3.863-2.077l-2.54-1.972l-1.875-1.534c0,0-1.325-0.111-1.77-0.111c-0.438,0-2.095,0.222-2.095,0.222l-0.222,1.096
		l-1.547,0.111l-2.647-0.111l-1.876-1.974l-0.555-1.311l-0.55-1.206l-1.545-0.984l-1.988-0.331l-1.984,0.111l-3.975,2.736
		l-6.735,4.273l-6.069,2.953l-2.764,0.878l-1.765,0.763l-0.219-2.956c0,0-1.324-1.532-1.656-1.532c-0.33,0-2.098,0-2.098,0
		l-1.326,1.644l-1.876,0.655l-1.104,0.328l0.112,3.179l0.661,2.296l-0.108,2.52l-0.443,1.863l-1.987,1.092l-1.766-0.217
		l-1.877,0.873l-0.221,1.972l-0.221,3.286l1.106,1.532l0.218,1.86l0.221,1.971l-0.221,1.86l-1.656,1.207l-0.775,1.423l0.332,1.75
		l0.885,0.441l0.332,1.863l-0.441,2.516l0.329,2.08c0,0-0.661,0.656-0.885,1.312c-0.22,0.656-2.095,2.408-2.095,2.408l-2.538,0.984
		l-2.099,1.973l-1.216,1.315l-1.434-1.64c0,0-1.766-1.207-2.319-1.207c-0.548,0-2.207,0-2.207,0h-3.311l-2.981-0.108l-1.766,0.328
		l-1.216,1.423l-1.764,0.654l-2.538,0.223l-2.319,0.434l-2.981,0.437l-2.206,0.114c0,0-1.325,0.105-1.657,0.439
		c-0.332,0.324-1.656,0.764-1.986,1.859c-0.332,1.09-3.202,4.377-3.202,4.377s-2.095,2.627-2.43,3.178
		C284.505,314.062,284.505,315.813,284.505,315.813z"/>
	<path fill="#ECF7F9" d="M198.956,289.829l0.736,3.356c0,0,1.619,2.045,1.768,2.631c0.145,0.586,0.145,2.918,0.145,2.918
		l-2.06,2.336l-0.294,3.797c0,0,0.734,2.92,0.586,3.354c-0.145,0.442-2.352,3.36-2.352,3.36l-2.062,2.334l-0.294,2.193l1.767,2.191
		l-1.326,2.625c0,0-0.733,1.458-0.881,2.044c-0.147,0.583,0.734,1.893,0.734,2.628c0,0.729,1.18,3.213,1.18,3.652
		c0,0.434,0.734,2.331,0.734,2.331v3.943l0.44,5.401v3.213l4.417,0.438l1.029,0.293h5.593l6.329-0.147l4.12,0.873l2.797,0.876
		l1.619,1.607l1.324,2.628l0.589,3.503v3.211l1.031,0.876l1.178,1.897l0.293,2.631l0.589,3.503l1.031,1.312l3.532-0.288l1.765-1.024
		l2.062-1.022l2.65,0.146l1.178,1.312l1.617,0.29l1.178-1.456l0.296-3.359l2.648-2.045l0.444-2.041l1.614-2.045l1.919-2.188
		l5.883-3.068l2.211-2.188l3.679-3.359l5.886-4.525c0,0,0.002-1.898,0.146-2.335c0.149-0.437,1.619-2.19,1.619-2.19l0.293-2.628
		l2.064-3.213l3.088-4.233l2.352-3.063l2.357-1.901l1.032-0.727v-8.614l-3.39-1.02l-4.558-1.464c0,0-4.858-2.481-5.595-3.064
		c-0.734-0.586-2.794-1.459-3.384-1.898c-0.588-0.434-2.942-0.58-3.68-0.58c-0.74,0-2.354,0.291-3.091-0.298
		c-0.737-0.578,0-4.669,0-4.669s-2.653-0.732-2.944-1.312c-0.294-0.586,0.295-1.312-0.589-1.752
		c-0.886-0.439-3.087-0.439-4.12-0.439c-1.031,0-3.532,0-3.532,0l-0.884-2.771l1.178-1.317l0.734-1.749l0.591-2.191l-1.179,0.439
		l-0.735,0.583l-2.5,1.025h-2.799c0,0-2.795,0.144-3.237,0.144s-3.238,0.29-3.238,0.29s-2.501,0-3.386,0
		c-0.884,0-2.208,0.149-3.09-0.434c-0.882-0.589-2.65-1.169-3.091-1.317c-0.441-0.146-3.386-2.043-3.386-2.043
		s-1.177-0.582-1.765-0.582c-0.589,0-3.09,0.436-3.533,0.436c-0.442,0-3.68,1.17-3.68,1.17l-1.913,1.459l-1.913,1.458l-1.915,1.898
		l-1.473,0.146c0,0-2.204-0.29-2.794-0.437C201.749,291.435,198.956,289.829,198.956,289.829z"/>
	<path fill="#ECF7F9" d="M152.742,181.947l37.825,0.583l1.028-2.48l1.327-3.65l0.291-3.649v-3.064l0.591-2.337l0.59-1.897
		l1.028,0.146l0.59,0.729l0.292,1.752l1.327,2.481l1.177,3.943l0.736,6.133l1.766,1.752l9.862,8.026l3.973,0.586l16.041,0.586
		l35.03,1.458l25.462,1.751l-0.147,1.312l-1.03,3.356l-3.529,9.784c0,0-0.444-0.293-0.296,4.235
		c0.147,4.523,0.147,14.014,0.147,14.014l0.882,3.793c0,0,0.146,4.232-1.618,6.57c-1.768,2.337-2.648,6.716-2.648,6.716
		l-1.323,8.176l-1.475,2.334l-3.092,1.605l-2.5,2.338l-2.061,2.918l-0.886,2.627l-1.766,1.024l-3.09,2.042l-2.5,2.188l-2.946,4.819
		l-2.647,3.799l-2.207,2.917l-1.915,2.191l-0.297,2.041l-0.145,2.922l1.03,1.604l-0.145,1.022v2.483h-4.713l-0.441-1.607
		l0.441-2.921l-0.441-1.603l-1.177-2.341l-2.208-0.146l-2.354,1.608l-1.327,1.168c0,0-2.058,0-2.942,0
		c-0.883,0-2.946-0.879-2.946-0.879l-1.763,0.297l-5.444,0.292l-3.534-1.462c0,0-0.588-0.582-2.502-1.897s-3.386-1.168-3.976-1.168
		c-0.587,0-3.676-0.294-5.15,0.292c-1.472,0.58-0.733,0.729-2.206,0.729s-3.239,1.165-3.682,1.462
		c-0.438,0.293-1.912,2.625-1.912,2.625l-0.883,1.607l-2.65-0.146h-1.029l-1.325-1.312l-3.093-1.9l-2.5-0.58l-2.795-1.904
		l-1.033-1.456l-0.733-4.964v-1.898l1.176-0.876l0.44-1.896v-1.607l-22.666-0.147l-0.438-4.232l-0.884-4.235l-0.734-1.021
		l-1.327-1.018l-0.734-1.898h2.499l0.442-3.063l-0.589-4.382l-1.176-1.752l-1.177-7.739l-1.472-1.168l1.766-1.605l6.623-9.637
		l0.148-9.048l-1.327-1.751l-0.737-2.483l0.442-1.896c0,0,0.886-2.777,0.441-3.357c-0.441-0.588-0.884-1.315-1.323-1.754
		c-0.443-0.436-3.827-1.312-3.827-1.312s-3.533-1.315-3.975-1.315c-0.44,0-10.006,0.146-10.006,0.146l0.294-5.838l-1.326-2.484
		l0.734-3.063L152.742,181.947z"/>
	<path fill="#ECF7F9" d="M328.744,268.649c0,0,0.192-4.775-0.322-5.743c-0.516-0.969-3.485-1.355-3.485-1.355l-6.905,0.258
		l-0.708,2.711l-1.228,1.613l0.517,2.517h3.291h2.535l2.757,0.388L328.744,268.649z"/>
	<path fill="#D9F0F4" d="M343.635,249.541l-1.323-1.754l-1.032-1.31l-0.294-7.739l1.028-0.585l-0.146-4.526l-1.763-0.146
		l-2.648,0.58l-3.091,0.881l-3.093,0.729l-2.21,1.31l-3.09,0.732v1.605l-3.238-0.147l-1.033-0.58l-2.06-1.172l-2.5-0.287
		l-3.093,0.287l-1.766-0.287l-0.589-1.898l-0.439-2.629l-4.418,0.146l-1.912,1.166l-0.589,3.943l-3.09-0.879l-2.502-2.334
		l-2.505-0.437l-2.499-1.896l-2.648-1.607l-0.883,1.456c0,0-0.594,2.779-1.179,3.072c-0.588,0.288-0.734,3.064-1.325,4.23
		c-0.586,1.166-0.586,3.069-0.586,3.069l-0.739,3.062l-1.62,3.067l-1.326,5.694l-0.882,2.48l-2.648,2.045l-1.911,0.873l-2.209,3.069
		l-1.179,3.21l-0.441,1.461l-2.797,1.166l-2.502,0.879l-4.267,4.963l-1.028,3.064l-2.211,1.897l-2.205,1.169l-1.914,4.238
		l0.442,4.083L258.12,291v2.336l0.59,2.621l2.208,1.318l0.297,1.605l1.326,1.461c0,0,1.469,0.58,2.792,1.025
		c1.326,0.436,2.059,1.455,2.5,1.604c0.445,0.142,2.504,1.752,2.946,1.752s3.384,1.749,4.119,1.749c0.736,0,2.503,1.025,2.503,1.025
		l3.091,1.602l2.797,2.045l2.649-3.066l1.62-1.752l2.205-2.625c0,0,2.062-2.045,2.502-2.045c0.443,0,2.503-0.438,2.503-0.438
		l4.711-0.732l3.531,0.293l1.769-1.459c0,0,2.206-0.727,2.648-0.727c0.439,0,2.353-0.439,2.353-0.439l3.828,0.142h3.385l2.799,0.586
		l1.616,0.878l0.441-1.166l1.622-1.752l2.207-1.171l1.762-1.314v-1.312v-2.625l-0.583-1.022l-1.327-0.586l-0.296-1.751l0.591-1.605
		l1.615-1.755l1.77-1.456l-0.147-1.312l-1.178-1.756l-0.882-1.021l-0.591-1.897l0.148-2.336l0.397-1.572l0.54-1.422l-2.333,0.062
		l-2.727,0.437l-7.407-0.839l-1.782-4.925l1.523-2.005l0.977-4.501l9.277,0.456l0.16,0.021c1.807,0.236,4.128,0.837,4.943,2.364
		c0.485,0.912,0.671,3.046,0.561,6.32l0.875-0.093l1.914-0.146l-0.291-1.749v-0.875l-0.593-1.605v-4.092v-1.896l1.77-0.293
		l2.646-0.58v-1.459l0.591-1.757l1.912-0.146l1.766,0.732l1.622,1.314l1.324,0.144l0.292-0.876v-4.815L343.635,249.541z"/>
</g>
<rect x="517.566" y="7.935" fill="#42B3C6" width="8" height="48"/>
<rect x="517.566" y="55.935" fill="#55BBCC" width="8" height="48"/>
<rect x="517.566" y="103.935" fill="#68C2D1" width="8" height="48"/>
<rect x="517.566" y="151.935" fill="#7BCAD7" width="8" height="48"/>
<rect x="517.566" y="199.935" fill="#8ED1DD" width="8" height="48"/>
<rect x="517.566" y="247.935" fill="#A0D9E2" width="8" height="48"/>
<rect x="517.566" y="295.935" fill="#B3E1E8" width="8" height="48"/>
<rect x="517.566" y="343.935" fill="#C6E8EE" width="8" height="48"/>
<rect x="517.566" y="391.935" fill="#D9F0F4" width="8" height="48"/>
<rect x="517.566" y="439.935" fill="#ECF7F9" width="8" height="48"/>
<line fill="none" stroke="#000000" stroke-miterlimit="10" x1="513.566" y1="7.935" x2="529.566" y2="7.935"/>
<line fill="none" stroke="#000000" stroke-miterlimit="10" x1="513.566" y1="55.935" x2="529.566" y2="55.935"/>
<line fill="none" stroke="#000000" stroke-miterlimit="10" x1="513.566" y1="103.935" x2="529.566" y2="103.935"/>
<line fill="none" stroke="#000000" stroke-miterlimit="10" x1="513.566" y1="151.935" x2="529.566" y2="151.935"/>
<line fill="none" stroke="#000000" stroke-miterlimit="10" x1="513.566" y1="199.935" x2="529.566" y2="199.935"/>
<line fill="none" stroke="#000000" stroke-miterlimit="10" x1="513.566" y1="247.935" x2="529.566" y2="247.935"/>
<line fill="none" stroke="#000000" stroke-miterlimit="10" x1="513.566" y1="295.935" x2="529.566" y2="295.935"/>
<line fill="none" stroke="#000000" stroke-miterlimit="10" x1="513.566" y1="343.935" x2="529.566" y2="343.935"/>
<line fill="none" stroke="#000000" stroke-miterlimit="10" x1="513.566" y1="391.935" x2="529.566" y2="391.935"/>
<line fill="none" stroke="#000000" stroke-miterlimit="10" x1="513.566" y1="439.935" x2="529.566" y2="439.935"/>
<line fill="none" stroke="#000000" stroke-miterlimit="10" x1="513.566" y1="487.935" x2="529.566" y2="487.935"/>
</svg>
