<?xml version="1.0" encoding="utf-8"?>
<!-- Generator: Adobe Illustrator 16.0.0, SVG Export Plug-In . SVG Version: 6.00 Build 0)  -->
<!DOCTYPE svg PUBLIC "-//W3C//DTD SVG 1.1//EN" "http://www.w3.org/Graphics/SVG/1.1/DTD/svg11.dtd">
<svg version="1.1" id="Layer_1" xmlns="http://www.w3.org/2000/svg" xmlns:xlink="http://www.w3.org/1999/xlink" x="0px" y="0px"
	 width="600px" height="496px" viewBox="0 0 600 496" enable-background="new 0 0 600 496" xml:space="preserve">
<g>
	<path d="M535.86,12.06c0.04-0.568,0.142-1.17,0.306-1.806c0.164-0.637,0.362-1.252,0.594-1.849
		c0.232-0.596,0.488-1.147,0.769-1.655c0.28-0.509,0.556-0.927,0.828-1.255h-3.601V4.632h4.705V5.46
		c-0.24,0.279-0.5,0.655-0.78,1.128c-0.28,0.472-0.546,1.002-0.798,1.59s-0.471,1.216-0.654,1.884s-0.3,1.334-0.348,1.998H535.86z"
		/>
	<path d="M545.041,6.527c0,0.257-0.051,0.504-0.15,0.744s-0.232,0.477-0.396,0.708c-0.164,0.232-0.35,0.46-0.558,0.684
		c-0.208,0.225-0.42,0.444-0.636,0.66c-0.12,0.12-0.26,0.265-0.42,0.433s-0.312,0.34-0.457,0.516
		c-0.144,0.176-0.264,0.348-0.359,0.516c-0.096,0.169-0.145,0.312-0.145,0.433h3.42v0.84h-4.5c-0.008-0.04-0.012-0.082-0.012-0.126
		s0-0.086,0-0.126c0-0.336,0.057-0.648,0.168-0.937c0.112-0.287,0.256-0.56,0.433-0.815c0.176-0.256,0.374-0.498,0.594-0.727
		c0.22-0.228,0.438-0.449,0.653-0.666c0.177-0.176,0.347-0.348,0.511-0.516s0.308-0.336,0.433-0.504
		c0.123-0.168,0.223-0.342,0.299-0.522c0.076-0.18,0.115-0.365,0.115-0.558c0-0.216-0.035-0.399-0.103-0.552
		c-0.068-0.152-0.16-0.278-0.276-0.378c-0.115-0.101-0.25-0.174-0.402-0.223c-0.151-0.048-0.315-0.071-0.492-0.071
		c-0.207,0-0.397,0.028-0.569,0.084s-0.323,0.124-0.456,0.204c-0.132,0.08-0.246,0.157-0.342,0.233S541.225,6,541.176,6.048
		l-0.491-0.696c0.063-0.072,0.159-0.16,0.288-0.264c0.128-0.104,0.281-0.202,0.462-0.294c0.18-0.092,0.382-0.17,0.606-0.234
		c0.223-0.063,0.463-0.096,0.719-0.096c0.776,0,1.351,0.178,1.723,0.534C544.854,5.354,545.041,5.863,545.041,6.527z"/>
	<path d="M549.889,11.292c0,0.239-0.08,0.451-0.24,0.636c-0.16,0.184-0.372,0.275-0.636,0.275c-0.272,0-0.488-0.092-0.648-0.275
		c-0.159-0.185-0.239-0.396-0.239-0.636c0-0.248,0.08-0.464,0.239-0.648c0.16-0.184,0.376-0.276,0.648-0.276
		c0.264,0,0.476,0.093,0.636,0.276C549.809,10.828,549.889,11.044,549.889,11.292z"/>
	<path d="M552.553,8.34c0-1.248,0.214-2.206,0.642-2.874c0.429-0.668,1.03-1.002,1.806-1.002c0.785,0,1.389,0.334,1.812,1.002
		s0.637,1.626,0.637,2.874s-0.213,2.206-0.637,2.874s-1.027,1.002-1.812,1.002c-0.775,0-1.377-0.334-1.806-1.002
		C552.767,10.546,552.553,9.588,552.553,8.34z M556.44,8.34c0-0.408-0.024-0.794-0.071-1.158c-0.049-0.364-0.129-0.682-0.24-0.954
		c-0.112-0.271-0.26-0.488-0.444-0.648C555.5,5.42,555.272,5.34,555,5.34c-0.271,0-0.5,0.08-0.684,0.239
		c-0.184,0.16-0.332,0.377-0.443,0.648c-0.113,0.272-0.192,0.59-0.24,0.954c-0.049,0.364-0.072,0.75-0.072,1.158
		s0.023,0.794,0.072,1.158c0.048,0.363,0.127,0.682,0.24,0.953c0.111,0.272,0.26,0.488,0.443,0.648s0.412,0.24,0.684,0.24
		c0.272,0,0.5-0.08,0.685-0.24s0.332-0.376,0.444-0.648c0.111-0.271,0.191-0.59,0.24-0.953C556.416,9.134,556.44,8.748,556.44,8.34z
		 M555.696,8.208c0,0.208-0.062,0.388-0.187,0.54c-0.123,0.151-0.285,0.228-0.485,0.228c-0.208,0-0.376-0.076-0.504-0.228
		c-0.128-0.152-0.192-0.332-0.192-0.54s0.064-0.393,0.192-0.553c0.128-0.159,0.296-0.239,0.504-0.239c0.2,0,0.362,0.08,0.485,0.239
		C555.635,7.815,555.696,8,555.696,8.208z"/>
	<path d="M558.217,6.336c0-0.608,0.115-1.07,0.348-1.387c0.232-0.315,0.553-0.474,0.96-0.474c0.408,0,0.728,0.158,0.96,0.474
		c0.232,0.316,0.348,0.778,0.348,1.387c0,0.607-0.115,1.071-0.348,1.392s-0.552,0.48-0.96,0.48c-0.407,0-0.728-0.16-0.96-0.48
		S558.217,6.943,558.217,6.336z M559.141,12.06h-0.84l4.548-7.428h0.84L559.141,12.06z M560.088,6.336
		c0-0.36-0.047-0.656-0.144-0.889c-0.096-0.231-0.235-0.348-0.42-0.348s-0.326,0.116-0.426,0.348
		c-0.101,0.232-0.149,0.528-0.149,0.889c0,0.359,0.049,0.655,0.149,0.888c0.1,0.232,0.241,0.348,0.426,0.348s0.324-0.115,0.42-0.348
		C560.041,6.991,560.088,6.695,560.088,6.336z M561.181,10.355c0-0.607,0.114-1.069,0.342-1.386s0.546-0.475,0.954-0.475
		s0.729,0.158,0.96,0.475s0.349,0.778,0.349,1.386c0,0.608-0.117,1.07-0.349,1.386c-0.231,0.316-0.552,0.475-0.96,0.475
		s-0.727-0.158-0.954-0.475C561.295,11.426,561.181,10.964,561.181,10.355z M563.053,10.355c0-0.36-0.051-0.656-0.15-0.888
		c-0.1-0.232-0.242-0.349-0.426-0.349s-0.324,0.116-0.42,0.349c-0.096,0.231-0.145,0.527-0.145,0.888s0.049,0.656,0.145,0.888
		c0.096,0.232,0.236,0.349,0.42,0.349s0.326-0.116,0.426-0.349C563.002,11.012,563.053,10.716,563.053,10.355z"/>
</g>
<g>
	<path d="M534.648,57.084c0-0.721,0.098-1.358,0.294-1.914c0.196-0.557,0.476-1.022,0.841-1.398
		c0.363-0.376,0.805-0.664,1.325-0.864c0.521-0.199,1.108-0.304,1.765-0.312l0.084,0.84c-0.425,0.008-0.811,0.054-1.158,0.138
		s-0.658,0.221-0.93,0.408c-0.273,0.188-0.5,0.431-0.685,0.727s-0.324,0.659-0.42,1.092c0.192-0.088,0.401-0.16,0.63-0.216
		c0.229-0.057,0.47-0.084,0.727-0.084c0.415,0,0.77,0.063,1.062,0.191s0.526,0.298,0.702,0.51c0.176,0.213,0.304,0.458,0.384,0.738
		c0.079,0.28,0.12,0.568,0.12,0.864c0,0.271-0.045,0.55-0.133,0.834s-0.224,0.544-0.407,0.78c-0.185,0.235-0.42,0.428-0.708,0.575
		c-0.288,0.148-0.633,0.223-1.032,0.223c-0.823,0-1.44-0.276-1.849-0.828C534.853,58.836,534.648,58.067,534.648,57.084z
		 M537.013,56.315c-0.257,0-0.49,0.024-0.702,0.072s-0.426,0.12-0.643,0.216c-0.008,0.08-0.012,0.158-0.012,0.234s0,0.158,0,0.246
		c0,0.312,0.021,0.605,0.066,0.882c0.044,0.275,0.119,0.52,0.229,0.731c0.107,0.212,0.254,0.38,0.438,0.504
		c0.184,0.125,0.42,0.187,0.708,0.187c0.239,0,0.439-0.05,0.6-0.15c0.16-0.1,0.292-0.226,0.396-0.378
		c0.104-0.151,0.179-0.321,0.223-0.51c0.044-0.188,0.066-0.366,0.066-0.534c0-0.487-0.11-0.859-0.33-1.116
		C537.83,56.443,537.484,56.315,537.013,56.315z"/>
	<path d="M540.648,57.084c0-0.721,0.098-1.358,0.294-1.914c0.196-0.557,0.476-1.022,0.841-1.398
		c0.363-0.376,0.805-0.664,1.325-0.864c0.521-0.199,1.108-0.304,1.765-0.312l0.084,0.84c-0.425,0.008-0.811,0.054-1.158,0.138
		s-0.658,0.221-0.93,0.408c-0.273,0.188-0.5,0.431-0.685,0.727s-0.324,0.659-0.42,1.092c0.192-0.088,0.401-0.16,0.63-0.216
		c0.229-0.057,0.47-0.084,0.727-0.084c0.415,0,0.77,0.063,1.062,0.191s0.526,0.298,0.702,0.51c0.176,0.213,0.304,0.458,0.384,0.738
		c0.079,0.28,0.12,0.568,0.12,0.864c0,0.271-0.045,0.55-0.133,0.834s-0.224,0.544-0.407,0.78c-0.185,0.235-0.42,0.428-0.708,0.575
		c-0.288,0.148-0.633,0.223-1.032,0.223c-0.823,0-1.44-0.276-1.849-0.828C540.853,58.836,540.648,58.067,540.648,57.084z
		 M543.013,56.315c-0.257,0-0.49,0.024-0.702,0.072s-0.426,0.12-0.643,0.216c-0.008,0.08-0.012,0.158-0.012,0.234s0,0.158,0,0.246
		c0,0.312,0.021,0.605,0.066,0.882c0.044,0.275,0.119,0.52,0.229,0.731c0.107,0.212,0.254,0.38,0.438,0.504
		c0.184,0.125,0.42,0.187,0.708,0.187c0.239,0,0.439-0.05,0.6-0.15c0.16-0.1,0.292-0.226,0.396-0.378
		c0.104-0.151,0.179-0.321,0.223-0.51c0.044-0.188,0.066-0.366,0.066-0.534c0-0.487-0.11-0.859-0.33-1.116
		C543.83,56.443,543.484,56.315,543.013,56.315z"/>
	<path d="M549.889,59.292c0,0.239-0.08,0.451-0.24,0.636c-0.16,0.184-0.372,0.275-0.636,0.275c-0.272,0-0.488-0.092-0.648-0.275
		c-0.159-0.185-0.239-0.396-0.239-0.636c0-0.248,0.08-0.464,0.239-0.648c0.16-0.184,0.376-0.276,0.648-0.276
		c0.264,0,0.476,0.093,0.636,0.276C549.809,58.828,549.889,59.044,549.889,59.292z"/>
	<path d="M557.389,58.128c0,0.624-0.198,1.128-0.594,1.512c-0.396,0.384-0.998,0.576-1.807,0.576c-0.464,0-0.848-0.062-1.152-0.187
		c-0.304-0.124-0.545-0.283-0.726-0.479c-0.18-0.196-0.308-0.414-0.384-0.654s-0.114-0.476-0.114-0.708
		c0-0.424,0.116-0.8,0.349-1.128c0.231-0.328,0.508-0.592,0.828-0.792c-0.681-0.384-1.021-0.972-1.021-1.764
		c0-0.272,0.052-0.532,0.155-0.78c0.104-0.248,0.252-0.464,0.445-0.648c0.191-0.184,0.426-0.331,0.701-0.443
		c0.276-0.112,0.586-0.168,0.93-0.168c0.4,0,0.742,0.06,1.026,0.18s0.515,0.274,0.69,0.462c0.176,0.188,0.304,0.396,0.384,0.624
		c0.079,0.229,0.12,0.45,0.12,0.666c0,0.424-0.108,0.79-0.324,1.098c-0.216,0.309-0.464,0.555-0.744,0.738
		C556.977,56.624,557.389,57.256,557.389,58.128z M553.572,58.199c0,0.128,0.024,0.263,0.072,0.402s0.128,0.27,0.24,0.39
		c0.111,0.12,0.26,0.219,0.443,0.294c0.184,0.076,0.408,0.114,0.672,0.114c0.248,0,0.463-0.034,0.643-0.102
		c0.18-0.068,0.328-0.16,0.443-0.276c0.116-0.116,0.203-0.246,0.259-0.39c0.056-0.145,0.084-0.288,0.084-0.433
		c0-0.456-0.164-0.806-0.492-1.05s-0.78-0.43-1.356-0.558c-0.32,0.176-0.568,0.396-0.744,0.66
		C553.66,57.516,553.572,57.832,553.572,58.199z M556.26,54.396c0-0.104-0.023-0.222-0.071-0.354
		c-0.048-0.133-0.122-0.252-0.222-0.36c-0.101-0.108-0.23-0.2-0.391-0.276c-0.16-0.075-0.352-0.113-0.576-0.113
		c-0.231,0-0.426,0.035-0.582,0.107c-0.155,0.072-0.285,0.162-0.39,0.271c-0.104,0.107-0.178,0.228-0.222,0.359
		c-0.045,0.132-0.066,0.263-0.066,0.391c0,0.328,0.118,0.634,0.354,0.918c0.235,0.284,0.626,0.49,1.17,0.618
		c0.304-0.177,0.546-0.385,0.726-0.624C556.17,55.092,556.26,54.779,556.26,54.396z"/>
	<path d="M558.217,54.336c0-0.608,0.115-1.07,0.348-1.387c0.232-0.315,0.553-0.474,0.96-0.474c0.408,0,0.728,0.158,0.96,0.474
		c0.232,0.316,0.348,0.778,0.348,1.387c0,0.607-0.115,1.071-0.348,1.392s-0.552,0.48-0.96,0.48c-0.407,0-0.728-0.16-0.96-0.48
		S558.217,54.943,558.217,54.336z M559.141,60.06h-0.84l4.548-7.428h0.84L559.141,60.06z M560.088,54.336
		c0-0.36-0.047-0.656-0.144-0.889c-0.096-0.231-0.235-0.348-0.42-0.348s-0.326,0.116-0.426,0.348
		c-0.101,0.232-0.149,0.528-0.149,0.889c0,0.359,0.049,0.655,0.149,0.888c0.1,0.232,0.241,0.348,0.426,0.348s0.324-0.115,0.42-0.348
		C560.041,54.991,560.088,54.695,560.088,54.336z M561.181,58.355c0-0.607,0.114-1.069,0.342-1.386s0.546-0.475,0.954-0.475
		s0.729,0.158,0.96,0.475s0.349,0.778,0.349,1.386c0,0.608-0.117,1.07-0.349,1.386c-0.231,0.316-0.552,0.475-0.96,0.475
		s-0.727-0.158-0.954-0.475C561.295,59.426,561.181,58.964,561.181,58.355z M563.053,58.355c0-0.36-0.051-0.656-0.15-0.888
		c-0.1-0.232-0.242-0.349-0.426-0.349s-0.324,0.116-0.42,0.349c-0.096,0.231-0.145,0.527-0.145,0.888s0.049,0.656,0.145,0.888
		c0.096,0.232,0.236,0.349,0.42,0.349s0.326-0.116,0.426-0.349C563.002,59.012,563.053,58.716,563.053,58.355z"/>
</g>
<g>
	<path d="M534.648,105.084c0-0.721,0.098-1.358,0.294-1.914c0.196-0.557,0.476-1.022,0.841-1.398
		c0.363-0.376,0.805-0.664,1.325-0.864c0.521-0.199,1.108-0.304,1.765-0.312l0.084,0.84c-0.425,0.008-0.811,0.054-1.158,0.138
		s-0.658,0.221-0.93,0.408c-0.273,0.188-0.5,0.431-0.685,0.727s-0.324,0.659-0.42,1.092c0.192-0.088,0.401-0.16,0.63-0.216
		c0.229-0.057,0.47-0.084,0.727-0.084c0.415,0,0.77,0.063,1.062,0.191s0.526,0.298,0.702,0.51c0.176,0.213,0.304,0.458,0.384,0.738
		c0.079,0.28,0.12,0.568,0.12,0.864c0,0.271-0.045,0.55-0.133,0.834s-0.224,0.544-0.407,0.78c-0.185,0.235-0.42,0.428-0.708,0.575
		c-0.288,0.148-0.633,0.223-1.032,0.223c-0.823,0-1.44-0.276-1.849-0.828C534.853,106.836,534.648,106.067,534.648,105.084z
		 M537.013,104.315c-0.257,0-0.49,0.024-0.702,0.072s-0.426,0.12-0.643,0.216c-0.008,0.08-0.012,0.158-0.012,0.234s0,0.158,0,0.246
		c0,0.312,0.021,0.605,0.066,0.882c0.044,0.275,0.119,0.52,0.229,0.731c0.107,0.212,0.254,0.38,0.438,0.504
		c0.184,0.125,0.42,0.187,0.708,0.187c0.239,0,0.439-0.05,0.6-0.15c0.16-0.1,0.292-0.226,0.396-0.378
		c0.104-0.151,0.179-0.321,0.223-0.51c0.044-0.188,0.066-0.366,0.066-0.534c0-0.487-0.11-0.859-0.33-1.116
		C537.83,104.443,537.484,104.315,537.013,104.315z"/>
	<path d="M540.9,102.168c0.408-0.16,0.805-0.362,1.188-0.606c0.385-0.244,0.74-0.554,1.068-0.93h0.696v6.588h1.403v0.84h-3.996
		v-0.84h1.609v-5.208c-0.089,0.08-0.195,0.162-0.318,0.246c-0.125,0.084-0.26,0.166-0.408,0.246s-0.303,0.155-0.462,0.228
		c-0.16,0.072-0.316,0.132-0.468,0.18L540.9,102.168z"/>
	<path d="M549.889,107.292c0,0.239-0.08,0.451-0.24,0.636c-0.16,0.184-0.372,0.275-0.636,0.275c-0.272,0-0.488-0.092-0.648-0.275
		c-0.159-0.185-0.239-0.396-0.239-0.636c0-0.248,0.08-0.464,0.239-0.648c0.16-0.184,0.376-0.276,0.648-0.276
		c0.264,0,0.476,0.093,0.636,0.276C549.809,106.828,549.889,107.044,549.889,107.292z"/>
	<path d="M552.648,105.084c0-0.721,0.098-1.358,0.294-1.914c0.196-0.557,0.476-1.022,0.841-1.398
		c0.363-0.376,0.805-0.664,1.325-0.864c0.521-0.199,1.108-0.304,1.765-0.312l0.084,0.84c-0.425,0.008-0.811,0.054-1.158,0.138
		s-0.658,0.221-0.93,0.408c-0.273,0.188-0.5,0.431-0.685,0.727s-0.324,0.659-0.42,1.092c0.192-0.088,0.401-0.16,0.63-0.216
		c0.229-0.057,0.47-0.084,0.727-0.084c0.415,0,0.77,0.063,1.062,0.191s0.526,0.298,0.702,0.51c0.176,0.213,0.304,0.458,0.384,0.738
		c0.079,0.28,0.12,0.568,0.12,0.864c0,0.271-0.045,0.55-0.133,0.834s-0.224,0.544-0.407,0.78c-0.185,0.235-0.42,0.428-0.708,0.575
		c-0.288,0.148-0.633,0.223-1.032,0.223c-0.823,0-1.44-0.276-1.849-0.828C552.853,106.836,552.648,106.067,552.648,105.084z
		 M555.013,104.315c-0.257,0-0.49,0.024-0.702,0.072s-0.426,0.12-0.643,0.216c-0.008,0.08-0.012,0.158-0.012,0.234s0,0.158,0,0.246
		c0,0.312,0.021,0.605,0.066,0.882c0.044,0.275,0.119,0.52,0.229,0.731c0.107,0.212,0.254,0.38,0.438,0.504
		c0.184,0.125,0.42,0.187,0.708,0.187c0.239,0,0.439-0.05,0.6-0.15c0.16-0.1,0.292-0.226,0.396-0.378
		c0.104-0.151,0.179-0.321,0.223-0.51c0.044-0.188,0.066-0.366,0.066-0.534c0-0.487-0.11-0.859-0.33-1.116
		C555.83,104.443,555.484,104.315,555.013,104.315z"/>
	<path d="M558.217,102.336c0-0.608,0.115-1.07,0.348-1.387c0.232-0.315,0.553-0.474,0.96-0.474c0.408,0,0.728,0.158,0.96,0.474
		c0.232,0.316,0.348,0.778,0.348,1.387c0,0.607-0.115,1.071-0.348,1.392s-0.552,0.48-0.96,0.48c-0.407,0-0.728-0.16-0.96-0.48
		S558.217,102.943,558.217,102.336z M559.141,108.06h-0.84l4.548-7.428h0.84L559.141,108.06z M560.088,102.336
		c0-0.36-0.047-0.656-0.144-0.889c-0.096-0.231-0.235-0.348-0.42-0.348s-0.326,0.116-0.426,0.348
		c-0.101,0.232-0.149,0.528-0.149,0.889c0,0.359,0.049,0.655,0.149,0.888c0.1,0.232,0.241,0.348,0.426,0.348s0.324-0.115,0.42-0.348
		C560.041,102.991,560.088,102.695,560.088,102.336z M561.181,106.355c0-0.607,0.114-1.069,0.342-1.386s0.546-0.475,0.954-0.475
		s0.729,0.158,0.96,0.475s0.349,0.778,0.349,1.386c0,0.608-0.117,1.07-0.349,1.386c-0.231,0.316-0.552,0.475-0.96,0.475
		s-0.727-0.158-0.954-0.475C561.295,107.426,561.181,106.964,561.181,106.355z M563.053,106.355c0-0.36-0.051-0.656-0.15-0.888
		c-0.1-0.232-0.242-0.349-0.426-0.349s-0.324,0.116-0.42,0.349c-0.096,0.231-0.145,0.527-0.145,0.888s0.049,0.656,0.145,0.888
		c0.096,0.232,0.236,0.349,0.42,0.349s0.326-0.116,0.426-0.349C563.002,107.012,563.053,106.716,563.053,106.355z"/>
</g>
<g>
	<path d="M536.232,151.5c1.072,0.04,1.852,0.275,2.34,0.708c0.488,0.432,0.732,1.012,0.732,1.739c0,0.328-0.053,0.633-0.156,0.912
		c-0.104,0.28-0.266,0.521-0.486,0.72c-0.22,0.2-0.5,0.356-0.84,0.469c-0.34,0.111-0.742,0.168-1.205,0.168
		c-0.193,0-0.383-0.015-0.57-0.042c-0.188-0.028-0.366-0.062-0.534-0.103s-0.316-0.082-0.444-0.126s-0.221-0.082-0.275-0.113
		l0.191-0.853c0.128,0.064,0.326,0.141,0.594,0.229s0.606,0.132,1.014,0.132c0.32,0,0.589-0.036,0.805-0.108s0.391-0.17,0.521-0.294
		c0.133-0.124,0.229-0.266,0.289-0.426c0.06-0.16,0.09-0.328,0.09-0.504c0-0.272-0.047-0.515-0.139-0.727s-0.252-0.39-0.479-0.533
		c-0.228-0.145-0.54-0.254-0.937-0.33c-0.396-0.076-0.894-0.114-1.494-0.114c0.049-0.353,0.086-0.682,0.114-0.99
		c0.028-0.308,0.052-0.607,0.072-0.9c0.021-0.291,0.036-0.581,0.048-0.869s0.025-0.593,0.042-0.912h3.576v0.84h-2.712
		c-0.008,0.112-0.018,0.258-0.03,0.438c-0.012,0.181-0.026,0.37-0.042,0.57s-0.031,0.393-0.048,0.576S536.24,151.388,536.232,151.5z
		"/>
	<path d="M540.648,153.084c0-0.721,0.098-1.358,0.294-1.914c0.196-0.557,0.476-1.022,0.841-1.398
		c0.363-0.376,0.805-0.664,1.325-0.864c0.521-0.199,1.108-0.304,1.765-0.312l0.084,0.84c-0.425,0.008-0.811,0.054-1.158,0.138
		s-0.658,0.221-0.93,0.408c-0.273,0.188-0.5,0.431-0.685,0.727s-0.324,0.659-0.42,1.092c0.192-0.088,0.401-0.16,0.63-0.216
		c0.229-0.057,0.47-0.084,0.727-0.084c0.415,0,0.77,0.063,1.062,0.191s0.526,0.298,0.702,0.51c0.176,0.213,0.304,0.458,0.384,0.738
		c0.079,0.28,0.12,0.568,0.12,0.864c0,0.271-0.045,0.55-0.133,0.834s-0.224,0.544-0.407,0.78c-0.185,0.235-0.42,0.428-0.708,0.575
		c-0.288,0.148-0.633,0.223-1.032,0.223c-0.823,0-1.44-0.276-1.849-0.828C540.853,154.836,540.648,154.067,540.648,153.084z
		 M543.013,152.315c-0.257,0-0.49,0.024-0.702,0.072s-0.426,0.12-0.643,0.216c-0.008,0.08-0.012,0.158-0.012,0.234s0,0.158,0,0.246
		c0,0.312,0.021,0.605,0.066,0.882c0.044,0.275,0.119,0.52,0.229,0.731c0.107,0.212,0.254,0.38,0.438,0.504
		c0.184,0.125,0.42,0.187,0.708,0.187c0.239,0,0.439-0.05,0.6-0.15c0.16-0.1,0.292-0.226,0.396-0.378
		c0.104-0.151,0.179-0.321,0.223-0.51c0.044-0.188,0.066-0.366,0.066-0.534c0-0.487-0.11-0.859-0.33-1.116
		C543.83,152.443,543.484,152.315,543.013,152.315z"/>
	<path d="M549.889,155.292c0,0.239-0.08,0.451-0.24,0.636c-0.16,0.184-0.372,0.275-0.636,0.275c-0.272,0-0.488-0.092-0.648-0.275
		c-0.159-0.185-0.239-0.396-0.239-0.636c0-0.248,0.08-0.464,0.239-0.648c0.16-0.184,0.376-0.276,0.648-0.276
		c0.264,0,0.476,0.093,0.636,0.276C549.809,154.828,549.889,155.044,549.889,155.292z"/>
	<path d="M552.433,153.491c0.136-0.319,0.321-0.688,0.558-1.104s0.502-0.846,0.799-1.29c0.295-0.444,0.611-0.88,0.947-1.308
		c0.336-0.429,0.676-0.814,1.02-1.158h0.961v4.716h0.875v0.815h-0.875v1.896h-0.961v-1.896h-3.323V153.491z M555.756,149.808
		c-0.215,0.232-0.434,0.488-0.653,0.768c-0.22,0.28-0.435,0.574-0.642,0.883c-0.209,0.308-0.402,0.622-0.582,0.941
		c-0.18,0.32-0.342,0.636-0.486,0.948h2.363V149.808z"/>
	<path d="M558.217,150.336c0-0.608,0.115-1.07,0.348-1.387c0.232-0.315,0.553-0.474,0.96-0.474c0.408,0,0.728,0.158,0.96,0.474
		c0.232,0.316,0.348,0.778,0.348,1.387c0,0.607-0.115,1.071-0.348,1.392s-0.552,0.48-0.96,0.48c-0.407,0-0.728-0.16-0.96-0.48
		S558.217,150.943,558.217,150.336z M559.141,156.06h-0.84l4.548-7.428h0.84L559.141,156.06z M560.088,150.336
		c0-0.36-0.047-0.656-0.144-0.889c-0.096-0.231-0.235-0.348-0.42-0.348s-0.326,0.116-0.426,0.348
		c-0.101,0.232-0.149,0.528-0.149,0.889c0,0.359,0.049,0.655,0.149,0.888c0.1,0.232,0.241,0.348,0.426,0.348s0.324-0.115,0.42-0.348
		C560.041,150.991,560.088,150.695,560.088,150.336z M561.181,154.355c0-0.607,0.114-1.069,0.342-1.386s0.546-0.475,0.954-0.475
		s0.729,0.158,0.96,0.475s0.349,0.778,0.349,1.386c0,0.608-0.117,1.07-0.349,1.386c-0.231,0.316-0.552,0.475-0.96,0.475
		s-0.727-0.158-0.954-0.475C561.295,155.426,561.181,154.964,561.181,154.355z M563.053,154.355c0-0.36-0.051-0.656-0.15-0.888
		c-0.1-0.232-0.242-0.349-0.426-0.349s-0.324,0.116-0.42,0.349c-0.096,0.231-0.145,0.527-0.145,0.888s0.049,0.656,0.145,0.888
		c0.096,0.232,0.236,0.349,0.42,0.349s0.326-0.116,0.426-0.349C563.002,155.012,563.053,154.716,563.053,154.355z"/>
</g>
<g>
	<path d="M536.232,199.5c1.072,0.04,1.852,0.275,2.34,0.708c0.488,0.432,0.732,1.012,0.732,1.739c0,0.328-0.053,0.633-0.156,0.912
		c-0.104,0.28-0.266,0.521-0.486,0.72c-0.22,0.2-0.5,0.356-0.84,0.469c-0.34,0.111-0.742,0.168-1.205,0.168
		c-0.193,0-0.383-0.015-0.57-0.042c-0.188-0.028-0.366-0.062-0.534-0.103s-0.316-0.082-0.444-0.126s-0.221-0.082-0.275-0.113
		l0.191-0.853c0.128,0.064,0.326,0.141,0.594,0.229s0.606,0.132,1.014,0.132c0.32,0,0.589-0.036,0.805-0.108s0.391-0.17,0.521-0.294
		c0.133-0.124,0.229-0.266,0.289-0.426c0.06-0.16,0.09-0.328,0.09-0.504c0-0.272-0.047-0.515-0.139-0.727s-0.252-0.39-0.479-0.533
		c-0.228-0.145-0.54-0.254-0.937-0.33c-0.396-0.076-0.894-0.114-1.494-0.114c0.049-0.353,0.086-0.682,0.114-0.99
		c0.028-0.308,0.052-0.607,0.072-0.9c0.021-0.291,0.036-0.581,0.048-0.869s0.025-0.593,0.042-0.912h3.576v0.84h-2.712
		c-0.008,0.112-0.018,0.258-0.03,0.438c-0.012,0.181-0.026,0.37-0.042,0.57s-0.031,0.393-0.048,0.576S536.24,199.388,536.232,199.5z
		"/>
	<path d="M540.9,198.168c0.408-0.16,0.805-0.362,1.188-0.606c0.385-0.244,0.74-0.554,1.068-0.93h0.696v6.588h1.403v0.84h-3.996
		v-0.84h1.609v-5.208c-0.089,0.08-0.195,0.162-0.318,0.246c-0.125,0.084-0.26,0.166-0.408,0.246s-0.303,0.155-0.462,0.228
		c-0.16,0.072-0.316,0.132-0.468,0.18L540.9,198.168z"/>
	<path d="M549.889,203.292c0,0.239-0.08,0.451-0.24,0.636c-0.16,0.184-0.372,0.275-0.636,0.275c-0.272,0-0.488-0.092-0.648-0.275
		c-0.159-0.185-0.239-0.396-0.239-0.636c0-0.248,0.08-0.464,0.239-0.648c0.16-0.184,0.376-0.276,0.648-0.276
		c0.264,0,0.476,0.093,0.636,0.276C549.809,202.828,549.889,203.044,549.889,203.292z"/>
	<path d="M557.041,198.527c0,0.257-0.051,0.504-0.15,0.744s-0.232,0.477-0.396,0.708c-0.164,0.232-0.35,0.46-0.558,0.684
		c-0.208,0.225-0.42,0.444-0.636,0.66c-0.12,0.12-0.26,0.265-0.42,0.433s-0.312,0.34-0.457,0.516
		c-0.144,0.176-0.264,0.348-0.359,0.516c-0.096,0.169-0.145,0.312-0.145,0.433h3.42v0.84h-4.5c-0.008-0.04-0.012-0.082-0.012-0.126
		s0-0.086,0-0.126c0-0.336,0.057-0.648,0.168-0.937c0.112-0.287,0.256-0.56,0.433-0.815c0.176-0.256,0.374-0.498,0.594-0.727
		c0.22-0.228,0.438-0.449,0.653-0.666c0.177-0.176,0.347-0.348,0.511-0.516s0.308-0.336,0.433-0.504
		c0.123-0.168,0.223-0.342,0.299-0.522c0.076-0.18,0.115-0.365,0.115-0.558c0-0.216-0.035-0.399-0.103-0.552
		c-0.068-0.152-0.16-0.278-0.276-0.378c-0.115-0.101-0.25-0.174-0.402-0.223c-0.151-0.048-0.315-0.071-0.492-0.071
		c-0.207,0-0.397,0.028-0.569,0.084s-0.323,0.124-0.456,0.204c-0.132,0.08-0.246,0.157-0.342,0.233s-0.168,0.139-0.217,0.187
		l-0.491-0.696c0.063-0.072,0.159-0.16,0.288-0.264c0.128-0.104,0.281-0.202,0.462-0.294c0.18-0.092,0.382-0.17,0.606-0.234
		c0.223-0.063,0.463-0.096,0.719-0.096c0.776,0,1.351,0.178,1.723,0.534C556.854,197.354,557.041,197.863,557.041,198.527z"/>
	<path d="M558.217,198.336c0-0.608,0.115-1.07,0.348-1.387c0.232-0.315,0.553-0.474,0.96-0.474c0.408,0,0.728,0.158,0.96,0.474
		c0.232,0.316,0.348,0.778,0.348,1.387c0,0.607-0.115,1.071-0.348,1.392s-0.552,0.48-0.96,0.48c-0.407,0-0.728-0.16-0.96-0.48
		S558.217,198.943,558.217,198.336z M559.141,204.06h-0.84l4.548-7.428h0.84L559.141,204.06z M560.088,198.336
		c0-0.36-0.047-0.656-0.144-0.889c-0.096-0.231-0.235-0.348-0.42-0.348s-0.326,0.116-0.426,0.348
		c-0.101,0.232-0.149,0.528-0.149,0.889c0,0.359,0.049,0.655,0.149,0.888c0.1,0.232,0.241,0.348,0.426,0.348s0.324-0.115,0.42-0.348
		C560.041,198.991,560.088,198.695,560.088,198.336z M561.181,202.355c0-0.607,0.114-1.069,0.342-1.386s0.546-0.475,0.954-0.475
		s0.729,0.158,0.96,0.475s0.349,0.778,0.349,1.386c0,0.608-0.117,1.07-0.349,1.386c-0.231,0.316-0.552,0.475-0.96,0.475
		s-0.727-0.158-0.954-0.475C561.295,203.426,561.181,202.964,561.181,202.355z M563.053,202.355c0-0.36-0.051-0.656-0.15-0.888
		c-0.1-0.232-0.242-0.349-0.426-0.349s-0.324,0.116-0.42,0.349c-0.096,0.231-0.145,0.527-0.145,0.888s0.049,0.656,0.145,0.888
		c0.096,0.232,0.236,0.349,0.42,0.349s0.326-0.116,0.426-0.349C563.002,203.012,563.053,202.716,563.053,202.355z"/>
</g>
<g>
	<path d="M534.433,249.491c0.136-0.319,0.321-0.688,0.558-1.104s0.502-0.846,0.799-1.29c0.295-0.444,0.611-0.88,0.947-1.308
		c0.336-0.429,0.676-0.814,1.02-1.158h0.961v4.716h0.875v0.815h-0.875v1.896h-0.961v-1.896h-3.323V249.491z M537.756,245.808
		c-0.215,0.232-0.434,0.488-0.653,0.768c-0.22,0.28-0.435,0.574-0.642,0.883c-0.209,0.308-0.402,0.622-0.582,0.941
		c-0.18,0.32-0.342,0.636-0.486,0.948h2.363V245.808z"/>
	<path d="M540.648,249.084c0-0.721,0.098-1.358,0.294-1.914c0.196-0.557,0.476-1.022,0.841-1.398
		c0.363-0.376,0.805-0.664,1.325-0.864c0.521-0.199,1.108-0.304,1.765-0.312l0.084,0.84c-0.425,0.008-0.811,0.054-1.158,0.138
		s-0.658,0.221-0.93,0.408c-0.273,0.188-0.5,0.431-0.685,0.727s-0.324,0.659-0.42,1.092c0.192-0.088,0.401-0.16,0.63-0.216
		c0.229-0.057,0.47-0.084,0.727-0.084c0.415,0,0.77,0.063,1.062,0.191s0.526,0.298,0.702,0.51c0.176,0.213,0.304,0.458,0.384,0.738
		c0.079,0.28,0.12,0.568,0.12,0.864c0,0.271-0.045,0.55-0.133,0.834s-0.224,0.544-0.407,0.78c-0.185,0.235-0.42,0.428-0.708,0.575
		c-0.288,0.148-0.633,0.223-1.032,0.223c-0.823,0-1.44-0.276-1.849-0.828C540.853,250.836,540.648,250.067,540.648,249.084z
		 M543.013,248.315c-0.257,0-0.49,0.024-0.702,0.072s-0.426,0.12-0.643,0.216c-0.008,0.08-0.012,0.158-0.012,0.234s0,0.158,0,0.246
		c0,0.312,0.021,0.605,0.066,0.882c0.044,0.275,0.119,0.52,0.229,0.731c0.107,0.212,0.254,0.38,0.438,0.504
		c0.184,0.125,0.42,0.187,0.708,0.187c0.239,0,0.439-0.05,0.6-0.15c0.16-0.1,0.292-0.226,0.396-0.378
		c0.104-0.151,0.179-0.321,0.223-0.51c0.044-0.188,0.066-0.366,0.066-0.534c0-0.487-0.11-0.859-0.33-1.116
		C543.83,248.443,543.484,248.315,543.013,248.315z"/>
	<path d="M549.889,251.292c0,0.239-0.08,0.451-0.24,0.636c-0.16,0.184-0.372,0.275-0.636,0.275c-0.272,0-0.488-0.092-0.648-0.275
		c-0.159-0.185-0.239-0.396-0.239-0.636c0-0.248,0.08-0.464,0.239-0.648c0.16-0.184,0.376-0.276,0.648-0.276
		c0.264,0,0.476,0.093,0.636,0.276C549.809,250.828,549.889,251.044,549.889,251.292z"/>
	<path d="M552.553,248.34c0-1.248,0.214-2.206,0.642-2.874c0.429-0.668,1.03-1.002,1.806-1.002c0.785,0,1.389,0.334,1.812,1.002
		s0.637,1.626,0.637,2.874s-0.213,2.206-0.637,2.874s-1.027,1.002-1.812,1.002c-0.775,0-1.377-0.334-1.806-1.002
		C552.767,250.546,552.553,249.588,552.553,248.34z M556.44,248.34c0-0.408-0.024-0.794-0.071-1.158
		c-0.049-0.364-0.129-0.682-0.24-0.954c-0.112-0.271-0.26-0.488-0.444-0.648c-0.185-0.159-0.412-0.239-0.685-0.239
		c-0.271,0-0.5,0.08-0.684,0.239c-0.184,0.16-0.332,0.377-0.443,0.648c-0.113,0.272-0.192,0.59-0.24,0.954
		c-0.049,0.364-0.072,0.75-0.072,1.158s0.023,0.794,0.072,1.158c0.048,0.363,0.127,0.682,0.24,0.953
		c0.111,0.272,0.26,0.488,0.443,0.648s0.412,0.24,0.684,0.24c0.272,0,0.5-0.08,0.685-0.24s0.332-0.376,0.444-0.648
		c0.111-0.271,0.191-0.59,0.24-0.953C556.416,249.134,556.44,248.748,556.44,248.34z M555.696,248.208
		c0,0.208-0.062,0.388-0.187,0.54c-0.123,0.151-0.285,0.228-0.485,0.228c-0.208,0-0.376-0.076-0.504-0.228
		c-0.128-0.152-0.192-0.332-0.192-0.54s0.064-0.393,0.192-0.553c0.128-0.159,0.296-0.239,0.504-0.239c0.2,0,0.362,0.08,0.485,0.239
		C555.635,247.815,555.696,248,555.696,248.208z"/>
	<path d="M558.217,246.336c0-0.608,0.115-1.07,0.348-1.387c0.232-0.315,0.553-0.474,0.96-0.474c0.408,0,0.728,0.158,0.96,0.474
		c0.232,0.316,0.348,0.778,0.348,1.387c0,0.607-0.115,1.071-0.348,1.392s-0.552,0.48-0.96,0.48c-0.407,0-0.728-0.16-0.96-0.48
		S558.217,246.943,558.217,246.336z M559.141,252.06h-0.84l4.548-7.428h0.84L559.141,252.06z M560.088,246.336
		c0-0.36-0.047-0.656-0.144-0.889c-0.096-0.231-0.235-0.348-0.42-0.348s-0.326,0.116-0.426,0.348
		c-0.101,0.232-0.149,0.528-0.149,0.889c0,0.359,0.049,0.655,0.149,0.888c0.1,0.232,0.241,0.348,0.426,0.348s0.324-0.115,0.42-0.348
		C560.041,246.991,560.088,246.695,560.088,246.336z M561.181,250.355c0-0.607,0.114-1.069,0.342-1.386s0.546-0.475,0.954-0.475
		s0.729,0.158,0.96,0.475s0.349,0.778,0.349,1.386c0,0.608-0.117,1.07-0.349,1.386c-0.231,0.316-0.552,0.475-0.96,0.475
		s-0.727-0.158-0.954-0.475C561.295,251.426,561.181,250.964,561.181,250.355z M563.053,250.355c0-0.36-0.051-0.656-0.15-0.888
		c-0.1-0.232-0.242-0.349-0.426-0.349s-0.324,0.116-0.42,0.349c-0.096,0.231-0.145,0.527-0.145,0.888s0.049,0.656,0.145,0.888
		c0.096,0.232,0.236,0.349,0.42,0.349s0.326-0.116,0.426-0.349C563.002,251.012,563.053,250.716,563.053,250.355z"/>
</g>
<g>
	<path d="M534.433,297.491c0.136-0.319,0.321-0.688,0.558-1.104s0.502-0.846,0.799-1.29c0.295-0.444,0.611-0.88,0.947-1.308
		c0.336-0.429,0.676-0.814,1.02-1.158h0.961v4.716h0.875v0.815h-0.875v1.896h-0.961v-1.896h-3.323V297.491z M537.756,293.808
		c-0.215,0.232-0.434,0.488-0.653,0.768c-0.22,0.28-0.435,0.574-0.642,0.883c-0.209,0.308-0.402,0.622-0.582,0.941
		c-0.18,0.32-0.342,0.636-0.486,0.948h2.363V293.808z"/>
	<path d="M540.553,296.34c0-1.248,0.214-2.206,0.642-2.874c0.429-0.668,1.03-1.002,1.806-1.002c0.785,0,1.389,0.334,1.812,1.002
		s0.637,1.626,0.637,2.874s-0.213,2.206-0.637,2.874s-1.027,1.002-1.812,1.002c-0.775,0-1.377-0.334-1.806-1.002
		C540.767,298.546,540.553,297.588,540.553,296.34z M544.44,296.34c0-0.408-0.024-0.794-0.071-1.158
		c-0.049-0.364-0.129-0.682-0.24-0.954c-0.112-0.271-0.26-0.488-0.444-0.648c-0.185-0.159-0.412-0.239-0.685-0.239
		c-0.271,0-0.5,0.08-0.684,0.239c-0.184,0.16-0.332,0.377-0.443,0.648c-0.113,0.272-0.192,0.59-0.24,0.954
		c-0.049,0.364-0.072,0.75-0.072,1.158s0.023,0.794,0.072,1.158c0.048,0.363,0.127,0.682,0.24,0.953
		c0.111,0.272,0.26,0.488,0.443,0.648s0.412,0.24,0.684,0.24c0.272,0,0.5-0.08,0.685-0.24s0.332-0.376,0.444-0.648
		c0.111-0.271,0.191-0.59,0.24-0.953C544.416,297.134,544.44,296.748,544.44,296.34z M543.696,296.208
		c0,0.208-0.062,0.388-0.187,0.54c-0.123,0.151-0.285,0.228-0.485,0.228c-0.208,0-0.376-0.076-0.504-0.228
		c-0.128-0.152-0.192-0.332-0.192-0.54s0.064-0.393,0.192-0.553c0.128-0.159,0.296-0.239,0.504-0.239c0.2,0,0.362,0.08,0.485,0.239
		C543.635,295.815,543.696,296,543.696,296.208z"/>
	<path d="M549.889,299.292c0,0.239-0.08,0.451-0.24,0.636c-0.16,0.184-0.372,0.275-0.636,0.275c-0.272,0-0.488-0.092-0.648-0.275
		c-0.159-0.185-0.239-0.396-0.239-0.636c0-0.248,0.08-0.464,0.239-0.648c0.16-0.184,0.376-0.276,0.648-0.276
		c0.264,0,0.476,0.093,0.636,0.276C549.809,298.828,549.889,299.044,549.889,299.292z"/>
	<path d="M557.389,298.128c0,0.624-0.198,1.128-0.594,1.512c-0.396,0.384-0.998,0.576-1.807,0.576c-0.464,0-0.848-0.062-1.152-0.187
		c-0.304-0.124-0.545-0.283-0.726-0.479c-0.18-0.196-0.308-0.414-0.384-0.654s-0.114-0.476-0.114-0.708
		c0-0.424,0.116-0.8,0.349-1.128c0.231-0.328,0.508-0.592,0.828-0.792c-0.681-0.384-1.021-0.972-1.021-1.764
		c0-0.272,0.052-0.532,0.155-0.78c0.104-0.248,0.252-0.464,0.445-0.648c0.191-0.184,0.426-0.331,0.701-0.443
		c0.276-0.112,0.586-0.168,0.93-0.168c0.4,0,0.742,0.06,1.026,0.18s0.515,0.274,0.69,0.462c0.176,0.188,0.304,0.396,0.384,0.624
		c0.079,0.229,0.12,0.45,0.12,0.666c0,0.424-0.108,0.79-0.324,1.098c-0.216,0.309-0.464,0.555-0.744,0.738
		C556.977,296.624,557.389,297.256,557.389,298.128z M553.572,298.199c0,0.128,0.024,0.263,0.072,0.402s0.128,0.27,0.24,0.39
		c0.111,0.12,0.26,0.219,0.443,0.294c0.184,0.076,0.408,0.114,0.672,0.114c0.248,0,0.463-0.034,0.643-0.102
		c0.18-0.068,0.328-0.16,0.443-0.276c0.116-0.116,0.203-0.246,0.259-0.39c0.056-0.145,0.084-0.288,0.084-0.433
		c0-0.456-0.164-0.806-0.492-1.05s-0.78-0.43-1.356-0.558c-0.32,0.176-0.568,0.396-0.744,0.66
		C553.66,297.516,553.572,297.832,553.572,298.199z M556.26,294.396c0-0.104-0.023-0.222-0.071-0.354
		c-0.048-0.133-0.122-0.252-0.222-0.36c-0.101-0.108-0.23-0.2-0.391-0.276c-0.16-0.075-0.352-0.113-0.576-0.113
		c-0.231,0-0.426,0.035-0.582,0.107c-0.155,0.072-0.285,0.162-0.39,0.271c-0.104,0.107-0.178,0.228-0.222,0.359
		c-0.045,0.132-0.066,0.263-0.066,0.391c0,0.328,0.118,0.634,0.354,0.918c0.235,0.284,0.626,0.49,1.17,0.618
		c0.304-0.177,0.546-0.385,0.726-0.624C556.17,295.092,556.26,294.779,556.26,294.396z"/>
	<path d="M558.217,294.336c0-0.608,0.115-1.07,0.348-1.387c0.232-0.315,0.553-0.474,0.96-0.474c0.408,0,0.728,0.158,0.96,0.474
		c0.232,0.316,0.348,0.778,0.348,1.387c0,0.607-0.115,1.071-0.348,1.392s-0.552,0.48-0.96,0.48c-0.407,0-0.728-0.16-0.96-0.48
		S558.217,294.943,558.217,294.336z M559.141,300.06h-0.84l4.548-7.428h0.84L559.141,300.06z M560.088,294.336
		c0-0.36-0.047-0.656-0.144-0.889c-0.096-0.231-0.235-0.348-0.42-0.348s-0.326,0.116-0.426,0.348
		c-0.101,0.232-0.149,0.528-0.149,0.889c0,0.359,0.049,0.655,0.149,0.888c0.1,0.232,0.241,0.348,0.426,0.348s0.324-0.115,0.42-0.348
		C560.041,294.991,560.088,294.695,560.088,294.336z M561.181,298.355c0-0.607,0.114-1.069,0.342-1.386s0.546-0.475,0.954-0.475
		s0.729,0.158,0.96,0.475s0.349,0.778,0.349,1.386c0,0.608-0.117,1.07-0.349,1.386c-0.231,0.316-0.552,0.475-0.96,0.475
		s-0.727-0.158-0.954-0.475C561.295,299.426,561.181,298.964,561.181,298.355z M563.053,298.355c0-0.36-0.051-0.656-0.15-0.888
		c-0.1-0.232-0.242-0.349-0.426-0.349s-0.324,0.116-0.42,0.349c-0.096,0.231-0.145,0.527-0.145,0.888s0.049,0.656,0.145,0.888
		c0.096,0.232,0.236,0.349,0.42,0.349s0.326-0.116,0.426-0.349C563.002,299.012,563.053,298.716,563.053,298.355z"/>
</g>
<g>
	<path d="M536.545,347.34c0.631,0,1.082-0.126,1.35-0.378s0.402-0.59,0.402-1.015c0-0.271-0.057-0.5-0.168-0.684
		c-0.112-0.184-0.26-0.332-0.444-0.444c-0.185-0.111-0.396-0.191-0.636-0.24c-0.24-0.048-0.492-0.071-0.756-0.071h-0.252v-0.805
		h0.348c0.176,0,0.357-0.018,0.546-0.054s0.36-0.1,0.517-0.191c0.155-0.093,0.281-0.219,0.377-0.379
		c0.096-0.159,0.145-0.363,0.145-0.611c0-0.408-0.126-0.698-0.378-0.87c-0.253-0.172-0.546-0.258-0.882-0.258
		c-0.344,0-0.637,0.05-0.877,0.149c-0.239,0.101-0.439,0.202-0.6,0.307l-0.384-0.756c0.168-0.12,0.422-0.246,0.762-0.379
		c0.341-0.132,0.718-0.197,1.134-0.197c0.393,0,0.729,0.048,1.008,0.144c0.281,0.096,0.511,0.232,0.69,0.408
		c0.181,0.176,0.313,0.382,0.402,0.618c0.088,0.236,0.132,0.494,0.132,0.773c0,0.393-0.102,0.725-0.307,0.996
		c-0.203,0.272-0.465,0.48-0.785,0.624c0.384,0.112,0.716,0.33,0.996,0.654c0.279,0.324,0.42,0.754,0.42,1.29
		c0,0.32-0.055,0.618-0.162,0.894c-0.107,0.276-0.271,0.515-0.492,0.714c-0.221,0.2-0.504,0.356-0.852,0.469
		c-0.348,0.111-0.762,0.168-1.242,0.168c-0.184,0-0.374-0.015-0.57-0.042c-0.195-0.028-0.378-0.064-0.546-0.108
		s-0.317-0.088-0.45-0.132c-0.132-0.044-0.227-0.078-0.281-0.102l0.191-0.853c0.128,0.064,0.332,0.141,0.612,0.229
		S536.137,347.34,536.545,347.34z"/>
	<path d="M542.232,343.5c1.072,0.04,1.852,0.275,2.34,0.708c0.488,0.432,0.732,1.012,0.732,1.739c0,0.328-0.053,0.633-0.156,0.912
		c-0.104,0.28-0.266,0.521-0.486,0.72c-0.22,0.2-0.5,0.356-0.84,0.469c-0.34,0.111-0.742,0.168-1.205,0.168
		c-0.193,0-0.383-0.015-0.57-0.042c-0.188-0.028-0.366-0.062-0.534-0.103s-0.316-0.082-0.444-0.126s-0.221-0.082-0.275-0.113
		l0.191-0.853c0.128,0.064,0.326,0.141,0.594,0.229s0.606,0.132,1.014,0.132c0.32,0,0.589-0.036,0.805-0.108s0.391-0.17,0.521-0.294
		c0.133-0.124,0.229-0.266,0.289-0.426c0.06-0.16,0.09-0.328,0.09-0.504c0-0.272-0.047-0.515-0.139-0.727s-0.252-0.39-0.479-0.533
		c-0.228-0.145-0.54-0.254-0.937-0.33c-0.396-0.076-0.894-0.114-1.494-0.114c0.049-0.353,0.086-0.682,0.114-0.99
		c0.028-0.308,0.052-0.607,0.072-0.9c0.021-0.291,0.036-0.581,0.048-0.869s0.025-0.593,0.042-0.912h3.576v0.84h-2.712
		c-0.008,0.112-0.018,0.258-0.03,0.438c-0.012,0.181-0.026,0.37-0.042,0.57s-0.031,0.393-0.048,0.576S542.24,343.388,542.232,343.5z
		"/>
	<path d="M549.889,347.292c0,0.239-0.08,0.451-0.24,0.636c-0.16,0.184-0.372,0.275-0.636,0.275c-0.272,0-0.488-0.092-0.648-0.275
		c-0.159-0.185-0.239-0.396-0.239-0.636c0-0.248,0.08-0.464,0.239-0.648c0.16-0.184,0.376-0.276,0.648-0.276
		c0.264,0,0.476,0.093,0.636,0.276C549.809,346.828,549.889,347.044,549.889,347.292z"/>
	<path d="M552.648,345.084c0-0.721,0.098-1.358,0.294-1.914c0.196-0.557,0.476-1.022,0.841-1.398
		c0.363-0.376,0.805-0.664,1.325-0.864c0.521-0.199,1.108-0.304,1.765-0.312l0.084,0.84c-0.425,0.008-0.811,0.054-1.158,0.138
		s-0.658,0.221-0.93,0.408c-0.273,0.188-0.5,0.431-0.685,0.727s-0.324,0.659-0.42,1.092c0.192-0.088,0.401-0.16,0.63-0.216
		c0.229-0.057,0.47-0.084,0.727-0.084c0.415,0,0.77,0.063,1.062,0.191s0.526,0.298,0.702,0.51c0.176,0.213,0.304,0.458,0.384,0.738
		c0.079,0.28,0.12,0.568,0.12,0.864c0,0.271-0.045,0.55-0.133,0.834s-0.224,0.544-0.407,0.78c-0.185,0.235-0.42,0.428-0.708,0.575
		c-0.288,0.148-0.633,0.223-1.032,0.223c-0.823,0-1.44-0.276-1.849-0.828C552.853,346.836,552.648,346.067,552.648,345.084z
		 M555.013,344.315c-0.257,0-0.49,0.024-0.702,0.072s-0.426,0.12-0.643,0.216c-0.008,0.08-0.012,0.158-0.012,0.234s0,0.158,0,0.246
		c0,0.312,0.021,0.605,0.066,0.882c0.044,0.275,0.119,0.52,0.229,0.731c0.107,0.212,0.254,0.38,0.438,0.504
		c0.184,0.125,0.42,0.187,0.708,0.187c0.239,0,0.439-0.05,0.6-0.15c0.16-0.1,0.292-0.226,0.396-0.378
		c0.104-0.151,0.179-0.321,0.223-0.51c0.044-0.188,0.066-0.366,0.066-0.534c0-0.487-0.11-0.859-0.33-1.116
		C555.83,344.443,555.484,344.315,555.013,344.315z"/>
	<path d="M558.217,342.336c0-0.608,0.115-1.07,0.348-1.387c0.232-0.315,0.553-0.474,0.96-0.474c0.408,0,0.728,0.158,0.96,0.474
		c0.232,0.316,0.348,0.778,0.348,1.387c0,0.607-0.115,1.071-0.348,1.392s-0.552,0.48-0.96,0.48c-0.407,0-0.728-0.16-0.96-0.48
		S558.217,342.943,558.217,342.336z M559.141,348.06h-0.84l4.548-7.428h0.84L559.141,348.06z M560.088,342.336
		c0-0.36-0.047-0.656-0.144-0.889c-0.096-0.231-0.235-0.348-0.42-0.348s-0.326,0.116-0.426,0.348
		c-0.101,0.232-0.149,0.528-0.149,0.889c0,0.359,0.049,0.655,0.149,0.888c0.1,0.232,0.241,0.348,0.426,0.348s0.324-0.115,0.42-0.348
		C560.041,342.991,560.088,342.695,560.088,342.336z M561.181,346.355c0-0.607,0.114-1.069,0.342-1.386s0.546-0.475,0.954-0.475
		s0.729,0.158,0.96,0.475s0.349,0.778,0.349,1.386c0,0.608-0.117,1.07-0.349,1.386c-0.231,0.316-0.552,0.475-0.96,0.475
		s-0.727-0.158-0.954-0.475C561.295,347.426,561.181,346.964,561.181,346.355z M563.053,346.355c0-0.36-0.051-0.656-0.15-0.888
		c-0.1-0.232-0.242-0.349-0.426-0.349s-0.324,0.116-0.42,0.349c-0.096,0.231-0.145,0.527-0.145,0.888s0.049,0.656,0.145,0.888
		c0.096,0.232,0.236,0.349,0.42,0.349s0.326-0.116,0.426-0.349C563.002,347.012,563.053,346.716,563.053,346.355z"/>
</g>
<g>
	<path d="M536.545,395.34c0.631,0,1.082-0.126,1.35-0.378s0.402-0.59,0.402-1.015c0-0.271-0.057-0.5-0.168-0.684
		c-0.112-0.184-0.26-0.332-0.444-0.444c-0.185-0.111-0.396-0.191-0.636-0.24c-0.24-0.048-0.492-0.071-0.756-0.071h-0.252v-0.805
		h0.348c0.176,0,0.357-0.018,0.546-0.054s0.36-0.1,0.517-0.191c0.155-0.093,0.281-0.219,0.377-0.379
		c0.096-0.159,0.145-0.363,0.145-0.611c0-0.408-0.126-0.698-0.378-0.87c-0.253-0.172-0.546-0.258-0.882-0.258
		c-0.344,0-0.637,0.05-0.877,0.149c-0.239,0.101-0.439,0.202-0.6,0.307l-0.384-0.756c0.168-0.12,0.422-0.246,0.762-0.379
		c0.341-0.132,0.718-0.197,1.134-0.197c0.393,0,0.729,0.048,1.008,0.144c0.281,0.096,0.511,0.232,0.69,0.408
		c0.181,0.176,0.313,0.382,0.402,0.618c0.088,0.236,0.132,0.494,0.132,0.773c0,0.393-0.102,0.725-0.307,0.996
		c-0.203,0.272-0.465,0.48-0.785,0.624c0.384,0.112,0.716,0.33,0.996,0.654c0.279,0.324,0.42,0.754,0.42,1.29
		c0,0.32-0.055,0.618-0.162,0.894c-0.107,0.276-0.271,0.515-0.492,0.714c-0.221,0.2-0.504,0.356-0.852,0.469
		c-0.348,0.111-0.762,0.168-1.242,0.168c-0.184,0-0.374-0.015-0.57-0.042c-0.195-0.028-0.378-0.064-0.546-0.108
		s-0.317-0.088-0.45-0.132c-0.132-0.044-0.227-0.078-0.281-0.102l0.191-0.853c0.128,0.064,0.332,0.141,0.612,0.229
		S536.137,395.34,536.545,395.34z"/>
	<path d="M540.553,392.34c0-1.248,0.214-2.206,0.642-2.874c0.429-0.668,1.03-1.002,1.806-1.002c0.785,0,1.389,0.334,1.812,1.002
		s0.637,1.626,0.637,2.874s-0.213,2.206-0.637,2.874s-1.027,1.002-1.812,1.002c-0.775,0-1.377-0.334-1.806-1.002
		C540.767,394.546,540.553,393.588,540.553,392.34z M544.44,392.34c0-0.408-0.024-0.794-0.071-1.158
		c-0.049-0.364-0.129-0.682-0.24-0.954c-0.112-0.271-0.26-0.488-0.444-0.648c-0.185-0.159-0.412-0.239-0.685-0.239
		c-0.271,0-0.5,0.08-0.684,0.239c-0.184,0.16-0.332,0.377-0.443,0.648c-0.113,0.272-0.192,0.59-0.24,0.954
		c-0.049,0.364-0.072,0.75-0.072,1.158s0.023,0.794,0.072,1.158c0.048,0.363,0.127,0.682,0.24,0.953
		c0.111,0.272,0.26,0.488,0.443,0.648s0.412,0.24,0.684,0.24c0.272,0,0.5-0.08,0.685-0.24s0.332-0.376,0.444-0.648
		c0.111-0.271,0.191-0.59,0.24-0.953C544.416,393.134,544.44,392.748,544.44,392.34z M543.696,392.208
		c0,0.208-0.062,0.388-0.187,0.54c-0.123,0.151-0.285,0.228-0.485,0.228c-0.208,0-0.376-0.076-0.504-0.228
		c-0.128-0.152-0.192-0.332-0.192-0.54s0.064-0.393,0.192-0.553c0.128-0.159,0.296-0.239,0.504-0.239c0.2,0,0.362,0.08,0.485,0.239
		C543.635,391.815,543.696,392,543.696,392.208z"/>
	<path d="M549.889,395.292c0,0.239-0.08,0.451-0.24,0.636c-0.16,0.184-0.372,0.275-0.636,0.275c-0.272,0-0.488-0.092-0.648-0.275
		c-0.159-0.185-0.239-0.396-0.239-0.636c0-0.248,0.08-0.464,0.239-0.648c0.16-0.184,0.376-0.276,0.648-0.276
		c0.264,0,0.476,0.093,0.636,0.276C549.809,394.828,549.889,395.044,549.889,395.292z"/>
	<path d="M552.433,393.491c0.136-0.319,0.321-0.688,0.558-1.104s0.502-0.846,0.799-1.29c0.295-0.444,0.611-0.88,0.947-1.308
		c0.336-0.429,0.676-0.814,1.02-1.158h0.961v4.716h0.875v0.815h-0.875v1.896h-0.961v-1.896h-3.323V393.491z M555.756,389.808
		c-0.215,0.232-0.434,0.488-0.653,0.768c-0.22,0.28-0.435,0.574-0.642,0.883c-0.209,0.308-0.402,0.622-0.582,0.941
		c-0.18,0.32-0.342,0.636-0.486,0.948h2.363V389.808z"/>
	<path d="M558.217,390.336c0-0.608,0.115-1.07,0.348-1.387c0.232-0.315,0.553-0.474,0.96-0.474c0.408,0,0.728,0.158,0.96,0.474
		c0.232,0.316,0.348,0.778,0.348,1.387c0,0.607-0.115,1.071-0.348,1.392s-0.552,0.48-0.96,0.48c-0.407,0-0.728-0.16-0.96-0.48
		S558.217,390.943,558.217,390.336z M559.141,396.06h-0.84l4.548-7.428h0.84L559.141,396.06z M560.088,390.336
		c0-0.36-0.047-0.656-0.144-0.889c-0.096-0.231-0.235-0.348-0.42-0.348s-0.326,0.116-0.426,0.348
		c-0.101,0.232-0.149,0.528-0.149,0.889c0,0.359,0.049,0.655,0.149,0.888c0.1,0.232,0.241,0.348,0.426,0.348s0.324-0.115,0.42-0.348
		C560.041,390.991,560.088,390.695,560.088,390.336z M561.181,394.355c0-0.607,0.114-1.069,0.342-1.386s0.546-0.475,0.954-0.475
		s0.729,0.158,0.96,0.475s0.349,0.778,0.349,1.386c0,0.608-0.117,1.07-0.349,1.386c-0.231,0.316-0.552,0.475-0.96,0.475
		s-0.727-0.158-0.954-0.475C561.295,395.426,561.181,394.964,561.181,394.355z M563.053,394.355c0-0.36-0.051-0.656-0.15-0.888
		c-0.1-0.232-0.242-0.349-0.426-0.349s-0.324,0.116-0.42,0.349c-0.096,0.231-0.145,0.527-0.145,0.888s0.049,0.656,0.145,0.888
		c0.096,0.232,0.236,0.349,0.42,0.349s0.326-0.116,0.426-0.349C563.002,395.012,563.053,394.716,563.053,394.355z"/>
</g>
<g>
	<path d="M539.041,438.527c0,0.257-0.051,0.504-0.15,0.744s-0.232,0.477-0.396,0.708c-0.164,0.232-0.35,0.46-0.558,0.684
		c-0.208,0.225-0.42,0.444-0.636,0.66c-0.12,0.12-0.26,0.265-0.42,0.433s-0.312,0.34-0.457,0.516
		c-0.144,0.176-0.264,0.348-0.359,0.516c-0.096,0.169-0.145,0.312-0.145,0.433h3.42v0.84h-4.5c-0.008-0.04-0.012-0.082-0.012-0.126
		s0-0.086,0-0.126c0-0.336,0.057-0.648,0.168-0.937c0.112-0.287,0.256-0.56,0.433-0.815c0.176-0.256,0.374-0.498,0.594-0.727
		c0.22-0.228,0.438-0.449,0.653-0.666c0.177-0.176,0.347-0.348,0.511-0.516s0.308-0.336,0.433-0.504
		c0.123-0.168,0.223-0.342,0.299-0.522c0.076-0.18,0.115-0.365,0.115-0.558c0-0.216-0.035-0.399-0.103-0.552
		c-0.068-0.152-0.16-0.278-0.276-0.378c-0.115-0.101-0.25-0.174-0.402-0.223c-0.151-0.048-0.315-0.071-0.492-0.071
		c-0.207,0-0.397,0.028-0.569,0.084s-0.323,0.124-0.456,0.204c-0.132,0.08-0.246,0.157-0.342,0.233s-0.168,0.139-0.217,0.187
		l-0.491-0.696c0.063-0.072,0.159-0.16,0.288-0.264c0.128-0.104,0.281-0.202,0.462-0.294c0.18-0.092,0.382-0.17,0.606-0.234
		c0.223-0.063,0.463-0.096,0.719-0.096c0.776,0,1.351,0.178,1.723,0.534C538.854,437.354,539.041,437.863,539.041,438.527z"/>
	<path d="M542.232,439.5c1.072,0.04,1.852,0.275,2.34,0.708c0.488,0.432,0.732,1.012,0.732,1.739c0,0.328-0.053,0.633-0.156,0.912
		c-0.104,0.28-0.266,0.521-0.486,0.72c-0.22,0.2-0.5,0.356-0.84,0.469c-0.34,0.111-0.742,0.168-1.205,0.168
		c-0.193,0-0.383-0.015-0.57-0.042c-0.188-0.028-0.366-0.062-0.534-0.103s-0.316-0.082-0.444-0.126s-0.221-0.082-0.275-0.113
		l0.191-0.853c0.128,0.064,0.326,0.141,0.594,0.229s0.606,0.132,1.014,0.132c0.32,0,0.589-0.036,0.805-0.108s0.391-0.17,0.521-0.294
		c0.133-0.124,0.229-0.266,0.289-0.426c0.06-0.16,0.09-0.328,0.09-0.504c0-0.272-0.047-0.515-0.139-0.727s-0.252-0.39-0.479-0.533
		c-0.228-0.145-0.54-0.254-0.937-0.33c-0.396-0.076-0.894-0.114-1.494-0.114c0.049-0.353,0.086-0.682,0.114-0.99
		c0.028-0.308,0.052-0.607,0.072-0.9c0.021-0.291,0.036-0.581,0.048-0.869s0.025-0.593,0.042-0.912h3.576v0.84h-2.712
		c-0.008,0.112-0.018,0.258-0.03,0.438c-0.012,0.181-0.026,0.37-0.042,0.57s-0.031,0.393-0.048,0.576S542.24,439.388,542.232,439.5z
		"/>
	<path d="M549.889,443.292c0,0.239-0.08,0.451-0.24,0.636c-0.16,0.184-0.372,0.275-0.636,0.275c-0.272,0-0.488-0.092-0.648-0.275
		c-0.159-0.185-0.239-0.396-0.239-0.636c0-0.248,0.08-0.464,0.239-0.648c0.16-0.184,0.376-0.276,0.648-0.276
		c0.264,0,0.476,0.093,0.636,0.276C549.809,442.828,549.889,443.044,549.889,443.292z"/>
	<path d="M557.041,438.527c0,0.257-0.051,0.504-0.15,0.744s-0.232,0.477-0.396,0.708c-0.164,0.232-0.35,0.46-0.558,0.684
		c-0.208,0.225-0.42,0.444-0.636,0.66c-0.12,0.12-0.26,0.265-0.42,0.433s-0.312,0.34-0.457,0.516
		c-0.144,0.176-0.264,0.348-0.359,0.516c-0.096,0.169-0.145,0.312-0.145,0.433h3.42v0.84h-4.5c-0.008-0.04-0.012-0.082-0.012-0.126
		s0-0.086,0-0.126c0-0.336,0.057-0.648,0.168-0.937c0.112-0.287,0.256-0.56,0.433-0.815c0.176-0.256,0.374-0.498,0.594-0.727
		c0.22-0.228,0.438-0.449,0.653-0.666c0.177-0.176,0.347-0.348,0.511-0.516s0.308-0.336,0.433-0.504
		c0.123-0.168,0.223-0.342,0.299-0.522c0.076-0.18,0.115-0.365,0.115-0.558c0-0.216-0.035-0.399-0.103-0.552
		c-0.068-0.152-0.16-0.278-0.276-0.378c-0.115-0.101-0.25-0.174-0.402-0.223c-0.151-0.048-0.315-0.071-0.492-0.071
		c-0.207,0-0.397,0.028-0.569,0.084s-0.323,0.124-0.456,0.204c-0.132,0.08-0.246,0.157-0.342,0.233s-0.168,0.139-0.217,0.187
		l-0.491-0.696c0.063-0.072,0.159-0.16,0.288-0.264c0.128-0.104,0.281-0.202,0.462-0.294c0.18-0.092,0.382-0.17,0.606-0.234
		c0.223-0.063,0.463-0.096,0.719-0.096c0.776,0,1.351,0.178,1.723,0.534C556.854,437.354,557.041,437.863,557.041,438.527z"/>
	<path d="M558.217,438.336c0-0.608,0.115-1.07,0.348-1.387c0.232-0.315,0.553-0.474,0.96-0.474c0.408,0,0.728,0.158,0.96,0.474
		c0.232,0.316,0.348,0.778,0.348,1.387c0,0.607-0.115,1.071-0.348,1.392s-0.552,0.48-0.96,0.48c-0.407,0-0.728-0.16-0.96-0.48
		S558.217,438.943,558.217,438.336z M559.141,444.06h-0.84l4.548-7.428h0.84L559.141,444.06z M560.088,438.336
		c0-0.36-0.047-0.656-0.144-0.889c-0.096-0.231-0.235-0.348-0.42-0.348s-0.326,0.116-0.426,0.348
		c-0.101,0.232-0.149,0.528-0.149,0.889c0,0.359,0.049,0.655,0.149,0.888c0.1,0.232,0.241,0.348,0.426,0.348s0.324-0.115,0.42-0.348
		C560.041,438.991,560.088,438.695,560.088,438.336z M561.181,442.355c0-0.607,0.114-1.069,0.342-1.386s0.546-0.475,0.954-0.475
		s0.729,0.158,0.96,0.475s0.349,0.778,0.349,1.386c0,0.608-0.117,1.07-0.349,1.386c-0.231,0.316-0.552,0.475-0.96,0.475
		s-0.727-0.158-0.954-0.475C561.295,443.426,561.181,442.964,561.181,442.355z M563.053,442.355c0-0.36-0.051-0.656-0.15-0.888
		c-0.1-0.232-0.242-0.349-0.426-0.349s-0.324,0.116-0.42,0.349c-0.096,0.231-0.145,0.527-0.145,0.888s0.049,0.656,0.145,0.888
		c0.096,0.232,0.236,0.349,0.42,0.349s0.326-0.116,0.426-0.349C563.002,443.012,563.053,442.716,563.053,442.355z"/>
</g>
<g>
	<path d="M539.041,486.527c0,0.257-0.051,0.504-0.15,0.744s-0.232,0.477-0.396,0.708c-0.164,0.232-0.35,0.46-0.558,0.684
		c-0.208,0.225-0.42,0.444-0.636,0.66c-0.12,0.12-0.26,0.265-0.42,0.433s-0.312,0.34-0.457,0.516
		c-0.144,0.176-0.264,0.348-0.359,0.516c-0.096,0.169-0.145,0.312-0.145,0.433h3.42v0.84h-4.5c-0.008-0.04-0.012-0.082-0.012-0.126
		s0-0.086,0-0.126c0-0.336,0.057-0.648,0.168-0.937c0.112-0.287,0.256-0.56,0.433-0.815c0.176-0.256,0.374-0.498,0.594-0.727
		c0.22-0.228,0.438-0.449,0.653-0.666c0.177-0.176,0.347-0.348,0.511-0.516s0.308-0.336,0.433-0.504
		c0.123-0.168,0.223-0.342,0.299-0.522c0.076-0.18,0.115-0.365,0.115-0.558c0-0.216-0.035-0.399-0.103-0.552
		c-0.068-0.152-0.16-0.278-0.276-0.378c-0.115-0.101-0.25-0.174-0.402-0.223c-0.151-0.048-0.315-0.071-0.492-0.071
		c-0.207,0-0.397,0.028-0.569,0.084s-0.323,0.124-0.456,0.204c-0.132,0.08-0.246,0.157-0.342,0.233s-0.168,0.139-0.217,0.187
		l-0.491-0.696c0.063-0.072,0.159-0.16,0.288-0.264c0.128-0.104,0.281-0.202,0.462-0.294c0.18-0.092,0.382-0.17,0.606-0.234
		c0.223-0.063,0.463-0.096,0.719-0.096c0.776,0,1.351,0.178,1.723,0.534C538.854,485.354,539.041,485.863,539.041,486.527z"/>
	<path d="M540.553,488.34c0-1.248,0.214-2.206,0.642-2.874c0.429-0.668,1.03-1.002,1.806-1.002c0.785,0,1.389,0.334,1.812,1.002
		s0.637,1.626,0.637,2.874s-0.213,2.206-0.637,2.874s-1.027,1.002-1.812,1.002c-0.775,0-1.377-0.334-1.806-1.002
		C540.767,490.546,540.553,489.588,540.553,488.34z M544.44,488.34c0-0.408-0.024-0.794-0.071-1.158
		c-0.049-0.364-0.129-0.682-0.24-0.954c-0.112-0.271-0.26-0.488-0.444-0.648c-0.185-0.159-0.412-0.239-0.685-0.239
		c-0.271,0-0.5,0.08-0.684,0.239c-0.184,0.16-0.332,0.377-0.443,0.648c-0.113,0.272-0.192,0.59-0.24,0.954
		c-0.049,0.364-0.072,0.75-0.072,1.158s0.023,0.794,0.072,1.158c0.048,0.363,0.127,0.682,0.24,0.953
		c0.111,0.272,0.26,0.488,0.443,0.648s0.412,0.24,0.684,0.24c0.272,0,0.5-0.08,0.685-0.24s0.332-0.376,0.444-0.648
		c0.111-0.271,0.191-0.59,0.24-0.953C544.416,489.134,544.44,488.748,544.44,488.34z M543.696,488.208
		c0,0.208-0.062,0.388-0.187,0.54c-0.123,0.151-0.285,0.228-0.485,0.228c-0.208,0-0.376-0.076-0.504-0.228
		c-0.128-0.152-0.192-0.332-0.192-0.54s0.064-0.393,0.192-0.553c0.128-0.159,0.296-0.239,0.504-0.239c0.2,0,0.362,0.08,0.485,0.239
		C543.635,487.815,543.696,488,543.696,488.208z"/>
	<path d="M549.889,491.292c0,0.239-0.08,0.451-0.24,0.636c-0.16,0.184-0.372,0.275-0.636,0.275c-0.272,0-0.488-0.092-0.648-0.275
		c-0.159-0.185-0.239-0.396-0.239-0.636c0-0.248,0.08-0.464,0.239-0.648c0.16-0.184,0.376-0.276,0.648-0.276
		c0.264,0,0.476,0.093,0.636,0.276C549.809,490.828,549.889,491.044,549.889,491.292z"/>
	<path d="M552.553,488.34c0-1.248,0.214-2.206,0.642-2.874c0.429-0.668,1.03-1.002,1.806-1.002c0.785,0,1.389,0.334,1.812,1.002
		s0.637,1.626,0.637,2.874s-0.213,2.206-0.637,2.874s-1.027,1.002-1.812,1.002c-0.775,0-1.377-0.334-1.806-1.002
		C552.767,490.546,552.553,489.588,552.553,488.34z M556.44,488.34c0-0.408-0.024-0.794-0.071-1.158
		c-0.049-0.364-0.129-0.682-0.24-0.954c-0.112-0.271-0.26-0.488-0.444-0.648c-0.185-0.159-0.412-0.239-0.685-0.239
		c-0.271,0-0.5,0.08-0.684,0.239c-0.184,0.16-0.332,0.377-0.443,0.648c-0.113,0.272-0.192,0.59-0.24,0.954
		c-0.049,0.364-0.072,0.75-0.072,1.158s0.023,0.794,0.072,1.158c0.048,0.363,0.127,0.682,0.24,0.953
		c0.111,0.272,0.26,0.488,0.443,0.648s0.412,0.24,0.684,0.24c0.272,0,0.5-0.08,0.685-0.24s0.332-0.376,0.444-0.648
		c0.111-0.271,0.191-0.59,0.24-0.953C556.416,489.134,556.44,488.748,556.44,488.34z M555.696,488.208
		c0,0.208-0.062,0.388-0.187,0.54c-0.123,0.151-0.285,0.228-0.485,0.228c-0.208,0-0.376-0.076-0.504-0.228
		c-0.128-0.152-0.192-0.332-0.192-0.54s0.064-0.393,0.192-0.553c0.128-0.159,0.296-0.239,0.504-0.239c0.2,0,0.362,0.08,0.485,0.239
		C555.635,487.815,555.696,488,555.696,488.208z"/>
	<path d="M558.217,486.336c0-0.608,0.115-1.07,0.348-1.387c0.232-0.315,0.553-0.474,0.96-0.474c0.408,0,0.728,0.158,0.96,0.474
		c0.232,0.316,0.348,0.778,0.348,1.387c0,0.607-0.115,1.071-0.348,1.392s-0.552,0.48-0.96,0.48c-0.407,0-0.728-0.16-0.96-0.48
		S558.217,486.943,558.217,486.336z M559.141,492.06h-0.84l4.548-7.428h0.84L559.141,492.06z M560.088,486.336
		c0-0.36-0.047-0.656-0.144-0.889c-0.096-0.231-0.235-0.348-0.42-0.348s-0.326,0.116-0.426,0.348
		c-0.101,0.232-0.149,0.528-0.149,0.889c0,0.359,0.049,0.655,0.149,0.888c0.1,0.232,0.241,0.348,0.426,0.348s0.324-0.115,0.42-0.348
		C560.041,486.991,560.088,486.695,560.088,486.336z M561.181,490.355c0-0.607,0.114-1.069,0.342-1.386s0.546-0.475,0.954-0.475
		s0.729,0.158,0.96,0.475s0.349,0.778,0.349,1.386c0,0.608-0.117,1.07-0.349,1.386c-0.231,0.316-0.552,0.475-0.96,0.475
		s-0.727-0.158-0.954-0.475C561.295,491.426,561.181,490.964,561.181,490.355z M563.053,490.355c0-0.36-0.051-0.656-0.15-0.888
		c-0.1-0.232-0.242-0.349-0.426-0.349s-0.324,0.116-0.42,0.349c-0.096,0.231-0.145,0.527-0.145,0.888s0.049,0.656,0.145,0.888
		c0.096,0.232,0.236,0.349,0.42,0.349s0.326-0.116,0.426-0.349C563.002,491.012,563.053,490.716,563.053,490.355z"/>
</g>
<g>
	<path d="M290.123,145.3"/>
	<polygon fill="#C6E8EE" points="445.989,191.282 448.197,192.819 450.846,193.476 453.717,195.225 456.808,196.976 
		460.341,200.482 461.225,201.135 460.118,202.67 456.588,207.486 453.938,210.336 451.73,213.617 449.964,213.836 447.758,213.4 
		446.431,211.868 445.107,210.336 444.225,208.364 444.447,206.393 446.431,206.174 447.537,203.326 447.758,199.167 
		447.537,196.103 446.431,194.346 445.107,192.819 445.107,191.065 	"/>
	<path fill="#8ED1DD" d="M114.723,19.934c0.439,0,4.635,0,4.635,0l1.988,2.083l1.986,1.529l4.194,0.439l2.871,0.328l1.103,2.188
		l2.431,0.22h2.759l1.104-1.641l0.329-2.411l1.988-1.093l2.76-0.765h4.307l1.876-0.551l2.648-1.86l2.539-1.314l2.097-0.984
		l3.09-0.328l2.209-2.625l2.318-2.961L164.285,8l4.857,0.22l1.102,2.186l-1.102,1.865l-0.885,1.752l0.11,2.188l2.209,0.329
		l2.315,0.983l1.549,2.519l0.885,1.975l-0.554,1.968l-1.655,1.644l-0.442,2.08l-1.102,3.609l0.108,1.754l-0.661,1.423v4.163
		l0.108,2.194l1.212,1.637l1.106,2.191l0.11,3.395l1.657,0.983l2.646,2.3l1.438,1.969l3.423,2.191l0.993,1.312l0.22,6.462v3.614
		l-1.546,0.656h-4.857l-4.747-0.111c0,0-0.994,1.096-1.435,1.207c-0.439,0.108-2.867,2.956-2.867,2.956l-1.105,2.299v1.312
		l-1.104,0.875l-0.884,1.096l-1.104,1.532l-0.221,1.974l-0.664,0.981l-1.654,0.331l-0.992-0.984l-0.994-1.318l-2.318-1.42
		l-1.767-0.656l-1.987,0.437l-1.545,1.424l-1.546,1.095l-1.653,2.077l-0.333,5.474l-0.773,0.659l-1.655-1.096l-2.537-3.064
		l-1.546-1.752l-0.885-0.875l1.325-1.863v-2.08l-0.44-1.204l-0.994-1.643l-0.33-2.08l-0.333-2.739l-0.33-2.299l-0.222-3.72v-4.051
		l-1.103-1.968l-1.324-1.538l-1.105-1.86l-1.214-2.519l-0.883-2.188l-1.215-2.738l-0.442-1.204l-1.764-1.532h-0.993l0.107-4.16
		c0,0-1.765,0-2.097-0.111c-0.331-0.111-2.98-0.111-2.98-0.111l-1.436,0.111l-2.317-0.437l-0.772-0.439h-0.994
		c0,0-0.331-8.869-0.331-9.195c0-0.328,1.325-1.863,1.325-1.863l0.772-1.204v-3.287l-2.649-1.751l-1.765-0.545l-1.657-0.548
		l-0.661-0.876L114.723,19.934z"/>
	<path fill="#A0D9E2" d="M161.195,239.021c0,0-4.195-0.77-4.857-0.77c-0.663,0-4.527,0.114-5.298,0
		c-0.773-0.106-3.754-0.325-3.754-0.325l-2.648-1.752l-1.215-2.08l-1.657-0.875l-4.082-0.656l-2.65-0.548l-1.546-1.426l-1.433-1.751
		l-0.884-1.644l-1.217-0.762l-2.097,0.876h-1.877l-1.212-1.098l-1.658-0.984l-1.875-0.108l-3.866,0.436l-2.646-1.204l-2.209-2.519
		l-3.091-2.736l-1.765-1.749l-1.659-2.302l-1.212-3.615l0.221-4.921l-0.662-2.303l-0.553-2.85l1.436-1.312l0.11-5.697l-0.993-2.077
		h-2.54c0,0-4.414,0.111-5.077,0.111c-0.66,0-4.526,0.984-4.526,0.984l-2.648,0.768l-0.552-0.768l0.883-1.204l1.326-1.423
		c0,0,1.764-0.328,2.096-0.328s2.762,0,2.762,0l3.421-0.109l3.532-0.659h4.087l1.653-1.095l1.544-2.08l1.325-1.423h5.738
		c0,0,1.657-0.108,1.88-0.656c0.22-0.548,0.44-2.519,0.44-2.519l1.988-1.204l0.44-2.519l0.992-1.315l1.88-0.108l1.434-2.627
		l1.434-1.204l2.097,0.111h3.422l2.097,1.641l3.204,2.08l2.098,2.303l2.097,2.188l1.655,1.093l1.547,0.22l1.322-0.326h1.658
		l1.03,2.883l-0.297,1.607l0.444,2.189l0.292,2.042l-0.146,3.647l-0.735,2.63l0.442,3.646l0.293,1.898v1.898l-0.146,2.777
		l0.587,0.727l0.294,1.464l3.976-0.293l5.297,0.146h5.152l0.59,1.752l2.793,0.436l1.621,0.732l-0.297,1.312l-1.618,1.752
		l-0.144,2.044l1.028,2.774l1.618,2.774l0.148,5.399l-1.327,1.458l-2.646,3.799L161.195,239.021z"/>
	<path fill="#A0D9E2" d="M3.047,163.329c0,0,18.842,8.468,37.092,9.634c3.826,2.628,7.064,4.086,7.064,4.086
		s29.729,16.061,36.501,17.812l-0.296,2.045l-3.827,2.334l-3.53,1.752l-2.062,2.334l-3.827,0.586l-2.943,1.166l-2.353,3.213
		l-1.769,0.876l-2.354-0.293l-3.237-1.458h-5.007h-8.241l-3.826-0.29l-0.883-2.921l-0.294-5.548l0.884-3.796v-4.089l-0.296-2.625
		l-3.827,2.625l-4.417,3.506l-3.235,1.169l-7.947-0.882l-0.589-3.5l-3.533-2.63l-2.65-1.166h-2.941l0.587-2.042v-3.505l-2.062-2.337
		l-3.529-3.793l-2.651-5.255l-2.06-4.086v-2.627L3.047,163.329z"/>
	<path fill="#B3E1E8" d="M3.047,159.532l5.593,3.501c0,0,25.905,7.885,31.792,7.885c1.178,0,2.943,1.459,2.943,1.459l3.533,2.337
		c0,0,32.969,17.81,36.5,18.105c3.536,0.29,3.536-1.168,3.536-1.168l2.058-1.755l2.062-2.042l3.529-0.586l4.123,1.166l4.121-1.747
		h2.649l2.061-0.878l0.885-2.334l3.825-0.876l5.005-0.295l1.176-2.625l1.766-1.169v-2.625l3.827-2.337l0.297-2.63l11.773-0.583
		l1.472,2.92l2.941,2.63l3.828,3.793l3.533-0.295l3.237,0.585h19.427l17.075-0.29l2.941-2.335l0.296-5.84l2.061-4.672l0.587-4.962
		l-1.764-4.089l-1.18-2.918l25.022-50.221l1.178-4.379l1.177-2.337l-4.708,1.168l-3.829-2.627l-3.826-3.21l-9.714-0.876
		l-2.943-4.382c0,0-5.888-8.037-6.475-8.175c-0.886,0.879-0.462-2.326-0.462-2.326l-0.201-4.06l-0.552-3.284l-2.173-0.257h-3.604
		l-4.783,0.073l-1.252,0.326l-1.988,2.706l-2.939,3.867l-1.363,2.153c0,0-0.591,2.847-0.625,2.994
		c-0.038,0.146-0.846,1.13-0.846,1.13l-1.842,0.771l-3.163-0.041l-2.282-1.678l-1.434-1.676l-1.953,0.363
		c0,0-1.653,1.055-1.765,1.131c-0.112,0.07-1.214,1.752-1.214,1.752l-0.146,2.917l-0.26,4.455l-1.729,0.328l-1.95,0.035
		c0,0-1.915-1.058-2.137-1.169c-0.218-0.108-1.324-1.239-1.324-1.239s-1.691-1.497-1.875-1.681
		c-0.183-0.179-1.436-1.787-1.436-1.787s-1.547-1.497-1.62-1.641c-0.073-0.148-0.844-1.423-0.844-1.423v-1.099l0.072-2.589
		l-0.22-5.074c0,0-0.369-1.968-0.406-2.08c-0.035-0.108-0.623-3.43-0.623-3.539c0-0.111-0.075-3.321-0.075-3.321
		s-0.184-2.704-0.33-2.994c-0.147-0.29-1.216-2.009-1.399-2.264c-0.183-0.252-1.359-2.408-1.359-2.408l-1.325-3.251
		c0,0-0.849-2.329-1.177-2.807c-0.334-0.478-1.215-2.302-1.288-2.41c-0.078-0.111-0.444-0.908-0.444-0.908l-3.423-0.038
		l-0.516-0.768l-1.065,0.328l-1.067,0.987l-2.685,1.166l-0.556,2.299l-1.834,2.006l-1.917,2.045l-2.609,0.369l-2.1,0.765
		l-1.693,1.312l-1.987,1.497l-2.686,2.847l-2.283,0.548l-2.132,0.475l-1.324-0.949l-0.111-1.312h-1.689l-1.291,0.252l-0.588,1.535
		l-2.5-0.041l-3.091-0.033l-0.993-0.694c0,0-0.773-1.022-0.884-1.131c-0.112-0.111-1.585-1.315-1.585-1.315l-1.25-0.949l-4.82-0.399
		l-0.147-6.936l-1.362-2.118l-0.806-1.206L78.331,47.6l-1.729,1.31l-1.51,1.024l-0.844,1.567l-2.138,1.28l-1.802-2.266l-0.555-1.166
		l-1.063,1.572l-1.068,1.42l-5.737,0.039l-3.94-0.223l-5.59-0.146c0,0-1.178,0.293-1.289,0.331c-0.11,0.039-1.62,0.841-1.62,0.841
		s-0.513,1.13-0.48,1.239c0.039,0.111,0.299,2.373,0.299,2.373l0.182,1.681c0,0,0.369,0.618,0.885,0.656
		c0.514,0.035,2.207,0.035,2.207,0.035s2.097,0.111,2.281,0.111s0.955,0.619,0.955,0.619s0.773,0.621,0.848,0.767
		c0.073,0.144,0.884,1.461,0.884,1.461l0.33,1.641c0,0,0,1.532,0,1.643c0,0.108-0.368,1.462-0.368,1.462h-1.289l-2.281,0.144
		l-0.587-0.585l-1.953-0.146l-1.727,0.694l-2.283,0.11l0.037,2.044l-0.072,6.351l1.104,1.055c0,0,1.326,0.729,1.471,0.881
		c0.149,0.144,1.031,0.762,1.253,0.946c0.218,0.182,1.104,0.51,1.104,0.51l0.183,3.102l-0.22,1.496l1.581,2.1l0.718,2.025
		l-0.662,7.991v3.671c0,0-0.938,2.844-0.938,3.335c0,0.494-1.271,3.561-1.271,3.561l-0.054,3.669c0,0-0.72,1.095-0.772,1.475
		c-0.059,0.388-0.167,4.93-0.167,4.93s-0.827,2.191-0.882,2.517c-0.054,0.333,0,3.178,0,3.178s-1.214,3.666-1.381,3.939
		c-0.167,0.274-1.213,1.972-1.437,2.029c-0.218,0.054-2.316-0.057-2.594-0.057c-0.275,0-2.427-0.768-2.594-0.93
		c-0.164-0.166-1.159-0.819-1.159-0.819h-2.483l-1.876,0.711l-0.771,1.367l-2.927,1.15l-4.14,0.382l-3.753,0.108l-2.206,0.933
		l-2.542,1.478l-1.766,1.315c0,0-2.759,1.86-2.759,2.025c0,0.163-2.428,3.118-2.649,3.395c-0.219,0.271-0.938,2.736-0.938,2.736
		l-0.384,1.751l-1.217,1.697c0,0-0.994,1.478-1.047,1.644c-0.055,0.163,0.33,2.516,0.33,2.516l0.385,1.589l-1.104,2.902
		l-2.043,1.857c0,0-2.261,1.21-2.261,1.427C4.446,157.287,3.047,159.532,3.047,159.532z"/>
	<path fill="#A0D9E2" d="M239.018,45.005l3.312,1.099l2.208,0.434l1.988-0.326l0.881-0.987l2.758-0.108h2.321l1.987,0.987
		l2.096,0.216l2.87-0.108l2.87-1.86c0,0,1.214-1.863,1.545-2.411c0.332-0.548,2.43-5.475,2.43-5.475l3.088-5.254l2.87-4.376
		l2.982-3.617l2.316-1.969l1.987,1.532l1.435,1.752c0,0,0.22,2.302,0.22,2.736c0,0.439,0.113,5.588,0.113,5.588l0.551,1.638
		l1.215,1.863c0,0,0.881,0.985,0.881,1.532c0,0.548,0.442,3.178,0.334,3.503c-0.113,0.328,0.773,3.943,0.773,3.943l0.992,1.971
		l2.097,2.188l2.315,1.751l2.654,0.439l1.324,1.312l1.323,2.191l-0.332,2.625c0,0-1.104,0.439-1.433,0.879
		c-0.334,0.439-2.871,2.956-4.084,4.051c-1.217,1.096-3.315,4.162-3.315,4.162l-3.089,2.517c0,0-2.207,1.532-3.092,1.86
		c-0.883,0.331-2.207,1.646-2.207,1.972c0,0.331-1.438,3.614-1.438,3.614l-1.652,2.299l-1.988,2.517l-0.772,3.066
		c0,0-0.554,0.659-1.214,0.659c-0.662,0-2.428,0-2.428,0s-0.887-1.423-1.215-1.751c-0.333-0.33-1.435-2.302-1.768-3.286
		c-0.33-0.984-1.984-3.612-1.984-3.612s-1.104-1.752-1.657-2.519c-0.55-0.767-1.656-2.958-2.207-3.503
		c-0.554-0.548-1.543-1.863-1.543-1.863s-0.223-2.41-0.333-2.953c-0.111-0.548-1.102-3.833-1.874-4.493
		c-0.776-0.653-2.101-4.265-2.431-4.599c-0.332-0.323-0.993-2.08-1.989-2.408c-0.993-0.328-2.427-0.876-3.31-1.423
		c-0.881-0.548-2.761-1.204-3.312-1.312c-0.551-0.108-1.655-1.424-2.868-1.644c-1.215-0.22-1.878-0.767-2.431-1.206
		c-0.552-0.434-2.099-1.968-2.099-2.733C237.69,45.336,239.018,45.005,239.018,45.005z"/>
	<path fill="#B3E1E8" d="M451.291,133.694h1.983l2.871,1.096l2.649,1.312l3.532,0.216h4.193h3.535l3.089,0.439l2.429,1.312
		l1.546,1.974v1.529l1.324,3.287v2.411l0.441,3.503l-0.66,1.312h-3.757h-4.412l-2.871-1.096l-1.983-0.437l-1.328,0.437l-1.546,1.532
		l-0.22,1.754l-0.443,1.971h-2.205l-1.105-1.535l-2.869,0.22h-1.105l-0.662-1.532l1.768-3.067v-2.188l-3.312-0.654l-3.091,0.435
		l-1.768,1.751l-3.09,1.752c0,0-1.546,0.437-2.207,0.437c-0.664,0-2.21,0.22-2.21-0.437s1.991-3.283,1.991-3.283l1.542-2.63
		l3.31-5.036L451.291,133.694z"/>
	<polygon fill="#C6E8EE" points="444.225,188.218 446.213,189.313 448.64,190.845 451.068,191.718 453.717,193.036 455.262,194.132 
		457.25,195.225 459.677,196.976 461.664,198.292 463.65,198.948 465.641,197.196 468.951,194.565 471.82,191.065 474.028,188.435 
		475.573,186.905 476.455,184.275 476.897,182.524 473.587,181.65 470.717,182.089 468.729,182.743 467.627,185.81 465.201,187.12 
		462.107,187.562 458.574,187.562 455.262,187.562 453.274,186.688 451.068,185.37 449.742,184.275 447.977,184.275 445.989,185.37 
		444.885,186.905 	"/>
	<path fill="#C6E8EE" d="M293.434,91.869l1.768-0.437l1.105,0.437l1.323,0.653l1.547-0.873l1.325-1.315l1.546-0.873l1.543,0.659
		l1.105-0.659l1.983-1.754l2.434-0.217l1.984-2.847l1.767-2.627l0.441-2.191l0.662-2.188l-3.53-0.217l-2.43-0.439h-3.094
		l-1.541,0.217h-3.092l-1.987-0.659l-2.65-0.876l-2.21,0.439l-0.882,2.405l-0.219,1.977l-0.222,2.407c0,0,0.44,2.408,0,3.062
		c-0.44,0.659-0.664,3.509-0.664,3.509l-0.22,3.062l0.884,0.222L293.434,91.869z M303.373,72.82l-0.886-1.974l-1.764,0.22
		l-1.327,2.188l1.767,1.098L303.373,72.82z M297.852,72.381l0.221-1.535l1.104-2.844l-3.533-0.878l-1.987,2.407l-1.104,1.971
		c0,0,2.649,0.439,3.315,0.439C296.527,71.941,297.852,72.381,297.852,72.381z M285.931,75.881l1.547-0.874l0.882-1.974v-1.312
		h-2.207l-2.431,1.312l-0.661,2.847l0.441,2.625L285.931,75.881z M277.32,84.862l1.986-2.193l-0.882-1.749l-1.546,0.876
		l-1.987,3.503l-1.325,3.503l1.985-1.096L277.32,84.862z M288.359,81.576l-1.104,0.439l-1.548,0.437l-0.881,1.095l1.325,0.439
		l1.325,0.656l2.429-1.314L288.359,81.576z M289.906,77.636l0.217-2.628l-1.543,0.654l-0.442,1.974H289.906z M286.812,88.143
		l0.219,1.977h1.988l0.222-1.754l-0.882-1.532h-1.328L286.812,88.143z M340.459,86.502h-3.42l-0.99-1.751
		c0,0-3.425-0.437-3.977-0.656c-0.551-0.22-2.762-0.437-2.762-0.437l-3.199-0.33l-2.871-0.548L321.363,83l-1.324,1.314l-6.845,7.335
		l-3.863,4.707L306.35,98l-3.199,0.108l-1.766-1.093l-1.549,0.108l-0.882,1.312l-0.66,1.315l-1.987-0.768l-1.875-1.532l-5.301-0.984
		c0,0-1.653-0.765-1.987-0.984c-0.331-0.22-1.766-2.191-1.766-2.191l-1.656-3.614l-0.885-0.768H280.3l-3.421,2.083l-3.202,1.529
		l-5.077,0.987l-1.325-1.312l0.662-2.408l2.869-0.548l-0.221-1.312l-3.311-0.439c0,0-1.765-1.863-2.206-2.08
		c-0.441-0.22-2.095-2.846-2.095-2.846l-0.445-2.739l-1.654-2.08l-3.423-4.71c0,0-0.549-2.845-1.104-3.723
		c-0.551-0.873-0.882-2.627-0.882-3.283c0-0.654-1.436-2.627-2.098-3.178c-0.661-0.545-1.326-3.173-1.764-3.829
		c-0.445-0.653-2.209-2.191-2.209-2.191l-3.425-1.971l-3.53-2.517c0,0-2.65-0.547-3.092-0.878c-0.441-0.325-2.981-1.312-3.199-1.746
		c-0.224-0.441-0.663-3.286-0.663-3.286l-0.332-3.066l-1.326-1.644c0,0-2.427,0-2.757,0c-0.334,0-2.869,0.767-2.869,0.767
		l-1.327,0.987h-2.87l-1.544-0.328l-0.331,1.418l0.108,2.413v2.186l-0.328,0.986h-4.857l-5.189-0.434l-2.65,0.217
		c0,0-2.979-0.217-3.531-0.111c-0.554,0.111-3.752,2.188-3.752,2.188l-2.874,1.098l-2.978,1.424l-4.858,1.641l-2.32,1.64
		l-1.763,0.662l-0.111,8.321l0.221,3.498c0,0,0.663,5.48,0.663,6.022c0,0.55,0.664,2.85,0.664,2.85l1.983,1.424l1.104,1.315
		l0.553,2.516l1.434,1.86l1.879,2.194l1.766,1.857l2.209,0.22l2.096,0.22l0.773,0.328l1.766-0.656l1.546,0.108l1.657,1.096
		l1.874,2.188l2.32,0.879l2.426,1.424l2.317,0.108l1.216-1.095l1.878-0.328l2.097,1.093l-0.223,1.754l-0.219,1.86l-1.103,0.436
		l-1.106,2.628l-0.661,2.525l-1.657,1.86l-2.426,6.131l-20.643,41.383l0.109,1.646l1.544,1.854l0.222,1.757
		c0,0,1.434,1.312,1.324,1.641c-0.108,0.328,0,2.847,0,2.847l1.325,1.424l0.995,1.423l0.99,2.847l1.437,1.644l0.331,2.956
		l0.111,4.379l2.539,1.863l2.981,2.404l1.985,2.083l2.429,2.078l1.656,0.439l4.635,0.334l6.183,0.653l1.655,0.656l15.677,0.659
		l14.681,0.108l9.711,0.768h9.825l13.356,0.55l3.977,0.106l1.434-3.615l3.311-5.363c0,0,2.43-2.411,2.758-2.628
		c0.333-0.22,1.988-2.188,1.988-2.188l1.215-3.287l0.332-3.395l-0.443-2.3l-1.214-1.312l0.334-3.395l1.323-1.863l0.552-2.517
		l0.661-2.408c0,0,0.883-0.553,1.437-0.876c0.55-0.328,3.419-2.739,3.419-2.739l2.208-1.315l1.104-1.64l1.77-3.176l0.108-2.955
		l-0.108-2.85l-1.216-0.22l-2.209-0.984l-0.884-2.188l2.763-3.287l7.062-6.022l3.754-1.641l2.76-3.503l5.521-8.759l3.862-5.146
		l0.222-3.612l0.883-2.194l1.436-2.514l1.548-3.617l0.548-5.472l1.104-1.426v-3.503L340.459,86.502z"/>
	<path fill="#B3E1E8" d="M314.852,138.51l3.311,0.439l2.649,1.096l3.311,1.312l1.106,2.191l1.104,4.379l-0.443,4.818l-0.221,4.379
		l-0.881,2.188l-0.883,2.191l0.218,2.408l2.651,1.752l1.545,2.188l1.988,2.411l3.314,1.535h3.309l0.883,2.408l-1.104,1.968
		l-2.205,1.099l-1.547,1.968l-0.44,2.41l-0.443,2.408l1.104,1.751l1.986,2.625l1.326,1.974l0.441,2.411l0.661,1.971l1.548,2.405
		l1.32,1.096l1.988,1.314l2.43,0.437l0.885,1.312l-1.548,1.098l-1.985,2.186l-1.324,1.974l-1.547,2.627l-0.219,3.284v1.971
		l2.648,1.748c0,0,0.222,0.439,0,1.318c-0.221,0.87,0,4.599,0,4.599l-1.104,1.53v2.63l0.883,1.535l-0.223,2.625l-1.766,0.22
		l-5.299,2.19l-3.752,0.876l-4.416,0.656l-2.428,0.439l-0.443,1.312l-3.311-1.751l-2.209-0.876l-1.988-0.875l-2.207-1.315
		l-1.764-1.752h-1.768l-3.532,0.22l-2.429,1.751l-1.104,2.191l-2.648-0.876l-2.209-0.876l-1.545-1.754l-1.986-3.5
		c0,0,0.439-1.751-0.443-1.751c-0.881,0-3.311,1.751-3.311,1.751l-1.104-3.943v-7.227l0.882-7.882l2.208-6.354l1.988-3.72
		l0.882-3.943l0.442-4.599l1.323-2.627l3.533-3.723l1.767-1.751l1.766-2.627l1.328-2.848l0.877-3.72v-2.63l-0.877-3.064l0.217-3.283
		l0.885-3.726l3.309-1.749l3.093-2.63l2.208-2.408l1.323-3.286l0.884-3.72v-3.287l-1.988-2.408L314.852,138.51z"/>
	<path fill="#ECF7F9" d="M345.649,89.021l2.54,0.22l2.209,1.86l1.873,0.22l2.982,0.111l2.43,0.985l1.546,2.083l3.089,2.294
		c0,0,1.546,2.084,1.546,2.411c0,0.328,0.439,1.859,0.439,2.302c0,0.434,0,2.293-0.329,2.408c-0.331,0.105-2.428,2.188-2.428,2.188
		l-0.554,2.08l0.222,2.627l1.545,1.315l1.989-0.551l0.99-2.188l2.431-1.312h1.987l0.992-1.315c0,0,0.994-1.204,1.765-1.204
		c0.775,0,4.195-0.108,4.195-0.108l1.767-0.876l1.437-0.656l2.761,0.545l2.317,1.096l2.76,1.749l2.098,0.99l3.642,0.437l2.096,0.547
		l-0.218,2.083l-1.547,1.64l-2.428,1.312l-0.993,0.659l-3.534,0.765l-1.545,3.066l-1.768,3.064l-1.325,2.299
		c0,0-0.218,3.945-0.218,5.915c0,1.971,0.994,3.722,0.994,4.487c0,0.768,0.771,3.07,0,3.943c-0.776,0.873-1.439,3.615-2.209,4.271
		c-0.775,0.656-0.441,3.612-0.441,3.612l0.221,1.754l2.099,2.407l-0.445,3.175l-1.324,1.751l-2.868,0.22
		c0,0-1.768-0.767-2.207-0.767c-0.441,0-2.76,0.111-2.76,0.111l-2.539,0.216l-1.657,0.879l-2.43,2.077l-2.094,2.191l-2.875,2.739
		l-2.755,1.093l-4.858,1.314l-3.093,2.628l-1.434,3.281l-0.33,2.194c0,0-0.662,2.739-0.773,3.172
		c-0.113,0.442-1.766,2.85-1.987,3.178c-0.222,0.325-1.324,3.831-1.324,4.159s0.22,3.946,0.22,3.946l0.773,1.749
		c0,0,0.773,1.752,0.442,2.08c-0.333,0.328-0.222,4.707-0.222,4.707l-1.325,1.752c0,0-1.875-0.656-2.315-0.765
		c-0.445-0.108-1.988-1.095-1.988-1.095s-0.993-2.848-1.104-3.504c-0.11-0.656-0.222-3.175-0.661-3.723
		c-0.443-0.547-1.438-1.201-1.988-1.974c-0.55-0.765-2.1-2.514-2.1-2.845c0-0.328,0.222-2.517,0.222-2.845
		c0-0.33,1.328-3.066,1.328-3.066s2.427-0.984,2.867-1.207c0.443-0.214,1.104-3.284,1.104-3.284v-2.847c0,0-0.331-0.439-1.104-1.312
		c-0.772-0.875-5.739-0.442-5.739-0.442l-2.647-1.641l-2.763-3.5c0,0-1.436-2.188-1.325-2.63c0.111-0.439,1.104-4.596,1.104-4.596
		l0.553-10.404l-0.332-3.5l-1.104-2.299c0,0-5.079-3.284-5.521-3.284c-0.439,0-3.09-0.659-3.09-0.659l-0.66-1.423l3.311-3.834
		l3.975-1.969l2.536-2.19l2.651-4.16l3.205-5.146l2.645-3.72l2.322-3.615l0.551-2.191l0.661-2.191l0.441-1.968
		c0,0,0.555-1.424,0.772-1.754c0.219-0.328,1.546-2.735,1.546-2.735s0.773-3.287,0.773-3.612c0-0.328,0.55-2.739,0.55-3.066
		c0-0.329,1.104-3.832,1.104-3.832L345.649,89.021z"/>
	<path fill="#ECF7F9" d="M397.861,109.385h1.766l2.647,0.875l0.665,1.099l-1.104,1.529l-0.439,1.751l0.217,1.751l1.546,2.411
		l1.105,2.628l1.325,2.408v2.41l0.66,2.625v5.038l0.882,7.663l0.222,3.287l0.444,2.411l0.882,4.376l0.881,2.411l0.664,1.752
		l2.205,1.535l0.664,1.968c0,0-0.439,1.312-1.104,1.532c-0.662,0.22-1.543,2.411-1.543,2.411l0.219,3.066l0.887,2.405l0.438,2.191
		l-0.882,2.63l-3.755,2.186l-3.752,2.85l-2.65,2.408l-2.868,3.066l-3.091,1.751l-3.09,0.223l-1.987,1.307l-2.207,0.659h-2.649
		l-1.768-0.22l-2.649-0.873l-3.311-0.659l-1.766,0.219l-1.106,1.312l-1.545,1.754l-0.219,2.627v2.186l-0.664,2.63l-1.322,1.754
		l-1.766,1.752l-2.43,0.653l-2.428,1.318l-2.43,1.312l-2.427,0.873c0,0-0.886-0.656-2.209-0.873c-1.323-0.22-1.323-0.22-1.323-0.22
		l-1.547-1.968l-0.885-1.535l-1.324-0.876h-2.869l-0.221-3.28l-0.221-2.85v-3.067l-0.663-2.408l-0.443-3.503l1.106-2.847
		l1.324-2.408l1.545-3.506l0.883-3.501l0.662-2.408l1.327-1.318l1.766-1.312l1.987-0.656l2.429-0.878l2.868-1.093l2.871-2.628
		l2.207-2.411l1.987-1.532l2.87-0.437l2.208-0.22l2.429,0.439h2.426l2.653-1.096l1.542-2.847l0.222-3.067l-0.662-1.754l-1.102-1.969
		l0.442-2.847l0.438-2.191l0.884-1.751l1.323-1.752l-0.661-2.188l-0.22-3.286l-0.442-3.94v-2.625l0.442-2.847l1.324-2.191
		l1.768-3.067l2.207-0.656l4.636-2.63l1.985-2.627L397.861,109.385z"/>
	<path fill="#B3E1E8" d="M438.482,154.934l-1.104,2.847l0.441,1.971l1.104,1.751l-0.442,2.628l-0.441,1.971l1.326,0.656l2.65,0.22
		l3.528-0.656l2.872-1.971l3.532-2.188l1.324-0.222l3.533,0.659l0.442,2.188l-0.884,1.093l-1.104,3.725v1.532l0.664,0.873
		l1.986,0.442l1.547-1.975l2.868-1.971h1.987l4.193-0.656l3.537-0.873l2.646-2.407l1.764-1.315l1.988-0.437h3.752v-2.194
		c0,0,0.221-2.63-0.439-2.844c-0.664-0.22-1.325-2.411-1.325-2.411l-1.102-0.876l-5.301-0.876h-3.533l-3.09-0.217h-2.649
		l-1.105,2.186l-1.766,2.408l-2.65,0.442l-1.984-1.532l-2.209,0.22l-1.546,0.87l-1.545-1.307l-1.544-2.194l1.104-3.284l1.547-2.19
		h-1.988l-2.429,1.314l-1.103,1.752l-1.991,0.875l-1.321,0.217l-3.092,0.222L438.482,154.934z"/>
	<path fill="#C6E8EE" d="M406.029,109.605l-0.883,1.968l-0.664,1.754l0.224,2.408l0.221,1.098l0.881,1.532l0.885,1.751l0.661,1.312
		v2.191l1.105,2.191l0.221,2.408v3.5l0.222,2.41l0.218,3.723l0.441,3.72l0.223,3.726l0.441,2.847c0,0,0.223,1.314,0.441,2.407
		c0.222,1.093,1.547,3.503,1.547,3.503l2.205,1.093l0.886,1.538l-0.443,2.625c0,0,0.222,0.876-0.442,1.532
		c-0.659,0.659-0.438,2.188-0.438,2.188l2.427,0.222l3.09-0.222l2.873-0.214h2.429l1.985,0.656l2.427,1.532l1.987,2.407l1.767-0.22
		l2.209-2.188l1.325-1.532l-0.663-1.972l-0.662-1.534v-2.845l1.325-2.847l0.439-3.287l2.208-3.72l3.089-3.723l2.213-3.726
		l1.983-3.504l1.767-3.281l3.094-1.974l-5.745-5.033l-4.853-3.729l-1.326-1.969c0,0-1.988-1.315-2.648-1.315
		c-0.665,0-2.871-1.312-2.871-1.312l-3.092-2.19l-3.31-2.188l-3.313-1.754l-3.31-1.749h-3.533h-4.636h-2.207L406.029,109.605z"/>
	<polygon fill="#B3E1E8" points="407.577,179.24 410.004,181.211 410.888,182.962 411.108,184.495 412.213,186.247 412.213,187.12 
		412.874,188.218 414.418,187.339 415.745,185.81 417.068,183.619 419.275,183.619 420.6,181.65 422.59,179.896 425.458,178.145 
		427.667,177.486 429.875,177.925 432.301,178.804 434.729,179.24 436.938,180.992 439.808,182.524 441.354,184.495 
		443.781,184.275 446.213,182.524 447.977,181.431 449.964,182.743 452.391,184.275 454.6,184.934 457.25,186.032 461.446,185.81 
		464.977,185.587 465.641,184.275 467.185,181.868 468.729,180.775 470.938,180.116 473.366,180.116 475.796,180.116 
		478.225,180.116 479.106,178.584 479.99,176.173 480.872,173.326 482.195,169.166 482.195,166.102 480.431,165.007 
		477.782,164.788 476.018,165.88 474.468,167.195 472.484,168.291 470.717,169.166 467.845,169.605 465.641,169.605 463.65,170.479 
		461.225,171.577 460.118,173.109 458.574,174.861 455.926,175.078 454.379,173.765 453.717,171.357 453.717,168.947 454.16,165.88 
		454.379,164.788 453.274,164.351 451.291,164.788 449.301,166.102 446.65,168.071 444.664,169.166 441.133,168.947 
		439.587,168.947 437.6,168.947 434.511,168.947 431.64,169.166 429.21,168.947 427.225,166.542 424.798,165.224 422.807,165.224 
		418.614,164.788 412.874,164.571 413.316,166.322 413.537,167.851 414.418,170.262 414.418,171.357 413.316,173.326 
		411.77,175.078 409.783,176.829 	"/>
	<path fill="#B3E1E8" d="M341.787,213.4l0.222-3.503l1.543-3.284l2.427-1.312l1.546-1.535l1.991-2.188l1.984,0.434l1.327,1.971
		l1.545,1.754l1.985,0.656l2.65,1.315l1.765-0.222l2.649-1.53l1.99-0.878h3.531l1.322-1.532l3.092-2.627l1.986-3.283l0.663-1.749
		v-2.411l-0.441-0.876l-0.222-2.411l1.104-1.532h2.208l1.325,0.875c0,0,2.208-0.22,3.093,0c0.88,0.217,1.542,1.312,1.542,1.312
		h3.093l2.427-0.656l3.094-1.312l3.753-0.879l2.866-1.093l1.766-2.847l1.988-1.315l2.871-1.312l1.765,0.873l0.442,1.314l0.439,1.969
		l0.441,3.07l1.768,1.532l2.209,0.437l3.972-2.627l2.431-2.411l2.43-0.653l1.764-2.63l1.547-1.749l1.767-0.659h1.542l1.547,0.659
		l2.208,0.876l1.768,0.658l2.868,1.969l1.546,1.312l1.769,1.318l1.765,1.31l0.883,3.067l-0.221,1.971l0.44,1.529l1.985,1.098v1.096
		l-0.217,6.787l-1.769,0.876l-1.762,0.879v2.408l0.436,1.751l1.106,2.188l1.544,2.41l2.43,2.186l2.208,1.102l-1.104,3.281
		l-3.311,3.945l-2.873,3.284l-2.427,2.844l-0.221-1.315l-1.987-1.312l-2.427-0.216l-2.209,0.656c0,0-0.882,1.312-0.882,1.969
		c0,0.661,0.219,1.974,0.219,1.974v2.625l-1.104,2.191l-1.543,2.847l0.44,4.16l0.44,2.188l0.662,1.753l-0.218,1.971l-0.444,1.311
		l0.221,5.916l0.441,4.597l-0.218,2.628l0.882,1.754v2.188l-0.443,3.943l-1.104,2.408l-0.439,3.503l-0.887,3.067l-1.104,1.971v3.723
		l0.884,0.656v1.752l-3.089,2.844l-2.873,3.504l-1.542,0.439l-2.211-1.312l-1.103-2.191l-0.442-2.191l-1.764-1.312l-1.104-1.971
		l-0.444-2.191l0.221-1.748l1.988-2.191l1.545-2.847l2.209-2.19l1.322-2.848v-3.284l-3.531-2.628l-3.31-1.312l-2.872-1.094h-3.09
		h-3.09l-1.546-0.877l-0.665-1.752l-2.428-2.41l-1.984-1.093c0,0-2.43-0.438-3.311-0.438c-0.883,0-2.428-0.66-2.428-0.66
		l-3.313-1.092l-2.649-2.189l-2.65-1.314l-1.542-0.653l-3.312-0.22l-2.43,0.437l-1.766,0.653l-0.884-1.754l-0.662-2.184
		l-1.324-1.753l-3.752-0.656l-1.989,0.22l-3.311,0.875l-3.312,2.409l-3.975,1.974l-3.312,2.19l-3.09,1.529l-2.208,1.752l0.221-3.066
		c0,0,0.44-3.289-0.221-3.943c-0.661-0.652-1.546-3.283-1.546-3.283l-1.543-2.405l-0.444-4.382l0.444-1.972l0.439-3.72v-4.821
		l-0.884-2.625l-0.662-4.382l1.106-2.191l0.661-2.85l-1.105-3.5L341.787,213.4z"/>
	<path fill="#8ED1DD" d="M203.363,445.223l2.353-0.287l2.062-1.317l2.355-0.873l2.207,0.437l2.06,2.193l3.386,2.918l2.796,3.061v1.9
		l1.179,1.316l1.62-0.442l1.913-1.02l1.322-0.728l1.475,1.312l0.883,1.02l1.322,1.755l1.916,1.608l2.207-0.442l1.913,1.898
		l2.208,1.02l1.619,1.169l1.912,2.191l1.472,1.899l2.21-0.146l2.354,1.748l0.439,1.462l1.618,1.462l1.622,2.188
		c0,0,0.587-0.003,1.027,0.291c0.444,0.293,2.209,1.464,2.209,1.464l1.177,1.312l-0.146,3.357l-1.173,1.605
		c0,0-1.917,1.021-1.917,1.459c0,0.439-0.149,5.986-0.149,5.986l1.474-1.168l2.207-1.605l3.092-1.462l1.322-2.478l2.505-2.631
		l0.883-3.793l1.325-3.652l1.322-2.188v-3.8l1.322-2.186l1.77-1.457l0.145-3.359l3.241-0.733l1.616-1.165l0.441-3.504l2.062-1.465
		l1.472-6.131l1.323-0.726l2.062,0.581l0.146,1.023l1.618,0.582l1.178-1.309l1.62-0.439h2.206l-0.146,3.504l-1.468,1.458
		l-1.769,2.483l-3.092,2.77l-1.471,2.63l-1.324,2.044l-2.945,1.896l-3.238,2.047c0,0-1.914,0.873-2.354,1.164
		c-0.442,0.291-1.619,1.023-1.619,1.023l0.147,1.752l1.177-0.144l1.617-0.149l2.506-1.168l2.939-2.191l2.798-2.624l2.797-2.63
		l3.091-3.502l3.531-4.818l2.208-4.088l2.505-5.109l1.029-2.773l1.471-3.357l-1.324-0.875l-1.914-0.439l-0.295-2.773l1.178-2.921
		l1.622-2.479v-1.169l-3.976,0.296l-3.239-0.732l-2.353-0.586l-3.094-3.063l-1.765-2.045l-2.354-2.191c0,0-2.499-1.455-3.092-1.898
		c-0.588-0.436-3.385-1.164-3.385-1.164s-3.09-1.17-3.975-1.316c-0.881-0.145-3.53-0.145-4.412-0.582
		c-0.884-0.439-4.562-1.022-5.006-1.169c-0.441-0.144-2.65-1.167-5.445-1.02c-2.795,0.146-6.327,0.146-7.358,0.146s-3.239,0-3.239,0
		l-2.205,1.604l-2.503,1.754l-3.386,1.6l-2.649,1.607l-2.356,1.463l-2.353,1.314l-26.2,26.272L203.363,445.223z"/>
	<path fill="#7BCAD7" d="M250.459,398.221v3.209l0.15,3.213l0.292,1.748l2.501,0.146h3.241l2.942,0.149l3.239,0.439l4.412,1.166
		l2.65,1.166l2.058,0.442l2.65,0.873l2.355,0.586l1.913,1.02l10.302,9.78l2.209,0.731l2.943-0.146h3.238
		c0,0,0.885-0.439,1.177,0.437c0.296,0.879,0.885,1.898,0.885,1.898l-0.295,1.752l-0.736,1.608l-1.764,1.898l-0.737,1.604
		l1.766,0.434l1.767,0.732l1.178-1.75l2.502-2.189l2.206-1.898l3.975-2.044c0,0,1.032-0.876,1.178-1.458
		c0.145-0.587,1.179-4.236,1.179-4.236l0.882-3.211l0.295-3.502v-3.36l-0.147-3.94c0,0,0-2.92,0-3.359
		c0-0.437-0.147-3.65-0.147-3.65l-0.442-2.043l-2.647-2.042h-2.356l-1.913,0.729l-1.177,1.021l-1.324,0.291l-2.502,0.732
		l-1.325-0.586l-0.884-1.02l-0.88-1.025l-2.209,0.152l-1.915,0.143l-2.945,0.438h-1.913l-1.616,1.752l-1.327,1.021l-2.503-0.146
		l-0.881,0.875l-1.325,1.752l-0.734,1.605h-1.77h-2.059l-2.205-0.293l-3.093-0.287l-2.946-0.732l-2.497-0.873l-2.354-0.732
		l-2.355-0.295h-1.62l-3.679-0.578l-2.796-0.295L250.459,398.221z"/>
	<polygon fill="#8ED1DD" points="244.276,369.018 244.276,374.566 243.986,378.947 243.986,383.766 242.07,385.954 241.188,386.537 
		242.217,387.12 243.542,387.12 244.573,386.244 245.457,386.681 247.221,389.457 248.253,391.502 248.841,394.273 251.637,395.592 
		255.022,396.174 258.262,396.465 261.791,396.611 265.327,397.051 266.65,398.072 269.74,398.943 274.45,399.967 278.127,400.113 
		279.158,399.092 279.307,397.484 280.191,395.592 283.722,395.442 285.635,395.299 287.256,393.547 288.431,392.521 
		291.521,392.521 295.644,392.521 298.881,392.521 299.618,394.127 301.087,394.861 302.561,394.713 304.475,393.254 
		306.389,392.812 308.447,392.812 310.801,392.812 312.274,393.688 313.306,393.688 314.189,392.088 314.777,390.037 
		316.25,388.582 316.689,387.27 317.721,386.537 317.572,384.35 316.25,383.326 314.337,383.326 312.57,383.183 311.833,382.598 
		311.981,380.406 311.981,378.654 303.738,378.654 303.003,375.444 302.709,372.229 301.385,370.043 299.471,368.435 
		299.323,366.539 298.881,362.451 298.587,359.24 296.672,357.34 294.172,357.049 285.049,356.905 282.837,355.441 281.369,354.565 
		279.601,354.126 278.127,353.839 274.007,353.546 269.297,353.253 267.679,353.253 264.442,353.253 261.939,353.396 
		259.143,353.396 257.672,353.396 255.168,354.565 252.667,356.609 250.164,358.947 249.283,360.989 246.339,364.205 
		245.308,366.246 	"/>
	<path fill="#68C2D1" d="M261.352,350.189l4.27,0.289l4.414,0.293h3.531l3.385,0.293l2.65,0.583l2.796,1.749l2.061,0.589h4.122
		h3.236h3.827l2.062,0.437l0.882,1.312l1.325,1.314l1.175,1.169l0.592,1.605v2.335v1.752l0.148,1.896l0.585,1.459l0.738,0.296
		l0.44,1.456l1.032,1.318l0.291,1.602l-0.146,2.338l0.146,1.312l3.094,0.145h4.119l1.324,0.292l0.738,1.462l0.147,2.045l0.44,0.875
		l2.06,0.142l2.063,0.733l0.438,0.73l1.473-0.436l1.472-2.341l3.09-1.749c0,0,1.472-1.164,1.766-1.605
		c0.297-0.437,4.566-2.918,4.566-2.918l2.798-2.483l1.618-1.315l2.94-1.166l2.063-0.732l1.619-0.293l1.914-1.895l7.505-0.148
		l1.177-2.039l3.385-2.048l1.767-0.724l2.942-0.296l1.915-0.437l-0.147-1.318l0.147-1.312l1.766-1.748v-2.631h-2.205l-2.212-1.459
		h-2.648l-2.5,1.022l-2.355,0.873l-2.061,1.025l-2.502,0.876c0,0,0,1.162-0.441,1.31c-0.442,0.149-4.269,0.149-4.269,0.149
		l-3.384,0.141l-1.621-0.727l-1.325-2.628l-0.585-1.896c0,0-0.737-1.898-0.885-2.334c-0.146-0.439-0.146-3.359-0.146-3.359
		l-0.147-3.064l0.147-2.047l0.439-2.043l-2.209-0.585c0,0-2.207,0-2.649-0.873c-0.438-0.882-1.767-2.63-1.767-3.067
		c0-0.439-0.735-2.191-0.735-2.916c0-0.736-0.146-2.341-0.146-3.363c0-1.02-0.147-1.605-0.147-2.042
		c0-0.442-1.031-2.921-1.031-2.921l-1.618-1.168l-2.207-0.29l-1.77,0.437l-3.827,0.729h-4.706l-1.914,0.146l-0.887,1.901
		l-0.588,1.458l-2.205-1.022l-2.65-1.024l-1.47-2.188c0,0-0.885-1.315-1.917-1.456c-1.028-0.149-2.209-0.149-3.677-0.149
		c-1.471,0-5.595,0-5.595,0l-2.793-0.875l-1.769-0.146l-1.767,0.875l-2.504,1.315l-1.766,2.335l-3.383,2.63l-2.65,3.21l-0.736,2.189
		l-1.911,2.773l-0.296,2.334l-1.326,2.045l-0.145,1.9l-1.326,2.188l-2.648,1.896l-2.796,2.486L261.352,350.189z"/>
	<path fill="#7BCAD7" d="M363.938,349.895l3.976-2.334l2.353-0.439l4.416-0.295l2.943-0.723h1.617h2.209l2.945-0.877l2.504-1.317
		l1.324-0.583l1.615-0.729l1.178-1.169l1.622-1.898l0.589-2.627l0.586-1.898l0.149-1.752l2.06-1.312l0.883,0.584l0.736,1.605
		c0,0,1.176,0.582,1.618,0.875c0.44,0.293,2.353,0.586,2.353,0.586h3.093h1.323l0.147,4.67l0.736,1.314l-0.147,1.315l-1.324,0.873
		l-2.354,1.315l-1.03,0.582l-2.062,0.586l-1.912,1.459l-1.029,1.898l-1.323,2.044l-0.738,1.166v1.608l-2.795,0.293
		c0,0-3.973,0-4.416,0c-0.442,0-3.531,0-3.531,0l-1.324-1.169v-1.462h-2.063l-1.47,0.149v2.332l-1.032,1.169
		c0,0-3.532-0.146-3.976-0.146c-0.438,0-2.057-0.58-2.057-0.58l-2.209-0.586l-1.176,1.312l-1.178,0.439l-0.737-1.315l0.885-2.045
		l-0.59-1.603l-1.474-0.586L363.938,349.895z"/>
	<path fill="#8ED1DD" d="M399.261,332.23l1.767,0.73l1.619,0.73l4.707-0.582l1.178-1.314l1.473-1.463l1.18-1.602l1.91-2.338
		l1.767-2.484l0.885-1.602l1.178-3.067l0.586-2.776l2.945-1.457c0,0,1.028-0.584,1.028-1.168c0-0.586,0.444-3.649,0.444-3.649
		l0.442-4.962v-3.794l-1.033-2.921l-1.913-1.17l-2.206-1.605l-1.77-0.438h-3.383l-1.473,0.584l-1.321,0.875l-1.327,1.021v1.752
		l0.148,1.605l0.291,2.191l0.888,1.898l-0.888,1.312l-0.146,1.166v2.19l-0.439,2.776l-0.885,3.354l-0.884,1.898l-1.471,1.755
		l-0.736,1.896l-0.735,1.314l-2.354,0.438l-1.767,0.879l-0.148,2.48l-0.146,2.48l-0.295,2.773L399.261,332.23z"/>
	<path fill="#A0D9E2" d="M284.938,315.879l0.111,1.316l3.858-0.109h3.755l3.975,0.217l5.3,0.114l2.648,1.312l1.218,1.312
		l1.102,1.312H309l0.661-0.879c0,0,0.552-0.759,1.325-0.759c0.775,0,2.763,0.105,3.535,0c0.773-0.114,1.653-0.662,2.098-0.662
		c0.438,0,3.42-0.325,3.42-0.325s2.43-0.439,2.76-0.439s2.98,0,2.98,0l1.876,0.657l1.105,1.095l1.104,1.312l0.663,2.3l0.665,2.408
		v2.407l0.548,2.085l0.332,1.092l0.884,1.427l1.323,1.53l1.548,0.881l1.323,0.322l1.654,0.771l0.553,1.532l-0.109,1.859
		l-0.221,1.752l-0.662,1.532v2.188l0.109,2.082l0.664,1.748l0.551,0.988l0.994,1.531l0.112,1.535l0.218,1.096h1.879l2.757-0.109
		l0.552-1.426l1.215-1.529l1.878-0.658l0.661,0.658c0,0,1.545,0.105,1.877-0.111c0.331-0.219,1.326-0.768,1.326-0.768l2.427-0.764
		l1.765-0.984l1.436-0.77l2.871-0.656l2.43-0.545l1.653-0.656l1.767-0.551l2.542-0.548l2.427-0.328l1.654-0.329l1.878-0.219h3.31
		l2.318-0.108l2.43-0.876c0,0,2.539-1.096,2.539-1.424s2.428-1.859,2.428-1.859l1.325-1.863l1.103-2.739l0.994-2.624l0.884-1.643
		l1.104-1.969l1.215-1.535l0.663-2.191l0.772-2.516l1.433-1.752l3.312-0.109l0.883-1.426l1.104-2.627l1.436-1.861
		c0,0,0.109-1.422,0.109-1.973c0-0.545,0.773-3.721,0.773-3.721l-0.443-1.859l-0.771-0.99l0.331-2.294l1.102-0.662l-0.109-1.968
		l-1.212-0.877c0,0,0.108-1.535,0.108-1.969c0-0.441,0.994-2.189,0.994-2.189l0.552-0.879c0,0,0.111-1.532,0.885-1.969
		c0.771-0.437,1.542-0.656,1.542-0.656l0.885-0.111l0.993,0.22h2.54h1.767l0.218-0.984l-2.428-2.19c0,0-1.432-2.08-1.541-2.411
		c-0.113-0.325,0.217-3.614,0.217-3.614l0.553-3.281l1.215-0.658h1.875l0.221-1.75l0.885-2.079l1.215-1.427l1.104-1.314l0.109-2.631
		l-2.758-1.312l-1.99-0.873l-2.318-0.875c0,0-1.432,0-1.766,0c-0.33,0-2.427,0-2.427,0h-1.546l-1.658,0.656h-1.432l-0.442-1.533
		l-0.442-2.189l-1.763-1.529l-1.105-1.424l-1.215-0.551c0,0-1.546-0.217-1.987-0.217c-0.439,0-2.428,0-2.428,0l-1.104-0.109
		l-1.986-0.77l-3.863-2.077l-2.54-1.972l-1.875-1.534c0,0-1.325-0.111-1.769-0.111c-0.439,0-2.096,0.222-2.096,0.222l-0.222,1.096
		l-1.546,0.111l-2.648-0.111l-1.876-1.974l-0.555-1.31l-0.55-1.207l-1.545-0.984l-1.988-0.33l-1.984,0.111l-3.975,2.736
		l-6.735,4.273l-6.069,2.952l-2.764,0.878l-1.765,0.763l-0.219-2.956c0,0-1.324-1.531-1.656-1.531c-0.33,0-2.098,0-2.098,0
		l-1.325,1.643l-1.877,0.656l-1.104,0.328l0.113,3.178l0.659,2.297l-0.107,2.52l-0.443,1.862l-1.987,1.093l-1.766-0.217
		l-1.877,0.873l-0.221,1.971l-0.222,3.287l1.107,1.531l0.218,1.861l0.221,1.971l-0.221,1.859l-1.656,1.207l-0.775,1.424l0.332,1.749
		l0.885,0.442l0.332,1.863L330.085,293l0.331,2.08c0,0-0.662,0.656-0.886,1.312c-0.22,0.656-2.095,2.408-2.095,2.408l-2.537,0.984
		l-2.1,1.973l-1.215,1.314l-1.434-1.64c0,0-1.767-1.206-2.32-1.206c-0.548,0-2.207,0-2.207,0h-3.311l-2.981-0.109l-1.765,0.328
		l-1.217,1.424l-1.765,0.654l-2.537,0.222l-2.319,0.434l-2.98,0.437l-2.207,0.114c0,0-1.324,0.106-1.657,0.439
		c-0.332,0.325-1.656,0.765-1.985,1.86c-0.333,1.09-3.203,4.376-3.203,4.376s-2.095,2.628-2.43,3.179
		C284.938,314.129,284.938,315.879,284.938,315.879z"/>
	<path fill="#7BCAD7" d="M199.389,289.895l0.736,3.357c0,0,1.619,2.045,1.768,2.631c0.145,0.586,0.145,2.918,0.145,2.918
		l-2.06,2.336l-0.294,3.797c0,0,0.734,2.92,0.587,3.354c-0.146,0.442-2.353,3.36-2.353,3.36l-2.062,2.335l-0.294,2.193l1.767,2.19
		l-1.326,2.625c0,0-0.733,1.458-0.881,2.044c-0.147,0.584,0.734,1.893,0.734,2.628c0,0.729,1.18,3.214,1.18,3.653
		c0,0.434,0.735,2.33,0.735,2.33v3.943l0.439,5.401v3.214l4.417,0.437l1.029,0.293h5.593l6.329-0.147l4.122,0.873l2.795,0.877
		l1.619,1.607l1.324,2.627l0.589,3.504v3.211l1.031,0.875l1.178,1.898l0.293,2.631l0.589,3.502l1.031,1.312l3.532-0.287l1.766-1.025
		l2.061-1.021l2.65,0.146l1.177,1.312l1.618,0.289l1.178-1.455l0.296-3.359l2.648-2.045l0.444-2.042l1.615-2.044l1.918-2.188
		l5.883-3.067l2.211-2.188l3.679-3.359l5.886-4.525c0,0,0.002-1.898,0.146-2.336c0.149-0.436,1.619-2.19,1.619-2.19l0.294-2.628
		l2.062-3.213l3.089-4.232l2.352-3.064l2.357-1.9l1.032-0.727v-8.615l-3.39-1.02l-4.557-1.463c0,0-4.859-2.482-5.596-3.064
		c-0.734-0.586-2.794-1.459-3.384-1.898c-0.587-0.434-2.942-0.58-3.68-0.58c-0.738,0-2.354,0.29-3.091-0.299
		c-0.737-0.578,0-4.668,0-4.668s-2.652-0.732-2.944-1.312c-0.294-0.586,0.297-1.312-0.589-1.752
		c-0.885-0.439-3.087-0.439-4.119-0.439c-1.031,0-3.533,0-3.533,0l-0.884-2.771l1.178-1.318l0.734-1.748l0.591-2.191l-1.179,0.439
		l-0.735,0.582l-2.5,1.025h-2.799c0,0-2.795,0.145-3.236,0.145c-0.443,0-3.239,0.289-3.239,0.289s-2.501,0-3.386,0
		c-0.884,0-2.208,0.15-3.09-0.434c-0.882-0.588-2.65-1.168-3.091-1.317c-0.441-0.146-3.386-2.042-3.386-2.042
		s-1.176-0.583-1.765-0.583s-3.09,0.437-3.533,0.437c-0.441,0-3.68,1.169-3.68,1.169l-1.913,1.459l-1.913,1.458l-1.915,1.898
		l-1.472,0.146c0,0-2.205-0.289-2.795-0.437C202.183,291.5,199.389,289.895,199.389,289.895z"/>
	<path fill="#8ED1DD" d="M153.175,182.013L191,182.596l1.028-2.48l1.327-3.65l0.291-3.649v-3.064l0.591-2.337l0.59-1.897
		l1.028,0.146l0.59,0.729l0.292,1.752l1.327,2.481l1.177,3.943l0.736,6.133l1.766,1.752l9.862,8.026l3.973,0.586l16.042,0.586
		l35.03,1.458l25.461,1.751l-0.147,1.312l-1.03,3.356l-3.529,9.784c0,0-0.444-0.293-0.296,4.235
		c0.147,4.523,0.147,14.014,0.147,14.014l0.882,3.793c0,0,0.147,4.232-1.618,6.57c-1.767,2.337-2.648,6.716-2.648,6.716
		l-1.323,8.175l-1.475,2.335l-3.091,1.605l-2.501,2.337l-2.061,2.918l-0.885,2.628l-1.766,1.023l-3.091,2.043l-2.5,2.188
		l-2.946,4.818l-2.647,3.799l-2.207,2.918l-1.914,2.191l-0.297,2.041l-0.146,2.921l1.03,1.604l-0.145,1.022v2.483h-4.713
		l-0.441-1.607l0.441-2.92l-0.441-1.604l-1.177-2.34l-2.207-0.146l-2.354,1.608l-1.327,1.169c0,0-2.058,0-2.942,0
		c-0.883,0-2.945-0.879-2.945-0.879l-1.764,0.296l-5.444,0.292l-3.534-1.461c0,0-0.588-0.583-2.502-1.898
		c-1.914-1.314-3.386-1.168-3.976-1.168c-0.587,0-3.676-0.293-5.15,0.293c-1.473,0.58-0.733,0.729-2.206,0.729
		s-3.239,1.166-3.682,1.462c-0.438,0.293-1.912,2.625-1.912,2.625l-0.883,1.608l-2.65-0.146h-1.029l-1.325-1.312l-3.093-1.901
		l-2.5-0.58l-2.795-1.903l-1.033-1.457l-0.733-4.964v-1.898l1.176-0.876l0.44-1.895v-1.608l-22.666-0.147l-0.438-4.232l-0.884-4.234
		l-0.734-1.022l-1.327-1.017l-0.734-1.898h2.499l0.442-3.064l-0.589-4.382l-1.176-1.751l-1.177-7.739l-1.472-1.168l1.766-1.605
		l6.623-9.637l0.148-9.048l-1.327-1.751l-0.737-2.483l0.442-1.896c0,0,0.886-2.777,0.441-3.357
		c-0.441-0.588-0.884-1.315-1.323-1.754c-0.443-0.436-3.827-1.312-3.827-1.312s-3.533-1.315-3.975-1.315
		c-0.44,0-10.006,0.146-10.006,0.146l0.294-5.838l-1.326-2.484l0.733-3.063L153.175,182.013z"/>
	<path fill="#42B3C6" d="M329.177,268.715c0,0,0.193-4.775-0.322-5.743s-3.485-1.354-3.485-1.354l-6.904,0.258l-0.709,2.711
		l-1.228,1.613l0.517,2.516h3.291h2.535l2.757,0.388L329.177,268.715z"/>
	<path fill="#8ED1DD" d="M344.068,249.607l-1.324-1.754l-1.032-1.31l-0.294-7.739l1.029-0.585l-0.146-4.526l-1.764-0.146
		l-2.648,0.58l-3.091,0.881l-3.093,0.729l-2.21,1.31l-3.09,0.732v1.605l-3.238-0.147l-1.032-0.58l-2.061-1.172l-2.5-0.287
		l-3.092,0.287l-1.766-0.287l-0.59-1.898l-0.439-2.629l-4.417,0.146l-1.913,1.166l-0.589,3.943l-3.09-0.879l-2.502-2.334
		l-2.505-0.437l-2.499-1.896l-2.648-1.607l-0.883,1.456c0,0-0.593,2.779-1.179,3.072c-0.588,0.288-0.734,3.064-1.325,4.23
		c-0.586,1.166-0.586,3.069-0.586,3.069l-0.739,3.062l-1.62,3.067l-1.325,5.694l-0.883,2.481l-2.649,2.044l-1.91,0.874l-2.209,3.068
		l-1.179,3.211l-0.441,1.461l-2.797,1.166l-2.502,0.879l-4.266,4.962l-1.028,3.064l-2.212,1.897l-2.205,1.17l-1.914,4.237
		l0.442,4.083l0.439,2.045v2.335l0.589,2.622l2.209,1.318l0.296,1.605l1.326,1.461c0,0,1.469,0.58,2.792,1.024
		c1.326,0.437,2.059,1.456,2.5,1.604c0.445,0.142,2.505,1.752,2.946,1.752c0.442,0,3.384,1.75,4.12,1.75s2.502,1.024,2.502,1.024
		l3.091,1.603l2.797,2.045l2.649-3.066l1.62-1.752l2.205-2.625c0,0,2.062-2.045,2.503-2.045c0.442,0,2.502-0.439,2.502-0.439
		l4.711-0.732l3.531,0.293l1.769-1.459c0,0,2.206-0.727,2.648-0.727c0.44,0,2.353-0.439,2.353-0.439l3.828,0.143h3.385l2.799,0.586
		l1.616,0.877l0.442-1.166l1.621-1.752l2.207-1.17l1.762-1.315v-1.312v-2.624l-0.583-1.023l-1.327-0.586l-0.295-1.751l0.59-1.605
		l1.615-1.755l1.77-1.455l-0.147-1.312l-1.177-1.757l-0.883-1.021l-0.591-1.897l0.148-2.335l0.397-1.572l0.54-1.422l-2.333,0.061
		l-2.727,0.438l-7.406-0.84l-1.783-4.924l1.523-2.006l0.977-4.5l9.277,0.455l0.161,0.021c1.806,0.235,4.128,0.836,4.942,2.363
		c0.485,0.912,0.672,3.046,0.561,6.32l0.875-0.092l1.914-0.146l-0.291-1.748v-0.875l-0.593-1.605v-4.092v-1.896l1.77-0.293
		l2.646-0.58v-1.459l0.593-1.757l1.91-0.146l1.766,0.732l1.621,1.315l1.325,0.143l0.293-0.875v-4.816L344.068,249.607z"/>
</g>
<rect x="518" y="8" fill="#42B3C6" width="8" height="48"/>
<rect x="518" y="56" fill="#55BBCC" width="8" height="48"/>
<rect x="518" y="104" fill="#68C2D1" width="8" height="48"/>
<rect x="518" y="152" fill="#7BCAD7" width="8" height="48"/>
<rect x="518" y="200" fill="#8ED1DD" width="8" height="48"/>
<rect x="518" y="248" fill="#A0D9E2" width="8" height="48"/>
<rect x="518" y="296" fill="#B3E1E8" width="8" height="48"/>
<rect x="518" y="344" fill="#C6E8EE" width="8" height="48"/>
<rect x="518" y="392" fill="#D9F0F4" width="8" height="48"/>
<rect x="518" y="440" fill="#ECF7F9" width="8" height="48"/>
<line fill="none" stroke="#000000" stroke-miterlimit="10" x1="514" y1="8" x2="530" y2="8"/>
<line fill="none" stroke="#000000" stroke-miterlimit="10" x1="514" y1="56" x2="530" y2="56"/>
<line fill="none" stroke="#000000" stroke-miterlimit="10" x1="514" y1="104" x2="530" y2="104"/>
<line fill="none" stroke="#000000" stroke-miterlimit="10" x1="514" y1="152" x2="530" y2="152"/>
<line fill="none" stroke="#000000" stroke-miterlimit="10" x1="514" y1="200" x2="530" y2="200"/>
<line fill="none" stroke="#000000" stroke-miterlimit="10" x1="514" y1="248" x2="530" y2="248"/>
<line fill="none" stroke="#000000" stroke-miterlimit="10" x1="514" y1="296" x2="530" y2="296"/>
<line fill="none" stroke="#000000" stroke-miterlimit="10" x1="514" y1="344" x2="530" y2="344"/>
<line fill="none" stroke="#000000" stroke-miterlimit="10" x1="514" y1="392" x2="530" y2="392"/>
<line fill="none" stroke="#000000" stroke-miterlimit="10" x1="514" y1="440" x2="530" y2="440"/>
<line fill="none" stroke="#000000" stroke-miterlimit="10" x1="514" y1="488" x2="530" y2="488"/>
</svg>
