<?xml version="1.0" encoding="utf-8"?>
<!-- Generator: Adobe Illustrator 16.0.0, SVG Export Plug-In . SVG Version: 6.00 Build 0)  -->
<!DOCTYPE svg PUBLIC "-//W3C//DTD SVG 1.1//EN" "http://www.w3.org/Graphics/SVG/1.1/DTD/svg11.dtd">
<svg version="1.1" id="Layer_1" xmlns="http://www.w3.org/2000/svg" xmlns:xlink="http://www.w3.org/1999/xlink" x="0px" y="0px"
	 width="648px" height="212px" viewBox="0 0 648 212" enable-background="new 0 0 648 212" xml:space="preserve">
<circle fill="#F0F0F0" cx="100" cy="100" r="80"/>
<path fill="#42B3C6" d="M180,100c0-44.182-35.817-80-80-80v80l51.379,61.318C168.874,146.643,180,124.621,180,100z"/>
<circle fill="#F0F0F0" cx="548" cy="100" r="80"/>
<path fill="#42B3C6" d="M468.9,112.02C474.699,150.498,507.903,180,548,180c44.183,0,80-35.818,80-80s-35.817-80-80-80v80
	L468.9,112.02z"/>
<circle fill="#C8C8B4" cx="324" cy="100" r="100"/>
<path fill="#8CD2BE" d="M324,0v100l98.748-15.831C415.159,36.465,373.841,0,324,0z"/>
<circle fill="#FFFFFF" cx="324" cy="100" r="80"/>
<text transform="matrix(1 0 0 1 292.5 130.5996)"><tspan x="0" y="0" fill="#C8C8B4" font-family="'UbuntuMono-Regular'" font-size="18">129.450</tspan><tspan x="-10.5" y="16" fill="#909090" font-family="'UbuntuMono-Regular'" font-size="12">não estudantes</tspan></text>
<text transform="matrix(1 0 0 1 297 66.5981)"><tspan x="0" y="0" fill="#8CD2BE" font-family="'UbuntuMono-Regular'" font-size="18">37.537</tspan><tspan x="-3" y="16" fill="#909090" font-family="'UbuntuMono-Regular'" font-size="12">estudantes</tspan></text>
<g>
	<path fill="#8CD2BE" d="M548,1c54.589,0,99,44.411,99,99s-44.411,99-99,99s-99-44.411-99-99S493.411,1,548,1 M548,0
		c-55.229,0-100,44.772-100,100s44.771,100,100,100s100-44.772,100-100S603.229,0,548,0L548,0z"/>
</g>
<circle fill="#FFFFFF" cx="548" cy="100" r="60"/>
<g>
	<text transform="matrix(1 0 0 1 525.5 90.5991)"><tspan x="0" y="0" fill="#42B3C6" font-family="'UbuntuMono-Regular'" font-size="18">72.6%</tspan><tspan x="-1.5" y="16" font-family="'UbuntuMono-Regular'" font-size="12">utilizam</tspan><tspan x="-1.5" y="32" font-family="'UbuntuMono-Regular'" font-size="12">internet</tspan></text>
</g>
<g>
	<path fill="#C8C8B4" d="M100,1c54.589,0,99,44.411,99,99s-44.411,99-99,99S1,154.589,1,100S45.411,1,100,1 M100,0
		C44.771,0,0,44.772,0,100s44.771,100,100,100s100-44.772,100-100S155.229,0,100,0L100,0z"/>
</g>
<circle fill="#FFFFFF" cx="100" cy="100" r="60"/>
<line fill="none" stroke="#C0C0C0" stroke-miterlimit="10" x1="284" y1="100.5" x2="364" y2="100.5"/>
<polyline fill="none" stroke="#8CD2BE" stroke-miterlimit="10" points="418.935,76.5 436,76.5 436,100.5 448,100.5 "/>
<line fill="none" stroke="#C8C8B4" stroke-miterlimit="10" x1="200" y1="100.5" x2="224" y2="100.5"/>
<circle fill="#8CD2BE" cx="448" cy="100" r="4"/>
<circle fill="#C8C8B4" cx="200" cy="100" r="4"/>
<g>
	<text transform="matrix(1 0 0 1 77.5 90.5991)"><tspan x="0" y="0" fill="#42B3C6" font-family="'UbuntuMono-Regular'" font-size="18">38.9%</tspan><tspan x="-1.5" y="16" font-family="'UbuntuMono-Regular'" font-size="12">utilizam</tspan><tspan x="-1.5" y="32" font-family="'UbuntuMono-Regular'" font-size="12">internet</tspan></text>
</g>
<g>
	<path fill="#FFFFFF" d="M513.5,211.5c-1.379,0-2.5-1.121-2.5-2.5v-18c0-1.379,1.121-2.5,2.5-2.5h69c1.379,0,2.5,1.121,2.5,2.5v18
		c0,1.379-1.121,2.5-2.5,2.5H513.5z"/>
	<path fill="#8CD2BE" d="M582.5,189c1.103,0,2,0.897,2,2v18c0,1.103-0.897,2-2,2h-69c-1.103,0-2-0.897-2-2v-18c0-1.103,0.897-2,2-2
		H582.5 M582.5,188h-69c-1.65,0-3,1.35-3,3v18c0,1.65,1.35,3,3,3h69c1.65,0,3-1.35,3-3v-18C585.5,189.35,584.15,188,582.5,188
		L582.5,188z"/>
</g>
<g>
	<text transform="matrix(1 0 0 1 518 203.0586)" font-family="'UbuntuMono-Regular'" font-size="12">estudantes</text>
</g>
<g>
	<path fill="#FFFFFF" d="M53,211.5c-1.378,0-2.5-1.121-2.5-2.5v-18c0-1.379,1.122-2.5,2.5-2.5h94c1.378,0,2.5,1.121,2.5,2.5v18
		c0,1.379-1.122,2.5-2.5,2.5H53z"/>
	<path fill="#C8C8B4" d="M147,189c1.103,0,2,0.897,2,2v18c0,1.103-0.897,2-2,2H53c-1.103,0-2-0.897-2-2v-18c0-1.103,0.897-2,2-2H147
		 M147,188H53c-1.65,0-3,1.35-3,3v18c0,1.65,1.35,3,3,3h94c1.65,0,3-1.35,3-3v-18C150,189.35,148.65,188,147,188L147,188z"/>
</g>
<g>
	<text transform="matrix(1 0 0 1 58 203.0586)" font-family="'UbuntuMono-Regular'" font-size="12">não-estudantes</text>
</g>
<rect fill="none" width="648" height="212"/>
</svg>
