<?xml version="1.0" encoding="utf-8"?>
<!-- Generator: Adobe Illustrator 16.0.0, SVG Export Plug-In . SVG Version: 6.00 Build 0)  -->
<!DOCTYPE svg PUBLIC "-//W3C//DTD SVG 1.1//EN" "http://www.w3.org/Graphics/SVG/1.1/DTD/svg11.dtd">
<svg version="1.1" id="Layer_1" xmlns="http://www.w3.org/2000/svg" xmlns:xlink="http://www.w3.org/1999/xlink" x="0px" y="0px"
	 width="648px" height="212px" viewBox="0 0 648 212" enable-background="new 0 0 648 212" xml:space="preserve">
<circle fill="#F0F0F0" cx="100" cy="100" r="80"/>
<path fill="#42B3C6" d="M180,100c0-44.182-35.817-80-80-80v80l51.379,61.318C168.874,146.643,180,124.621,180,100z"/>
<circle fill="#F0F0F0" cx="548" cy="100" r="80"/>
<path fill="#42B3C6" d="M468.9,112.02C474.699,150.498,507.903,180,548,180c44.183,0,80-35.818,80-80c0-44.182-35.817-80-80-80v80
	L468.9,112.02z"/>
<circle fill="#C8C8B4" cx="324" cy="100" r="100"/>
<path fill="#8CD2BE" d="M324,0v100l98.748-15.831C415.159,36.465,373.841,0,324,0z"/>
<circle fill="#FFFFFF" cx="324" cy="100" r="80"/>
<g enable-background="new    ">
	<path fill="#C8C8B4" d="M293.85,121.762c0.612-0.24,1.206-0.543,1.782-0.909c0.576-0.366,1.11-0.831,1.602-1.395h1.044v9.882h2.106
		v1.26h-5.994v-1.26h2.412v-7.812c-0.132,0.12-0.291,0.243-0.477,0.369c-0.187,0.126-0.39,0.249-0.612,0.369
		s-0.453,0.234-0.693,0.342c-0.24,0.108-0.474,0.198-0.702,0.271L293.85,121.762z"/>
	<path fill="#C8C8B4" d="M309.06,122.302c0,0.384-0.075,0.756-0.225,1.116c-0.15,0.359-0.348,0.714-0.594,1.062
		c-0.246,0.349-0.525,0.69-0.837,1.026s-0.63,0.666-0.954,0.99c-0.18,0.18-0.39,0.396-0.63,0.647s-0.468,0.51-0.684,0.774
		c-0.216,0.264-0.396,0.521-0.54,0.773s-0.216,0.468-0.216,0.648h5.13v1.26h-6.75c-0.012-0.06-0.018-0.123-0.018-0.189
		c0-0.065,0-0.128,0-0.188c0-0.504,0.083-0.972,0.252-1.404c0.168-0.432,0.384-0.84,0.648-1.224
		c0.264-0.384,0.561-0.747,0.891-1.089c0.33-0.342,0.657-0.675,0.981-0.999c0.264-0.264,0.519-0.522,0.765-0.774
		s0.462-0.504,0.648-0.756s0.336-0.513,0.45-0.783c0.114-0.27,0.171-0.549,0.171-0.837c0-0.324-0.051-0.6-0.153-0.828
		c-0.102-0.228-0.24-0.417-0.414-0.566c-0.174-0.15-0.375-0.262-0.603-0.333c-0.228-0.072-0.474-0.108-0.738-0.108
		c-0.312,0-0.597,0.042-0.855,0.126c-0.258,0.084-0.486,0.187-0.684,0.306c-0.198,0.12-0.369,0.237-0.513,0.352
		s-0.252,0.207-0.324,0.279l-0.738-1.044c0.096-0.108,0.24-0.24,0.432-0.396s0.423-0.303,0.693-0.441
		c0.27-0.138,0.573-0.255,0.909-0.351s0.696-0.144,1.08-0.144c1.164,0,2.025,0.267,2.583,0.801
		C308.781,120.541,309.06,121.306,309.06,122.302z"/>
	<path fill="#C8C8B4" d="M318.546,123.922c0,2.22-0.54,3.891-1.62,5.013c-1.08,1.122-2.706,1.688-4.878,1.701l-0.054-1.26
		c1.344,0,2.427-0.268,3.249-0.802c0.822-0.533,1.365-1.454,1.629-2.763c-0.288,0.132-0.606,0.237-0.954,0.315
		s-0.714,0.116-1.098,0.116c-0.636,0-1.17-0.093-1.602-0.278c-0.432-0.187-0.78-0.438-1.044-0.756
		c-0.264-0.318-0.456-0.682-0.576-1.09c-0.12-0.407-0.18-0.839-0.18-1.296c0-0.407,0.066-0.824,0.198-1.251
		c0.132-0.426,0.335-0.812,0.612-1.161c0.276-0.348,0.63-0.636,1.062-0.863c0.432-0.229,0.948-0.342,1.548-0.342
		c1.224,0,2.148,0.42,2.772,1.26S318.546,122.458,318.546,123.922z M314.982,125.02c0.384,0,0.741-0.036,1.071-0.108
		c0.33-0.071,0.65-0.173,0.963-0.306c0.012-0.12,0.018-0.233,0.018-0.342s0-0.222,0-0.342c0-0.469-0.033-0.912-0.099-1.332
		s-0.18-0.786-0.342-1.099c-0.162-0.312-0.384-0.561-0.666-0.747c-0.282-0.186-0.639-0.278-1.071-0.278
		c-0.36,0-0.66,0.075-0.9,0.225c-0.24,0.15-0.438,0.336-0.594,0.559c-0.156,0.222-0.267,0.471-0.333,0.747
		c-0.066,0.275-0.099,0.539-0.099,0.792c0,0.731,0.165,1.286,0.495,1.664C313.755,124.831,314.274,125.02,314.982,125.02z"/>
	<path fill="#C8C8B4" d="M325.332,129.447c0,0.36-0.12,0.679-0.359,0.954c-0.24,0.276-0.559,0.414-0.955,0.414
		c-0.408,0-0.732-0.138-0.972-0.414c-0.24-0.275-0.36-0.594-0.36-0.954c0-0.371,0.12-0.695,0.36-0.972s0.564-0.414,0.972-0.414
		c0.396,0,0.714,0.138,0.955,0.414C325.212,128.752,325.332,129.076,325.332,129.447z"/>
	<path fill="#C8C8B4" d="M329.148,126.748c0.203-0.48,0.482-1.032,0.836-1.656c0.354-0.624,0.754-1.27,1.197-1.936
		c0.444-0.666,0.918-1.319,1.422-1.962c0.504-0.642,1.014-1.221,1.53-1.736h1.44v7.073h1.314v1.225h-1.314v2.844h-1.44v-2.844
		h-4.985V126.748z M334.134,121.222c-0.323,0.348-0.651,0.732-0.981,1.152s-0.65,0.86-0.963,1.322
		c-0.312,0.463-0.603,0.934-0.873,1.413c-0.27,0.48-0.512,0.954-0.729,1.422h3.546V121.222z"/>
	<path fill="#C8C8B4" d="M340.848,123.76c1.608,0.06,2.778,0.414,3.51,1.062c0.732,0.648,1.099,1.519,1.099,2.61
		c0,0.492-0.078,0.948-0.233,1.368c-0.156,0.42-0.4,0.78-0.729,1.08c-0.331,0.3-0.751,0.534-1.261,0.702s-1.113,0.252-1.809,0.252
		c-0.287,0-0.573-0.021-0.855-0.063c-0.281-0.042-0.549-0.093-0.801-0.153c-0.252-0.06-0.474-0.122-0.666-0.188
		c-0.191-0.065-0.33-0.123-0.414-0.171l0.289-1.278c0.191,0.097,0.488,0.21,0.891,0.342c0.402,0.133,0.908,0.198,1.521,0.198
		c0.479,0,0.881-0.054,1.205-0.162c0.324-0.107,0.586-0.255,0.783-0.44c0.198-0.187,0.342-0.399,0.432-0.64
		c0.09-0.239,0.135-0.491,0.135-0.756c0-0.407-0.068-0.771-0.207-1.089c-0.137-0.317-0.377-0.585-0.719-0.801
		c-0.343-0.216-0.811-0.381-1.404-0.495s-1.342-0.171-2.241-0.171c0.071-0.528,0.129-1.023,0.171-1.485s0.078-0.912,0.107-1.35
		c0.03-0.438,0.055-0.873,0.072-1.306c0.019-0.432,0.039-0.888,0.063-1.367h5.364v1.26h-4.068c-0.012,0.168-0.027,0.387-0.045,0.657
		c-0.018,0.27-0.039,0.555-0.062,0.854c-0.025,0.3-0.049,0.588-0.072,0.864C340.878,123.37,340.859,123.592,340.848,123.76z"/>
	<path fill="#C8C8B4" d="M347.328,125.02c0-1.872,0.32-3.309,0.963-4.311c0.642-1.002,1.545-1.503,2.709-1.503
		c1.176,0,2.082,0.501,2.718,1.503s0.954,2.438,0.954,4.311s-0.318,3.31-0.954,4.312s-1.542,1.503-2.718,1.503
		c-1.164,0-2.067-0.501-2.709-1.503C347.648,128.329,347.328,126.892,347.328,125.02z M353.16,125.02
		c0-0.612-0.036-1.19-0.108-1.737c-0.071-0.546-0.192-1.022-0.36-1.431s-0.39-0.731-0.666-0.972c-0.275-0.24-0.617-0.36-1.025-0.36
		s-0.75,0.12-1.025,0.36c-0.277,0.24-0.498,0.563-0.666,0.972c-0.169,0.408-0.289,0.885-0.36,1.431
		c-0.072,0.547-0.108,1.125-0.108,1.737s0.036,1.191,0.108,1.737c0.071,0.546,0.191,1.023,0.36,1.431
		c0.168,0.408,0.389,0.732,0.666,0.972c0.275,0.24,0.617,0.36,1.025,0.36s0.75-0.12,1.025-0.36c0.276-0.239,0.498-0.563,0.666-0.972
		c0.168-0.407,0.289-0.885,0.36-1.431C353.124,126.211,353.16,125.632,353.16,125.02z M352.044,124.821
		c0,0.312-0.093,0.582-0.278,0.811c-0.188,0.228-0.43,0.342-0.729,0.342c-0.312,0-0.564-0.114-0.757-0.342
		c-0.191-0.229-0.287-0.498-0.287-0.811c0-0.312,0.096-0.588,0.287-0.828c0.192-0.239,0.444-0.359,0.757-0.359
		c0.3,0,0.542,0.12,0.729,0.359C351.951,124.233,352.044,124.51,352.044,124.821z"/>
</g>
<g enable-background="new    ">
	<path fill="#909090" d="M282.852,141.188c0.36-0.088,0.718-0.156,1.074-0.204s0.69-0.072,1.002-0.072
		c0.744,0,1.306,0.192,1.686,0.576c0.38,0.385,0.57,1,0.57,1.849v3.264H286.2v-3.084c0-0.36-0.032-0.652-0.096-0.876
		s-0.154-0.397-0.27-0.522c-0.116-0.123-0.256-0.21-0.42-0.258c-0.164-0.048-0.342-0.071-0.534-0.071c-0.16,0-0.33,0.01-0.51,0.029
		c-0.18,0.021-0.354,0.046-0.522,0.078v4.704h-0.996V141.188z"/>
	<path fill="#909090" d="M290.964,140.899c0.416,0,0.766,0.053,1.05,0.156c0.284,0.104,0.514,0.248,0.69,0.432
		c0.176,0.185,0.3,0.408,0.372,0.672c0.072,0.265,0.108,0.553,0.108,0.864v3.48c-0.232,0.04-0.538,0.088-0.918,0.144
		c-0.38,0.056-0.77,0.084-1.17,0.084c-0.304,0-0.6-0.026-0.888-0.078s-0.544-0.144-0.768-0.275s-0.404-0.314-0.54-0.546
		c-0.136-0.232-0.204-0.528-0.204-0.889c0-0.319,0.07-0.59,0.21-0.81c0.14-0.22,0.32-0.398,0.54-0.534
		c0.22-0.136,0.472-0.234,0.756-0.294c0.284-0.06,0.57-0.09,0.858-0.09c0.392,0,0.776,0.044,1.152,0.132v-0.276
		c0-0.168-0.018-0.33-0.054-0.485c-0.036-0.156-0.104-0.298-0.204-0.427c-0.1-0.128-0.236-0.229-0.408-0.306
		s-0.394-0.114-0.666-0.114c-0.344,0-0.644,0.024-0.9,0.072c-0.256,0.048-0.452,0.096-0.588,0.145l-0.12-0.816
		c0.136-0.064,0.362-0.12,0.678-0.168C290.266,140.924,290.604,140.899,290.964,140.899z M292.656,138.979
		c-0.024,0.088-0.066,0.188-0.126,0.3c-0.06,0.112-0.134,0.217-0.222,0.312c-0.088,0.096-0.192,0.178-0.312,0.246
		c-0.12,0.067-0.256,0.102-0.408,0.102c-0.104,0-0.226-0.027-0.366-0.084c-0.14-0.056-0.254-0.104-0.342-0.144
		c-0.208-0.112-0.376-0.168-0.504-0.168c-0.104,0-0.204,0.052-0.3,0.155c-0.096,0.104-0.168,0.213-0.216,0.324l-0.516-0.275
		c0.024-0.088,0.066-0.188,0.126-0.301c0.06-0.111,0.134-0.216,0.222-0.312s0.192-0.178,0.312-0.246s0.252-0.102,0.396-0.102
		c0.104,0,0.226,0.029,0.366,0.09c0.14,0.06,0.254,0.109,0.342,0.149c0.208,0.112,0.376,0.168,0.504,0.168
		c0.104,0,0.206-0.052,0.306-0.155c0.1-0.104,0.174-0.212,0.222-0.324L292.656,138.979z M291.06,145.892
		c0.248,0,0.47-0.008,0.666-0.024c0.196-0.016,0.358-0.035,0.486-0.06v-1.656c-0.128-0.04-0.282-0.071-0.462-0.096
		s-0.37-0.036-0.57-0.036c-0.184,0-0.364,0.014-0.54,0.042c-0.176,0.028-0.332,0.078-0.468,0.15
		c-0.136,0.071-0.248,0.166-0.336,0.281c-0.088,0.116-0.132,0.263-0.132,0.438c0,0.36,0.122,0.61,0.366,0.75
		S290.644,145.892,291.06,145.892z"/>
	<path fill="#909090" d="M299.52,143.815c0,0.44-0.062,0.838-0.186,1.194c-0.124,0.355-0.298,0.662-0.522,0.918
		c-0.224,0.256-0.492,0.454-0.804,0.594s-0.652,0.21-1.02,0.21c-0.36,0-0.694-0.07-1.002-0.21s-0.574-0.338-0.798-0.594
		s-0.398-0.562-0.522-0.918c-0.124-0.356-0.186-0.754-0.186-1.194c0-0.439,0.062-0.84,0.186-1.2
		c0.124-0.359,0.298-0.666,0.522-0.918s0.49-0.447,0.798-0.588c0.308-0.14,0.642-0.21,1.002-0.21c0.368,0,0.708,0.07,1.02,0.21
		c0.312,0.141,0.58,0.336,0.804,0.588c0.224,0.252,0.398,0.559,0.522,0.918C299.458,142.976,299.52,143.376,299.52,143.815z
		 M298.5,143.815c0-0.632-0.136-1.13-0.408-1.494c-0.272-0.363-0.64-0.546-1.104-0.546c-0.456,0-0.818,0.183-1.086,0.546
		c-0.268,0.364-0.402,0.862-0.402,1.494c0,0.624,0.134,1.118,0.402,1.482s0.63,0.546,1.086,0.546c0.464,0,0.832-0.182,1.104-0.546
		S298.5,144.439,298.5,143.815z"/>
	<path fill="#909090" d="M309.108,140.899c0.752,0,1.332,0.234,1.74,0.702c0.408,0.468,0.612,1.178,0.612,2.13v0.349h-3.984
		c0.04,0.575,0.23,1.014,0.57,1.313s0.818,0.45,1.434,0.45c0.352,0,0.652-0.028,0.9-0.084s0.436-0.116,0.564-0.18l0.132,0.84
		c-0.12,0.063-0.336,0.132-0.648,0.204c-0.312,0.071-0.665,0.107-1.056,0.107c-0.48,0-0.902-0.074-1.266-0.222
		c-0.364-0.148-0.666-0.35-0.906-0.606c-0.24-0.256-0.42-0.562-0.54-0.918c-0.12-0.355-0.18-0.741-0.18-1.158
		c0-0.495,0.076-0.928,0.228-1.296c0.152-0.367,0.352-0.672,0.6-0.912c0.248-0.239,0.528-0.42,0.84-0.539
		C308.46,140.96,308.78,140.899,309.108,140.899z M310.452,143.275c0-0.472-0.125-0.846-0.372-1.122
		c-0.248-0.275-0.576-0.414-0.984-0.414c-0.232,0-0.442,0.044-0.63,0.133c-0.188,0.088-0.35,0.203-0.486,0.348
		c-0.136,0.144-0.244,0.308-0.324,0.492c-0.08,0.184-0.132,0.372-0.156,0.563H310.452z"/>
	<path fill="#909090" d="M316.212,145.208c0-0.2-0.082-0.364-0.246-0.492s-0.368-0.24-0.612-0.336
		c-0.244-0.097-0.51-0.19-0.798-0.282s-0.554-0.206-0.798-0.342s-0.448-0.304-0.612-0.504s-0.246-0.46-0.246-0.78
		c0-0.448,0.182-0.822,0.546-1.122c0.364-0.3,0.934-0.45,1.71-0.45c0.304,0,0.618,0.022,0.942,0.066
		c0.324,0.044,0.602,0.102,0.834,0.174l-0.18,0.888c-0.064-0.031-0.152-0.065-0.264-0.102c-0.112-0.036-0.24-0.068-0.384-0.096
		c-0.144-0.028-0.298-0.051-0.462-0.066c-0.164-0.016-0.322-0.024-0.474-0.024c-0.864,0-1.296,0.236-1.296,0.708
		c0,0.168,0.082,0.311,0.246,0.427c0.164,0.115,0.37,0.222,0.618,0.317c0.248,0.097,0.516,0.194,0.804,0.294
		c0.288,0.101,0.556,0.223,0.804,0.366c0.248,0.145,0.454,0.318,0.618,0.522c0.164,0.203,0.246,0.462,0.246,0.773
		c0,0.504-0.196,0.895-0.588,1.17c-0.392,0.276-1.012,0.414-1.86,0.414c-0.384,0-0.736-0.032-1.056-0.096
		c-0.32-0.064-0.624-0.16-0.912-0.288l0.192-0.9c0.28,0.128,0.574,0.234,0.882,0.318c0.308,0.084,0.638,0.126,0.99,0.126
		C315.76,145.892,316.212,145.664,316.212,145.208z"/>
	<path fill="#909090" d="M320.916,141.031h2.352v0.828h-2.352v2.592c0,0.28,0.02,0.509,0.06,0.685s0.106,0.317,0.198,0.426
		c0.092,0.108,0.21,0.183,0.354,0.222c0.144,0.041,0.32,0.061,0.528,0.061c0.288,0,0.52-0.024,0.696-0.072s0.344-0.111,0.504-0.191
		l0.144,0.84c-0.112,0.048-0.29,0.111-0.534,0.191c-0.244,0.08-0.546,0.12-0.906,0.12c-0.416,0-0.756-0.048-1.02-0.144
		c-0.264-0.097-0.47-0.24-0.618-0.433c-0.148-0.191-0.25-0.43-0.306-0.714c-0.056-0.283-0.084-0.613-0.084-0.99v-2.592h-1.176
		v-0.828h1.176v-1.56l0.984-0.168V141.031z"/>
	<path fill="#909090" d="M329.148,146.443c-0.217,0.057-0.502,0.116-0.858,0.181c-0.356,0.063-0.774,0.096-1.254,0.096
		c-0.425,0-0.776-0.062-1.056-0.187c-0.281-0.123-0.509-0.3-0.685-0.527c-0.176-0.229-0.3-0.498-0.372-0.811
		c-0.072-0.312-0.107-0.655-0.107-1.031v-3.133h0.983v2.916c0,0.688,0.103,1.177,0.306,1.464c0.205,0.288,0.547,0.433,1.026,0.433
		c0.104,0,0.21-0.004,0.318-0.012s0.21-0.019,0.306-0.03s0.18-0.024,0.252-0.036s0.12-0.021,0.145-0.03v-4.704h0.996V146.443z"/>
	<path fill="#909090" d="M334.152,138.451l0.996-0.168v8.16c-0.217,0.064-0.492,0.128-0.828,0.192
		c-0.336,0.063-0.729,0.096-1.176,0.096c-0.4,0-0.765-0.068-1.093-0.204s-0.608-0.33-0.84-0.582s-0.412-0.558-0.54-0.918
		c-0.128-0.359-0.191-0.764-0.191-1.212c0-0.432,0.054-0.826,0.162-1.182c0.107-0.356,0.266-0.662,0.474-0.918
		s0.458-0.456,0.75-0.601c0.292-0.144,0.626-0.216,1.002-0.216c0.296,0,0.556,0.036,0.78,0.108c0.224,0.072,0.392,0.147,0.504,0.228
		V138.451z M334.152,142.208c-0.112-0.104-0.276-0.202-0.492-0.294c-0.217-0.093-0.44-0.139-0.672-0.139
		c-0.264,0-0.49,0.053-0.678,0.156c-0.188,0.104-0.343,0.246-0.463,0.426c-0.119,0.181-0.208,0.396-0.264,0.648
		c-0.057,0.252-0.084,0.521-0.084,0.81c0,0.648,0.152,1.148,0.456,1.5c0.304,0.353,0.7,0.528,1.188,0.528
		c0.248,0,0.457-0.012,0.629-0.036s0.299-0.048,0.379-0.072V142.208z"/>
	<path fill="#909090" d="M338.964,140.899c0.416,0,0.767,0.053,1.05,0.156c0.284,0.104,0.514,0.248,0.69,0.432
		c0.176,0.185,0.3,0.408,0.372,0.672c0.072,0.265,0.107,0.553,0.107,0.864v3.48c-0.232,0.04-0.537,0.088-0.918,0.144
		c-0.38,0.056-0.77,0.084-1.17,0.084c-0.304,0-0.6-0.026-0.888-0.078s-0.544-0.144-0.769-0.275
		c-0.224-0.132-0.403-0.314-0.539-0.546c-0.137-0.232-0.205-0.528-0.205-0.889c0-0.319,0.07-0.59,0.211-0.81
		c0.14-0.22,0.32-0.398,0.539-0.534c0.221-0.136,0.473-0.234,0.757-0.294s0.569-0.09,0.858-0.09c0.391,0,0.775,0.044,1.151,0.132
		v-0.276c0-0.168-0.019-0.33-0.054-0.485c-0.036-0.156-0.104-0.298-0.204-0.427c-0.101-0.128-0.236-0.229-0.408-0.306
		s-0.394-0.114-0.666-0.114c-0.344,0-0.644,0.024-0.899,0.072c-0.257,0.048-0.453,0.096-0.588,0.145l-0.121-0.816
		c0.137-0.064,0.362-0.12,0.679-0.168C338.266,140.924,338.604,140.899,338.964,140.899z M339.061,145.892
		c0.248,0,0.469-0.008,0.666-0.024c0.195-0.016,0.357-0.035,0.485-0.06v-1.656c-0.128-0.04-0.282-0.071-0.462-0.096
		s-0.37-0.036-0.57-0.036c-0.184,0-0.363,0.014-0.539,0.042c-0.177,0.028-0.332,0.078-0.469,0.15
		c-0.137,0.071-0.248,0.166-0.336,0.281c-0.088,0.116-0.132,0.263-0.132,0.438c0,0.36,0.122,0.61,0.366,0.75
		S338.645,145.892,339.061,145.892z"/>
	<path fill="#909090" d="M342.852,141.188c0.36-0.088,0.719-0.156,1.074-0.204s0.69-0.072,1.002-0.072
		c0.744,0,1.307,0.192,1.686,0.576c0.381,0.385,0.57,1,0.57,1.849v3.264H346.2v-3.084c0-0.36-0.032-0.652-0.097-0.876
		c-0.063-0.224-0.154-0.397-0.27-0.522c-0.116-0.123-0.256-0.21-0.42-0.258s-0.342-0.071-0.534-0.071c-0.16,0-0.33,0.01-0.51,0.029
		c-0.181,0.021-0.354,0.046-0.522,0.078v4.704h-0.996V141.188z"/>
	<path fill="#909090" d="M350.916,141.031h2.352v0.828h-2.352v2.592c0,0.28,0.02,0.509,0.061,0.685
		c0.039,0.176,0.105,0.317,0.197,0.426s0.21,0.183,0.354,0.222c0.145,0.041,0.32,0.061,0.529,0.061c0.287,0,0.52-0.024,0.695-0.072
		s0.344-0.111,0.504-0.191l0.145,0.84c-0.112,0.048-0.291,0.111-0.534,0.191c-0.244,0.08-0.546,0.12-0.906,0.12
		c-0.416,0-0.756-0.048-1.021-0.144c-0.264-0.097-0.47-0.24-0.617-0.433c-0.148-0.191-0.25-0.43-0.307-0.714
		c-0.056-0.283-0.084-0.613-0.084-0.99v-2.592h-1.176v-0.828h1.176v-1.56l0.984-0.168V141.031z"/>
	<path fill="#909090" d="M357.107,140.899c0.752,0,1.332,0.234,1.74,0.702s0.612,1.178,0.612,2.13v0.349h-3.983
		c0.039,0.575,0.229,1.014,0.569,1.313s0.817,0.45,1.435,0.45c0.352,0,0.651-0.028,0.899-0.084s0.437-0.116,0.563-0.18l0.133,0.84
		c-0.12,0.063-0.336,0.132-0.648,0.204c-0.312,0.071-0.664,0.107-1.056,0.107c-0.479,0-0.902-0.074-1.267-0.222
		c-0.363-0.148-0.666-0.35-0.905-0.606c-0.24-0.256-0.421-0.562-0.54-0.918c-0.12-0.355-0.18-0.741-0.18-1.158
		c0-0.495,0.076-0.928,0.228-1.296c0.151-0.367,0.353-0.672,0.601-0.912c0.247-0.239,0.527-0.42,0.84-0.539
		C356.46,140.96,356.779,140.899,357.107,140.899z M358.452,143.275c0-0.472-0.124-0.846-0.372-1.122
		c-0.248-0.275-0.576-0.414-0.984-0.414c-0.232,0-0.441,0.044-0.63,0.133c-0.188,0.088-0.351,0.203-0.485,0.348
		c-0.137,0.144-0.244,0.308-0.324,0.492c-0.08,0.184-0.133,0.372-0.156,0.563H358.452z"/>
	<path fill="#909090" d="M364.212,145.208c0-0.2-0.082-0.364-0.246-0.492s-0.368-0.24-0.612-0.336
		c-0.244-0.097-0.51-0.19-0.797-0.282c-0.289-0.092-0.555-0.206-0.799-0.342s-0.447-0.304-0.611-0.504s-0.246-0.46-0.246-0.78
		c0-0.448,0.182-0.822,0.545-1.122c0.365-0.3,0.935-0.45,1.711-0.45c0.304,0,0.617,0.022,0.941,0.066s0.602,0.102,0.834,0.174
		l-0.18,0.888c-0.064-0.031-0.152-0.065-0.264-0.102c-0.112-0.036-0.24-0.068-0.385-0.096c-0.144-0.028-0.298-0.051-0.461-0.066
		c-0.164-0.016-0.322-0.024-0.475-0.024c-0.863,0-1.296,0.236-1.296,0.708c0,0.168,0.082,0.311,0.246,0.427
		c0.163,0.115,0.37,0.222,0.618,0.317c0.248,0.097,0.516,0.194,0.804,0.294c0.288,0.101,0.556,0.223,0.804,0.366
		c0.248,0.145,0.454,0.318,0.618,0.522c0.164,0.203,0.246,0.462,0.246,0.773c0,0.504-0.196,0.895-0.588,1.17
		c-0.392,0.276-1.013,0.414-1.86,0.414c-0.384,0-0.736-0.032-1.056-0.096c-0.32-0.064-0.624-0.16-0.912-0.288l0.192-0.9
		c0.279,0.128,0.574,0.234,0.882,0.318s0.638,0.126,0.989,0.126C363.76,145.892,364.212,145.664,364.212,145.208z"/>
</g>
<g enable-background="new    ">
	<path fill="#8CD2BE" d="M300.816,65.518c0.948,0,1.623-0.188,2.025-0.567c0.402-0.378,0.603-0.885,0.603-1.521
		c0-0.408-0.084-0.75-0.252-1.026c-0.168-0.275-0.39-0.497-0.666-0.666c-0.276-0.168-0.594-0.288-0.954-0.359
		c-0.36-0.072-0.738-0.108-1.134-0.108h-0.378v-1.206h0.522c0.264,0,0.537-0.026,0.819-0.081c0.282-0.054,0.54-0.149,0.774-0.288
		c0.234-0.138,0.423-0.326,0.567-0.566s0.216-0.546,0.216-0.918c0-0.612-0.189-1.047-0.567-1.306
		c-0.378-0.258-0.819-0.387-1.323-0.387c-0.516,0-0.954,0.075-1.314,0.225c-0.36,0.15-0.66,0.304-0.9,0.459l-0.576-1.134
		c0.252-0.18,0.633-0.369,1.143-0.566c0.51-0.198,1.077-0.297,1.701-0.297c0.588,0,1.092,0.071,1.512,0.216
		c0.42,0.144,0.765,0.348,1.035,0.611c0.27,0.265,0.471,0.573,0.603,0.928c0.132,0.354,0.198,0.741,0.198,1.161
		c0,0.588-0.153,1.086-0.459,1.493c-0.306,0.408-0.699,0.721-1.179,0.937c0.576,0.168,1.074,0.495,1.494,0.98
		c0.42,0.486,0.63,1.132,0.63,1.936c0,0.479-0.081,0.927-0.243,1.341s-0.408,0.771-0.738,1.071c-0.33,0.3-0.756,0.534-1.278,0.702
		c-0.522,0.168-1.143,0.252-1.863,0.252c-0.276,0-0.561-0.021-0.855-0.063c-0.294-0.042-0.567-0.096-0.819-0.162
		c-0.252-0.065-0.477-0.132-0.675-0.198c-0.198-0.065-0.339-0.116-0.423-0.152l0.288-1.278c0.192,0.097,0.498,0.21,0.918,0.342
		C299.688,65.452,300.204,65.518,300.816,65.518z"/>
	<path fill="#8CD2BE" d="M308.79,66.598c0.06-0.852,0.213-1.755,0.459-2.709c0.246-0.954,0.543-1.878,0.891-2.772
		c0.348-0.894,0.731-1.722,1.152-2.483c0.42-0.762,0.834-1.389,1.242-1.881h-5.4v-1.296h7.056v1.241
		c-0.36,0.421-0.75,0.984-1.17,1.692c-0.42,0.708-0.819,1.503-1.197,2.385c-0.378,0.882-0.706,1.824-0.981,2.826
		s-0.45,2.001-0.522,2.997H308.79z"/>
	<path fill="#8CD2BE" d="M320.832,65.445c0,0.36-0.12,0.679-0.36,0.954c-0.24,0.276-0.558,0.414-0.954,0.414
		c-0.408,0-0.732-0.138-0.972-0.414c-0.24-0.275-0.36-0.594-0.36-0.954c0-0.371,0.12-0.695,0.36-0.972s0.564-0.414,0.972-0.414
		c0.396,0,0.714,0.138,0.954,0.414C320.712,64.75,320.832,65.074,320.832,65.445z"/>
	<path fill="#8CD2BE" d="M327.348,59.758c1.608,0.06,2.778,0.414,3.51,1.062c0.732,0.648,1.099,1.519,1.099,2.61
		c0,0.492-0.078,0.948-0.233,1.368c-0.156,0.42-0.4,0.78-0.729,1.08c-0.331,0.3-0.751,0.534-1.261,0.702s-1.113,0.252-1.809,0.252
		c-0.287,0-0.573-0.021-0.855-0.063c-0.281-0.042-0.549-0.093-0.801-0.153c-0.252-0.06-0.474-0.122-0.666-0.188
		c-0.191-0.065-0.33-0.123-0.414-0.171l0.289-1.278c0.191,0.097,0.488,0.21,0.891,0.342c0.402,0.133,0.908,0.198,1.521,0.198
		c0.479,0,0.881-0.054,1.205-0.162c0.324-0.107,0.586-0.255,0.783-0.44c0.198-0.187,0.342-0.399,0.432-0.64
		c0.09-0.239,0.135-0.491,0.135-0.756c0-0.407-0.068-0.771-0.207-1.089c-0.137-0.317-0.377-0.585-0.719-0.801
		c-0.343-0.216-0.811-0.381-1.404-0.495s-1.342-0.171-2.241-0.171c0.071-0.528,0.129-1.023,0.171-1.485s0.078-0.912,0.107-1.35
		c0.03-0.438,0.055-0.873,0.072-1.306c0.019-0.432,0.039-0.888,0.063-1.367h5.364v1.26h-4.068c-0.012,0.168-0.027,0.387-0.045,0.657
		c-0.018,0.27-0.039,0.555-0.062,0.854c-0.025,0.3-0.049,0.588-0.072,0.864C327.378,59.368,327.359,59.59,327.348,59.758z"/>
	<path fill="#8CD2BE" d="M336.816,65.518c0.947,0,1.623-0.188,2.024-0.567c0.401-0.378,0.603-0.885,0.603-1.521
		c0-0.408-0.084-0.75-0.252-1.026c-0.168-0.275-0.39-0.497-0.666-0.666c-0.275-0.168-0.594-0.288-0.953-0.359
		c-0.36-0.072-0.738-0.108-1.135-0.108h-0.377v-1.206h0.521c0.264,0,0.537-0.026,0.818-0.081c0.282-0.054,0.541-0.149,0.774-0.288
		c0.234-0.138,0.423-0.326,0.567-0.566s0.216-0.546,0.216-0.918c0-0.612-0.188-1.047-0.567-1.306
		c-0.377-0.258-0.818-0.387-1.322-0.387c-0.517,0-0.955,0.075-1.314,0.225c-0.359,0.15-0.66,0.304-0.9,0.459l-0.576-1.134
		c0.252-0.18,0.633-0.369,1.144-0.566c0.51-0.198,1.077-0.297,1.701-0.297c0.588,0,1.092,0.071,1.512,0.216
		c0.42,0.144,0.765,0.348,1.035,0.611c0.271,0.265,0.471,0.573,0.603,0.928c0.133,0.354,0.199,0.741,0.199,1.161
		c0,0.588-0.154,1.086-0.459,1.493c-0.307,0.408-0.699,0.721-1.18,0.937c0.576,0.168,1.074,0.495,1.494,0.98
		c0.42,0.486,0.63,1.132,0.63,1.936c0,0.479-0.081,0.927-0.243,1.341s-0.408,0.771-0.738,1.071s-0.756,0.534-1.277,0.702
		c-0.522,0.168-1.143,0.252-1.863,0.252c-0.276,0-0.561-0.021-0.855-0.063c-0.294-0.042-0.566-0.096-0.818-0.162
		c-0.252-0.065-0.477-0.132-0.676-0.198c-0.197-0.065-0.338-0.116-0.422-0.152l0.287-1.278c0.192,0.097,0.498,0.21,0.918,0.342
		C335.688,65.452,336.204,65.518,336.816,65.518z"/>
	<path fill="#8CD2BE" d="M344.79,66.598c0.06-0.852,0.213-1.755,0.459-2.709c0.245-0.954,0.543-1.878,0.892-2.772
		c0.348-0.894,0.73-1.722,1.151-2.483c0.42-0.762,0.834-1.389,1.242-1.881h-5.4v-1.296h7.056v1.241
		c-0.359,0.421-0.75,0.984-1.17,1.692s-0.818,1.503-1.196,2.385s-0.706,1.824-0.981,2.826s-0.449,2.001-0.521,2.997H344.79z"/>
</g>
<g enable-background="new    ">
	<path fill="#909090" d="M297.108,76.897c0.752,0,1.332,0.234,1.74,0.702c0.408,0.468,0.612,1.178,0.612,2.13v0.349h-3.984
		c0.04,0.575,0.23,1.014,0.57,1.313s0.818,0.45,1.434,0.45c0.352,0,0.652-0.028,0.9-0.084s0.436-0.116,0.564-0.18l0.132,0.84
		c-0.12,0.063-0.336,0.132-0.648,0.204c-0.312,0.071-0.665,0.107-1.056,0.107c-0.48,0-0.902-0.074-1.266-0.222
		c-0.364-0.148-0.666-0.35-0.906-0.606c-0.24-0.256-0.42-0.562-0.54-0.918c-0.12-0.355-0.18-0.741-0.18-1.158
		c0-0.495,0.076-0.928,0.228-1.296c0.152-0.367,0.352-0.672,0.6-0.912c0.248-0.239,0.528-0.42,0.84-0.539
		C296.46,76.958,296.78,76.897,297.108,76.897z M298.452,79.273c0-0.472-0.125-0.846-0.372-1.122
		c-0.248-0.275-0.576-0.414-0.984-0.414c-0.232,0-0.442,0.044-0.63,0.133c-0.188,0.088-0.35,0.203-0.486,0.348
		c-0.136,0.144-0.244,0.308-0.324,0.492c-0.08,0.184-0.132,0.372-0.156,0.563H298.452z"/>
	<path fill="#909090" d="M304.212,81.206c0-0.2-0.082-0.364-0.246-0.492s-0.368-0.24-0.612-0.336
		c-0.244-0.097-0.51-0.19-0.798-0.282s-0.554-0.206-0.798-0.342s-0.448-0.304-0.612-0.504s-0.246-0.46-0.246-0.78
		c0-0.448,0.182-0.822,0.546-1.122c0.364-0.3,0.934-0.45,1.71-0.45c0.304,0,0.618,0.022,0.942,0.066
		c0.324,0.044,0.602,0.102,0.834,0.174l-0.18,0.888c-0.064-0.031-0.152-0.065-0.264-0.102c-0.112-0.036-0.24-0.068-0.384-0.096
		c-0.144-0.028-0.298-0.051-0.462-0.066c-0.164-0.016-0.322-0.024-0.474-0.024c-0.864,0-1.296,0.236-1.296,0.708
		c0,0.168,0.082,0.311,0.246,0.427c0.164,0.115,0.37,0.222,0.618,0.317c0.248,0.097,0.516,0.194,0.804,0.294
		c0.288,0.101,0.556,0.223,0.804,0.366c0.248,0.145,0.454,0.318,0.618,0.522c0.164,0.203,0.246,0.462,0.246,0.773
		c0,0.504-0.196,0.895-0.588,1.17c-0.392,0.276-1.012,0.414-1.86,0.414c-0.384,0-0.736-0.032-1.056-0.096
		c-0.32-0.064-0.624-0.16-0.912-0.288l0.192-0.9c0.28,0.128,0.574,0.234,0.882,0.318c0.308,0.084,0.638,0.126,0.99,0.126
		C303.76,81.89,304.212,81.662,304.212,81.206z"/>
	<path fill="#909090" d="M308.916,77.029h2.352v0.828h-2.352v2.592c0,0.28,0.02,0.509,0.06,0.685s0.106,0.317,0.198,0.426
		c0.092,0.108,0.21,0.183,0.354,0.222c0.144,0.041,0.32,0.061,0.528,0.061c0.288,0,0.52-0.024,0.696-0.072s0.344-0.111,0.504-0.191
		l0.144,0.84c-0.112,0.048-0.29,0.111-0.534,0.191c-0.244,0.08-0.546,0.12-0.906,0.12c-0.416,0-0.756-0.048-1.02-0.144
		c-0.264-0.097-0.47-0.24-0.618-0.433c-0.148-0.191-0.25-0.43-0.306-0.714c-0.056-0.283-0.084-0.613-0.084-0.99v-2.592h-1.176
		v-0.828h1.176v-1.56l0.984-0.168V77.029z"/>
	<path fill="#909090" d="M317.148,82.441c-0.216,0.057-0.502,0.116-0.858,0.181c-0.356,0.063-0.774,0.096-1.254,0.096
		c-0.424,0-0.776-0.062-1.056-0.187c-0.28-0.123-0.508-0.3-0.684-0.527c-0.176-0.229-0.3-0.498-0.372-0.811
		c-0.072-0.312-0.108-0.655-0.108-1.031v-3.133h0.984v2.916c0,0.688,0.102,1.177,0.306,1.464c0.204,0.288,0.546,0.433,1.026,0.433
		c0.104,0,0.21-0.004,0.318-0.012c0.108-0.008,0.21-0.019,0.306-0.03c0.096-0.012,0.18-0.024,0.252-0.036
		c0.072-0.012,0.12-0.021,0.144-0.03v-4.704h0.996V82.441z"/>
	<path fill="#909090" d="M322.152,74.449l0.996-0.168v8.16c-0.216,0.064-0.492,0.128-0.828,0.192
		c-0.336,0.063-0.728,0.096-1.176,0.096c-0.4,0-0.764-0.068-1.092-0.204s-0.608-0.33-0.84-0.582s-0.412-0.558-0.54-0.918
		c-0.128-0.359-0.192-0.764-0.192-1.212c0-0.432,0.054-0.826,0.162-1.182c0.108-0.356,0.266-0.662,0.474-0.918
		c0.208-0.256,0.458-0.456,0.75-0.601c0.292-0.144,0.625-0.216,1.002-0.216c0.296,0,0.556,0.036,0.78,0.108s0.392,0.147,0.504,0.228
		V74.449z M322.152,78.206c-0.112-0.104-0.276-0.202-0.492-0.294c-0.216-0.093-0.44-0.139-0.672-0.139
		c-0.264,0-0.49,0.053-0.678,0.156c-0.188,0.104-0.342,0.246-0.462,0.426c-0.12,0.181-0.208,0.396-0.264,0.648
		c-0.056,0.252-0.084,0.521-0.084,0.81c0,0.648,0.152,1.148,0.456,1.5c0.304,0.353,0.7,0.528,1.188,0.528
		c0.248,0,0.458-0.012,0.63-0.036s0.298-0.048,0.378-0.072V78.206z"/>
	<path fill="#909090" d="M326.964,76.897c0.416,0,0.767,0.053,1.05,0.156c0.284,0.104,0.514,0.248,0.69,0.432
		c0.176,0.185,0.3,0.408,0.372,0.672c0.072,0.265,0.107,0.553,0.107,0.864v3.48c-0.232,0.04-0.537,0.088-0.918,0.144
		c-0.38,0.056-0.77,0.084-1.17,0.084c-0.304,0-0.6-0.026-0.888-0.078s-0.544-0.144-0.769-0.275
		c-0.224-0.132-0.403-0.314-0.539-0.546c-0.137-0.232-0.205-0.528-0.205-0.889c0-0.319,0.07-0.59,0.211-0.81
		c0.14-0.22,0.32-0.398,0.539-0.534c0.221-0.136,0.473-0.234,0.757-0.294s0.569-0.09,0.858-0.09c0.391,0,0.775,0.044,1.151,0.132
		v-0.276c0-0.168-0.019-0.33-0.054-0.485c-0.036-0.156-0.104-0.298-0.204-0.427c-0.101-0.128-0.236-0.229-0.408-0.306
		s-0.394-0.114-0.666-0.114c-0.344,0-0.644,0.024-0.899,0.072c-0.257,0.048-0.453,0.096-0.588,0.145l-0.121-0.816
		c0.137-0.064,0.362-0.12,0.679-0.168C326.266,76.922,326.604,76.897,326.964,76.897z M327.061,81.89
		c0.248,0,0.469-0.008,0.666-0.024c0.195-0.016,0.357-0.035,0.485-0.06v-1.656c-0.128-0.04-0.282-0.071-0.462-0.096
		s-0.37-0.036-0.57-0.036c-0.184,0-0.363,0.014-0.539,0.042c-0.177,0.028-0.332,0.078-0.469,0.15
		c-0.137,0.071-0.248,0.166-0.336,0.281c-0.088,0.116-0.132,0.263-0.132,0.438c0,0.36,0.122,0.61,0.366,0.75
		S326.645,81.89,327.061,81.89z"/>
	<path fill="#909090" d="M330.852,77.186c0.36-0.088,0.719-0.156,1.074-0.204s0.69-0.072,1.002-0.072
		c0.744,0,1.307,0.192,1.686,0.576c0.381,0.385,0.57,1,0.57,1.849v3.264H334.2v-3.084c0-0.36-0.032-0.652-0.097-0.876
		c-0.063-0.224-0.154-0.397-0.27-0.522c-0.116-0.123-0.256-0.21-0.42-0.258s-0.342-0.071-0.534-0.071c-0.16,0-0.33,0.01-0.51,0.029
		c-0.181,0.021-0.354,0.046-0.522,0.078v4.704h-0.996V77.186z"/>
	<path fill="#909090" d="M338.916,77.029h2.352v0.828h-2.352v2.592c0,0.28,0.02,0.509,0.061,0.685
		c0.039,0.176,0.105,0.317,0.197,0.426s0.21,0.183,0.354,0.222c0.145,0.041,0.32,0.061,0.529,0.061c0.287,0,0.52-0.024,0.695-0.072
		s0.344-0.111,0.504-0.191l0.145,0.84c-0.112,0.048-0.291,0.111-0.534,0.191c-0.244,0.08-0.546,0.12-0.906,0.12
		c-0.416,0-0.756-0.048-1.021-0.144c-0.264-0.097-0.47-0.24-0.617-0.433c-0.148-0.191-0.25-0.43-0.307-0.714
		c-0.056-0.283-0.084-0.613-0.084-0.99v-2.592h-1.176v-0.828h1.176v-1.56l0.984-0.168V77.029z"/>
	<path fill="#909090" d="M345.107,76.897c0.752,0,1.332,0.234,1.74,0.702s0.612,1.178,0.612,2.13v0.349h-3.983
		c0.039,0.575,0.229,1.014,0.569,1.313s0.817,0.45,1.435,0.45c0.352,0,0.651-0.028,0.899-0.084s0.437-0.116,0.563-0.18l0.133,0.84
		c-0.12,0.063-0.336,0.132-0.648,0.204c-0.312,0.071-0.664,0.107-1.056,0.107c-0.479,0-0.902-0.074-1.267-0.222
		c-0.363-0.148-0.666-0.35-0.905-0.606c-0.24-0.256-0.421-0.562-0.54-0.918c-0.12-0.355-0.18-0.741-0.18-1.158
		c0-0.495,0.076-0.928,0.228-1.296c0.151-0.367,0.353-0.672,0.601-0.912c0.247-0.239,0.527-0.42,0.84-0.539
		C344.46,76.958,344.779,76.897,345.107,76.897z M346.452,79.273c0-0.472-0.124-0.846-0.372-1.122
		c-0.248-0.275-0.576-0.414-0.984-0.414c-0.232,0-0.441,0.044-0.63,0.133c-0.188,0.088-0.351,0.203-0.485,0.348
		c-0.137,0.144-0.244,0.308-0.324,0.492c-0.08,0.184-0.133,0.372-0.156,0.563H346.452z"/>
	<path fill="#909090" d="M352.212,81.206c0-0.2-0.082-0.364-0.246-0.492s-0.368-0.24-0.612-0.336
		c-0.244-0.097-0.51-0.19-0.797-0.282c-0.289-0.092-0.555-0.206-0.799-0.342s-0.447-0.304-0.611-0.504s-0.246-0.46-0.246-0.78
		c0-0.448,0.182-0.822,0.545-1.122c0.365-0.3,0.935-0.45,1.711-0.45c0.304,0,0.617,0.022,0.941,0.066s0.602,0.102,0.834,0.174
		l-0.18,0.888c-0.064-0.031-0.152-0.065-0.264-0.102c-0.112-0.036-0.24-0.068-0.385-0.096c-0.144-0.028-0.298-0.051-0.461-0.066
		c-0.164-0.016-0.322-0.024-0.475-0.024c-0.863,0-1.296,0.236-1.296,0.708c0,0.168,0.082,0.311,0.246,0.427
		c0.163,0.115,0.37,0.222,0.618,0.317c0.248,0.097,0.516,0.194,0.804,0.294c0.288,0.101,0.556,0.223,0.804,0.366
		c0.248,0.145,0.454,0.318,0.618,0.522c0.164,0.203,0.246,0.462,0.246,0.773c0,0.504-0.196,0.895-0.588,1.17
		c-0.392,0.276-1.013,0.414-1.86,0.414c-0.384,0-0.736-0.032-1.056-0.096c-0.32-0.064-0.624-0.16-0.912-0.288l0.192-0.9
		c0.279,0.128,0.574,0.234,0.882,0.318s0.638,0.126,0.989,0.126C351.76,81.89,352.212,81.662,352.212,81.206z"/>
</g>
<g>
	<path fill="#8CD2BE" d="M548,1c54.589,0,99,44.411,99,99s-44.411,99-99,99s-99-44.411-99-99S493.411,1,548,1 M548,0
		c-55.229,0-100,44.772-100,100c0,55.229,44.771,100,100,100s100-44.771,100-100C648,44.772,603.229,0,548,0L548,0z"/>
</g>
<circle fill="#FFFFFF" cx="548" cy="100" r="60"/>
<g enable-background="new    ">
	<path fill="#42B3C6" d="M528.29,90.599c0.06-0.852,0.213-1.755,0.459-2.709c0.245-0.954,0.543-1.878,0.892-2.772
		c0.348-0.894,0.73-1.722,1.151-2.483c0.42-0.762,0.834-1.389,1.242-1.881h-5.4v-1.296h7.056v1.241
		c-0.359,0.421-0.75,0.984-1.17,1.692s-0.818,1.503-1.196,2.385s-0.706,1.824-0.981,2.826s-0.449,2.001-0.521,2.997H528.29z"/>
	<path fill="#42B3C6" d="M542.061,82.301c0,0.384-0.076,0.756-0.226,1.116c-0.15,0.359-0.349,0.714-0.594,1.062
		c-0.246,0.349-0.525,0.69-0.837,1.026c-0.312,0.336-0.631,0.666-0.954,0.99c-0.181,0.18-0.39,0.396-0.63,0.647
		s-0.469,0.51-0.684,0.774c-0.217,0.264-0.396,0.521-0.541,0.773c-0.144,0.252-0.216,0.468-0.216,0.648h5.13v1.26h-6.75
		c-0.012-0.06-0.018-0.123-0.018-0.189c0-0.065,0-0.128,0-0.188c0-0.504,0.084-0.972,0.252-1.404
		c0.168-0.432,0.384-0.84,0.648-1.224c0.264-0.384,0.561-0.747,0.891-1.089s0.656-0.675,0.98-0.999
		c0.264-0.264,0.52-0.522,0.766-0.774s0.461-0.504,0.647-0.756s0.336-0.513,0.45-0.783c0.113-0.27,0.171-0.549,0.171-0.837
		c0-0.324-0.052-0.6-0.153-0.828c-0.102-0.228-0.24-0.417-0.414-0.566c-0.174-0.15-0.375-0.262-0.603-0.333
		c-0.228-0.072-0.474-0.108-0.737-0.108c-0.312,0-0.598,0.042-0.855,0.126s-0.486,0.187-0.684,0.306
		c-0.199,0.12-0.369,0.237-0.514,0.352s-0.252,0.207-0.324,0.279l-0.738-1.044c0.097-0.108,0.24-0.24,0.433-0.396
		s0.423-0.303,0.692-0.441c0.271-0.138,0.574-0.255,0.91-0.351s0.695-0.144,1.08-0.144c1.163,0,2.024,0.267,2.582,0.801
		C541.781,80.54,542.061,81.305,542.061,82.301z"/>
	<path fill="#42B3C6" d="M549.332,89.446c0,0.36-0.12,0.679-0.359,0.954c-0.24,0.276-0.559,0.414-0.955,0.414
		c-0.408,0-0.731-0.138-0.972-0.414c-0.24-0.275-0.36-0.594-0.36-0.954c0-0.371,0.12-0.695,0.36-0.972s0.563-0.414,0.972-0.414
		c0.396,0,0.715,0.138,0.955,0.414C549.212,88.751,549.332,89.075,549.332,89.446z"/>
	<path fill="#42B3C6" d="M553.473,86.135c0-1.08,0.146-2.037,0.44-2.871s0.714-1.533,1.26-2.097
		c0.546-0.564,1.209-0.996,1.989-1.296c0.779-0.3,1.662-0.456,2.646-0.469l0.125,1.261c-0.636,0.012-1.215,0.08-1.736,0.207
		c-0.522,0.126-0.987,0.33-1.396,0.611c-0.407,0.282-0.75,0.646-1.026,1.089c-0.275,0.444-0.485,0.99-0.629,1.639
		c0.287-0.132,0.603-0.24,0.944-0.324c0.343-0.084,0.705-0.126,1.089-0.126c0.624,0,1.155,0.096,1.594,0.288
		c0.438,0.191,0.789,0.447,1.053,0.765c0.264,0.318,0.455,0.688,0.576,1.107c0.119,0.42,0.18,0.852,0.18,1.296
		c0,0.408-0.066,0.825-0.198,1.251s-0.336,0.816-0.612,1.17c-0.275,0.354-0.629,0.642-1.062,0.864
		c-0.433,0.222-0.948,0.333-1.548,0.333c-1.236,0-2.16-0.414-2.771-1.242C553.777,88.763,553.473,87.61,553.473,86.135z
		 M557.018,84.982c-0.384,0-0.734,0.036-1.053,0.108s-0.639,0.18-0.963,0.324c-0.012,0.12-0.018,0.236-0.018,0.351s0,0.237,0,0.369
		c0,0.468,0.033,0.909,0.099,1.323s0.181,0.78,0.342,1.098c0.162,0.318,0.381,0.57,0.657,0.756c0.275,0.187,0.63,0.279,1.062,0.279
		c0.359,0,0.659-0.075,0.899-0.226c0.239-0.149,0.438-0.339,0.595-0.566c0.155-0.228,0.266-0.483,0.332-0.766
		c0.066-0.281,0.1-0.549,0.1-0.801c0-0.731-0.166-1.29-0.495-1.674C558.244,85.175,557.727,84.982,557.018,84.982z"/>
	<path fill="#42B3C6" d="M561.824,82.013c0-0.912,0.174-1.604,0.521-2.079c0.348-0.474,0.828-0.711,1.44-0.711
		s1.092,0.237,1.44,0.711c0.348,0.475,0.521,1.167,0.521,2.079s-0.174,1.608-0.521,2.088c-0.349,0.48-0.828,0.72-1.44,0.72
		s-1.093-0.239-1.44-0.72C561.998,83.621,561.824,82.925,561.824,82.013z M563.21,90.599h-1.26l6.821-11.142h1.261L563.21,90.599z
		 M564.632,82.013c0-0.54-0.071-0.983-0.216-1.332c-0.145-0.348-0.354-0.522-0.63-0.522s-0.489,0.175-0.64,0.522
		c-0.15,0.349-0.225,0.792-0.225,1.332s0.074,0.984,0.225,1.332s0.363,0.521,0.64,0.521s0.485-0.174,0.63-0.521
		S564.632,82.553,564.632,82.013z M566.27,88.043c0-0.912,0.172-1.605,0.514-2.079c0.342-0.475,0.818-0.711,1.431-0.711
		s1.092,0.236,1.44,0.711c0.348,0.474,0.521,1.167,0.521,2.079s-0.174,1.604-0.521,2.079c-0.349,0.474-0.828,0.711-1.44,0.711
		s-1.089-0.237-1.431-0.711C566.441,89.647,566.27,88.955,566.27,88.043z M569.078,88.043c0-0.54-0.075-0.984-0.225-1.332
		c-0.15-0.349-0.363-0.522-0.64-0.522s-0.485,0.174-0.63,0.522c-0.145,0.348-0.216,0.792-0.216,1.332s0.071,0.983,0.216,1.332
		c0.145,0.348,0.354,0.521,0.63,0.521s0.489-0.174,0.64-0.521C569.003,89.026,569.078,88.583,569.078,88.043z"/>
</g>
<g enable-background="new    ">
	<path d="M529.148,106.442c-0.217,0.057-0.502,0.116-0.858,0.181c-0.356,0.063-0.774,0.096-1.254,0.096
		c-0.425,0-0.776-0.062-1.056-0.187c-0.281-0.123-0.509-0.3-0.685-0.527c-0.176-0.229-0.3-0.498-0.372-0.811
		c-0.072-0.312-0.107-0.655-0.107-1.031v-3.133h0.983v2.916c0,0.688,0.103,1.177,0.306,1.464c0.205,0.288,0.547,0.433,1.026,0.433
		c0.104,0,0.21-0.004,0.318-0.012s0.21-0.019,0.306-0.03s0.18-0.024,0.252-0.036s0.12-0.021,0.145-0.03v-4.704h0.996V106.442z"/>
	<path d="M532.916,101.03h2.352v0.828h-2.352v2.592c0,0.28,0.02,0.509,0.061,0.685c0.039,0.176,0.105,0.317,0.197,0.426
		s0.21,0.183,0.354,0.222c0.145,0.041,0.32,0.061,0.529,0.061c0.287,0,0.52-0.024,0.695-0.072s0.344-0.111,0.504-0.191l0.145,0.84
		c-0.112,0.048-0.291,0.111-0.534,0.191c-0.244,0.08-0.546,0.12-0.906,0.12c-0.416,0-0.756-0.048-1.021-0.144
		c-0.264-0.097-0.47-0.24-0.617-0.433c-0.148-0.191-0.25-0.43-0.307-0.714c-0.056-0.283-0.084-0.613-0.084-0.99v-2.592h-1.176
		v-0.828h1.176v-1.56l0.984-0.168V101.03z"/>
	<path d="M538.256,101.858h-1.607v-0.828h2.592v3.42c0,0.553,0.076,0.923,0.228,1.11c0.152,0.188,0.38,0.282,0.685,0.282
		c0.231,0,0.445-0.028,0.642-0.084s0.351-0.116,0.462-0.18l0.145,0.84c-0.049,0.023-0.116,0.054-0.205,0.09
		c-0.088,0.036-0.189,0.07-0.305,0.102c-0.117,0.032-0.244,0.061-0.385,0.084c-0.141,0.024-0.286,0.036-0.438,0.036
		c-0.353,0-0.645-0.048-0.877-0.144c-0.231-0.097-0.418-0.24-0.558-0.433c-0.14-0.191-0.237-0.43-0.294-0.714
		c-0.056-0.283-0.084-0.613-0.084-0.99V101.858z M538.508,100.167c-0.208,0-0.388-0.072-0.54-0.217
		c-0.151-0.144-0.228-0.34-0.228-0.588c0-0.247,0.076-0.443,0.228-0.588c0.152-0.144,0.332-0.216,0.54-0.216
		c0.217,0,0.398,0.072,0.547,0.216c0.147,0.145,0.221,0.341,0.221,0.588c0,0.248-0.073,0.444-0.221,0.588
		C538.906,100.095,538.725,100.167,538.508,100.167z"/>
	<path d="M546.057,106.73c-0.353,0-0.645-0.048-0.877-0.144c-0.232-0.097-0.416-0.24-0.552-0.433
		c-0.136-0.191-0.231-0.43-0.288-0.714c-0.056-0.283-0.084-0.613-0.084-0.99v-5.268h-1.607v-0.84h2.592v6.107
		c0,0.28,0.018,0.509,0.054,0.685s0.092,0.317,0.168,0.426s0.17,0.183,0.282,0.222c0.111,0.041,0.244,0.061,0.396,0.061
		c0.231,0,0.447-0.028,0.647-0.084s0.356-0.116,0.468-0.18l0.145,0.84c-0.049,0.023-0.116,0.054-0.205,0.09
		c-0.088,0.036-0.191,0.07-0.312,0.102c-0.12,0.032-0.25,0.061-0.39,0.084C546.354,106.719,546.208,106.73,546.057,106.73z"/>
	<path d="M550.256,101.858h-1.607v-0.828h2.592v3.42c0,0.553,0.076,0.923,0.228,1.11c0.152,0.188,0.38,0.282,0.685,0.282
		c0.231,0,0.445-0.028,0.642-0.084s0.351-0.116,0.462-0.18l0.145,0.84c-0.049,0.023-0.116,0.054-0.205,0.09
		c-0.088,0.036-0.189,0.07-0.305,0.102c-0.117,0.032-0.244,0.061-0.385,0.084c-0.141,0.024-0.286,0.036-0.438,0.036
		c-0.353,0-0.645-0.048-0.877-0.144c-0.231-0.097-0.418-0.24-0.558-0.433c-0.14-0.191-0.237-0.43-0.294-0.714
		c-0.056-0.283-0.084-0.613-0.084-0.99V101.858z M550.508,100.167c-0.208,0-0.388-0.072-0.54-0.217
		c-0.151-0.144-0.228-0.34-0.228-0.588c0-0.247,0.076-0.443,0.228-0.588c0.152-0.144,0.332-0.216,0.54-0.216
		c0.217,0,0.398,0.072,0.547,0.216c0.147,0.145,0.221,0.341,0.221,0.588c0,0.248-0.073,0.444-0.221,0.588
		C550.906,100.095,550.725,100.167,550.508,100.167z"/>
	<path d="M559.04,101.774c-0.144,0.168-0.341,0.402-0.588,0.702c-0.248,0.3-0.515,0.632-0.798,0.996
		c-0.284,0.364-0.566,0.746-0.846,1.146c-0.281,0.4-0.529,0.78-0.744,1.141h3.06v0.84h-4.248v-0.66
		c0.168-0.319,0.378-0.67,0.63-1.05s0.514-0.756,0.786-1.128s0.538-0.727,0.798-1.062s0.486-0.615,0.678-0.84h-2.735v-0.828h4.008
		V101.774z"/>
	<path d="M562.964,100.898c0.416,0,0.767,0.053,1.05,0.156c0.284,0.104,0.514,0.248,0.69,0.432c0.176,0.185,0.3,0.408,0.372,0.672
		c0.072,0.265,0.107,0.553,0.107,0.864v3.48c-0.232,0.04-0.537,0.088-0.918,0.144c-0.38,0.056-0.77,0.084-1.17,0.084
		c-0.304,0-0.6-0.026-0.888-0.078s-0.544-0.144-0.769-0.275c-0.224-0.132-0.403-0.314-0.539-0.546
		c-0.137-0.232-0.205-0.528-0.205-0.889c0-0.319,0.07-0.59,0.211-0.81c0.14-0.22,0.32-0.398,0.539-0.534
		c0.221-0.136,0.473-0.234,0.757-0.294s0.569-0.09,0.858-0.09c0.391,0,0.775,0.044,1.151,0.132v-0.276
		c0-0.168-0.019-0.33-0.054-0.485c-0.036-0.156-0.104-0.298-0.204-0.427c-0.101-0.128-0.236-0.229-0.408-0.306
		s-0.394-0.114-0.666-0.114c-0.344,0-0.644,0.024-0.899,0.072c-0.257,0.048-0.453,0.096-0.588,0.145l-0.121-0.816
		c0.137-0.064,0.362-0.12,0.679-0.168C562.266,100.923,562.604,100.898,562.964,100.898z M563.061,105.891
		c0.248,0,0.469-0.008,0.666-0.024c0.195-0.016,0.357-0.035,0.485-0.06v-1.656c-0.128-0.04-0.282-0.071-0.462-0.096
		s-0.37-0.036-0.57-0.036c-0.184,0-0.363,0.014-0.539,0.042c-0.177,0.028-0.332,0.078-0.469,0.15
		c-0.137,0.071-0.248,0.166-0.336,0.281c-0.088,0.116-0.132,0.263-0.132,0.438c0,0.36,0.122,0.61,0.366,0.75
		S562.645,105.891,563.061,105.891z"/>
	<path d="M566.492,101.187c0.48-0.184,0.932-0.276,1.355-0.276c0.232,0,0.45,0.034,0.654,0.103s0.378,0.174,0.521,0.318
		c0.344-0.28,0.713-0.421,1.104-0.421c0.192,0,0.374,0.036,0.546,0.108s0.324,0.18,0.456,0.324c0.132,0.144,0.238,0.324,0.318,0.54
		c0.079,0.216,0.12,0.468,0.12,0.756v3.96h-0.9v-3.984c0-0.288-0.064-0.508-0.191-0.659c-0.129-0.152-0.289-0.229-0.48-0.229
		c-0.096,0-0.196,0.024-0.301,0.072c-0.104,0.048-0.199,0.124-0.287,0.228c0.048,0.185,0.072,0.389,0.072,0.612v1.812h-0.9v-1.823
		c0-0.28-0.044-0.5-0.132-0.66c-0.089-0.16-0.261-0.24-0.517-0.24c-0.16,0-0.34,0.036-0.539,0.108v4.764h-0.9V101.187z"/>
</g>
<g enable-background="new    ">
	<path d="M526.256,117.858h-1.607v-0.828h2.592v3.42c0,0.553,0.076,0.923,0.228,1.11c0.152,0.188,0.38,0.282,0.685,0.282
		c0.231,0,0.445-0.028,0.642-0.084s0.351-0.116,0.462-0.18l0.145,0.84c-0.049,0.023-0.116,0.054-0.205,0.09
		c-0.088,0.036-0.189,0.07-0.305,0.102c-0.117,0.032-0.244,0.061-0.385,0.084c-0.141,0.024-0.286,0.036-0.438,0.036
		c-0.353,0-0.645-0.048-0.877-0.144c-0.231-0.097-0.418-0.24-0.558-0.433c-0.14-0.191-0.237-0.43-0.294-0.714
		c-0.056-0.283-0.084-0.613-0.084-0.99V117.858z M526.508,116.167c-0.208,0-0.388-0.072-0.54-0.217
		c-0.151-0.144-0.228-0.34-0.228-0.588c0-0.247,0.076-0.443,0.228-0.588c0.152-0.144,0.332-0.216,0.54-0.216
		c0.217,0,0.398,0.072,0.547,0.216c0.147,0.145,0.221,0.341,0.221,0.588c0,0.248-0.073,0.444-0.221,0.588
		C526.906,116.095,526.725,116.167,526.508,116.167z"/>
	<path d="M530.852,117.187c0.36-0.088,0.719-0.156,1.074-0.204s0.69-0.072,1.002-0.072c0.744,0,1.307,0.192,1.686,0.576
		c0.381,0.385,0.57,1,0.57,1.849v3.264H534.2v-3.084c0-0.36-0.032-0.652-0.097-0.876c-0.063-0.224-0.154-0.397-0.27-0.522
		c-0.116-0.123-0.256-0.21-0.42-0.258s-0.342-0.071-0.534-0.071c-0.16,0-0.33,0.01-0.51,0.029c-0.181,0.021-0.354,0.046-0.522,0.078
		v4.704h-0.996V117.187z"/>
	<path d="M538.916,117.03h2.352v0.828h-2.352v2.592c0,0.28,0.02,0.509,0.061,0.685c0.039,0.176,0.105,0.317,0.197,0.426
		s0.21,0.183,0.354,0.222c0.145,0.041,0.32,0.061,0.529,0.061c0.287,0,0.52-0.024,0.695-0.072s0.344-0.111,0.504-0.191l0.145,0.84
		c-0.112,0.048-0.291,0.111-0.534,0.191c-0.244,0.08-0.546,0.12-0.906,0.12c-0.416,0-0.756-0.048-1.021-0.144
		c-0.264-0.097-0.47-0.24-0.617-0.433c-0.148-0.191-0.25-0.43-0.307-0.714c-0.056-0.283-0.084-0.613-0.084-0.99v-2.592h-1.176
		v-0.828h1.176v-1.56l0.984-0.168V117.03z"/>
	<path d="M545.107,116.898c0.752,0,1.332,0.234,1.74,0.702s0.612,1.178,0.612,2.13v0.349h-3.983
		c0.039,0.575,0.229,1.014,0.569,1.313s0.817,0.45,1.435,0.45c0.352,0,0.651-0.028,0.899-0.084s0.437-0.116,0.563-0.18l0.133,0.84
		c-0.12,0.063-0.336,0.132-0.648,0.204c-0.312,0.071-0.664,0.107-1.056,0.107c-0.479,0-0.902-0.074-1.267-0.222
		c-0.363-0.148-0.666-0.35-0.905-0.606c-0.24-0.256-0.421-0.562-0.54-0.918c-0.12-0.355-0.18-0.741-0.18-1.158
		c0-0.495,0.076-0.928,0.228-1.296c0.151-0.367,0.353-0.672,0.601-0.912c0.247-0.239,0.527-0.42,0.84-0.539
		C544.46,116.959,544.779,116.898,545.107,116.898z M546.452,119.274c0-0.472-0.124-0.846-0.372-1.122
		c-0.248-0.275-0.576-0.414-0.984-0.414c-0.232,0-0.441,0.044-0.63,0.133c-0.188,0.088-0.351,0.203-0.485,0.348
		c-0.137,0.144-0.244,0.308-0.324,0.492c-0.08,0.184-0.133,0.372-0.156,0.563H546.452z"/>
	<path d="M549.284,122.599v-5.268c0.815-0.28,1.64-0.421,2.472-0.421c0.256,0,0.5,0.011,0.732,0.03
		c0.231,0.021,0.488,0.062,0.768,0.126l-0.18,0.876c-0.256-0.071-0.482-0.118-0.678-0.138c-0.197-0.02-0.41-0.03-0.643-0.03
		c-0.488,0-0.984,0.068-1.488,0.204v4.62H549.284z"/>
	<path d="M554.852,117.187c0.36-0.088,0.719-0.156,1.074-0.204s0.69-0.072,1.002-0.072c0.744,0,1.307,0.192,1.686,0.576
		c0.381,0.385,0.57,1,0.57,1.849v3.264H558.2v-3.084c0-0.36-0.032-0.652-0.097-0.876c-0.063-0.224-0.154-0.397-0.27-0.522
		c-0.116-0.123-0.256-0.21-0.42-0.258s-0.342-0.071-0.534-0.071c-0.16,0-0.33,0.01-0.51,0.029c-0.181,0.021-0.354,0.046-0.522,0.078
		v4.704h-0.996V117.187z"/>
	<path d="M563.107,116.898c0.752,0,1.332,0.234,1.74,0.702s0.612,1.178,0.612,2.13v0.349h-3.983
		c0.039,0.575,0.229,1.014,0.569,1.313s0.817,0.45,1.435,0.45c0.352,0,0.651-0.028,0.899-0.084s0.437-0.116,0.563-0.18l0.133,0.84
		c-0.12,0.063-0.336,0.132-0.648,0.204c-0.312,0.071-0.664,0.107-1.056,0.107c-0.479,0-0.902-0.074-1.267-0.222
		c-0.363-0.148-0.666-0.35-0.905-0.606c-0.24-0.256-0.421-0.562-0.54-0.918c-0.12-0.355-0.18-0.741-0.18-1.158
		c0-0.495,0.076-0.928,0.228-1.296c0.151-0.367,0.353-0.672,0.601-0.912c0.247-0.239,0.527-0.42,0.84-0.539
		C562.46,116.959,562.779,116.898,563.107,116.898z M564.452,119.274c0-0.472-0.124-0.846-0.372-1.122
		c-0.248-0.275-0.576-0.414-0.984-0.414c-0.232,0-0.441,0.044-0.63,0.133c-0.188,0.088-0.351,0.203-0.485,0.348
		c-0.137,0.144-0.244,0.308-0.324,0.492c-0.08,0.184-0.133,0.372-0.156,0.563H564.452z"/>
	<path d="M568.916,117.03h2.352v0.828h-2.352v2.592c0,0.28,0.02,0.509,0.061,0.685c0.039,0.176,0.105,0.317,0.197,0.426
		s0.21,0.183,0.354,0.222c0.145,0.041,0.32,0.061,0.529,0.061c0.287,0,0.52-0.024,0.695-0.072s0.344-0.111,0.504-0.191l0.145,0.84
		c-0.112,0.048-0.291,0.111-0.534,0.191c-0.244,0.08-0.546,0.12-0.906,0.12c-0.416,0-0.756-0.048-1.021-0.144
		c-0.264-0.097-0.47-0.24-0.617-0.433c-0.148-0.191-0.25-0.43-0.307-0.714c-0.056-0.283-0.084-0.613-0.084-0.99v-2.592h-1.176
		v-0.828h1.176v-1.56l0.984-0.168V117.03z"/>
</g>
<g>
	<path fill="#C8C8B4" d="M100,1c54.589,0,99,44.411,99,99s-44.411,99-99,99S1,154.589,1,100S45.411,1,100,1 M100,0
		C44.771,0,0,44.772,0,100c0,55.229,44.771,100,100,100s100-44.771,100-100C200,44.772,155.229,0,100,0L100,0z"/>
</g>
<circle fill="#FFFFFF" cx="100" cy="100" r="60"/>
<line fill="none" stroke="#C0C0C0" stroke-miterlimit="10" x1="284" y1="100.5" x2="364" y2="100.5"/>
<polyline fill="none" stroke="#8CD2BE" stroke-miterlimit="10" points="418.935,76.5 436,76.5 436,100.5 448,100.5 "/>
<line fill="none" stroke="#C8C8B4" stroke-miterlimit="10" x1="200" y1="100.5" x2="224" y2="100.5"/>
<circle fill="#8CD2BE" cx="448" cy="100" r="4"/>
<circle fill="#C8C8B4" cx="200" cy="100" r="4"/>
<g enable-background="new    ">
	<path fill="#42B3C6" d="M81.316,89.519c0.948,0,1.623-0.188,2.025-0.567c0.402-0.378,0.603-0.885,0.603-1.521
		c0-0.408-0.084-0.75-0.252-1.026c-0.168-0.275-0.39-0.497-0.666-0.666c-0.276-0.168-0.594-0.288-0.954-0.359
		c-0.36-0.072-0.738-0.108-1.134-0.108H80.56v-1.206h0.522c0.264,0,0.537-0.026,0.819-0.081c0.282-0.054,0.54-0.149,0.774-0.288
		c0.234-0.138,0.423-0.326,0.567-0.566s0.216-0.546,0.216-0.918c0-0.612-0.189-1.047-0.567-1.306
		c-0.378-0.258-0.819-0.387-1.323-0.387c-0.516,0-0.954,0.075-1.314,0.225c-0.36,0.15-0.66,0.304-0.9,0.459l-0.576-1.134
		c0.252-0.18,0.633-0.369,1.143-0.566c0.51-0.198,1.077-0.297,1.701-0.297c0.588,0,1.092,0.071,1.512,0.216
		c0.42,0.144,0.765,0.348,1.035,0.611c0.27,0.265,0.471,0.573,0.603,0.928c0.132,0.354,0.198,0.741,0.198,1.161
		c0,0.588-0.153,1.086-0.459,1.493c-0.306,0.408-0.699,0.721-1.179,0.937c0.576,0.168,1.074,0.495,1.494,0.98
		c0.42,0.486,0.63,1.132,0.63,1.936c0,0.479-0.081,0.927-0.243,1.341s-0.408,0.771-0.738,1.071c-0.33,0.3-0.756,0.534-1.278,0.702
		c-0.522,0.168-1.143,0.252-1.863,0.252c-0.276,0-0.561-0.021-0.855-0.063c-0.294-0.042-0.567-0.096-0.819-0.162
		c-0.252-0.065-0.477-0.132-0.675-0.198c-0.198-0.065-0.339-0.116-0.423-0.152l0.288-1.278c0.192,0.097,0.498,0.21,0.918,0.342
		C80.188,89.453,80.704,89.519,81.316,89.519z"/>
	<path fill="#42B3C6" d="M94.582,87.7c0,0.937-0.297,1.692-0.891,2.269c-0.594,0.576-1.497,0.864-2.709,0.864
		c-0.696,0-1.272-0.094-1.728-0.279s-0.819-0.426-1.089-0.72s-0.462-0.621-0.576-0.981s-0.171-0.714-0.171-1.062
		c0-0.637,0.174-1.2,0.522-1.692s0.762-0.888,1.242-1.188c-1.02-0.575-1.53-1.458-1.53-2.646c0-0.408,0.078-0.798,0.234-1.17
		c0.156-0.372,0.378-0.696,0.666-0.972c0.288-0.276,0.639-0.498,1.053-0.666s0.879-0.252,1.395-0.252c0.6,0,1.113,0.09,1.539,0.27
		c0.426,0.18,0.771,0.411,1.035,0.693c0.264,0.282,0.456,0.594,0.576,0.936s0.18,0.675,0.18,0.999c0,0.637-0.162,1.186-0.486,1.647
		c-0.324,0.462-0.696,0.831-1.116,1.106C93.964,85.444,94.582,86.393,94.582,87.7z M88.858,87.809c0,0.192,0.036,0.394,0.108,0.604
		c0.072,0.21,0.192,0.404,0.36,0.585c0.168,0.18,0.39,0.326,0.666,0.44c0.276,0.114,0.612,0.171,1.008,0.171
		c0.372,0,0.693-0.051,0.963-0.152c0.27-0.103,0.492-0.24,0.666-0.414s0.303-0.369,0.387-0.585c0.083-0.217,0.126-0.433,0.126-0.648
		c0-0.684-0.246-1.209-0.738-1.575c-0.492-0.365-1.17-0.645-2.034-0.837c-0.48,0.265-0.853,0.594-1.116,0.99
		C88.99,86.782,88.858,87.257,88.858,87.809z M92.89,82.103c0-0.155-0.036-0.333-0.108-0.531c-0.072-0.197-0.183-0.378-0.333-0.54
		c-0.15-0.161-0.345-0.3-0.585-0.414c-0.24-0.113-0.528-0.171-0.864-0.171c-0.348,0-0.639,0.055-0.873,0.162
		c-0.234,0.108-0.429,0.243-0.585,0.405c-0.156,0.162-0.267,0.342-0.333,0.54s-0.099,0.394-0.099,0.585
		c0,0.492,0.177,0.951,0.531,1.377c0.354,0.426,0.938,0.735,1.755,0.927c0.456-0.264,0.819-0.576,1.089-0.936
		C92.755,83.146,92.89,82.679,92.89,82.103z"/>
	<path fill="#42B3C6" d="M101.332,89.446c0,0.36-0.12,0.679-0.36,0.954c-0.24,0.276-0.558,0.414-0.954,0.414
		c-0.408,0-0.732-0.138-0.972-0.414c-0.24-0.275-0.36-0.594-0.36-0.954c0-0.371,0.12-0.695,0.36-0.972s0.564-0.414,0.972-0.414
		c0.396,0,0.714,0.138,0.954,0.414C101.212,88.751,101.332,89.075,101.332,89.446z"/>
	<path fill="#42B3C6" d="M112.546,83.921c0,2.22-0.54,3.891-1.62,5.013c-1.08,1.122-2.706,1.688-4.878,1.701l-0.054-1.26
		c1.344,0,2.427-0.268,3.249-0.802c0.822-0.533,1.365-1.454,1.629-2.763c-0.288,0.132-0.606,0.237-0.954,0.315
		s-0.714,0.116-1.098,0.116c-0.636,0-1.17-0.093-1.602-0.278c-0.432-0.187-0.78-0.438-1.044-0.756
		c-0.264-0.318-0.456-0.682-0.576-1.09c-0.12-0.407-0.18-0.839-0.18-1.296c0-0.407,0.066-0.824,0.198-1.251
		c0.132-0.426,0.335-0.812,0.612-1.161c0.276-0.348,0.63-0.636,1.062-0.863c0.432-0.229,0.948-0.342,1.548-0.342
		c1.224,0,2.148,0.42,2.772,1.26S112.546,82.457,112.546,83.921z M108.982,85.019c0.384,0,0.741-0.036,1.071-0.108
		c0.33-0.071,0.65-0.173,0.963-0.306c0.012-0.12,0.018-0.233,0.018-0.342s0-0.222,0-0.342c0-0.469-0.033-0.912-0.099-1.332
		s-0.18-0.786-0.342-1.099c-0.162-0.312-0.384-0.561-0.666-0.747c-0.282-0.186-0.639-0.278-1.071-0.278
		c-0.36,0-0.66,0.075-0.9,0.225c-0.24,0.15-0.438,0.336-0.594,0.559c-0.156,0.222-0.267,0.471-0.333,0.747
		c-0.066,0.275-0.099,0.539-0.099,0.792c0,0.731,0.165,1.286,0.495,1.664C107.755,84.83,108.274,85.019,108.982,85.019z"/>
	<path fill="#42B3C6" d="M113.824,82.013c0-0.912,0.174-1.604,0.522-2.079c0.348-0.474,0.828-0.711,1.44-0.711
		c0.612,0,1.092,0.237,1.44,0.711c0.348,0.475,0.522,1.167,0.522,2.079s-0.174,1.608-0.522,2.088c-0.348,0.48-0.828,0.72-1.44,0.72
		c-0.612,0-1.092-0.239-1.44-0.72C113.998,83.621,113.824,82.925,113.824,82.013z M115.21,90.599h-1.26l6.822-11.142h1.26
		L115.21,90.599z M116.632,82.013c0-0.54-0.072-0.983-0.216-1.332c-0.144-0.348-0.354-0.522-0.63-0.522
		c-0.276,0-0.489,0.175-0.639,0.522c-0.15,0.349-0.225,0.792-0.225,1.332s0.075,0.984,0.225,1.332
		c0.15,0.348,0.363,0.521,0.639,0.521c0.276,0,0.486-0.174,0.63-0.521S116.632,82.553,116.632,82.013z M118.27,88.043
		c0-0.912,0.171-1.605,0.513-2.079c0.342-0.475,0.819-0.711,1.431-0.711c0.612,0,1.092,0.236,1.44,0.711
		c0.348,0.474,0.522,1.167,0.522,2.079s-0.174,1.604-0.522,2.079c-0.348,0.474-0.828,0.711-1.44,0.711
		c-0.612,0-1.089-0.237-1.431-0.711C118.441,89.647,118.27,88.955,118.27,88.043z M121.078,88.043c0-0.54-0.075-0.984-0.225-1.332
		c-0.15-0.349-0.363-0.522-0.639-0.522s-0.486,0.174-0.63,0.522c-0.144,0.348-0.216,0.792-0.216,1.332s0.072,0.983,0.216,1.332
		c0.144,0.348,0.354,0.521,0.63,0.521s0.489-0.174,0.639-0.521C121.003,89.026,121.078,88.583,121.078,88.043z"/>
</g>
<g enable-background="new    ">
	<path d="M81.148,106.442c-0.216,0.057-0.502,0.116-0.858,0.181c-0.356,0.063-0.774,0.096-1.254,0.096
		c-0.424,0-0.776-0.062-1.056-0.187c-0.28-0.123-0.508-0.3-0.684-0.527c-0.176-0.229-0.3-0.498-0.372-0.811
		c-0.072-0.312-0.108-0.655-0.108-1.031v-3.133H77.8v2.916c0,0.688,0.102,1.177,0.306,1.464c0.204,0.288,0.546,0.433,1.026,0.433
		c0.104,0,0.21-0.004,0.318-0.012c0.108-0.008,0.21-0.019,0.306-0.03c0.096-0.012,0.18-0.024,0.252-0.036
		c0.072-0.012,0.12-0.021,0.144-0.03v-4.704h0.996V106.442z"/>
	<path d="M84.916,101.03h2.352v0.828h-2.352v2.592c0,0.28,0.02,0.509,0.06,0.685s0.106,0.317,0.198,0.426
		c0.092,0.108,0.21,0.183,0.354,0.222c0.144,0.041,0.32,0.061,0.528,0.061c0.288,0,0.52-0.024,0.696-0.072s0.344-0.111,0.504-0.191
		l0.144,0.84c-0.112,0.048-0.29,0.111-0.534,0.191c-0.244,0.08-0.546,0.12-0.906,0.12c-0.416,0-0.756-0.048-1.02-0.144
		c-0.264-0.097-0.47-0.24-0.618-0.433c-0.148-0.191-0.25-0.43-0.306-0.714c-0.056-0.283-0.084-0.613-0.084-0.99v-2.592h-1.176
		v-0.828h1.176v-1.56l0.984-0.168V101.03z"/>
	<path d="M90.256,101.858h-1.608v-0.828h2.592v3.42c0,0.553,0.076,0.923,0.228,1.11c0.152,0.188,0.38,0.282,0.684,0.282
		c0.232,0,0.446-0.028,0.642-0.084c0.196-0.056,0.35-0.116,0.462-0.18l0.144,0.84c-0.048,0.023-0.116,0.054-0.204,0.09
		c-0.088,0.036-0.19,0.07-0.306,0.102c-0.116,0.032-0.244,0.061-0.384,0.084c-0.14,0.024-0.286,0.036-0.438,0.036
		c-0.352,0-0.644-0.048-0.876-0.144c-0.232-0.097-0.418-0.24-0.558-0.433c-0.14-0.191-0.238-0.43-0.294-0.714
		c-0.056-0.283-0.084-0.613-0.084-0.99V101.858z M90.508,100.167c-0.208,0-0.388-0.072-0.54-0.217
		c-0.152-0.144-0.228-0.34-0.228-0.588c0-0.247,0.076-0.443,0.228-0.588c0.152-0.144,0.332-0.216,0.54-0.216
		c0.216,0,0.398,0.072,0.546,0.216c0.148,0.145,0.222,0.341,0.222,0.588c0,0.248-0.074,0.444-0.222,0.588
		C90.906,100.095,90.724,100.167,90.508,100.167z"/>
	<path d="M98.056,106.73c-0.352,0-0.644-0.048-0.876-0.144c-0.232-0.097-0.416-0.24-0.552-0.433
		c-0.136-0.191-0.232-0.43-0.288-0.714c-0.056-0.283-0.084-0.613-0.084-0.99v-5.268h-1.608v-0.84h2.592v6.107
		c0,0.28,0.018,0.509,0.054,0.685s0.092,0.317,0.168,0.426s0.17,0.183,0.282,0.222c0.112,0.041,0.244,0.061,0.396,0.061
		c0.232,0,0.448-0.028,0.648-0.084c0.2-0.056,0.356-0.116,0.468-0.18l0.144,0.84c-0.048,0.023-0.116,0.054-0.204,0.09
		c-0.088,0.036-0.192,0.07-0.312,0.102c-0.12,0.032-0.25,0.061-0.39,0.084C98.354,106.719,98.208,106.73,98.056,106.73z"/>
	<path d="M102.256,101.858h-1.608v-0.828h2.592v3.42c0,0.553,0.076,0.923,0.228,1.11c0.152,0.188,0.38,0.282,0.684,0.282
		c0.232,0,0.446-0.028,0.642-0.084c0.196-0.056,0.35-0.116,0.462-0.18l0.144,0.84c-0.048,0.023-0.116,0.054-0.204,0.09
		c-0.088,0.036-0.19,0.07-0.306,0.102c-0.116,0.032-0.244,0.061-0.384,0.084c-0.14,0.024-0.286,0.036-0.438,0.036
		c-0.352,0-0.644-0.048-0.876-0.144c-0.232-0.097-0.418-0.24-0.558-0.433c-0.14-0.191-0.238-0.43-0.294-0.714
		c-0.056-0.283-0.084-0.613-0.084-0.99V101.858z M102.508,100.167c-0.208,0-0.388-0.072-0.54-0.217
		c-0.152-0.144-0.228-0.34-0.228-0.588c0-0.247,0.076-0.443,0.228-0.588c0.152-0.144,0.332-0.216,0.54-0.216
		c0.216,0,0.398,0.072,0.546,0.216c0.148,0.145,0.222,0.341,0.222,0.588c0,0.248-0.074,0.444-0.222,0.588
		C102.906,100.095,102.724,100.167,102.508,100.167z"/>
	<path d="M111.04,101.774c-0.144,0.168-0.34,0.402-0.588,0.702c-0.248,0.3-0.514,0.632-0.798,0.996
		c-0.284,0.364-0.566,0.746-0.846,1.146c-0.28,0.4-0.528,0.78-0.744,1.141h3.06v0.84h-4.248v-0.66c0.168-0.319,0.378-0.67,0.63-1.05
		s0.514-0.756,0.786-1.128s0.538-0.727,0.798-1.062c0.26-0.336,0.486-0.615,0.678-0.84h-2.736v-0.828h4.008V101.774z"/>
	<path d="M114.964,100.898c0.416,0,0.766,0.053,1.05,0.156c0.284,0.104,0.514,0.248,0.69,0.432c0.176,0.185,0.3,0.408,0.372,0.672
		c0.072,0.265,0.108,0.553,0.108,0.864v3.48c-0.232,0.04-0.538,0.088-0.918,0.144c-0.38,0.056-0.77,0.084-1.17,0.084
		c-0.304,0-0.6-0.026-0.888-0.078s-0.544-0.144-0.768-0.275s-0.404-0.314-0.54-0.546c-0.136-0.232-0.204-0.528-0.204-0.889
		c0-0.319,0.07-0.59,0.21-0.81c0.14-0.22,0.32-0.398,0.54-0.534c0.22-0.136,0.472-0.234,0.756-0.294
		c0.284-0.06,0.57-0.09,0.858-0.09c0.392,0,0.776,0.044,1.152,0.132v-0.276c0-0.168-0.018-0.33-0.054-0.485
		c-0.036-0.156-0.104-0.298-0.204-0.427c-0.1-0.128-0.236-0.229-0.408-0.306s-0.394-0.114-0.666-0.114
		c-0.344,0-0.644,0.024-0.9,0.072c-0.256,0.048-0.452,0.096-0.588,0.145l-0.12-0.816c0.136-0.064,0.362-0.12,0.678-0.168
		C114.266,100.923,114.604,100.898,114.964,100.898z M115.06,105.891c0.248,0,0.47-0.008,0.666-0.024
		c0.196-0.016,0.358-0.035,0.486-0.06v-1.656c-0.128-0.04-0.282-0.071-0.462-0.096s-0.37-0.036-0.57-0.036
		c-0.184,0-0.364,0.014-0.54,0.042c-0.176,0.028-0.332,0.078-0.468,0.15c-0.136,0.071-0.248,0.166-0.336,0.281
		c-0.088,0.116-0.132,0.263-0.132,0.438c0,0.36,0.122,0.61,0.366,0.75S114.644,105.891,115.06,105.891z"/>
	<path d="M118.492,101.187c0.48-0.184,0.932-0.276,1.356-0.276c0.232,0,0.45,0.034,0.654,0.103s0.378,0.174,0.522,0.318
		c0.344-0.28,0.712-0.421,1.104-0.421c0.192,0,0.374,0.036,0.546,0.108s0.324,0.18,0.456,0.324c0.132,0.144,0.238,0.324,0.318,0.54
		c0.08,0.216,0.12,0.468,0.12,0.756v3.96h-0.9v-3.984c0-0.288-0.064-0.508-0.192-0.659c-0.128-0.152-0.288-0.229-0.48-0.229
		c-0.096,0-0.196,0.024-0.3,0.072s-0.2,0.124-0.288,0.228c0.048,0.185,0.072,0.389,0.072,0.612v1.812h-0.9v-1.823
		c0-0.28-0.044-0.5-0.132-0.66c-0.088-0.16-0.26-0.24-0.516-0.24c-0.16,0-0.34,0.036-0.54,0.108v4.764h-0.9V101.187z"/>
</g>
<g enable-background="new    ">
	<path d="M78.256,117.858h-1.608v-0.828h2.592v3.42c0,0.553,0.076,0.923,0.228,1.11c0.152,0.188,0.38,0.282,0.684,0.282
		c0.232,0,0.446-0.028,0.642-0.084c0.196-0.056,0.35-0.116,0.462-0.18l0.144,0.84c-0.048,0.023-0.116,0.054-0.204,0.09
		c-0.088,0.036-0.19,0.07-0.306,0.102c-0.116,0.032-0.244,0.061-0.384,0.084c-0.14,0.024-0.286,0.036-0.438,0.036
		c-0.352,0-0.644-0.048-0.876-0.144c-0.232-0.097-0.418-0.24-0.558-0.433c-0.14-0.191-0.238-0.43-0.294-0.714
		c-0.056-0.283-0.084-0.613-0.084-0.99V117.858z M78.508,116.167c-0.208,0-0.388-0.072-0.54-0.217
		c-0.152-0.144-0.228-0.34-0.228-0.588c0-0.247,0.076-0.443,0.228-0.588c0.152-0.144,0.332-0.216,0.54-0.216
		c0.216,0,0.398,0.072,0.546,0.216c0.148,0.145,0.222,0.341,0.222,0.588c0,0.248-0.074,0.444-0.222,0.588
		C78.906,116.095,78.724,116.167,78.508,116.167z"/>
	<path d="M82.852,117.187c0.36-0.088,0.718-0.156,1.074-0.204s0.69-0.072,1.002-0.072c0.744,0,1.306,0.192,1.686,0.576
		c0.38,0.385,0.57,1,0.57,1.849v3.264H86.2v-3.084c0-0.36-0.032-0.652-0.096-0.876s-0.154-0.397-0.27-0.522
		c-0.116-0.123-0.256-0.21-0.42-0.258c-0.164-0.048-0.342-0.071-0.534-0.071c-0.16,0-0.33,0.01-0.51,0.029
		c-0.18,0.021-0.354,0.046-0.522,0.078v4.704h-0.996V117.187z"/>
	<path d="M90.916,117.03h2.352v0.828h-2.352v2.592c0,0.28,0.02,0.509,0.06,0.685s0.106,0.317,0.198,0.426
		c0.092,0.108,0.21,0.183,0.354,0.222c0.144,0.041,0.32,0.061,0.528,0.061c0.288,0,0.52-0.024,0.696-0.072s0.344-0.111,0.504-0.191
		l0.144,0.84c-0.112,0.048-0.29,0.111-0.534,0.191c-0.244,0.08-0.546,0.12-0.906,0.12c-0.416,0-0.756-0.048-1.02-0.144
		c-0.264-0.097-0.47-0.24-0.618-0.433c-0.148-0.191-0.25-0.43-0.306-0.714c-0.056-0.283-0.084-0.613-0.084-0.99v-2.592h-1.176
		v-0.828h1.176v-1.56l0.984-0.168V117.03z"/>
	<path d="M97.108,116.898c0.752,0,1.332,0.234,1.74,0.702c0.408,0.468,0.612,1.178,0.612,2.13v0.349h-3.984
		c0.04,0.575,0.23,1.014,0.57,1.313s0.818,0.45,1.434,0.45c0.352,0,0.652-0.028,0.9-0.084s0.436-0.116,0.564-0.18l0.132,0.84
		c-0.12,0.063-0.336,0.132-0.648,0.204c-0.312,0.071-0.665,0.107-1.056,0.107c-0.48,0-0.902-0.074-1.266-0.222
		c-0.364-0.148-0.666-0.35-0.906-0.606c-0.24-0.256-0.42-0.562-0.54-0.918c-0.12-0.355-0.18-0.741-0.18-1.158
		c0-0.495,0.076-0.928,0.228-1.296c0.152-0.367,0.352-0.672,0.6-0.912c0.248-0.239,0.528-0.42,0.84-0.539
		C96.46,116.959,96.78,116.898,97.108,116.898z M98.452,119.274c0-0.472-0.125-0.846-0.372-1.122
		c-0.248-0.275-0.576-0.414-0.984-0.414c-0.232,0-0.442,0.044-0.63,0.133c-0.188,0.088-0.35,0.203-0.486,0.348
		c-0.136,0.144-0.244,0.308-0.324,0.492c-0.08,0.184-0.132,0.372-0.156,0.563H98.452z"/>
	<path d="M101.284,122.599v-5.268c0.816-0.28,1.64-0.421,2.472-0.421c0.256,0,0.5,0.011,0.732,0.03
		c0.232,0.021,0.488,0.062,0.768,0.126l-0.18,0.876c-0.256-0.071-0.482-0.118-0.678-0.138c-0.196-0.02-0.41-0.03-0.642-0.03
		c-0.488,0-0.984,0.068-1.488,0.204v4.62H101.284z"/>
	<path d="M106.852,117.187c0.36-0.088,0.718-0.156,1.074-0.204s0.69-0.072,1.002-0.072c0.744,0,1.306,0.192,1.686,0.576
		c0.38,0.385,0.57,1,0.57,1.849v3.264H110.2v-3.084c0-0.36-0.032-0.652-0.096-0.876s-0.154-0.397-0.27-0.522
		c-0.116-0.123-0.256-0.21-0.42-0.258c-0.164-0.048-0.342-0.071-0.534-0.071c-0.16,0-0.33,0.01-0.51,0.029
		c-0.18,0.021-0.354,0.046-0.522,0.078v4.704h-0.996V117.187z"/>
	<path d="M115.108,116.898c0.752,0,1.332,0.234,1.74,0.702c0.408,0.468,0.612,1.178,0.612,2.13v0.349h-3.984
		c0.04,0.575,0.23,1.014,0.57,1.313s0.818,0.45,1.434,0.45c0.352,0,0.652-0.028,0.9-0.084s0.436-0.116,0.564-0.18l0.132,0.84
		c-0.12,0.063-0.336,0.132-0.648,0.204c-0.312,0.071-0.665,0.107-1.056,0.107c-0.48,0-0.902-0.074-1.266-0.222
		c-0.364-0.148-0.666-0.35-0.906-0.606c-0.24-0.256-0.42-0.562-0.54-0.918c-0.12-0.355-0.18-0.741-0.18-1.158
		c0-0.495,0.076-0.928,0.228-1.296c0.152-0.367,0.352-0.672,0.6-0.912c0.248-0.239,0.528-0.42,0.84-0.539
		C114.46,116.959,114.78,116.898,115.108,116.898z M116.452,119.274c0-0.472-0.125-0.846-0.372-1.122
		c-0.248-0.275-0.576-0.414-0.984-0.414c-0.232,0-0.442,0.044-0.63,0.133c-0.188,0.088-0.35,0.203-0.486,0.348
		c-0.136,0.144-0.244,0.308-0.324,0.492c-0.08,0.184-0.132,0.372-0.156,0.563H116.452z"/>
	<path d="M120.916,117.03h2.352v0.828h-2.352v2.592c0,0.28,0.02,0.509,0.06,0.685s0.106,0.317,0.198,0.426
		c0.092,0.108,0.21,0.183,0.354,0.222c0.144,0.041,0.32,0.061,0.528,0.061c0.288,0,0.52-0.024,0.696-0.072s0.344-0.111,0.504-0.191
		l0.144,0.84c-0.112,0.048-0.29,0.111-0.534,0.191c-0.244,0.08-0.546,0.12-0.906,0.12c-0.416,0-0.756-0.048-1.02-0.144
		c-0.264-0.097-0.47-0.24-0.618-0.433c-0.148-0.191-0.25-0.43-0.306-0.714c-0.056-0.283-0.084-0.613-0.084-0.99v-2.592h-1.176
		v-0.828h1.176v-1.56l0.984-0.168V117.03z"/>
</g>
<g>
	<path fill="#FFFFFF" d="M513.5,211.5c-1.379,0-2.5-1.121-2.5-2.5v-18c0-1.379,1.121-2.5,2.5-2.5h69c1.379,0,2.5,1.121,2.5,2.5v18
		c0,1.379-1.121,2.5-2.5,2.5H513.5z"/>
	<path fill="#8CD2BE" d="M582.5,189c1.104,0,2,0.896,2,2v18c0,1.104-0.896,2-2,2h-69c-1.104,0-2-0.896-2-2v-18c0-1.104,0.896-2,2-2
		H582.5 M582.5,188h-69c-1.65,0-3,1.35-3,3v18c0,1.65,1.35,3,3,3h69c1.65,0,3-1.35,3-3v-18C585.5,189.35,584.15,188,582.5,188
		L582.5,188z"/>
</g>
<g enable-background="new    ">
	<path d="M521.107,197.358c0.752,0,1.332,0.234,1.74,0.702s0.612,1.178,0.612,2.13v0.349h-3.983
		c0.039,0.575,0.229,1.014,0.569,1.313s0.817,0.45,1.435,0.45c0.352,0,0.651-0.028,0.899-0.084s0.437-0.116,0.563-0.18l0.133,0.84
		c-0.12,0.063-0.336,0.132-0.648,0.204c-0.312,0.071-0.664,0.107-1.056,0.107c-0.479,0-0.902-0.074-1.267-0.222
		c-0.363-0.148-0.666-0.35-0.905-0.606c-0.24-0.256-0.421-0.562-0.54-0.918c-0.12-0.355-0.18-0.741-0.18-1.158
		c0-0.495,0.076-0.928,0.228-1.296c0.151-0.367,0.353-0.672,0.601-0.912c0.247-0.239,0.527-0.42,0.84-0.539
		C520.46,197.419,520.779,197.358,521.107,197.358z M522.452,199.734c0-0.472-0.124-0.846-0.372-1.122
		c-0.248-0.275-0.576-0.414-0.984-0.414c-0.232,0-0.441,0.044-0.63,0.133c-0.188,0.088-0.351,0.203-0.485,0.348
		c-0.137,0.144-0.244,0.308-0.324,0.492c-0.08,0.184-0.133,0.372-0.156,0.563H522.452z"/>
	<path d="M528.212,201.667c0-0.2-0.082-0.364-0.246-0.492s-0.368-0.24-0.612-0.336c-0.244-0.097-0.51-0.19-0.797-0.282
		c-0.289-0.092-0.555-0.206-0.799-0.342s-0.447-0.304-0.611-0.504s-0.246-0.46-0.246-0.78c0-0.448,0.182-0.822,0.545-1.122
		c0.365-0.3,0.935-0.45,1.711-0.45c0.304,0,0.617,0.022,0.941,0.066s0.602,0.102,0.834,0.174l-0.18,0.888
		c-0.064-0.031-0.152-0.065-0.264-0.102c-0.112-0.036-0.24-0.068-0.385-0.096c-0.144-0.028-0.298-0.051-0.461-0.066
		c-0.164-0.016-0.322-0.024-0.475-0.024c-0.863,0-1.296,0.236-1.296,0.708c0,0.168,0.082,0.311,0.246,0.427
		c0.163,0.115,0.37,0.222,0.618,0.317c0.248,0.097,0.516,0.194,0.804,0.294c0.288,0.101,0.556,0.223,0.804,0.366
		c0.248,0.145,0.454,0.318,0.618,0.522c0.164,0.203,0.246,0.462,0.246,0.773c0,0.504-0.196,0.895-0.588,1.17
		c-0.392,0.276-1.013,0.414-1.86,0.414c-0.384,0-0.736-0.032-1.056-0.096c-0.32-0.064-0.624-0.16-0.912-0.288l0.192-0.9
		c0.279,0.128,0.574,0.234,0.882,0.318s0.638,0.126,0.989,0.126C527.76,202.351,528.212,202.123,528.212,201.667z"/>
	<path d="M532.916,197.49h2.352v0.828h-2.352v2.592c0,0.28,0.02,0.509,0.061,0.685c0.039,0.176,0.105,0.317,0.197,0.426
		s0.21,0.183,0.354,0.222c0.145,0.041,0.32,0.061,0.529,0.061c0.287,0,0.52-0.024,0.695-0.072s0.344-0.111,0.504-0.191l0.145,0.84
		c-0.112,0.048-0.291,0.111-0.534,0.191c-0.244,0.08-0.546,0.12-0.906,0.12c-0.416,0-0.756-0.048-1.021-0.144
		c-0.264-0.097-0.47-0.24-0.617-0.433c-0.148-0.191-0.25-0.43-0.307-0.714c-0.056-0.283-0.084-0.613-0.084-0.99v-2.592h-1.176
		v-0.828h1.176v-1.56l0.984-0.168V197.49z"/>
	<path d="M541.148,202.902c-0.217,0.057-0.502,0.116-0.858,0.181c-0.356,0.063-0.774,0.096-1.254,0.096
		c-0.425,0-0.776-0.062-1.056-0.187c-0.281-0.123-0.509-0.3-0.685-0.527c-0.176-0.229-0.3-0.498-0.372-0.811
		c-0.072-0.312-0.107-0.655-0.107-1.031v-3.133h0.983v2.916c0,0.688,0.103,1.177,0.306,1.464c0.205,0.288,0.547,0.433,1.026,0.433
		c0.104,0,0.21-0.004,0.318-0.012s0.21-0.019,0.306-0.03s0.18-0.024,0.252-0.036s0.12-0.021,0.145-0.03v-4.704h0.996V202.902z"/>
	<path d="M546.152,194.91l0.996-0.168v8.16c-0.217,0.064-0.492,0.128-0.828,0.192c-0.336,0.063-0.729,0.096-1.176,0.096
		c-0.4,0-0.765-0.068-1.093-0.204s-0.608-0.33-0.84-0.582s-0.412-0.558-0.54-0.918c-0.128-0.359-0.191-0.764-0.191-1.212
		c0-0.432,0.054-0.826,0.162-1.182c0.107-0.356,0.266-0.662,0.474-0.918s0.458-0.456,0.75-0.601
		c0.292-0.144,0.626-0.216,1.002-0.216c0.296,0,0.556,0.036,0.78,0.108c0.224,0.072,0.392,0.147,0.504,0.228V194.91z
		 M546.152,198.667c-0.112-0.104-0.276-0.202-0.492-0.294c-0.217-0.093-0.44-0.139-0.672-0.139c-0.264,0-0.49,0.053-0.678,0.156
		c-0.188,0.104-0.343,0.246-0.463,0.426c-0.119,0.181-0.208,0.396-0.264,0.648c-0.057,0.252-0.084,0.521-0.084,0.81
		c0,0.648,0.152,1.148,0.456,1.5c0.304,0.353,0.7,0.528,1.188,0.528c0.248,0,0.457-0.012,0.629-0.036s0.299-0.048,0.379-0.072
		V198.667z"/>
	<path d="M550.964,197.358c0.416,0,0.767,0.053,1.05,0.156c0.284,0.104,0.514,0.248,0.69,0.432c0.176,0.185,0.3,0.408,0.372,0.672
		c0.072,0.265,0.107,0.553,0.107,0.864v3.48c-0.232,0.04-0.537,0.088-0.918,0.144c-0.38,0.056-0.77,0.084-1.17,0.084
		c-0.304,0-0.6-0.026-0.888-0.078s-0.544-0.144-0.769-0.275c-0.224-0.132-0.403-0.314-0.539-0.546
		c-0.137-0.232-0.205-0.528-0.205-0.889c0-0.319,0.07-0.59,0.211-0.81c0.14-0.22,0.32-0.398,0.539-0.534
		c0.221-0.136,0.473-0.234,0.757-0.294s0.569-0.09,0.858-0.09c0.391,0,0.775,0.044,1.151,0.132v-0.276
		c0-0.168-0.019-0.33-0.054-0.485c-0.036-0.156-0.104-0.298-0.204-0.427c-0.101-0.128-0.236-0.229-0.408-0.306
		s-0.394-0.114-0.666-0.114c-0.344,0-0.644,0.024-0.899,0.072c-0.257,0.048-0.453,0.096-0.588,0.145l-0.121-0.816
		c0.137-0.064,0.362-0.12,0.679-0.168C550.266,197.383,550.604,197.358,550.964,197.358z M551.061,202.351
		c0.248,0,0.469-0.008,0.666-0.024c0.195-0.016,0.357-0.035,0.485-0.06v-1.656c-0.128-0.04-0.282-0.071-0.462-0.096
		s-0.37-0.036-0.57-0.036c-0.184,0-0.363,0.014-0.539,0.042c-0.177,0.028-0.332,0.078-0.469,0.15
		c-0.137,0.071-0.248,0.166-0.336,0.281c-0.088,0.116-0.132,0.263-0.132,0.438c0,0.36,0.122,0.61,0.366,0.75
		S550.645,202.351,551.061,202.351z"/>
	<path d="M554.852,197.646c0.36-0.088,0.719-0.156,1.074-0.204s0.69-0.072,1.002-0.072c0.744,0,1.307,0.192,1.686,0.576
		c0.381,0.385,0.57,1,0.57,1.849v3.264H558.2v-3.084c0-0.36-0.032-0.652-0.097-0.876c-0.063-0.224-0.154-0.397-0.27-0.522
		c-0.116-0.123-0.256-0.21-0.42-0.258s-0.342-0.071-0.534-0.071c-0.16,0-0.33,0.01-0.51,0.029c-0.181,0.021-0.354,0.046-0.522,0.078
		v4.704h-0.996V197.646z"/>
	<path d="M562.916,197.49h2.352v0.828h-2.352v2.592c0,0.28,0.02,0.509,0.061,0.685c0.039,0.176,0.105,0.317,0.197,0.426
		s0.21,0.183,0.354,0.222c0.145,0.041,0.32,0.061,0.529,0.061c0.287,0,0.52-0.024,0.695-0.072s0.344-0.111,0.504-0.191l0.145,0.84
		c-0.112,0.048-0.291,0.111-0.534,0.191c-0.244,0.08-0.546,0.12-0.906,0.12c-0.416,0-0.756-0.048-1.021-0.144
		c-0.264-0.097-0.47-0.24-0.617-0.433c-0.148-0.191-0.25-0.43-0.307-0.714c-0.056-0.283-0.084-0.613-0.084-0.99v-2.592h-1.176
		v-0.828h1.176v-1.56l0.984-0.168V197.49z"/>
	<path d="M569.107,197.358c0.752,0,1.332,0.234,1.74,0.702s0.612,1.178,0.612,2.13v0.349h-3.983
		c0.039,0.575,0.229,1.014,0.569,1.313s0.817,0.45,1.435,0.45c0.352,0,0.651-0.028,0.899-0.084s0.437-0.116,0.563-0.18l0.133,0.84
		c-0.12,0.063-0.336,0.132-0.648,0.204c-0.312,0.071-0.664,0.107-1.056,0.107c-0.479,0-0.902-0.074-1.267-0.222
		c-0.363-0.148-0.666-0.35-0.905-0.606c-0.24-0.256-0.421-0.562-0.54-0.918c-0.12-0.355-0.18-0.741-0.18-1.158
		c0-0.495,0.076-0.928,0.228-1.296c0.151-0.367,0.353-0.672,0.601-0.912c0.247-0.239,0.527-0.42,0.84-0.539
		C568.46,197.419,568.779,197.358,569.107,197.358z M570.452,199.734c0-0.472-0.124-0.846-0.372-1.122
		c-0.248-0.275-0.576-0.414-0.984-0.414c-0.232,0-0.441,0.044-0.63,0.133c-0.188,0.088-0.351,0.203-0.485,0.348
		c-0.137,0.144-0.244,0.308-0.324,0.492c-0.08,0.184-0.133,0.372-0.156,0.563H570.452z"/>
	<path d="M576.212,201.667c0-0.2-0.082-0.364-0.246-0.492s-0.368-0.24-0.612-0.336c-0.244-0.097-0.51-0.19-0.797-0.282
		c-0.289-0.092-0.555-0.206-0.799-0.342s-0.447-0.304-0.611-0.504s-0.246-0.46-0.246-0.78c0-0.448,0.182-0.822,0.545-1.122
		c0.365-0.3,0.935-0.45,1.711-0.45c0.304,0,0.617,0.022,0.941,0.066s0.602,0.102,0.834,0.174l-0.18,0.888
		c-0.064-0.031-0.152-0.065-0.264-0.102c-0.112-0.036-0.24-0.068-0.385-0.096c-0.144-0.028-0.298-0.051-0.461-0.066
		c-0.164-0.016-0.322-0.024-0.475-0.024c-0.863,0-1.296,0.236-1.296,0.708c0,0.168,0.082,0.311,0.246,0.427
		c0.163,0.115,0.37,0.222,0.618,0.317c0.248,0.097,0.516,0.194,0.804,0.294c0.288,0.101,0.556,0.223,0.804,0.366
		c0.248,0.145,0.454,0.318,0.618,0.522c0.164,0.203,0.246,0.462,0.246,0.773c0,0.504-0.196,0.895-0.588,1.17
		c-0.392,0.276-1.013,0.414-1.86,0.414c-0.384,0-0.736-0.032-1.056-0.096c-0.32-0.064-0.624-0.16-0.912-0.288l0.192-0.9
		c0.279,0.128,0.574,0.234,0.882,0.318s0.638,0.126,0.989,0.126C575.76,202.351,576.212,202.123,576.212,201.667z"/>
</g>
<g>
	<path fill="#FFFFFF" d="M53,211.5c-1.378,0-2.5-1.121-2.5-2.5v-18c0-1.379,1.122-2.5,2.5-2.5h94c1.378,0,2.5,1.121,2.5,2.5v18
		c0,1.379-1.122,2.5-2.5,2.5H53z"/>
	<path fill="#C8C8B4" d="M147,189c1.103,0,2,0.896,2,2v18c0,1.104-0.897,2-2,2H53c-1.103,0-2-0.896-2-2v-18c0-1.104,0.897-2,2-2H147
		 M147,188H53c-1.65,0-3,1.35-3,3v18c0,1.65,1.35,3,3,3h94c1.65,0,3-1.35,3-3v-18C150,189.35,148.65,188,147,188L147,188z"/>
</g>
<g enable-background="new    ">
	<path d="M58.852,197.646c0.36-0.088,0.718-0.156,1.074-0.204s0.69-0.072,1.002-0.072c0.744,0,1.306,0.192,1.686,0.576
		c0.38,0.385,0.57,1,0.57,1.849v3.264H62.2v-3.084c0-0.36-0.032-0.652-0.096-0.876s-0.154-0.397-0.27-0.522
		c-0.116-0.123-0.256-0.21-0.42-0.258c-0.164-0.048-0.342-0.071-0.534-0.071c-0.16,0-0.33,0.01-0.51,0.029
		c-0.18,0.021-0.354,0.046-0.522,0.078v4.704h-0.996V197.646z"/>
	<path d="M66.964,197.358c0.416,0,0.766,0.053,1.05,0.156c0.284,0.104,0.514,0.248,0.69,0.432c0.176,0.185,0.3,0.408,0.372,0.672
		c0.072,0.265,0.108,0.553,0.108,0.864v3.48c-0.232,0.04-0.538,0.088-0.918,0.144c-0.38,0.056-0.77,0.084-1.17,0.084
		c-0.304,0-0.6-0.026-0.888-0.078s-0.544-0.144-0.768-0.275s-0.404-0.314-0.54-0.546c-0.136-0.232-0.204-0.528-0.204-0.889
		c0-0.319,0.07-0.59,0.21-0.81c0.14-0.22,0.32-0.398,0.54-0.534c0.22-0.136,0.472-0.234,0.756-0.294
		c0.284-0.06,0.57-0.09,0.858-0.09c0.392,0,0.776,0.044,1.152,0.132v-0.276c0-0.168-0.018-0.33-0.054-0.485
		c-0.036-0.156-0.104-0.298-0.204-0.427c-0.1-0.128-0.236-0.229-0.408-0.306s-0.394-0.114-0.666-0.114
		c-0.344,0-0.644,0.024-0.9,0.072c-0.256,0.048-0.452,0.096-0.588,0.145l-0.12-0.816c0.136-0.064,0.362-0.12,0.678-0.168
		C66.266,197.383,66.604,197.358,66.964,197.358z M68.656,195.438c-0.024,0.088-0.066,0.188-0.126,0.3
		c-0.06,0.112-0.134,0.217-0.222,0.312c-0.088,0.096-0.192,0.178-0.312,0.246c-0.12,0.067-0.256,0.102-0.408,0.102
		c-0.104,0-0.226-0.027-0.366-0.084c-0.14-0.056-0.254-0.104-0.342-0.144c-0.208-0.112-0.376-0.168-0.504-0.168
		c-0.104,0-0.204,0.052-0.3,0.155c-0.096,0.104-0.168,0.213-0.216,0.324l-0.516-0.275c0.024-0.088,0.066-0.188,0.126-0.301
		c0.06-0.111,0.134-0.216,0.222-0.312s0.192-0.178,0.312-0.246s0.252-0.102,0.396-0.102c0.104,0,0.226,0.029,0.366,0.09
		c0.14,0.06,0.254,0.109,0.342,0.149c0.208,0.112,0.376,0.168,0.504,0.168c0.104,0,0.206-0.052,0.306-0.155
		c0.1-0.104,0.174-0.212,0.222-0.324L68.656,195.438z M67.06,202.351c0.248,0,0.47-0.008,0.666-0.024
		c0.196-0.016,0.358-0.035,0.486-0.06v-1.656c-0.128-0.04-0.282-0.071-0.462-0.096s-0.37-0.036-0.57-0.036
		c-0.184,0-0.364,0.014-0.54,0.042c-0.176,0.028-0.332,0.078-0.468,0.15c-0.136,0.071-0.248,0.166-0.336,0.281
		c-0.088,0.116-0.132,0.263-0.132,0.438c0,0.36,0.122,0.61,0.366,0.75S66.644,202.351,67.06,202.351z"/>
	<path d="M75.52,200.274c0,0.44-0.062,0.838-0.186,1.194c-0.124,0.355-0.298,0.662-0.522,0.918
		c-0.224,0.256-0.492,0.454-0.804,0.594s-0.652,0.21-1.02,0.21c-0.36,0-0.694-0.07-1.002-0.21s-0.574-0.338-0.798-0.594
		s-0.398-0.562-0.522-0.918c-0.124-0.356-0.186-0.754-0.186-1.194c0-0.439,0.062-0.84,0.186-1.2
		c0.124-0.359,0.298-0.666,0.522-0.918s0.49-0.447,0.798-0.588c0.308-0.14,0.642-0.21,1.002-0.21c0.368,0,0.708,0.07,1.02,0.21
		c0.312,0.141,0.58,0.336,0.804,0.588c0.224,0.252,0.398,0.559,0.522,0.918C75.458,199.435,75.52,199.835,75.52,200.274z
		 M74.5,200.274c0-0.632-0.136-1.13-0.408-1.494c-0.272-0.363-0.64-0.546-1.104-0.546c-0.456,0-0.818,0.183-1.086,0.546
		c-0.268,0.364-0.402,0.862-0.402,1.494c0,0.624,0.134,1.118,0.402,1.482s0.63,0.546,1.086,0.546c0.464,0,0.832-0.182,1.104-0.546
		S74.5,200.898,74.5,200.274z"/>
	<path d="M77.68,199.543h2.64v0.936h-2.64V199.543z"/>
	<path d="M85.108,197.358c0.752,0,1.332,0.234,1.74,0.702c0.408,0.468,0.612,1.178,0.612,2.13v0.349h-3.984
		c0.04,0.575,0.23,1.014,0.57,1.313s0.818,0.45,1.434,0.45c0.352,0,0.652-0.028,0.9-0.084s0.436-0.116,0.564-0.18l0.132,0.84
		c-0.12,0.063-0.336,0.132-0.648,0.204c-0.312,0.071-0.665,0.107-1.056,0.107c-0.48,0-0.902-0.074-1.266-0.222
		c-0.364-0.148-0.666-0.35-0.906-0.606c-0.24-0.256-0.42-0.562-0.54-0.918c-0.12-0.355-0.18-0.741-0.18-1.158
		c0-0.495,0.076-0.928,0.228-1.296c0.152-0.367,0.352-0.672,0.6-0.912c0.248-0.239,0.528-0.42,0.84-0.539
		C84.46,197.419,84.78,197.358,85.108,197.358z M86.452,199.734c0-0.472-0.125-0.846-0.372-1.122
		c-0.248-0.275-0.576-0.414-0.984-0.414c-0.232,0-0.442,0.044-0.63,0.133c-0.188,0.088-0.35,0.203-0.486,0.348
		c-0.136,0.144-0.244,0.308-0.324,0.492c-0.08,0.184-0.132,0.372-0.156,0.563H86.452z"/>
	<path d="M92.212,201.667c0-0.2-0.082-0.364-0.246-0.492s-0.368-0.24-0.612-0.336c-0.244-0.097-0.51-0.19-0.798-0.282
		s-0.554-0.206-0.798-0.342s-0.448-0.304-0.612-0.504s-0.246-0.46-0.246-0.78c0-0.448,0.182-0.822,0.546-1.122
		c0.364-0.3,0.934-0.45,1.71-0.45c0.304,0,0.618,0.022,0.942,0.066c0.324,0.044,0.602,0.102,0.834,0.174l-0.18,0.888
		c-0.064-0.031-0.152-0.065-0.264-0.102c-0.112-0.036-0.24-0.068-0.384-0.096c-0.144-0.028-0.298-0.051-0.462-0.066
		c-0.164-0.016-0.322-0.024-0.474-0.024c-0.864,0-1.296,0.236-1.296,0.708c0,0.168,0.082,0.311,0.246,0.427
		c0.164,0.115,0.37,0.222,0.618,0.317c0.248,0.097,0.516,0.194,0.804,0.294c0.288,0.101,0.556,0.223,0.804,0.366
		c0.248,0.145,0.454,0.318,0.618,0.522c0.164,0.203,0.246,0.462,0.246,0.773c0,0.504-0.196,0.895-0.588,1.17
		c-0.392,0.276-1.012,0.414-1.86,0.414c-0.384,0-0.736-0.032-1.056-0.096c-0.32-0.064-0.624-0.16-0.912-0.288l0.192-0.9
		c0.28,0.128,0.574,0.234,0.882,0.318c0.308,0.084,0.638,0.126,0.99,0.126C91.76,202.351,92.212,202.123,92.212,201.667z"/>
	<path d="M96.916,197.49h2.352v0.828h-2.352v2.592c0,0.28,0.02,0.509,0.06,0.685s0.106,0.317,0.198,0.426
		c0.092,0.108,0.21,0.183,0.354,0.222c0.144,0.041,0.32,0.061,0.528,0.061c0.288,0,0.52-0.024,0.696-0.072s0.344-0.111,0.504-0.191
		l0.144,0.84c-0.112,0.048-0.29,0.111-0.534,0.191c-0.244,0.08-0.546,0.12-0.906,0.12c-0.416,0-0.756-0.048-1.02-0.144
		c-0.264-0.097-0.47-0.24-0.618-0.433c-0.148-0.191-0.25-0.43-0.306-0.714c-0.056-0.283-0.084-0.613-0.084-0.99v-2.592h-1.176
		v-0.828h1.176v-1.56l0.984-0.168V197.49z"/>
	<path d="M105.148,202.902c-0.216,0.057-0.502,0.116-0.858,0.181c-0.356,0.063-0.774,0.096-1.254,0.096
		c-0.424,0-0.776-0.062-1.056-0.187c-0.28-0.123-0.508-0.3-0.684-0.527c-0.176-0.229-0.3-0.498-0.372-0.811
		c-0.072-0.312-0.108-0.655-0.108-1.031v-3.133h0.984v2.916c0,0.688,0.102,1.177,0.306,1.464c0.204,0.288,0.546,0.433,1.026,0.433
		c0.104,0,0.21-0.004,0.318-0.012c0.108-0.008,0.21-0.019,0.306-0.03c0.096-0.012,0.18-0.024,0.252-0.036
		c0.072-0.012,0.12-0.021,0.144-0.03v-4.704h0.996V202.902z"/>
	<path d="M110.152,194.91l0.996-0.168v8.16c-0.216,0.064-0.492,0.128-0.828,0.192c-0.336,0.063-0.728,0.096-1.176,0.096
		c-0.4,0-0.764-0.068-1.092-0.204s-0.608-0.33-0.84-0.582s-0.412-0.558-0.54-0.918c-0.128-0.359-0.192-0.764-0.192-1.212
		c0-0.432,0.054-0.826,0.162-1.182c0.108-0.356,0.266-0.662,0.474-0.918c0.208-0.256,0.458-0.456,0.75-0.601
		c0.292-0.144,0.625-0.216,1.002-0.216c0.296,0,0.556,0.036,0.78,0.108s0.392,0.147,0.504,0.228V194.91z M110.152,198.667
		c-0.112-0.104-0.276-0.202-0.492-0.294c-0.216-0.093-0.44-0.139-0.672-0.139c-0.264,0-0.49,0.053-0.678,0.156
		c-0.188,0.104-0.342,0.246-0.462,0.426c-0.12,0.181-0.208,0.396-0.264,0.648c-0.056,0.252-0.084,0.521-0.084,0.81
		c0,0.648,0.152,1.148,0.456,1.5c0.304,0.353,0.7,0.528,1.188,0.528c0.248,0,0.458-0.012,0.63-0.036s0.298-0.048,0.378-0.072
		V198.667z"/>
	<path d="M114.964,197.358c0.416,0,0.766,0.053,1.05,0.156c0.284,0.104,0.514,0.248,0.69,0.432c0.176,0.185,0.3,0.408,0.372,0.672
		c0.072,0.265,0.108,0.553,0.108,0.864v3.48c-0.232,0.04-0.538,0.088-0.918,0.144c-0.38,0.056-0.77,0.084-1.17,0.084
		c-0.304,0-0.6-0.026-0.888-0.078s-0.544-0.144-0.768-0.275s-0.404-0.314-0.54-0.546c-0.136-0.232-0.204-0.528-0.204-0.889
		c0-0.319,0.07-0.59,0.21-0.81c0.14-0.22,0.32-0.398,0.54-0.534c0.22-0.136,0.472-0.234,0.756-0.294
		c0.284-0.06,0.57-0.09,0.858-0.09c0.392,0,0.776,0.044,1.152,0.132v-0.276c0-0.168-0.018-0.33-0.054-0.485
		c-0.036-0.156-0.104-0.298-0.204-0.427c-0.1-0.128-0.236-0.229-0.408-0.306s-0.394-0.114-0.666-0.114
		c-0.344,0-0.644,0.024-0.9,0.072c-0.256,0.048-0.452,0.096-0.588,0.145l-0.12-0.816c0.136-0.064,0.362-0.12,0.678-0.168
		C114.266,197.383,114.604,197.358,114.964,197.358z M115.06,202.351c0.248,0,0.47-0.008,0.666-0.024
		c0.196-0.016,0.358-0.035,0.486-0.06v-1.656c-0.128-0.04-0.282-0.071-0.462-0.096s-0.37-0.036-0.57-0.036
		c-0.184,0-0.364,0.014-0.54,0.042c-0.176,0.028-0.332,0.078-0.468,0.15c-0.136,0.071-0.248,0.166-0.336,0.281
		c-0.088,0.116-0.132,0.263-0.132,0.438c0,0.36,0.122,0.61,0.366,0.75S114.644,202.351,115.06,202.351z"/>
	<path d="M118.852,197.646c0.36-0.088,0.718-0.156,1.074-0.204s0.69-0.072,1.002-0.072c0.744,0,1.306,0.192,1.686,0.576
		c0.38,0.385,0.57,1,0.57,1.849v3.264H122.2v-3.084c0-0.36-0.032-0.652-0.096-0.876s-0.154-0.397-0.27-0.522
		c-0.116-0.123-0.256-0.21-0.42-0.258c-0.164-0.048-0.342-0.071-0.534-0.071c-0.16,0-0.33,0.01-0.51,0.029
		c-0.18,0.021-0.354,0.046-0.522,0.078v4.704h-0.996V197.646z"/>
	<path d="M126.916,197.49h2.352v0.828h-2.352v2.592c0,0.28,0.02,0.509,0.06,0.685s0.106,0.317,0.198,0.426
		c0.092,0.108,0.21,0.183,0.354,0.222c0.144,0.041,0.32,0.061,0.528,0.061c0.288,0,0.52-0.024,0.696-0.072s0.344-0.111,0.504-0.191
		l0.144,0.84c-0.112,0.048-0.29,0.111-0.534,0.191c-0.244,0.08-0.546,0.12-0.906,0.12c-0.416,0-0.756-0.048-1.02-0.144
		c-0.264-0.097-0.47-0.24-0.618-0.433c-0.148-0.191-0.25-0.43-0.306-0.714c-0.056-0.283-0.084-0.613-0.084-0.99v-2.592h-1.176
		v-0.828h1.176v-1.56l0.984-0.168V197.49z"/>
	<path d="M133.108,197.358c0.752,0,1.332,0.234,1.74,0.702c0.408,0.468,0.612,1.178,0.612,2.13v0.349h-3.984
		c0.04,0.575,0.23,1.014,0.57,1.313s0.818,0.45,1.434,0.45c0.352,0,0.652-0.028,0.9-0.084s0.436-0.116,0.564-0.18l0.132,0.84
		c-0.12,0.063-0.336,0.132-0.648,0.204c-0.312,0.071-0.665,0.107-1.056,0.107c-0.48,0-0.902-0.074-1.266-0.222
		c-0.364-0.148-0.666-0.35-0.906-0.606c-0.24-0.256-0.42-0.562-0.54-0.918c-0.12-0.355-0.18-0.741-0.18-1.158
		c0-0.495,0.076-0.928,0.228-1.296c0.152-0.367,0.352-0.672,0.6-0.912c0.248-0.239,0.528-0.42,0.84-0.539
		C132.46,197.419,132.78,197.358,133.108,197.358z M134.452,199.734c0-0.472-0.125-0.846-0.372-1.122
		c-0.248-0.275-0.576-0.414-0.984-0.414c-0.232,0-0.442,0.044-0.63,0.133c-0.188,0.088-0.35,0.203-0.486,0.348
		c-0.136,0.144-0.244,0.308-0.324,0.492c-0.08,0.184-0.132,0.372-0.156,0.563H134.452z"/>
	<path d="M140.212,201.667c0-0.2-0.082-0.364-0.246-0.492s-0.368-0.24-0.612-0.336c-0.244-0.097-0.51-0.19-0.798-0.282
		s-0.554-0.206-0.798-0.342s-0.448-0.304-0.612-0.504s-0.246-0.46-0.246-0.78c0-0.448,0.182-0.822,0.546-1.122
		c0.364-0.3,0.934-0.45,1.71-0.45c0.304,0,0.618,0.022,0.942,0.066c0.324,0.044,0.602,0.102,0.834,0.174l-0.18,0.888
		c-0.064-0.031-0.152-0.065-0.264-0.102c-0.112-0.036-0.24-0.068-0.384-0.096c-0.144-0.028-0.298-0.051-0.462-0.066
		c-0.164-0.016-0.322-0.024-0.474-0.024c-0.864,0-1.296,0.236-1.296,0.708c0,0.168,0.082,0.311,0.246,0.427
		c0.164,0.115,0.37,0.222,0.618,0.317c0.248,0.097,0.516,0.194,0.804,0.294c0.288,0.101,0.556,0.223,0.804,0.366
		c0.248,0.145,0.454,0.318,0.618,0.522c0.164,0.203,0.246,0.462,0.246,0.773c0,0.504-0.196,0.895-0.588,1.17
		c-0.392,0.276-1.012,0.414-1.86,0.414c-0.384,0-0.736-0.032-1.056-0.096c-0.32-0.064-0.624-0.16-0.912-0.288l0.192-0.9
		c0.28,0.128,0.574,0.234,0.882,0.318c0.308,0.084,0.638,0.126,0.99,0.126C139.76,202.351,140.212,202.123,140.212,201.667z"/>
</g>
<rect fill="none" width="648" height="212"/>
</svg>
