<?xml version="1.0" encoding="utf-8"?>
<!-- Generator: Adobe Illustrator 16.0.0, SVG Export Plug-In . SVG Version: 6.00 Build 0)  -->
<!DOCTYPE svg PUBLIC "-//W3C//DTD SVG 1.1//EN" "http://www.w3.org/Graphics/SVG/1.1/DTD/svg11.dtd">
<svg version="1.1" id="Layer_1" xmlns="http://www.w3.org/2000/svg" xmlns:xlink="http://www.w3.org/1999/xlink" x="0px" y="0px"
	 width="300px" height="300px" viewBox="0 0 300 300" enable-background="new 0 0 300 300" xml:space="preserve">
<g>
	<g>
		<path fill="#FFFFFF" d="M106.96,152.413c0.106-1.515,0.378-3.12,0.816-4.816c0.437-1.695,0.965-3.338,1.584-4.928
			c0.619-1.589,1.301-3.061,2.048-4.416c0.746-1.354,1.482-2.469,2.208-3.344h-9.6v-2.304h12.544v2.208
			c-0.64,0.747-1.333,1.749-2.08,3.008c-0.747,1.259-1.456,2.672-2.128,4.24c-0.672,1.567-1.253,3.242-1.744,5.023
			s-0.8,3.558-0.928,5.328H106.96z"/>
		<path fill="#FFFFFF" d="M122.96,152.413c0.106-1.515,0.378-3.12,0.816-4.816c0.437-1.695,0.965-3.338,1.584-4.928
			c0.619-1.589,1.301-3.061,2.048-4.416c0.746-1.354,1.482-2.469,2.208-3.344h-9.6v-2.304h12.544v2.208
			c-0.64,0.747-1.333,1.749-2.08,3.008c-0.747,1.259-1.456,2.672-2.128,4.24c-0.672,1.567-1.253,3.242-1.744,5.023
			s-0.8,3.558-0.928,5.328H122.96z"/>
		<path fill="#FFFFFF" d="M144.368,150.365c0,0.64-0.214,1.205-0.64,1.696c-0.427,0.49-0.992,0.735-1.696,0.735
			c-0.726,0-1.302-0.245-1.728-0.735c-0.427-0.491-0.64-1.057-0.64-1.696c0-0.661,0.213-1.237,0.64-1.729
			c0.426-0.49,1.002-0.735,1.728-0.735c0.704,0,1.269,0.245,1.696,0.735C144.154,149.128,144.368,149.704,144.368,150.365z"/>
		<path fill="#FFFFFF" d="M151.729,144.478c0-1.921,0.26-3.621,0.783-5.104c0.523-1.482,1.27-2.725,2.24-3.728
			s2.148-1.771,3.536-2.305c1.386-0.533,2.954-0.811,4.704-0.832l0.224,2.24c-1.131,0.021-2.159,0.145-3.088,0.368
			c-0.928,0.224-1.755,0.587-2.479,1.088c-0.727,0.502-1.334,1.147-1.824,1.936c-0.491,0.79-0.864,1.761-1.12,2.912
			c0.512-0.234,1.071-0.426,1.68-0.575s1.253-0.225,1.937-0.225c1.109,0,2.053,0.171,2.832,0.512
			c0.778,0.342,1.402,0.796,1.871,1.36c0.47,0.565,0.811,1.222,1.024,1.968c0.214,0.747,0.32,1.516,0.32,2.305
			c0,0.726-0.118,1.467-0.353,2.224c-0.234,0.758-0.598,1.451-1.088,2.08c-0.49,0.63-1.119,1.142-1.888,1.536
			s-1.686,0.592-2.752,0.592c-2.198,0-3.84-0.736-4.929-2.208C152.271,149.149,151.729,147.102,151.729,144.478z M158.032,142.429
			c-0.683,0-1.308,0.064-1.872,0.192c-0.565,0.128-1.137,0.32-1.712,0.576c-0.022,0.213-0.032,0.421-0.032,0.624s0,0.421,0,0.656
			c0,0.832,0.059,1.615,0.176,2.352s0.32,1.387,0.608,1.952s0.677,1.014,1.168,1.344c0.49,0.331,1.12,0.496,1.888,0.496
			c0.641,0,1.174-0.133,1.6-0.4c0.428-0.267,0.779-0.603,1.057-1.008s0.475-0.858,0.592-1.359s0.176-0.977,0.176-1.425
			c0-1.301-0.293-2.293-0.88-2.976S159.291,142.429,158.032,142.429z"/>
		<path fill="#FFFFFF" d="M170.96,152.413c0.106-1.515,0.378-3.12,0.815-4.816c0.438-1.695,0.966-3.338,1.584-4.928
			c0.619-1.589,1.302-3.061,2.049-4.416c0.746-1.354,1.482-2.469,2.208-3.344h-9.601v-2.304h12.545v2.208
			c-0.641,0.747-1.334,1.749-2.08,3.008c-0.748,1.259-1.457,2.672-2.129,4.24c-0.672,1.567-1.253,3.242-1.744,5.023
			c-0.49,1.781-0.799,3.558-0.928,5.328H170.96z"/>
		<path fill="#FFFFFF" d="M195.439,137.661c0,0.683-0.133,1.344-0.399,1.984c-0.267,0.64-0.619,1.27-1.056,1.888
			c-0.438,0.619-0.934,1.227-1.488,1.824c-0.555,0.597-1.12,1.184-1.696,1.76c-0.319,0.32-0.693,0.704-1.12,1.152
			c-0.427,0.447-0.832,0.906-1.216,1.376c-0.384,0.469-0.704,0.928-0.96,1.376c-0.256,0.447-0.384,0.832-0.384,1.151h9.12v2.24h-12
			c-0.021-0.106-0.032-0.219-0.032-0.336s0-0.229,0-0.336c0-0.896,0.149-1.729,0.448-2.496s0.682-1.493,1.152-2.176
			c0.469-0.683,0.996-1.328,1.584-1.937c0.586-0.607,1.168-1.2,1.744-1.775c0.469-0.47,0.922-0.929,1.359-1.376
			c0.438-0.448,0.82-0.896,1.152-1.345c0.33-0.447,0.597-0.912,0.8-1.392c0.202-0.48,0.304-0.976,0.304-1.488
			c0-0.576-0.091-1.066-0.271-1.472c-0.182-0.405-0.428-0.741-0.736-1.008c-0.31-0.267-0.667-0.464-1.072-0.592
			c-0.405-0.129-0.843-0.192-1.312-0.192c-0.555,0-1.061,0.075-1.52,0.224c-0.459,0.149-0.863,0.331-1.216,0.544
			c-0.353,0.214-0.656,0.422-0.912,0.624c-0.256,0.203-0.448,0.368-0.575,0.496l-1.312-1.855c0.17-0.192,0.426-0.427,0.768-0.704
			s0.752-0.539,1.232-0.784s1.018-0.453,1.615-0.624s1.237-0.256,1.92-0.256c2.07,0,3.601,0.475,4.593,1.424
			C194.943,134.53,195.439,135.891,195.439,137.661z"/>
	</g>
</g>
<g>
	<g>
		<path fill="#FFFFFF" d="M120.492,171.001c0.48-0.184,0.932-0.276,1.356-0.276c0.232,0,0.45,0.034,0.654,0.103
			s0.378,0.174,0.522,0.318c0.344-0.28,0.712-0.421,1.104-0.421c0.192,0,0.374,0.036,0.546,0.108s0.324,0.18,0.456,0.324
			c0.132,0.144,0.238,0.324,0.318,0.54c0.08,0.216,0.12,0.468,0.12,0.756v3.96h-0.9v-3.984c0-0.288-0.064-0.508-0.192-0.659
			c-0.128-0.152-0.288-0.229-0.48-0.229c-0.096,0-0.196,0.024-0.3,0.072s-0.2,0.124-0.288,0.228
			c0.048,0.185,0.072,0.389,0.072,0.612v1.812h-0.9v-1.823c0-0.28-0.044-0.5-0.132-0.66c-0.088-0.16-0.26-0.24-0.516-0.24
			c-0.16,0-0.34,0.036-0.54,0.108v4.764h-0.9V171.001z"/>
		<path fill="#FFFFFF" d="M128.255,171.673h-1.608v-0.828h2.592v3.42c0,0.553,0.076,0.923,0.228,1.11
			c0.152,0.188,0.38,0.282,0.684,0.282c0.232,0,0.446-0.028,0.642-0.084c0.196-0.056,0.35-0.116,0.462-0.18l0.144,0.84
			c-0.048,0.023-0.116,0.054-0.204,0.09c-0.088,0.036-0.19,0.07-0.306,0.102c-0.116,0.032-0.244,0.061-0.384,0.084
			c-0.14,0.024-0.286,0.036-0.438,0.036c-0.352,0-0.644-0.048-0.876-0.144c-0.232-0.097-0.418-0.24-0.558-0.433
			c-0.14-0.191-0.238-0.43-0.294-0.714c-0.056-0.283-0.084-0.613-0.084-0.99V171.673z M128.507,169.981
			c-0.208,0-0.388-0.072-0.54-0.217c-0.152-0.144-0.228-0.34-0.228-0.588c0-0.247,0.076-0.443,0.228-0.588
			c0.152-0.144,0.332-0.216,0.54-0.216c0.216,0,0.398,0.072,0.546,0.216c0.148,0.145,0.222,0.341,0.222,0.588
			c0,0.248-0.074,0.444-0.222,0.588C128.905,169.909,128.724,169.981,128.507,169.981z"/>
		<path fill="#FFFFFF" d="M136.056,176.545c-0.352,0-0.644-0.048-0.876-0.144c-0.232-0.097-0.416-0.24-0.552-0.433
			c-0.136-0.191-0.232-0.43-0.288-0.714c-0.056-0.283-0.084-0.613-0.084-0.99v-5.268h-1.608v-0.84h2.592v6.107
			c0,0.28,0.018,0.509,0.054,0.685s0.092,0.317,0.168,0.426s0.17,0.183,0.282,0.222c0.112,0.041,0.244,0.061,0.396,0.061
			c0.232,0,0.448-0.028,0.648-0.084c0.2-0.056,0.356-0.116,0.468-0.18l0.144,0.84c-0.048,0.023-0.116,0.054-0.204,0.09
			c-0.088,0.036-0.192,0.07-0.312,0.102c-0.12,0.032-0.25,0.061-0.39,0.084C136.354,176.533,136.208,176.545,136.056,176.545z"/>
		<path fill="#FFFFFF" d="M138.852,176.413v-8.148l0.996-0.168v2.832c0.16-0.063,0.34-0.113,0.54-0.149
			c0.2-0.036,0.396-0.055,0.588-0.055c0.424,0,0.778,0.062,1.062,0.187c0.284,0.124,0.51,0.298,0.678,0.521
			c0.168,0.225,0.288,0.492,0.36,0.805c0.072,0.312,0.108,0.656,0.108,1.032v3.144H142.2v-2.928c0-0.688-0.096-1.174-0.288-1.458
			s-0.536-0.426-1.032-0.426c-0.208,0-0.41,0.021-0.606,0.065c-0.196,0.044-0.338,0.086-0.426,0.126v4.62H138.852z"/>
		<path fill="#FFFFFF" d="M149.52,173.629c0,0.44-0.062,0.838-0.186,1.194c-0.124,0.355-0.298,0.662-0.522,0.918
			c-0.224,0.256-0.492,0.454-0.804,0.594s-0.652,0.21-1.02,0.21c-0.36,0-0.694-0.07-1.002-0.21s-0.574-0.338-0.798-0.594
			s-0.398-0.562-0.522-0.918c-0.124-0.356-0.186-0.754-0.186-1.194c0-0.439,0.062-0.84,0.186-1.2
			c0.124-0.359,0.298-0.666,0.522-0.918s0.49-0.447,0.798-0.588c0.308-0.14,0.642-0.21,1.002-0.21c0.368,0,0.708,0.07,1.02,0.21
			c0.312,0.141,0.58,0.336,0.804,0.588c0.224,0.252,0.398,0.559,0.522,0.918C149.458,172.789,149.52,173.189,149.52,173.629z
			 M148.655,168.793c-0.024,0.088-0.066,0.188-0.126,0.3c-0.06,0.112-0.134,0.217-0.222,0.312c-0.088,0.096-0.192,0.178-0.312,0.246
			c-0.12,0.067-0.256,0.102-0.408,0.102c-0.104,0-0.226-0.027-0.366-0.084c-0.14-0.056-0.254-0.104-0.342-0.144
			c-0.208-0.112-0.376-0.168-0.504-0.168c-0.104,0-0.204,0.052-0.3,0.155c-0.096,0.104-0.168,0.213-0.216,0.324l-0.516-0.275
			c0.024-0.088,0.066-0.188,0.126-0.301c0.06-0.111,0.134-0.216,0.222-0.312s0.192-0.178,0.312-0.246s0.252-0.102,0.396-0.102
			c0.104,0,0.226,0.029,0.366,0.09c0.14,0.06,0.254,0.109,0.342,0.149c0.208,0.112,0.376,0.168,0.504,0.168
			c0.104,0,0.206-0.052,0.306-0.155c0.1-0.104,0.174-0.212,0.222-0.324L148.655,168.793z M148.5,173.629
			c0-0.632-0.136-1.13-0.408-1.494c-0.272-0.363-0.64-0.546-1.104-0.546c-0.456,0-0.818,0.183-1.086,0.546
			c-0.268,0.364-0.402,0.862-0.402,1.494c0,0.624,0.134,1.118,0.402,1.482s0.63,0.546,1.086,0.546c0.464,0,0.832-0.182,1.104-0.546
			S148.5,174.253,148.5,173.629z"/>
		<path fill="#FFFFFF" d="M153.107,170.713c0.752,0,1.332,0.234,1.74,0.702s0.611,1.178,0.611,2.13v0.349h-3.983
			c0.04,0.575,0.229,1.014,0.569,1.313s0.818,0.45,1.435,0.45c0.353,0,0.651-0.028,0.899-0.084s0.437-0.116,0.564-0.18l0.133,0.84
			c-0.121,0.063-0.336,0.132-0.648,0.204c-0.312,0.071-0.664,0.107-1.057,0.107c-0.479,0-0.902-0.074-1.266-0.222
			c-0.364-0.148-0.666-0.35-0.906-0.606c-0.24-0.256-0.42-0.562-0.54-0.918c-0.12-0.355-0.18-0.741-0.18-1.158
			c0-0.495,0.076-0.928,0.228-1.296c0.152-0.367,0.352-0.672,0.6-0.912c0.247-0.239,0.528-0.42,0.84-0.539
			C152.459,170.773,152.779,170.713,153.107,170.713z M154.451,173.089c0-0.472-0.124-0.846-0.371-1.122
			c-0.248-0.275-0.576-0.414-0.984-0.414c-0.232,0-0.442,0.044-0.631,0.133c-0.188,0.088-0.35,0.203-0.485,0.348
			c-0.136,0.144-0.244,0.308-0.324,0.492c-0.079,0.184-0.132,0.372-0.155,0.563H154.451z"/>
		<path fill="#FFFFFF" d="M160.211,175.021c0-0.2-0.082-0.364-0.246-0.492s-0.367-0.24-0.611-0.336
			c-0.244-0.097-0.51-0.19-0.798-0.282s-0.554-0.206-0.798-0.342s-0.448-0.304-0.612-0.504s-0.246-0.46-0.246-0.78
			c0-0.448,0.183-0.822,0.546-1.122c0.364-0.3,0.934-0.45,1.71-0.45c0.304,0,0.618,0.022,0.942,0.066s0.602,0.102,0.834,0.174
			l-0.18,0.888c-0.064-0.031-0.152-0.065-0.265-0.102s-0.239-0.068-0.384-0.096c-0.145-0.028-0.299-0.051-0.462-0.066
			c-0.164-0.016-0.322-0.024-0.474-0.024c-0.864,0-1.297,0.236-1.297,0.708c0,0.168,0.082,0.311,0.246,0.427
			c0.164,0.115,0.37,0.222,0.618,0.317c0.248,0.097,0.517,0.194,0.804,0.294c0.289,0.101,0.557,0.223,0.805,0.366
			c0.248,0.145,0.453,0.318,0.617,0.522c0.164,0.203,0.246,0.462,0.246,0.773c0,0.504-0.195,0.895-0.588,1.17
			c-0.392,0.276-1.012,0.414-1.859,0.414c-0.385,0-0.736-0.032-1.057-0.096c-0.32-0.064-0.623-0.16-0.912-0.288l0.192-0.9
			c0.28,0.128,0.574,0.234,0.882,0.318c0.309,0.084,0.639,0.126,0.99,0.126C159.76,175.705,160.211,175.478,160.211,175.021z"/>
		<path fill="#FFFFFF" d="M172.151,168.265l0.996-0.168v8.16c-0.216,0.064-0.492,0.128-0.828,0.192
			c-0.336,0.063-0.728,0.096-1.176,0.096c-0.4,0-0.765-0.068-1.093-0.204s-0.607-0.33-0.84-0.582
			c-0.231-0.252-0.412-0.558-0.539-0.918c-0.129-0.359-0.192-0.764-0.192-1.212c0-0.432,0.054-0.826,0.162-1.182
			c0.108-0.356,0.266-0.662,0.474-0.918s0.458-0.456,0.75-0.601c0.292-0.144,0.626-0.216,1.002-0.216
			c0.297,0,0.557,0.036,0.78,0.108s0.392,0.147,0.504,0.228V168.265z M172.151,172.021c-0.112-0.104-0.276-0.202-0.491-0.294
			c-0.217-0.093-0.441-0.139-0.673-0.139c-0.264,0-0.489,0.053-0.678,0.156c-0.188,0.104-0.343,0.246-0.462,0.426
			c-0.12,0.181-0.209,0.396-0.264,0.648c-0.057,0.252-0.084,0.521-0.084,0.81c0,0.648,0.151,1.148,0.455,1.5
			c0.305,0.353,0.7,0.528,1.188,0.528c0.248,0,0.458-0.012,0.63-0.036s0.298-0.048,0.378-0.072V172.021z"/>
		<path fill="#FFFFFF" d="M177.107,170.713c0.752,0,1.332,0.234,1.74,0.702s0.611,1.178,0.611,2.13v0.349h-3.983
			c0.04,0.575,0.229,1.014,0.569,1.313s0.818,0.45,1.435,0.45c0.353,0,0.651-0.028,0.899-0.084s0.437-0.116,0.564-0.18l0.133,0.84
			c-0.121,0.063-0.336,0.132-0.648,0.204c-0.312,0.071-0.664,0.107-1.057,0.107c-0.479,0-0.902-0.074-1.266-0.222
			c-0.364-0.148-0.666-0.35-0.906-0.606c-0.24-0.256-0.42-0.562-0.539-0.918c-0.121-0.355-0.181-0.741-0.181-1.158
			c0-0.495,0.076-0.928,0.228-1.296c0.152-0.367,0.353-0.672,0.601-0.912c0.247-0.239,0.528-0.42,0.84-0.539
			C176.459,170.773,176.779,170.713,177.107,170.713z M178.451,173.089c0-0.472-0.124-0.846-0.371-1.122
			c-0.248-0.275-0.576-0.414-0.984-0.414c-0.232,0-0.442,0.044-0.631,0.133c-0.188,0.088-0.35,0.203-0.485,0.348
			c-0.136,0.144-0.244,0.308-0.324,0.492c-0.079,0.184-0.132,0.372-0.155,0.563H178.451z"/>
		<path fill="#FFFFFF" d="M131.147,188.257c-0.216,0.057-0.502,0.116-0.858,0.181c-0.356,0.063-0.774,0.096-1.254,0.096
			c-0.424,0-0.776-0.062-1.056-0.187c-0.28-0.123-0.508-0.3-0.684-0.527c-0.176-0.229-0.3-0.498-0.372-0.811
			c-0.072-0.312-0.108-0.655-0.108-1.031v-3.133h0.984v2.916c0,0.688,0.102,1.177,0.306,1.464c0.204,0.288,0.546,0.433,1.026,0.433
			c0.104,0,0.21-0.004,0.318-0.012c0.108-0.008,0.21-0.019,0.306-0.03c0.096-0.012,0.18-0.024,0.252-0.036
			c0.072-0.012,0.12-0.021,0.144-0.03v-4.704h0.996V188.257z"/>
		<path fill="#FFFFFF" d="M136.211,187.021c0-0.2-0.082-0.364-0.246-0.492s-0.368-0.24-0.612-0.336
			c-0.244-0.097-0.51-0.19-0.798-0.282s-0.554-0.206-0.798-0.342s-0.448-0.304-0.612-0.504s-0.246-0.46-0.246-0.78
			c0-0.448,0.182-0.822,0.546-1.122c0.364-0.3,0.934-0.45,1.71-0.45c0.304,0,0.618,0.022,0.942,0.066
			c0.324,0.044,0.602,0.102,0.834,0.174l-0.18,0.888c-0.064-0.031-0.152-0.065-0.264-0.102c-0.112-0.036-0.24-0.068-0.384-0.096
			c-0.144-0.028-0.298-0.051-0.462-0.066c-0.164-0.016-0.322-0.024-0.474-0.024c-0.864,0-1.296,0.236-1.296,0.708
			c0,0.168,0.082,0.311,0.246,0.427c0.164,0.115,0.37,0.222,0.618,0.317c0.248,0.097,0.516,0.194,0.804,0.294
			c0.288,0.101,0.556,0.223,0.804,0.366c0.248,0.145,0.454,0.318,0.618,0.522c0.164,0.203,0.246,0.462,0.246,0.773
			c0,0.504-0.196,0.895-0.588,1.17c-0.392,0.276-1.012,0.414-1.86,0.414c-0.384,0-0.736-0.032-1.056-0.096
			c-0.32-0.064-0.624-0.16-0.912-0.288l0.192-0.9c0.28,0.128,0.574,0.234,0.882,0.318c0.308,0.084,0.638,0.126,0.99,0.126
			C135.759,187.705,136.211,187.478,136.211,187.021z"/>
		<path fill="#FFFFFF" d="M143.147,188.257c-0.216,0.057-0.502,0.116-0.858,0.181c-0.356,0.063-0.774,0.096-1.254,0.096
			c-0.424,0-0.776-0.062-1.056-0.187c-0.28-0.123-0.508-0.3-0.684-0.527c-0.176-0.229-0.3-0.498-0.372-0.811
			c-0.072-0.312-0.108-0.655-0.108-1.031v-3.133h0.984v2.916c0,0.688,0.102,1.177,0.306,1.464c0.204,0.288,0.546,0.433,1.026,0.433
			c0.104,0,0.21-0.004,0.318-0.012c0.108-0.008,0.21-0.019,0.306-0.03c0.096-0.012,0.18-0.024,0.252-0.036
			c0.072-0.012,0.12-0.021,0.144-0.03v-4.704h0.996V188.257z"/>
		<path fill="#FFFFFF" d="M146.963,182.713c0.416,0,0.766,0.053,1.05,0.156c0.284,0.104,0.514,0.248,0.69,0.432
			c0.176,0.185,0.3,0.408,0.372,0.672c0.072,0.265,0.108,0.553,0.108,0.864v3.48c-0.232,0.04-0.538,0.088-0.918,0.144
			c-0.38,0.056-0.77,0.084-1.17,0.084c-0.304,0-0.6-0.026-0.888-0.078s-0.544-0.144-0.768-0.275s-0.404-0.314-0.54-0.546
			c-0.136-0.232-0.204-0.528-0.204-0.889c0-0.319,0.07-0.59,0.21-0.81c0.14-0.22,0.32-0.398,0.54-0.534
			c0.22-0.136,0.472-0.234,0.756-0.294c0.284-0.06,0.57-0.09,0.858-0.09c0.392,0,0.776,0.044,1.152,0.132v-0.276
			c0-0.168-0.018-0.33-0.054-0.485c-0.036-0.156-0.104-0.298-0.204-0.427c-0.1-0.128-0.236-0.229-0.408-0.306
			s-0.394-0.114-0.666-0.114c-0.344,0-0.644,0.024-0.9,0.072c-0.256,0.048-0.452,0.096-0.588,0.145l-0.12-0.816
			c0.136-0.064,0.362-0.12,0.678-0.168C146.266,182.737,146.604,182.713,146.963,182.713z M147.06,187.705
			c0.248,0,0.47-0.008,0.666-0.024c0.196-0.016,0.358-0.035,0.486-0.06v-1.656c-0.128-0.04-0.282-0.071-0.462-0.096
			s-0.37-0.036-0.57-0.036c-0.184,0-0.364,0.014-0.54,0.042c-0.176,0.028-0.332,0.078-0.468,0.15
			c-0.136,0.071-0.248,0.166-0.336,0.281c-0.088,0.116-0.132,0.263-0.132,0.438c0,0.36,0.122,0.61,0.366,0.75
			S146.644,187.705,147.06,187.705z M148.271,180.733l-1.512,1.464l-0.504-0.444l1.368-1.656L148.271,180.733z"/>
		<path fill="#FFFFFF" d="M151.283,188.413v-5.268c0.816-0.28,1.641-0.421,2.473-0.421c0.256,0,0.5,0.011,0.731,0.03
			c0.231,0.021,0.488,0.062,0.769,0.126l-0.18,0.876c-0.257-0.071-0.482-0.118-0.679-0.138s-0.41-0.03-0.642-0.03
			c-0.488,0-0.984,0.068-1.488,0.204v4.62H151.283z"/>
		<path fill="#FFFFFF" d="M158.256,183.673h-1.608v-0.828h2.593v3.42c0,0.553,0.075,0.923,0.227,1.11
			c0.152,0.188,0.381,0.282,0.685,0.282c0.231,0,0.446-0.028,0.642-0.084c0.196-0.056,0.351-0.116,0.463-0.18l0.144,0.84
			c-0.048,0.023-0.116,0.054-0.204,0.09s-0.189,0.07-0.306,0.102c-0.116,0.032-0.244,0.061-0.384,0.084
			c-0.141,0.024-0.287,0.036-0.438,0.036c-0.353,0-0.644-0.048-0.876-0.144c-0.232-0.097-0.418-0.24-0.559-0.433
			c-0.139-0.191-0.237-0.43-0.293-0.714c-0.057-0.283-0.084-0.613-0.084-0.99V183.673z M158.508,181.981
			c-0.209,0-0.389-0.072-0.541-0.217c-0.151-0.144-0.227-0.34-0.227-0.588c0-0.247,0.075-0.443,0.227-0.588
			c0.152-0.144,0.332-0.216,0.541-0.216c0.216,0,0.397,0.072,0.546,0.216c0.147,0.145,0.222,0.341,0.222,0.588
			c0,0.248-0.074,0.444-0.222,0.588C158.905,181.909,158.724,181.981,158.508,181.981z"/>
		<path fill="#FFFFFF" d="M167.52,185.629c0,0.44-0.062,0.838-0.186,1.194c-0.125,0.355-0.299,0.662-0.522,0.918
			s-0.492,0.454-0.804,0.594c-0.312,0.14-0.652,0.21-1.021,0.21c-0.36,0-0.694-0.07-1.002-0.21s-0.573-0.338-0.798-0.594
			s-0.398-0.562-0.521-0.918c-0.125-0.356-0.187-0.754-0.187-1.194c0-0.439,0.062-0.84,0.187-1.2
			c0.123-0.359,0.297-0.666,0.521-0.918s0.49-0.447,0.798-0.588c0.308-0.14,0.642-0.21,1.002-0.21c0.368,0,0.708,0.07,1.021,0.21
			c0.312,0.141,0.58,0.336,0.804,0.588s0.397,0.559,0.522,0.918C167.457,184.789,167.52,185.189,167.52,185.629z M166.5,185.629
			c0-0.632-0.137-1.13-0.408-1.494c-0.272-0.363-0.641-0.546-1.104-0.546c-0.456,0-0.817,0.183-1.086,0.546
			c-0.269,0.364-0.401,0.862-0.401,1.494c0,0.624,0.133,1.118,0.401,1.482s0.63,0.546,1.086,0.546c0.464,0,0.832-0.182,1.104-0.546
			C166.363,186.747,166.5,186.253,166.5,185.629z"/>
		<path fill="#FFFFFF" d="M172.211,187.021c0-0.2-0.082-0.364-0.246-0.492s-0.367-0.24-0.611-0.336
			c-0.244-0.097-0.51-0.19-0.798-0.282s-0.554-0.206-0.798-0.342s-0.448-0.304-0.612-0.504s-0.246-0.46-0.246-0.78
			c0-0.448,0.183-0.822,0.546-1.122c0.364-0.3,0.934-0.45,1.71-0.45c0.304,0,0.618,0.022,0.942,0.066s0.602,0.102,0.834,0.174
			l-0.18,0.888c-0.064-0.031-0.152-0.065-0.265-0.102s-0.239-0.068-0.384-0.096c-0.145-0.028-0.299-0.051-0.462-0.066
			c-0.164-0.016-0.322-0.024-0.474-0.024c-0.864,0-1.297,0.236-1.297,0.708c0,0.168,0.082,0.311,0.246,0.427
			c0.164,0.115,0.37,0.222,0.618,0.317c0.248,0.097,0.517,0.194,0.804,0.294c0.289,0.101,0.557,0.223,0.805,0.366
			c0.248,0.145,0.453,0.318,0.617,0.522c0.164,0.203,0.246,0.462,0.246,0.773c0,0.504-0.195,0.895-0.588,1.17
			c-0.392,0.276-1.012,0.414-1.859,0.414c-0.385,0-0.736-0.032-1.057-0.096c-0.32-0.064-0.623-0.16-0.912-0.288l0.192-0.9
			c0.28,0.128,0.574,0.234,0.882,0.318c0.309,0.084,0.639,0.126,0.99,0.126C171.76,187.705,172.211,187.478,172.211,187.021z"/>
	</g>
</g>
<line fill="none" stroke="#FFFFFF" stroke-miterlimit="10" x1="138" y1="160.414" x2="162" y2="160.414"/>
</svg>
