<?xml version="1.0" encoding="utf-8"?>
<!-- Generator: Adobe Illustrator 16.0.0, SVG Export Plug-In . SVG Version: 6.00 Build 0)  -->
<!DOCTYPE svg PUBLIC "-//W3C//DTD SVG 1.1//EN" "http://www.w3.org/Graphics/SVG/1.1/DTD/svg11.dtd">
<svg version="1.1" id="Layer_1" xmlns="http://www.w3.org/2000/svg" xmlns:xlink="http://www.w3.org/1999/xlink" x="0px" y="0px"
	 width="540px" height="220px" viewBox="0 0 540 220" enable-background="new 0 0 540 220" xml:space="preserve">
<g>
	<rect x="337.202" fill="#B291CE" width="8" height="11.2"/>
	<rect x="337.202" y="11.2" fill="#9C78A0" width="8" height="36.2"/>
	<rect x="337.202" y="47.4" fill="#B291CE" width="8" height="38.198"/>
	<rect x="337.202" y="85.599" fill="#9C78A0" width="8" height="83.001"/>
	<rect x="337.202" y="168.6" fill="#B291CE" width="8" height="31.4"/>
	<g>
		<g>
			<path d="M355.434,5.1c1.072,0.04,1.853,0.275,2.34,0.708c0.488,0.432,0.732,1.012,0.732,1.739c0,0.328-0.052,0.633-0.156,0.912
				c-0.104,0.28-0.266,0.521-0.485,0.72c-0.22,0.2-0.5,0.356-0.841,0.469c-0.34,0.111-0.741,0.168-1.205,0.168
				c-0.192,0-0.383-0.015-0.57-0.042c-0.188-0.028-0.365-0.062-0.533-0.103s-0.316-0.082-0.445-0.126
				c-0.127-0.044-0.22-0.082-0.275-0.113l0.191-0.853c0.129,0.064,0.326,0.141,0.595,0.229c0.268,0.088,0.606,0.132,1.014,0.132
				c0.32,0,0.589-0.036,0.804-0.108c0.217-0.072,0.391-0.17,0.522-0.294s0.228-0.266,0.288-0.426s0.09-0.328,0.09-0.504
				c0-0.272-0.046-0.515-0.138-0.727c-0.093-0.212-0.253-0.39-0.479-0.533c-0.229-0.145-0.541-0.254-0.937-0.33
				s-0.894-0.114-1.494-0.114c0.048-0.353,0.086-0.682,0.114-0.99c0.027-0.308,0.052-0.607,0.072-0.9
				c0.02-0.291,0.035-0.581,0.047-0.869c0.013-0.288,0.026-0.593,0.043-0.912h3.576v0.84h-2.713
				c-0.008,0.112-0.018,0.258-0.029,0.438c-0.012,0.181-0.026,0.37-0.043,0.57c-0.016,0.2-0.031,0.393-0.047,0.576
				C355.454,4.839,355.441,4.987,355.434,5.1z"/>
			<path d="M363.09,8.892c0,0.239-0.08,0.451-0.24,0.636c-0.16,0.184-0.371,0.275-0.635,0.275c-0.273,0-0.488-0.092-0.648-0.275
				c-0.16-0.185-0.24-0.396-0.24-0.636c0-0.248,0.08-0.464,0.24-0.648c0.16-0.184,0.375-0.276,0.648-0.276
				c0.264,0,0.475,0.093,0.635,0.276C363.01,8.428,363.09,8.644,363.09,8.892z"/>
			<path d="M365.85,6.684c0-0.721,0.099-1.358,0.295-1.914c0.195-0.557,0.476-1.022,0.84-1.398c0.363-0.376,0.806-0.664,1.326-0.864
				c0.52-0.199,1.107-0.304,1.764-0.312l0.084,0.84c-0.424,0.008-0.811,0.054-1.158,0.138s-0.658,0.221-0.93,0.408
				c-0.272,0.188-0.5,0.431-0.684,0.727c-0.185,0.296-0.324,0.659-0.42,1.092c0.191-0.088,0.401-0.16,0.629-0.216
				c0.229-0.057,0.471-0.084,0.727-0.084c0.416,0,0.77,0.063,1.062,0.191c0.291,0.128,0.525,0.298,0.701,0.51
				c0.176,0.213,0.305,0.458,0.385,0.738c0.079,0.28,0.119,0.568,0.119,0.864c0,0.271-0.044,0.55-0.132,0.834
				s-0.224,0.544-0.407,0.78c-0.185,0.235-0.42,0.428-0.709,0.575c-0.287,0.148-0.632,0.223-1.031,0.223
				c-0.824,0-1.44-0.276-1.849-0.828C366.055,8.436,365.85,7.667,365.85,6.684z M368.215,5.915c-0.257,0-0.49,0.024-0.703,0.072
				c-0.211,0.048-0.426,0.12-0.642,0.216c-0.008,0.08-0.013,0.158-0.013,0.234s0,0.158,0,0.246c0,0.312,0.022,0.605,0.066,0.882
				c0.045,0.275,0.12,0.52,0.229,0.731c0.107,0.212,0.254,0.38,0.438,0.504c0.184,0.125,0.42,0.187,0.709,0.187
				c0.239,0,0.439-0.05,0.6-0.15c0.16-0.1,0.291-0.226,0.396-0.378c0.104-0.151,0.179-0.321,0.222-0.51
				c0.045-0.188,0.066-0.366,0.066-0.534c0-0.487-0.109-0.859-0.33-1.116C369.032,6.043,368.686,5.915,368.215,5.915z"/>
			<path d="M371.418,3.936c0-0.608,0.116-1.07,0.348-1.387c0.232-0.315,0.553-0.474,0.961-0.474s0.728,0.158,0.959,0.474
				c0.232,0.316,0.349,0.778,0.349,1.387c0,0.607-0.116,1.071-0.349,1.392c-0.231,0.32-0.551,0.48-0.959,0.48
				s-0.729-0.16-0.961-0.48C371.534,5.007,371.418,4.543,371.418,3.936z M372.342,9.659h-0.84l4.549-7.428h0.84L372.342,9.659z
				 M373.29,3.936c0-0.36-0.048-0.656-0.144-0.889c-0.096-0.231-0.236-0.348-0.42-0.348c-0.185,0-0.326,0.116-0.426,0.348
				c-0.101,0.232-0.15,0.528-0.15,0.889c0,0.359,0.05,0.655,0.15,0.888c0.1,0.232,0.241,0.348,0.426,0.348
				c0.184,0,0.324-0.115,0.42-0.348S373.29,4.295,373.29,3.936z M374.383,7.955c0-0.607,0.113-1.069,0.342-1.386
				c0.228-0.316,0.545-0.475,0.953-0.475s0.729,0.158,0.961,0.475c0.231,0.316,0.348,0.778,0.348,1.386
				c0,0.608-0.116,1.07-0.348,1.386c-0.232,0.316-0.553,0.475-0.961,0.475s-0.726-0.158-0.953-0.475
				C374.496,9.025,374.383,8.563,374.383,7.955z M376.254,7.955c0-0.36-0.05-0.656-0.15-0.888c-0.1-0.232-0.241-0.349-0.426-0.349
				c-0.184,0-0.324,0.116-0.42,0.349c-0.096,0.231-0.144,0.527-0.144,0.888s0.048,0.656,0.144,0.888
				c0.096,0.232,0.236,0.349,0.42,0.349c0.185,0,0.326-0.116,0.426-0.349C376.204,8.611,376.254,8.315,376.254,7.955z"/>
		</g>
	</g>
	<g>
		<g>
			<path fill="#909090" d="M398.051,9.659l-0.445-1.944h-2.855l-0.432,1.944h-1.008c0.136-0.528,0.287-1.1,0.455-1.716
				s0.351-1.248,0.547-1.896c0.195-0.647,0.402-1.298,0.617-1.949c0.217-0.652,0.444-1.274,0.685-1.866h1.224
				c0.232,0.592,0.454,1.214,0.666,1.866c0.212,0.651,0.412,1.302,0.6,1.949c0.188,0.648,0.367,1.28,0.535,1.896
				s0.319,1.188,0.455,1.716H398.051z M396.189,3.095c-0.184,0.505-0.383,1.089-0.6,1.753c-0.216,0.664-0.42,1.348-0.611,2.052
				h2.399c-0.185-0.721-0.382-1.414-0.594-2.082S396.374,3.575,396.189,3.095z"/>
			<path fill="#909090" d="M402.118,4.091h2.353v0.828h-2.353v2.592c0,0.28,0.021,0.509,0.06,0.685
				c0.041,0.176,0.106,0.317,0.198,0.426c0.093,0.108,0.21,0.183,0.354,0.222c0.144,0.041,0.319,0.061,0.527,0.061
				c0.289,0,0.521-0.024,0.696-0.072s0.344-0.111,0.504-0.191l0.144,0.84c-0.111,0.048-0.289,0.111-0.533,0.191
				s-0.547,0.12-0.906,0.12c-0.416,0-0.756-0.048-1.02-0.144c-0.265-0.097-0.471-0.24-0.619-0.433
				c-0.147-0.191-0.25-0.43-0.305-0.714c-0.057-0.283-0.084-0.613-0.084-0.99V4.919h-1.177V4.091h1.177v-1.56l0.983-0.168V4.091z"/>
			<path fill="#909090" d="M408.311,3.959c0.752,0,1.332,0.234,1.74,0.702c0.407,0.468,0.611,1.178,0.611,2.13V7.14h-3.984
				c0.041,0.575,0.23,1.014,0.57,1.313s0.818,0.45,1.434,0.45c0.353,0,0.652-0.028,0.9-0.084s0.436-0.116,0.564-0.18l0.132,0.84
				c-0.12,0.063-0.336,0.132-0.647,0.204c-0.312,0.071-0.665,0.107-1.057,0.107c-0.48,0-0.902-0.074-1.266-0.222
				c-0.365-0.148-0.666-0.35-0.906-0.606c-0.24-0.256-0.42-0.562-0.54-0.918c-0.12-0.355-0.181-0.741-0.181-1.158
				c0-0.495,0.076-0.928,0.229-1.296c0.152-0.367,0.352-0.672,0.6-0.912c0.248-0.239,0.528-0.42,0.84-0.539
				C407.662,4.02,407.982,3.959,408.311,3.959z M409.654,6.335c0-0.472-0.125-0.846-0.372-1.122
				c-0.248-0.275-0.576-0.414-0.983-0.414c-0.232,0-0.443,0.044-0.631,0.133c-0.188,0.088-0.35,0.203-0.486,0.348
				c-0.136,0.144-0.244,0.308-0.324,0.492c-0.079,0.184-0.131,0.372-0.155,0.563H409.654z M409.475,1.979l-1.513,1.464l-0.504-0.444
				l1.368-1.656L409.475,1.979z"/>
			<path fill="#909090" d="M417.635,7.091c0.135-0.319,0.321-0.688,0.558-1.104c0.235-0.416,0.501-0.846,0.798-1.29
				c0.296-0.444,0.611-0.88,0.947-1.308c0.336-0.429,0.677-0.814,1.021-1.158h0.96v4.716h0.876v0.815h-0.876v1.896h-0.96V7.763
				h-3.323V7.091z M420.958,3.407c-0.216,0.232-0.435,0.488-0.653,0.768c-0.221,0.28-0.435,0.574-0.643,0.883
				c-0.208,0.308-0.402,0.622-0.582,0.941c-0.18,0.32-0.342,0.636-0.486,0.948h2.364V3.407z"/>
			<path fill="#909090" d="M432.166,3.959c0.416,0,0.766,0.053,1.051,0.156c0.283,0.104,0.514,0.248,0.689,0.432
				c0.176,0.185,0.3,0.408,0.372,0.672c0.071,0.265,0.108,0.553,0.108,0.864v3.48c-0.232,0.04-0.539,0.088-0.918,0.144
				c-0.381,0.056-0.771,0.084-1.17,0.084c-0.305,0-0.601-0.026-0.889-0.078s-0.544-0.144-0.768-0.275
				c-0.225-0.132-0.404-0.314-0.541-0.546c-0.136-0.232-0.203-0.528-0.203-0.889c0-0.319,0.07-0.59,0.209-0.81
				c0.141-0.22,0.32-0.398,0.541-0.534c0.22-0.136,0.472-0.234,0.756-0.294c0.283-0.06,0.57-0.09,0.857-0.09
				c0.393,0,0.776,0.044,1.152,0.132V6.131c0-0.168-0.018-0.33-0.054-0.485c-0.036-0.156-0.104-0.298-0.204-0.427
				c-0.1-0.128-0.236-0.229-0.408-0.306s-0.395-0.114-0.666-0.114c-0.344,0-0.645,0.024-0.9,0.072s-0.451,0.096-0.588,0.145
				l-0.119-0.816c0.135-0.064,0.361-0.12,0.678-0.168S431.807,3.959,432.166,3.959z M432.262,8.951c0.248,0,0.471-0.008,0.666-0.024
				c0.196-0.016,0.358-0.035,0.486-0.06V7.211c-0.128-0.04-0.281-0.071-0.462-0.096s-0.37-0.036-0.569-0.036
				c-0.185,0-0.365,0.014-0.541,0.042s-0.332,0.078-0.468,0.15c-0.136,0.071-0.248,0.166-0.336,0.281
				c-0.088,0.116-0.132,0.263-0.132,0.438c0,0.36,0.121,0.61,0.365,0.75S431.846,8.951,432.262,8.951z"/>
			<path fill="#909090" d="M436.055,4.247c0.359-0.088,0.717-0.156,1.073-0.204s0.69-0.072,1.003-0.072
				c0.743,0,1.305,0.192,1.686,0.576c0.379,0.385,0.57,1,0.57,1.849v3.264h-0.984V6.575c0-0.36-0.032-0.652-0.096-0.876
				c-0.064-0.224-0.154-0.397-0.271-0.522c-0.116-0.123-0.257-0.21-0.42-0.258c-0.164-0.048-0.343-0.071-0.534-0.071
				c-0.16,0-0.33,0.01-0.51,0.029c-0.18,0.021-0.354,0.046-0.521,0.078v4.704h-0.996V4.247z"/>
			<path fill="#909090" d="M446.723,6.875c0,0.44-0.062,0.838-0.187,1.194c-0.124,0.355-0.298,0.662-0.522,0.918
				c-0.224,0.256-0.492,0.454-0.804,0.594s-0.651,0.21-1.021,0.21c-0.359,0-0.693-0.07-1.002-0.21
				c-0.308-0.14-0.573-0.338-0.797-0.594c-0.225-0.256-0.398-0.562-0.522-0.918c-0.124-0.356-0.187-0.754-0.187-1.194
				c0-0.439,0.062-0.84,0.187-1.2c0.124-0.359,0.298-0.666,0.522-0.918c0.224-0.252,0.489-0.447,0.797-0.588
				c0.309-0.14,0.643-0.21,1.002-0.21c0.369,0,0.709,0.07,1.021,0.21c0.312,0.141,0.58,0.336,0.804,0.588
				c0.225,0.252,0.398,0.559,0.522,0.918C446.66,6.035,446.723,6.436,446.723,6.875z M445.702,6.875c0-0.632-0.136-1.13-0.408-1.494
				c-0.272-0.363-0.64-0.546-1.104-0.546c-0.455,0-0.817,0.183-1.086,0.546c-0.268,0.364-0.401,0.862-0.401,1.494
				c0,0.624,0.134,1.118,0.401,1.482c0.269,0.364,0.631,0.546,1.086,0.546c0.465,0,0.832-0.182,1.104-0.546
				S445.702,7.499,445.702,6.875z"/>
			<path fill="#909090" d="M451.414,8.268c0-0.2-0.082-0.364-0.246-0.492s-0.367-0.24-0.611-0.336
				c-0.244-0.097-0.51-0.19-0.799-0.282c-0.287-0.092-0.554-0.206-0.798-0.342s-0.448-0.304-0.612-0.504s-0.246-0.46-0.246-0.78
				c0-0.448,0.183-0.822,0.547-1.122c0.363-0.3,0.934-0.45,1.709-0.45c0.305,0,0.619,0.022,0.943,0.066
				c0.323,0.044,0.602,0.102,0.834,0.174l-0.181,0.888c-0.063-0.031-0.151-0.065-0.265-0.102c-0.111-0.036-0.239-0.068-0.383-0.096
				c-0.145-0.028-0.299-0.051-0.463-0.066s-0.322-0.024-0.474-0.024c-0.864,0-1.296,0.236-1.296,0.708
				c0,0.168,0.082,0.311,0.246,0.427c0.164,0.115,0.369,0.222,0.617,0.317c0.248,0.097,0.517,0.194,0.805,0.294
				c0.288,0.101,0.556,0.223,0.805,0.366c0.247,0.145,0.453,0.318,0.617,0.522c0.164,0.203,0.246,0.462,0.246,0.773
				c0,0.504-0.196,0.895-0.588,1.17c-0.393,0.276-1.012,0.414-1.86,0.414c-0.384,0-0.735-0.032-1.056-0.096
				c-0.32-0.064-0.624-0.16-0.912-0.288l0.191-0.9c0.281,0.128,0.574,0.234,0.883,0.318c0.308,0.084,0.638,0.126,0.99,0.126
				C450.962,8.951,451.414,8.724,451.414,8.268z"/>
		</g>
	</g>
	<g>
		<g>
			<path d="M354.102,27.468c0.408-0.16,0.805-0.362,1.188-0.606s0.739-0.554,1.067-0.93h0.697v6.588h1.403v0.84h-3.996v-0.84h1.608
				v-5.208c-0.088,0.08-0.194,0.162-0.318,0.246s-0.26,0.166-0.408,0.246s-0.302,0.155-0.461,0.228
				c-0.16,0.072-0.316,0.132-0.469,0.18L354.102,27.468z"/>
			<path d="M364.59,31.428c0,0.624-0.197,1.128-0.594,1.512s-0.998,0.576-1.807,0.576c-0.463,0-0.848-0.062-1.151-0.187
				s-0.546-0.283-0.726-0.479s-0.309-0.414-0.385-0.654s-0.113-0.476-0.113-0.708c0-0.424,0.115-0.8,0.348-1.128
				s0.508-0.592,0.828-0.792c-0.68-0.384-1.02-0.972-1.02-1.764c0-0.272,0.051-0.532,0.155-0.78s0.252-0.464,0.444-0.648
				c0.191-0.184,0.426-0.331,0.701-0.443c0.277-0.112,0.586-0.168,0.931-0.168c0.399,0,0.741,0.06,1.026,0.18
				c0.283,0.12,0.514,0.274,0.689,0.462c0.176,0.188,0.305,0.396,0.385,0.624c0.079,0.229,0.119,0.45,0.119,0.666
				c0,0.424-0.107,0.79-0.324,1.098c-0.215,0.309-0.463,0.555-0.744,0.738C364.178,29.924,364.59,30.556,364.59,31.428z
				 M360.773,31.499c0,0.128,0.025,0.263,0.072,0.402c0.049,0.14,0.129,0.27,0.24,0.39c0.112,0.12,0.26,0.219,0.444,0.294
				c0.184,0.076,0.407,0.114,0.672,0.114c0.248,0,0.462-0.034,0.642-0.102c0.18-0.068,0.328-0.16,0.444-0.276
				s0.202-0.246,0.259-0.39c0.055-0.145,0.084-0.288,0.084-0.433c0-0.456-0.164-0.806-0.492-1.05s-0.781-0.43-1.356-0.558
				c-0.32,0.176-0.568,0.396-0.744,0.66C360.862,30.815,360.773,31.132,360.773,31.499z M363.462,27.695
				c0-0.104-0.024-0.222-0.071-0.354c-0.049-0.133-0.123-0.252-0.223-0.36s-0.23-0.2-0.39-0.276
				c-0.16-0.075-0.353-0.113-0.576-0.113c-0.231,0-0.426,0.035-0.582,0.107c-0.155,0.072-0.286,0.162-0.39,0.271
				c-0.104,0.107-0.178,0.228-0.223,0.359c-0.044,0.132-0.065,0.263-0.065,0.391c0,0.328,0.118,0.634,0.354,0.918
				c0.235,0.284,0.625,0.49,1.17,0.618c0.303-0.177,0.545-0.385,0.726-0.624C363.372,28.392,363.462,28.079,363.462,27.695z"/>
			<path d="M369.09,32.592c0,0.239-0.08,0.451-0.24,0.636c-0.16,0.184-0.371,0.275-0.635,0.275c-0.273,0-0.488-0.092-0.648-0.275
				c-0.16-0.185-0.24-0.396-0.24-0.636c0-0.248,0.08-0.464,0.24-0.648c0.16-0.184,0.375-0.276,0.648-0.276
				c0.264,0,0.475,0.093,0.635,0.276C369.01,32.128,369.09,32.344,369.09,32.592z"/>
			<path d="M372.102,27.468c0.408-0.16,0.805-0.362,1.188-0.606s0.739-0.554,1.067-0.93h0.697v6.588h1.403v0.84h-3.996v-0.84h1.608
				v-5.208c-0.088,0.08-0.194,0.162-0.318,0.246s-0.26,0.166-0.408,0.246s-0.302,0.155-0.461,0.228
				c-0.16,0.072-0.316,0.132-0.469,0.18L372.102,27.468z"/>
			<path d="M377.418,27.636c0-0.608,0.116-1.07,0.348-1.387c0.232-0.315,0.553-0.474,0.961-0.474s0.728,0.158,0.959,0.474
				c0.232,0.316,0.349,0.778,0.349,1.387c0,0.607-0.116,1.071-0.349,1.392c-0.231,0.32-0.551,0.48-0.959,0.48
				s-0.729-0.16-0.961-0.48C377.534,28.707,377.418,28.243,377.418,27.636z M378.342,33.359h-0.84l4.549-7.428h0.84L378.342,33.359z
				 M379.29,27.636c0-0.36-0.048-0.656-0.144-0.889c-0.096-0.231-0.236-0.348-0.42-0.348c-0.185,0-0.326,0.116-0.426,0.348
				c-0.101,0.232-0.15,0.528-0.15,0.889c0,0.359,0.05,0.655,0.15,0.888c0.1,0.232,0.241,0.348,0.426,0.348
				c0.184,0,0.324-0.115,0.42-0.348S379.29,27.995,379.29,27.636z M380.383,31.655c0-0.607,0.113-1.069,0.342-1.386
				c0.228-0.316,0.545-0.475,0.953-0.475s0.729,0.158,0.961,0.475c0.231,0.316,0.348,0.778,0.348,1.386
				c0,0.608-0.116,1.07-0.348,1.386c-0.232,0.316-0.553,0.475-0.961,0.475s-0.726-0.158-0.953-0.475
				C380.496,32.726,380.383,32.264,380.383,31.655z M382.254,31.655c0-0.36-0.05-0.656-0.15-0.888
				c-0.1-0.232-0.241-0.349-0.426-0.349c-0.184,0-0.324,0.116-0.42,0.349c-0.096,0.231-0.144,0.527-0.144,0.888
				s0.048,0.656,0.144,0.888c0.096,0.232,0.236,0.349,0.42,0.349c0.185,0,0.326-0.116,0.426-0.349
				C382.204,32.312,382.254,32.016,382.254,31.655z"/>
		</g>
	</g>
	<g>
		<g>
			<path fill="#909090" d="M393.635,30.791c0.135-0.319,0.321-0.688,0.558-1.104c0.235-0.416,0.501-0.846,0.798-1.29
				c0.296-0.444,0.611-0.88,0.947-1.308c0.336-0.429,0.677-0.814,1.021-1.158h0.96v4.716h0.876v0.815h-0.876v1.896h-0.96v-1.896
				h-3.323V30.791z M396.958,27.107c-0.216,0.232-0.435,0.488-0.653,0.768c-0.221,0.28-0.435,0.574-0.643,0.883
				c-0.208,0.308-0.402,0.622-0.582,0.941c-0.18,0.32-0.342,0.636-0.486,0.948h2.364V27.107z"/>
			<path fill="#909090" d="M408.166,27.659c0.416,0,0.766,0.053,1.051,0.156c0.283,0.104,0.514,0.248,0.689,0.432
				c0.176,0.185,0.3,0.408,0.372,0.672c0.071,0.265,0.108,0.553,0.108,0.864v3.48c-0.232,0.04-0.539,0.088-0.918,0.144
				c-0.381,0.056-0.771,0.084-1.17,0.084c-0.305,0-0.601-0.026-0.889-0.078s-0.544-0.144-0.768-0.275
				c-0.225-0.132-0.404-0.314-0.541-0.546c-0.136-0.232-0.203-0.528-0.203-0.889c0-0.319,0.07-0.59,0.209-0.81
				c0.141-0.22,0.32-0.398,0.541-0.534c0.22-0.136,0.472-0.234,0.756-0.294c0.283-0.06,0.57-0.09,0.857-0.09
				c0.393,0,0.776,0.044,1.152,0.132v-0.276c0-0.168-0.018-0.33-0.054-0.485c-0.036-0.156-0.104-0.298-0.204-0.427
				c-0.1-0.128-0.236-0.229-0.408-0.306s-0.395-0.114-0.666-0.114c-0.344,0-0.645,0.024-0.9,0.072s-0.451,0.096-0.588,0.145
				l-0.119-0.816c0.135-0.064,0.361-0.12,0.678-0.168S407.807,27.659,408.166,27.659z M408.262,32.651
				c0.248,0,0.471-0.008,0.666-0.024c0.196-0.016,0.358-0.035,0.486-0.06v-1.656c-0.128-0.04-0.281-0.071-0.462-0.096
				s-0.37-0.036-0.569-0.036c-0.185,0-0.365,0.014-0.541,0.042s-0.332,0.078-0.468,0.15c-0.136,0.071-0.248,0.166-0.336,0.281
				c-0.088,0.116-0.132,0.263-0.132,0.438c0,0.36,0.121,0.61,0.365,0.75S407.846,32.651,408.262,32.651z"/>
			<path fill="#909090" d="M419.062,33.359c0.039-0.568,0.142-1.17,0.306-1.806c0.164-0.637,0.362-1.252,0.594-1.849
				c0.231-0.596,0.488-1.147,0.769-1.655c0.279-0.509,0.556-0.927,0.828-1.255h-3.601v-0.863h4.704v0.828
				c-0.24,0.279-0.5,0.655-0.779,1.128c-0.281,0.472-0.547,1.002-0.799,1.59s-0.47,1.216-0.654,1.884
				c-0.184,0.668-0.299,1.334-0.348,1.998H419.062z"/>
			<path fill="#909090" d="M432.166,27.659c0.416,0,0.766,0.053,1.051,0.156c0.283,0.104,0.514,0.248,0.689,0.432
				c0.176,0.185,0.3,0.408,0.372,0.672c0.071,0.265,0.108,0.553,0.108,0.864v3.48c-0.232,0.04-0.539,0.088-0.918,0.144
				c-0.381,0.056-0.771,0.084-1.17,0.084c-0.305,0-0.601-0.026-0.889-0.078s-0.544-0.144-0.768-0.275
				c-0.225-0.132-0.404-0.314-0.541-0.546c-0.136-0.232-0.203-0.528-0.203-0.889c0-0.319,0.07-0.59,0.209-0.81
				c0.141-0.22,0.32-0.398,0.541-0.534c0.22-0.136,0.472-0.234,0.756-0.294c0.283-0.06,0.57-0.09,0.857-0.09
				c0.393,0,0.776,0.044,1.152,0.132v-0.276c0-0.168-0.018-0.33-0.054-0.485c-0.036-0.156-0.104-0.298-0.204-0.427
				c-0.1-0.128-0.236-0.229-0.408-0.306s-0.395-0.114-0.666-0.114c-0.344,0-0.645,0.024-0.9,0.072s-0.451,0.096-0.588,0.145
				l-0.119-0.816c0.135-0.064,0.361-0.12,0.678-0.168S431.807,27.659,432.166,27.659z M432.262,32.651
				c0.248,0,0.471-0.008,0.666-0.024c0.196-0.016,0.358-0.035,0.486-0.06v-1.656c-0.128-0.04-0.281-0.071-0.462-0.096
				s-0.37-0.036-0.569-0.036c-0.185,0-0.365,0.014-0.541,0.042s-0.332,0.078-0.468,0.15c-0.136,0.071-0.248,0.166-0.336,0.281
				c-0.088,0.116-0.132,0.263-0.132,0.438c0,0.36,0.121,0.61,0.365,0.75S431.846,32.651,432.262,32.651z"/>
			<path fill="#909090" d="M436.055,27.947c0.359-0.088,0.717-0.156,1.073-0.204s0.69-0.072,1.003-0.072
				c0.743,0,1.305,0.192,1.686,0.576c0.379,0.385,0.57,1,0.57,1.849v3.264h-0.984v-3.084c0-0.36-0.032-0.652-0.096-0.876
				c-0.064-0.224-0.154-0.397-0.271-0.522c-0.116-0.123-0.257-0.21-0.42-0.258c-0.164-0.048-0.343-0.071-0.534-0.071
				c-0.16,0-0.33,0.01-0.51,0.029c-0.18,0.021-0.354,0.046-0.521,0.078v4.704h-0.996V27.947z"/>
			<path fill="#909090" d="M446.723,30.575c0,0.44-0.062,0.838-0.187,1.194c-0.124,0.355-0.298,0.662-0.522,0.918
				c-0.224,0.256-0.492,0.454-0.804,0.594s-0.651,0.21-1.021,0.21c-0.359,0-0.693-0.07-1.002-0.21
				c-0.308-0.14-0.573-0.338-0.797-0.594c-0.225-0.256-0.398-0.562-0.522-0.918c-0.124-0.356-0.187-0.754-0.187-1.194
				c0-0.439,0.062-0.84,0.187-1.2c0.124-0.359,0.298-0.666,0.522-0.918c0.224-0.252,0.489-0.447,0.797-0.588
				c0.309-0.14,0.643-0.21,1.002-0.21c0.369,0,0.709,0.07,1.021,0.21c0.312,0.141,0.58,0.336,0.804,0.588
				c0.225,0.252,0.398,0.559,0.522,0.918C446.66,29.735,446.723,30.136,446.723,30.575z M445.702,30.575
				c0-0.632-0.136-1.13-0.408-1.494c-0.272-0.363-0.64-0.546-1.104-0.546c-0.455,0-0.817,0.183-1.086,0.546
				c-0.268,0.364-0.401,0.862-0.401,1.494c0,0.624,0.134,1.118,0.401,1.482c0.269,0.364,0.631,0.546,1.086,0.546
				c0.465,0,0.832-0.182,1.104-0.546S445.702,31.199,445.702,30.575z"/>
			<path fill="#909090" d="M451.414,31.968c0-0.2-0.082-0.364-0.246-0.492s-0.367-0.24-0.611-0.336
				c-0.244-0.097-0.51-0.19-0.799-0.282c-0.287-0.092-0.554-0.206-0.798-0.342s-0.448-0.304-0.612-0.504s-0.246-0.46-0.246-0.78
				c0-0.448,0.183-0.822,0.547-1.122c0.363-0.3,0.934-0.45,1.709-0.45c0.305,0,0.619,0.022,0.943,0.066
				c0.323,0.044,0.602,0.102,0.834,0.174l-0.181,0.888c-0.063-0.031-0.151-0.065-0.265-0.102c-0.111-0.036-0.239-0.068-0.383-0.096
				c-0.145-0.028-0.299-0.051-0.463-0.066s-0.322-0.024-0.474-0.024c-0.864,0-1.296,0.236-1.296,0.708
				c0,0.168,0.082,0.311,0.246,0.427c0.164,0.115,0.369,0.222,0.617,0.317c0.248,0.097,0.517,0.194,0.805,0.294
				c0.288,0.101,0.556,0.223,0.805,0.366c0.247,0.145,0.453,0.318,0.617,0.522c0.164,0.203,0.246,0.462,0.246,0.773
				c0,0.504-0.196,0.895-0.588,1.17c-0.393,0.276-1.012,0.414-1.86,0.414c-0.384,0-0.735-0.032-1.056-0.096
				c-0.32-0.064-0.624-0.16-0.912-0.288l0.191-0.9c0.281,0.128,0.574,0.234,0.883,0.318c0.308,0.084,0.638,0.126,0.99,0.126
				C450.962,32.651,451.414,32.424,451.414,31.968z"/>
		</g>
	</g>
	<g>
		<g>
			<path d="M354.102,64.667c0.408-0.16,0.805-0.362,1.188-0.606s0.739-0.554,1.067-0.93h0.697v6.588h1.403v0.84h-3.996v-0.84h1.608
				v-5.208c-0.088,0.08-0.194,0.162-0.318,0.246s-0.26,0.166-0.408,0.246s-0.302,0.155-0.461,0.228
				c-0.16,0.072-0.316,0.132-0.469,0.18L354.102,64.667z"/>
			<path d="M364.566,66.106c0,1.48-0.36,2.594-1.08,3.342c-0.721,0.748-1.805,1.126-3.252,1.135l-0.036-0.841
				c0.896,0,1.618-0.178,2.166-0.533c0.548-0.356,0.909-0.971,1.086-1.843c-0.192,0.089-0.404,0.158-0.636,0.21
				c-0.232,0.053-0.477,0.078-0.732,0.078c-0.424,0-0.779-0.062-1.068-0.186c-0.287-0.124-0.52-0.292-0.695-0.504
				s-0.305-0.454-0.385-0.727c-0.08-0.271-0.119-0.56-0.119-0.863c0-0.272,0.043-0.551,0.132-0.834
				c0.088-0.284,0.224-0.542,0.407-0.774c0.185-0.232,0.42-0.424,0.709-0.576c0.287-0.151,0.631-0.228,1.031-0.228
				c0.816,0,1.432,0.28,1.849,0.84C364.357,64.362,364.566,65.131,364.566,66.106z M362.189,66.839c0.257,0,0.494-0.024,0.715-0.072
				c0.22-0.048,0.434-0.116,0.643-0.204c0.008-0.08,0.012-0.156,0.012-0.228c0-0.072,0-0.148,0-0.229
				c0-0.312-0.022-0.607-0.066-0.888s-0.12-0.524-0.229-0.732c-0.107-0.208-0.256-0.374-0.443-0.498s-0.426-0.186-0.715-0.186
				c-0.239,0-0.439,0.05-0.6,0.149c-0.16,0.101-0.292,0.225-0.396,0.372c-0.104,0.148-0.179,0.314-0.222,0.498
				c-0.045,0.185-0.066,0.36-0.066,0.528c0,0.488,0.109,0.858,0.33,1.11C361.372,66.713,361.719,66.839,362.189,66.839z"/>
			<path d="M369.09,69.791c0,0.239-0.08,0.451-0.24,0.636c-0.16,0.184-0.371,0.275-0.635,0.275c-0.273,0-0.488-0.092-0.648-0.275
				c-0.16-0.185-0.24-0.396-0.24-0.636c0-0.248,0.08-0.464,0.24-0.648c0.16-0.184,0.375-0.276,0.648-0.276
				c0.264,0,0.475,0.093,0.635,0.276C369.01,69.327,369.09,69.543,369.09,69.791z"/>
			<path d="M372.102,64.667c0.408-0.16,0.805-0.362,1.188-0.606s0.739-0.554,1.067-0.93h0.697v6.588h1.403v0.84h-3.996v-0.84h1.608
				v-5.208c-0.088,0.08-0.194,0.162-0.318,0.246s-0.26,0.166-0.408,0.246s-0.302,0.155-0.461,0.228
				c-0.16,0.072-0.316,0.132-0.469,0.18L372.102,64.667z"/>
			<path d="M377.418,64.835c0-0.608,0.116-1.07,0.348-1.387c0.232-0.315,0.553-0.474,0.961-0.474s0.728,0.158,0.959,0.474
				c0.232,0.316,0.349,0.778,0.349,1.387c0,0.607-0.116,1.071-0.349,1.392c-0.231,0.32-0.551,0.48-0.959,0.48
				s-0.729-0.16-0.961-0.48C377.534,65.906,377.418,65.442,377.418,64.835z M378.342,70.559h-0.84l4.549-7.428h0.84L378.342,70.559z
				 M379.29,64.835c0-0.36-0.048-0.656-0.144-0.889c-0.096-0.231-0.236-0.348-0.42-0.348c-0.185,0-0.326,0.116-0.426,0.348
				c-0.101,0.232-0.15,0.528-0.15,0.889c0,0.359,0.05,0.655,0.15,0.888c0.1,0.232,0.241,0.348,0.426,0.348
				c0.184,0,0.324-0.115,0.42-0.348S379.29,65.194,379.29,64.835z M380.383,68.854c0-0.607,0.113-1.069,0.342-1.386
				c0.228-0.316,0.545-0.475,0.953-0.475s0.729,0.158,0.961,0.475c0.231,0.316,0.348,0.778,0.348,1.386
				c0,0.608-0.116,1.07-0.348,1.386c-0.232,0.316-0.553,0.475-0.961,0.475s-0.726-0.158-0.953-0.475
				C380.496,69.925,380.383,69.463,380.383,68.854z M382.254,68.854c0-0.36-0.05-0.656-0.15-0.888
				c-0.1-0.232-0.241-0.349-0.426-0.349c-0.184,0-0.324,0.116-0.42,0.349c-0.096,0.231-0.144,0.527-0.144,0.888
				s0.048,0.656,0.144,0.888c0.096,0.232,0.236,0.349,0.42,0.349c0.185,0,0.326-0.116,0.426-0.349
				C382.204,69.511,382.254,69.215,382.254,68.854z"/>
		</g>
	</g>
	<g>
		<g>
			<path fill="#909090" d="M398.59,68.627c0,0.624-0.197,1.128-0.594,1.512s-0.998,0.576-1.807,0.576
				c-0.463,0-0.848-0.062-1.151-0.187s-0.546-0.283-0.726-0.479s-0.309-0.414-0.385-0.654s-0.113-0.476-0.113-0.708
				c0-0.424,0.115-0.8,0.348-1.128s0.508-0.592,0.828-0.792c-0.68-0.384-1.02-0.972-1.02-1.764c0-0.272,0.051-0.532,0.155-0.78
				s0.252-0.464,0.444-0.648c0.191-0.184,0.426-0.331,0.701-0.443c0.277-0.112,0.586-0.168,0.931-0.168
				c0.399,0,0.741,0.06,1.026,0.18c0.283,0.12,0.514,0.274,0.689,0.462c0.176,0.188,0.305,0.396,0.385,0.624
				c0.079,0.229,0.119,0.45,0.119,0.666c0,0.424-0.107,0.79-0.324,1.098c-0.215,0.309-0.463,0.555-0.744,0.738
				C398.178,67.123,398.59,67.755,398.59,68.627z M394.773,68.698c0,0.128,0.025,0.263,0.072,0.402c0.049,0.14,0.129,0.27,0.24,0.39
				c0.112,0.12,0.26,0.219,0.444,0.294c0.184,0.076,0.407,0.114,0.672,0.114c0.248,0,0.462-0.034,0.642-0.102
				c0.18-0.068,0.328-0.16,0.444-0.276s0.202-0.246,0.259-0.39c0.055-0.145,0.084-0.288,0.084-0.433c0-0.456-0.164-0.806-0.492-1.05
				s-0.781-0.43-1.356-0.558c-0.32,0.176-0.568,0.396-0.744,0.66C394.862,68.015,394.773,68.331,394.773,68.698z M397.462,64.895
				c0-0.104-0.024-0.222-0.071-0.354c-0.049-0.133-0.123-0.252-0.223-0.36s-0.23-0.2-0.39-0.276
				c-0.16-0.075-0.353-0.113-0.576-0.113c-0.231,0-0.426,0.035-0.582,0.107c-0.155,0.072-0.286,0.162-0.39,0.271
				c-0.104,0.107-0.178,0.228-0.223,0.359c-0.044,0.132-0.065,0.263-0.065,0.391c0,0.328,0.118,0.634,0.354,0.918
				c0.235,0.284,0.625,0.49,1.17,0.618c0.303-0.177,0.545-0.385,0.726-0.624C397.372,65.591,397.462,65.278,397.462,64.895z"/>
			<path fill="#909090" d="M408.166,64.858c0.416,0,0.766,0.053,1.051,0.156c0.283,0.104,0.514,0.248,0.689,0.432
				c0.176,0.185,0.3,0.408,0.372,0.672c0.071,0.265,0.108,0.553,0.108,0.864v3.48c-0.232,0.04-0.539,0.088-0.918,0.144
				c-0.381,0.056-0.771,0.084-1.17,0.084c-0.305,0-0.601-0.026-0.889-0.078s-0.544-0.144-0.768-0.275
				c-0.225-0.132-0.404-0.314-0.541-0.546c-0.136-0.232-0.203-0.528-0.203-0.889c0-0.319,0.07-0.59,0.209-0.81
				c0.141-0.22,0.32-0.398,0.541-0.534c0.22-0.136,0.472-0.234,0.756-0.294c0.283-0.06,0.57-0.09,0.857-0.09
				c0.393,0,0.776,0.044,1.152,0.132V67.03c0-0.168-0.018-0.33-0.054-0.485c-0.036-0.156-0.104-0.298-0.204-0.427
				c-0.1-0.128-0.236-0.229-0.408-0.306s-0.395-0.114-0.666-0.114c-0.344,0-0.645,0.024-0.9,0.072s-0.451,0.096-0.588,0.145
				l-0.119-0.816c0.135-0.064,0.361-0.12,0.678-0.168S407.807,64.858,408.166,64.858z M408.262,69.851
				c0.248,0,0.471-0.008,0.666-0.024c0.196-0.016,0.358-0.035,0.486-0.06V68.11c-0.128-0.04-0.281-0.071-0.462-0.096
				s-0.37-0.036-0.569-0.036c-0.185,0-0.365,0.014-0.541,0.042s-0.332,0.078-0.468,0.15c-0.136,0.071-0.248,0.166-0.336,0.281
				c-0.088,0.116-0.132,0.263-0.132,0.438c0,0.36,0.121,0.61,0.365,0.75S407.846,69.851,408.262,69.851z"/>
			<path fill="#909090" d="M418.102,64.667c0.408-0.16,0.805-0.362,1.188-0.606s0.739-0.554,1.067-0.93h0.697v6.588h1.403v0.84
				h-3.996v-0.84h1.608v-5.208c-0.088,0.08-0.194,0.162-0.318,0.246s-0.26,0.166-0.408,0.246s-0.302,0.155-0.461,0.228
				c-0.16,0.072-0.316,0.132-0.469,0.18L418.102,64.667z"/>
			<path fill="#909090" d="M423.754,66.839c0-1.248,0.215-2.206,0.643-2.874s1.029-1.002,1.806-1.002
				c0.784,0,1.388,0.334,1.812,1.002s0.637,1.626,0.637,2.874s-0.213,2.206-0.637,2.874s-1.027,1.002-1.812,1.002
				c-0.776,0-1.378-0.334-1.806-1.002S423.754,68.087,423.754,66.839z M427.643,66.839c0-0.408-0.024-0.794-0.072-1.158
				c-0.049-0.364-0.129-0.682-0.24-0.954c-0.111-0.271-0.26-0.488-0.443-0.648c-0.185-0.159-0.412-0.239-0.685-0.239
				s-0.5,0.08-0.685,0.239c-0.184,0.16-0.332,0.377-0.443,0.648c-0.112,0.272-0.191,0.59-0.24,0.954
				c-0.048,0.364-0.072,0.75-0.072,1.158s0.024,0.794,0.072,1.158c0.049,0.363,0.128,0.682,0.24,0.953
				c0.111,0.272,0.26,0.488,0.443,0.648c0.185,0.16,0.412,0.24,0.685,0.24s0.5-0.08,0.685-0.24c0.184-0.16,0.332-0.376,0.443-0.648
				c0.111-0.271,0.191-0.59,0.24-0.953C427.618,67.633,427.643,67.247,427.643,66.839z M426.898,66.707
				c0,0.208-0.062,0.388-0.187,0.54c-0.124,0.151-0.286,0.228-0.485,0.228c-0.209,0-0.377-0.076-0.504-0.228
				c-0.129-0.152-0.192-0.332-0.192-0.54s0.063-0.393,0.192-0.553c0.127-0.159,0.295-0.239,0.504-0.239
				c0.199,0,0.361,0.08,0.485,0.239C426.836,66.314,426.898,66.499,426.898,66.707z"/>
			<path fill="#909090" d="M438.166,64.858c0.416,0,0.766,0.053,1.051,0.156c0.283,0.104,0.514,0.248,0.689,0.432
				c0.176,0.185,0.3,0.408,0.372,0.672c0.071,0.265,0.108,0.553,0.108,0.864v3.48c-0.232,0.04-0.539,0.088-0.918,0.144
				c-0.381,0.056-0.771,0.084-1.17,0.084c-0.305,0-0.601-0.026-0.889-0.078s-0.544-0.144-0.768-0.275
				c-0.225-0.132-0.404-0.314-0.541-0.546c-0.136-0.232-0.203-0.528-0.203-0.889c0-0.319,0.07-0.59,0.209-0.81
				c0.141-0.22,0.32-0.398,0.541-0.534c0.22-0.136,0.472-0.234,0.756-0.294c0.283-0.06,0.57-0.09,0.857-0.09
				c0.393,0,0.776,0.044,1.152,0.132V67.03c0-0.168-0.018-0.33-0.054-0.485c-0.036-0.156-0.104-0.298-0.204-0.427
				c-0.1-0.128-0.236-0.229-0.408-0.306s-0.395-0.114-0.666-0.114c-0.344,0-0.645,0.024-0.9,0.072s-0.451,0.096-0.588,0.145
				l-0.119-0.816c0.135-0.064,0.361-0.12,0.678-0.168S437.807,64.858,438.166,64.858z M438.262,69.851
				c0.248,0,0.471-0.008,0.666-0.024c0.196-0.016,0.358-0.035,0.486-0.06V68.11c-0.128-0.04-0.281-0.071-0.462-0.096
				s-0.37-0.036-0.569-0.036c-0.185,0-0.365,0.014-0.541,0.042s-0.332,0.078-0.468,0.15c-0.136,0.071-0.248,0.166-0.336,0.281
				c-0.088,0.116-0.132,0.263-0.132,0.438c0,0.36,0.121,0.61,0.365,0.75S437.846,69.851,438.262,69.851z"/>
			<path fill="#909090" d="M442.055,65.146c0.359-0.088,0.717-0.156,1.073-0.204s0.69-0.072,1.003-0.072
				c0.743,0,1.305,0.192,1.686,0.576c0.379,0.385,0.57,1,0.57,1.849v3.264h-0.984v-3.084c0-0.36-0.032-0.652-0.096-0.876
				c-0.064-0.224-0.154-0.397-0.271-0.522c-0.116-0.123-0.257-0.21-0.42-0.258c-0.164-0.048-0.343-0.071-0.534-0.071
				c-0.16,0-0.33,0.01-0.51,0.029c-0.18,0.021-0.354,0.046-0.521,0.078v4.704h-0.996V65.146z"/>
			<path fill="#909090" d="M452.723,67.774c0,0.44-0.062,0.838-0.187,1.194c-0.124,0.355-0.298,0.662-0.522,0.918
				c-0.224,0.256-0.492,0.454-0.804,0.594s-0.651,0.21-1.021,0.21c-0.359,0-0.693-0.07-1.002-0.21
				c-0.308-0.14-0.573-0.338-0.797-0.594c-0.225-0.256-0.398-0.562-0.522-0.918c-0.124-0.356-0.187-0.754-0.187-1.194
				c0-0.439,0.062-0.84,0.187-1.2c0.124-0.359,0.298-0.666,0.522-0.918c0.224-0.252,0.489-0.447,0.797-0.588
				c0.309-0.14,0.643-0.21,1.002-0.21c0.369,0,0.709,0.07,1.021,0.21c0.312,0.141,0.58,0.336,0.804,0.588
				c0.225,0.252,0.398,0.559,0.522,0.918C452.66,66.935,452.723,67.335,452.723,67.774z M451.702,67.774
				c0-0.632-0.136-1.13-0.408-1.494c-0.272-0.363-0.64-0.546-1.104-0.546c-0.455,0-0.817,0.183-1.086,0.546
				c-0.268,0.364-0.401,0.862-0.401,1.494c0,0.624,0.134,1.118,0.401,1.482c0.269,0.364,0.631,0.546,1.086,0.546
				c0.465,0,0.832-0.182,1.104-0.546S451.702,68.398,451.702,67.774z"/>
			<path fill="#909090" d="M457.414,69.167c0-0.2-0.082-0.364-0.246-0.492s-0.367-0.24-0.611-0.336
				c-0.244-0.097-0.51-0.19-0.799-0.282c-0.287-0.092-0.554-0.206-0.798-0.342s-0.448-0.304-0.612-0.504s-0.246-0.46-0.246-0.78
				c0-0.448,0.183-0.822,0.547-1.122c0.363-0.3,0.934-0.45,1.709-0.45c0.305,0,0.619,0.022,0.943,0.066
				c0.323,0.044,0.602,0.102,0.834,0.174l-0.181,0.888c-0.063-0.031-0.151-0.065-0.265-0.102c-0.111-0.036-0.239-0.068-0.383-0.096
				c-0.145-0.028-0.299-0.051-0.463-0.066s-0.322-0.024-0.474-0.024c-0.864,0-1.296,0.236-1.296,0.708
				c0,0.168,0.082,0.311,0.246,0.427c0.164,0.115,0.369,0.222,0.617,0.317c0.248,0.097,0.517,0.194,0.805,0.294
				c0.288,0.101,0.556,0.223,0.805,0.366c0.247,0.145,0.453,0.318,0.617,0.522c0.164,0.203,0.246,0.462,0.246,0.773
				c0,0.504-0.196,0.895-0.588,1.17c-0.393,0.276-1.012,0.414-1.86,0.414c-0.384,0-0.735-0.032-1.056-0.096
				c-0.32-0.064-0.624-0.16-0.912-0.288l0.191-0.9c0.281,0.128,0.574,0.234,0.883,0.318c0.308,0.084,0.638,0.126,0.99,0.126
				C456.962,69.851,457.414,69.623,457.414,69.167z"/>
		</g>
	</g>
	<g>
		<g>
			<path d="M353.635,128.59c0.135-0.319,0.321-0.688,0.558-1.104c0.235-0.416,0.501-0.846,0.798-1.29
				c0.296-0.444,0.611-0.88,0.947-1.308c0.336-0.429,0.677-0.814,1.021-1.158h0.96v4.716h0.876v0.815h-0.876v1.896h-0.96v-1.896
				h-3.323V128.59z M356.958,124.906c-0.216,0.232-0.435,0.488-0.653,0.768c-0.221,0.28-0.435,0.574-0.643,0.883
				c-0.208,0.308-0.402,0.622-0.582,0.941c-0.18,0.32-0.342,0.636-0.486,0.948h2.364V124.906z"/>
			<path d="M360.102,125.267c0.408-0.16,0.805-0.362,1.188-0.606s0.739-0.554,1.067-0.93h0.697v6.588h1.403v0.84h-3.996v-0.84h1.608
				v-5.208c-0.088,0.08-0.194,0.162-0.318,0.246s-0.26,0.166-0.408,0.246s-0.302,0.155-0.461,0.228
				c-0.16,0.072-0.316,0.132-0.469,0.18L360.102,125.267z"/>
			<path d="M369.09,130.391c0,0.239-0.08,0.451-0.24,0.636c-0.16,0.184-0.371,0.275-0.635,0.275c-0.273,0-0.488-0.092-0.648-0.275
				c-0.16-0.185-0.24-0.396-0.24-0.636c0-0.248,0.08-0.464,0.24-0.648c0.16-0.184,0.375-0.276,0.648-0.276
				c0.264,0,0.475,0.093,0.635,0.276C369.01,129.927,369.09,130.143,369.09,130.391z"/>
			<path d="M373.434,126.599c1.072,0.04,1.853,0.275,2.34,0.708c0.488,0.432,0.732,1.012,0.732,1.739
				c0,0.328-0.052,0.633-0.156,0.912c-0.104,0.28-0.266,0.521-0.485,0.72c-0.22,0.2-0.5,0.356-0.841,0.469
				c-0.34,0.111-0.741,0.168-1.205,0.168c-0.192,0-0.383-0.015-0.57-0.042c-0.188-0.028-0.365-0.062-0.533-0.103
				s-0.316-0.082-0.445-0.126c-0.127-0.044-0.22-0.082-0.275-0.113l0.191-0.853c0.129,0.064,0.326,0.141,0.595,0.229
				c0.268,0.088,0.606,0.132,1.014,0.132c0.32,0,0.589-0.036,0.804-0.108c0.217-0.072,0.391-0.17,0.522-0.294
				s0.228-0.266,0.288-0.426s0.09-0.328,0.09-0.504c0-0.272-0.046-0.515-0.138-0.727c-0.093-0.212-0.253-0.39-0.479-0.533
				c-0.229-0.145-0.541-0.254-0.937-0.33s-0.894-0.114-1.494-0.114c0.048-0.353,0.086-0.682,0.114-0.99
				c0.027-0.308,0.052-0.607,0.072-0.9c0.02-0.291,0.035-0.581,0.047-0.869c0.013-0.288,0.026-0.593,0.043-0.912h3.576v0.84h-2.713
				c-0.008,0.112-0.018,0.258-0.029,0.438c-0.012,0.181-0.026,0.37-0.043,0.57c-0.016,0.2-0.031,0.393-0.047,0.576
				C373.454,126.338,373.441,126.486,373.434,126.599z"/>
			<path d="M377.418,125.435c0-0.608,0.116-1.07,0.348-1.387c0.232-0.315,0.553-0.474,0.961-0.474s0.728,0.158,0.959,0.474
				c0.232,0.316,0.349,0.778,0.349,1.387c0,0.607-0.116,1.071-0.349,1.392c-0.231,0.32-0.551,0.48-0.959,0.48
				s-0.729-0.16-0.961-0.48C377.534,126.506,377.418,126.042,377.418,125.435z M378.342,131.158h-0.84l4.549-7.428h0.84
				L378.342,131.158z M379.29,125.435c0-0.36-0.048-0.656-0.144-0.889c-0.096-0.231-0.236-0.348-0.42-0.348
				c-0.185,0-0.326,0.116-0.426,0.348c-0.101,0.232-0.15,0.528-0.15,0.889c0,0.359,0.05,0.655,0.15,0.888
				c0.1,0.232,0.241,0.348,0.426,0.348c0.184,0,0.324-0.115,0.42-0.348S379.29,125.794,379.29,125.435z M380.383,129.454
				c0-0.607,0.113-1.069,0.342-1.386c0.228-0.316,0.545-0.475,0.953-0.475s0.729,0.158,0.961,0.475
				c0.231,0.316,0.348,0.778,0.348,1.386c0,0.608-0.116,1.07-0.348,1.386c-0.232,0.316-0.553,0.475-0.961,0.475
				s-0.726-0.158-0.953-0.475C380.496,130.524,380.383,130.062,380.383,129.454z M382.254,129.454c0-0.36-0.05-0.656-0.15-0.888
				c-0.1-0.232-0.241-0.349-0.426-0.349c-0.184,0-0.324,0.116-0.42,0.349c-0.096,0.231-0.144,0.527-0.144,0.888
				s0.048,0.656,0.144,0.888c0.096,0.232,0.236,0.349,0.42,0.349c0.185,0,0.326-0.116,0.426-0.349
				C382.204,130.11,382.254,129.814,382.254,129.454z"/>
		</g>
	</g>
	<g>
		<g>
			<path fill="#909090" d="M394.102,125.267c0.408-0.16,0.805-0.362,1.188-0.606s0.739-0.554,1.067-0.93h0.697v6.588h1.403v0.84
				h-3.996v-0.84h1.608v-5.208c-0.088,0.08-0.194,0.162-0.318,0.246s-0.26,0.166-0.408,0.246s-0.302,0.155-0.461,0.228
				c-0.16,0.072-0.316,0.132-0.469,0.18L394.102,125.267z"/>
			<path fill="#909090" d="M400.102,125.267c0.408-0.16,0.805-0.362,1.188-0.606s0.739-0.554,1.067-0.93h0.697v6.588h1.403v0.84
				h-3.996v-0.84h1.608v-5.208c-0.088,0.08-0.194,0.162-0.318,0.246s-0.26,0.166-0.408,0.246s-0.302,0.155-0.461,0.228
				c-0.16,0.072-0.316,0.132-0.469,0.18L400.102,125.267z"/>
			<path fill="#909090" d="M414.166,125.458c0.416,0,0.766,0.053,1.051,0.156c0.283,0.104,0.514,0.248,0.689,0.432
				c0.176,0.185,0.3,0.408,0.372,0.672c0.071,0.265,0.108,0.553,0.108,0.864v3.48c-0.232,0.04-0.539,0.088-0.918,0.144
				c-0.381,0.056-0.771,0.084-1.17,0.084c-0.305,0-0.601-0.026-0.889-0.078s-0.544-0.144-0.768-0.275
				c-0.225-0.132-0.404-0.314-0.541-0.546c-0.136-0.232-0.203-0.528-0.203-0.889c0-0.319,0.07-0.59,0.209-0.81
				c0.141-0.22,0.32-0.398,0.541-0.534c0.22-0.136,0.472-0.234,0.756-0.294c0.283-0.06,0.57-0.09,0.857-0.09
				c0.393,0,0.776,0.044,1.152,0.132v-0.276c0-0.168-0.018-0.33-0.054-0.485c-0.036-0.156-0.104-0.298-0.204-0.427
				c-0.1-0.128-0.236-0.229-0.408-0.306s-0.395-0.114-0.666-0.114c-0.344,0-0.645,0.024-0.9,0.072s-0.451,0.096-0.588,0.145
				l-0.119-0.816c0.135-0.064,0.361-0.12,0.678-0.168S413.807,125.458,414.166,125.458z M414.262,130.45
				c0.248,0,0.471-0.008,0.666-0.024c0.196-0.016,0.358-0.035,0.486-0.06v-1.656c-0.128-0.04-0.281-0.071-0.462-0.096
				s-0.37-0.036-0.569-0.036c-0.185,0-0.365,0.014-0.541,0.042s-0.332,0.078-0.468,0.15c-0.136,0.071-0.248,0.166-0.336,0.281
				c-0.088,0.116-0.132,0.263-0.132,0.438c0,0.36,0.121,0.61,0.365,0.75S413.846,130.45,414.262,130.45z"/>
			<path fill="#909090" d="M424.102,125.267c0.408-0.16,0.805-0.362,1.188-0.606s0.739-0.554,1.067-0.93h0.697v6.588h1.403v0.84
				h-3.996v-0.84h1.608v-5.208c-0.088,0.08-0.194,0.162-0.318,0.246s-0.26,0.166-0.408,0.246s-0.302,0.155-0.461,0.228
				c-0.16,0.072-0.316,0.132-0.469,0.18L424.102,125.267z"/>
			<path fill="#909090" d="M429.635,128.59c0.135-0.319,0.321-0.688,0.558-1.104c0.235-0.416,0.501-0.846,0.798-1.29
				c0.296-0.444,0.611-0.88,0.947-1.308c0.336-0.429,0.677-0.814,1.021-1.158h0.96v4.716h0.876v0.815h-0.876v1.896h-0.96v-1.896
				h-3.323V128.59z M432.958,124.906c-0.216,0.232-0.435,0.488-0.653,0.768c-0.221,0.28-0.435,0.574-0.643,0.883
				c-0.208,0.308-0.402,0.622-0.582,0.941c-0.18,0.32-0.342,0.636-0.486,0.948h2.364V124.906z"/>
			<path fill="#909090" d="M444.166,125.458c0.416,0,0.766,0.053,1.051,0.156c0.283,0.104,0.514,0.248,0.689,0.432
				c0.176,0.185,0.3,0.408,0.372,0.672c0.071,0.265,0.108,0.553,0.108,0.864v3.48c-0.232,0.04-0.539,0.088-0.918,0.144
				c-0.381,0.056-0.771,0.084-1.17,0.084c-0.305,0-0.601-0.026-0.889-0.078s-0.544-0.144-0.768-0.275
				c-0.225-0.132-0.404-0.314-0.541-0.546c-0.136-0.232-0.203-0.528-0.203-0.889c0-0.319,0.07-0.59,0.209-0.81
				c0.141-0.22,0.32-0.398,0.541-0.534c0.22-0.136,0.472-0.234,0.756-0.294c0.283-0.06,0.57-0.09,0.857-0.09
				c0.393,0,0.776,0.044,1.152,0.132v-0.276c0-0.168-0.018-0.33-0.054-0.485c-0.036-0.156-0.104-0.298-0.204-0.427
				c-0.1-0.128-0.236-0.229-0.408-0.306s-0.395-0.114-0.666-0.114c-0.344,0-0.645,0.024-0.9,0.072s-0.451,0.096-0.588,0.145
				l-0.119-0.816c0.135-0.064,0.361-0.12,0.678-0.168S443.807,125.458,444.166,125.458z M444.262,130.45
				c0.248,0,0.471-0.008,0.666-0.024c0.196-0.016,0.358-0.035,0.486-0.06v-1.656c-0.128-0.04-0.281-0.071-0.462-0.096
				s-0.37-0.036-0.569-0.036c-0.185,0-0.365,0.014-0.541,0.042s-0.332,0.078-0.468,0.15c-0.136,0.071-0.248,0.166-0.336,0.281
				c-0.088,0.116-0.132,0.263-0.132,0.438c0,0.36,0.121,0.61,0.365,0.75S443.846,130.45,444.262,130.45z"/>
			<path fill="#909090" d="M448.055,125.746c0.359-0.088,0.717-0.156,1.073-0.204s0.69-0.072,1.003-0.072
				c0.743,0,1.305,0.192,1.686,0.576c0.379,0.385,0.57,1,0.57,1.849v3.264h-0.984v-3.084c0-0.36-0.032-0.652-0.096-0.876
				c-0.064-0.224-0.154-0.397-0.271-0.522c-0.116-0.123-0.257-0.21-0.42-0.258c-0.164-0.048-0.343-0.071-0.534-0.071
				c-0.16,0-0.33,0.01-0.51,0.029c-0.18,0.021-0.354,0.046-0.521,0.078v4.704h-0.996V125.746z"/>
			<path fill="#909090" d="M458.723,128.374c0,0.44-0.062,0.838-0.187,1.194c-0.124,0.355-0.298,0.662-0.522,0.918
				c-0.224,0.256-0.492,0.454-0.804,0.594s-0.651,0.21-1.021,0.21c-0.359,0-0.693-0.07-1.002-0.21
				c-0.308-0.14-0.573-0.338-0.797-0.594c-0.225-0.256-0.398-0.562-0.522-0.918c-0.124-0.356-0.187-0.754-0.187-1.194
				c0-0.439,0.062-0.84,0.187-1.2c0.124-0.359,0.298-0.666,0.522-0.918c0.224-0.252,0.489-0.447,0.797-0.588
				c0.309-0.14,0.643-0.21,1.002-0.21c0.369,0,0.709,0.07,1.021,0.21c0.312,0.141,0.58,0.336,0.804,0.588
				c0.225,0.252,0.398,0.559,0.522,0.918C458.66,127.534,458.723,127.935,458.723,128.374z M457.702,128.374
				c0-0.632-0.136-1.13-0.408-1.494c-0.272-0.363-0.64-0.546-1.104-0.546c-0.455,0-0.817,0.183-1.086,0.546
				c-0.268,0.364-0.401,0.862-0.401,1.494c0,0.624,0.134,1.118,0.401,1.482c0.269,0.364,0.631,0.546,1.086,0.546
				c0.465,0,0.832-0.182,1.104-0.546S457.702,128.998,457.702,128.374z"/>
			<path fill="#909090" d="M463.414,129.767c0-0.2-0.082-0.364-0.246-0.492s-0.367-0.24-0.611-0.336
				c-0.244-0.097-0.51-0.19-0.799-0.282c-0.287-0.092-0.554-0.206-0.798-0.342s-0.448-0.304-0.612-0.504s-0.246-0.46-0.246-0.78
				c0-0.448,0.183-0.822,0.547-1.122c0.363-0.3,0.934-0.45,1.709-0.45c0.305,0,0.619,0.022,0.943,0.066
				c0.323,0.044,0.602,0.102,0.834,0.174l-0.181,0.888c-0.063-0.031-0.151-0.065-0.265-0.102c-0.111-0.036-0.239-0.068-0.383-0.096
				c-0.145-0.028-0.299-0.051-0.463-0.066s-0.322-0.024-0.474-0.024c-0.864,0-1.296,0.236-1.296,0.708
				c0,0.168,0.082,0.311,0.246,0.427c0.164,0.115,0.369,0.222,0.617,0.317c0.248,0.097,0.517,0.194,0.805,0.294
				c0.288,0.101,0.556,0.223,0.805,0.366c0.247,0.145,0.453,0.318,0.617,0.522c0.164,0.203,0.246,0.462,0.246,0.773
				c0,0.504-0.196,0.895-0.588,1.17c-0.393,0.276-1.012,0.414-1.86,0.414c-0.384,0-0.735-0.032-1.056-0.096
				c-0.32-0.064-0.624-0.16-0.912-0.288l0.191-0.9c0.281,0.128,0.574,0.234,0.883,0.318c0.308,0.084,0.638,0.126,0.99,0.126
				C462.962,130.45,463.414,130.223,463.414,129.767z"/>
		</g>
	</g>
	<g>
		<g>
			<path d="M354.102,182.467c0.408-0.16,0.805-0.361,1.188-0.605s0.739-0.555,1.067-0.93h0.697v6.588h1.403v0.84h-3.996v-0.84h1.608
				v-5.209c-0.088,0.08-0.194,0.162-0.318,0.246s-0.26,0.166-0.408,0.246s-0.302,0.156-0.461,0.229
				c-0.16,0.072-0.316,0.131-0.469,0.18L354.102,182.467z"/>
			<path d="M361.434,183.799c1.072,0.041,1.853,0.275,2.34,0.709c0.488,0.432,0.732,1.012,0.732,1.738
				c0,0.328-0.052,0.633-0.156,0.912c-0.104,0.281-0.266,0.521-0.485,0.721s-0.5,0.355-0.841,0.469
				c-0.34,0.111-0.741,0.168-1.205,0.168c-0.192,0-0.383-0.016-0.57-0.043s-0.365-0.062-0.533-0.102
				c-0.168-0.041-0.316-0.082-0.445-0.127c-0.127-0.043-0.22-0.082-0.275-0.113l0.191-0.852c0.129,0.064,0.326,0.141,0.595,0.229
				c0.268,0.088,0.606,0.131,1.014,0.131c0.32,0,0.589-0.035,0.804-0.107c0.217-0.072,0.391-0.17,0.522-0.295
				c0.132-0.123,0.228-0.266,0.288-0.426s0.09-0.328,0.09-0.504c0-0.271-0.046-0.514-0.138-0.727
				c-0.093-0.211-0.253-0.389-0.479-0.533c-0.229-0.145-0.541-0.254-0.937-0.33s-0.894-0.113-1.494-0.113
				c0.048-0.354,0.086-0.682,0.114-0.99c0.027-0.309,0.052-0.607,0.072-0.9c0.02-0.291,0.035-0.582,0.047-0.869
				c0.013-0.289,0.026-0.594,0.043-0.912h3.576v0.84h-2.713c-0.008,0.111-0.018,0.258-0.029,0.438s-0.026,0.369-0.043,0.57
				c-0.016,0.199-0.031,0.393-0.047,0.576C361.454,183.539,361.441,183.688,361.434,183.799z"/>
			<path d="M369.09,187.592c0,0.238-0.08,0.451-0.24,0.635s-0.371,0.275-0.635,0.275c-0.273,0-0.488-0.092-0.648-0.275
				s-0.24-0.396-0.24-0.635c0-0.248,0.08-0.465,0.24-0.648s0.375-0.277,0.648-0.277c0.264,0,0.475,0.094,0.635,0.277
				S369.09,187.344,369.09,187.592z"/>
			<path d="M373.062,188.359c0.039-0.568,0.142-1.17,0.306-1.807s0.362-1.252,0.594-1.848s0.488-1.148,0.769-1.656
				c0.279-0.508,0.556-0.926,0.828-1.254h-3.601v-0.863h4.704v0.828c-0.24,0.279-0.5,0.654-0.779,1.127
				c-0.281,0.473-0.547,1.002-0.799,1.59s-0.47,1.217-0.654,1.885c-0.184,0.668-0.299,1.334-0.348,1.998H373.062z"/>
			<path d="M377.418,182.635c0-0.607,0.116-1.07,0.348-1.387c0.232-0.314,0.553-0.473,0.961-0.473s0.728,0.158,0.959,0.473
				c0.232,0.316,0.349,0.779,0.349,1.387s-0.116,1.072-0.349,1.393c-0.231,0.32-0.551,0.48-0.959,0.48s-0.729-0.16-0.961-0.48
				C377.534,183.707,377.418,183.242,377.418,182.635z M378.342,188.359h-0.84l4.549-7.428h0.84L378.342,188.359z M379.29,182.635
				c0-0.359-0.048-0.656-0.144-0.889c-0.096-0.23-0.236-0.348-0.42-0.348c-0.185,0-0.326,0.117-0.426,0.348
				c-0.101,0.232-0.15,0.529-0.15,0.889s0.05,0.656,0.15,0.889c0.1,0.232,0.241,0.348,0.426,0.348c0.184,0,0.324-0.115,0.42-0.348
				S379.29,182.994,379.29,182.635z M380.383,186.654c0-0.607,0.113-1.068,0.342-1.385c0.228-0.316,0.545-0.475,0.953-0.475
				s0.729,0.158,0.961,0.475c0.231,0.316,0.348,0.777,0.348,1.385c0,0.609-0.116,1.07-0.348,1.387
				c-0.232,0.316-0.553,0.475-0.961,0.475s-0.726-0.158-0.953-0.475C380.496,187.725,380.383,187.264,380.383,186.654z
				 M382.254,186.654c0-0.359-0.05-0.656-0.15-0.887c-0.1-0.232-0.241-0.35-0.426-0.35c-0.184,0-0.324,0.117-0.42,0.35
				c-0.096,0.23-0.144,0.527-0.144,0.887c0,0.361,0.048,0.656,0.144,0.889s0.236,0.348,0.42,0.348c0.185,0,0.326-0.115,0.426-0.348
				C382.204,187.311,382.254,187.016,382.254,186.654z"/>
		</g>
	</g>
	<g>
		<g>
			<path fill="#909090" d="M394.102,182.467c0.408-0.16,0.805-0.361,1.188-0.605s0.739-0.555,1.067-0.93h0.697v6.588h1.403v0.84
				h-3.996v-0.84h1.608v-5.209c-0.088,0.08-0.194,0.162-0.318,0.246s-0.26,0.166-0.408,0.246s-0.302,0.156-0.461,0.229
				c-0.16,0.072-0.316,0.131-0.469,0.18L394.102,182.467z"/>
			<path fill="#909090" d="M401.434,183.799c1.072,0.041,1.853,0.275,2.34,0.709c0.488,0.432,0.732,1.012,0.732,1.738
				c0,0.328-0.052,0.633-0.156,0.912c-0.104,0.281-0.266,0.521-0.485,0.721s-0.5,0.355-0.841,0.469
				c-0.34,0.111-0.741,0.168-1.205,0.168c-0.192,0-0.383-0.016-0.57-0.043s-0.365-0.062-0.533-0.102
				c-0.168-0.041-0.316-0.082-0.445-0.127c-0.127-0.043-0.22-0.082-0.275-0.113l0.191-0.852c0.129,0.064,0.326,0.141,0.595,0.229
				c0.268,0.088,0.606,0.131,1.014,0.131c0.32,0,0.589-0.035,0.804-0.107c0.217-0.072,0.391-0.17,0.522-0.295
				c0.132-0.123,0.228-0.266,0.288-0.426s0.09-0.328,0.09-0.504c0-0.271-0.046-0.514-0.138-0.727
				c-0.093-0.211-0.253-0.389-0.479-0.533c-0.229-0.145-0.541-0.254-0.937-0.33s-0.894-0.113-1.494-0.113
				c0.048-0.354,0.086-0.682,0.114-0.99c0.027-0.309,0.052-0.607,0.072-0.9c0.02-0.291,0.035-0.582,0.047-0.869
				c0.013-0.289,0.026-0.594,0.043-0.912h3.576v0.84h-2.713c-0.008,0.111-0.018,0.258-0.029,0.438s-0.026,0.369-0.043,0.57
				c-0.016,0.199-0.031,0.393-0.047,0.576C401.454,183.539,401.441,183.688,401.434,183.799z"/>
			<path fill="#909090" d="M414.166,182.658c0.416,0,0.766,0.053,1.051,0.156c0.283,0.105,0.514,0.248,0.689,0.432
				c0.176,0.186,0.3,0.408,0.372,0.672c0.071,0.266,0.108,0.553,0.108,0.865v3.48c-0.232,0.039-0.539,0.088-0.918,0.143
				c-0.381,0.057-0.771,0.084-1.17,0.084c-0.305,0-0.601-0.025-0.889-0.078c-0.288-0.051-0.544-0.143-0.768-0.275
				c-0.225-0.131-0.404-0.314-0.541-0.545c-0.136-0.232-0.203-0.529-0.203-0.889c0-0.32,0.07-0.59,0.209-0.811
				c0.141-0.219,0.32-0.398,0.541-0.533c0.22-0.137,0.472-0.234,0.756-0.295c0.283-0.059,0.57-0.09,0.857-0.09
				c0.393,0,0.776,0.045,1.152,0.133v-0.277c0-0.168-0.018-0.33-0.054-0.484c-0.036-0.156-0.104-0.299-0.204-0.428
				c-0.1-0.127-0.236-0.229-0.408-0.305s-0.395-0.115-0.666-0.115c-0.344,0-0.645,0.025-0.9,0.072
				c-0.256,0.049-0.451,0.096-0.588,0.145l-0.119-0.816c0.135-0.064,0.361-0.119,0.678-0.168
				C413.469,182.684,413.807,182.658,414.166,182.658z M414.262,187.65c0.248,0,0.471-0.008,0.666-0.023
				c0.196-0.016,0.358-0.035,0.486-0.061v-1.656c-0.128-0.039-0.281-0.07-0.462-0.096c-0.181-0.023-0.37-0.035-0.569-0.035
				c-0.185,0-0.365,0.014-0.541,0.041c-0.176,0.029-0.332,0.078-0.468,0.15s-0.248,0.166-0.336,0.281
				c-0.088,0.117-0.132,0.264-0.132,0.439c0,0.359,0.121,0.609,0.365,0.75C413.516,187.58,413.846,187.65,414.262,187.65z"/>
			<path fill="#909090" d="M418.055,182.947c0.359-0.088,0.717-0.156,1.073-0.205c0.356-0.047,0.69-0.072,1.003-0.072
				c0.743,0,1.305,0.193,1.686,0.576c0.379,0.385,0.57,1,0.57,1.85v3.264h-0.984v-3.084c0-0.361-0.032-0.652-0.096-0.877
				c-0.064-0.223-0.154-0.396-0.271-0.521c-0.116-0.123-0.257-0.211-0.42-0.258c-0.164-0.049-0.343-0.072-0.534-0.072
				c-0.16,0-0.33,0.01-0.51,0.029c-0.18,0.021-0.354,0.047-0.521,0.078v4.705h-0.996V182.947z"/>
			<path fill="#909090" d="M428.723,185.574c0,0.441-0.062,0.838-0.187,1.195c-0.124,0.355-0.298,0.662-0.522,0.918
				c-0.224,0.256-0.492,0.453-0.804,0.594c-0.312,0.139-0.651,0.209-1.021,0.209c-0.359,0-0.693-0.07-1.002-0.209
				c-0.308-0.141-0.573-0.338-0.797-0.594c-0.225-0.256-0.398-0.562-0.522-0.918c-0.124-0.357-0.187-0.754-0.187-1.195
				c0-0.439,0.062-0.84,0.187-1.199s0.298-0.666,0.522-0.918c0.224-0.252,0.489-0.447,0.797-0.588
				c0.309-0.141,0.643-0.211,1.002-0.211c0.369,0,0.709,0.07,1.021,0.211s0.58,0.336,0.804,0.588
				c0.225,0.252,0.398,0.559,0.522,0.918S428.723,185.135,428.723,185.574z M427.702,185.574c0-0.631-0.136-1.129-0.408-1.494
				c-0.272-0.363-0.64-0.545-1.104-0.545c-0.455,0-0.817,0.182-1.086,0.545c-0.268,0.365-0.401,0.863-0.401,1.494
				c0,0.625,0.134,1.119,0.401,1.482c0.269,0.365,0.631,0.547,1.086,0.547c0.465,0,0.832-0.182,1.104-0.547
				C427.566,186.693,427.702,186.199,427.702,185.574z"/>
			<path fill="#909090" d="M433.414,186.967c0-0.199-0.082-0.363-0.246-0.492c-0.164-0.127-0.367-0.24-0.611-0.336
				s-0.51-0.189-0.799-0.281c-0.287-0.092-0.554-0.207-0.798-0.342c-0.244-0.137-0.448-0.305-0.612-0.504
				c-0.164-0.201-0.246-0.461-0.246-0.781c0-0.447,0.183-0.822,0.547-1.121c0.363-0.301,0.934-0.451,1.709-0.451
				c0.305,0,0.619,0.023,0.943,0.066c0.323,0.045,0.602,0.102,0.834,0.174l-0.181,0.889c-0.063-0.031-0.151-0.066-0.265-0.102
				c-0.111-0.037-0.239-0.068-0.383-0.096c-0.145-0.029-0.299-0.051-0.463-0.066s-0.322-0.025-0.474-0.025
				c-0.864,0-1.296,0.236-1.296,0.709c0,0.168,0.082,0.311,0.246,0.426s0.369,0.223,0.617,0.318s0.517,0.193,0.805,0.293
				c0.288,0.102,0.556,0.223,0.805,0.367c0.247,0.145,0.453,0.318,0.617,0.521s0.246,0.463,0.246,0.773
				c0,0.504-0.196,0.895-0.588,1.17c-0.393,0.277-1.012,0.414-1.86,0.414c-0.384,0-0.735-0.031-1.056-0.096s-0.624-0.16-0.912-0.287
				l0.191-0.9c0.281,0.127,0.574,0.234,0.883,0.318c0.308,0.084,0.638,0.125,0.99,0.125
				C432.962,187.65,433.414,187.424,433.414,186.967z"/>
			<path fill="#909090" d="M446.723,185.574c0,0.441-0.062,0.838-0.187,1.195c-0.124,0.355-0.298,0.662-0.522,0.918
				c-0.224,0.256-0.492,0.453-0.804,0.594c-0.312,0.139-0.651,0.209-1.021,0.209c-0.359,0-0.693-0.07-1.002-0.209
				c-0.308-0.141-0.573-0.338-0.797-0.594c-0.225-0.256-0.398-0.562-0.522-0.918c-0.124-0.357-0.187-0.754-0.187-1.195
				c0-0.439,0.062-0.84,0.187-1.199s0.298-0.666,0.522-0.918c0.224-0.252,0.489-0.447,0.797-0.588
				c0.309-0.141,0.643-0.211,1.002-0.211c0.369,0,0.709,0.07,1.021,0.211s0.58,0.336,0.804,0.588
				c0.225,0.252,0.398,0.559,0.522,0.918S446.723,185.135,446.723,185.574z M445.702,185.574c0-0.631-0.136-1.129-0.408-1.494
				c-0.272-0.363-0.64-0.545-1.104-0.545c-0.455,0-0.817,0.182-1.086,0.545c-0.268,0.365-0.401,0.863-0.401,1.494
				c0,0.625,0.134,1.119,0.401,1.482c0.269,0.365,0.631,0.547,1.086,0.547c0.465,0,0.832-0.182,1.104-0.547
				C445.566,186.693,445.702,186.199,445.702,185.574z"/>
			<path fill="#909090" d="M452.35,188.203c-0.215,0.057-0.502,0.115-0.857,0.18s-0.773,0.096-1.254,0.096
				c-0.424,0-0.776-0.062-1.057-0.186c-0.279-0.123-0.508-0.301-0.684-0.527c-0.176-0.229-0.3-0.498-0.372-0.811
				c-0.071-0.312-0.108-0.656-0.108-1.031v-3.133h0.984v2.916c0,0.688,0.102,1.176,0.307,1.463c0.203,0.289,0.545,0.434,1.025,0.434
				c0.104,0,0.21-0.004,0.318-0.012c0.107-0.008,0.21-0.02,0.306-0.031c0.097-0.012,0.181-0.023,0.252-0.035
				c0.072-0.012,0.12-0.021,0.144-0.031v-4.703h0.996V188.203z"/>
			<path fill="#909090" d="M459.694,182.947c0.479-0.184,0.932-0.277,1.356-0.277c0.231,0,0.449,0.035,0.653,0.104
				s0.378,0.174,0.522,0.318c0.344-0.281,0.711-0.422,1.104-0.422c0.191,0,0.374,0.037,0.546,0.109s0.324,0.18,0.456,0.324
				c0.133,0.143,0.238,0.324,0.318,0.539c0.08,0.217,0.119,0.469,0.119,0.756v3.961h-0.899v-3.984c0-0.289-0.063-0.508-0.192-0.66
				c-0.127-0.152-0.287-0.229-0.479-0.229c-0.097,0-0.196,0.025-0.3,0.072c-0.104,0.049-0.2,0.125-0.288,0.229
				c0.048,0.184,0.071,0.389,0.071,0.611v1.812h-0.899v-1.824c0-0.279-0.044-0.5-0.132-0.66s-0.26-0.24-0.516-0.24
				c-0.16,0-0.341,0.037-0.541,0.109v4.764h-0.899V182.947z"/>
			<path fill="#909090" d="M468.166,182.658c0.416,0,0.766,0.053,1.051,0.156c0.283,0.105,0.514,0.248,0.689,0.432
				c0.176,0.186,0.3,0.408,0.372,0.672c0.071,0.266,0.108,0.553,0.108,0.865v3.48c-0.232,0.039-0.539,0.088-0.918,0.143
				c-0.381,0.057-0.771,0.084-1.17,0.084c-0.305,0-0.601-0.025-0.889-0.078c-0.288-0.051-0.544-0.143-0.768-0.275
				c-0.225-0.131-0.404-0.314-0.541-0.545c-0.136-0.232-0.203-0.529-0.203-0.889c0-0.32,0.07-0.59,0.209-0.811
				c0.141-0.219,0.32-0.398,0.541-0.533c0.22-0.137,0.472-0.234,0.756-0.295c0.283-0.059,0.57-0.09,0.857-0.09
				c0.393,0,0.776,0.045,1.152,0.133v-0.277c0-0.168-0.018-0.33-0.054-0.484c-0.036-0.156-0.104-0.299-0.204-0.428
				c-0.1-0.127-0.236-0.229-0.408-0.305s-0.395-0.115-0.666-0.115c-0.344,0-0.645,0.025-0.9,0.072
				c-0.256,0.049-0.451,0.096-0.588,0.145l-0.119-0.816c0.135-0.064,0.361-0.119,0.678-0.168
				C467.469,182.684,467.807,182.658,468.166,182.658z M468.262,187.65c0.248,0,0.471-0.008,0.666-0.023
				c0.196-0.016,0.358-0.035,0.486-0.061v-1.656c-0.128-0.039-0.281-0.07-0.462-0.096c-0.181-0.023-0.37-0.035-0.569-0.035
				c-0.185,0-0.365,0.014-0.541,0.041c-0.176,0.029-0.332,0.078-0.468,0.15s-0.248,0.166-0.336,0.281
				c-0.088,0.117-0.132,0.264-0.132,0.439c0,0.359,0.121,0.609,0.365,0.75C467.516,187.58,467.846,187.65,468.262,187.65z"/>
			<path fill="#909090" d="M473.458,183.619h-1.608v-0.828h2.593v3.42c0,0.553,0.075,0.922,0.228,1.109
				c0.152,0.189,0.38,0.283,0.684,0.283c0.232,0,0.446-0.029,0.643-0.084c0.195-0.057,0.35-0.117,0.462-0.18l0.144,0.84
				c-0.047,0.023-0.115,0.053-0.203,0.09c-0.088,0.035-0.19,0.07-0.307,0.102c-0.115,0.031-0.244,0.061-0.384,0.084
				s-0.286,0.035-0.438,0.035c-0.352,0-0.644-0.047-0.875-0.143c-0.232-0.098-0.418-0.24-0.559-0.434
				c-0.14-0.191-0.238-0.43-0.294-0.713s-0.084-0.613-0.084-0.99V183.619z M473.71,181.928c-0.208,0-0.388-0.072-0.54-0.217
				s-0.228-0.34-0.228-0.588s0.075-0.443,0.228-0.588s0.332-0.217,0.54-0.217c0.216,0,0.397,0.072,0.546,0.217
				s0.223,0.34,0.223,0.588s-0.074,0.443-0.223,0.588S473.926,181.928,473.71,181.928z"/>
			<path fill="#909090" d="M481.414,186.967c0-0.199-0.082-0.363-0.246-0.492c-0.164-0.127-0.367-0.24-0.611-0.336
				s-0.51-0.189-0.799-0.281c-0.287-0.092-0.554-0.207-0.798-0.342c-0.244-0.137-0.448-0.305-0.612-0.504
				c-0.164-0.201-0.246-0.461-0.246-0.781c0-0.447,0.183-0.822,0.547-1.121c0.363-0.301,0.934-0.451,1.709-0.451
				c0.305,0,0.619,0.023,0.943,0.066c0.323,0.045,0.602,0.102,0.834,0.174l-0.181,0.889c-0.063-0.031-0.151-0.066-0.265-0.102
				c-0.111-0.037-0.239-0.068-0.383-0.096c-0.145-0.029-0.299-0.051-0.463-0.066s-0.322-0.025-0.474-0.025
				c-0.864,0-1.296,0.236-1.296,0.709c0,0.168,0.082,0.311,0.246,0.426s0.369,0.223,0.617,0.318s0.517,0.193,0.805,0.293
				c0.288,0.102,0.556,0.223,0.805,0.367c0.247,0.145,0.453,0.318,0.617,0.521s0.246,0.463,0.246,0.773
				c0,0.504-0.196,0.895-0.588,1.17c-0.393,0.277-1.012,0.414-1.86,0.414c-0.384,0-0.735-0.031-1.056-0.096s-0.624-0.16-0.912-0.287
				l0.191-0.9c0.281,0.127,0.574,0.234,0.883,0.318c0.308,0.084,0.638,0.125,0.99,0.125
				C480.962,187.65,481.414,187.424,481.414,186.967z"/>
		</g>
	</g>
</g>
<path opacity="0.8" fill="#41B3C6" d="M98.28,104c0,8.883-7.195,16.078-16.078,16.078S66.124,112.883,66.124,104
	s7.195-16.078,16.078-16.078S98.28,95.117,98.28,104z"/>
<path opacity="0.8" fill="#41B3C6" d="M167.001,104.006c0,15.902-12.891,28.793-28.799,28.793s-28.799-12.891-28.799-28.793
	c0-15.914,12.891-28.805,28.799-28.805S167.001,88.092,167.001,104.006z"/>
<path opacity="0.8" fill="#41B3C6" d="M215.842,104c0,16.371-13.271,29.637-29.637,29.637c-16.371,0-29.643-13.266-29.643-29.637
	s13.271-29.637,29.643-29.637C202.57,74.363,215.842,87.629,215.842,104z"/>
<path opacity="0.8" fill="#41B3C6" d="M285.884,104.006c0,24.117-19.553,43.676-43.682,43.676s-43.682-19.559-43.682-43.676
	c0-24.129,19.553-43.688,43.682-43.688S285.884,79.877,285.884,104.006z"/>
<g>
	<path fill="#B291CE" d="M64.202,178v13h-10.5c-0.828,0-1.5-0.672-1.5-1.5s0.672-1.5,1.5-1.5h9.5v-12h-10c-1.1,0-2,0.9-2,2v12
		c0,1.1,0.9,2,2,2h12v-14H64.202z M54.202,189h9v1h-9V189z"/>
	<path fill="#B291CE" d="M80.202,178v13h-10.5c-0.828,0-1.5-0.672-1.5-1.5s0.672-1.5,1.5-1.5h9.5v-12h-10c-1.1,0-2,0.9-2,2v12
		c0,1.1,0.9,2,2,2h12v-14H80.202z M70.202,189h9v1h-9V189z"/>
	<path fill="#B291CE" d="M96.202,178v13h-10.5c-0.828,0-1.5-0.672-1.5-1.5s0.672-1.5,1.5-1.5h9.5v-12h-10c-1.1,0-2,0.9-2,2v12
		c0,1.1,0.9,2,2,2h12v-14H96.202z M86.202,189h9v1h-9V189z"/>
	<path fill="#B291CE" d="M112.202,178v13h-10.5c-0.828,0-1.5-0.672-1.5-1.5s0.672-1.5,1.5-1.5h9.5v-12h-10c-1.1,0-2,0.9-2,2v12
		c0,1.1,0.9,2,2,2h12v-14H112.202z M102.202,189h9v1h-9V189z"/>
	<path fill="#9C78A0" d="M128.202,178v13h-10.5c-0.828,0-1.5-0.672-1.5-1.5s0.672-1.5,1.5-1.5h9.5v-12h-10c-1.1,0-2,0.9-2,2v12
		c0,1.1,0.9,2,2,2h12v-14H128.202z M118.202,189h9v1h-9V189z"/>
	<path fill="#9C78A0" d="M144.202,178v13h-10.5c-0.828,0-1.5-0.672-1.5-1.5s0.672-1.5,1.5-1.5h9.5v-12h-10c-1.1,0-2,0.9-2,2v12
		c0,1.1,0.9,2,2,2h12v-14H144.202z M134.202,189h9v1h-9V189z"/>
	<path fill="#9C78A0" d="M160.202,178v13h-10.5c-0.828,0-1.5-0.672-1.5-1.5s0.672-1.5,1.5-1.5h9.5v-12h-10c-1.1,0-2,0.9-2,2v12
		c0,1.1,0.9,2,2,2h12v-14H160.202z M150.202,189h9v1h-9V189z"/>
	<path fill="#B291CE" d="M176.202,178v13h-10.5c-0.828,0-1.5-0.672-1.5-1.5s0.672-1.5,1.5-1.5h9.5v-12h-10c-1.1,0-2,0.9-2,2v12
		c0,1.1,0.9,2,2,2h12v-14H176.202z M166.202,189h9v1h-9V189z"/>
	<path fill="#B291CE" d="M192.202,178v13h-10.5c-0.828,0-1.5-0.672-1.5-1.5s0.672-1.5,1.5-1.5h9.5v-12h-10c-1.1,0-2,0.9-2,2v12
		c0,1.1,0.9,2,2,2h12v-14H192.202z M182.202,189h9v1h-9V189z"/>
	<path fill="#B291CE" d="M208.202,178v13h-10.5c-0.828,0-1.5-0.672-1.5-1.5s0.672-1.5,1.5-1.5h9.5v-12h-10c-1.1,0-2,0.9-2,2v12
		c0,1.1,0.9,2,2,2h12v-14H208.202z M198.202,189h9v1h-9V189z"/>
	<path fill="#9C78A0" d="M224.202,178v13h-10.5c-0.828,0-1.5-0.672-1.5-1.5s0.672-1.5,1.5-1.5h9.5v-12h-10c-1.1,0-2,0.9-2,2v12
		c0,1.1,0.9,2,2,2h12v-14H224.202z M214.202,189h9v1h-9V189z"/>
	<path fill="#9C78A0" d="M240.202,178v13h-10.5c-0.828,0-1.5-0.672-1.5-1.5s0.672-1.5,1.5-1.5h9.5v-12h-10c-1.1,0-2,0.9-2,2v12
		c0,1.1,0.9,2,2,2h12v-14H240.202z M230.202,189h9v1h-9V189z"/>
	<path fill="#9C78A0" d="M256.202,178v13h-10.5c-0.828,0-1.5-0.672-1.5-1.5s0.672-1.5,1.5-1.5h9.5v-12h-10c-1.1,0-2,0.9-2,2v12
		c0,1.1,0.9,2,2,2h12v-14H256.202z M246.202,189h9v1h-9V189z"/>
	<path fill="#9C78A0" d="M272.202,178v13h-10.5c-0.828,0-1.5-0.672-1.5-1.5s0.672-1.5,1.5-1.5h9.5v-12h-10c-1.1,0-2,0.9-2,2v12
		c0,1.1,0.9,2,2,2h12v-14H272.202z M262.202,189h9v1h-9V189z"/>
	<path fill="#B291CE" d="M288.202,178v13h-10.5c-0.828,0-1.5-0.672-1.5-1.5s0.672-1.5,1.5-1.5h9.5v-12h-10c-1.1,0-2,0.9-2,2v12
		c0,1.1,0.9,2,2,2h12v-14H288.202z M278.202,189h9v1h-9V189z"/>
	<circle fill="#B291CE" cx="294.202" cy="184" r="3"/>
	<circle fill="#B291CE" cx="302.202" cy="184" r="3"/>
	<circle fill="#B291CE" cx="310.202" cy="184" r="3"/>
</g>
<line fill="none" stroke="#B291CE" stroke-linecap="round" stroke-miterlimit="10" x1="113.202" y1="168" x2="51.202" y2="168"/>
<line fill="none" stroke="#9C78A0" stroke-linecap="round" stroke-miterlimit="10" x1="161.202" y1="168" x2="115.202" y2="168"/>
<line fill="none" stroke="#B291CE" stroke-linecap="round" stroke-miterlimit="10" x1="209.202" y1="168" x2="163.202" y2="168"/>
<line fill="none" stroke="#9C78A0" stroke-linecap="round" stroke-miterlimit="10" x1="273.202" y1="168" x2="211.202" y2="168"/>
<line fill="none" stroke="#B291CE" stroke-linecap="round" stroke-miterlimit="10" x1="313.202" y1="168" x2="275.202" y2="168"/>
<line fill="none" stroke="#B291CE" stroke-linecap="round" stroke-miterlimit="10" x1="113.202" y1="200" x2="51.202" y2="200"/>
<g>
	<g>
		<g>
			<path fill="#909090" d="M127.05,216l-0.444-1.944h-2.856L123.318,216h-1.008c0.136-0.528,0.288-1.1,0.456-1.716
				s0.35-1.248,0.546-1.896c0.196-0.647,0.402-1.298,0.618-1.949c0.216-0.652,0.444-1.274,0.684-1.866h1.224
				c0.232,0.592,0.454,1.214,0.666,1.866c0.212,0.651,0.412,1.302,0.6,1.949c0.188,0.648,0.366,1.28,0.534,1.896
				s0.32,1.188,0.456,1.716H127.05z M125.19,209.436c-0.184,0.505-0.384,1.089-0.6,1.753c-0.216,0.664-0.42,1.348-0.612,2.052h2.4
				c-0.184-0.721-0.382-1.414-0.594-2.082S125.374,209.916,125.19,209.436z"/>
			<path fill="#909090" d="M129.054,210.588c0.36-0.088,0.718-0.156,1.074-0.204s0.69-0.072,1.002-0.072
				c0.744,0,1.306,0.192,1.686,0.576c0.38,0.385,0.57,1,0.57,1.849V216h-0.984v-3.084c0-0.36-0.032-0.652-0.096-0.876
				s-0.154-0.397-0.27-0.522c-0.116-0.123-0.256-0.21-0.42-0.258c-0.164-0.048-0.342-0.071-0.534-0.071
				c-0.16,0-0.33,0.01-0.51,0.029c-0.18,0.021-0.354,0.046-0.522,0.078V216h-0.996V210.588z"/>
			<path fill="#909090" d="M139.722,213.216c0,0.44-0.062,0.838-0.186,1.194c-0.124,0.355-0.298,0.662-0.522,0.918
				c-0.224,0.256-0.492,0.454-0.804,0.594s-0.652,0.21-1.02,0.21c-0.36,0-0.694-0.07-1.002-0.21s-0.574-0.338-0.798-0.594
				s-0.398-0.562-0.522-0.918c-0.124-0.356-0.186-0.754-0.186-1.194c0-0.439,0.062-0.84,0.186-1.2
				c0.124-0.359,0.298-0.666,0.522-0.918s0.49-0.447,0.798-0.588c0.308-0.14,0.642-0.21,1.002-0.21c0.368,0,0.708,0.07,1.02,0.21
				c0.312,0.141,0.58,0.336,0.804,0.588c0.224,0.252,0.398,0.559,0.522,0.918C139.66,212.376,139.722,212.776,139.722,213.216z
				 M138.702,213.216c0-0.632-0.136-1.13-0.408-1.494c-0.272-0.363-0.64-0.546-1.104-0.546c-0.456,0-0.818,0.183-1.086,0.546
				c-0.268,0.364-0.402,0.862-0.402,1.494c0,0.624,0.134,1.118,0.402,1.482s0.63,0.546,1.086,0.546c0.464,0,0.832-0.182,1.104-0.546
				S138.702,213.84,138.702,213.216z"/>
			<path fill="#909090" d="M144.414,214.608c0-0.2-0.082-0.364-0.246-0.492s-0.368-0.24-0.612-0.336
				c-0.244-0.097-0.51-0.19-0.798-0.282s-0.554-0.206-0.798-0.342s-0.448-0.304-0.612-0.504s-0.246-0.46-0.246-0.78
				c0-0.448,0.182-0.822,0.546-1.122c0.364-0.3,0.934-0.45,1.71-0.45c0.304,0,0.618,0.022,0.942,0.066
				c0.324,0.044,0.602,0.102,0.834,0.174l-0.18,0.888c-0.064-0.031-0.152-0.065-0.264-0.102c-0.112-0.036-0.24-0.068-0.384-0.096
				c-0.144-0.028-0.298-0.051-0.462-0.066c-0.164-0.016-0.322-0.024-0.474-0.024c-0.864,0-1.296,0.236-1.296,0.708
				c0,0.168,0.082,0.311,0.246,0.427c0.164,0.115,0.37,0.222,0.618,0.317c0.248,0.097,0.516,0.194,0.804,0.294
				c0.288,0.101,0.556,0.223,0.804,0.366c0.248,0.145,0.454,0.318,0.618,0.522c0.164,0.203,0.246,0.462,0.246,0.773
				c0,0.504-0.196,0.895-0.588,1.17c-0.392,0.276-1.012,0.414-1.86,0.414c-0.384,0-0.736-0.032-1.056-0.096
				c-0.32-0.064-0.624-0.16-0.912-0.288l0.192-0.9c0.28,0.128,0.574,0.234,0.882,0.318c0.308,0.084,0.638,0.126,0.99,0.126
				C143.962,215.292,144.414,215.064,144.414,214.608z"/>
			<path fill="#909090" d="M156.354,207.852l0.996-0.168v8.16c-0.216,0.064-0.492,0.128-0.828,0.192
				c-0.336,0.063-0.728,0.096-1.176,0.096c-0.4,0-0.764-0.068-1.092-0.204s-0.608-0.33-0.84-0.582s-0.412-0.558-0.54-0.918
				c-0.128-0.359-0.192-0.764-0.192-1.212c0-0.432,0.054-0.826,0.162-1.182c0.108-0.356,0.266-0.662,0.474-0.918
				c0.208-0.256,0.458-0.456,0.75-0.601c0.292-0.144,0.625-0.216,1.002-0.216c0.296,0,0.556,0.036,0.78,0.108
				s0.392,0.147,0.504,0.228V207.852z M156.354,211.608c-0.112-0.104-0.276-0.202-0.492-0.294c-0.216-0.093-0.44-0.139-0.672-0.139
				c-0.264,0-0.49,0.053-0.678,0.156c-0.188,0.104-0.342,0.246-0.462,0.426c-0.12,0.181-0.208,0.396-0.264,0.648
				c-0.056,0.252-0.084,0.521-0.084,0.81c0,0.648,0.152,1.148,0.456,1.5c0.304,0.353,0.7,0.528,1.188,0.528
				c0.248,0,0.458-0.012,0.63-0.036s0.298-0.048,0.378-0.072V211.608z"/>
			<path fill="#909090" d="M161.31,210.3c0.752,0,1.332,0.234,1.74,0.702c0.408,0.468,0.612,1.178,0.612,2.13v0.349h-3.984
				c0.04,0.575,0.23,1.014,0.57,1.313s0.818,0.45,1.434,0.45c0.352,0,0.652-0.028,0.9-0.084s0.436-0.116,0.564-0.18l0.132,0.84
				c-0.12,0.063-0.336,0.132-0.648,0.204c-0.312,0.071-0.665,0.107-1.056,0.107c-0.48,0-0.902-0.074-1.266-0.222
				c-0.364-0.148-0.666-0.35-0.906-0.606c-0.24-0.256-0.42-0.562-0.54-0.918c-0.12-0.355-0.18-0.741-0.18-1.158
				c0-0.495,0.076-0.928,0.228-1.296c0.152-0.367,0.352-0.672,0.6-0.912c0.248-0.239,0.528-0.42,0.84-0.539
				C160.662,210.36,160.982,210.3,161.31,210.3z M162.654,212.676c0-0.472-0.125-0.846-0.372-1.122
				c-0.248-0.275-0.576-0.414-0.984-0.414c-0.232,0-0.442,0.044-0.63,0.133c-0.188,0.088-0.35,0.203-0.486,0.348
				c-0.136,0.144-0.244,0.308-0.324,0.492c-0.08,0.184-0.132,0.372-0.156,0.563H162.654z"/>
			<path fill="#909090" d="M173.31,210.3c0.752,0,1.332,0.234,1.74,0.702c0.408,0.468,0.612,1.178,0.612,2.13v0.349h-3.984
				c0.04,0.575,0.23,1.014,0.57,1.313s0.818,0.45,1.434,0.45c0.352,0,0.652-0.028,0.9-0.084s0.436-0.116,0.564-0.18l0.132,0.84
				c-0.12,0.063-0.336,0.132-0.648,0.204c-0.312,0.071-0.665,0.107-1.056,0.107c-0.48,0-0.902-0.074-1.266-0.222
				c-0.364-0.148-0.666-0.35-0.906-0.606c-0.24-0.256-0.42-0.562-0.54-0.918c-0.12-0.355-0.18-0.741-0.18-1.158
				c0-0.495,0.076-0.928,0.228-1.296c0.152-0.367,0.352-0.672,0.6-0.912c0.248-0.239,0.528-0.42,0.84-0.539
				C172.662,210.36,172.982,210.3,173.31,210.3z M174.654,212.676c0-0.472-0.125-0.846-0.372-1.122
				c-0.248-0.275-0.576-0.414-0.984-0.414c-0.232,0-0.442,0.044-0.63,0.133c-0.188,0.088-0.35,0.203-0.486,0.348
				c-0.136,0.144-0.244,0.308-0.324,0.492c-0.08,0.184-0.132,0.372-0.156,0.563H174.654z"/>
			<path fill="#909090" d="M180.414,214.608c0-0.2-0.082-0.364-0.246-0.492s-0.368-0.24-0.612-0.336
				c-0.244-0.097-0.51-0.19-0.798-0.282s-0.554-0.206-0.798-0.342s-0.448-0.304-0.612-0.504s-0.246-0.46-0.246-0.78
				c0-0.448,0.182-0.822,0.546-1.122c0.364-0.3,0.934-0.45,1.71-0.45c0.304,0,0.618,0.022,0.942,0.066
				c0.324,0.044,0.602,0.102,0.834,0.174l-0.18,0.888c-0.064-0.031-0.152-0.065-0.264-0.102c-0.112-0.036-0.24-0.068-0.384-0.096
				c-0.144-0.028-0.298-0.051-0.462-0.066c-0.164-0.016-0.322-0.024-0.474-0.024c-0.864,0-1.296,0.236-1.296,0.708
				c0,0.168,0.082,0.311,0.246,0.427c0.164,0.115,0.37,0.222,0.618,0.317c0.248,0.097,0.516,0.194,0.804,0.294
				c0.288,0.101,0.556,0.223,0.804,0.366c0.248,0.145,0.454,0.318,0.618,0.522c0.164,0.203,0.246,0.462,0.246,0.773
				c0,0.504-0.196,0.895-0.588,1.17c-0.392,0.276-1.012,0.414-1.86,0.414c-0.384,0-0.736-0.032-1.056-0.096
				c-0.32-0.064-0.624-0.16-0.912-0.288l0.192-0.9c0.28,0.128,0.574,0.234,0.882,0.318c0.308,0.084,0.638,0.126,0.99,0.126
				C179.962,215.292,180.414,215.064,180.414,214.608z"/>
			<path fill="#909090" d="M185.118,210.432h2.352v0.828h-2.352v2.592c0,0.28,0.02,0.509,0.06,0.685s0.106,0.317,0.198,0.426
				c0.092,0.108,0.21,0.183,0.354,0.222c0.144,0.041,0.32,0.061,0.528,0.061c0.288,0,0.52-0.024,0.696-0.072
				s0.344-0.111,0.504-0.191l0.144,0.84c-0.112,0.048-0.29,0.111-0.534,0.191c-0.244,0.08-0.546,0.12-0.906,0.12
				c-0.416,0-0.756-0.048-1.02-0.144c-0.264-0.097-0.47-0.24-0.618-0.433c-0.148-0.191-0.25-0.43-0.306-0.714
				c-0.056-0.283-0.084-0.613-0.084-0.99v-2.592h-1.176v-0.828h1.176v-1.56l0.984-0.168V210.432z"/>
			<path fill="#909090" d="M193.35,215.844c-0.216,0.057-0.502,0.116-0.858,0.181c-0.356,0.063-0.774,0.096-1.254,0.096
				c-0.424,0-0.776-0.062-1.056-0.187c-0.28-0.123-0.508-0.3-0.684-0.527c-0.176-0.229-0.3-0.498-0.372-0.811
				c-0.072-0.312-0.108-0.655-0.108-1.031v-3.133h0.984v2.916c0,0.688,0.102,1.177,0.306,1.464c0.204,0.288,0.546,0.433,1.026,0.433
				c0.104,0,0.21-0.004,0.318-0.012c0.108-0.008,0.21-0.019,0.306-0.03c0.096-0.012,0.18-0.024,0.252-0.036
				c0.072-0.012,0.12-0.021,0.144-0.03v-4.704h0.996V215.844z"/>
			<path fill="#909090" d="M198.354,207.852l0.996-0.168v8.16c-0.216,0.064-0.492,0.128-0.828,0.192
				c-0.336,0.063-0.728,0.096-1.176,0.096c-0.4,0-0.764-0.068-1.092-0.204s-0.608-0.33-0.84-0.582s-0.412-0.558-0.54-0.918
				c-0.128-0.359-0.192-0.764-0.192-1.212c0-0.432,0.054-0.826,0.162-1.182c0.108-0.356,0.266-0.662,0.474-0.918
				c0.208-0.256,0.458-0.456,0.75-0.601c0.292-0.144,0.625-0.216,1.002-0.216c0.296,0,0.556,0.036,0.78,0.108
				s0.392,0.147,0.504,0.228V207.852z M198.354,211.608c-0.112-0.104-0.276-0.202-0.492-0.294c-0.216-0.093-0.44-0.139-0.672-0.139
				c-0.264,0-0.49,0.053-0.678,0.156c-0.188,0.104-0.342,0.246-0.462,0.426c-0.12,0.181-0.208,0.396-0.264,0.648
				c-0.056,0.252-0.084,0.521-0.084,0.81c0,0.648,0.152,1.148,0.456,1.5c0.304,0.353,0.7,0.528,1.188,0.528
				c0.248,0,0.458-0.012,0.63-0.036s0.298-0.048,0.378-0.072V211.608z"/>
			<path fill="#909090" d="M205.722,213.216c0,0.44-0.062,0.838-0.186,1.194c-0.124,0.355-0.298,0.662-0.522,0.918
				c-0.224,0.256-0.492,0.454-0.804,0.594s-0.652,0.21-1.02,0.21c-0.36,0-0.694-0.07-1.002-0.21s-0.574-0.338-0.798-0.594
				s-0.398-0.562-0.522-0.918c-0.124-0.356-0.186-0.754-0.186-1.194c0-0.439,0.062-0.84,0.186-1.2
				c0.124-0.359,0.298-0.666,0.522-0.918s0.49-0.447,0.798-0.588c0.308-0.14,0.642-0.21,1.002-0.21c0.368,0,0.708,0.07,1.02,0.21
				c0.312,0.141,0.58,0.336,0.804,0.588c0.224,0.252,0.398,0.559,0.522,0.918C205.66,212.376,205.722,212.776,205.722,213.216z
				 M204.702,213.216c0-0.632-0.136-1.13-0.408-1.494c-0.272-0.363-0.64-0.546-1.104-0.546c-0.456,0-0.818,0.183-1.086,0.546
				c-0.268,0.364-0.402,0.862-0.402,1.494c0,0.624,0.134,1.118,0.402,1.482s0.63,0.546,1.086,0.546c0.464,0,0.832-0.182,1.104-0.546
				S204.702,213.84,204.702,213.216z"/>
		</g>
	</g>
	<g>
		<g>
			<line fill="none" stroke="#909090" stroke-linecap="round" stroke-miterlimit="10" x1="210.202" y1="212" x2="241.3" y2="212"/>
			<g>
				<path fill="#909090" d="M236.175,215.6c-0.111-0.174-0.06-0.406,0.115-0.518l4.839-3.082l-4.839-3.082
					c-0.174-0.111-0.226-0.344-0.115-0.518c0.111-0.175,0.345-0.225,0.518-0.115l5.336,3.398c0.108,0.068,0.174,0.188,0.174,0.316
					s-0.065,0.248-0.174,0.316l-5.336,3.398c-0.062,0.039-0.132,0.059-0.201,0.059C236.368,215.773,236.247,215.712,236.175,215.6z"
					/>
			</g>
		</g>
	</g>
</g>
<line fill="none" stroke="#9C78A0" stroke-linecap="round" stroke-miterlimit="10" x1="161.202" y1="200" x2="115.202" y2="200"/>
<line fill="none" stroke="#B291CE" stroke-linecap="round" stroke-miterlimit="10" x1="209.202" y1="200" x2="163.202" y2="200"/>
<line fill="none" stroke="#9C78A0" stroke-linecap="round" stroke-miterlimit="10" x1="273.202" y1="200" x2="211.202" y2="200"/>
<line fill="none" stroke="#B291CE" stroke-linecap="round" stroke-miterlimit="10" x1="313.202" y1="200" x2="275.202" y2="200"/>
<path opacity="0.8" fill="#41B3C6" d="M317.082,104c0,14.836-12.035,26.883-26.877,26.883c-14.848,0-26.883-12.047-26.883-26.883
	c0-14.848,12.035-26.883,26.883-26.883C305.047,77.117,317.082,89.152,317.082,104z"/>
<line fill="none" stroke="#B291CE" stroke-linecap="round" stroke-miterlimit="10" x1="82.202" y1="104" x2="82.202" y2="168"/>
<line fill="none" stroke="#9C78A0" stroke-miterlimit="10" x1="138.202" y1="104" x2="138.202" y2="168"/>
<line fill="none" stroke="#B291CE" stroke-linecap="round" stroke-miterlimit="10" x1="186.202" y1="104" x2="186.202" y2="168"/>
<line fill="none" stroke="#9C78A0" stroke-miterlimit="10" x1="242.202" y1="104" x2="242.202" y2="168"/>
<line fill="none" stroke="#B291CE" stroke-linecap="round" stroke-miterlimit="10" x1="290.202" y1="104" x2="290.202" y2="168"/>
<g>
	<path fill="#FFFFFF" d="M82.202,107.5c-1.93,0-3.5-1.57-3.5-3.5s1.57-3.5,3.5-3.5s3.5,1.57,3.5,3.5S84.132,107.5,82.202,107.5z"/>
	<path fill="#B291CE" d="M82.202,101c1.654,0,3,1.346,3,3s-1.346,3-3,3s-3-1.346-3-3S80.548,101,82.202,101 M82.202,100
		c-2.21,0-4,1.791-4,4s1.79,4,4,4s4-1.791,4-4S84.412,100,82.202,100L82.202,100z"/>
</g>
<g>
	<path fill="#FFFFFF" d="M186.202,107.5c-1.93,0-3.5-1.57-3.5-3.5s1.57-3.5,3.5-3.5s3.5,1.57,3.5,3.5S188.132,107.5,186.202,107.5z"
		/>
	<path fill="#B291CE" d="M186.202,101c1.654,0,3,1.346,3,3s-1.346,3-3,3s-3-1.346-3-3S184.548,101,186.202,101 M186.202,100
		c-2.21,0-4,1.791-4,4s1.79,4,4,4s4-1.791,4-4S188.412,100,186.202,100L186.202,100z"/>
</g>
<g>
	<path fill="#FFFFFF" d="M290.202,107.5c-1.93,0-3.5-1.57-3.5-3.5s1.57-3.5,3.5-3.5s3.5,1.57,3.5,3.5S292.132,107.5,290.202,107.5z"
		/>
	<path fill="#B291CE" d="M290.202,101c1.654,0,3,1.346,3,3s-1.346,3-3,3s-3-1.346-3-3S288.548,101,290.202,101 M290.202,100
		c-2.21,0-4,1.791-4,4s1.79,4,4,4s4-1.791,4-4S292.412,100,290.202,100L290.202,100z"/>
</g>
<g>
	<path fill="#FFFFFF" d="M138.202,107.5c-1.93,0-3.5-1.57-3.5-3.5s1.57-3.5,3.5-3.5s3.5,1.57,3.5,3.5S140.132,107.5,138.202,107.5z"
		/>
	<path fill="#9C78A0" d="M138.202,101c1.654,0,3,1.346,3,3s-1.346,3-3,3s-3-1.346-3-3S136.548,101,138.202,101 M138.202,100
		c-2.21,0-4,1.791-4,4s1.79,4,4,4s4-1.791,4-4S140.412,100,138.202,100L138.202,100z"/>
</g>
<g>
	<path fill="#FFFFFF" d="M242.202,107.5c-1.93,0-3.5-1.57-3.5-3.5s1.57-3.5,3.5-3.5s3.5,1.57,3.5,3.5S244.132,107.5,242.202,107.5z"
		/>
	<path fill="#9C78A0" d="M242.202,101c1.654,0,3,1.346,3,3s-1.346,3-3,3s-3-1.346-3-3S240.548,101,242.202,101 M242.202,100
		c-2.21,0-4,1.791-4,4s1.79,4,4,4s4-1.791,4-4S244.412,100,242.202,100L242.202,100z"/>
</g>
</svg>
