<?xml version="1.0" encoding="utf-8"?>
<!-- Generator: Adobe Illustrator 16.0.0, SVG Export Plug-In . SVG Version: 6.00 Build 0)  -->
<!DOCTYPE svg PUBLIC "-//W3C//DTD SVG 1.1//EN" "http://www.w3.org/Graphics/SVG/1.1/DTD/svg11.dtd">
<svg version="1.1" id="Layer_1" xmlns="http://www.w3.org/2000/svg" xmlns:xlink="http://www.w3.org/1999/xlink" x="0px" y="0px"
	 width="370px" height="370px" viewBox="0 0 370 370" enable-background="new 0 0 370 370" xml:space="preserve">
<polygon fill="#42B3C6" points="121.049,273.298 81.734,152.3 184.66,77.521 287.585,152.3 248.271,273.298 "/>
<polyline fill="none" stroke="#000000" stroke-miterlimit="10" points="164.66,345.298 121.05,345.298 121.05,341.298 "/>
<polyline fill="none" stroke="#000000" stroke-miterlimit="10" points="248.27,341.298 248.27,345.298 204.66,345.298 "/>
<g>
	<text transform="matrix(1 0 0 1 172.6597 349.2988)" font-family="'UbuntuMono-Regular'" font-size="12">Sexo</text>
</g>
<text transform="matrix(1 0 0 1 136.8999 313.2998)" fill="#1DB784" font-family="'UbuntuMono-Regular'" font-size="12">masc.</text>
<text transform="matrix(1 0 0 1 203.5098 313.2998)" fill="#F7638D" font-family="'UbuntuMono-Regular'" font-size="12">fem.</text>
<g>
	<path fill="#FFFFFF" d="M184.66,88.645l92.345,67.092l-35.272,108.561H127.587L92.314,155.737L184.66,88.645 M184.66,87.409
		l-93.521,67.946l35.722,109.942h115.598l35.722-109.942L184.66,87.409L184.66,87.409z"/>
</g>
<rect x="121.049" y="289.298" fill="#1DB784" width="61.702" height="8"/>
<rect x="182.751" y="289.298" fill="#F7638D" width="65.519" height="8"/>
<line fill="none" stroke="#C0C0C0" stroke-miterlimit="10" x1="151.9" y1="299.298" x2="151.9" y2="303.298"/>
<line fill="none" stroke="#C0C0C0" stroke-miterlimit="10" x1="215.51" y1="299.298" x2="215.51" y2="303.298"/>
<polyline fill="none" stroke="#000000" stroke-miterlimit="10" points="328.988,257.871 316.747,295.544 312.943,294.308 "/>
<polyline fill="none" stroke="#000000" stroke-miterlimit="10" points="352.257,173.312 356.061,174.548 343.82,212.22 "/>
<g>
	<text transform="matrix(0.309 -0.9511 0.9511 0.309 335.5732 250.5469)" font-family="'UbuntuMono-Regular'" font-size="12">Idade</text>
</g>
<text transform="matrix(0.309 -0.9511 0.9511 0.309 286.4609 285.2051)" fill="#E27F60" font-family="'UbuntuMono-Regular'" font-size="12">10~17</text>
<text transform="matrix(0.309 -0.9511 0.9511 0.309 311.8906 261.0645)" fill="#E5A26A" font-family="'UbuntuMono-Regular'" font-size="12">18~24</text>
<text transform="matrix(0.309 -0.9511 0.9511 0.309 305.2129 227.4941)" fill="#E27F60" font-family="'UbuntuMono-Regular'" font-size="12">25~34</text>
<text transform="matrix(0.309 -0.9511 0.9511 0.309 328.6338 209.5293)" fill="#E5A26A" font-family="'UbuntuMono-Regular'" font-size="12">35~44</text>
<text transform="matrix(0.309 -0.9511 0.9511 0.309 320.2295 181.2734)" fill="#E27F60" font-family="'UbuntuMono-Regular'" font-size="12">44+</text>
<rect x="277.597" y="220.104" transform="matrix(0.951 0.3091 -0.3091 0.951 86.5602 -75.507)" fill="#E5A26A" width="8" height="30.691"/>
<rect x="268.074" y="249.286" transform="matrix(0.9511 0.309 -0.309 0.9511 95.1138 -71.1079)" fill="#E27F60" width="8" height="30.946"/>
<rect x="286.826" y="192.53" transform="matrix(0.9511 0.309 -0.309 0.9511 78.2112 -79.7332)" fill="#E27F60" width="7.999" height="29.035"/>
<rect x="294.342" y="174.109" transform="matrix(0.951 0.3091 -0.3091 0.951 71.4619 -83.2143)" fill="#E5A26A" width="7.999" height="19.612"/>
<rect x="299.989" y="158.066" transform="matrix(0.9511 0.309 -0.309 0.9511 66.3365 -85.7835)" fill="#E27F60" width="7.999" height="16.937"/>
<line fill="none" stroke="#C0C0C0" stroke-miterlimit="10" x1="288.254" y1="237.613" x2="307.965" y2="244.018"/>
<line fill="none" stroke="#C0C0C0" stroke-miterlimit="10" x1="305" y1="186.077" x2="324.709" y2="192.481"/>
<line fill="none" stroke="#C0C0C0" stroke-miterlimit="10" x1="296.531" y1="208.902" x2="300.336" y2="210.139"/>
<line fill="none" stroke="#C0C0C0" stroke-miterlimit="10" x1="309.695" y1="168.389" x2="313.5" y2="169.625"/>
<line fill="none" stroke="#C0C0C0" stroke-miterlimit="10" x1="277.779" y1="266.614" x2="281.584" y2="267.85"/>
<polyline fill="none" stroke="#000000" stroke-miterlimit="10" points="298.672,71.357 329.906,94.051 327.555,97.287 "/>
<polyline fill="none" stroke="#000000" stroke-miterlimit="10" points="224.631,22.508 226.98,19.271 258.219,41.967 "/>
<g>
	<text transform="matrix(-0.809 -0.5878 0.5878 -0.809 295.3574 64.0039)" font-family="'UbuntuMono-Regular'" font-size="12">Região</text>
</g>
<text transform="matrix(-0.809 -0.5878 0.5878 -0.809 310.3867 119.418)" fill="#998675" font-family="'UbuntuMono-Regular'" font-size="12">N</text>
<text transform="matrix(-0.809 -0.5878 0.5878 -0.809 309.2637 97.9316)" fill="#736357" font-family="'UbuntuMono-Regular'" font-size="12">NE</text>
<text transform="matrix(-0.809 -0.5878 0.5878 -0.809 263.5645 85.4004)" fill="#998675" font-family="'UbuntuMono-Regular'" font-size="12">SE</text>
<text transform="matrix(-0.809 -0.5878 0.5878 -0.809 237.2598 45.6172)" fill="#736357" font-family="'UbuntuMono-Regular'" font-size="12">S</text>
<text transform="matrix(-0.809 -0.5878 0.5878 -0.809 217.4023 51.8613)" fill="#998675" font-family="'UbuntuMono-Regular'" font-size="12">CO</text>
<line fill="none" stroke="#C0C0C0" stroke-miterlimit="10" x1="286.937" y1="118.455" x2="299.119" y2="101.688"/>
<line fill="none" stroke="#C0C0C0" stroke-miterlimit="10" x1="217.359" y1="67.904" x2="229.541" y2="51.138"/>
<line fill="none" stroke="#C0C0C0" stroke-miterlimit="10" x1="250.48" y1="93.204" x2="252.83" y2="89.968"/>
<line fill="none" stroke="#C0C0C0" stroke-miterlimit="10" x1="204.318" y1="59.666" x2="206.67" y2="56.429"/>
<line fill="none" stroke="#C0C0C0" stroke-miterlimit="10" x1="299.73" y1="128.985" x2="302.08" y2="125.749"/>
<rect x="292.202" y="129.96" transform="matrix(0.5877 -0.809 0.809 0.5877 13.8291 294.8181)" fill="#998675" width="8" height="7.76"/>
<rect x="278.823" y="111.46" transform="matrix(0.5877 -0.8091 0.8091 0.5877 16.1817 279.9926)" fill="#736357" width="7.999" height="25.317"/>
<rect x="242.954" y="66.38" transform="matrix(0.5878 -0.809 0.809 0.5878 22.4644 240.2062)" fill="#998675" width="8" height="63.356"/>
<rect x="196.792" y="59.113" transform="matrix(0.5879 -0.8089 0.8089 0.5879 30.5572 189.0198)" fill="#998675" width="8" height="10.814"/>
<rect x="209.246" y="63.581" transform="matrix(0.5877 -0.8091 0.8091 0.5877 28.3953 202.8593)" fill="#736357" width="7.999" height="19.975"/>
<polyline fill="none" stroke="#000000" stroke-miterlimit="10" points="135.777,24.037 142.341,19.27 144.692,22.507 "/>
<polyline fill="none" stroke="#000000" stroke-miterlimit="10" points="41.766,97.287 39.415,94.05 45.978,89.281 "/>
<g>
	<text transform="matrix(-0.809 0.5878 -0.5878 -0.809 127.3613 25.21)" font-family="'UbuntuMono-Regular'" font-size="12">Renda per capita</text>
</g>
<g>
	
		<text transform="matrix(-0.809 0.5878 -0.5878 -0.809 130.0898 3.4497)" fill="#909090" font-family="'UbuntuMono-Regular'" font-size="12">(em salários mínimos)</text>
</g>
<text transform="matrix(-0.809 0.5878 -0.5878 -0.809 146.4492 55.8394)" fill="#52CEB9" font-family="'UbuntuMono-Regular'" font-size="12">1-</text>
<g>
	
		<text transform="matrix(-0.809 0.5878 -0.5878 -0.809 104.8721 65.3721)" fill="#A0BCB0" font-family="'UbuntuMono-Regular'" font-size="12">1~2</text>
</g>
<text transform="matrix(-0.809 0.5878 -0.5878 -0.809 90.0049 96.8486)" fill="#52CEB9" font-family="'UbuntuMono-Regular'" font-size="12">2~5</text>
<g>
	
		<text transform="matrix(-0.809 0.5878 -0.5878 -0.809 60.4531 97.646)" fill="#A0BCB0" font-family="'UbuntuMono-Regular'" font-size="12">5+</text>
</g>
<line fill="none" stroke="#C0C0C0" stroke-miterlimit="10" x1="115.064" y1="94.711" x2="102.883" y2="77.944"/>
<line fill="none" stroke="#C0C0C0" stroke-miterlimit="10" x1="73.072" y1="125.22" x2="60.89" y2="108.453"/>
<line fill="none" stroke="#C0C0C0" stroke-miterlimit="10" x1="90.95" y1="113.468" x2="88.599" y2="110.23"/>
<line fill="none" stroke="#C0C0C0" stroke-miterlimit="10" x1="149.823" y1="70.693" x2="147.472" y2="67.457"/>
<rect x="149.349" y="51.375" transform="matrix(-0.5876 -0.8091 0.8091 -0.5876 182.3388 244.0199)" fill="#52CEB9" width="8.001" height="48.344"/>
<rect x="115.178" y="82.309" transform="matrix(-0.5879 -0.8089 0.8089 -0.5879 108.0436 255.7909)" fill="#A0BCB0" width="8" height="36.131"/>
<rect x="90.477" y="105.854" transform="matrix(-0.5879 -0.8089 0.8089 -0.5879 54.3019 264.3067)" fill="#52CEB9" width="8" height="24.935"/>
<rect x="73.186" y="121.978" transform="matrix(-0.5878 -0.809 0.809 -0.5878 16.6677 270.2592)" fill="#A0BCB0" width="8.001" height="17.81"/>
<polyline fill="none" stroke="#000000" stroke-miterlimit="10" points="17.463,187.491 13.258,174.549 17.062,173.313 "/>
<polyline fill="none" stroke="#000000" stroke-miterlimit="10" points="56.376,294.309 52.572,295.545 48.365,282.599 "/>
<g>
	<text transform="matrix(0.309 0.9511 -0.9511 0.309 16.1328 196.3398)" font-family="'UbuntuMono-Regular'" font-size="12">Anos de estudo</text>
</g>
<text transform="matrix(0.309 0.9511 -0.9511 0.309 42.937 162.3418)" fill="#B291CE" font-family="'UbuntuMono-Regular'" font-size="12">4-</text>
<text transform="matrix(0.309 0.9511 -0.9511 0.309 30.7617 178.9946)" fill="#9C78A0" font-family="'UbuntuMono-Regular'" font-size="12">4~7</text>
<text transform="matrix(0.309 0.9511 -0.9511 0.309 53.0537 193.4785)" fill="#B291CE" font-family="'UbuntuMono-Regular'" font-size="12">8~10</text>
<text transform="matrix(0.309 0.9511 -0.9511 0.309 48.1343 232.4551)" fill="#9C78A0" font-family="'UbuntuMono-Regular'" font-size="12">11~14</text>
<line fill="none" stroke="#C0C0C0" stroke-miterlimit="10" x1="61.814" y1="178.367" x2="42.104" y2="184.771"/>
<line fill="none" stroke="#C0C0C0" stroke-miterlimit="10" x1="81.039" y1="237.535" x2="61.329" y2="243.939"/>
<line fill="none" stroke="#C0C0C0" stroke-miterlimit="10" x1="70.078" y1="200.563" x2="66.274" y2="201.8"/>
<text transform="matrix(0.309 0.9511 -0.9511 0.309 77.1367 267.6006)" fill="#B291CE" font-family="'UbuntuMono-Regular'" font-size="12">15+</text>
<line fill="none" stroke="#C0C0C0" stroke-miterlimit="10" x1="93.234" y1="271.832" x2="89.43" y2="273.067"/>
<line fill="none" stroke="#C0C0C0" stroke-miterlimit="10" x1="58.107" y1="163.72" x2="54.302" y2="164.956"/>
<rect x="59.813" y="158.304" transform="matrix(-0.9511 0.309 -0.309 -0.9511 174.5155 296.0956)" fill="#B291CE" width="8" height="7.124"/>
<rect x="64.472" y="164.69" transform="matrix(-0.9511 0.309 -0.309 -0.9511 188.0349 322.6304)" fill="#9C78A0" width="8" height="23.027"/>
<rect x="71.785" y="186.559" transform="matrix(-0.9511 0.309 -0.309 -0.9511 209.2555 364.2808)" fill="#B291CE" width="8" height="24.3"/>
<rect x="83.697" y="208.972" transform="matrix(-0.9511 0.309 -0.309 -0.9511 243.8249 432.1316)" fill="#9C78A0" width="8" height="52.799"/>
<rect x="94.941" y="259.99" transform="matrix(-0.9511 0.309 -0.309 -0.9511 276.4547 496.1763)" fill="#B291CE" width="8" height="19.975"/>
</svg>
