<?xml version="1.0" encoding="utf-8"?>
<!-- Generator: Adobe Illustrator 16.0.0, SVG Export Plug-In . SVG Version: 6.00 Build 0)  -->
<!DOCTYPE svg PUBLIC "-//W3C//DTD SVG 1.1//EN" "http://www.w3.org/Graphics/SVG/1.1/DTD/svg11.dtd">
<svg version="1.1" id="Layer_1" xmlns="http://www.w3.org/2000/svg" xmlns:xlink="http://www.w3.org/1999/xlink" x="0px" y="0px"
	 width="540px" height="220px" viewBox="0 0 540 220" enable-background="new 0 0 540 220" xml:space="preserve">
<circle fill="#E86089" cx="270.028" cy="109.528" r="100"/>
<path fill="#606060" d="M260.616,209.084c-50.813-4.744-90.588-47.502-90.588-99.556c0-55.228,44.771-100,100-100v100
	L260.616,209.084z"/>
<path fill="#FFFFFF" d="M350.028,109.528c0,44.183-35.818,80-80,80c-44.186,0-80-35.817-80-80s35.814-80,80-80
	C314.21,29.528,350.028,65.346,350.028,109.528z"/>
<g>
	<path fill="#606060" d="M212.176,116.275c0.204-0.481,0.483-1.033,0.837-1.657s0.753-1.27,1.197-1.936
		c0.444-0.666,0.918-1.319,1.422-1.962c0.504-0.642,1.014-1.221,1.53-1.736h1.44v7.074h1.314v1.225h-1.314v2.844h-1.44v-2.844
		h-4.986V116.275z M217.162,110.749c-0.324,0.348-0.651,0.732-0.981,1.152s-0.651,0.86-0.963,1.322
		c-0.312,0.463-0.603,0.934-0.873,1.413c-0.27,0.48-0.513,0.954-0.729,1.422h3.546V110.749z"/>
	<path fill="#606060" d="M228.61,117.229c0,0.936-0.297,1.691-0.891,2.268c-0.594,0.576-1.497,0.865-2.709,0.865
		c-0.696,0-1.272-0.094-1.728-0.279s-0.819-0.426-1.089-0.721c-0.27-0.293-0.462-0.621-0.576-0.98
		c-0.114-0.361-0.171-0.715-0.171-1.062c0-0.637,0.174-1.199,0.522-1.692c0.348-0.492,0.762-0.888,1.242-1.188
		c-1.02-0.575-1.53-1.458-1.53-2.646c0-0.408,0.078-0.798,0.234-1.17c0.156-0.372,0.378-0.696,0.666-0.972
		c0.288-0.276,0.639-0.498,1.053-0.666s0.879-0.252,1.395-0.252c0.6,0,1.113,0.09,1.539,0.27c0.426,0.18,0.771,0.411,1.035,0.693
		c0.264,0.282,0.456,0.594,0.576,0.936s0.18,0.675,0.18,0.999c0,0.637-0.162,1.186-0.486,1.647
		c-0.324,0.462-0.696,0.831-1.116,1.106C227.992,114.972,228.61,115.92,228.61,117.229z M222.886,117.336
		c0,0.193,0.036,0.395,0.108,0.604c0.072,0.211,0.192,0.404,0.36,0.586c0.168,0.18,0.39,0.326,0.666,0.439
		c0.276,0.115,0.612,0.172,1.008,0.172c0.372,0,0.693-0.051,0.963-0.152c0.27-0.104,0.492-0.24,0.666-0.414s0.303-0.369,0.387-0.586
		c0.083-0.217,0.126-0.432,0.126-0.648c0-0.684-0.246-1.209-0.738-1.575c-0.492-0.365-1.17-0.645-2.034-0.837
		c-0.48,0.265-0.853,0.594-1.116,0.99C223.018,116.311,222.886,116.785,222.886,117.336z M226.918,111.63
		c0-0.155-0.036-0.333-0.108-0.531c-0.072-0.197-0.183-0.378-0.333-0.54c-0.15-0.161-0.345-0.3-0.585-0.414
		c-0.24-0.113-0.528-0.171-0.864-0.171c-0.348,0-0.639,0.055-0.873,0.162c-0.234,0.108-0.429,0.243-0.585,0.405
		c-0.156,0.162-0.267,0.342-0.333,0.54s-0.099,0.394-0.099,0.585c0,0.492,0.177,0.951,0.531,1.377
		c0.354,0.426,0.938,0.735,1.755,0.927c0.456-0.264,0.819-0.576,1.089-0.936C226.783,112.674,226.918,112.207,226.918,111.63z"/>
	<path fill="#606060" d="M235.36,118.975c0,0.359-0.12,0.678-0.36,0.953c-0.24,0.277-0.558,0.414-0.954,0.414
		c-0.408,0-0.732-0.137-0.972-0.414c-0.24-0.275-0.36-0.594-0.36-0.953c0-0.371,0.12-0.695,0.36-0.973
		c0.24-0.275,0.564-0.414,0.972-0.414c0.396,0,0.714,0.139,0.954,0.414C235.24,118.279,235.36,118.604,235.36,118.975z"/>
	<path fill="#606060" d="M241.876,113.287c1.608,0.06,2.778,0.414,3.51,1.062c0.732,0.648,1.098,1.519,1.098,2.611
		c0,0.492-0.078,0.947-0.234,1.367c-0.156,0.42-0.399,0.781-0.729,1.08c-0.331,0.301-0.75,0.535-1.26,0.703
		c-0.51,0.168-1.113,0.252-1.809,0.252c-0.288,0-0.573-0.021-0.855-0.064c-0.282-0.041-0.549-0.092-0.801-0.152
		s-0.474-0.123-0.666-0.189c-0.192-0.064-0.33-0.123-0.414-0.17l0.288-1.279c0.192,0.098,0.489,0.211,0.891,0.342
		c0.402,0.133,0.909,0.199,1.521,0.199c0.479,0,0.882-0.055,1.206-0.162c0.324-0.107,0.585-0.256,0.783-0.441
		c0.198-0.186,0.342-0.398,0.432-0.639s0.135-0.492,0.135-0.756c0-0.408-0.069-0.771-0.207-1.089
		c-0.138-0.317-0.378-0.585-0.72-0.801c-0.342-0.216-0.81-0.381-1.404-0.495c-0.594-0.114-1.341-0.171-2.241-0.171
		c0.072-0.528,0.129-1.023,0.171-1.485s0.078-0.912,0.108-1.35c0.03-0.438,0.054-0.873,0.072-1.306
		c0.018-0.432,0.039-0.888,0.063-1.367h5.364v1.26h-4.068c-0.012,0.168-0.027,0.387-0.045,0.657
		c-0.018,0.27-0.039,0.555-0.063,0.854c-0.024,0.3-0.048,0.588-0.072,0.864S241.888,113.119,241.876,113.287z"/>
	<path fill="#606060" d="M247.852,111.541c0-0.912,0.174-1.604,0.522-2.079c0.348-0.474,0.828-0.711,1.44-0.711
		c0.612,0,1.092,0.237,1.44,0.711c0.348,0.475,0.522,1.167,0.522,2.079s-0.174,1.608-0.522,2.088c-0.348,0.48-0.828,0.72-1.44,0.72
		c-0.612,0-1.092-0.239-1.44-0.72C248.026,113.149,247.852,112.453,247.852,111.541z M249.238,120.127h-1.26l6.822-11.142h1.26
		L249.238,120.127z M250.66,111.541c0-0.54-0.072-0.983-0.216-1.332c-0.144-0.348-0.354-0.522-0.63-0.522
		c-0.276,0-0.489,0.175-0.639,0.522c-0.15,0.349-0.225,0.792-0.225,1.332s0.075,0.984,0.225,1.332
		c0.15,0.348,0.363,0.521,0.639,0.521c0.276,0,0.486-0.174,0.63-0.521S250.66,112.081,250.66,111.541z M252.298,117.57
		c0-0.912,0.171-1.605,0.513-2.079c0.342-0.475,0.819-0.711,1.431-0.711c0.612,0,1.092,0.236,1.44,0.711
		c0.348,0.474,0.522,1.167,0.522,2.079s-0.174,1.605-0.522,2.08c-0.348,0.473-0.828,0.711-1.44,0.711
		c-0.612,0-1.089-0.238-1.431-0.711C252.469,119.176,252.298,118.482,252.298,117.57z M255.106,117.57
		c0-0.539-0.075-0.984-0.225-1.332c-0.15-0.348-0.363-0.522-0.639-0.522s-0.486,0.174-0.63,0.522
		c-0.144,0.348-0.216,0.793-0.216,1.332c0,0.541,0.072,0.984,0.216,1.332s0.354,0.521,0.63,0.521s0.489-0.174,0.639-0.521
		C255.031,118.555,255.106,118.111,255.106,117.57z"/>
	<path fill="#909090" d="M216.88,136.127v-8.148l0.996-0.168v2.832c0.16-0.064,0.34-0.113,0.54-0.15
		c0.2-0.035,0.396-0.055,0.588-0.055c0.424,0,0.778,0.062,1.062,0.188c0.284,0.123,0.51,0.297,0.678,0.521s0.288,0.492,0.36,0.805
		c0.072,0.311,0.108,0.656,0.108,1.031v3.145h-0.984v-2.928c0-0.689-0.096-1.174-0.288-1.459c-0.192-0.283-0.536-0.426-1.032-0.426
		c-0.208,0-0.41,0.021-0.606,0.066c-0.196,0.043-0.338,0.086-0.426,0.125v4.621H216.88z"/>
	<path fill="#909090" d="M227.548,133.342c0,0.441-0.062,0.838-0.186,1.195c-0.124,0.355-0.298,0.662-0.522,0.918
		c-0.224,0.256-0.492,0.453-0.804,0.594c-0.312,0.139-0.652,0.209-1.02,0.209c-0.36,0-0.694-0.07-1.002-0.209
		c-0.308-0.141-0.574-0.338-0.798-0.594s-0.398-0.562-0.522-0.918c-0.124-0.357-0.186-0.754-0.186-1.195
		c0-0.439,0.062-0.84,0.186-1.199s0.298-0.666,0.522-0.918s0.49-0.447,0.798-0.588s0.642-0.211,1.002-0.211
		c0.368,0,0.708,0.07,1.02,0.211s0.58,0.336,0.804,0.588c0.224,0.252,0.398,0.559,0.522,0.918S227.548,132.902,227.548,133.342z
		 M226.528,133.342c0-0.631-0.136-1.129-0.408-1.494c-0.272-0.363-0.64-0.545-1.104-0.545c-0.456,0-0.818,0.182-1.086,0.545
		c-0.268,0.365-0.402,0.863-0.402,1.494c0,0.625,0.134,1.119,0.402,1.482c0.268,0.365,0.63,0.547,1.086,0.547
		c0.464,0,0.832-0.182,1.104-0.547C226.392,134.461,226.528,133.967,226.528,133.342z"/>
	<path fill="#909090" d="M228.52,130.715c0.48-0.184,0.932-0.277,1.356-0.277c0.232,0,0.45,0.035,0.654,0.104
		s0.378,0.174,0.522,0.318c0.344-0.281,0.712-0.422,1.104-0.422c0.192,0,0.374,0.037,0.546,0.109s0.324,0.18,0.456,0.324
		c0.132,0.143,0.238,0.324,0.318,0.539c0.08,0.217,0.12,0.469,0.12,0.756v3.961h-0.9v-3.984c0-0.289-0.064-0.508-0.192-0.66
		s-0.288-0.229-0.48-0.229c-0.096,0-0.196,0.025-0.3,0.072c-0.104,0.049-0.2,0.125-0.288,0.229c0.048,0.184,0.072,0.389,0.072,0.611
		v1.812h-0.9v-1.824c0-0.279-0.044-0.5-0.132-0.66c-0.088-0.16-0.26-0.24-0.516-0.24c-0.16,0-0.34,0.037-0.54,0.109v4.764h-0.9
		V130.715z"/>
	<path fill="#909090" d="M237.136,130.426c0.752,0,1.332,0.234,1.74,0.703c0.408,0.467,0.612,1.178,0.612,2.129v0.35h-3.984
		c0.04,0.574,0.23,1.014,0.57,1.312c0.34,0.301,0.818,0.451,1.434,0.451c0.352,0,0.652-0.029,0.9-0.084
		c0.248-0.057,0.436-0.117,0.564-0.18l0.132,0.84c-0.12,0.062-0.336,0.131-0.648,0.203s-0.665,0.107-1.056,0.107
		c-0.48,0-0.902-0.074-1.266-0.221c-0.364-0.148-0.666-0.35-0.906-0.607c-0.24-0.256-0.42-0.561-0.54-0.918
		c-0.12-0.355-0.18-0.74-0.18-1.158c0-0.494,0.076-0.928,0.228-1.295s0.352-0.672,0.6-0.912c0.248-0.24,0.528-0.42,0.84-0.539
		C236.488,130.486,236.808,130.426,237.136,130.426z M238.48,132.803c0-0.473-0.125-0.846-0.372-1.123
		c-0.248-0.275-0.576-0.414-0.984-0.414c-0.232,0-0.442,0.045-0.63,0.133s-0.35,0.203-0.486,0.348
		c-0.136,0.145-0.244,0.309-0.324,0.492c-0.08,0.184-0.132,0.373-0.156,0.564H238.48z"/>
	<path fill="#909090" d="M240.88,130.715c0.36-0.088,0.718-0.156,1.074-0.205c0.356-0.047,0.69-0.072,1.002-0.072
		c0.744,0,1.306,0.193,1.686,0.576c0.38,0.385,0.57,1,0.57,1.85v3.264h-0.984v-3.084c0-0.361-0.032-0.652-0.096-0.877
		c-0.064-0.223-0.154-0.396-0.27-0.521c-0.116-0.123-0.256-0.211-0.42-0.258c-0.164-0.049-0.342-0.072-0.534-0.072
		c-0.16,0-0.33,0.01-0.51,0.029c-0.18,0.021-0.354,0.047-0.522,0.078v4.705h-0.996V130.715z"/>
	<path fill="#909090" d="M250.24,134.734c0-0.199-0.082-0.363-0.246-0.492c-0.164-0.127-0.368-0.24-0.612-0.336
		s-0.51-0.189-0.798-0.281s-0.554-0.207-0.798-0.342c-0.244-0.137-0.448-0.305-0.612-0.504c-0.164-0.201-0.246-0.461-0.246-0.781
		c0-0.447,0.182-0.822,0.546-1.121c0.364-0.301,0.934-0.451,1.71-0.451c0.304,0,0.618,0.023,0.942,0.066
		c0.324,0.045,0.602,0.102,0.834,0.174l-0.18,0.889c-0.064-0.031-0.152-0.066-0.264-0.102c-0.112-0.037-0.24-0.068-0.384-0.096
		c-0.144-0.029-0.298-0.051-0.462-0.066c-0.164-0.016-0.322-0.025-0.474-0.025c-0.864,0-1.296,0.236-1.296,0.709
		c0,0.168,0.082,0.311,0.246,0.426c0.164,0.115,0.37,0.223,0.618,0.318s0.516,0.193,0.804,0.293
		c0.288,0.102,0.556,0.223,0.804,0.367c0.248,0.145,0.454,0.318,0.618,0.521s0.246,0.463,0.246,0.773
		c0,0.504-0.196,0.895-0.588,1.17c-0.392,0.277-1.012,0.414-1.86,0.414c-0.384,0-0.736-0.031-1.056-0.096
		c-0.32-0.064-0.624-0.16-0.912-0.287l0.192-0.9c0.28,0.127,0.574,0.234,0.882,0.318c0.308,0.084,0.638,0.125,0.99,0.125
		C249.788,135.418,250.24,135.191,250.24,134.734z"/>
</g>
<g>
	<path fill="#E86089" d="M286.876,113.288c1.608,0.06,2.778,0.414,3.51,1.062c0.731,0.648,1.099,1.519,1.099,2.61
		c0,0.492-0.078,0.949-0.234,1.369s-0.399,0.779-0.729,1.08c-0.331,0.299-0.751,0.533-1.261,0.701
		c-0.511,0.168-1.113,0.252-1.81,0.252c-0.287,0-0.572-0.021-0.854-0.062c-0.282-0.043-0.549-0.094-0.801-0.154
		c-0.252-0.059-0.474-0.121-0.666-0.188s-0.33-0.123-0.414-0.172l0.288-1.277c0.191,0.096,0.488,0.209,0.891,0.342
		s0.909,0.197,1.521,0.197c0.479,0,0.882-0.053,1.206-0.162c0.323-0.107,0.585-0.254,0.782-0.439c0.199-0.188,0.343-0.4,0.433-0.641
		c0.09-0.238,0.135-0.49,0.135-0.756c0-0.406-0.069-0.77-0.207-1.088c-0.138-0.317-0.378-0.585-0.72-0.801s-0.811-0.381-1.404-0.495
		s-1.341-0.171-2.24-0.171c0.071-0.528,0.129-1.023,0.17-1.485c0.043-0.462,0.078-0.912,0.108-1.35
		c0.03-0.438,0.054-0.873,0.072-1.306c0.019-0.432,0.038-0.888,0.063-1.367h5.363v1.26h-4.068c-0.012,0.168-0.026,0.387-0.045,0.657
		c-0.018,0.27-0.039,0.555-0.062,0.854c-0.024,0.3-0.049,0.588-0.072,0.864S286.888,113.12,286.876,113.288z"/>
	<path fill="#E86089" d="M293.878,111.29c0.612-0.24,1.206-0.543,1.782-0.909s1.109-0.831,1.602-1.395h1.044v9.881h2.106v1.26
		h-5.994v-1.26h2.412v-7.812c-0.133,0.12-0.291,0.243-0.477,0.369c-0.188,0.126-0.391,0.249-0.613,0.369
		c-0.222,0.12-0.453,0.234-0.692,0.342c-0.24,0.108-0.474,0.198-0.702,0.271L293.878,111.29z"/>
	<path fill="#E86089" d="M307.359,118.975c0,0.361-0.119,0.68-0.359,0.955s-0.559,0.414-0.954,0.414
		c-0.408,0-0.731-0.139-0.972-0.414s-0.36-0.594-0.36-0.955c0-0.371,0.12-0.695,0.36-0.971c0.24-0.277,0.563-0.414,0.972-0.414
		c0.396,0,0.714,0.137,0.954,0.414C307.24,118.279,307.359,118.604,307.359,118.975z"/>
	<path fill="#E86089" d="M313.876,113.288c1.608,0.06,2.778,0.414,3.51,1.062c0.731,0.648,1.099,1.519,1.099,2.61
		c0,0.492-0.078,0.949-0.234,1.369s-0.399,0.779-0.729,1.08c-0.331,0.299-0.751,0.533-1.261,0.701
		c-0.511,0.168-1.113,0.252-1.81,0.252c-0.287,0-0.572-0.021-0.854-0.062c-0.282-0.043-0.549-0.094-0.801-0.154
		c-0.252-0.059-0.474-0.121-0.666-0.188s-0.33-0.123-0.414-0.172l0.288-1.277c0.191,0.096,0.488,0.209,0.891,0.342
		s0.909,0.197,1.521,0.197c0.479,0,0.882-0.053,1.206-0.162c0.323-0.107,0.585-0.254,0.782-0.439c0.199-0.188,0.343-0.4,0.433-0.641
		c0.09-0.238,0.135-0.49,0.135-0.756c0-0.406-0.069-0.77-0.207-1.088c-0.138-0.317-0.378-0.585-0.72-0.801s-0.811-0.381-1.404-0.495
		s-1.341-0.171-2.24-0.171c0.071-0.528,0.129-1.023,0.17-1.485c0.043-0.462,0.078-0.912,0.108-1.35
		c0.03-0.438,0.054-0.873,0.072-1.306c0.019-0.432,0.038-0.888,0.063-1.367h5.363v1.26h-4.068c-0.012,0.168-0.026,0.387-0.045,0.657
		c-0.018,0.27-0.039,0.555-0.062,0.854c-0.024,0.3-0.049,0.588-0.072,0.864S313.888,113.12,313.876,113.288z"/>
	<path fill="#E86089" d="M319.852,111.542c0-0.912,0.174-1.604,0.522-2.079c0.348-0.474,0.827-0.711,1.44-0.711
		c0.611,0,1.092,0.237,1.439,0.711c0.348,0.475,0.521,1.167,0.521,2.079s-0.174,1.608-0.521,2.088
		c-0.348,0.48-0.828,0.72-1.439,0.72c-0.613,0-1.093-0.239-1.44-0.72C320.025,113.15,319.852,112.454,319.852,111.542z
		 M321.238,120.127h-1.26l6.821-11.141h1.261L321.238,120.127z M322.66,111.542c0-0.54-0.072-0.983-0.217-1.332
		c-0.144-0.348-0.354-0.522-0.629-0.522c-0.277,0-0.49,0.175-0.64,0.522c-0.15,0.349-0.226,0.792-0.226,1.332
		s0.075,0.984,0.226,1.332c0.149,0.348,0.362,0.521,0.64,0.521c0.275,0,0.485-0.174,0.629-0.521
		C322.588,112.526,322.66,112.082,322.66,111.542z M324.298,117.572c0-0.912,0.171-1.606,0.513-2.08
		c0.342-0.475,0.819-0.711,1.432-0.711c0.611,0,1.092,0.236,1.439,0.711c0.348,0.474,0.521,1.167,0.521,2.08
		s-0.174,1.604-0.521,2.078s-0.828,0.711-1.439,0.711c-0.612,0-1.09-0.236-1.432-0.711S324.298,118.484,324.298,117.572z
		 M327.105,117.572c0-0.541-0.074-0.984-0.225-1.332c-0.15-0.349-0.363-0.523-0.639-0.523c-0.276,0-0.486,0.174-0.631,0.523
		c-0.144,0.348-0.215,0.791-0.215,1.332c0,0.539,0.071,0.982,0.215,1.332c0.145,0.348,0.354,0.521,0.631,0.521
		c0.275,0,0.488-0.174,0.639-0.521C327.031,118.555,327.105,118.111,327.105,117.572z"/>
	<path fill="#909090" d="M282.52,130.715c0.48-0.184,0.932-0.275,1.356-0.275c0.231,0,0.45,0.033,0.653,0.102
		c0.205,0.068,0.379,0.174,0.522,0.318c0.344-0.279,0.712-0.42,1.104-0.42c0.191,0,0.373,0.035,0.545,0.107s0.324,0.18,0.457,0.324
		c0.132,0.145,0.238,0.324,0.318,0.541c0.079,0.215,0.119,0.467,0.119,0.756v3.959h-0.9v-3.984c0-0.287-0.063-0.508-0.191-0.658
		c-0.128-0.152-0.288-0.229-0.48-0.229c-0.096,0-0.195,0.023-0.3,0.072c-0.104,0.047-0.2,0.123-0.288,0.227
		c0.049,0.186,0.072,0.389,0.072,0.613v1.811h-0.9v-1.822c0-0.281-0.043-0.5-0.131-0.66c-0.089-0.16-0.261-0.24-0.517-0.24
		c-0.16,0-0.341,0.035-0.54,0.107v4.764h-0.9V130.715z"/>
	<path fill="#909090" d="M293.176,135.971c-0.216,0.057-0.502,0.117-0.857,0.182c-0.356,0.062-0.774,0.096-1.254,0.096
		c-0.425,0-0.777-0.062-1.057-0.188c-0.28-0.123-0.508-0.299-0.684-0.527s-0.301-0.498-0.373-0.811
		c-0.071-0.311-0.107-0.654-0.107-1.031v-3.133h0.984v2.916c0,0.689,0.102,1.178,0.306,1.465s0.546,0.432,1.026,0.432
		c0.104,0,0.209-0.004,0.318-0.012c0.107-0.008,0.209-0.018,0.305-0.029c0.097-0.012,0.181-0.025,0.252-0.037
		c0.072-0.012,0.121-0.021,0.145-0.029v-4.705h0.996V135.971z"/>
	<path fill="#909090" d="M298.084,136.26c-0.352,0-0.645-0.049-0.876-0.145c-0.232-0.096-0.416-0.24-0.552-0.432
		c-0.137-0.191-0.232-0.43-0.289-0.715c-0.055-0.283-0.084-0.613-0.084-0.99v-5.268h-1.607v-0.84h2.592v6.107
		c0,0.281,0.018,0.51,0.055,0.686c0.035,0.176,0.092,0.316,0.168,0.426c0.076,0.107,0.17,0.182,0.281,0.221
		c0.112,0.041,0.244,0.061,0.396,0.061c0.232,0,0.447-0.027,0.648-0.084c0.199-0.055,0.355-0.115,0.467-0.18l0.145,0.84
		c-0.048,0.023-0.115,0.055-0.204,0.09c-0.088,0.037-0.192,0.07-0.312,0.102c-0.12,0.033-0.25,0.061-0.391,0.084
		C298.382,136.248,298.236,136.26,298.084,136.26z"/>
	<path fill="#909090" d="M300.88,136.127v-8.148l0.996-0.168v2.832c0.159-0.062,0.34-0.113,0.54-0.148
		c0.199-0.037,0.396-0.055,0.588-0.055c0.424,0,0.777,0.062,1.062,0.186c0.283,0.125,0.51,0.299,0.678,0.521
		c0.168,0.225,0.287,0.492,0.359,0.805s0.108,0.656,0.108,1.033v3.143h-0.983v-2.928c0-0.688-0.097-1.174-0.289-1.457
		c-0.191-0.285-0.535-0.426-1.031-0.426c-0.209,0-0.41,0.021-0.606,0.064c-0.196,0.045-0.338,0.086-0.426,0.127v4.619H300.88z"/>
	<path fill="#909090" d="M309.136,130.428c0.752,0,1.332,0.234,1.74,0.701c0.407,0.469,0.612,1.178,0.612,2.131v0.348h-3.984
		c0.04,0.576,0.23,1.014,0.57,1.314c0.34,0.299,0.817,0.449,1.434,0.449c0.352,0,0.652-0.027,0.9-0.084
		c0.248-0.055,0.436-0.115,0.563-0.18l0.132,0.84c-0.119,0.064-0.336,0.133-0.647,0.205c-0.312,0.07-0.665,0.107-1.056,0.107
		c-0.48,0-0.902-0.074-1.267-0.223s-0.666-0.35-0.905-0.605c-0.24-0.256-0.421-0.562-0.541-0.918
		c-0.119-0.355-0.18-0.742-0.18-1.158c0-0.496,0.076-0.928,0.229-1.297c0.151-0.367,0.352-0.672,0.6-0.912
		c0.248-0.238,0.527-0.42,0.84-0.539S308.808,130.428,309.136,130.428z M310.48,132.803c0-0.471-0.125-0.846-0.373-1.121
		s-0.576-0.414-0.983-0.414c-0.232,0-0.442,0.043-0.63,0.133c-0.188,0.088-0.351,0.203-0.486,0.348
		c-0.137,0.143-0.244,0.307-0.324,0.492c-0.08,0.184-0.132,0.371-0.156,0.562H310.48z"/>
	<path fill="#909090" d="M313.312,136.127v-5.268c0.815-0.279,1.639-0.42,2.471-0.42c0.256,0,0.5,0.01,0.732,0.029
		c0.232,0.021,0.488,0.062,0.768,0.127l-0.18,0.875c-0.256-0.07-0.482-0.117-0.678-0.137c-0.196-0.02-0.41-0.031-0.643-0.031
		c-0.487,0-0.983,0.068-1.487,0.205v4.619H313.312z"/>
	<path fill="#909090" d="M321.136,130.428c0.752,0,1.332,0.234,1.74,0.701c0.407,0.469,0.612,1.178,0.612,2.131v0.348h-3.984
		c0.04,0.576,0.23,1.014,0.57,1.314c0.34,0.299,0.817,0.449,1.434,0.449c0.352,0,0.652-0.027,0.9-0.084
		c0.248-0.055,0.436-0.115,0.563-0.18l0.132,0.84c-0.119,0.064-0.336,0.133-0.647,0.205c-0.312,0.07-0.665,0.107-1.056,0.107
		c-0.48,0-0.902-0.074-1.267-0.223s-0.666-0.35-0.905-0.605c-0.24-0.256-0.421-0.562-0.541-0.918
		c-0.119-0.355-0.18-0.742-0.18-1.158c0-0.496,0.076-0.928,0.229-1.297c0.151-0.367,0.352-0.672,0.6-0.912
		c0.248-0.238,0.527-0.42,0.84-0.539S320.808,130.428,321.136,130.428z M322.48,132.803c0-0.471-0.125-0.846-0.373-1.121
		s-0.576-0.414-0.983-0.414c-0.232,0-0.442,0.043-0.63,0.133c-0.188,0.088-0.351,0.203-0.486,0.348
		c-0.137,0.143-0.244,0.307-0.324,0.492c-0.08,0.184-0.132,0.371-0.156,0.562H322.48z"/>
	<path fill="#909090" d="M328.24,134.736c0-0.201-0.082-0.365-0.246-0.492c-0.164-0.129-0.368-0.24-0.612-0.336
		c-0.244-0.098-0.51-0.191-0.798-0.283s-0.555-0.205-0.799-0.342c-0.244-0.135-0.447-0.303-0.611-0.504
		c-0.164-0.199-0.246-0.459-0.246-0.779c0-0.449,0.182-0.822,0.546-1.123c0.364-0.299,0.935-0.449,1.71-0.449
		c0.305,0,0.618,0.021,0.942,0.066c0.323,0.043,0.602,0.102,0.834,0.174l-0.181,0.887c-0.063-0.031-0.151-0.064-0.264-0.102
		c-0.111-0.035-0.24-0.068-0.384-0.096s-0.298-0.051-0.462-0.066s-0.322-0.023-0.475-0.023c-0.863,0-1.295,0.236-1.295,0.707
		c0,0.168,0.082,0.311,0.246,0.428c0.163,0.115,0.369,0.221,0.617,0.316c0.248,0.098,0.516,0.195,0.805,0.295
		c0.287,0.1,0.555,0.223,0.804,0.365c0.247,0.145,0.454,0.318,0.618,0.523c0.164,0.203,0.246,0.461,0.246,0.773
		c0,0.504-0.197,0.895-0.588,1.17c-0.393,0.275-1.013,0.414-1.861,0.414c-0.383,0-0.735-0.033-1.055-0.096
		c-0.32-0.064-0.625-0.16-0.912-0.289l0.191-0.9c0.28,0.129,0.574,0.234,0.883,0.318c0.307,0.084,0.637,0.127,0.989,0.127
		C327.787,135.42,328.24,135.191,328.24,134.736z"/>
</g>
<path fill="#E86089" d="M306.028,78.815c-4.418,0-8,3.581-8,8c0,4.079,3.055,7.438,7,7.931v2.569h-3v2h3v3.5h2v-3.5h3v-2h-3v-2.569
	c3.945-0.492,7-3.852,7-7.931C314.028,82.396,310.446,78.815,306.028,78.815z M306.028,92.815c-3.309,0-6-2.691-6-6s2.691-6,6-6
	s6,2.691,6,6S309.337,92.815,306.028,92.815z"/>
<path fill="#606060" d="M226.349,88.248c-3.125,3.125-3.125,8.19,0,11.314c3.125,3.125,8.189,3.125,11.314,0
	c2.883-2.885,3.099-7.42,0.658-10.559l3.479-3.479l0.258,2.978l1.992-0.173l-0.514-5.955l-5.955-0.514l-0.172,1.992l2.977,0.257
	l-3.479,3.479C233.769,85.149,229.233,85.365,226.349,88.248z M236.248,98.148c-2.339,2.34-6.146,2.34-8.485,0s-2.34-6.146,0-8.485
	s6.146-2.339,8.485,0S238.587,95.809,236.248,98.148z"/>
<path fill="none" stroke="#C0C0C0" stroke-miterlimit="10" d="M270.028,77.528v64"/>
</svg>
