<?xml version="1.0" encoding="utf-8"?>
<!-- Generator: Adobe Illustrator 16.0.0, SVG Export Plug-In . SVG Version: 6.00 Build 0)  -->
<!DOCTYPE svg PUBLIC "-//W3C//DTD SVG 1.1//EN" "http://www.w3.org/Graphics/SVG/1.1/DTD/svg11.dtd">
<svg version="1.1" id="Layer_1" xmlns="http://www.w3.org/2000/svg" xmlns:xlink="http://www.w3.org/1999/xlink" x="0px" y="0px"
	 width="300px" height="300px" viewBox="0 0 300 300" enable-background="new 0 0 300 300" xml:space="preserve">
<polygon fill="#42B3C6" points="86.389,237.59 47.075,116.592 150,41.812 252.926,116.592 213.611,237.59 "/>
<polyline fill="none" stroke="#000000" stroke-miterlimit="10" points="14.9,172.909 1.423,131.429 5.226,130.192 "/>
<polyline fill="none" stroke="#000000" stroke-miterlimit="10" points="44.539,251.186 40.736,252.422 27.26,210.948 "/>
<g>
	<g>
		<path d="M15.095,184.203c0.156,0.48,0.365,0.815,0.63,1.008c0.264,0.191,0.579,0.228,0.944,0.109
			c0.221-0.072,0.394-0.179,0.521-0.321c0.125-0.142,0.223-0.308,0.292-0.498c0.068-0.19,0.115-0.396,0.141-0.614
			s0.044-0.439,0.056-0.662c0.017-0.258,0.049-0.51,0.095-0.756s0.119-0.477,0.218-0.689s0.235-0.4,0.41-0.562
			c0.175-0.163,0.403-0.289,0.685-0.381c0.615-0.2,1.16-0.162,1.632,0.114c0.473,0.274,0.821,0.759,1.045,1.451
			c0.062,0.19,0.11,0.383,0.145,0.578c0.033,0.195,0.058,0.379,0.072,0.551c0.014,0.172,0.015,0.329,0.001,0.473
			c-0.012,0.143-0.032,0.261-0.062,0.354l-0.884-0.041c0.042-0.183,0.065-0.421,0.07-0.718c0.005-0.295-0.045-0.606-0.152-0.935
			c-0.111-0.342-0.293-0.61-0.546-0.806c-0.253-0.196-0.55-0.238-0.893-0.127c-0.198,0.064-0.354,0.154-0.468,0.271
			c-0.113,0.117-0.2,0.255-0.263,0.414c-0.062,0.158-0.107,0.336-0.137,0.53s-0.054,0.404-0.073,0.629
			c-0.028,0.328-0.064,0.633-0.107,0.912c-0.044,0.279-0.122,0.531-0.233,0.757c-0.112,0.227-0.267,0.423-0.463,0.592
			c-0.198,0.17-0.46,0.308-0.787,0.414c-0.617,0.2-1.158,0.146-1.623-0.16c-0.466-0.307-0.825-0.849-1.077-1.625
			c-0.082-0.251-0.141-0.492-0.178-0.725c-0.039-0.23-0.058-0.441-0.061-0.63c-0.002-0.188,0.002-0.356,0.014-0.503
			c0.011-0.146,0.028-0.262,0.052-0.345l0.868,0.033c-0.034,0.18-0.058,0.436-0.071,0.768
			C14.894,183.398,14.956,183.777,15.095,184.203z"/>
		<path d="M21.801,188.649c0.232,0.715,0.188,1.339-0.13,1.871c-0.319,0.532-0.931,0.946-1.837,1.24l-0.332,0.108l-1.231-3.789
			c-0.535,0.216-0.893,0.531-1.073,0.947s-0.175,0.917,0.015,1.503c0.109,0.335,0.228,0.611,0.358,0.83s0.245,0.379,0.345,0.481
			l-0.758,0.385c-0.098-0.095-0.229-0.278-0.395-0.553c-0.165-0.275-0.307-0.6-0.428-0.972c-0.148-0.456-0.208-0.881-0.181-1.272
			c0.028-0.393,0.127-0.741,0.297-1.049c0.169-0.308,0.404-0.573,0.706-0.797c0.301-0.225,0.649-0.4,1.046-0.529
			c0.471-0.153,0.906-0.215,1.303-0.184c0.396,0.03,0.748,0.127,1.053,0.289c0.304,0.161,0.562,0.371,0.772,0.632
			C21.542,188.052,21.699,188.337,21.801,188.649z M19.957,190.662c0.448-0.146,0.766-0.381,0.952-0.701
			c0.186-0.321,0.216-0.676,0.09-1.063c-0.072-0.222-0.179-0.407-0.321-0.559c-0.142-0.151-0.301-0.271-0.481-0.354
			c-0.179-0.086-0.368-0.138-0.568-0.156c-0.199-0.02-0.395-0.011-0.584,0.025L19.957,190.662z"/>
		<path d="M18.683,197.498c0.127-0.126,0.264-0.273,0.411-0.443c0.146-0.169,0.296-0.351,0.448-0.543
			c0.152-0.192,0.3-0.39,0.444-0.592c0.145-0.203,0.278-0.4,0.401-0.592c-0.22-0.08-0.449-0.165-0.689-0.256
			c-0.239-0.09-0.479-0.174-0.719-0.252c-0.239-0.078-0.471-0.147-0.693-0.21c-0.222-0.062-0.418-0.111-0.59-0.147l-0.315-0.971
			c0.539,0.102,1.106,0.256,1.708,0.46c0.601,0.204,1.174,0.411,1.722,0.62l1.892-2.722l0.345,1.062l-1.385,2.027l2.275,0.712
			l0.326,1.004l-3.021-0.948c-0.338,0.488-0.694,0.984-1.068,1.488c-0.374,0.506-0.758,0.955-1.15,1.353L18.683,197.498z"/>
		<path d="M23.481,203.257c-0.419,0.136-0.816,0.2-1.194,0.192c-0.376-0.009-0.722-0.079-1.034-0.213
			c-0.312-0.135-0.584-0.328-0.813-0.581c-0.229-0.254-0.401-0.556-0.515-0.905c-0.111-0.343-0.147-0.683-0.109-1.019
			c0.037-0.336,0.144-0.649,0.317-0.942c0.175-0.292,0.413-0.552,0.712-0.779c0.301-0.229,0.66-0.41,1.079-0.547
			c0.418-0.136,0.818-0.2,1.198-0.193s0.726,0.077,1.034,0.213c0.31,0.135,0.577,0.327,0.806,0.576
			c0.229,0.25,0.398,0.547,0.51,0.889c0.113,0.351,0.151,0.695,0.115,1.035c-0.037,0.34-0.14,0.655-0.311,0.946
			c-0.17,0.291-0.408,0.551-0.712,0.78C24.261,202.938,23.899,203.121,23.481,203.257z M23.166,202.286
			c0.601-0.194,1.032-0.479,1.295-0.85c0.261-0.371,0.321-0.777,0.178-1.219c-0.141-0.434-0.426-0.722-0.854-0.864
			c-0.43-0.143-0.945-0.115-1.545,0.08c-0.594,0.192-1.022,0.473-1.286,0.84c-0.264,0.368-0.324,0.769-0.184,1.202
			c0.143,0.44,0.43,0.734,0.86,0.881S22.572,202.479,23.166,202.286z"/>
	</g>
</g>
<rect x="33.585" y="121.264" transform="matrix(-0.951 0.3091 -0.3091 -0.951 120.3479 285.1661)" fill="#606060" width="8" height="61.704"/>
<rect x="53.242" y="179.854" transform="matrix(-0.9511 0.309 -0.309 -0.9511 177.3766 397.1349)" fill="#E86089" width="7.999" height="65.517"/>
<polyline fill="none" stroke="#000000" stroke-miterlimit="10" points="249.904,55.066 281.139,77.759 278.787,80.994 "/>
<polyline fill="none" stroke="#000000" stroke-miterlimit="10" points="175.861,6.215 178.213,2.979 209.452,25.676 "/>
<g>
	<g>
		<path d="M239.373,48.848c0.268-0.369,0.602-0.623,1-0.764c0.398-0.14,0.82-0.169,1.264-0.084c0.015-0.226,0.035-0.48,0.058-0.766
			c0.024-0.284,0.056-0.582,0.095-0.896c0.04-0.312,0.085-0.63,0.137-0.953c0.053-0.324,0.109-0.636,0.17-0.938l0.854,0.621
			c-0.144,0.607-0.256,1.207-0.337,1.802c-0.08,0.594-0.11,1.103-0.09,1.522c0.044,0.021,0.103,0.059,0.177,0.113
			c0.075,0.055,0.125,0.09,0.15,0.109l0.681,0.494l1.721-2.369l0.806,0.586l-4.303,5.922c-0.115-0.045-0.244-0.104-0.385-0.176
			c-0.14-0.072-0.28-0.151-0.42-0.238c-0.139-0.087-0.276-0.174-0.41-0.262c-0.135-0.088-0.253-0.168-0.357-0.244
			c-0.725-0.526-1.154-1.081-1.29-1.664C238.757,50.081,238.918,49.476,239.373,48.848z M240.615,51.59
			c0.148,0.108,0.294,0.211,0.436,0.309s0.246,0.162,0.313,0.191l1.687-2.32l-0.516-0.374c-0.232-0.169-0.453-0.306-0.661-0.407
			s-0.409-0.156-0.606-0.165c-0.195-0.01-0.385,0.036-0.566,0.136c-0.182,0.102-0.362,0.275-0.541,0.521
			c-0.169,0.233-0.271,0.449-0.309,0.649c-0.037,0.201-0.029,0.388,0.023,0.559c0.053,0.174,0.146,0.334,0.279,0.486
			C240.287,51.324,240.439,51.463,240.615,51.59z"/>
		<path d="M235.871,46.972c-0.607-0.442-0.939-0.973-0.994-1.591s0.196-1.312,0.756-2.083l0.205-0.282l3.223,2.342
			c0.307-0.488,0.41-0.955,0.312-1.396c-0.099-0.443-0.397-0.846-0.896-1.208c-0.285-0.206-0.544-0.36-0.777-0.461
			s-0.422-0.163-0.562-0.187l0.387-0.757c0.135,0.019,0.35,0.091,0.645,0.216s0.602,0.304,0.918,0.533
			c0.389,0.283,0.687,0.591,0.894,0.924c0.208,0.334,0.333,0.674,0.376,1.023c0.045,0.348,0.011,0.701-0.102,1.061
			c-0.112,0.357-0.29,0.705-0.535,1.043c-0.291,0.4-0.607,0.705-0.946,0.914c-0.339,0.207-0.681,0.336-1.022,0.385
			c-0.34,0.049-0.674,0.029-0.996-0.058S236.137,47.164,235.871,46.972z M236.181,44.26c-0.277,0.381-0.397,0.757-0.358,1.126
			c0.039,0.368,0.223,0.674,0.553,0.913c0.188,0.137,0.383,0.225,0.588,0.264c0.203,0.039,0.402,0.041,0.598,0.004
			c0.194-0.036,0.378-0.105,0.551-0.207c0.172-0.103,0.326-0.225,0.457-0.365L236.181,44.26z"/>
		<path d="M233.221,38.637c0.127,0.014,0.307,0.061,0.537,0.139c0.229,0.078,0.467,0.207,0.713,0.385
			c0.266,0.193,0.482,0.416,0.647,0.672c0.167,0.254,0.271,0.531,0.313,0.835c0.041,0.303,0.014,0.627-0.086,0.976
			c-0.1,0.348-0.285,0.709-0.559,1.085c-0.24,0.329-0.506,0.599-0.801,0.806c-0.293,0.207-0.603,0.346-0.926,0.418
			c-0.324,0.07-0.656,0.068-0.998-0.006c-0.34-0.076-0.676-0.232-1.007-0.473c-0.388-0.281-0.699-0.551-0.935-0.806
			s-0.428-0.476-0.578-0.663l2.921-4.021c0.507-0.698,1.05-1.075,1.629-1.13s1.224,0.178,1.936,0.695
			c0.291,0.211,0.539,0.425,0.741,0.643c0.204,0.217,0.373,0.424,0.507,0.619l-0.661,0.604c-0.115-0.193-0.266-0.392-0.449-0.596
			c-0.185-0.202-0.406-0.398-0.664-0.586c-0.467-0.338-0.868-0.486-1.205-0.443c-0.337,0.041-0.658,0.271-0.964,0.693
			L233.221,38.637z M230.766,42.016c0.059,0.082,0.148,0.184,0.268,0.307c0.119,0.12,0.295,0.266,0.528,0.436
			c0.414,0.301,0.833,0.387,1.257,0.26s0.807-0.428,1.15-0.9c0.188-0.258,0.318-0.502,0.391-0.73c0.073-0.23,0.1-0.443,0.08-0.641
			s-0.078-0.373-0.174-0.526s-0.223-0.286-0.377-0.399c-0.201-0.146-0.411-0.254-0.632-0.326c-0.22-0.07-0.413-0.107-0.58-0.109
			L230.766,42.016z"/>
		<path d="M226.219,40.863c0.168,0.122,0.271,0.285,0.31,0.492c0.038,0.205-0.016,0.408-0.161,0.609
			c-0.146,0.199-0.322,0.314-0.529,0.342c-0.208,0.027-0.396-0.02-0.564-0.143c-0.175-0.127-0.279-0.293-0.314-0.496
			s0.021-0.406,0.166-0.605c0.146-0.201,0.32-0.316,0.524-0.346C225.854,40.688,226.044,40.736,226.219,40.863z M227.417,39.643
			l1.301,0.945l-0.487,0.67l-2.097-1.523l2.011-2.768c0.324-0.447,0.48-0.791,0.469-1.031c-0.014-0.242-0.143-0.452-0.389-0.631
			c-0.188-0.137-0.377-0.239-0.568-0.31s-0.352-0.112-0.479-0.126l0.377-0.764c0.053,0.008,0.126,0.023,0.218,0.047
			c0.093,0.021,0.195,0.055,0.307,0.098c0.113,0.041,0.234,0.094,0.361,0.158c0.127,0.062,0.252,0.139,0.375,0.228
			c0.285,0.207,0.493,0.417,0.625,0.632c0.131,0.214,0.196,0.439,0.197,0.678c0,0.236-0.061,0.486-0.182,0.75
			c-0.122,0.262-0.293,0.545-0.515,0.851L227.417,39.643z"/>
		<path d="M218.928,37.035c0.072-0.057,0.164-0.113,0.279-0.169c0.113-0.056,0.235-0.097,0.362-0.122
			c0.128-0.025,0.26-0.031,0.397-0.016c0.137,0.016,0.268,0.068,0.391,0.157c0.084,0.062,0.166,0.155,0.246,0.283
			s0.145,0.233,0.192,0.317c0.103,0.213,0.206,0.357,0.31,0.432c0.084,0.062,0.195,0.078,0.333,0.051
			c0.14-0.027,0.261-0.073,0.366-0.135l0.254,0.525c-0.07,0.057-0.164,0.114-0.278,0.17c-0.113,0.055-0.234,0.096-0.362,0.121
			c-0.127,0.025-0.26,0.031-0.396,0.016c-0.138-0.015-0.264-0.065-0.381-0.15c-0.084-0.061-0.166-0.156-0.243-0.287
			s-0.142-0.238-0.188-0.322c-0.103-0.213-0.205-0.357-0.309-0.432c-0.084-0.062-0.197-0.08-0.34-0.055s-0.265,0.069-0.369,0.132
			L218.928,37.035z M221.426,36.477c-0.337-0.244-0.589-0.494-0.758-0.744c-0.168-0.251-0.27-0.502-0.305-0.754
			c-0.033-0.254-0.003-0.508,0.094-0.764c0.098-0.256,0.238-0.51,0.421-0.762l2.046-2.816c0.211,0.105,0.486,0.246,0.827,0.424
			c0.341,0.179,0.673,0.385,0.995,0.619c0.246,0.18,0.471,0.375,0.674,0.586c0.202,0.211,0.355,0.436,0.459,0.674
			s0.142,0.492,0.115,0.76c-0.025,0.268-0.145,0.547-0.357,0.838c-0.188,0.26-0.402,0.437-0.645,0.532
			c-0.243,0.095-0.494,0.134-0.751,0.114c-0.259-0.02-0.521-0.088-0.784-0.207c-0.266-0.117-0.515-0.262-0.748-0.431
			c-0.316-0.23-0.602-0.491-0.854-0.784l-0.162,0.224c-0.1,0.136-0.18,0.278-0.242,0.425c-0.063,0.146-0.091,0.303-0.086,0.465
			c0.006,0.162,0.057,0.324,0.15,0.487s0.252,0.323,0.472,0.483c0.278,0.202,0.536,0.359,0.771,0.471
			c0.235,0.111,0.422,0.188,0.561,0.229l-0.383,0.731c-0.147-0.027-0.363-0.115-0.647-0.263
			C222.005,36.866,221.717,36.688,221.426,36.477z M224.282,32.381c-0.2-0.146-0.385-0.27-0.553-0.371
			c-0.168-0.104-0.311-0.183-0.429-0.238l-0.973,1.34c0.08,0.107,0.186,0.224,0.316,0.35c0.131,0.125,0.278,0.246,0.439,0.363
			c0.149,0.109,0.304,0.203,0.463,0.284c0.158,0.081,0.314,0.132,0.467,0.153c0.152,0.022,0.299,0.012,0.437-0.03
			c0.14-0.042,0.262-0.135,0.364-0.276c0.213-0.292,0.261-0.565,0.146-0.822C224.844,32.877,224.619,32.625,224.282,32.381z"/>
		<path d="M216.218,29.088c0.259-0.355,0.542-0.642,0.853-0.857c0.309-0.215,0.631-0.359,0.961-0.436
			c0.332-0.074,0.666-0.078,1-0.008c0.335,0.07,0.651,0.214,0.949,0.43c0.291,0.212,0.52,0.465,0.688,0.76
			c0.166,0.293,0.265,0.61,0.296,0.949c0.03,0.338-0.009,0.688-0.118,1.049c-0.108,0.361-0.291,0.72-0.551,1.076
			c-0.258,0.355-0.543,0.643-0.855,0.861c-0.312,0.218-0.633,0.363-0.962,0.436s-0.659,0.074-0.991,0.007
			c-0.332-0.068-0.643-0.208-0.934-0.419c-0.299-0.217-0.531-0.473-0.702-0.77c-0.17-0.297-0.272-0.613-0.306-0.948
			c-0.032-0.335,0.007-0.687,0.117-1.05C215.774,29.804,215.959,29.443,216.218,29.088z M217.043,29.688
			c-0.371,0.512-0.555,0.994-0.549,1.449c0.008,0.453,0.197,0.817,0.573,1.09c0.368,0.268,0.769,0.334,1.199,0.197
			c0.431-0.138,0.832-0.462,1.204-0.973c0.366-0.506,0.549-0.983,0.545-1.436c-0.002-0.452-0.189-0.812-0.557-1.08
			c-0.376-0.272-0.78-0.342-1.215-0.207C217.811,28.863,217.41,29.183,217.043,29.688z"/>
	</g>
</g>
<rect x="257.541" y="94.25" transform="matrix(0.5878 -0.809 0.809 0.5878 28.4188 252.0373)" fill="#736357" width="8" height="7.76"/>
<rect x="244.161" y="75.75" transform="matrix(0.5878 -0.809 0.809 0.5878 30.7642 237.1999)" fill="#998675" width="8.001" height="25.317"/>
<rect x="208.292" y="30.671" transform="matrix(0.5878 -0.809 0.809 0.5878 37.0624 197.4406)" fill="#736357" width="8.001" height="63.356"/>
<rect x="162.13" y="23.402" transform="matrix(0.5877 -0.8091 0.8091 0.5877 45.191 146.296)" fill="#736357" width="8" height="10.815"/>
<rect x="174.585" y="27.872" transform="matrix(0.5879 -0.8089 0.8089 0.5879 42.9724 160.0682)" fill="#998675" width="8" height="19.973"/>
<polyline fill="none" stroke="#000000" stroke-miterlimit="10" points="124,285.59 86.389,285.59 86.389,281.59 "/>
<polyline fill="none" stroke="#000000" stroke-miterlimit="10" points="213.611,281.59 213.611,285.59 176,285.59 "/>
<g>
	<g>
		<path d="M133.091,289.588v-7.428h4.164V283h-3.18v2.28h2.784v0.84h-2.784v2.628h3.444v0.84H133.091z"/>
		<path d="M142.211,288.196c0-0.2-0.082-0.364-0.246-0.492s-0.368-0.24-0.612-0.336c-0.244-0.097-0.51-0.19-0.798-0.282
			s-0.554-0.206-0.798-0.342s-0.448-0.304-0.612-0.504s-0.246-0.46-0.246-0.78c0-0.448,0.182-0.822,0.546-1.122
			c0.364-0.3,0.934-0.45,1.71-0.45c0.304,0,0.618,0.022,0.942,0.066c0.324,0.044,0.602,0.102,0.834,0.174l-0.18,0.888
			c-0.064-0.031-0.152-0.065-0.264-0.102c-0.112-0.036-0.24-0.068-0.384-0.096c-0.144-0.028-0.298-0.051-0.462-0.066
			c-0.164-0.016-0.322-0.024-0.474-0.024c-0.864,0-1.296,0.236-1.296,0.708c0,0.168,0.082,0.311,0.246,0.427
			c0.164,0.115,0.37,0.222,0.618,0.317c0.248,0.097,0.516,0.194,0.804,0.294c0.288,0.101,0.556,0.223,0.804,0.366
			c0.248,0.145,0.454,0.318,0.618,0.522c0.164,0.203,0.246,0.462,0.246,0.773c0,0.504-0.196,0.895-0.588,1.17
			c-0.392,0.276-1.012,0.414-1.86,0.414c-0.384,0-0.736-0.032-1.056-0.096c-0.32-0.064-0.624-0.16-0.912-0.288l0.192-0.9
			c0.28,0.128,0.574,0.234,0.882,0.318c0.308,0.084,0.638,0.126,0.99,0.126C141.759,288.88,142.211,288.652,142.211,288.196z"/>
		<path d="M146.916,284.02h2.352v0.828h-2.352v2.592c0,0.28,0.02,0.509,0.06,0.685s0.106,0.317,0.198,0.426
			c0.092,0.108,0.21,0.183,0.354,0.222c0.144,0.041,0.32,0.061,0.528,0.061c0.288,0,0.52-0.024,0.696-0.072s0.344-0.111,0.504-0.191
			l0.144,0.84c-0.112,0.048-0.29,0.111-0.534,0.191c-0.244,0.08-0.546,0.12-0.906,0.12c-0.416,0-0.756-0.048-1.02-0.144
			c-0.264-0.097-0.47-0.24-0.618-0.433c-0.148-0.191-0.25-0.43-0.306-0.714c-0.056-0.283-0.084-0.613-0.084-0.99v-2.592h-1.176
			v-0.828h1.176v-1.56l0.984-0.168V284.02z"/>
		<path d="M155.147,289.432c-0.216,0.057-0.502,0.116-0.858,0.181c-0.355,0.063-0.773,0.096-1.254,0.096
			c-0.424,0-0.775-0.062-1.056-0.187c-0.28-0.123-0.509-0.3-0.685-0.527c-0.176-0.229-0.299-0.498-0.372-0.811
			c-0.072-0.312-0.108-0.655-0.108-1.031v-3.133h0.983v2.916c0,0.688,0.103,1.177,0.307,1.464c0.204,0.288,0.546,0.433,1.025,0.433
			c0.104,0,0.211-0.004,0.318-0.012c0.108-0.008,0.211-0.019,0.307-0.03s0.18-0.024,0.252-0.036s0.119-0.021,0.144-0.03v-4.704
			h0.996V289.432z"/>
		<path d="M160.151,281.439l0.996-0.168v8.16c-0.216,0.064-0.492,0.128-0.828,0.192c-0.336,0.063-0.728,0.096-1.176,0.096
			c-0.4,0-0.765-0.068-1.093-0.204s-0.607-0.33-0.84-0.582c-0.231-0.252-0.412-0.558-0.539-0.918
			c-0.129-0.359-0.192-0.764-0.192-1.212c0-0.432,0.054-0.826,0.162-1.182c0.108-0.356,0.266-0.662,0.474-0.918
			s0.458-0.456,0.75-0.601c0.292-0.144,0.626-0.216,1.002-0.216c0.297,0,0.557,0.036,0.78,0.108s0.392,0.147,0.504,0.228V281.439z
			 M160.151,285.196c-0.112-0.104-0.276-0.202-0.491-0.294c-0.217-0.093-0.441-0.139-0.673-0.139c-0.264,0-0.489,0.053-0.678,0.156
			c-0.188,0.104-0.343,0.246-0.462,0.426c-0.12,0.181-0.209,0.396-0.264,0.648c-0.057,0.252-0.084,0.521-0.084,0.81
			c0,0.648,0.151,1.148,0.455,1.5c0.305,0.353,0.7,0.528,1.188,0.528c0.248,0,0.458-0.012,0.63-0.036s0.298-0.048,0.378-0.072
			V285.196z"/>
		<path d="M167.52,286.804c0,0.44-0.062,0.838-0.186,1.194c-0.125,0.355-0.299,0.662-0.522,0.918s-0.492,0.454-0.804,0.594
			c-0.312,0.14-0.652,0.21-1.021,0.21c-0.36,0-0.694-0.07-1.002-0.21s-0.573-0.338-0.798-0.594s-0.398-0.562-0.521-0.918
			c-0.125-0.356-0.187-0.754-0.187-1.194c0-0.439,0.062-0.84,0.187-1.2c0.123-0.359,0.297-0.666,0.521-0.918s0.49-0.447,0.798-0.588
			c0.308-0.14,0.642-0.21,1.002-0.21c0.368,0,0.708,0.07,1.021,0.21c0.312,0.141,0.58,0.336,0.804,0.588s0.397,0.559,0.522,0.918
			C167.457,285.964,167.52,286.364,167.52,286.804z M166.5,286.804c0-0.632-0.137-1.13-0.408-1.494
			c-0.272-0.363-0.641-0.546-1.104-0.546c-0.456,0-0.817,0.183-1.086,0.546c-0.269,0.364-0.401,0.862-0.401,1.494
			c0,0.624,0.133,1.118,0.401,1.482s0.63,0.546,1.086,0.546c0.464,0,0.832-0.182,1.104-0.546
			C166.363,287.922,166.5,287.428,166.5,286.804z"/>
	</g>
</g>
<g>
	<path fill="#FFFFFF" d="M150,52.937l92.346,67.092L207.072,228.59H92.928L57.655,120.029L150,52.937 M150,51.701l-93.521,67.946
		L92.201,229.59h115.598l35.723-109.942L150,51.701L150,51.701z"/>
</g>
<g>
	<rect x="86.386" y="253.59" fill="#B291CE" width="7.124" height="8"/>
	<rect x="93.51" y="253.59" fill="#9C78A0" width="23.027" height="8"/>
	<rect x="116.538" y="253.59" fill="#B291CE" width="24.299" height="8"/>
	<rect x="140.837" y="253.59" fill="#9C78A0" width="52.799" height="8"/>
	<rect x="193.636" y="253.59" fill="#B291CE" width="19.975" height="8"/>
</g>
<polyline fill="none" stroke="#000000" stroke-miterlimit="10" points="89.739,26.261 121.785,2.979 124.136,6.214 "/>
<polyline fill="none" stroke="#000000" stroke-miterlimit="10" points="21.211,80.994 18.859,77.758 50.906,54.475 "/>
<g>
	<g>
		<path d="M81.154,35.698l-3.379-4.65l-1.165,0.846l-0.493-0.68l3.126-2.271l0.493,0.68l-1.164,0.846l3.378,4.65l1.165-0.846
			l0.494,0.679l-3.127,2.271l-0.494-0.679L81.154,35.698z"/>
		<path d="M76.684,40.875l-0.707,0.722l-4.797-6.602c0.137-0.179,0.323-0.393,0.557-0.643c0.234-0.249,0.533-0.505,0.896-0.768
			c0.323-0.235,0.658-0.394,1.004-0.477c0.345-0.083,0.686-0.09,1.021-0.023c0.336,0.068,0.662,0.209,0.977,0.425
			c0.315,0.216,0.605,0.505,0.868,0.868c0.254,0.35,0.442,0.7,0.563,1.051c0.123,0.352,0.174,0.692,0.156,1.021
			s-0.102,0.638-0.254,0.927c-0.151,0.288-0.379,0.542-0.684,0.764c-0.239,0.174-0.471,0.297-0.695,0.371
			c-0.223,0.073-0.403,0.111-0.541,0.112L76.684,40.875z M74.475,37.835c0.152,0.019,0.343,0.001,0.571-0.051
			c0.229-0.053,0.438-0.147,0.626-0.284c0.213-0.155,0.365-0.33,0.456-0.524c0.091-0.196,0.132-0.4,0.123-0.616
			c-0.009-0.217-0.064-0.443-0.167-0.68c-0.103-0.237-0.238-0.472-0.408-0.705c-0.381-0.524-0.798-0.839-1.25-0.945
			c-0.453-0.106-0.877-0.016-1.271,0.271c-0.201,0.146-0.364,0.278-0.489,0.399c-0.125,0.121-0.212,0.213-0.263,0.28L74.475,37.835z
			"/>
		<path d="M71.352,41.722c-0.336,0.245-0.65,0.408-0.941,0.491c-0.291,0.082-0.562,0.101-0.812,0.056
			c-0.25-0.046-0.482-0.154-0.695-0.325c-0.215-0.172-0.412-0.384-0.596-0.636l-2.045-2.816c0.164-0.169,0.383-0.388,0.658-0.656
			c0.274-0.269,0.572-0.521,0.896-0.755c0.246-0.179,0.501-0.332,0.765-0.459c0.263-0.127,0.524-0.203,0.783-0.228
			c0.259-0.025,0.511,0.017,0.758,0.124c0.247,0.108,0.476,0.307,0.687,0.599c0.188,0.258,0.291,0.519,0.307,0.778
			c0.016,0.26-0.024,0.51-0.123,0.75c-0.098,0.239-0.244,0.467-0.439,0.682c-0.193,0.215-0.408,0.408-0.641,0.577
			c-0.316,0.23-0.654,0.42-1.01,0.57l0.162,0.224c0.1,0.136,0.209,0.256,0.329,0.361c0.121,0.105,0.261,0.18,0.417,0.226
			c0.155,0.045,0.325,0.047,0.51,0.007c0.184-0.04,0.386-0.139,0.605-0.299c0.278-0.202,0.506-0.398,0.686-0.587
			c0.18-0.19,0.31-0.343,0.391-0.463l0.576,0.59c-0.07,0.132-0.221,0.31-0.449,0.534C71.901,41.292,71.643,41.511,71.352,41.722z
			 M68.34,37.74c-0.201,0.146-0.376,0.283-0.525,0.412c-0.148,0.128-0.269,0.239-0.357,0.334l0.973,1.34
			c0.127-0.043,0.271-0.108,0.431-0.194c0.159-0.086,0.321-0.188,0.482-0.306c0.149-0.108,0.286-0.225,0.412-0.351
			c0.126-0.127,0.223-0.259,0.29-0.397c0.068-0.138,0.104-0.28,0.106-0.425c0.003-0.146-0.048-0.29-0.151-0.432
			c-0.211-0.292-0.457-0.422-0.736-0.392C68.984,37.358,68.676,37.495,68.34,37.74z"/>
		<path d="M66.976,47.928l-0.708,0.722l-4.796-6.602c0.137-0.179,0.323-0.393,0.557-0.643c0.235-0.249,0.533-0.505,0.896-0.768
			c0.324-0.235,0.658-0.394,1.004-0.477c0.345-0.083,0.686-0.09,1.021-0.023c0.336,0.068,0.661,0.209,0.977,0.425
			c0.314,0.216,0.604,0.505,0.867,0.868c0.254,0.35,0.441,0.7,0.563,1.051c0.122,0.352,0.175,0.692,0.155,1.021
			c-0.017,0.329-0.102,0.638-0.253,0.927c-0.151,0.288-0.38,0.542-0.684,0.764c-0.239,0.174-0.472,0.297-0.694,0.371
			c-0.225,0.073-0.404,0.111-0.542,0.112L66.976,47.928z M64.768,44.889c0.151,0.019,0.342,0.001,0.57-0.051
			c0.229-0.052,0.438-0.147,0.625-0.283c0.213-0.155,0.365-0.331,0.457-0.524c0.09-0.195,0.132-0.4,0.123-0.616
			c-0.009-0.217-0.064-0.443-0.168-0.68c-0.102-0.237-0.238-0.471-0.408-0.705c-0.381-0.524-0.797-0.839-1.25-0.945
			c-0.453-0.106-0.876-0.016-1.271,0.271c-0.2,0.146-0.363,0.278-0.488,0.399c-0.125,0.121-0.213,0.214-0.264,0.28L64.768,44.889z"
			/>
		<path d="M61.527,48.86c-0.609,0.442-1.217,0.593-1.821,0.455s-1.187-0.593-1.747-1.363l-0.205-0.282l3.224-2.342
			c-0.37-0.442-0.782-0.685-1.233-0.728c-0.451-0.043-0.926,0.116-1.424,0.479c-0.285,0.207-0.512,0.406-0.68,0.597
			c-0.168,0.191-0.284,0.35-0.351,0.477l-0.601-0.602c0.061-0.122,0.194-0.304,0.404-0.546c0.211-0.241,0.475-0.478,0.791-0.708
			c0.389-0.282,0.773-0.47,1.154-0.565c0.383-0.094,0.745-0.109,1.09-0.042c0.345,0.066,0.67,0.207,0.977,0.425
			c0.307,0.217,0.581,0.494,0.826,0.831c0.291,0.4,0.484,0.795,0.577,1.182c0.093,0.386,0.11,0.75,0.051,1.091
			c-0.06,0.339-0.18,0.65-0.362,0.93C62.016,48.43,61.793,48.667,61.527,48.86z M59.043,47.728c0.277,0.382,0.598,0.611,0.96,0.689
			c0.362,0.078,0.71-0.003,1.04-0.243c0.188-0.137,0.332-0.295,0.432-0.478c0.1-0.181,0.164-0.37,0.188-0.567
			c0.026-0.196,0.017-0.392-0.026-0.588c-0.044-0.195-0.112-0.379-0.206-0.547L59.043,47.728z"/>
	</g>
</g>
<g>
	
		<rect x="60.114" y="74.84" transform="matrix(0.5879 0.8089 -0.8089 0.5879 90.7245 -19.1064)" fill="#E5A26A" width="8" height="9.296"/>
	
		<rect x="50.584" y="79.281" transform="matrix(0.5879 0.8089 -0.8089 0.5879 92.3981 -8.5439)" fill="#E27F60" width="8" height="14.263"/>
	
		<rect x="38.067" y="87.166" transform="matrix(0.5878 0.809 -0.809 0.5878 94.6098 5.3382)" fill="#E5A26A" width="7.999" height="16.681"/>
	
		<rect x="87.932" y="50.936" transform="matrix(0.5878 0.809 -0.809 0.5878 85.8472 -49.9388)" fill="#E5A26A" width="7.998" height="16.683"/>
	
		<rect x="72.529" y="59.771" transform="matrix(0.5878 0.809 -0.809 0.5878 88.5496 -32.8659)" fill="#E27F60" width="8" height="21.395"/>
	
		<rect x="99.676" y="44.567" transform="matrix(0.5877 0.8091 -0.8091 0.5877 83.8014 -62.9606)" fill="#E27F60" width="8" height="12.354"/>
	
		<rect x="108.898" y="38.824" transform="matrix(0.5876 0.8091 -0.8091 0.5876 82.1916 -73.1857)" fill="#E5A26A" width="8.001" height="10.443"/>
	
		<rect x="116.832" y="33.696" transform="matrix(0.5877 0.8091 -0.8091 0.5877 80.7905 -81.9789)" fill="#E27F60" width="8" height="9.17"/>
	
		<rect x="128.216" y="27.526" transform="matrix(0.5877 0.8091 -0.8091 0.5877 78.7924 -94.6)" fill="#E27F60" width="8" height="4.967"/>
	
		<rect x="123.374" y="30.026" transform="matrix(0.5877 0.8091 -0.8091 0.5877 79.6424 -89.2319)" fill="#E5A26A" width="8" height="7.004"/>
	
		<rect x="133.316" y="25.159" transform="matrix(0.5878 0.809 -0.809 0.5878 77.8882 -100.2493)" fill="#E27F60" width="7.999" height="2.291"/>
	
		<rect x="131.308" y="26.427" transform="matrix(0.5879 0.8089 -0.8089 0.5879 78.2221 -98.0148)" fill="#E5A26A" width="8" height="2.674"/>
</g>
<polyline fill="none" stroke="#000000" stroke-miterlimit="10" points="272.121,212.846 259.262,252.421 255.458,251.185 "/>
<polyline fill="none" stroke="#000000" stroke-miterlimit="10" points="294.772,130.188 298.576,131.424 285.718,170.999 "/>
<g>
	<g>
		<path d="M274.779,200.911c0.434,0.141,0.777,0.379,1.035,0.715c0.256,0.336,0.414,0.728,0.471,1.175
			c0.219-0.055,0.467-0.115,0.746-0.181c0.277-0.065,0.57-0.128,0.881-0.187c0.309-0.059,0.625-0.114,0.949-0.165
			c0.324-0.05,0.637-0.093,0.943-0.128l-0.326,1.004c-0.623,0.051-1.229,0.129-1.818,0.236c-0.59,0.106-1.082,0.234-1.475,0.385
			c-0.008,0.048-0.025,0.116-0.053,0.203c-0.029,0.088-0.049,0.146-0.059,0.177l-0.26,0.8l2.785,0.904l-0.309,0.947l-6.961-2.263
			c0.008-0.123,0.023-0.264,0.047-0.42c0.027-0.155,0.059-0.313,0.098-0.473c0.041-0.159,0.08-0.316,0.121-0.472
			c0.043-0.154,0.084-0.292,0.123-0.414c0.277-0.853,0.672-1.433,1.184-1.742C273.416,200.706,274.041,200.671,274.779,200.911z
			 M272.555,202.938c-0.057,0.176-0.109,0.346-0.158,0.511c-0.049,0.164-0.078,0.283-0.086,0.357l2.729,0.886l0.195-0.605
			c0.09-0.273,0.15-0.524,0.184-0.754c0.031-0.229,0.021-0.438-0.029-0.628c-0.053-0.189-0.154-0.355-0.307-0.497
			c-0.15-0.142-0.371-0.26-0.66-0.354c-0.273-0.089-0.512-0.12-0.715-0.093c-0.201,0.027-0.377,0.092-0.523,0.195
			s-0.271,0.242-0.375,0.415C272.707,202.545,272.621,202.733,272.555,202.938z"/>
		<path d="M275.48,197.001c0.232-0.716,0.635-1.194,1.207-1.438c0.57-0.243,1.309-0.218,2.215,0.076l0.33,0.107l-1.23,3.789
			c0.559,0.14,1.035,0.095,1.426-0.136c0.389-0.23,0.68-0.639,0.871-1.225c0.109-0.335,0.174-0.629,0.197-0.882
			s0.025-0.451,0.004-0.592l0.84,0.134c0.023,0.134,0.021,0.36-0.006,0.679c-0.029,0.319-0.104,0.665-0.225,1.038
			c-0.148,0.456-0.35,0.835-0.602,1.136c-0.254,0.301-0.539,0.525-0.857,0.674c-0.316,0.149-0.664,0.227-1.039,0.229
			c-0.375,0.005-0.762-0.058-1.158-0.187c-0.471-0.152-0.857-0.358-1.162-0.617c-0.301-0.258-0.529-0.543-0.682-0.853
			c-0.15-0.31-0.236-0.632-0.254-0.966C275.338,197.636,275.381,197.312,275.48,197.001z M278.156,196.456
			c-0.449-0.146-0.844-0.143-1.182,0.007c-0.34,0.151-0.572,0.42-0.699,0.809c-0.07,0.221-0.094,0.434-0.068,0.641
			c0.025,0.205,0.086,0.396,0.182,0.569c0.094,0.174,0.217,0.327,0.367,0.46s0.314,0.24,0.488,0.323L278.156,196.456z"/>
		<path d="M276.912,193.529c0.027-0.37,0.072-0.731,0.139-1.084c0.064-0.354,0.145-0.68,0.24-0.977
			c0.23-0.707,0.586-1.182,1.068-1.425c0.484-0.243,1.127-0.233,1.936,0.028l3.104,1.009l-0.305,0.937l-2.934-0.953
			c-0.342-0.111-0.629-0.172-0.861-0.18s-0.426,0.023-0.582,0.096c-0.152,0.072-0.277,0.179-0.375,0.319
			c-0.096,0.142-0.172,0.304-0.232,0.485c-0.049,0.152-0.092,0.317-0.129,0.494c-0.037,0.178-0.066,0.352-0.088,0.521l4.475,1.453
			l-0.309,0.947L276.912,193.529z"/>
		<path d="M277.184,183.839l0.148-0.999l7.76,2.521c-0.006,0.225-0.029,0.508-0.072,0.847s-0.135,0.722-0.271,1.147
			c-0.125,0.381-0.303,0.706-0.533,0.977c-0.23,0.27-0.5,0.476-0.812,0.618c-0.311,0.143-0.658,0.22-1.039,0.229
			c-0.383,0.012-0.787-0.053-1.213-0.191c-0.41-0.133-0.77-0.307-1.074-0.52s-0.547-0.457-0.727-0.734
			c-0.178-0.276-0.291-0.576-0.338-0.898s-0.012-0.662,0.104-1.02c0.092-0.282,0.207-0.518,0.344-0.708
			c0.139-0.191,0.262-0.328,0.373-0.409L277.184,183.839z M280.756,185c-0.133,0.073-0.277,0.199-0.432,0.377
			c-0.154,0.176-0.268,0.375-0.338,0.596c-0.082,0.251-0.102,0.482-0.062,0.693c0.043,0.211,0.129,0.401,0.264,0.57
			c0.135,0.17,0.312,0.321,0.533,0.452c0.223,0.131,0.471,0.241,0.744,0.329c0.617,0.201,1.141,0.211,1.568,0.03
			c0.43-0.18,0.719-0.502,0.869-0.966c0.078-0.236,0.131-0.439,0.16-0.611c0.031-0.17,0.047-0.298,0.049-0.381L280.756,185z"/>
		<path d="M281,180.019c0.127-0.396,0.285-0.712,0.473-0.95c0.186-0.238,0.395-0.412,0.623-0.523c0.23-0.109,0.48-0.158,0.754-0.146
			c0.273,0.014,0.559,0.068,0.855,0.165l3.311,1.075c-0.033,0.234-0.084,0.539-0.148,0.918s-0.156,0.758-0.281,1.139
			c-0.094,0.289-0.209,0.562-0.348,0.82s-0.305,0.473-0.5,0.646c-0.193,0.172-0.424,0.286-0.686,0.345
			c-0.264,0.058-0.566,0.031-0.908-0.08c-0.305-0.1-0.539-0.25-0.705-0.45c-0.166-0.201-0.281-0.428-0.342-0.679
			c-0.061-0.252-0.076-0.521-0.045-0.811c0.029-0.287,0.09-0.569,0.18-0.844c0.121-0.372,0.281-0.724,0.48-1.055l-0.262-0.085
			c-0.16-0.052-0.32-0.085-0.479-0.099c-0.16-0.014-0.316,0.007-0.469,0.062c-0.154,0.055-0.293,0.153-0.418,0.293
			c-0.125,0.141-0.23,0.34-0.314,0.598c-0.105,0.328-0.176,0.621-0.209,0.879s-0.049,0.46-0.045,0.604l-0.812-0.138
			c-0.02-0.149-0.004-0.382,0.049-0.697S280.889,180.36,281,180.019z M285.777,181.47c0.076-0.235,0.137-0.449,0.182-0.641
			s0.078-0.352,0.094-0.48l-1.574-0.512c-0.078,0.109-0.156,0.245-0.234,0.409c-0.08,0.164-0.148,0.341-0.211,0.531
			c-0.057,0.175-0.1,0.351-0.127,0.526c-0.027,0.177-0.027,0.34-0.002,0.491c0.025,0.152,0.082,0.287,0.164,0.406
			c0.084,0.12,0.209,0.207,0.377,0.262c0.342,0.111,0.617,0.072,0.826-0.116C285.479,182.157,285.648,181.865,285.777,181.47z"/>
	</g>
</g>
<g>
	
		<rect x="229.418" y="238.804" transform="matrix(0.951 0.3091 -0.3091 0.951 86.0244 -60.3272)" fill="#1DB784" width="8" height="5.089"/>
	
		<rect x="232.229" y="226.146" transform="matrix(0.951 0.3091 -0.3091 0.951 83.4883 -61.6197)" fill="#46CCB2" width="8" height="13.103"/>
	
		<rect x="238.913" y="197.053" transform="matrix(0.951 0.3091 -0.3091 0.951 77.4582 -64.6925)" fill="#1DB784" width="8" height="30.152"/>
	
		<rect x="249.154" y="162.544" transform="matrix(0.951 0.3091 -0.3091 0.951 68.2176 -69.4012)" fill="#46CCB2" width="8" height="36.132"/>
	
		<rect x="256.958" y="149.404" transform="matrix(0.951 0.3091 -0.3091 0.951 61.1764 -72.9891)" fill="#1DB784" width="8" height="14.375"/>
	
		<rect x="260.81" y="139.455" transform="matrix(0.951 0.3091 -0.3091 0.951 57.7002 -74.7604)" fill="#46CCB2" width="8" height="10.56"/>
	
		<rect x="265.194" y="122.339" transform="matrix(0.951 0.3091 -0.3091 0.951 53.7451 -76.7757)" fill="#1DB784" width="8" height="17.81"/>
</g>
</svg>
