<?xml version="1.0" encoding="utf-8"?>
<!-- Generator: Adobe Illustrator 16.0.0, SVG Export Plug-In . SVG Version: 6.00 Build 0)  -->
<!DOCTYPE svg PUBLIC "-//W3C//DTD SVG 1.1//EN" "http://www.w3.org/Graphics/SVG/1.1/DTD/svg11.dtd">
<svg version="1.1" id="Layer_1" xmlns="http://www.w3.org/2000/svg" xmlns:xlink="http://www.w3.org/1999/xlink" x="0px" y="0px"
	 width="540px" height="210px" viewBox="0 0 540 210" enable-background="new 0 0 540 210" xml:space="preserve">
<path fill="#E0E0E0" d="M228.505,162.165l-0.551-0.427h-0.797l-0.736-0.061l-0.307-0.242l0.062-0.913v-0.73h-3.434l-0.307-1.338
	l-0.123-1.34l-0.552-0.911l-0.798-0.67l-0.061-0.79l-0.185-1.702l-0.123-1.338l-0.797-0.793l-1.042-0.121l-3.801-0.06l-0.922-0.61
	l-0.611-0.365l-0.737-0.183l-0.614-0.12l-1.717-0.121l-1.962-0.123h-0.675h-1.348l-1.043,0.061h-1.166h-0.612l-1.044,0.486
	l-1.042,0.853l-1.043,0.974l-0.367,0.852l-1.227,1.34l-0.43,0.85l-0.43,1.155v2.312l-0.121,1.826v2.007l-0.798,0.912l-0.368,0.243
	l0.429,0.242h0.552l0.43-0.364l0.368,0.182l0.735,1.157l0.43,0.852l0.245,1.155l0.674,1.645v1.338l0.062,1.338l0.122,0.729
	l-2.821,1.158l-0.919,0.668l-1.042,0.731l-1.411,0.666l-1.104,0.669l-0.982,0.61l-0.98,0.547l-10.917,10.947l0.369,0.184l0.98-0.12
	l0.859-0.549l0.981-0.364l0.92,0.182l0.858,0.915l1.411,1.216l1.165,1.274v0.792l0.491,0.548l0.675-0.185l0.797-0.424l0.55-0.303
	l0.615,0.547l0.368,0.424l0.55,0.731l0.798,0.671l0.92-0.185l0.797,0.791l0.92,0.425l0.675,0.486l0.797,0.914l0.613,0.791
	l0.92-0.061l0.981,0.728l0.183,0.609l0.674,0.609l0.676,0.911c0,0,0.244-0.001,0.428,0.121c0.185,0.122,0.92,0.61,0.92,0.61
	l0.49,0.547l-0.061,1.399l-0.488,0.669c0,0-0.799,0.425-0.799,0.607c0,0.184-0.062,2.494-0.062,2.494l0.614-0.487l0.919-0.669
	l1.288-0.608l0.551-1.032l1.043-1.096l0.368-1.581l0.552-1.522l0.551-0.911v-1.584l0.551-0.91l0.737-0.607l0.06-1.399l1.351-0.306
	l0.673-0.485l0.184-1.46l0.859-0.61l0.614-2.554l0.551-0.303l0.859,0.241l0.061,0.428l0.674,0.241l0.491-0.544l0.675-0.184h0.919
	l-0.061,1.46l-0.612,0.607l-0.737,1.035l-1.288,1.153l-0.613,1.096l-0.552,0.853l-1.227,0.789l-1.35,0.854
	c0,0-0.797,0.364-0.98,0.484c-0.185,0.121-0.675,0.427-0.675,0.427l0.062,0.729l0.49-0.06l0.674-0.062l1.044-0.485l1.225-0.913
	l1.166-1.094l1.165-1.097l1.288-1.459l1.472-2.008l0.919-1.703l1.044-2.129l0.429-1.155l0.612-1.399l0.859-0.852l0.491-0.729
	l1.042-0.912l0.919-0.791l1.656-0.853c0,0,0.43-0.364,0.491-0.607c0.061-0.244,0.491-1.766,0.491-1.766l0.368-1.338l0.123-1.458
	v-1.4l-0.061-1.643c0,0,0-1.217,0-1.399s-0.062-1.521-0.062-1.521l-0.185-0.851l0.43-1.157l0.368-0.667l0.246-0.854l0.613-0.607
	l0.183-0.547l0.43-0.305L228.505,162.165z"/>
<path fill="#E0E0E0" d="M239.545,106.022l-0.552-0.731l-0.43-0.545l-0.123-3.226l0.429-0.244l-0.061-1.885l-0.735-0.061
	l-1.104,0.241l-1.288,0.366l-1.289,0.304l-0.921,0.546l-1.287,0.306v0.669l-1.35-0.062l-0.43-0.241l-0.858-0.488l-1.042-0.12
	l-1.289,0.12l-0.735-0.12l-0.246-0.791l-0.183-1.095l-1.84,0.06l-0.797,0.486l-0.246,1.643l-1.287-0.366l-1.042-0.972l-1.043-0.183
	l-1.042-0.789l-1.104-0.67l-1.685-0.933l-0.094-0.405c0,0,0-3.954-0.062-5.839c-0.062-1.887,0.124-1.765,0.124-1.765l1.47-4.077
	l0.43-1.398l0.061-0.547l-10.608-0.729l-14.596-0.608l-6.684-0.244l-1.655-0.244l-4.11-3.343l-0.735-0.73l-0.307-2.556l-0.49-1.644
	l-0.553-1.032l-0.122-0.73l-0.245-0.304l-0.429-0.062l-0.246,0.79l-0.246,0.975v1.276l-0.121,1.521l-0.553,1.521l-0.428,1.033
	l-15.761-0.242l-0.125,5.476l-0.306,1.275l0.553,1.035l-0.123,2.433c0,0,3.986-0.062,4.169-0.062s1.656,0.549,1.656,0.549
	s1.41,0.365,1.595,0.547c0.184,0.183,0.368,0.485,0.551,0.73c0.185,0.242-0.184,1.399-0.184,1.399l-0.184,0.79l0.307,1.035
	l0.553,0.729l-0.062,3.771l-2.76,4.015l-0.735,0.67l0.613,0.486l0.49,3.226l0.49,0.729l0.245,1.826l-0.185,1.276h-1.041l0.306,0.791
	l0.553,0.424l0.306,0.426l0.369,1.765l0.183,1.764l9.444,0.062v0.67l-0.183,0.789l-0.49,0.365v0.791l0.306,2.068l0.431,0.607
	l1.165,0.793l1.349,1.701l0.307,1.398c0,0,0.675,0.853,0.737,1.097c0.06,0.244,0.06,1.216,0.06,1.216l-0.858,0.973l-0.123,1.582
	c0,0,0.306,1.217,0.245,1.398c-0.061,0.184-0.98,1.399-0.98,1.399l-0.859,0.974l-0.123,0.914l0.736,0.912l-0.553,1.094
	c0,0-0.306,0.607-0.367,0.852c-0.061,0.243,0.307,0.789,0.307,1.095c0,0.304,0.491,1.339,0.491,1.522
	c0,0.181,0.306,0.971,0.306,0.971v1.643l0.183,2.251v1.339l1.84,0.183l0.429,0.122h2.33l2.638-0.062l1.717,0.364l1.165,0.365
	l0.674,0.67l0.552,1.094l0.246,1.46v1.338l0.43,0.364l0.491,0.791l0.122,1.097l0.245,1.459l0.43,0.547l1.472-0.12l0.736-0.427
	l0.858-0.425l1.104,0.061l0.49,0.547l0.675,0.12l0.49-0.605l0.124-1.4l1.104-0.853l0.185-0.851l0.673-0.852l0.799-0.912l2.451-1.278
	l0.921-0.91l1.533-1.4l2.453-1.886c0,0,0-0.791,0.061-0.974c0.062-0.182,0.675-0.912,0.675-0.912l0.123-1.096l0.859-1.338
	l1.287-1.764l0.98-1.277l0.982-0.792l0.43-0.303v-3.589l0.857-0.304l1.104-1.278l0.675-0.729l0.918-1.094
	c0,0,0.859-0.853,1.043-0.853c0.184,0,1.042-0.183,1.042-0.183l1.963-0.306l1.471,0.122l0.737-0.607c0,0,0.919-0.303,1.104-0.303
	c0.183,0,0.98-0.184,0.98-0.184l1.595,0.06h1.411l1.166,0.244l0.674,0.365l0.184-0.485l0.675-0.73l0.92-0.487l0.734-0.548v-0.547
	v-1.094l-0.243-0.426l-0.553-0.244l-0.123-0.729l0.246-0.67l0.673-0.73l0.737-0.605l-0.062-0.547l-0.49-0.732l-0.368-0.425
	l-0.246-0.791l0.062-0.974l0.166-0.655l0.225-0.592l-0.342-0.787l1.672-0.301l0.365-0.039l0.797-0.061l-0.121-0.728v-0.365
	l-0.248-0.669v-1.705v-0.79l0.737-0.122l1.103-0.241v-0.608l0.247-0.732l0.796-0.062l0.735,0.306l0.676,0.548l0.552,0.061
	l0.122-0.365v-2.007L239.545,106.022z"/>
<g>
	<g>
		<path fill="#E0E0E0" d="M196.096,22.368c0.23,0.183,0.506,0.41,1.012,0.503c0.505,0.09,0.966,0.64,1.195,0.684
			c0.23,0.046,1.013,0.319,1.38,0.547c0.368,0.229,0.965,0.456,1.379,0.593c0.415,0.137,0.69,0.869,0.829,1.004
			c0.137,0.139,0.689,1.644,1.012,1.916c0.322,0.274,0.734,1.644,0.781,1.873c0.046,0.226,0.139,1.23,0.139,1.23
			s0.412,0.547,0.643,0.774c0.229,0.228,0.69,1.141,0.92,1.461c0.23,0.319,0.69,1.049,0.69,1.049s0.689,1.096,0.827,1.506
			c0.139,0.41,0.598,1.231,0.736,1.369c0.137,0.137,0.507,0.729,0.507,0.729s0.735,0,1.011,0c0.275,0,0.506-0.274,0.506-0.274
			l0.322-1.276l0.828-1.049l0.688-0.958c0,0,0.6-1.368,0.6-1.507c0-0.135,0.552-0.684,0.919-0.821
			c0.369-0.136,1.289-0.775,1.289-0.775l1.287-1.047c0,0,0.874-1.278,1.381-1.735c0.505-0.456,1.562-1.505,1.702-1.688
			c0.137-0.184,0.597-0.366,0.597-0.366l0.139-1.094l-0.552-0.913l-0.552-0.547l-1.106-0.184l-0.964-0.729l-0.874-0.912
			l-0.413-0.821c0,0-0.37-1.507-0.322-1.644c0.045-0.135-0.139-1.231-0.139-1.459c0-0.229-0.367-0.639-0.367-0.639l-0.506-0.776
			l-0.229-0.682c0,0-0.047-2.146-0.047-2.329c0-0.181-0.092-1.14-0.092-1.14l-0.597-0.73l-0.829-0.638l-0.965,0.82l-1.243,1.507
			l-1.196,1.824l-1.287,2.188c0,0-0.874,2.053-1.012,2.281c-0.138,0.229-0.644,1.005-0.644,1.005l-1.196,0.775l-1.196,0.045
			l-0.873-0.091l-0.829-0.411h-0.967l-1.148,0.046l-0.368,0.411l-0.828,0.136l-0.92-0.182l-1.38-0.457c0,0-0.553,0.138-0.553,0.457
			S195.865,22.188,196.096,22.368z"/>
		<path fill="#E0E0E0" d="M218.54,30.991l-0.46,0.82c0,0,1.104,0.183,1.381,0.183c0.275,0,0.827,0.184,0.827,0.184l0.092-0.64
			l0.46-1.185l-1.472-0.366L218.54,30.991z"/>
		<path fill="#E0E0E0" d="M221.301,34.185l-0.829-0.274l-1.104-0.365l-0.921,0.183l-0.368,1.003l-0.091,0.823l-0.093,1.004
			c0,0,0.184,1.003,0,1.274c-0.183,0.275-0.276,1.462-0.276,1.462l-0.092,1.276l0.368,0.092l0.551-0.364l0.736-0.183l0.46,0.183
			l0.552,0.272l0.645-0.364l0.552-0.548l0.645-0.364l0.643,0.274l0.461-0.274l0.827-0.731l1.014-0.09l0.827-1.186l0.736-1.095
			l0.184-0.913l0.276-0.912l-1.471-0.09l-1.013-0.184h-1.289l-0.642,0.091H221.301z"/>
		<polygon fill="#E0E0E0" points="216.333,36.01 215.873,36.192 215.228,36.374 214.861,36.831 215.413,37.014 215.965,37.287 
			216.978,36.739 		"/>
		<polygon fill="#E0E0E0" points="222.588,32.36 222.22,31.538 221.485,31.629 220.932,32.541 221.668,32.999 		"/>
		<polygon fill="#E0E0E0" points="215.965,33.272 216.333,32.449 216.333,31.902 215.413,31.902 214.4,32.449 214.125,33.637 
			214.309,34.73 215.321,33.637 		"/>
		<polygon fill="#E0E0E0" points="211.55,36.101 210.721,37.561 210.169,39.02 210.997,38.562 211.733,37.378 212.561,36.465 
			212.193,35.736 		"/>
		<polygon fill="#E0E0E0" points="215.688,38.745 215.779,39.568 216.608,39.568 216.7,38.838 216.333,38.199 215.779,38.199 		"/>
		<polygon fill="#E0E0E0" points="217.068,33.272 216.425,33.545 216.241,34.367 216.978,34.367 		"/>
		<path fill="#E0E0E0" d="M239.882,85.371l-1.012-0.184l-0.829-0.547l-0.55-0.456l-0.645-1.003l-0.276-0.821l-0.184-1.005
			l-0.553-0.822l-0.827-1.094l-0.46-0.729l0.185-1.004l0.184-1.004l0.645-0.82l0.918-0.458l0.46-0.82l-0.368-1.004h-1.378
			l-1.381-0.64l-0.829-1.003l-0.644-0.912l-1.105-0.729l-0.091-1.004l0.368-0.913l0.367-0.912l0.092-1.823l0.185-2.008l-0.46-1.825
			l-0.461-0.913l-1.379-0.547l-1.104-0.457l-1.379-0.183h-1.592l-0.019-0.046l1.151-1.368l2.942-2.51l1.564-0.684l1.15-1.46
			l2.3-3.649l1.609-2.144l0.092-1.506l0.368-0.914l0.598-1.047l0.645-1.507l0.229-2.28l0.459-0.594v-1.461l-0.829-0.501h-1.425
			l-0.413-0.73c0,0-1.427-0.181-1.657-0.273c-0.229-0.09-1.15-0.181-1.15-0.181l-1.333-0.138l-1.196-0.229l-0.782,0.092
			l-0.552,0.548l-2.853,3.056l-1.609,1.962l-1.243,0.685l-1.333,0.045l-0.735-0.455l-0.645,0.045l-0.368,0.547l-0.275,0.548
			l-0.828-0.319l-0.781-0.639l-2.208-0.41c0,0-0.689-0.318-0.828-0.41c-0.138-0.091-0.735-0.913-0.735-0.913l-0.69-1.506
			l-0.369-0.32h-1.057l-1.425,0.868l-1.334,0.638l-2.116,0.411l-0.552-0.547l0.276-1.004l1.196-0.228l-0.092-0.547l-1.379-0.184
			c0,0-0.735-0.775-0.919-0.867c-0.184-0.091-0.873-1.185-0.873-1.185l-0.186-1.142l-0.689-0.867l-1.426-1.963
			c0,0-0.229-1.185-0.46-1.551c-0.229-0.364-0.367-1.094-0.367-1.367s-0.598-1.096-0.874-1.324
			c-0.275-0.228-0.553-1.322-0.735-1.596c-0.186-0.272-0.92-0.913-0.92-0.913l-1.427-0.82l-1.471-1.05c0,0-1.104-0.228-1.289-0.366
			c-0.184-0.135-1.242-0.547-1.333-0.728c-0.093-0.184-0.276-1.369-0.276-1.369l-0.139-1.277l-0.552-0.686c0,0-1.011,0-1.148,0
			c-0.14,0-1.196,0.32-1.196,0.32l-0.553,0.411h-1.195l-0.644-0.137l-0.138,0.591l0.045,1.006v0.911l-0.137,0.41h-2.024
			l-2.163-0.181l-1.104,0.09c0,0-1.242-0.09-1.472-0.046c-0.23,0.046-1.563,0.913-1.563,0.913l-1.197,0.456l-1.241,0.594
			l-2.024,0.684l-0.967,0.684l-0.734,0.275l-1.425-0.686l-0.414-0.547l-1.426-0.913l-0.599-0.82l-1.103-0.957l-0.69-0.41
			l-0.046-1.415l-0.461-0.913l-0.504-0.683l-0.045-0.914v-1.734l0.275-0.593l-0.045-0.73l0.459-1.504l0.185-0.867l0.689-0.685
			l0.231-0.82l-0.369-0.823l-0.646-1.048l-0.965-0.41l-0.92-0.137l-0.045-0.912l0.368-0.729l0.459-0.778l-0.459-0.91l-2.023-0.092
			l-0.138,0.912l-0.965,1.233l-0.921,1.094l-1.288,0.137l-0.874,0.41l-1.058,0.549l-1.104,0.773l-0.782,0.229h-1.794l-1.15,0.319
			l-0.829,0.455l-0.137,1.004l-0.46,0.684h-1.149l-1.013-0.091l-0.459-0.912l-1.196-0.137l-1.748-0.183l-0.828-0.638l-0.828-0.868
			c0,0-1.748,0-1.931,0l-0.138,0.184l0.275,0.365l0.691,0.228l0.735,0.228l1.104,0.729v1.37l-0.321,0.502
			c0,0-0.553,0.639-0.553,0.775c0,0.136,0.138,3.831,0.138,3.831h0.415l0.321,0.183l0.966,0.183l0.598-0.047
			c0,0,1.104,0,1.242,0.047c0.138,0.046,0.874,0.046,0.874,0.046l-0.044,1.733l0.106,1.264l-1.427-0.016l-0.215-0.32l-0.443,0.137
			l-0.445,0.411l-1.119,0.486l-0.231,0.958l-0.764,0.835l-0.799,0.853l-1.087,0.153l-0.875,0.318l-0.705,0.547l-0.829,0.624
			l-1.119,1.187l-0.952,0.229l-0.888,0.197l-0.552-0.395l-0.046-0.547h-0.705l-0.538,0.104l-0.245,0.64l-1.042-0.018l-1.288-0.013
			l-0.414-0.29c0,0-0.322-0.426-0.368-0.471c-0.047-0.047-0.66-0.548-0.66-0.548l-0.521-0.396l-2.008-0.166l-0.062-2.891
			l-0.567-0.882l-0.336-0.503l-0.323-0.317l-0.72,0.546l-0.629,0.426l-0.352,0.654l-0.891,0.532l-0.75-0.943l-0.231-0.485
			l-0.443,0.655l-0.445,0.591l-2.391,0.017l-1.642-0.093l-2.329-0.061c0,0-0.491,0.122-0.537,0.137
			c-0.046,0.017-0.675,0.352-0.675,0.352s-0.213,0.47-0.2,0.515c0.017,0.047,0.125,0.989,0.125,0.989l0.076,0.7
			c0,0,0.154,0.258,0.369,0.273c0.214,0.015,0.92,0.015,0.92,0.015s0.874,0.047,0.95,0.047c0.077,0,0.398,0.258,0.398,0.258
			s0.322,0.258,0.354,0.319c0.031,0.06,0.368,0.609,0.368,0.609l0.137,0.684c0,0,0,0.638,0,0.684s-0.153,0.61-0.153,0.61h-0.537
			l-0.95,0.059l-0.245-0.243l-0.814-0.062l-0.719,0.29l-0.952,0.046l0.016,0.852l-0.03,2.646l0.46,0.439
			c0,0,0.553,0.304,0.613,0.367c0.062,0.06,0.43,0.317,0.521,0.395c0.091,0.075,0.46,0.212,0.46,0.212l0.076,1.293l-0.091,0.622
			l0.658,0.875l0.299,0.844l-0.276,3.33v1.529c0,0-0.391,1.186-0.391,1.391s-0.529,1.483-0.529,1.483l-0.022,1.528
			c0,0-0.3,0.457-0.322,0.614c-0.024,0.162-0.07,2.054-0.07,2.054s-0.345,0.914-0.367,1.049c-0.022,0.14,0,1.324,0,1.324
			s-0.506,1.527-0.576,1.643c-0.069,0.113-0.505,0.82-0.599,0.845c-0.09,0.021-0.965-0.024-1.081-0.024
			c-0.114,0-1.011-0.32-1.081-0.387c-0.068-0.07-0.483-0.342-0.483-0.342h-1.035l-0.781,0.296l-0.322,0.569l-1.219,0.479
			l-1.725,0.159l-1.563,0.045l-0.919,0.389l-1.059,0.615l-0.736,0.549c0,0-1.149,0.775-1.149,0.845c0,0.067-1.011,1.299-1.104,1.413
			c-0.091,0.113-0.391,1.141-0.391,1.141l-0.16,0.729l-0.507,0.707c0,0-0.415,0.616-0.437,0.685
			c-0.022,0.068,0.138,1.049,0.138,1.049l0.16,0.663l-0.459,1.208l-0.852,0.774c0,0-0.942,0.504-0.942,0.595
			s-0.583,1.026-0.583,1.026v1.582l-0.858,0.122v1.094l0.858,1.703l1.104,2.189l1.47,1.581l0.859,0.974v1.46l-0.244,0.851h1.226
			l1.104,0.486l1.472,1.096l0.246,1.459l3.311,0.367l1.348-0.486l1.84-1.461l1.595-1.094l0.124,1.094v1.703l-0.368,1.581
			l0.122,2.312l0.368,1.217l1.594,0.121h3.434h2.086l1.349,0.607l0.981,0.122l0.737-0.365l0.98-1.339l1.226-0.485l1.595-0.244
			l0.859-0.972l1.471-0.73l1.595-0.973l0.124-0.853l2.437-0.304l1.104-0.319c0,0,1.611-0.41,1.886-0.41
			c0.276,0,2.115-0.047,2.115-0.047h1.059l0.414,0.865l-0.046,2.375l-0.598,0.547l0.23,1.187l0.276,0.959l-0.092,2.051l0.505,1.507
			l0.691,0.959l0.735,0.728l1.288,1.141l0.92,1.05L145.087,96l1.611-0.183l0.781,0.046l0.691,0.41l0.505,0.457h0.782l0.874-0.365
			l0.507,0.318l0.368,0.685l0.597,0.729l0.644,0.594l1.105,0.229l1.7,0.273l0.691,0.363l0.506,0.867l1.104,0.729
			c0,0,1.242,0.092,1.564,0.136c0.321,0.048,1.931,0,2.207,0s2.024,0.321,2.024,0.321l2.546-2.22l1.102-1.583l0.553-0.607
			l-0.062-2.25l-0.675-1.156l-0.428-1.156l0.06-0.851l0.674-0.729l0.124-0.547l-0.675-0.306l-1.164-0.182l-0.246-0.73h-2.146
			l-2.207-0.061l-1.657,0.122l-0.123-0.61l-0.244-0.303l0.061-1.157v-0.791l-0.122-0.791l-0.185-1.519l0.307-1.097l0.061-1.52
			l-0.122-0.851l-0.186-0.912l0.124-0.67l-0.429-1.201l-0.491-1.172l1.349,0.244h8.095l7.115-0.121l1.226-0.973l0.124-2.435
			l0.858-1.945l0.245-2.068l1.304-0.199c-0.045,0.137,0,1.188,0,1.188l0.553,0.593l0.414,0.592l0.413,1.187l0.599,0.686l0.138,1.231
			l0.046,1.825l1.058,0.775l1.242,1.003l0.828,0.866l1.012,0.867l0.69,0.182l1.931,0.139l2.576,0.272l0.69,0.273l6.532,0.274
			l6.117,0.046l4.046,0.319h4.094l5.565,0.229l1.657,0.044h1.104l0.034,0.038l-0.08,0.829l-0.367,1.643l-0.829,1.551l-0.92,2.646
			l-0.367,3.283v3.012l0.459,1.643c0,0,1.013-0.729,1.379-0.729c0.368,0,0.185,0.729,0.185,0.729l0.828,1.459l0.644,0.73
			l0.921,0.366l1.104,0.363l0.459-0.913l1.012-0.729l1.472-0.092h0.737l0.735,0.73l0.919,0.548l0.829,0.365l0.92,0.363l1.379,0.73
			l0.185-0.547l1.011-0.184l1.84-0.273l1.563-0.363l2.208-0.913l0.736-0.092l0.093-1.094l-0.368-0.64v-1.097l0.459-0.637
			c0,0-0.091-1.554,0-1.915c0.093-0.366,0-0.55,0-0.55l-1.104-0.729v-0.821l0.091-1.368l0.645-1.096l0.552-0.822l0.827-0.911
			l0.646-0.456L239.882,85.371z"/>
	</g>
</g>
<path fill="#E0E0E0" d="M271.74,126.398l-0.797-0.486l-0.919-0.67l-0.797-1.095l0.09-0.41l-1.011-0.913c0,0-0.597-0.866-0.642-1.004
	c-0.047-0.136,0.09-1.506,0.09-1.506l0.23-1.367l0.506-0.274h0.781l0.092-0.729l0.369-0.867l0.506-0.595l0.46-0.548l0.046-1.096
	l-1.149-0.547l-0.83-0.364l-0.965-0.363c0,0-0.597,0-0.736,0c-0.137,0-1.011,0-1.011,0h-0.645l-0.691,0.273h-0.596l-0.185-0.64
	l-0.184-0.912l-0.734-0.638l-0.461-0.593l-0.506-0.229c0,0-0.645-0.09-0.828-0.09c-0.183,0-1.011,0-1.011,0l-0.46-0.046
	l-0.828-0.321l-1.609-0.865l-1.059-0.821l-0.781-0.64c0,0-0.552-0.047-0.736-0.047c-0.184,0-0.874,0.094-0.874,0.094l-0.092,0.456
	l-0.645,0.046l-1.104-0.046l-0.781-0.823l-0.231-0.545l-0.229-0.503l-0.644-0.41l-0.829-0.137l-0.827,0.046l-1.656,1.141
	l-2.807,1.779l-2.529,1.23l-1.151,0.366l-0.735,0.317l-0.091-1.231c0,0-0.552-0.639-0.69-0.639c-0.137,0-0.874,0-0.874,0
	l-0.552,0.685l-0.782,0.273l-0.46,0.137l0.047,1.325l0.274,0.957l-0.044,1.05l-0.185,0.775l-0.828,0.455l-0.735-0.091l-0.782,0.364
	l-0.092,0.821l-0.092,1.37l0.461,0.638l0.09,0.775l0.092,0.821l-0.092,0.774l-0.689,0.503l-0.324,0.593l0.139,0.729l0.369,0.184
	l0.139,0.776l-0.185,1.049l0.138,0.866c0,0-0.275,0.273-0.369,0.547c-0.091,0.273-0.873,1.004-0.873,1.004l-1.057,0.41l-0.875,0.821
	l-0.506,0.548l-0.597-0.684c0,0-0.736-0.501-0.967-0.501c-0.228,0-0.919,0-0.919,0h-1.379l-1.242-0.047l-0.735,0.137l-0.507,0.594
	l-0.735,0.273l-1.057,0.091l-0.967,0.182l-1.242,0.182l-0.919,0.047c0,0-0.552,0.046-0.69,0.184
	c-0.139,0.136-0.69,0.318-0.828,0.775c-0.139,0.454-1.334,1.823-1.334,1.823s-0.873,1.095-1.013,1.325
	c-0.137,0.227-0.137,0.955-0.137,0.955l0.046,0.55l-0.493,1.581l-0.735,0.973l-1.409,1.096l-1.105,1.338l-0.306,0.912l-0.797,1.156
	l-0.123,0.972l-0.553,0.852l-0.06,0.792l-0.552,0.912l-1.104,0.79l-1.166,1.036l-1.471,1.338l1.778,0.12l1.84,0.122h1.471
	l1.411,0.122l1.104,0.243l1.165,0.729l0.859,0.245h1.717h1.349h1.595l0.859,0.182l0.367,0.547l0.552,0.548l0.49,0.487l0.247,0.669
	v0.973v0.73l0.062,0.79l0.244,0.607l0.308,0.124l0.184,0.606l0.43,0.549l0.121,0.668l-0.061,0.974l0.061,0.547l1.289,0.061h1.716
	l0.552,0.122l0.308,0.608l0.062,0.853l0.184,0.365l0.858,0.059l0.859,0.305l0.183,0.306l0.613-0.182l0.613-0.976l1.288-0.729
	c0,0,0.613-0.484,0.735-0.668c0.124-0.183,1.903-1.217,1.903-1.217l1.166-1.035l0.674-0.548l1.226-0.485l0.859-0.306l0.675-0.122
	l0.797-0.788l3.127-0.062l0.49-0.85l1.41-0.854l0.736-0.302l1.226-0.123l0.798-0.182l1.84-1.339l0.491-0.184l0.49-0.547l0.921,0.244
	c0,0,0.674,0.242,0.856,0.242c0.185,0,1.657,0.061,1.657,0.061l0.43-0.487v-0.971l0.613-0.062h0.859v0.609l0.552,0.486
	c0,0,1.287,0,1.472,0s1.84,0,1.84,0l1.165-0.122v-0.67l0.308-0.485l0.551-0.852l0.429-0.791l0.796-0.607l0.859-0.244l0.43-0.243
	l0.981-0.548l0.552-0.364l0.062-0.548l-0.307-0.548l-0.062-1.946l0.552-1.032l0.491-0.548l0.614-0.609l0.491-0.668l0.796-0.975
	l0.736-1.035l0.369-0.667l0.491-1.278l0.244-1.156l1.228-0.607c0,0,0.428-0.243,0.428-0.486c0-0.244,0.186-1.521,0.186-1.521
	l0.184-2.068v-1.581L271.74,126.398z"/>
<path fill="#E0E0E0" d="M296.914,67.761c-0.275-0.091-0.551-1.005-0.551-1.005l-0.459-0.364l-0.461-1.004l0.275-0.547l-0.184-1.458
	v-1.005l-0.553-1.37v-0.637l-0.644-0.823l-1.012-0.547l-1.288-0.183h-1.473h-1.747l-1.472-0.091l-1.104-0.547l-1.197-0.456h-0.826
	v-1.096l-2.394-2.097l-2.022-1.554l-0.552-0.82c0,0-0.828-0.547-1.104-0.547c-0.277,0-1.196-0.547-1.196-0.547l-1.289-0.913
	l-1.379-0.912l-1.38-0.731l-1.379-0.729h-1.472h-1.932h-0.92l-1.841-0.092l-1.287,0.731l-0.277-0.458l-1.103-0.365h-0.736
	l-0.781-0.045l-0.874-0.229l-1.517-0.182l-0.874-0.412L256.763,46l-0.966-0.457l-1.15-0.227l-0.598,0.273l-0.736,0.364
	c0,0-1.425,0.046-1.748,0.046c-0.321,0-0.736,0.501-0.736,0.501l-0.413,0.548h-0.828l-1.013,0.547l-0.413,0.912l-0.829,0.229
	l-0.644-0.548l-0.092-1.095l0.231-0.867c0,0,0.873-0.868,1.011-0.911c0.137-0.048,0.137-0.822,0.137-1.003
	c0-0.186-0.183-0.822-0.183-0.959s-0.645-1.005-0.645-1.005l-1.287-0.956l-0.645-0.868l-1.012-0.41l-1.243-0.046l-0.78-0.092
	l-0.92-0.774l-1.059-0.092l-0.276,0.229c0,0-0.459,1.459-0.459,1.596s-0.229,1.142-0.229,1.278c0,0.136-0.322,1.505-0.322,1.505
	s-0.553,1.003-0.645,1.14c-0.09,0.138-0.322,0.731-0.322,0.731l-0.184,0.82l-0.276,0.912l-0.229,0.914l-0.967,1.506l-1.102,1.549
	l-1.336,2.145l-1.104,1.734l-1.057,0.912l-1.656,0.82l-1.379,1.599l0.275,0.592c0,0,1.104,0.274,1.288,0.274
	c0.184,0,2.3,1.369,2.3,1.369l0.46,0.958l0.138,1.458l-0.23,4.335c0,0-0.414,1.732-0.46,1.915c-0.045,0.185,0.552,1.097,0.552,1.097
	l1.151,1.459l1.103,0.684c0,0,2.07-0.181,2.391,0.183c0.322,0.364,0.46,0.547,0.46,0.547v1.187c0,0-0.275,1.279-0.46,1.368
	c-0.184,0.094-1.194,0.504-1.194,0.504s-0.554,1.14-0.554,1.277c0,0.137-0.092,1.048-0.092,1.185c0,0.139,0.646,0.866,0.875,1.187
	c0.229,0.32,0.644,0.593,0.828,0.821c0.183,0.229,0.229,1.278,0.276,1.552s0.46,1.46,0.46,1.46s0.643,0.411,0.829,0.456
	c0.184,0.045,0.965,0.318,0.965,0.318l0.552-0.729l1.058,1.049l0.185,1.006l-0.83,0.91l-0.644,0.64l-1.011,0.547l-0.643,1.369
	l-0.093,1.459l1.011,0.639l0.461,1.458l-0.276,1.188l-0.461,0.913l0.276,1.826l0.368,1.094v2.008l-0.183,1.551l-0.185,0.821
	l0.185,1.826l0.643,1.002c0,0,0.369,1.097,0.644,1.367c0.275,0.273,0.092,1.644,0.092,1.644l-0.092,1.277l0.92-0.729l1.288-0.638
	l1.38-0.912l1.656-0.822l1.38-1.003l1.379-0.365l0.829-0.092l1.563,0.273l0.552,0.73l0.276,0.91l0.369,0.73l0.735-0.272l1.013-0.182
	l1.38,0.092l0.643,0.271l1.104,0.549l1.104,0.911l1.38,0.456c0,0,0.644,0.274,1.012,0.274c0.367,0,1.379,0.183,1.379,0.183
	l0.827,0.455l1.012,1.005l0.277,0.73l0.644,0.364h1.288h1.287l1.197,0.456l1.379,0.547l1.471,1.095v1.368l-0.551,1.187l-0.92,0.913
	l-0.644,1.187l-0.828,0.913l-0.092,0.728l0.186,0.913l0.459,0.821l0.735,0.547l0.185,0.914l0.459,0.912l0.921,0.547l0.643-0.183
	l1.197-1.46l1.287-1.186v-0.729l-0.368-0.273v-1.551l0.46-0.821l0.369-1.278l0.183-1.46l0.46-1.003l0.185-1.644v-0.91l-0.367-0.731
	l0.091-1.095l-0.185-1.916l-0.091-2.464l0.185-0.547l0.091-0.82l-0.275-0.731l-0.185-0.912l-0.184-1.733l0.644-1.187l0.46-0.913
	v-1.094c0,0-0.091-0.547-0.091-0.821c0-0.273,0.367-0.82,0.367-0.82l0.921-0.273l1.01,0.09l0.828,0.547l0.093,0.549l1.011-1.186
	l1.197-1.368l1.38-1.645l0.46-1.366l0.92-1.554l0.92-1.367l1.104-1.188l1.471-2.007l0.461-0.64l1.012-0.911l0.829-0.729l1.38-1.097
	l1.195-1.459l0.92-1.096l0.644-0.637l0.367-1.096l0.185-0.729l0.553-1.004l0.367-0.638l0.369-1.005l0.367-1.187l0.551-1.733v-1.277
	V69.86v-0.914C297.098,68.946,297.189,67.85,296.914,67.761z"/>
<polyline fill="none" stroke="#736357" stroke-miterlimit="10" points="251.882,139.914 286.887,107.15 312.953,107.15 "/>
<polyline fill="none" stroke="#998675" stroke-miterlimit="10" points="270.667,80.085 297.112,37.45 312.953,37.45 "/>
<line fill="none" stroke="#998675" stroke-miterlimit="10" x1="212.561" y1="172.65" x2="312.953" y2="172.65"/>
<polyline fill="none" stroke="#736357" stroke-miterlimit="10" points="198.545,113.107 162.426,151.557 162.426,196.524 
	312.953,196.524 "/>
<polyline fill="none" stroke="#736357" stroke-miterlimit="10" points="179.133,47.922 225.522,11.451 312.953,11.451 "/>
<rect x="308.953" y="5.352" fill="#736357" width="8" height="12.198"/>
<rect x="308.953" y="17.55" fill="#998675" width="8" height="39.801"/>
<rect x="308.953" y="57.351" fill="#736357" width="8" height="99.601"/>
<rect x="308.953" y="188.351" fill="#736357" width="8" height="17.001"/>
<rect x="308.953" y="156.951" fill="#998675" width="8" height="31.399"/>
<g>
	<path d="M325.602,12.534c0-0.721,0.098-1.358,0.293-1.914c0.196-0.557,0.477-1.022,0.841-1.398s0.806-0.664,1.325-0.864
		c0.521-0.199,1.108-0.304,1.765-0.312l0.084,0.84c-0.425,0.008-0.81,0.054-1.158,0.138c-0.348,0.084-0.658,0.221-0.93,0.408
		c-0.272,0.188-0.5,0.431-0.685,0.727c-0.184,0.296-0.324,0.659-0.42,1.092c0.192-0.088,0.402-0.16,0.631-0.216
		c0.228-0.057,0.469-0.084,0.726-0.084c0.415,0,0.77,0.063,1.062,0.191c0.293,0.128,0.526,0.298,0.702,0.51
		c0.177,0.213,0.304,0.458,0.384,0.738s0.121,0.568,0.121,0.864c0,0.271-0.045,0.55-0.133,0.834s-0.225,0.544-0.408,0.78
		c-0.184,0.235-0.42,0.428-0.707,0.575c-0.289,0.148-0.633,0.223-1.033,0.223c-0.823,0-1.439-0.276-1.848-0.828
		S325.602,13.518,325.602,12.534z M327.965,11.766c-0.256,0-0.49,0.024-0.701,0.072c-0.213,0.048-0.427,0.12-0.643,0.216
		c-0.008,0.08-0.012,0.158-0.012,0.234s0,0.158,0,0.246c0,0.312,0.021,0.605,0.066,0.882c0.043,0.275,0.119,0.52,0.228,0.731
		s0.254,0.38,0.438,0.504c0.184,0.125,0.42,0.187,0.707,0.187c0.24,0,0.439-0.05,0.6-0.15c0.16-0.1,0.293-0.226,0.396-0.378
		c0.104-0.151,0.178-0.321,0.223-0.51c0.043-0.188,0.065-0.366,0.065-0.534c0-0.487-0.11-0.859-0.33-1.116
		C328.783,11.894,328.438,11.766,327.965,11.766z"/>
	<path d="M334.842,14.742c0,0.239-0.08,0.451-0.24,0.636c-0.16,0.184-0.373,0.275-0.637,0.275c-0.271,0-0.488-0.092-0.648-0.275
		c-0.159-0.185-0.239-0.396-0.239-0.636c0-0.248,0.08-0.464,0.239-0.648c0.16-0.184,0.377-0.276,0.648-0.276
		c0.264,0,0.477,0.093,0.637,0.276C334.762,14.278,334.842,14.494,334.842,14.742z"/>
	<path d="M337.854,9.618c0.408-0.16,0.804-0.362,1.188-0.606c0.385-0.244,0.74-0.554,1.068-0.93h0.695v6.588h1.404v0.84h-3.996
		v-0.84h1.608V9.462c-0.089,0.08-0.194,0.162-0.318,0.246s-0.26,0.166-0.407,0.246c-0.148,0.08-0.303,0.155-0.463,0.228
		s-0.316,0.132-0.468,0.18L337.854,9.618z"/>
	<path d="M343.169,9.786c0-0.608,0.116-1.07,0.349-1.387c0.231-0.315,0.552-0.474,0.959-0.474c0.408,0,0.729,0.158,0.961,0.474
		c0.231,0.316,0.348,0.778,0.348,1.387c0,0.607-0.116,1.071-0.348,1.392c-0.232,0.32-0.553,0.48-0.961,0.48
		c-0.407,0-0.728-0.16-0.959-0.48C343.285,10.857,343.169,10.394,343.169,9.786z M344.094,15.51h-0.841l4.548-7.428h0.84
		L344.094,15.51z M345.041,9.786c0-0.36-0.048-0.656-0.145-0.889c-0.096-0.231-0.235-0.348-0.42-0.348
		c-0.184,0-0.326,0.116-0.426,0.348c-0.1,0.232-0.149,0.528-0.149,0.889c0,0.359,0.05,0.655,0.149,0.888s0.242,0.348,0.426,0.348
		c0.185,0,0.324-0.115,0.42-0.348C344.993,10.441,345.041,10.146,345.041,9.786z M346.133,13.806c0-0.607,0.114-1.069,0.342-1.386
		c0.229-0.316,0.547-0.475,0.955-0.475c0.407,0,0.728,0.158,0.959,0.475c0.232,0.316,0.349,0.778,0.349,1.386
		c0,0.608-0.116,1.07-0.349,1.386c-0.231,0.316-0.552,0.475-0.959,0.475c-0.408,0-0.727-0.158-0.955-0.475
		C346.247,14.876,346.133,14.414,346.133,13.806z M348.005,13.806c0-0.36-0.05-0.656-0.149-0.888
		c-0.101-0.232-0.242-0.349-0.426-0.349c-0.185,0-0.324,0.116-0.42,0.349c-0.097,0.231-0.145,0.527-0.145,0.888
		s0.048,0.656,0.145,0.888c0.096,0.232,0.235,0.349,0.42,0.349c0.184,0,0.325-0.116,0.426-0.349
		C347.955,14.462,348.005,14.166,348.005,13.806z"/>
</g>
<g>
	<path d="M325.854,35.618c0.408-0.16,0.804-0.362,1.188-0.606c0.385-0.244,0.74-0.554,1.068-0.93h0.695v6.588h1.404v0.84h-3.996
		v-0.84h1.608v-5.208c-0.089,0.08-0.194,0.162-0.318,0.246s-0.26,0.166-0.407,0.246c-0.148,0.08-0.303,0.155-0.463,0.228
		s-0.316,0.132-0.468,0.18L325.854,35.618z"/>
	<path d="M336.316,37.057c0,1.48-0.359,2.594-1.079,3.342s-1.804,1.126-3.252,1.135l-0.036-0.841c0.896,0,1.617-0.178,2.166-0.533
		c0.548-0.356,0.91-0.971,1.086-1.843c-0.191,0.089-0.404,0.158-0.637,0.21c-0.231,0.053-0.476,0.078-0.731,0.078
		c-0.424,0-0.78-0.062-1.067-0.186c-0.289-0.124-0.521-0.292-0.696-0.504c-0.177-0.212-0.304-0.454-0.384-0.727
		c-0.08-0.271-0.121-0.56-0.121-0.863c0-0.272,0.045-0.551,0.133-0.834c0.088-0.284,0.224-0.542,0.408-0.774
		c0.184-0.232,0.42-0.424,0.707-0.576c0.289-0.151,0.633-0.228,1.033-0.228c0.815,0,1.432,0.28,1.848,0.84
		S336.316,36.082,336.316,37.057z M333.941,37.79c0.256,0,0.494-0.024,0.714-0.072s0.434-0.116,0.642-0.204
		c0.008-0.08,0.012-0.156,0.012-0.228c0-0.072,0-0.148,0-0.229c0-0.312-0.021-0.607-0.065-0.888s-0.12-0.524-0.228-0.732
		c-0.108-0.208-0.257-0.374-0.444-0.498c-0.188-0.124-0.427-0.186-0.714-0.186c-0.24,0-0.44,0.05-0.6,0.149
		c-0.16,0.101-0.293,0.225-0.396,0.372c-0.104,0.148-0.178,0.314-0.223,0.498c-0.043,0.185-0.065,0.36-0.065,0.528
		c0,0.488,0.11,0.858,0.33,1.11S333.469,37.79,333.941,37.79z"/>
	<path d="M340.842,40.742c0,0.239-0.08,0.451-0.24,0.636c-0.16,0.184-0.373,0.275-0.637,0.275c-0.271,0-0.488-0.092-0.648-0.275
		c-0.159-0.185-0.239-0.396-0.239-0.636c0-0.248,0.08-0.464,0.239-0.648c0.16-0.184,0.377-0.276,0.648-0.276
		c0.264,0,0.477,0.093,0.637,0.276C340.762,40.278,340.842,40.494,340.842,40.742z"/>
	<path d="M348.316,37.057c0,1.48-0.359,2.594-1.079,3.342s-1.804,1.126-3.252,1.135l-0.036-0.841c0.896,0,1.617-0.178,2.166-0.533
		c0.548-0.356,0.91-0.971,1.086-1.843c-0.191,0.089-0.404,0.158-0.637,0.21c-0.231,0.053-0.476,0.078-0.731,0.078
		c-0.424,0-0.78-0.062-1.067-0.186c-0.289-0.124-0.521-0.292-0.696-0.504c-0.177-0.212-0.304-0.454-0.384-0.727
		c-0.08-0.271-0.121-0.56-0.121-0.863c0-0.272,0.045-0.551,0.133-0.834c0.088-0.284,0.224-0.542,0.408-0.774
		c0.184-0.232,0.42-0.424,0.707-0.576c0.289-0.151,0.633-0.228,1.033-0.228c0.815,0,1.432,0.28,1.848,0.84
		S348.316,36.082,348.316,37.057z M345.941,37.79c0.256,0,0.494-0.024,0.714-0.072s0.434-0.116,0.642-0.204
		c0.008-0.08,0.012-0.156,0.012-0.228c0-0.072,0-0.148,0-0.229c0-0.312-0.021-0.607-0.065-0.888s-0.12-0.524-0.228-0.732
		c-0.108-0.208-0.257-0.374-0.444-0.498c-0.188-0.124-0.427-0.186-0.714-0.186c-0.24,0-0.44,0.05-0.6,0.149
		c-0.16,0.101-0.293,0.225-0.396,0.372c-0.104,0.148-0.178,0.314-0.223,0.498c-0.043,0.185-0.065,0.36-0.065,0.528
		c0,0.488,0.11,0.858,0.33,1.11S345.469,37.79,345.941,37.79z"/>
	<path d="M349.169,35.786c0-0.608,0.116-1.07,0.349-1.387c0.231-0.315,0.552-0.474,0.959-0.474c0.408,0,0.729,0.158,0.961,0.474
		c0.231,0.316,0.348,0.778,0.348,1.387c0,0.607-0.116,1.071-0.348,1.392c-0.232,0.32-0.553,0.48-0.961,0.48
		c-0.407,0-0.728-0.16-0.959-0.48C349.285,36.857,349.169,36.393,349.169,35.786z M350.094,41.509h-0.841l4.548-7.428h0.84
		L350.094,41.509z M351.041,35.786c0-0.36-0.048-0.656-0.145-0.889c-0.096-0.231-0.235-0.348-0.42-0.348
		c-0.184,0-0.326,0.116-0.426,0.348c-0.1,0.232-0.149,0.528-0.149,0.889c0,0.359,0.05,0.655,0.149,0.888s0.242,0.348,0.426,0.348
		c0.185,0,0.324-0.115,0.42-0.348C350.993,36.441,351.041,36.145,351.041,35.786z M352.133,39.805c0-0.607,0.114-1.069,0.342-1.386
		c0.229-0.316,0.547-0.475,0.955-0.475c0.407,0,0.728,0.158,0.959,0.475c0.232,0.316,0.349,0.778,0.349,1.386
		c0,0.608-0.116,1.07-0.349,1.386c-0.231,0.316-0.552,0.475-0.959,0.475c-0.408,0-0.727-0.158-0.955-0.475
		C352.247,40.875,352.133,40.414,352.133,39.805z M354.005,39.805c0-0.36-0.05-0.656-0.149-0.888
		c-0.101-0.232-0.242-0.349-0.426-0.349c-0.185,0-0.324,0.116-0.42,0.349c-0.097,0.231-0.145,0.527-0.145,0.888
		s0.048,0.656,0.145,0.888c0.096,0.232,0.235,0.349,0.42,0.349c0.184,0,0.325-0.116,0.426-0.349
		C353.955,40.461,354.005,40.166,354.005,39.805z"/>
</g>
<g>
	<path d="M325.385,108.642c0.137-0.319,0.322-0.688,0.559-1.104s0.502-0.846,0.798-1.29s0.612-0.88,0.948-1.308
		c0.336-0.429,0.676-0.814,1.02-1.158h0.96v4.716h0.876v0.815h-0.876v1.896h-0.96v-1.896h-3.324V108.642z M328.709,104.958
		c-0.216,0.232-0.434,0.488-0.654,0.768c-0.22,0.28-0.434,0.574-0.642,0.883c-0.208,0.308-0.401,0.622-0.582,0.941
		c-0.18,0.32-0.342,0.636-0.485,0.948h2.363V104.958z"/>
	<path d="M336.316,106.758c0,1.48-0.359,2.594-1.079,3.342s-1.804,1.126-3.252,1.135l-0.036-0.841c0.896,0,1.617-0.178,2.166-0.533
		c0.548-0.356,0.91-0.971,1.086-1.843c-0.191,0.089-0.404,0.158-0.637,0.21c-0.231,0.053-0.476,0.078-0.731,0.078
		c-0.424,0-0.78-0.062-1.067-0.186c-0.289-0.124-0.521-0.292-0.696-0.504c-0.177-0.212-0.304-0.454-0.384-0.727
		c-0.08-0.271-0.121-0.56-0.121-0.863c0-0.272,0.045-0.551,0.133-0.834c0.088-0.284,0.224-0.542,0.408-0.774
		c0.184-0.232,0.42-0.424,0.707-0.576c0.289-0.151,0.633-0.228,1.033-0.228c0.815,0,1.432,0.28,1.848,0.84
		S336.316,105.782,336.316,106.758z M333.941,107.49c0.256,0,0.494-0.024,0.714-0.072s0.434-0.116,0.642-0.204
		c0.008-0.08,0.012-0.156,0.012-0.228c0-0.072,0-0.148,0-0.229c0-0.312-0.021-0.607-0.065-0.888s-0.12-0.524-0.228-0.732
		c-0.108-0.208-0.257-0.374-0.444-0.498c-0.188-0.124-0.427-0.186-0.714-0.186c-0.24,0-0.44,0.05-0.6,0.149
		c-0.16,0.101-0.293,0.225-0.396,0.372c-0.104,0.148-0.178,0.314-0.223,0.498c-0.043,0.185-0.065,0.36-0.065,0.528
		c0,0.488,0.11,0.858,0.33,1.11S333.469,107.49,333.941,107.49z"/>
	<path d="M340.842,110.442c0,0.239-0.08,0.451-0.24,0.636c-0.16,0.184-0.373,0.275-0.637,0.275c-0.271,0-0.488-0.092-0.648-0.275
		c-0.159-0.185-0.239-0.396-0.239-0.636c0-0.248,0.08-0.464,0.239-0.648c0.16-0.184,0.377-0.276,0.648-0.276
		c0.264,0,0.477,0.093,0.637,0.276C340.762,109.979,340.842,110.194,340.842,110.442z"/>
	<path d="M348.342,109.278c0,0.624-0.199,1.128-0.595,1.512s-0.998,0.576-1.806,0.576c-0.465,0-0.848-0.062-1.152-0.187
		s-0.546-0.283-0.727-0.479c-0.18-0.196-0.308-0.414-0.383-0.654c-0.076-0.24-0.115-0.476-0.115-0.708
		c0-0.424,0.117-0.8,0.349-1.128s0.508-0.592,0.828-0.792c-0.681-0.384-1.021-0.972-1.021-1.764c0-0.272,0.053-0.532,0.156-0.78
		s0.252-0.464,0.444-0.648c0.192-0.184,0.426-0.331,0.702-0.443c0.275-0.112,0.586-0.168,0.93-0.168c0.4,0,0.742,0.06,1.025,0.18
		c0.285,0.12,0.515,0.274,0.69,0.462c0.177,0.188,0.304,0.396,0.384,0.624c0.08,0.229,0.121,0.45,0.121,0.666
		c0,0.424-0.109,0.79-0.324,1.098c-0.217,0.309-0.465,0.555-0.744,0.738C347.93,107.774,348.342,108.406,348.342,109.278z
		 M344.525,109.35c0,0.128,0.023,0.263,0.072,0.402c0.047,0.14,0.127,0.27,0.239,0.39s0.261,0.219,0.444,0.294
		c0.184,0.076,0.408,0.114,0.672,0.114c0.248,0,0.462-0.034,0.643-0.102c0.18-0.068,0.327-0.16,0.443-0.276
		c0.115-0.116,0.202-0.246,0.258-0.39c0.057-0.145,0.084-0.288,0.084-0.433c0-0.456-0.164-0.806-0.492-1.05s-0.779-0.43-1.355-0.558
		c-0.32,0.176-0.568,0.396-0.744,0.66C344.613,108.666,344.525,108.982,344.525,109.35z M347.213,105.546
		c0-0.104-0.023-0.222-0.072-0.354c-0.047-0.133-0.121-0.252-0.222-0.36s-0.229-0.2-0.39-0.276c-0.16-0.075-0.353-0.113-0.576-0.113
		c-0.232,0-0.426,0.035-0.582,0.107s-0.286,0.162-0.391,0.271c-0.104,0.107-0.178,0.228-0.221,0.359
		c-0.045,0.132-0.066,0.263-0.066,0.391c0,0.328,0.117,0.634,0.354,0.918s0.626,0.49,1.17,0.618
		c0.305-0.177,0.547-0.385,0.727-0.624C347.123,106.242,347.213,105.93,347.213,105.546z"/>
	<path d="M349.169,105.486c0-0.608,0.116-1.07,0.349-1.387c0.231-0.315,0.552-0.474,0.959-0.474c0.408,0,0.729,0.158,0.961,0.474
		c0.231,0.316,0.348,0.778,0.348,1.387c0,0.607-0.116,1.071-0.348,1.392c-0.232,0.32-0.553,0.48-0.961,0.48
		c-0.407,0-0.728-0.16-0.959-0.48C349.285,106.558,349.169,106.094,349.169,105.486z M350.094,111.21h-0.841l4.548-7.428h0.84
		L350.094,111.21z M351.041,105.486c0-0.36-0.048-0.656-0.145-0.889c-0.096-0.231-0.235-0.348-0.42-0.348
		c-0.184,0-0.326,0.116-0.426,0.348c-0.1,0.232-0.149,0.528-0.149,0.889c0,0.359,0.05,0.655,0.149,0.888s0.242,0.348,0.426,0.348
		c0.185,0,0.324-0.115,0.42-0.348C350.993,106.142,351.041,105.846,351.041,105.486z M352.133,109.506
		c0-0.607,0.114-1.069,0.342-1.386c0.229-0.316,0.547-0.475,0.955-0.475c0.407,0,0.728,0.158,0.959,0.475
		c0.232,0.316,0.349,0.778,0.349,1.386c0,0.608-0.116,1.07-0.349,1.386c-0.231,0.316-0.552,0.475-0.959,0.475
		c-0.408,0-0.727-0.158-0.955-0.475C352.247,110.576,352.133,110.114,352.133,109.506z M354.005,109.506
		c0-0.36-0.05-0.656-0.149-0.888c-0.101-0.232-0.242-0.349-0.426-0.349c-0.185,0-0.324,0.116-0.42,0.349
		c-0.097,0.231-0.145,0.527-0.145,0.888s0.048,0.656,0.145,0.888c0.096,0.232,0.235,0.349,0.42,0.349
		c0.184,0,0.325-0.116,0.426-0.349C353.955,110.162,354.005,109.866,354.005,109.506z"/>
</g>
<g>
	<path d="M325.854,170.818c0.408-0.16,0.804-0.362,1.188-0.606c0.385-0.244,0.74-0.554,1.068-0.93h0.695v6.588h1.404v0.84h-3.996
		v-0.84h1.608v-5.208c-0.089,0.08-0.194,0.162-0.318,0.246s-0.26,0.166-0.407,0.246c-0.148,0.08-0.303,0.155-0.463,0.228
		s-0.316,0.132-0.468,0.18L325.854,170.818z"/>
	<path d="M333.186,172.15c1.071,0.04,1.852,0.275,2.34,0.708c0.488,0.432,0.732,1.012,0.732,1.739c0,0.328-0.053,0.633-0.156,0.912
		c-0.104,0.28-0.267,0.521-0.486,0.72c-0.221,0.2-0.5,0.356-0.84,0.469c-0.34,0.111-0.742,0.168-1.206,0.168
		c-0.192,0-0.382-0.015-0.57-0.042c-0.188-0.028-0.366-0.062-0.534-0.103s-0.316-0.082-0.443-0.126
		c-0.129-0.044-0.221-0.082-0.276-0.113l0.192-0.853c0.127,0.064,0.326,0.141,0.594,0.229s0.605,0.132,1.014,0.132
		c0.32,0,0.588-0.036,0.805-0.108c0.215-0.072,0.39-0.17,0.521-0.294s0.229-0.266,0.288-0.426s0.09-0.328,0.09-0.504
		c0-0.272-0.046-0.515-0.138-0.727s-0.252-0.39-0.48-0.533c-0.228-0.145-0.539-0.254-0.936-0.33s-0.895-0.114-1.494-0.114
		c0.048-0.353,0.086-0.682,0.113-0.99c0.029-0.308,0.053-0.607,0.072-0.9c0.021-0.291,0.037-0.581,0.049-0.869
		s0.025-0.593,0.041-0.912h3.576v0.84h-2.711c-0.009,0.112-0.019,0.258-0.031,0.438c-0.012,0.181-0.025,0.37-0.041,0.57
		c-0.017,0.2-0.032,0.393-0.049,0.576C333.205,171.89,333.193,172.038,333.186,172.15z"/>
	<path d="M340.842,175.942c0,0.239-0.08,0.451-0.24,0.636c-0.16,0.184-0.373,0.275-0.637,0.275c-0.271,0-0.488-0.092-0.648-0.275
		c-0.159-0.185-0.239-0.396-0.239-0.636c0-0.248,0.08-0.464,0.239-0.648c0.16-0.184,0.377-0.276,0.648-0.276
		c0.264,0,0.477,0.093,0.637,0.276C340.762,175.479,340.842,175.694,340.842,175.942z"/>
	<path d="M344.812,176.71c0.041-0.568,0.143-1.17,0.307-1.806c0.164-0.637,0.361-1.252,0.594-1.849
		c0.232-0.596,0.488-1.147,0.768-1.655c0.281-0.509,0.557-0.927,0.828-1.255h-3.6v-0.863h4.704v0.828
		c-0.239,0.279-0.5,0.655-0.78,1.128c-0.279,0.472-0.546,1.002-0.798,1.59s-0.47,1.216-0.653,1.884
		c-0.185,0.668-0.301,1.334-0.349,1.998H344.812z"/>
	<path d="M349.169,170.986c0-0.608,0.116-1.07,0.349-1.387c0.231-0.315,0.552-0.474,0.959-0.474c0.408,0,0.729,0.158,0.961,0.474
		c0.231,0.316,0.348,0.778,0.348,1.387c0,0.607-0.116,1.071-0.348,1.392c-0.232,0.32-0.553,0.48-0.961,0.48
		c-0.407,0-0.728-0.16-0.959-0.48C349.285,172.058,349.169,171.594,349.169,170.986z M350.094,176.71h-0.841l4.548-7.428h0.84
		L350.094,176.71z M351.041,170.986c0-0.36-0.048-0.656-0.145-0.889c-0.096-0.231-0.235-0.348-0.42-0.348
		c-0.184,0-0.326,0.116-0.426,0.348c-0.1,0.232-0.149,0.528-0.149,0.889c0,0.359,0.05,0.655,0.149,0.888s0.242,0.348,0.426,0.348
		c0.185,0,0.324-0.115,0.42-0.348C350.993,171.642,351.041,171.346,351.041,170.986z M352.133,175.006
		c0-0.607,0.114-1.069,0.342-1.386c0.229-0.316,0.547-0.475,0.955-0.475c0.407,0,0.728,0.158,0.959,0.475
		c0.232,0.316,0.349,0.778,0.349,1.386c0,0.608-0.116,1.07-0.349,1.386c-0.231,0.316-0.552,0.475-0.959,0.475
		c-0.408,0-0.727-0.158-0.955-0.475C352.247,176.076,352.133,175.614,352.133,175.006z M354.005,175.006
		c0-0.36-0.05-0.656-0.149-0.888c-0.101-0.232-0.242-0.349-0.426-0.349c-0.185,0-0.324,0.116-0.42,0.349
		c-0.097,0.231-0.145,0.527-0.145,0.888s0.048,0.656,0.145,0.888c0.096,0.232,0.235,0.349,0.42,0.349
		c0.184,0,0.325-0.116,0.426-0.349C353.955,175.662,354.005,175.366,354.005,175.006z"/>
</g>
<g>
	<path d="M330.342,198.979c0,0.624-0.199,1.128-0.595,1.512s-0.998,0.576-1.806,0.576c-0.465,0-0.848-0.062-1.152-0.187
		s-0.546-0.283-0.727-0.479c-0.18-0.196-0.308-0.414-0.383-0.654c-0.076-0.24-0.115-0.476-0.115-0.708
		c0-0.424,0.117-0.8,0.349-1.128s0.508-0.592,0.828-0.792c-0.681-0.384-1.021-0.972-1.021-1.764c0-0.272,0.053-0.532,0.156-0.78
		s0.252-0.464,0.444-0.648c0.192-0.184,0.426-0.331,0.702-0.443c0.275-0.112,0.586-0.168,0.93-0.168c0.4,0,0.742,0.06,1.025,0.18
		c0.285,0.12,0.515,0.274,0.69,0.462c0.177,0.188,0.304,0.396,0.384,0.624c0.08,0.229,0.121,0.45,0.121,0.666
		c0,0.424-0.109,0.79-0.324,1.098c-0.217,0.309-0.465,0.555-0.744,0.738C329.93,197.475,330.342,198.106,330.342,198.979z
		 M326.525,199.05c0,0.128,0.023,0.263,0.072,0.402c0.047,0.14,0.127,0.27,0.239,0.39s0.261,0.219,0.444,0.294
		c0.184,0.076,0.408,0.114,0.672,0.114c0.248,0,0.462-0.034,0.643-0.102c0.18-0.068,0.327-0.16,0.443-0.276
		c0.115-0.116,0.202-0.246,0.258-0.39c0.057-0.145,0.084-0.288,0.084-0.433c0-0.456-0.164-0.806-0.492-1.05s-0.779-0.43-1.355-0.558
		c-0.32,0.176-0.568,0.396-0.744,0.66C326.613,198.366,326.525,198.683,326.525,199.05z M329.213,195.246
		c0-0.104-0.023-0.222-0.072-0.354c-0.047-0.133-0.121-0.252-0.222-0.36s-0.229-0.2-0.39-0.276c-0.16-0.075-0.353-0.113-0.576-0.113
		c-0.232,0-0.426,0.035-0.582,0.107s-0.286,0.162-0.391,0.271c-0.104,0.107-0.178,0.228-0.221,0.359
		c-0.045,0.132-0.066,0.263-0.066,0.391c0,0.328,0.117,0.634,0.354,0.918s0.626,0.49,1.17,0.618
		c0.305-0.177,0.547-0.385,0.727-0.624C329.123,195.942,329.213,195.63,329.213,195.246z"/>
	<path d="M334.842,200.143c0,0.239-0.08,0.451-0.24,0.636c-0.16,0.184-0.373,0.275-0.637,0.275c-0.271,0-0.488-0.092-0.648-0.275
		c-0.159-0.185-0.239-0.396-0.239-0.636c0-0.248,0.08-0.464,0.239-0.648c0.16-0.184,0.377-0.276,0.648-0.276
		c0.264,0,0.477,0.093,0.637,0.276C334.762,199.679,334.842,199.895,334.842,200.143z"/>
	<path d="M339.186,196.351c1.071,0.04,1.852,0.275,2.34,0.708c0.488,0.432,0.732,1.012,0.732,1.739c0,0.328-0.053,0.633-0.156,0.912
		c-0.104,0.28-0.267,0.521-0.486,0.72c-0.221,0.2-0.5,0.356-0.84,0.469c-0.34,0.111-0.742,0.168-1.206,0.168
		c-0.192,0-0.382-0.015-0.57-0.042c-0.188-0.028-0.366-0.062-0.534-0.103s-0.316-0.082-0.443-0.126
		c-0.129-0.044-0.221-0.082-0.276-0.113l0.192-0.853c0.127,0.064,0.326,0.141,0.594,0.229s0.605,0.132,1.014,0.132
		c0.32,0,0.588-0.036,0.805-0.108c0.215-0.072,0.39-0.17,0.521-0.294s0.229-0.266,0.288-0.426s0.09-0.328,0.09-0.504
		c0-0.272-0.046-0.515-0.138-0.727s-0.252-0.39-0.48-0.533c-0.228-0.145-0.539-0.254-0.936-0.33s-0.895-0.114-1.494-0.114
		c0.048-0.353,0.086-0.682,0.113-0.99c0.029-0.308,0.053-0.607,0.072-0.9c0.021-0.291,0.037-0.581,0.049-0.869
		s0.025-0.593,0.041-0.912h3.576v0.84h-2.711c-0.009,0.112-0.019,0.258-0.031,0.438c-0.012,0.181-0.025,0.37-0.041,0.57
		c-0.017,0.2-0.032,0.393-0.049,0.576C339.205,196.09,339.193,196.238,339.186,196.351z"/>
	<path d="M343.169,195.187c0-0.608,0.116-1.07,0.349-1.387c0.231-0.315,0.552-0.474,0.959-0.474c0.408,0,0.729,0.158,0.961,0.474
		c0.231,0.316,0.348,0.778,0.348,1.387c0,0.607-0.116,1.071-0.348,1.392c-0.232,0.32-0.553,0.48-0.961,0.48
		c-0.407,0-0.728-0.16-0.959-0.48C343.285,196.258,343.169,195.794,343.169,195.187z M344.094,200.91h-0.841l4.548-7.428h0.84
		L344.094,200.91z M345.041,195.187c0-0.36-0.048-0.656-0.145-0.889c-0.096-0.231-0.235-0.348-0.42-0.348
		c-0.184,0-0.326,0.116-0.426,0.348c-0.1,0.232-0.149,0.528-0.149,0.889c0,0.359,0.05,0.655,0.149,0.888s0.242,0.348,0.426,0.348
		c0.185,0,0.324-0.115,0.42-0.348C344.993,195.842,345.041,195.546,345.041,195.187z M346.133,199.206
		c0-0.607,0.114-1.069,0.342-1.386c0.229-0.316,0.547-0.475,0.955-0.475c0.407,0,0.728,0.158,0.959,0.475
		c0.232,0.316,0.349,0.778,0.349,1.386c0,0.608-0.116,1.07-0.349,1.386c-0.231,0.316-0.552,0.475-0.959,0.475
		c-0.408,0-0.727-0.158-0.955-0.475C346.247,200.276,346.133,199.814,346.133,199.206z M348.005,199.206
		c0-0.36-0.05-0.656-0.149-0.888c-0.101-0.232-0.242-0.349-0.426-0.349c-0.185,0-0.324,0.116-0.42,0.349
		c-0.097,0.231-0.145,0.527-0.145,0.888s0.048,0.656,0.145,0.888c0.096,0.232,0.235,0.349,0.42,0.349
		c0.184,0,0.325-0.116,0.426-0.349C347.955,199.862,348.005,199.566,348.005,199.206z"/>
</g>
<g>
	<path fill="#909090" d="M369.285,15.51c-0.271-0.664-0.527-1.266-0.768-1.806s-0.471-1.046-0.69-1.519
		c-0.22-0.472-0.438-0.918-0.653-1.338c-0.217-0.42-0.438-0.842-0.66-1.266v5.928h-0.9V8.082h1.008
		c0.328,0.6,0.613,1.124,0.857,1.571c0.244,0.448,0.469,0.883,0.673,1.303s0.401,0.852,0.594,1.296
		c0.192,0.443,0.408,0.958,0.647,1.542V8.082h0.9v7.428H369.285z"/>
	<path fill="#909090" d="M376.473,12.726c0,0.44-0.062,0.838-0.186,1.194c-0.124,0.355-0.299,0.662-0.521,0.918
		c-0.225,0.256-0.492,0.454-0.805,0.594s-0.652,0.21-1.02,0.21c-0.36,0-0.694-0.07-1.002-0.21c-0.309-0.14-0.574-0.338-0.799-0.594
		c-0.224-0.256-0.397-0.562-0.521-0.918c-0.124-0.356-0.186-0.754-0.186-1.194c0-0.439,0.062-0.84,0.186-1.2
		c0.124-0.359,0.298-0.666,0.521-0.918c0.225-0.252,0.49-0.447,0.799-0.588c0.308-0.14,0.642-0.21,1.002-0.21
		c0.367,0,0.707,0.07,1.02,0.21c0.312,0.141,0.58,0.336,0.805,0.588c0.223,0.252,0.397,0.559,0.521,0.918
		C376.411,11.886,376.473,12.286,376.473,12.726z M375.453,12.726c0-0.632-0.137-1.13-0.408-1.494
		c-0.271-0.363-0.641-0.546-1.104-0.546c-0.456,0-0.818,0.183-1.086,0.546c-0.269,0.364-0.402,0.862-0.402,1.494
		c0,0.624,0.134,1.118,0.402,1.482c0.268,0.364,0.63,0.546,1.086,0.546c0.463,0,0.832-0.182,1.104-0.546
		S375.453,13.35,375.453,12.726z"/>
	<path fill="#909090" d="M378.237,15.51v-5.268c0.815-0.28,1.64-0.421,2.472-0.421c0.256,0,0.5,0.011,0.732,0.03
		c0.231,0.021,0.488,0.062,0.768,0.126l-0.18,0.876c-0.256-0.071-0.482-0.118-0.678-0.138c-0.197-0.02-0.41-0.03-0.643-0.03
		c-0.488,0-0.984,0.068-1.488,0.204v4.62H378.237z"/>
	<path fill="#909090" d="M385.869,9.941h2.352v0.828h-2.352v2.592c0,0.28,0.02,0.509,0.061,0.685
		c0.039,0.176,0.105,0.317,0.197,0.426s0.21,0.183,0.354,0.222c0.145,0.041,0.32,0.061,0.529,0.061c0.287,0,0.52-0.024,0.695-0.072
		s0.344-0.111,0.504-0.191l0.145,0.84c-0.112,0.048-0.291,0.111-0.534,0.191c-0.244,0.08-0.546,0.12-0.906,0.12
		c-0.416,0-0.756-0.048-1.021-0.144c-0.264-0.097-0.47-0.24-0.617-0.433c-0.148-0.191-0.25-0.43-0.307-0.714
		c-0.056-0.283-0.084-0.613-0.084-0.99V10.77h-1.176V9.941h1.176v-1.56l0.984-0.168V9.941z"/>
	<path fill="#909090" d="M392.061,9.81c0.752,0,1.332,0.234,1.74,0.702s0.612,1.178,0.612,2.13v0.349h-3.983
		c0.039,0.575,0.229,1.014,0.569,1.313s0.817,0.45,1.435,0.45c0.352,0,0.651-0.028,0.899-0.084s0.437-0.116,0.563-0.18l0.133,0.84
		c-0.12,0.063-0.336,0.132-0.648,0.204c-0.312,0.071-0.664,0.107-1.056,0.107c-0.479,0-0.902-0.074-1.267-0.222
		c-0.363-0.148-0.666-0.35-0.905-0.606c-0.24-0.256-0.421-0.562-0.54-0.918c-0.12-0.355-0.18-0.741-0.18-1.158
		c0-0.495,0.076-0.928,0.228-1.296c0.151-0.367,0.353-0.672,0.601-0.912c0.247-0.239,0.527-0.42,0.84-0.539
		C391.413,9.87,391.732,9.81,392.061,9.81z M393.405,12.186c0-0.472-0.124-0.846-0.372-1.122c-0.248-0.275-0.576-0.414-0.984-0.414
		c-0.232,0-0.441,0.044-0.63,0.133c-0.188,0.088-0.351,0.203-0.485,0.348c-0.137,0.144-0.244,0.308-0.324,0.492
		c-0.08,0.184-0.133,0.372-0.156,0.563H393.405z"/>
</g>
<g>
	<path fill="#909090" d="M369.285,41.509c-0.271-0.664-0.527-1.266-0.768-1.806s-0.471-1.046-0.69-1.519
		c-0.22-0.472-0.438-0.918-0.653-1.338c-0.217-0.42-0.438-0.842-0.66-1.266v5.928h-0.9v-7.428h1.008
		c0.328,0.6,0.613,1.124,0.857,1.571c0.244,0.448,0.469,0.883,0.673,1.303s0.401,0.852,0.594,1.296
		c0.192,0.443,0.408,0.958,0.647,1.542v-5.712h0.9v7.428H369.285z"/>
	<path fill="#909090" d="M376.473,38.725c0,0.44-0.062,0.838-0.186,1.194c-0.124,0.355-0.299,0.662-0.521,0.918
		c-0.225,0.256-0.492,0.454-0.805,0.594s-0.652,0.21-1.02,0.21c-0.36,0-0.694-0.07-1.002-0.21c-0.309-0.14-0.574-0.338-0.799-0.594
		c-0.224-0.256-0.397-0.562-0.521-0.918c-0.124-0.356-0.186-0.754-0.186-1.194c0-0.439,0.062-0.84,0.186-1.2
		c0.124-0.359,0.298-0.666,0.521-0.918c0.225-0.252,0.49-0.447,0.799-0.588c0.308-0.14,0.642-0.21,1.002-0.21
		c0.367,0,0.707,0.07,1.02,0.21c0.312,0.141,0.58,0.336,0.805,0.588c0.223,0.252,0.397,0.559,0.521,0.918
		C376.411,37.885,376.473,38.286,376.473,38.725z M375.453,38.725c0-0.632-0.137-1.13-0.408-1.494
		c-0.271-0.363-0.641-0.546-1.104-0.546c-0.456,0-0.818,0.183-1.086,0.546c-0.269,0.364-0.402,0.862-0.402,1.494
		c0,0.624,0.134,1.118,0.402,1.482c0.268,0.364,0.63,0.546,1.086,0.546c0.463,0,0.832-0.182,1.104-0.546
		S375.453,39.349,375.453,38.725z"/>
	<path fill="#909090" d="M378.237,41.509v-5.268c0.815-0.28,1.64-0.421,2.472-0.421c0.256,0,0.5,0.011,0.732,0.03
		c0.231,0.021,0.488,0.062,0.768,0.126l-0.18,0.876c-0.256-0.071-0.482-0.118-0.678-0.138c-0.197-0.02-0.41-0.03-0.643-0.03
		c-0.488,0-0.984,0.068-1.488,0.204v4.62H378.237z"/>
	<path fill="#909090" d="M387.105,33.361l0.996-0.168v8.16c-0.217,0.064-0.492,0.128-0.828,0.192
		c-0.336,0.063-0.729,0.096-1.176,0.096c-0.4,0-0.765-0.068-1.093-0.204s-0.608-0.33-0.84-0.582s-0.412-0.558-0.54-0.918
		c-0.128-0.359-0.191-0.764-0.191-1.212c0-0.432,0.054-0.826,0.162-1.182c0.107-0.356,0.266-0.662,0.474-0.918
		s0.458-0.456,0.75-0.601c0.292-0.144,0.626-0.216,1.002-0.216c0.296,0,0.556,0.036,0.78,0.108c0.224,0.072,0.392,0.147,0.504,0.228
		V33.361z M387.105,37.118c-0.112-0.104-0.276-0.202-0.492-0.294c-0.217-0.093-0.44-0.139-0.672-0.139
		c-0.264,0-0.49,0.053-0.678,0.156c-0.188,0.104-0.343,0.246-0.463,0.426c-0.119,0.181-0.208,0.396-0.264,0.648
		c-0.057,0.252-0.084,0.521-0.084,0.81c0,0.648,0.152,1.148,0.456,1.5c0.304,0.353,0.7,0.528,1.188,0.528
		c0.248,0,0.457-0.012,0.629-0.036s0.299-0.048,0.379-0.072V37.118z"/>
	<path fill="#909090" d="M392.061,35.809c0.752,0,1.332,0.234,1.74,0.702s0.612,1.178,0.612,2.13v0.349h-3.983
		c0.039,0.575,0.229,1.014,0.569,1.313s0.817,0.45,1.435,0.45c0.352,0,0.651-0.028,0.899-0.084s0.437-0.116,0.563-0.18l0.133,0.84
		c-0.12,0.063-0.336,0.132-0.648,0.204c-0.312,0.071-0.664,0.107-1.056,0.107c-0.479,0-0.902-0.074-1.267-0.222
		c-0.363-0.148-0.666-0.35-0.905-0.606c-0.24-0.256-0.421-0.562-0.54-0.918c-0.12-0.355-0.18-0.741-0.18-1.158
		c0-0.495,0.076-0.928,0.228-1.296c0.151-0.367,0.353-0.672,0.601-0.912c0.247-0.239,0.527-0.42,0.84-0.539
		C391.413,35.87,391.732,35.809,392.061,35.809z M393.405,38.185c0-0.472-0.124-0.846-0.372-1.122
		c-0.248-0.275-0.576-0.414-0.984-0.414c-0.232,0-0.441,0.044-0.63,0.133c-0.188,0.088-0.351,0.203-0.485,0.348
		c-0.137,0.144-0.244,0.308-0.324,0.492c-0.08,0.184-0.133,0.372-0.156,0.563H393.405z"/>
	<path fill="#909090" d="M399.165,40.118c0-0.2-0.082-0.364-0.246-0.492s-0.368-0.24-0.612-0.336
		c-0.244-0.097-0.51-0.19-0.797-0.282c-0.289-0.092-0.555-0.206-0.799-0.342s-0.447-0.304-0.611-0.504s-0.246-0.46-0.246-0.78
		c0-0.448,0.182-0.822,0.545-1.122c0.365-0.3,0.935-0.45,1.711-0.45c0.304,0,0.617,0.022,0.941,0.066s0.602,0.102,0.834,0.174
		l-0.18,0.888c-0.064-0.031-0.152-0.065-0.264-0.102c-0.112-0.036-0.24-0.068-0.385-0.096c-0.144-0.028-0.298-0.051-0.461-0.066
		c-0.164-0.016-0.322-0.024-0.475-0.024c-0.863,0-1.296,0.236-1.296,0.708c0,0.168,0.082,0.311,0.246,0.427
		c0.163,0.115,0.37,0.222,0.618,0.317c0.248,0.097,0.516,0.194,0.804,0.294c0.288,0.101,0.556,0.223,0.804,0.366
		c0.248,0.145,0.454,0.318,0.618,0.522c0.164,0.203,0.246,0.462,0.246,0.773c0,0.504-0.196,0.895-0.588,1.17
		c-0.392,0.276-1.013,0.414-1.86,0.414c-0.384,0-0.736-0.032-1.056-0.096c-0.32-0.064-0.624-0.16-0.912-0.288l0.192-0.9
		c0.279,0.128,0.574,0.234,0.882,0.318s0.638,0.126,0.989,0.126C398.713,40.801,399.165,40.574,399.165,40.118z"/>
	<path fill="#909090" d="M403.869,35.941h2.352v0.828h-2.352v2.592c0,0.28,0.02,0.509,0.061,0.685
		c0.039,0.176,0.105,0.317,0.197,0.426s0.21,0.183,0.354,0.222c0.145,0.041,0.32,0.061,0.529,0.061c0.287,0,0.52-0.024,0.695-0.072
		s0.344-0.111,0.504-0.191l0.145,0.84c-0.112,0.048-0.291,0.111-0.534,0.191c-0.244,0.08-0.546,0.12-0.906,0.12
		c-0.416,0-0.756-0.048-1.021-0.144c-0.264-0.097-0.47-0.24-0.617-0.433c-0.148-0.191-0.25-0.43-0.307-0.714
		c-0.056-0.283-0.084-0.613-0.084-0.99v-2.592h-1.176v-0.828h1.176v-1.56l0.984-0.168V35.941z"/>
	<path fill="#909090" d="M410.061,35.809c0.752,0,1.332,0.234,1.74,0.702s0.612,1.178,0.612,2.13v0.349h-3.983
		c0.039,0.575,0.229,1.014,0.569,1.313s0.817,0.45,1.435,0.45c0.352,0,0.651-0.028,0.899-0.084s0.437-0.116,0.563-0.18l0.133,0.84
		c-0.12,0.063-0.336,0.132-0.648,0.204c-0.312,0.071-0.664,0.107-1.056,0.107c-0.479,0-0.902-0.074-1.267-0.222
		c-0.363-0.148-0.666-0.35-0.905-0.606c-0.24-0.256-0.421-0.562-0.54-0.918c-0.12-0.355-0.18-0.741-0.18-1.158
		c0-0.495,0.076-0.928,0.228-1.296c0.151-0.367,0.353-0.672,0.601-0.912c0.247-0.239,0.527-0.42,0.84-0.539
		C409.413,35.87,409.732,35.809,410.061,35.809z M411.405,38.185c0-0.472-0.124-0.846-0.372-1.122
		c-0.248-0.275-0.576-0.414-0.984-0.414c-0.232,0-0.441,0.044-0.63,0.133c-0.188,0.088-0.351,0.203-0.485,0.348
		c-0.137,0.144-0.244,0.308-0.324,0.492c-0.08,0.184-0.133,0.372-0.156,0.563H411.405z"/>
</g>
<g>
	<path fill="#909090" d="M367.762,110.514c0.504,0,0.887-0.096,1.151-0.288c0.265-0.191,0.396-0.479,0.396-0.863
		c0-0.232-0.047-0.431-0.144-0.595c-0.096-0.163-0.224-0.308-0.384-0.432s-0.34-0.231-0.54-0.324
		c-0.2-0.092-0.404-0.178-0.612-0.258c-0.24-0.096-0.47-0.204-0.689-0.324c-0.221-0.12-0.416-0.26-0.588-0.42
		s-0.309-0.348-0.408-0.563c-0.101-0.217-0.15-0.473-0.15-0.769c0-0.647,0.204-1.153,0.612-1.518
		c0.407-0.364,0.976-0.546,1.704-0.546c0.199,0,0.397,0.014,0.594,0.042c0.195,0.028,0.378,0.062,0.546,0.102
		s0.317,0.088,0.45,0.145c0.132,0.056,0.238,0.111,0.318,0.168l-0.312,0.828c-0.16-0.097-0.38-0.192-0.66-0.288
		c-0.279-0.097-0.592-0.145-0.936-0.145c-0.36,0-0.672,0.09-0.936,0.271c-0.265,0.18-0.396,0.449-0.396,0.81
		c0,0.208,0.037,0.384,0.113,0.528c0.076,0.144,0.181,0.27,0.312,0.378c0.132,0.107,0.286,0.206,0.462,0.294
		s0.368,0.176,0.576,0.264c0.304,0.128,0.582,0.256,0.834,0.384c0.252,0.129,0.468,0.28,0.647,0.456
		c0.181,0.177,0.32,0.385,0.42,0.624c0.101,0.24,0.15,0.532,0.15,0.876c0,0.648-0.218,1.146-0.654,1.494
		c-0.436,0.349-1.062,0.522-1.877,0.522c-0.265,0-0.513-0.019-0.744-0.055c-0.232-0.035-0.438-0.082-0.619-0.138
		c-0.18-0.056-0.338-0.111-0.473-0.168c-0.137-0.056-0.24-0.107-0.312-0.156l0.3-0.815c0.16,0.088,0.396,0.189,0.708,0.306
		S367.312,110.514,367.762,110.514z"/>
	<path fill="#909090" d="M376.102,111.054c-0.217,0.057-0.502,0.116-0.858,0.181c-0.356,0.063-0.774,0.096-1.254,0.096
		c-0.425,0-0.776-0.062-1.056-0.187c-0.281-0.123-0.509-0.3-0.685-0.527c-0.176-0.229-0.3-0.498-0.372-0.811
		c-0.072-0.312-0.107-0.655-0.107-1.031v-3.133h0.983v2.916c0,0.688,0.103,1.177,0.306,1.464c0.205,0.288,0.547,0.433,1.026,0.433
		c0.104,0,0.21-0.004,0.318-0.012s0.21-0.019,0.306-0.03s0.18-0.024,0.252-0.036s0.12-0.021,0.145-0.03v-4.704h0.996V111.054z"/>
	<path fill="#909090" d="M381.105,103.062l0.996-0.168v8.16c-0.217,0.064-0.492,0.128-0.828,0.192
		c-0.336,0.063-0.729,0.096-1.176,0.096c-0.4,0-0.765-0.068-1.093-0.204s-0.608-0.33-0.84-0.582s-0.412-0.558-0.54-0.918
		c-0.128-0.359-0.191-0.764-0.191-1.212c0-0.432,0.054-0.826,0.162-1.182c0.107-0.356,0.266-0.662,0.474-0.918
		s0.458-0.456,0.75-0.601c0.292-0.144,0.626-0.216,1.002-0.216c0.296,0,0.556,0.036,0.78,0.108c0.224,0.072,0.392,0.147,0.504,0.228
		V103.062z M381.105,106.818c-0.112-0.104-0.276-0.202-0.492-0.294c-0.217-0.093-0.44-0.139-0.672-0.139
		c-0.264,0-0.49,0.053-0.678,0.156c-0.188,0.104-0.343,0.246-0.463,0.426c-0.119,0.181-0.208,0.396-0.264,0.648
		c-0.057,0.252-0.084,0.521-0.084,0.81c0,0.648,0.152,1.148,0.456,1.5c0.304,0.353,0.7,0.528,1.188,0.528
		c0.248,0,0.457-0.012,0.629-0.036s0.299-0.048,0.379-0.072V106.818z"/>
	<path fill="#909090" d="M386.061,105.51c0.752,0,1.332,0.234,1.74,0.702s0.612,1.178,0.612,2.13v0.349h-3.983
		c0.039,0.575,0.229,1.014,0.569,1.313s0.817,0.45,1.435,0.45c0.352,0,0.651-0.028,0.899-0.084s0.437-0.116,0.563-0.18l0.133,0.84
		c-0.12,0.063-0.336,0.132-0.648,0.204c-0.312,0.071-0.664,0.107-1.056,0.107c-0.479,0-0.902-0.074-1.267-0.222
		c-0.363-0.148-0.666-0.35-0.905-0.606c-0.24-0.256-0.421-0.562-0.54-0.918c-0.12-0.355-0.18-0.741-0.18-1.158
		c0-0.495,0.076-0.928,0.228-1.296c0.151-0.367,0.353-0.672,0.601-0.912c0.247-0.239,0.527-0.42,0.84-0.539
		C385.413,105.57,385.732,105.51,386.061,105.51z M387.405,107.886c0-0.472-0.124-0.846-0.372-1.122
		c-0.248-0.275-0.576-0.414-0.984-0.414c-0.232,0-0.441,0.044-0.63,0.133c-0.188,0.088-0.351,0.203-0.485,0.348
		c-0.137,0.144-0.244,0.308-0.324,0.492c-0.08,0.184-0.133,0.372-0.156,0.563H387.405z"/>
	<path fill="#909090" d="M393.165,109.818c0-0.2-0.082-0.364-0.246-0.492s-0.368-0.24-0.612-0.336
		c-0.244-0.097-0.51-0.19-0.797-0.282c-0.289-0.092-0.555-0.206-0.799-0.342s-0.447-0.304-0.611-0.504s-0.246-0.46-0.246-0.78
		c0-0.448,0.182-0.822,0.545-1.122c0.365-0.3,0.935-0.45,1.711-0.45c0.304,0,0.617,0.022,0.941,0.066s0.602,0.102,0.834,0.174
		l-0.18,0.888c-0.064-0.031-0.152-0.065-0.264-0.102c-0.112-0.036-0.24-0.068-0.385-0.096c-0.144-0.028-0.298-0.051-0.461-0.066
		c-0.164-0.016-0.322-0.024-0.475-0.024c-0.863,0-1.296,0.236-1.296,0.708c0,0.168,0.082,0.311,0.246,0.427
		c0.163,0.115,0.37,0.222,0.618,0.317c0.248,0.097,0.516,0.194,0.804,0.294c0.288,0.101,0.556,0.223,0.804,0.366
		c0.248,0.145,0.454,0.318,0.618,0.522c0.164,0.203,0.246,0.462,0.246,0.773c0,0.504-0.196,0.895-0.588,1.17
		c-0.392,0.276-1.013,0.414-1.86,0.414c-0.384,0-0.736-0.032-1.056-0.096c-0.32-0.064-0.624-0.16-0.912-0.288l0.192-0.9
		c0.279,0.128,0.574,0.234,0.882,0.318s0.638,0.126,0.989,0.126C392.713,110.502,393.165,110.274,393.165,109.818z"/>
	<path fill="#909090" d="M397.869,105.642h2.352v0.828h-2.352v2.592c0,0.28,0.02,0.509,0.061,0.685
		c0.039,0.176,0.105,0.317,0.197,0.426s0.21,0.183,0.354,0.222c0.145,0.041,0.32,0.061,0.529,0.061c0.287,0,0.52-0.024,0.695-0.072
		s0.344-0.111,0.504-0.191l0.145,0.84c-0.112,0.048-0.291,0.111-0.534,0.191c-0.244,0.08-0.546,0.12-0.906,0.12
		c-0.416,0-0.756-0.048-1.021-0.144c-0.264-0.097-0.47-0.24-0.617-0.433c-0.148-0.191-0.25-0.43-0.307-0.714
		c-0.056-0.283-0.084-0.613-0.084-0.99v-2.592h-1.176v-0.828h1.176v-1.56l0.984-0.168V105.642z"/>
	<path fill="#909090" d="M404.061,105.51c0.752,0,1.332,0.234,1.74,0.702s0.612,1.178,0.612,2.13v0.349h-3.983
		c0.039,0.575,0.229,1.014,0.569,1.313s0.817,0.45,1.435,0.45c0.352,0,0.651-0.028,0.899-0.084s0.437-0.116,0.563-0.18l0.133,0.84
		c-0.12,0.063-0.336,0.132-0.648,0.204c-0.312,0.071-0.664,0.107-1.056,0.107c-0.479,0-0.902-0.074-1.267-0.222
		c-0.363-0.148-0.666-0.35-0.905-0.606c-0.24-0.256-0.421-0.562-0.54-0.918c-0.12-0.355-0.18-0.741-0.18-1.158
		c0-0.495,0.076-0.928,0.228-1.296c0.151-0.367,0.353-0.672,0.601-0.912c0.247-0.239,0.527-0.42,0.84-0.539
		C403.413,105.57,403.732,105.51,404.061,105.51z M405.405,107.886c0-0.472-0.124-0.846-0.372-1.122
		c-0.248-0.275-0.576-0.414-0.984-0.414c-0.232,0-0.441,0.044-0.63,0.133c-0.188,0.088-0.351,0.203-0.485,0.348
		c-0.137,0.144-0.244,0.308-0.324,0.492c-0.08,0.184-0.133,0.372-0.156,0.563H405.405z"/>
</g>
<g>
	<path fill="#909090" d="M367.762,176.014c0.504,0,0.887-0.096,1.151-0.288c0.265-0.191,0.396-0.479,0.396-0.863
		c0-0.232-0.047-0.431-0.144-0.595c-0.096-0.163-0.224-0.308-0.384-0.432s-0.34-0.231-0.54-0.324
		c-0.2-0.092-0.404-0.178-0.612-0.258c-0.24-0.096-0.47-0.204-0.689-0.324c-0.221-0.12-0.416-0.26-0.588-0.42
		s-0.309-0.348-0.408-0.563c-0.101-0.217-0.15-0.473-0.15-0.769c0-0.647,0.204-1.153,0.612-1.518
		c0.407-0.364,0.976-0.546,1.704-0.546c0.199,0,0.397,0.014,0.594,0.042c0.195,0.028,0.378,0.062,0.546,0.102
		s0.317,0.088,0.45,0.145c0.132,0.056,0.238,0.111,0.318,0.168l-0.312,0.828c-0.16-0.097-0.38-0.192-0.66-0.288
		c-0.279-0.097-0.592-0.145-0.936-0.145c-0.36,0-0.672,0.09-0.936,0.271c-0.265,0.18-0.396,0.449-0.396,0.81
		c0,0.208,0.037,0.384,0.113,0.528c0.076,0.144,0.181,0.27,0.312,0.378c0.132,0.107,0.286,0.206,0.462,0.294
		s0.368,0.176,0.576,0.264c0.304,0.128,0.582,0.256,0.834,0.384c0.252,0.129,0.468,0.28,0.647,0.456
		c0.181,0.177,0.32,0.385,0.42,0.624c0.101,0.24,0.15,0.532,0.15,0.876c0,0.648-0.218,1.146-0.654,1.494
		c-0.436,0.349-1.062,0.522-1.877,0.522c-0.265,0-0.513-0.019-0.744-0.055c-0.232-0.035-0.438-0.082-0.619-0.138
		c-0.18-0.056-0.338-0.111-0.473-0.168c-0.137-0.056-0.24-0.107-0.312-0.156l0.3-0.815c0.16,0.088,0.396,0.189,0.708,0.306
		S367.312,176.014,367.762,176.014z"/>
	<path fill="#909090" d="M376.102,176.554c-0.217,0.057-0.502,0.116-0.858,0.181c-0.356,0.063-0.774,0.096-1.254,0.096
		c-0.425,0-0.776-0.062-1.056-0.187c-0.281-0.123-0.509-0.3-0.685-0.527c-0.176-0.229-0.3-0.498-0.372-0.811
		c-0.072-0.312-0.107-0.655-0.107-1.031v-3.133h0.983v2.916c0,0.688,0.103,1.177,0.306,1.464c0.205,0.288,0.547,0.433,1.026,0.433
		c0.104,0,0.21-0.004,0.318-0.012s0.21-0.019,0.306-0.03s0.18-0.024,0.252-0.036s0.12-0.021,0.145-0.03v-4.704h0.996V176.554z"/>
	<path fill="#909090" d="M381.01,176.842c-0.353,0-0.645-0.048-0.877-0.144c-0.232-0.097-0.416-0.24-0.552-0.433
		c-0.136-0.191-0.231-0.43-0.288-0.714c-0.056-0.283-0.084-0.613-0.084-0.99v-5.268h-1.607v-0.84h2.592v6.107
		c0,0.28,0.018,0.509,0.054,0.685s0.092,0.317,0.168,0.426s0.17,0.183,0.282,0.222c0.111,0.041,0.244,0.061,0.396,0.061
		c0.231,0,0.447-0.028,0.647-0.084s0.356-0.116,0.468-0.18l0.145,0.84c-0.049,0.023-0.116,0.054-0.205,0.09
		c-0.088,0.036-0.191,0.07-0.312,0.102c-0.12,0.032-0.25,0.061-0.39,0.084C381.307,176.83,381.161,176.842,381.01,176.842z"/>
</g>
<g>
	<path fill="#909090" d="M370.473,200.599c-0.279,0.159-0.578,0.277-0.894,0.354s-0.653,0.114-1.015,0.114
		c-0.439,0-0.846-0.078-1.217-0.234c-0.373-0.156-0.695-0.392-0.967-0.708c-0.271-0.315-0.486-0.718-0.642-1.206
		c-0.156-0.487-0.234-1.063-0.234-1.728c0-0.632,0.082-1.188,0.246-1.668c0.164-0.48,0.386-0.884,0.666-1.212
		s0.608-0.576,0.984-0.744s0.775-0.252,1.2-0.252c0.295,0,0.598,0.04,0.906,0.12c0.307,0.08,0.609,0.212,0.905,0.396l-0.288,0.816
		c-0.527-0.305-1.023-0.456-1.488-0.456c-0.328,0-0.621,0.07-0.882,0.21c-0.26,0.14-0.481,0.342-0.665,0.605
		c-0.186,0.265-0.326,0.58-0.427,0.948s-0.149,0.78-0.149,1.236c0,0.512,0.053,0.956,0.162,1.332
		c0.107,0.376,0.258,0.688,0.449,0.936s0.422,0.433,0.689,0.552c0.269,0.12,0.559,0.181,0.871,0.181c0.231,0,0.476-0.03,0.731-0.09
		c0.256-0.061,0.521-0.166,0.792-0.318L370.473,200.599z"/>
	<path fill="#909090" d="M374.061,195.21c0.752,0,1.332,0.234,1.74,0.702s0.612,1.178,0.612,2.13v0.349h-3.983
		c0.039,0.575,0.229,1.014,0.569,1.313s0.817,0.45,1.435,0.45c0.352,0,0.651-0.028,0.899-0.084s0.437-0.116,0.563-0.18l0.133,0.84
		c-0.12,0.063-0.336,0.132-0.648,0.204c-0.312,0.071-0.664,0.107-1.056,0.107c-0.479,0-0.902-0.074-1.267-0.222
		c-0.363-0.148-0.666-0.35-0.905-0.606c-0.24-0.256-0.421-0.562-0.54-0.918c-0.12-0.355-0.18-0.741-0.18-1.158
		c0-0.495,0.076-0.928,0.228-1.296c0.151-0.367,0.353-0.672,0.601-0.912c0.247-0.239,0.527-0.42,0.84-0.539
		C373.413,195.271,373.732,195.21,374.061,195.21z M375.405,197.586c0-0.472-0.124-0.846-0.372-1.122
		c-0.248-0.275-0.576-0.414-0.984-0.414c-0.232,0-0.441,0.044-0.63,0.133c-0.188,0.088-0.351,0.203-0.485,0.348
		c-0.137,0.144-0.244,0.308-0.324,0.492c-0.08,0.184-0.133,0.372-0.156,0.563H375.405z"/>
	<path fill="#909090" d="M377.805,195.498c0.36-0.088,0.719-0.156,1.074-0.204s0.69-0.072,1.002-0.072
		c0.744,0,1.307,0.192,1.686,0.576c0.381,0.385,0.57,1,0.57,1.849v3.264h-0.983v-3.084c0-0.36-0.032-0.652-0.097-0.876
		c-0.063-0.224-0.154-0.397-0.27-0.522c-0.116-0.123-0.256-0.21-0.42-0.258s-0.342-0.071-0.534-0.071c-0.16,0-0.33,0.01-0.51,0.029
		c-0.181,0.021-0.354,0.046-0.522,0.078v4.704h-0.996V195.498z"/>
	<path fill="#909090" d="M385.869,195.342h2.352v0.828h-2.352v2.592c0,0.28,0.02,0.509,0.061,0.685
		c0.039,0.176,0.105,0.317,0.197,0.426s0.21,0.183,0.354,0.222c0.145,0.041,0.32,0.061,0.529,0.061c0.287,0,0.52-0.024,0.695-0.072
		s0.344-0.111,0.504-0.191l0.145,0.84c-0.112,0.048-0.291,0.111-0.534,0.191c-0.244,0.08-0.546,0.12-0.906,0.12
		c-0.416,0-0.756-0.048-1.021-0.144c-0.264-0.097-0.47-0.24-0.617-0.433c-0.148-0.191-0.25-0.43-0.307-0.714
		c-0.056-0.283-0.084-0.613-0.084-0.99v-2.592h-1.176v-0.828h1.176v-1.56l0.984-0.168V195.342z"/>
	<path fill="#909090" d="M390.237,200.91v-5.268c0.815-0.28,1.64-0.421,2.472-0.421c0.256,0,0.5,0.011,0.732,0.03
		c0.231,0.021,0.488,0.062,0.768,0.126l-0.18,0.876c-0.256-0.071-0.482-0.118-0.678-0.138c-0.197-0.02-0.41-0.03-0.643-0.03
		c-0.488,0-0.984,0.068-1.488,0.204v4.62H390.237z"/>
	<path fill="#909090" d="M400.473,198.126c0,0.44-0.062,0.838-0.186,1.194c-0.124,0.355-0.299,0.662-0.521,0.918
		c-0.225,0.256-0.492,0.454-0.805,0.594s-0.652,0.21-1.02,0.21c-0.36,0-0.694-0.07-1.002-0.21c-0.309-0.14-0.574-0.338-0.799-0.594
		c-0.224-0.256-0.397-0.562-0.521-0.918c-0.124-0.356-0.186-0.754-0.186-1.194c0-0.439,0.062-0.84,0.186-1.2
		c0.124-0.359,0.298-0.666,0.521-0.918c0.225-0.252,0.49-0.447,0.799-0.588c0.308-0.14,0.642-0.21,1.002-0.21
		c0.367,0,0.707,0.07,1.02,0.21c0.312,0.141,0.58,0.336,0.805,0.588c0.223,0.252,0.397,0.559,0.521,0.918
		C400.411,197.286,400.473,197.687,400.473,198.126z M399.453,198.126c0-0.632-0.137-1.13-0.408-1.494
		c-0.271-0.363-0.641-0.546-1.104-0.546c-0.456,0-0.818,0.183-1.086,0.546c-0.269,0.364-0.402,0.862-0.402,1.494
		c0,0.624,0.134,1.118,0.402,1.482c0.268,0.364,0.63,0.546,1.086,0.546c0.463,0,0.832-0.182,1.104-0.546
		S399.453,198.75,399.453,198.126z"/>
	<path fill="#909090" d="M402.633,197.395h2.641v0.936h-2.641V197.395z"/>
	<path fill="#909090" d="M407.301,197.19c0-0.664,0.064-1.24,0.192-1.729c0.128-0.487,0.308-0.89,0.54-1.206
		c0.232-0.315,0.51-0.552,0.834-0.708c0.324-0.155,0.686-0.233,1.086-0.233c0.393,0,0.752,0.078,1.08,0.233
		c0.328,0.156,0.607,0.393,0.84,0.708c0.232,0.316,0.414,0.719,0.546,1.206c0.132,0.488,0.198,1.064,0.198,1.729
		s-0.066,1.24-0.198,1.728c-0.132,0.488-0.313,0.893-0.546,1.212c-0.232,0.32-0.512,0.557-0.84,0.708
		c-0.328,0.152-0.688,0.229-1.08,0.229c-0.4,0-0.762-0.076-1.086-0.229c-0.324-0.151-0.602-0.388-0.834-0.708
		c-0.232-0.319-0.412-0.724-0.54-1.212C407.365,198.431,407.301,197.854,407.301,197.19z M408.309,197.19
		c0,0.976,0.133,1.724,0.396,2.244c0.264,0.52,0.672,0.779,1.225,0.779c0.559,0,0.979-0.26,1.26-0.779
		c0.279-0.521,0.42-1.269,0.42-2.244c0-0.977-0.141-1.725-0.42-2.244c-0.28-0.521-0.701-0.78-1.26-0.78
		c-0.553,0-0.961,0.26-1.225,0.78C408.441,195.466,408.309,196.214,408.309,197.19z"/>
	<path fill="#909090" d="M416.061,195.21c0.752,0,1.332,0.234,1.74,0.702s0.612,1.178,0.612,2.13v0.349h-3.983
		c0.039,0.575,0.229,1.014,0.569,1.313s0.817,0.45,1.435,0.45c0.352,0,0.651-0.028,0.899-0.084s0.437-0.116,0.563-0.18l0.133,0.84
		c-0.12,0.063-0.336,0.132-0.648,0.204c-0.312,0.071-0.664,0.107-1.056,0.107c-0.479,0-0.902-0.074-1.267-0.222
		c-0.363-0.148-0.666-0.35-0.905-0.606c-0.24-0.256-0.421-0.562-0.54-0.918c-0.12-0.355-0.18-0.741-0.18-1.158
		c0-0.495,0.076-0.928,0.228-1.296c0.151-0.367,0.353-0.672,0.601-0.912c0.247-0.239,0.527-0.42,0.84-0.539
		C415.413,195.271,415.732,195.21,416.061,195.21z M417.405,197.586c0-0.472-0.124-0.846-0.372-1.122
		c-0.248-0.275-0.576-0.414-0.984-0.414c-0.232,0-0.441,0.044-0.63,0.133c-0.188,0.088-0.351,0.203-0.485,0.348
		c-0.137,0.144-0.244,0.308-0.324,0.492c-0.08,0.184-0.133,0.372-0.156,0.563H417.405z"/>
	<path fill="#909090" d="M423.165,199.519c0-0.2-0.082-0.364-0.246-0.492s-0.368-0.24-0.612-0.336
		c-0.244-0.097-0.51-0.19-0.797-0.282c-0.289-0.092-0.555-0.206-0.799-0.342s-0.447-0.304-0.611-0.504s-0.246-0.46-0.246-0.78
		c0-0.448,0.182-0.822,0.545-1.122c0.365-0.3,0.935-0.45,1.711-0.45c0.304,0,0.617,0.022,0.941,0.066s0.602,0.102,0.834,0.174
		l-0.18,0.888c-0.064-0.031-0.152-0.065-0.264-0.102c-0.112-0.036-0.24-0.068-0.385-0.096c-0.144-0.028-0.298-0.051-0.461-0.066
		c-0.164-0.016-0.322-0.024-0.475-0.024c-0.863,0-1.296,0.236-1.296,0.708c0,0.168,0.082,0.311,0.246,0.427
		c0.163,0.115,0.37,0.222,0.618,0.317c0.248,0.097,0.516,0.194,0.804,0.294c0.288,0.101,0.556,0.223,0.804,0.366
		c0.248,0.145,0.454,0.318,0.618,0.522c0.164,0.203,0.246,0.462,0.246,0.773c0,0.504-0.196,0.895-0.588,1.17
		c-0.392,0.276-1.013,0.414-1.86,0.414c-0.384,0-0.736-0.032-1.056-0.096c-0.32-0.064-0.624-0.16-0.912-0.288l0.192-0.9
		c0.279,0.128,0.574,0.234,0.882,0.318s0.638,0.126,0.989,0.126C422.713,200.202,423.165,199.975,423.165,199.519z"/>
	<path fill="#909090" d="M427.869,195.342h2.352v0.828h-2.352v2.592c0,0.28,0.02,0.509,0.061,0.685
		c0.039,0.176,0.105,0.317,0.197,0.426s0.21,0.183,0.354,0.222c0.145,0.041,0.32,0.061,0.529,0.061c0.287,0,0.52-0.024,0.695-0.072
		s0.344-0.111,0.504-0.191l0.145,0.84c-0.112,0.048-0.291,0.111-0.534,0.191c-0.244,0.08-0.546,0.12-0.906,0.12
		c-0.416,0-0.756-0.048-1.021-0.144c-0.264-0.097-0.47-0.24-0.617-0.433c-0.148-0.191-0.25-0.43-0.307-0.714
		c-0.056-0.283-0.084-0.613-0.084-0.99v-2.592h-1.176v-0.828h1.176v-1.56l0.984-0.168V195.342z"/>
	<path fill="#909090" d="M434.061,195.21c0.752,0,1.332,0.234,1.74,0.702s0.612,1.178,0.612,2.13v0.349h-3.983
		c0.039,0.575,0.229,1.014,0.569,1.313s0.817,0.45,1.435,0.45c0.352,0,0.651-0.028,0.899-0.084s0.437-0.116,0.563-0.18l0.133,0.84
		c-0.12,0.063-0.336,0.132-0.648,0.204c-0.312,0.071-0.664,0.107-1.056,0.107c-0.479,0-0.902-0.074-1.267-0.222
		c-0.363-0.148-0.666-0.35-0.905-0.606c-0.24-0.256-0.421-0.562-0.54-0.918c-0.12-0.355-0.18-0.741-0.18-1.158
		c0-0.495,0.076-0.928,0.228-1.296c0.151-0.367,0.353-0.672,0.601-0.912c0.247-0.239,0.527-0.42,0.84-0.539
		C433.413,195.271,433.732,195.21,434.061,195.21z M435.405,197.586c0-0.472-0.124-0.846-0.372-1.122
		c-0.248-0.275-0.576-0.414-0.984-0.414c-0.232,0-0.441,0.044-0.63,0.133c-0.188,0.088-0.351,0.203-0.485,0.348
		c-0.137,0.144-0.244,0.308-0.324,0.492c-0.08,0.184-0.133,0.372-0.156,0.563H435.405z"/>
</g>
<path fill="#FFFFFF" stroke="#736357" stroke-miterlimit="10" d="M179.136,60.263c-6.806,0-12.344-5.537-12.344-12.344
	c0-6.803,5.538-12.338,12.344-12.338c6.803,0,12.338,5.535,12.338,12.338C191.474,54.726,185.939,60.263,179.136,60.263z"/>
<path fill="#FFFFFF" stroke="#998675" stroke-miterlimit="10" d="M270.669,99.205c-10.544,0-19.123-8.578-19.123-19.123
	c0-10.541,8.579-19.117,19.123-19.117c10.542,0,19.118,8.576,19.118,19.117C289.787,90.627,281.211,99.205,270.669,99.205z"/>
<path fill="#FFFFFF" stroke="#736357" stroke-miterlimit="10" d="M251.879,167.794c-15.372,0-27.877-12.506-27.877-27.877
	c0-15.375,12.505-27.883,27.877-27.883c15.375,0,27.882,12.508,27.882,27.883C279.762,155.288,267.254,167.794,251.879,167.794z"/>
<path fill="#FFFFFF" stroke="#998675" stroke-miterlimit="10" d="M212.561,190.092c-9.617,0-17.441-7.824-17.441-17.441
	s7.824-17.441,17.441-17.441s17.441,7.824,17.441,17.441S222.178,190.092,212.561,190.092z"/>
<path fill="#FFFFFF" stroke="#736357" stroke-miterlimit="10" d="M198.545,127.01c-7.664,0-13.899-6.236-13.899-13.902
	s6.235-13.902,13.899-13.902s13.899,6.236,13.899,13.902S206.209,127.01,198.545,127.01z"/>
<circle fill="#41B3C6" cx="179.133" cy="47.919" r="8.341"/>
<path fill="#41B3C6" d="M255.546,80.082c0-8.35,6.773-15.117,15.123-15.117c8.35,0,15.118,6.768,15.118,15.117
	c0,8.355-6.768,15.123-15.118,15.123C262.32,95.205,255.546,88.438,255.546,80.082z"/>
<path fill="#41B3C6" d="M228.002,139.917c0-13.189,10.688-23.883,23.877-23.883s23.882,10.693,23.882,23.883
	c0,13.184-10.693,23.877-23.882,23.877S228.002,153.101,228.002,139.917z"/>
<path fill="#41B3C6" d="M199.12,172.65c0-7.418,6.018-13.441,13.441-13.441s13.441,6.023,13.441,13.441
	c0,7.424-6.018,13.441-13.441,13.441S199.12,180.074,199.12,172.65z"/>
<circle fill="#41B3C6" cx="198.545" cy="113.107" r="9.899"/>
</svg>
