<?xml version="1.0" encoding="utf-8"?>
<!-- Generator: Adobe Illustrator 16.0.0, SVG Export Plug-In . SVG Version: 6.00 Build 0)  -->
<!DOCTYPE svg PUBLIC "-//W3C//DTD SVG 1.1//EN" "http://www.w3.org/Graphics/SVG/1.1/DTD/svg11.dtd">
<svg version="1.1" id="Layer_1" xmlns="http://www.w3.org/2000/svg" xmlns:xlink="http://www.w3.org/1999/xlink" x="0px" y="0px"
	 width="540px" height="220px" viewBox="0 0 540 220" enable-background="new 0 0 540 220" xml:space="preserve">
<path opacity="0.8" fill="#41B3C6" d="M115.97,46.329c19.887,0,36,16.119,36,36s-16.113,36-36,36s-36-16.119-36-36
	S96.083,46.329,115.97,46.329z"/>
<circle opacity="0.8" fill="#41B3C6" cx="33.97" cy="82.329" r="13.559"/>
<path opacity="0.8" fill="#41B3C6" d="M57.976,60.608c11.988,0,21.715,9.727,21.715,21.721s-9.727,21.721-21.715,21.721
	c-12,0-21.727-9.727-21.727-21.721S45.976,60.608,57.976,60.608z"/>
<circle opacity="0.8" fill="#41B3C6" cx="81.97" cy="82.329" r="33"/>
<path opacity="0.8" fill="#41B3C6" d="M159.976,59.53c12.586,0,22.793,10.207,22.793,22.799s-10.207,22.799-22.793,22.799
	c-12.598,0-22.805-10.207-22.805-22.799S147.378,59.53,159.976,59.53z"/>
<path opacity="0.8" fill="#41B3C6" d="M223.971,62.77c10.805,0,19.559,8.754,19.559,19.559s-8.754,19.559-19.559,19.559
	s-19.559-8.754-19.559-19.559S213.166,62.77,223.971,62.77z"/>
<path opacity="0.8" fill="#41B3C6" d="M300.965,57.01c13.992,0,25.324,11.332,25.324,25.318s-11.332,25.318-25.324,25.318
	c-13.98,0-25.312-11.332-25.312-25.318S286.984,57.01,300.965,57.01z"/>
<g>
	<g>
		<path d="M372.402,5.819c0.136-0.319,0.322-0.688,0.559-1.104c0.235-0.416,0.501-0.846,0.797-1.29
			c0.297-0.444,0.612-0.88,0.948-1.308c0.336-0.429,0.677-0.814,1.021-1.158h0.959v4.716h0.877v0.815h-0.877v1.896h-0.959V6.491
			h-3.324V5.819z M375.727,2.136c-0.217,0.232-0.435,0.488-0.654,0.768c-0.221,0.28-0.434,0.574-0.643,0.883
			c-0.207,0.308-0.401,0.622-0.582,0.941c-0.18,0.32-0.342,0.636-0.485,0.948h2.364V2.136z"/>
		<path d="M381.858,7.62c0,0.239-0.08,0.451-0.24,0.636c-0.16,0.184-0.372,0.275-0.636,0.275c-0.272,0-0.488-0.092-0.648-0.275
			c-0.16-0.185-0.24-0.396-0.24-0.636c0-0.248,0.08-0.464,0.24-0.648c0.16-0.184,0.376-0.276,0.648-0.276
			c0.264,0,0.476,0.093,0.636,0.276C381.778,7.156,381.858,7.372,381.858,7.62z"/>
		<path d="M384.521,4.668c0-1.248,0.215-2.206,0.643-2.874s1.03-1.002,1.807-1.002c0.783,0,1.387,0.334,1.812,1.002
			c0.424,0.668,0.636,1.626,0.636,2.874s-0.212,2.206-0.636,2.874c-0.425,0.668-1.028,1.002-1.812,1.002
			c-0.776,0-1.379-0.334-1.807-1.002S384.521,5.916,384.521,4.668z M388.41,4.668c0-0.408-0.023-0.794-0.072-1.158
			c-0.048-0.364-0.128-0.682-0.24-0.954c-0.111-0.271-0.26-0.488-0.443-0.648c-0.184-0.159-0.412-0.239-0.684-0.239
			c-0.272,0-0.5,0.08-0.685,0.239c-0.185,0.16-0.332,0.377-0.444,0.648c-0.111,0.272-0.191,0.59-0.24,0.954
			c-0.047,0.364-0.071,0.75-0.071,1.158s0.024,0.794,0.071,1.158c0.049,0.363,0.129,0.682,0.24,0.953
			c0.112,0.272,0.26,0.488,0.444,0.648s0.412,0.24,0.685,0.24c0.271,0,0.5-0.08,0.684-0.24s0.332-0.376,0.443-0.648
			c0.112-0.271,0.192-0.59,0.24-0.953C388.387,5.462,388.41,5.076,388.41,4.668z M387.666,4.536c0,0.208-0.062,0.388-0.186,0.54
			c-0.125,0.151-0.287,0.228-0.486,0.228c-0.208,0-0.376-0.076-0.504-0.228c-0.128-0.152-0.191-0.332-0.191-0.54
			s0.063-0.393,0.191-0.553c0.128-0.159,0.296-0.239,0.504-0.239c0.199,0,0.361,0.08,0.486,0.239
			C387.604,4.144,387.666,4.328,387.666,4.536z"/>
		<path d="M390.186,2.664c0-0.608,0.117-1.07,0.349-1.387c0.231-0.315,0.552-0.474,0.96-0.474s0.729,0.158,0.96,0.474
			c0.231,0.316,0.349,0.778,0.349,1.387c0,0.607-0.117,1.071-0.349,1.392s-0.552,0.48-0.96,0.48s-0.729-0.16-0.96-0.48
			S390.186,3.271,390.186,2.664z M391.11,8.388h-0.841l4.549-7.428h0.84L391.11,8.388z M392.059,2.664
			c0-0.36-0.049-0.656-0.145-0.889c-0.096-0.231-0.236-0.348-0.42-0.348s-0.326,0.116-0.426,0.348c-0.1,0.232-0.15,0.528-0.15,0.889
			c0,0.359,0.051,0.655,0.15,0.888s0.242,0.348,0.426,0.348s0.324-0.115,0.42-0.348S392.059,3.023,392.059,2.664z M393.15,6.684
			c0-0.607,0.113-1.069,0.342-1.386s0.546-0.475,0.954-0.475c0.407,0,0.728,0.158,0.96,0.475s0.348,0.778,0.348,1.386
			c0,0.608-0.115,1.07-0.348,1.386c-0.232,0.316-0.553,0.475-0.96,0.475c-0.408,0-0.726-0.158-0.954-0.475
			C393.264,7.754,393.15,7.292,393.15,6.684z M395.021,6.684c0-0.36-0.049-0.656-0.149-0.888c-0.101-0.232-0.241-0.349-0.426-0.349
			s-0.324,0.116-0.42,0.349c-0.097,0.231-0.144,0.527-0.144,0.888s0.047,0.656,0.144,0.888c0.096,0.232,0.235,0.349,0.42,0.349
			s0.325-0.116,0.426-0.349C394.973,7.34,395.021,7.044,395.021,6.684z"/>
	</g>
</g>
<g>
	<g>
		<path fill="#909090" d="M416.818,8.388l-0.444-1.944h-2.856l-0.432,1.944h-1.008c0.137-0.528,0.288-1.1,0.456-1.716
			s0.351-1.248,0.546-1.896c0.196-0.647,0.402-1.298,0.618-1.949c0.216-0.652,0.444-1.274,0.685-1.866h1.224
			c0.231,0.592,0.454,1.214,0.665,1.866c0.213,0.651,0.412,1.302,0.601,1.949c0.188,0.648,0.366,1.28,0.534,1.896
			s0.32,1.188,0.456,1.716H416.818z M414.958,1.823c-0.185,0.505-0.384,1.089-0.6,1.753s-0.421,1.348-0.612,2.052h2.4
			c-0.185-0.721-0.383-1.414-0.594-2.082C415.34,2.878,415.143,2.304,414.958,1.823z"/>
		<path fill="#909090" d="M420.887,2.819h2.352v0.828h-2.352v2.592c0,0.28,0.02,0.509,0.06,0.685s0.106,0.317,0.198,0.426
			s0.209,0.183,0.354,0.222c0.145,0.041,0.32,0.061,0.528,0.061c0.288,0,0.521-0.024,0.696-0.072s0.344-0.111,0.504-0.191
			l0.144,0.84c-0.112,0.048-0.29,0.111-0.534,0.191s-0.546,0.12-0.906,0.12c-0.416,0-0.756-0.048-1.02-0.144
			c-0.264-0.097-0.471-0.24-0.618-0.433c-0.147-0.191-0.25-0.43-0.306-0.714c-0.057-0.283-0.084-0.613-0.084-0.99V3.647h-1.176
			V2.819h1.176V1.26l0.984-0.168V2.819z"/>
		<path fill="#909090" d="M427.078,2.688c0.752,0,1.332,0.234,1.74,0.702s0.611,1.178,0.611,2.13v0.349h-3.983
			c0.04,0.575,0.229,1.014,0.569,1.313s0.818,0.45,1.435,0.45c0.353,0,0.651-0.028,0.899-0.084s0.437-0.116,0.564-0.18l0.133,0.84
			c-0.121,0.063-0.336,0.132-0.648,0.204c-0.312,0.071-0.664,0.107-1.057,0.107c-0.479,0-0.902-0.074-1.266-0.222
			c-0.364-0.148-0.666-0.35-0.906-0.606c-0.24-0.256-0.42-0.562-0.539-0.918c-0.121-0.355-0.181-0.741-0.181-1.158
			c0-0.495,0.076-0.928,0.228-1.296c0.152-0.367,0.353-0.672,0.601-0.912c0.247-0.239,0.528-0.42,0.84-0.539
			C426.43,2.748,426.75,2.688,427.078,2.688z M428.422,5.063c0-0.472-0.124-0.846-0.371-1.122c-0.248-0.275-0.576-0.414-0.984-0.414
			c-0.232,0-0.442,0.044-0.631,0.133c-0.188,0.088-0.35,0.203-0.485,0.348c-0.136,0.144-0.244,0.308-0.324,0.492
			c-0.079,0.184-0.132,0.372-0.155,0.563H428.422z M428.242,0.708l-1.512,1.464l-0.504-0.444l1.367-1.656L428.242,0.708z"/>
		<path fill="#909090" d="M436.87,2.496c0.408-0.16,0.804-0.362,1.188-0.606c0.384-0.244,0.739-0.554,1.067-0.93h0.696v6.588h1.404
			v0.84h-3.996v-0.84h1.607V2.34c-0.088,0.08-0.193,0.162-0.318,0.246c-0.123,0.084-0.26,0.166-0.407,0.246
			c-0.148,0.08-0.302,0.155-0.462,0.228s-0.316,0.132-0.469,0.18L436.87,2.496z"/>
		<path fill="#909090" d="M443.818,10.368h-1.02L446.146,0h0.996L443.818,10.368z"/>
		<path fill="#909090" d="M448.402,5.819c0.136-0.319,0.322-0.688,0.559-1.104c0.235-0.416,0.501-0.846,0.797-1.29
			c0.297-0.444,0.612-0.88,0.948-1.308c0.336-0.429,0.677-0.814,1.021-1.158h0.959v4.716h0.877v0.815h-0.877v1.896h-0.959V6.491
			h-3.324V5.819z M451.727,2.136c-0.217,0.232-0.435,0.488-0.654,0.768c-0.221,0.28-0.434,0.574-0.643,0.883
			c-0.207,0.308-0.401,0.622-0.582,0.941c-0.18,0.32-0.342,0.636-0.485,0.948h2.364V2.136z"/>
		<path fill="#909090" d="M464.122,0.239l0.996-0.168v8.16c-0.216,0.064-0.492,0.128-0.828,0.192
			c-0.336,0.063-0.728,0.096-1.176,0.096c-0.4,0-0.765-0.068-1.093-0.204s-0.607-0.33-0.84-0.582
			c-0.231-0.252-0.412-0.558-0.539-0.918c-0.129-0.359-0.192-0.764-0.192-1.212c0-0.432,0.054-0.826,0.162-1.182
			c0.108-0.356,0.266-0.662,0.474-0.918s0.458-0.456,0.75-0.601c0.292-0.144,0.626-0.216,1.002-0.216
			c0.297,0,0.557,0.036,0.78,0.108s0.392,0.147,0.504,0.228V0.239z M464.122,3.996c-0.112-0.104-0.276-0.202-0.491-0.294
			c-0.217-0.093-0.441-0.139-0.673-0.139c-0.264,0-0.489,0.053-0.678,0.156c-0.188,0.104-0.343,0.246-0.462,0.426
			c-0.12,0.181-0.209,0.396-0.264,0.648c-0.057,0.252-0.084,0.521-0.084,0.81c0,0.648,0.151,1.148,0.455,1.5
			c0.305,0.353,0.7,0.528,1.188,0.528c0.248,0,0.458-0.012,0.63-0.036s0.298-0.048,0.378-0.072V3.996z"/>
		<path fill="#909090" d="M471.49,5.604c0,0.44-0.062,0.838-0.186,1.194c-0.125,0.355-0.299,0.662-0.522,0.918
			s-0.492,0.454-0.804,0.594c-0.312,0.14-0.652,0.21-1.021,0.21c-0.36,0-0.694-0.07-1.002-0.21s-0.573-0.338-0.798-0.594
			s-0.398-0.562-0.521-0.918c-0.125-0.356-0.187-0.754-0.187-1.194c0-0.439,0.062-0.84,0.187-1.2
			c0.123-0.359,0.297-0.666,0.521-0.918s0.49-0.447,0.798-0.588c0.308-0.14,0.642-0.21,1.002-0.21c0.368,0,0.708,0.07,1.021,0.21
			c0.312,0.141,0.58,0.336,0.804,0.588s0.397,0.559,0.522,0.918C471.428,4.764,471.49,5.164,471.49,5.604z M470.471,5.604
			c0-0.632-0.137-1.13-0.408-1.494c-0.272-0.363-0.641-0.546-1.104-0.546c-0.456,0-0.817,0.183-1.086,0.546
			c-0.269,0.364-0.401,0.862-0.401,1.494c0,0.624,0.133,1.118,0.401,1.482s0.63,0.546,1.086,0.546c0.464,0,0.832-0.182,1.104-0.546
			C470.334,6.722,470.471,6.228,470.471,5.604z"/>
		<path fill="#909090" d="M480.778,7.691c0.504,0,0.888-0.096,1.151-0.288c0.265-0.191,0.396-0.479,0.396-0.863
			c0-0.232-0.048-0.431-0.145-0.595c-0.096-0.163-0.224-0.308-0.383-0.432c-0.16-0.124-0.341-0.231-0.541-0.324
			c-0.199-0.092-0.404-0.178-0.611-0.258c-0.24-0.096-0.471-0.204-0.69-0.324s-0.416-0.26-0.588-0.42s-0.308-0.348-0.407-0.563
			c-0.102-0.217-0.15-0.473-0.15-0.769c0-0.647,0.203-1.153,0.611-1.518s0.977-0.546,1.704-0.546c0.2,0,0.397,0.014,0.595,0.042
			c0.195,0.028,0.377,0.062,0.545,0.102s0.318,0.088,0.451,0.145c0.131,0.056,0.237,0.111,0.317,0.168l-0.312,0.828
			c-0.16-0.097-0.381-0.192-0.66-0.288c-0.28-0.097-0.592-0.145-0.937-0.145c-0.36,0-0.672,0.09-0.936,0.271
			c-0.265,0.18-0.396,0.449-0.396,0.81c0,0.208,0.037,0.384,0.113,0.528c0.076,0.144,0.18,0.27,0.312,0.378
			c0.131,0.107,0.285,0.206,0.461,0.294s0.369,0.176,0.576,0.264c0.305,0.128,0.582,0.256,0.834,0.384
			c0.252,0.129,0.469,0.28,0.648,0.456c0.18,0.177,0.32,0.385,0.42,0.624c0.1,0.24,0.15,0.532,0.15,0.876
			c0,0.648-0.219,1.146-0.654,1.494c-0.436,0.349-1.062,0.522-1.878,0.522c-0.265,0-0.513-0.019-0.744-0.055
			c-0.231-0.035-0.438-0.082-0.618-0.138s-0.338-0.111-0.474-0.168c-0.136-0.056-0.24-0.107-0.312-0.156l0.299-0.815
			c0.16,0.088,0.396,0.189,0.709,0.306C479.95,7.634,480.33,7.691,480.778,7.691z"/>
		<path fill="#909090" d="M487.858,7.62c0,0.239-0.08,0.451-0.24,0.636c-0.16,0.184-0.372,0.275-0.636,0.275
			c-0.272,0-0.488-0.092-0.648-0.275c-0.16-0.185-0.24-0.396-0.24-0.636c0-0.248,0.08-0.464,0.24-0.648
			c0.16-0.184,0.376-0.276,0.648-0.276c0.264,0,0.476,0.093,0.636,0.276C487.778,7.156,487.858,7.372,487.858,7.62z"/>
		<path fill="#909090" d="M492.982,4.655l1.152-3.695h0.924c0.16,1.168,0.273,2.363,0.342,3.588c0.068,1.224,0.13,2.504,0.186,3.84
			h-0.96c-0.008-0.432-0.017-0.9-0.024-1.404s-0.018-1.023-0.029-1.56s-0.023-1.08-0.036-1.632
			c-0.012-0.553-0.026-1.088-0.042-1.608l-1.08,3.384h-0.863l-1.104-3.384c-0.009,0.521-0.019,1.055-0.03,1.603
			s-0.023,1.092-0.035,1.632c-0.013,0.54-0.024,1.062-0.037,1.565c-0.012,0.504-0.021,0.973-0.029,1.404h-0.961
			c0.025-0.607,0.053-1.231,0.084-1.872c0.033-0.64,0.07-1.275,0.115-1.908c0.043-0.632,0.096-1.256,0.155-1.872
			c0.06-0.615,0.126-1.208,0.198-1.775h0.912L492.982,4.655z"/>
		<path fill="#909090" d="M499.858,7.62c0,0.239-0.08,0.451-0.24,0.636c-0.16,0.184-0.372,0.275-0.636,0.275
			c-0.272,0-0.488-0.092-0.648-0.275c-0.16-0.185-0.24-0.396-0.24-0.636c0-0.248,0.08-0.464,0.24-0.648
			c0.16-0.184,0.376-0.276,0.648-0.276c0.264,0,0.476,0.093,0.636,0.276C499.778,7.156,499.858,7.372,499.858,7.62z"/>
	</g>
</g>
<g>
	<g>
		<path d="M372.87,16.796c0.408-0.16,0.804-0.362,1.188-0.606c0.384-0.244,0.739-0.554,1.067-0.93h0.696v6.588h1.404v0.84h-3.996
			v-0.84h1.607V16.64c-0.088,0.08-0.193,0.162-0.318,0.246c-0.123,0.084-0.26,0.166-0.407,0.246
			c-0.148,0.08-0.302,0.155-0.462,0.228s-0.316,0.132-0.469,0.18L372.87,16.796z"/>
		<path d="M378.521,18.968c0-1.248,0.215-2.206,0.643-2.874s1.03-1.002,1.807-1.002c0.783,0,1.387,0.334,1.812,1.002
			c0.424,0.668,0.636,1.626,0.636,2.874s-0.212,2.206-0.636,2.874c-0.425,0.668-1.028,1.002-1.812,1.002
			c-0.776,0-1.379-0.334-1.807-1.002S378.521,20.216,378.521,18.968z M382.41,18.968c0-0.408-0.023-0.794-0.072-1.158
			c-0.048-0.364-0.128-0.682-0.24-0.954c-0.111-0.271-0.26-0.488-0.443-0.648c-0.184-0.159-0.412-0.239-0.684-0.239
			c-0.272,0-0.5,0.08-0.685,0.239c-0.185,0.16-0.332,0.377-0.444,0.648c-0.111,0.272-0.191,0.59-0.24,0.954
			c-0.047,0.364-0.071,0.75-0.071,1.158s0.024,0.794,0.071,1.158c0.049,0.363,0.129,0.682,0.24,0.953
			c0.112,0.272,0.26,0.488,0.444,0.648s0.412,0.24,0.685,0.24c0.271,0,0.5-0.08,0.684-0.24s0.332-0.376,0.443-0.648
			c0.112-0.271,0.192-0.59,0.24-0.953C382.387,19.762,382.41,19.376,382.41,18.968z M381.666,18.836c0,0.208-0.062,0.388-0.186,0.54
			c-0.125,0.151-0.287,0.228-0.486,0.228c-0.208,0-0.376-0.076-0.504-0.228c-0.128-0.152-0.191-0.332-0.191-0.54
			s0.063-0.393,0.191-0.553c0.128-0.159,0.296-0.239,0.504-0.239c0.199,0,0.361,0.08,0.486,0.239
			C381.604,18.443,381.666,18.628,381.666,18.836z"/>
		<path d="M387.858,21.92c0,0.239-0.08,0.451-0.24,0.636c-0.16,0.184-0.372,0.275-0.636,0.275c-0.272,0-0.488-0.092-0.648-0.275
			c-0.16-0.185-0.24-0.396-0.24-0.636c0-0.248,0.08-0.464,0.24-0.648c0.16-0.184,0.376-0.276,0.648-0.276
			c0.264,0,0.476,0.093,0.636,0.276C387.778,21.456,387.858,21.672,387.858,21.92z"/>
		<path d="M392.514,21.968c0.633,0,1.082-0.126,1.351-0.378s0.401-0.59,0.401-1.015c0-0.271-0.056-0.5-0.168-0.684
			c-0.111-0.184-0.26-0.332-0.443-0.444c-0.184-0.111-0.396-0.191-0.637-0.24c-0.239-0.048-0.491-0.071-0.756-0.071h-0.252v-0.805
			h0.349c0.176,0,0.358-0.018,0.546-0.054s0.359-0.1,0.516-0.191c0.156-0.093,0.282-0.219,0.379-0.379
			c0.096-0.159,0.144-0.363,0.144-0.611c0-0.408-0.126-0.698-0.378-0.87s-0.547-0.258-0.883-0.258c-0.344,0-0.635,0.05-0.875,0.149
			c-0.24,0.101-0.44,0.202-0.601,0.307l-0.384-0.756c0.168-0.12,0.422-0.246,0.762-0.379c0.34-0.132,0.719-0.197,1.135-0.197
			c0.391,0,0.728,0.048,1.008,0.144c0.279,0.096,0.51,0.232,0.689,0.408s0.314,0.382,0.402,0.618s0.132,0.494,0.132,0.773
			c0,0.393-0.103,0.725-0.306,0.996c-0.204,0.272-0.467,0.48-0.786,0.624c0.384,0.112,0.716,0.33,0.995,0.654
			c0.281,0.324,0.421,0.754,0.421,1.29c0,0.32-0.054,0.618-0.162,0.894c-0.108,0.276-0.272,0.515-0.492,0.714
			c-0.22,0.2-0.504,0.356-0.853,0.469c-0.348,0.111-0.762,0.168-1.241,0.168c-0.185,0-0.374-0.015-0.57-0.042
			c-0.196-0.028-0.378-0.064-0.546-0.108s-0.318-0.088-0.449-0.132c-0.133-0.044-0.227-0.078-0.283-0.102l0.192-0.853
			c0.128,0.064,0.332,0.141,0.612,0.229C391.762,21.924,392.106,21.968,392.514,21.968z"/>
		<path d="M396.186,16.964c0-0.608,0.117-1.07,0.349-1.387c0.231-0.315,0.552-0.474,0.96-0.474s0.729,0.158,0.96,0.474
			c0.231,0.316,0.349,0.778,0.349,1.387c0,0.607-0.117,1.071-0.349,1.392s-0.552,0.48-0.96,0.48s-0.729-0.16-0.96-0.48
			S396.186,17.571,396.186,16.964z M397.11,22.688h-0.841l4.549-7.428h0.84L397.11,22.688z M398.059,16.964
			c0-0.36-0.049-0.656-0.145-0.889c-0.096-0.231-0.236-0.348-0.42-0.348s-0.326,0.116-0.426,0.348c-0.1,0.232-0.15,0.528-0.15,0.889
			c0,0.359,0.051,0.655,0.15,0.888s0.242,0.348,0.426,0.348s0.324-0.115,0.42-0.348S398.059,17.323,398.059,16.964z M399.15,20.983
			c0-0.607,0.113-1.069,0.342-1.386s0.546-0.475,0.954-0.475c0.407,0,0.728,0.158,0.96,0.475s0.348,0.778,0.348,1.386
			c0,0.608-0.115,1.07-0.348,1.386c-0.232,0.316-0.553,0.475-0.96,0.475c-0.408,0-0.726-0.158-0.954-0.475
			C399.264,22.054,399.15,21.592,399.15,20.983z M401.021,20.983c0-0.36-0.049-0.656-0.149-0.888
			c-0.101-0.232-0.241-0.349-0.426-0.349s-0.324,0.116-0.42,0.349c-0.097,0.231-0.144,0.527-0.144,0.888s0.047,0.656,0.144,0.888
			c0.096,0.232,0.235,0.349,0.42,0.349s0.325-0.116,0.426-0.349C400.973,21.64,401.021,21.344,401.021,20.983z"/>
	</g>
</g>
<g>
	<g>
		<path fill="#909090" d="M412.87,16.796c0.408-0.16,0.804-0.362,1.188-0.606c0.384-0.244,0.739-0.554,1.067-0.93h0.696v6.588h1.404
			v0.84h-3.996v-0.84h1.607V16.64c-0.088,0.08-0.193,0.162-0.318,0.246c-0.123,0.084-0.26,0.166-0.407,0.246
			c-0.148,0.08-0.302,0.155-0.462,0.228s-0.316,0.132-0.469,0.18L412.87,16.796z"/>
		<path fill="#909090" d="M419.818,24.668h-1.02l3.348-10.368h0.996L419.818,24.668z"/>
		<path fill="#909090" d="M424.402,20.119c0.136-0.319,0.322-0.688,0.559-1.104c0.235-0.416,0.501-0.846,0.797-1.29
			c0.297-0.444,0.612-0.88,0.948-1.308c0.336-0.429,0.677-0.814,1.021-1.158h0.959v4.716h0.877v0.815h-0.877v1.896h-0.959v-1.896
			h-3.324V20.119z M427.727,16.436c-0.217,0.232-0.435,0.488-0.654,0.768c-0.221,0.28-0.434,0.574-0.643,0.883
			c-0.207,0.308-0.401,0.622-0.582,0.941c-0.18,0.32-0.342,0.636-0.485,0.948h2.364V16.436z"/>
		<path fill="#909090" d="M438.934,16.987c0.416,0,0.767,0.053,1.051,0.156c0.283,0.104,0.514,0.248,0.689,0.432
			c0.176,0.185,0.301,0.408,0.373,0.672c0.071,0.265,0.107,0.553,0.107,0.864v3.48c-0.232,0.04-0.538,0.088-0.918,0.144
			c-0.381,0.056-0.77,0.084-1.17,0.084c-0.305,0-0.6-0.026-0.889-0.078c-0.287-0.052-0.543-0.144-0.768-0.275
			s-0.404-0.314-0.54-0.546c-0.136-0.232-0.204-0.528-0.204-0.889c0-0.319,0.07-0.59,0.21-0.81s0.32-0.398,0.54-0.534
			c0.221-0.136,0.473-0.234,0.756-0.294c0.284-0.06,0.57-0.09,0.858-0.09c0.392,0,0.776,0.044,1.151,0.132v-0.276
			c0-0.168-0.018-0.33-0.053-0.485c-0.037-0.156-0.105-0.298-0.205-0.427c-0.1-0.128-0.236-0.229-0.408-0.306
			s-0.394-0.114-0.666-0.114c-0.344,0-0.644,0.024-0.899,0.072c-0.257,0.048-0.452,0.096-0.588,0.145l-0.12-0.816
			c0.136-0.064,0.361-0.12,0.678-0.168S438.574,16.987,438.934,16.987z M439.03,21.979c0.248,0,0.47-0.008,0.666-0.024
			c0.196-0.016,0.358-0.035,0.485-0.06v-1.656c-0.127-0.04-0.281-0.071-0.461-0.096c-0.181-0.024-0.371-0.036-0.57-0.036
			c-0.184,0-0.364,0.014-0.54,0.042c-0.177,0.028-0.332,0.078-0.468,0.15c-0.137,0.071-0.248,0.166-0.336,0.281
			c-0.088,0.116-0.133,0.263-0.133,0.438c0,0.36,0.122,0.61,0.366,0.75S438.614,21.979,439.03,21.979z"/>
		<path fill="#909090" d="M448.87,16.796c0.408-0.16,0.804-0.362,1.188-0.606c0.384-0.244,0.739-0.554,1.067-0.93h0.696v6.588h1.404
			v0.84h-3.996v-0.84h1.607V16.64c-0.088,0.08-0.193,0.162-0.318,0.246c-0.123,0.084-0.26,0.166-0.407,0.246
			c-0.148,0.08-0.302,0.155-0.462,0.228s-0.316,0.132-0.469,0.18L448.87,16.796z"/>
		<path fill="#909090" d="M455.818,24.668h-1.02l3.348-10.368h0.996L455.818,24.668z"/>
		<path fill="#909090" d="M465.01,17.155c0,0.257-0.05,0.504-0.149,0.744c-0.101,0.24-0.232,0.477-0.396,0.708
			c-0.164,0.232-0.351,0.46-0.559,0.684c-0.208,0.225-0.42,0.444-0.637,0.66c-0.119,0.12-0.26,0.265-0.42,0.433
			s-0.312,0.34-0.455,0.516c-0.145,0.176-0.264,0.348-0.36,0.516c-0.097,0.169-0.144,0.312-0.144,0.433h3.42v0.84h-4.5
			c-0.008-0.04-0.012-0.082-0.012-0.126s0-0.086,0-0.126c0-0.336,0.055-0.648,0.168-0.937c0.111-0.287,0.256-0.56,0.432-0.815
			s0.373-0.498,0.594-0.727c0.22-0.228,0.438-0.449,0.654-0.666c0.176-0.176,0.346-0.348,0.51-0.516s0.308-0.336,0.432-0.504
			s0.225-0.342,0.301-0.522c0.076-0.18,0.113-0.365,0.113-0.558c0-0.216-0.033-0.399-0.102-0.552s-0.16-0.278-0.276-0.378
			c-0.116-0.101-0.25-0.174-0.401-0.223c-0.152-0.048-0.316-0.071-0.492-0.071c-0.209,0-0.398,0.028-0.57,0.084
			s-0.324,0.124-0.456,0.204s-0.246,0.157-0.342,0.233c-0.097,0.076-0.168,0.139-0.216,0.187l-0.492-0.696
			c0.064-0.072,0.16-0.16,0.288-0.264c0.128-0.104,0.282-0.202,0.462-0.294s0.382-0.17,0.605-0.234
			c0.225-0.063,0.465-0.096,0.721-0.096c0.775,0,1.35,0.178,1.722,0.534C464.824,15.981,465.01,16.491,465.01,17.155z"/>
		<path fill="#909090" d="M476.122,14.539l0.996-0.168v8.16c-0.216,0.064-0.492,0.128-0.828,0.192
			c-0.336,0.063-0.728,0.096-1.176,0.096c-0.4,0-0.765-0.068-1.093-0.204s-0.607-0.33-0.84-0.582
			c-0.231-0.252-0.412-0.558-0.539-0.918c-0.129-0.359-0.192-0.764-0.192-1.212c0-0.432,0.054-0.826,0.162-1.182
			c0.108-0.356,0.266-0.662,0.474-0.918s0.458-0.456,0.75-0.601c0.292-0.144,0.626-0.216,1.002-0.216
			c0.297,0,0.557,0.036,0.78,0.108s0.392,0.147,0.504,0.228V14.539z M476.122,18.296c-0.112-0.104-0.276-0.202-0.491-0.294
			c-0.217-0.093-0.441-0.139-0.673-0.139c-0.264,0-0.489,0.053-0.678,0.156c-0.188,0.104-0.343,0.246-0.462,0.426
			c-0.12,0.181-0.209,0.396-0.264,0.648c-0.057,0.252-0.084,0.521-0.084,0.81c0,0.648,0.151,1.148,0.455,1.5
			c0.305,0.353,0.7,0.528,1.188,0.528c0.248,0,0.458-0.012,0.63-0.036s0.298-0.048,0.378-0.072V18.296z"/>
		<path fill="#909090" d="M483.49,19.903c0,0.44-0.062,0.838-0.186,1.194c-0.125,0.355-0.299,0.662-0.522,0.918
			s-0.492,0.454-0.804,0.594c-0.312,0.14-0.652,0.21-1.021,0.21c-0.36,0-0.694-0.07-1.002-0.21s-0.573-0.338-0.798-0.594
			s-0.398-0.562-0.521-0.918c-0.125-0.356-0.187-0.754-0.187-1.194c0-0.439,0.062-0.84,0.187-1.2
			c0.123-0.359,0.297-0.666,0.521-0.918s0.49-0.447,0.798-0.588c0.308-0.14,0.642-0.21,1.002-0.21c0.368,0,0.708,0.07,1.021,0.21
			c0.312,0.141,0.58,0.336,0.804,0.588s0.397,0.559,0.522,0.918C483.428,19.063,483.49,19.464,483.49,19.903z M482.471,19.903
			c0-0.632-0.137-1.13-0.408-1.494c-0.272-0.363-0.641-0.546-1.104-0.546c-0.456,0-0.817,0.183-1.086,0.546
			c-0.269,0.364-0.401,0.862-0.401,1.494c0,0.624,0.133,1.118,0.401,1.482s0.63,0.546,1.086,0.546c0.464,0,0.832-0.182,1.104-0.546
			C482.334,21.021,482.471,20.527,482.471,19.903z"/>
		<path fill="#909090" d="M492.778,21.991c0.504,0,0.888-0.096,1.151-0.288c0.265-0.191,0.396-0.479,0.396-0.863
			c0-0.232-0.048-0.431-0.145-0.595c-0.096-0.163-0.224-0.308-0.383-0.432c-0.16-0.124-0.341-0.231-0.541-0.324
			c-0.199-0.092-0.404-0.178-0.611-0.258c-0.24-0.096-0.471-0.204-0.69-0.324s-0.416-0.26-0.588-0.42s-0.308-0.348-0.407-0.563
			c-0.102-0.217-0.15-0.473-0.15-0.769c0-0.647,0.203-1.153,0.611-1.518s0.977-0.546,1.704-0.546c0.2,0,0.397,0.014,0.595,0.042
			c0.195,0.028,0.377,0.062,0.545,0.102s0.318,0.088,0.451,0.145c0.131,0.056,0.237,0.111,0.317,0.168l-0.312,0.828
			c-0.16-0.097-0.381-0.192-0.66-0.288c-0.28-0.097-0.592-0.145-0.937-0.145c-0.36,0-0.672,0.09-0.936,0.271
			c-0.265,0.18-0.396,0.449-0.396,0.81c0,0.208,0.037,0.384,0.113,0.528c0.076,0.144,0.18,0.27,0.312,0.378
			c0.131,0.107,0.285,0.206,0.461,0.294s0.369,0.176,0.576,0.264c0.305,0.128,0.582,0.256,0.834,0.384
			c0.252,0.129,0.469,0.28,0.648,0.456c0.18,0.177,0.32,0.385,0.42,0.624c0.1,0.24,0.15,0.532,0.15,0.876
			c0,0.648-0.219,1.146-0.654,1.494c-0.436,0.349-1.062,0.522-1.878,0.522c-0.265,0-0.513-0.019-0.744-0.055
			c-0.231-0.035-0.438-0.082-0.618-0.138s-0.338-0.111-0.474-0.168c-0.136-0.056-0.24-0.107-0.312-0.156l0.299-0.815
			c0.16,0.088,0.396,0.189,0.709,0.306C491.95,21.934,492.33,21.991,492.778,21.991z"/>
		<path fill="#909090" d="M499.858,21.92c0,0.239-0.08,0.451-0.24,0.636c-0.16,0.184-0.372,0.275-0.636,0.275
			c-0.272,0-0.488-0.092-0.648-0.275c-0.16-0.185-0.24-0.396-0.24-0.636c0-0.248,0.08-0.464,0.24-0.648
			c0.16-0.184,0.376-0.276,0.648-0.276c0.264,0,0.476,0.093,0.636,0.276C499.778,21.456,499.858,21.672,499.858,21.92z"/>
		<path fill="#909090" d="M504.982,18.955l1.152-3.695h0.924c0.16,1.168,0.273,2.363,0.342,3.588c0.068,1.224,0.13,2.504,0.186,3.84
			h-0.96c-0.008-0.432-0.017-0.9-0.024-1.404s-0.018-1.023-0.029-1.56s-0.023-1.08-0.036-1.632
			c-0.012-0.553-0.026-1.088-0.042-1.608l-1.08,3.384h-0.863l-1.104-3.384c-0.009,0.521-0.019,1.055-0.03,1.603
			s-0.023,1.092-0.035,1.632c-0.013,0.54-0.024,1.062-0.037,1.565c-0.012,0.504-0.021,0.973-0.029,1.404h-0.961
			c0.025-0.607,0.053-1.231,0.084-1.872c0.033-0.64,0.07-1.275,0.115-1.908c0.043-0.632,0.096-1.256,0.155-1.872
			c0.06-0.615,0.126-1.208,0.198-1.775h0.912L504.982,18.955z"/>
		<path fill="#909090" d="M511.858,21.92c0,0.239-0.08,0.451-0.24,0.636c-0.16,0.184-0.372,0.275-0.636,0.275
			c-0.272,0-0.488-0.092-0.648-0.275c-0.16-0.185-0.24-0.396-0.24-0.636c0-0.248,0.08-0.464,0.24-0.648
			c0.16-0.184,0.376-0.276,0.648-0.276c0.264,0,0.476,0.093,0.636,0.276C511.778,21.456,511.858,21.672,511.858,21.92z"/>
	</g>
</g>
<g>
	<g>
		<path d="M377.01,51.155c0,0.257-0.05,0.504-0.149,0.744c-0.101,0.24-0.232,0.477-0.396,0.708c-0.164,0.232-0.351,0.46-0.559,0.684
			c-0.208,0.225-0.42,0.444-0.637,0.66c-0.119,0.12-0.26,0.265-0.42,0.433s-0.312,0.34-0.455,0.516
			c-0.145,0.176-0.264,0.348-0.36,0.516c-0.097,0.169-0.144,0.312-0.144,0.433h3.42v0.84h-4.5c-0.008-0.04-0.012-0.082-0.012-0.126
			s0-0.086,0-0.126c0-0.336,0.055-0.648,0.168-0.937c0.111-0.287,0.256-0.56,0.432-0.815s0.373-0.498,0.594-0.727
			c0.22-0.228,0.438-0.449,0.654-0.666c0.176-0.176,0.346-0.348,0.51-0.516s0.308-0.336,0.432-0.504s0.225-0.342,0.301-0.522
			c0.076-0.18,0.113-0.365,0.113-0.558c0-0.216-0.033-0.399-0.102-0.552s-0.16-0.278-0.276-0.378
			c-0.116-0.101-0.25-0.174-0.401-0.223c-0.152-0.048-0.316-0.071-0.492-0.071c-0.209,0-0.398,0.028-0.57,0.084
			s-0.324,0.124-0.456,0.204s-0.246,0.157-0.342,0.233c-0.097,0.076-0.168,0.139-0.216,0.187l-0.492-0.696
			c0.064-0.072,0.16-0.16,0.288-0.264c0.128-0.104,0.282-0.202,0.462-0.294s0.382-0.17,0.605-0.234
			c0.225-0.063,0.465-0.096,0.721-0.096c0.775,0,1.35,0.178,1.722,0.534C376.824,49.981,377.01,50.491,377.01,51.155z"/>
		<path d="M380.514,55.968c0.633,0,1.082-0.126,1.351-0.378s0.401-0.59,0.401-1.015c0-0.271-0.056-0.5-0.168-0.684
			c-0.111-0.184-0.26-0.332-0.443-0.444c-0.184-0.111-0.396-0.191-0.637-0.24c-0.239-0.048-0.491-0.071-0.756-0.071h-0.252v-0.805
			h0.349c0.176,0,0.358-0.018,0.546-0.054s0.359-0.1,0.516-0.191c0.156-0.093,0.282-0.219,0.379-0.379
			c0.096-0.159,0.144-0.363,0.144-0.611c0-0.408-0.126-0.698-0.378-0.87s-0.547-0.258-0.883-0.258c-0.344,0-0.635,0.05-0.875,0.149
			c-0.24,0.101-0.44,0.202-0.601,0.307l-0.384-0.756c0.168-0.12,0.422-0.246,0.762-0.379c0.34-0.132,0.719-0.197,1.135-0.197
			c0.391,0,0.728,0.048,1.008,0.144c0.279,0.096,0.51,0.232,0.689,0.408s0.314,0.382,0.402,0.618s0.132,0.494,0.132,0.773
			c0,0.393-0.103,0.725-0.306,0.996c-0.204,0.272-0.467,0.48-0.786,0.624c0.384,0.112,0.716,0.33,0.995,0.654
			c0.281,0.324,0.421,0.754,0.421,1.29c0,0.32-0.054,0.618-0.162,0.894c-0.108,0.276-0.272,0.515-0.492,0.714
			c-0.22,0.2-0.504,0.356-0.853,0.469c-0.348,0.111-0.762,0.168-1.241,0.168c-0.185,0-0.374-0.015-0.57-0.042
			c-0.196-0.028-0.378-0.064-0.546-0.108s-0.318-0.088-0.449-0.132c-0.133-0.044-0.227-0.078-0.283-0.102l0.192-0.853
			c0.128,0.064,0.332,0.141,0.612,0.229C379.762,55.924,380.106,55.968,380.514,55.968z"/>
		<path d="M387.858,55.92c0,0.239-0.08,0.451-0.24,0.636c-0.16,0.184-0.372,0.275-0.636,0.275c-0.272,0-0.488-0.092-0.648-0.275
			c-0.16-0.185-0.24-0.396-0.24-0.636c0-0.248,0.08-0.464,0.24-0.648c0.16-0.184,0.376-0.276,0.648-0.276
			c0.264,0,0.476,0.093,0.636,0.276C387.778,55.456,387.858,55.672,387.858,55.92z"/>
		<path d="M391.83,56.688c0.04-0.568,0.143-1.17,0.307-1.806c0.164-0.637,0.361-1.252,0.594-1.849
			c0.231-0.596,0.488-1.147,0.768-1.655c0.28-0.509,0.557-0.927,0.828-1.255h-3.6V49.26h4.703v0.828
			c-0.239,0.279-0.5,0.655-0.779,1.128c-0.28,0.472-0.547,1.002-0.799,1.59s-0.469,1.216-0.653,1.884s-0.3,1.334-0.349,1.998H391.83
			z"/>
		<path d="M396.186,50.964c0-0.608,0.117-1.07,0.349-1.387c0.231-0.315,0.552-0.474,0.96-0.474s0.729,0.158,0.96,0.474
			c0.231,0.316,0.349,0.778,0.349,1.387c0,0.607-0.117,1.071-0.349,1.392s-0.552,0.48-0.96,0.48s-0.729-0.16-0.96-0.48
			S396.186,51.571,396.186,50.964z M397.11,56.688h-0.841l4.549-7.428h0.84L397.11,56.688z M398.059,50.964
			c0-0.36-0.049-0.656-0.145-0.889c-0.096-0.231-0.236-0.348-0.42-0.348s-0.326,0.116-0.426,0.348c-0.1,0.232-0.15,0.528-0.15,0.889
			c0,0.359,0.051,0.655,0.15,0.888s0.242,0.348,0.426,0.348s0.324-0.115,0.42-0.348S398.059,51.323,398.059,50.964z M399.15,54.983
			c0-0.607,0.113-1.069,0.342-1.386s0.546-0.475,0.954-0.475c0.407,0,0.728,0.158,0.96,0.475s0.348,0.778,0.348,1.386
			c0,0.608-0.115,1.07-0.348,1.386c-0.232,0.316-0.553,0.475-0.96,0.475c-0.408,0-0.726-0.158-0.954-0.475
			C399.264,56.054,399.15,55.592,399.15,54.983z M401.021,54.983c0-0.36-0.049-0.656-0.149-0.888
			c-0.101-0.232-0.241-0.349-0.426-0.349s-0.324,0.116-0.42,0.349c-0.097,0.231-0.144,0.527-0.144,0.888s0.047,0.656,0.144,0.888
			c0.096,0.232,0.235,0.349,0.42,0.349s0.325-0.116,0.426-0.349C400.973,55.64,401.021,55.344,401.021,54.983z"/>
	</g>
</g>
<g>
	<g>
		<path fill="#909090" d="M412.87,50.796c0.408-0.16,0.804-0.362,1.188-0.606c0.384-0.244,0.739-0.554,1.067-0.93h0.696v6.588h1.404
			v0.84h-3.996v-0.84h1.607V50.64c-0.088,0.08-0.193,0.162-0.318,0.246c-0.123,0.084-0.26,0.166-0.407,0.246
			c-0.148,0.08-0.302,0.155-0.462,0.228s-0.316,0.132-0.469,0.18L412.87,50.796z"/>
		<path fill="#909090" d="M419.818,58.668h-1.02l3.348-10.368h0.996L419.818,58.668z"/>
		<path fill="#909090" d="M429.01,51.155c0,0.257-0.05,0.504-0.149,0.744c-0.101,0.24-0.232,0.477-0.396,0.708
			c-0.164,0.232-0.351,0.46-0.559,0.684c-0.208,0.225-0.42,0.444-0.637,0.66c-0.119,0.12-0.26,0.265-0.42,0.433
			s-0.312,0.34-0.455,0.516c-0.145,0.176-0.264,0.348-0.36,0.516c-0.097,0.169-0.144,0.312-0.144,0.433h3.42v0.84h-4.5
			c-0.008-0.04-0.012-0.082-0.012-0.126s0-0.086,0-0.126c0-0.336,0.055-0.648,0.168-0.937c0.111-0.287,0.256-0.56,0.432-0.815
			s0.373-0.498,0.594-0.727c0.22-0.228,0.438-0.449,0.654-0.666c0.176-0.176,0.346-0.348,0.51-0.516s0.308-0.336,0.432-0.504
			s0.225-0.342,0.301-0.522c0.076-0.18,0.113-0.365,0.113-0.558c0-0.216-0.033-0.399-0.102-0.552s-0.16-0.278-0.276-0.378
			c-0.116-0.101-0.25-0.174-0.401-0.223c-0.152-0.048-0.316-0.071-0.492-0.071c-0.209,0-0.398,0.028-0.57,0.084
			s-0.324,0.124-0.456,0.204s-0.246,0.157-0.342,0.233c-0.097,0.076-0.168,0.139-0.216,0.187l-0.492-0.696
			c0.064-0.072,0.16-0.16,0.288-0.264c0.128-0.104,0.282-0.202,0.462-0.294s0.382-0.17,0.605-0.234
			c0.225-0.063,0.465-0.096,0.721-0.096c0.775,0,1.35,0.178,1.722,0.534C428.824,49.981,429.01,50.491,429.01,51.155z"/>
		<path fill="#909090" d="M438.934,50.987c0.416,0,0.767,0.053,1.051,0.156c0.283,0.104,0.514,0.248,0.689,0.432
			c0.176,0.185,0.301,0.408,0.373,0.672c0.071,0.265,0.107,0.553,0.107,0.864v3.48c-0.232,0.04-0.538,0.088-0.918,0.144
			c-0.381,0.056-0.77,0.084-1.17,0.084c-0.305,0-0.6-0.026-0.889-0.078c-0.287-0.052-0.543-0.144-0.768-0.275
			s-0.404-0.314-0.54-0.546c-0.136-0.232-0.204-0.528-0.204-0.889c0-0.319,0.07-0.59,0.21-0.81s0.32-0.398,0.54-0.534
			c0.221-0.136,0.473-0.234,0.756-0.294c0.284-0.06,0.57-0.09,0.858-0.09c0.392,0,0.776,0.044,1.151,0.132v-0.276
			c0-0.168-0.018-0.33-0.053-0.485c-0.037-0.156-0.105-0.298-0.205-0.427c-0.1-0.128-0.236-0.229-0.408-0.306
			s-0.394-0.114-0.666-0.114c-0.344,0-0.644,0.024-0.899,0.072c-0.257,0.048-0.452,0.096-0.588,0.145l-0.12-0.816
			c0.136-0.064,0.361-0.12,0.678-0.168S438.574,50.987,438.934,50.987z M439.03,55.979c0.248,0,0.47-0.008,0.666-0.024
			c0.196-0.016,0.358-0.035,0.485-0.06v-1.656c-0.127-0.04-0.281-0.071-0.461-0.096c-0.181-0.024-0.371-0.036-0.57-0.036
			c-0.184,0-0.364,0.014-0.54,0.042c-0.177,0.028-0.332,0.078-0.468,0.15c-0.137,0.071-0.248,0.166-0.336,0.281
			c-0.088,0.116-0.133,0.263-0.133,0.438c0,0.36,0.122,0.61,0.366,0.75S438.614,55.979,439.03,55.979z"/>
		<path fill="#909090" d="M448.87,50.796c0.408-0.16,0.804-0.362,1.188-0.606c0.384-0.244,0.739-0.554,1.067-0.93h0.696v6.588h1.404
			v0.84h-3.996v-0.84h1.607V50.64c-0.088,0.08-0.193,0.162-0.318,0.246c-0.123,0.084-0.26,0.166-0.407,0.246
			c-0.148,0.08-0.302,0.155-0.462,0.228s-0.316,0.132-0.469,0.18L448.87,50.796z"/>
		<path fill="#909090" d="M462.778,55.991c0.504,0,0.888-0.096,1.151-0.288c0.265-0.191,0.396-0.479,0.396-0.863
			c0-0.232-0.048-0.431-0.145-0.595c-0.096-0.163-0.224-0.308-0.383-0.432c-0.16-0.124-0.341-0.231-0.541-0.324
			c-0.199-0.092-0.404-0.178-0.611-0.258c-0.24-0.096-0.471-0.204-0.69-0.324s-0.416-0.26-0.588-0.42s-0.308-0.348-0.407-0.563
			c-0.102-0.217-0.15-0.473-0.15-0.769c0-0.647,0.203-1.153,0.611-1.518s0.977-0.546,1.704-0.546c0.2,0,0.397,0.014,0.595,0.042
			c0.195,0.028,0.377,0.062,0.545,0.102s0.318,0.088,0.451,0.145c0.131,0.056,0.237,0.111,0.317,0.168l-0.312,0.828
			c-0.16-0.097-0.381-0.192-0.66-0.288c-0.28-0.097-0.592-0.145-0.937-0.145c-0.36,0-0.672,0.09-0.936,0.271
			c-0.265,0.18-0.396,0.449-0.396,0.81c0,0.208,0.037,0.384,0.113,0.528c0.076,0.144,0.18,0.27,0.312,0.378
			c0.131,0.107,0.285,0.206,0.461,0.294s0.369,0.176,0.576,0.264c0.305,0.128,0.582,0.256,0.834,0.384
			c0.252,0.129,0.469,0.28,0.648,0.456c0.18,0.177,0.32,0.385,0.42,0.624c0.1,0.24,0.15,0.532,0.15,0.876
			c0,0.648-0.219,1.146-0.654,1.494c-0.436,0.349-1.062,0.522-1.878,0.522c-0.265,0-0.513-0.019-0.744-0.055
			c-0.231-0.035-0.438-0.082-0.618-0.138s-0.338-0.111-0.474-0.168c-0.136-0.056-0.24-0.107-0.312-0.156l0.299-0.815
			c0.16,0.088,0.396,0.189,0.709,0.306C461.95,55.934,462.33,55.991,462.778,55.991z"/>
		<path fill="#909090" d="M469.858,55.92c0,0.239-0.08,0.451-0.24,0.636c-0.16,0.184-0.372,0.275-0.636,0.275
			c-0.272,0-0.488-0.092-0.648-0.275c-0.16-0.185-0.24-0.396-0.24-0.636c0-0.248,0.08-0.464,0.24-0.648
			c0.16-0.184,0.376-0.276,0.648-0.276c0.264,0,0.476,0.093,0.636,0.276C469.778,55.456,469.858,55.672,469.858,55.92z"/>
		<path fill="#909090" d="M474.982,52.955l1.152-3.695h0.924c0.16,1.168,0.273,2.363,0.342,3.588c0.068,1.224,0.13,2.504,0.186,3.84
			h-0.96c-0.008-0.432-0.017-0.9-0.024-1.404s-0.018-1.023-0.029-1.56s-0.023-1.08-0.036-1.632
			c-0.012-0.553-0.026-1.088-0.042-1.608l-1.08,3.384h-0.863l-1.104-3.384c-0.009,0.521-0.019,1.055-0.03,1.603
			s-0.023,1.092-0.035,1.632c-0.013,0.54-0.024,1.062-0.037,1.565c-0.012,0.504-0.021,0.973-0.029,1.404h-0.961
			c0.025-0.607,0.053-1.231,0.084-1.872c0.033-0.64,0.07-1.275,0.115-1.908c0.043-0.632,0.096-1.256,0.155-1.872
			c0.06-0.615,0.126-1.208,0.198-1.775h0.912L474.982,52.955z"/>
		<path fill="#909090" d="M481.858,55.92c0,0.239-0.08,0.451-0.24,0.636c-0.16,0.184-0.372,0.275-0.636,0.275
			c-0.272,0-0.488-0.092-0.648-0.275c-0.16-0.185-0.24-0.396-0.24-0.636c0-0.248,0.08-0.464,0.24-0.648
			c0.16-0.184,0.376-0.276,0.648-0.276c0.264,0,0.476,0.093,0.636,0.276C481.778,55.456,481.858,55.672,481.858,55.92z"/>
	</g>
</g>
<g>
	<g>
		<path d="M377.01,103.256c0,0.257-0.05,0.504-0.149,0.744c-0.101,0.24-0.232,0.477-0.396,0.708
			c-0.164,0.232-0.351,0.46-0.559,0.684c-0.208,0.225-0.42,0.444-0.637,0.66c-0.119,0.12-0.26,0.265-0.42,0.433
			s-0.312,0.34-0.455,0.516c-0.145,0.176-0.264,0.348-0.36,0.516c-0.097,0.169-0.144,0.312-0.144,0.433h3.42v0.84h-4.5
			c-0.008-0.04-0.012-0.082-0.012-0.126s0-0.086,0-0.126c0-0.336,0.055-0.648,0.168-0.937c0.111-0.287,0.256-0.56,0.432-0.815
			s0.373-0.498,0.594-0.727c0.22-0.228,0.438-0.449,0.654-0.666c0.176-0.176,0.346-0.348,0.51-0.516s0.308-0.336,0.432-0.504
			s0.225-0.342,0.301-0.522c0.076-0.18,0.113-0.365,0.113-0.558c0-0.216-0.033-0.399-0.102-0.552s-0.16-0.278-0.276-0.378
			c-0.116-0.101-0.25-0.174-0.401-0.223c-0.152-0.048-0.316-0.071-0.492-0.071c-0.209,0-0.398,0.028-0.57,0.084
			s-0.324,0.124-0.456,0.204s-0.246,0.157-0.342,0.233c-0.097,0.076-0.168,0.139-0.216,0.187l-0.492-0.696
			c0.064-0.072,0.16-0.16,0.288-0.264c0.128-0.104,0.282-0.202,0.462-0.294s0.382-0.17,0.605-0.234
			c0.225-0.063,0.465-0.096,0.721-0.096c0.775,0,1.35,0.178,1.722,0.534C376.824,102.082,377.01,102.592,377.01,103.256z"/>
		<path d="M383.358,106.856c0,0.624-0.198,1.128-0.595,1.512c-0.396,0.384-0.998,0.576-1.806,0.576
			c-0.464,0-0.848-0.062-1.151-0.187c-0.305-0.124-0.547-0.283-0.727-0.479s-0.309-0.414-0.384-0.654
			c-0.076-0.24-0.114-0.476-0.114-0.708c0-0.424,0.116-0.8,0.348-1.128c0.232-0.328,0.508-0.592,0.828-0.792
			c-0.68-0.384-1.02-0.972-1.02-1.764c0-0.272,0.052-0.532,0.156-0.78c0.104-0.248,0.252-0.464,0.443-0.648
			c0.192-0.184,0.426-0.331,0.702-0.443s0.586-0.168,0.931-0.168c0.399,0,0.741,0.06,1.025,0.18s0.514,0.274,0.689,0.462
			c0.177,0.188,0.305,0.396,0.385,0.624c0.08,0.229,0.12,0.45,0.12,0.666c0,0.424-0.108,0.79-0.324,1.098
			c-0.216,0.309-0.464,0.555-0.744,0.738C382.946,105.353,383.358,105.984,383.358,106.856z M379.542,106.928
			c0,0.128,0.024,0.263,0.072,0.402s0.128,0.27,0.239,0.39c0.113,0.12,0.261,0.219,0.445,0.294c0.184,0.076,0.407,0.114,0.672,0.114
			c0.248,0,0.461-0.034,0.642-0.102c0.18-0.068,0.327-0.16,0.444-0.276c0.115-0.116,0.201-0.246,0.258-0.39
			c0.056-0.145,0.084-0.288,0.084-0.433c0-0.456-0.164-0.806-0.492-1.05s-0.78-0.43-1.355-0.558c-0.32,0.176-0.568,0.396-0.744,0.66
			C379.631,106.244,379.542,106.561,379.542,106.928z M382.23,103.124c0-0.104-0.024-0.222-0.072-0.354
			c-0.048-0.133-0.122-0.252-0.223-0.36c-0.1-0.108-0.229-0.2-0.389-0.276c-0.16-0.075-0.354-0.113-0.576-0.113
			c-0.232,0-0.426,0.035-0.582,0.107s-0.287,0.162-0.391,0.271c-0.104,0.107-0.178,0.228-0.222,0.359s-0.065,0.263-0.065,0.391
			c0,0.328,0.117,0.634,0.354,0.918s0.625,0.49,1.17,0.618c0.304-0.177,0.546-0.385,0.727-0.624
			C382.141,103.82,382.23,103.508,382.23,103.124z"/>
		<path d="M387.858,108.021c0,0.239-0.08,0.451-0.24,0.636c-0.16,0.184-0.372,0.275-0.636,0.275c-0.272,0-0.488-0.092-0.648-0.275
			c-0.16-0.185-0.24-0.396-0.24-0.636c0-0.248,0.08-0.464,0.24-0.648c0.16-0.184,0.376-0.276,0.648-0.276
			c0.264,0,0.476,0.093,0.636,0.276C387.778,107.557,387.858,107.772,387.858,108.021z"/>
		<path d="M390.402,106.22c0.136-0.319,0.322-0.688,0.559-1.104c0.235-0.416,0.501-0.846,0.797-1.29
			c0.297-0.444,0.612-0.88,0.948-1.308c0.336-0.429,0.677-0.814,1.021-1.158h0.959v4.716h0.877v0.815h-0.877v1.896h-0.959v-1.896
			h-3.324V106.22z M393.727,102.536c-0.217,0.232-0.435,0.488-0.654,0.768c-0.221,0.28-0.434,0.574-0.643,0.883
			c-0.207,0.308-0.401,0.622-0.582,0.941c-0.18,0.32-0.342,0.636-0.485,0.948h2.364V102.536z"/>
		<path d="M396.186,103.064c0-0.608,0.117-1.07,0.349-1.387c0.231-0.315,0.552-0.474,0.96-0.474s0.729,0.158,0.96,0.474
			c0.231,0.316,0.349,0.778,0.349,1.387c0,0.607-0.117,1.071-0.349,1.392s-0.552,0.48-0.96,0.48s-0.729-0.16-0.96-0.48
			S396.186,103.672,396.186,103.064z M397.11,108.788h-0.841l4.549-7.428h0.84L397.11,108.788z M398.059,103.064
			c0-0.36-0.049-0.656-0.145-0.889c-0.096-0.231-0.236-0.348-0.42-0.348s-0.326,0.116-0.426,0.348c-0.1,0.232-0.15,0.528-0.15,0.889
			c0,0.359,0.051,0.655,0.15,0.888s0.242,0.348,0.426,0.348s0.324-0.115,0.42-0.348S398.059,103.424,398.059,103.064z
			 M399.15,107.084c0-0.607,0.113-1.069,0.342-1.386s0.546-0.475,0.954-0.475c0.407,0,0.728,0.158,0.96,0.475
			s0.348,0.778,0.348,1.386c0,0.608-0.115,1.07-0.348,1.386c-0.232,0.316-0.553,0.475-0.96,0.475c-0.408,0-0.726-0.158-0.954-0.475
			C399.264,108.154,399.15,107.692,399.15,107.084z M401.021,107.084c0-0.36-0.049-0.656-0.149-0.888
			c-0.101-0.232-0.241-0.349-0.426-0.349s-0.324,0.116-0.42,0.349c-0.097,0.231-0.144,0.527-0.144,0.888s0.047,0.656,0.144,0.888
			c0.096,0.232,0.235,0.349,0.42,0.349s0.325-0.116,0.426-0.349C400.973,107.74,401.021,107.444,401.021,107.084z"/>
	</g>
</g>
<g>
	<g>
		<path fill="#909090" d="M412.87,102.896c0.408-0.16,0.804-0.362,1.188-0.606c0.384-0.244,0.739-0.554,1.067-0.93h0.696v6.588
			h1.404v0.84h-3.996v-0.84h1.607v-5.208c-0.088,0.08-0.193,0.162-0.318,0.246c-0.123,0.084-0.26,0.166-0.407,0.246
			c-0.148,0.08-0.302,0.155-0.462,0.228s-0.316,0.132-0.469,0.18L412.87,102.896z"/>
		<path fill="#909090" d="M426.934,103.088c0.416,0,0.767,0.053,1.051,0.156c0.283,0.104,0.514,0.248,0.689,0.432
			c0.176,0.185,0.301,0.408,0.373,0.672c0.071,0.265,0.107,0.553,0.107,0.864v3.48c-0.232,0.04-0.538,0.088-0.918,0.144
			c-0.381,0.056-0.77,0.084-1.17,0.084c-0.305,0-0.6-0.026-0.889-0.078c-0.287-0.052-0.543-0.144-0.768-0.275
			s-0.404-0.314-0.54-0.546c-0.136-0.232-0.204-0.528-0.204-0.889c0-0.319,0.07-0.59,0.21-0.81s0.32-0.398,0.54-0.534
			c0.221-0.136,0.473-0.234,0.756-0.294c0.284-0.06,0.57-0.09,0.858-0.09c0.392,0,0.776,0.044,1.151,0.132v-0.276
			c0-0.168-0.018-0.33-0.053-0.485c-0.037-0.156-0.105-0.298-0.205-0.427c-0.1-0.128-0.236-0.229-0.408-0.306
			s-0.394-0.114-0.666-0.114c-0.344,0-0.644,0.024-0.899,0.072c-0.257,0.048-0.452,0.096-0.588,0.145l-0.12-0.816
			c0.136-0.064,0.361-0.12,0.678-0.168S426.574,103.088,426.934,103.088z M427.03,108.08c0.248,0,0.47-0.008,0.666-0.024
			c0.196-0.016,0.358-0.035,0.485-0.06v-1.656c-0.127-0.04-0.281-0.071-0.461-0.096c-0.181-0.024-0.371-0.036-0.57-0.036
			c-0.184,0-0.364,0.014-0.54,0.042c-0.177,0.028-0.332,0.078-0.468,0.15c-0.137,0.071-0.248,0.166-0.336,0.281
			c-0.088,0.116-0.133,0.263-0.133,0.438c0,0.36,0.122,0.61,0.366,0.75S426.614,108.08,427.03,108.08z"/>
		<path fill="#909090" d="M441.01,103.256c0,0.257-0.05,0.504-0.149,0.744c-0.101,0.24-0.232,0.477-0.396,0.708
			c-0.164,0.232-0.351,0.46-0.559,0.684c-0.208,0.225-0.42,0.444-0.637,0.66c-0.119,0.12-0.26,0.265-0.42,0.433
			s-0.312,0.34-0.455,0.516c-0.145,0.176-0.264,0.348-0.36,0.516c-0.097,0.169-0.144,0.312-0.144,0.433h3.42v0.84h-4.5
			c-0.008-0.04-0.012-0.082-0.012-0.126s0-0.086,0-0.126c0-0.336,0.055-0.648,0.168-0.937c0.111-0.287,0.256-0.56,0.432-0.815
			s0.373-0.498,0.594-0.727c0.22-0.228,0.438-0.449,0.654-0.666c0.176-0.176,0.346-0.348,0.51-0.516s0.308-0.336,0.432-0.504
			s0.225-0.342,0.301-0.522c0.076-0.18,0.113-0.365,0.113-0.558c0-0.216-0.033-0.399-0.102-0.552s-0.16-0.278-0.276-0.378
			c-0.116-0.101-0.25-0.174-0.401-0.223c-0.152-0.048-0.316-0.071-0.492-0.071c-0.209,0-0.398,0.028-0.57,0.084
			s-0.324,0.124-0.456,0.204s-0.246,0.157-0.342,0.233c-0.097,0.076-0.168,0.139-0.216,0.187l-0.492-0.696
			c0.064-0.072,0.16-0.16,0.288-0.264c0.128-0.104,0.282-0.202,0.462-0.294s0.382-0.17,0.605-0.234
			c0.225-0.063,0.465-0.096,0.721-0.096c0.775,0,1.35,0.178,1.722,0.534C440.824,102.082,441.01,102.592,441.01,103.256z"/>
		<path fill="#909090" d="M450.778,108.092c0.504,0,0.888-0.096,1.151-0.288c0.265-0.191,0.396-0.479,0.396-0.863
			c0-0.232-0.048-0.431-0.145-0.595c-0.096-0.163-0.224-0.308-0.383-0.432c-0.16-0.124-0.341-0.231-0.541-0.324
			c-0.199-0.092-0.404-0.178-0.611-0.258c-0.24-0.096-0.471-0.204-0.69-0.324s-0.416-0.26-0.588-0.42s-0.308-0.348-0.407-0.563
			c-0.102-0.217-0.15-0.473-0.15-0.769c0-0.647,0.203-1.153,0.611-1.518s0.977-0.546,1.704-0.546c0.2,0,0.397,0.014,0.595,0.042
			c0.195,0.028,0.377,0.062,0.545,0.102s0.318,0.088,0.451,0.145c0.131,0.056,0.237,0.111,0.317,0.168l-0.312,0.828
			c-0.16-0.097-0.381-0.192-0.66-0.288c-0.28-0.097-0.592-0.145-0.937-0.145c-0.36,0-0.672,0.09-0.936,0.271
			c-0.265,0.18-0.396,0.449-0.396,0.81c0,0.208,0.037,0.384,0.113,0.528c0.076,0.144,0.18,0.27,0.312,0.378
			c0.131,0.107,0.285,0.206,0.461,0.294s0.369,0.176,0.576,0.264c0.305,0.128,0.582,0.256,0.834,0.384
			c0.252,0.129,0.469,0.28,0.648,0.456c0.18,0.177,0.32,0.385,0.42,0.624c0.1,0.24,0.15,0.532,0.15,0.876
			c0,0.648-0.219,1.146-0.654,1.494c-0.436,0.349-1.062,0.522-1.878,0.522c-0.265,0-0.513-0.019-0.744-0.055
			c-0.231-0.035-0.438-0.082-0.618-0.138s-0.338-0.111-0.474-0.168c-0.136-0.056-0.24-0.107-0.312-0.156l0.299-0.815
			c0.16,0.088,0.396,0.189,0.709,0.306C449.95,108.034,450.33,108.092,450.778,108.092z"/>
		<path fill="#909090" d="M457.858,108.021c0,0.239-0.08,0.451-0.24,0.636c-0.16,0.184-0.372,0.275-0.636,0.275
			c-0.272,0-0.488-0.092-0.648-0.275c-0.16-0.185-0.24-0.396-0.24-0.636c0-0.248,0.08-0.464,0.24-0.648
			c0.16-0.184,0.376-0.276,0.648-0.276c0.264,0,0.476,0.093,0.636,0.276C457.778,107.557,457.858,107.772,457.858,108.021z"/>
		<path fill="#909090" d="M462.982,105.056l1.152-3.695h0.924c0.16,1.168,0.273,2.363,0.342,3.588
			c0.068,1.224,0.13,2.504,0.186,3.84h-0.96c-0.008-0.432-0.017-0.9-0.024-1.404s-0.018-1.023-0.029-1.56s-0.023-1.08-0.036-1.632
			c-0.012-0.553-0.026-1.088-0.042-1.608l-1.08,3.384h-0.863l-1.104-3.384c-0.009,0.521-0.019,1.055-0.03,1.603
			s-0.023,1.092-0.035,1.632c-0.013,0.54-0.024,1.062-0.037,1.565c-0.012,0.504-0.021,0.973-0.029,1.404h-0.961
			c0.025-0.607,0.053-1.231,0.084-1.872c0.033-0.64,0.07-1.275,0.115-1.908c0.043-0.632,0.096-1.256,0.155-1.872
			c0.06-0.615,0.126-1.208,0.198-1.775h0.912L462.982,105.056z"/>
		<path fill="#909090" d="M469.858,108.021c0,0.239-0.08,0.451-0.24,0.636c-0.16,0.184-0.372,0.275-0.636,0.275
			c-0.272,0-0.488-0.092-0.648-0.275c-0.16-0.185-0.24-0.396-0.24-0.636c0-0.248,0.08-0.464,0.24-0.648
			c0.16-0.184,0.376-0.276,0.648-0.276c0.264,0,0.476,0.093,0.636,0.276C469.778,107.557,469.858,107.772,469.858,108.021z"/>
	</g>
</g>
<g>
	<g>
		<path d="M372.87,142.596c0.408-0.16,0.804-0.361,1.188-0.605c0.384-0.244,0.739-0.555,1.067-0.93h0.696v6.588h1.404v0.84h-3.996
			v-0.84h1.607v-5.209c-0.088,0.08-0.193,0.162-0.318,0.246c-0.123,0.084-0.26,0.166-0.407,0.246
			c-0.148,0.08-0.302,0.156-0.462,0.229s-0.316,0.131-0.469,0.18L372.87,142.596z"/>
		<path d="M378.87,142.596c0.408-0.16,0.804-0.361,1.188-0.605c0.384-0.244,0.739-0.555,1.067-0.93h0.696v6.588h1.404v0.84h-3.996
			v-0.84h1.607v-5.209c-0.088,0.08-0.193,0.162-0.318,0.246c-0.123,0.084-0.26,0.166-0.407,0.246
			c-0.148,0.08-0.302,0.156-0.462,0.229s-0.316,0.131-0.469,0.18L378.87,142.596z"/>
		<path d="M387.858,147.721c0,0.238-0.08,0.451-0.24,0.635s-0.372,0.275-0.636,0.275c-0.272,0-0.488-0.092-0.648-0.275
			s-0.24-0.396-0.24-0.635c0-0.248,0.08-0.465,0.24-0.648s0.376-0.277,0.648-0.277c0.264,0,0.476,0.094,0.636,0.277
			S387.858,147.473,387.858,147.721z"/>
		<path d="M392.514,147.768c0.633,0,1.082-0.125,1.351-0.377s0.401-0.59,0.401-1.016c0-0.271-0.056-0.5-0.168-0.684
			c-0.111-0.184-0.26-0.332-0.443-0.443s-0.396-0.191-0.637-0.24c-0.239-0.049-0.491-0.072-0.756-0.072h-0.252v-0.805h0.349
			c0.176,0,0.358-0.018,0.546-0.053c0.188-0.037,0.359-0.1,0.516-0.191c0.156-0.094,0.282-0.219,0.379-0.379
			c0.096-0.16,0.144-0.363,0.144-0.611c0-0.408-0.126-0.699-0.378-0.871s-0.547-0.258-0.883-0.258c-0.344,0-0.635,0.051-0.875,0.15
			s-0.44,0.201-0.601,0.307l-0.384-0.756c0.168-0.121,0.422-0.246,0.762-0.379s0.719-0.197,1.135-0.197
			c0.391,0,0.728,0.047,1.008,0.143c0.279,0.096,0.51,0.232,0.689,0.408s0.314,0.383,0.402,0.619s0.132,0.494,0.132,0.773
			c0,0.393-0.103,0.725-0.306,0.996c-0.204,0.271-0.467,0.48-0.786,0.623c0.384,0.113,0.716,0.33,0.995,0.654
			c0.281,0.324,0.421,0.754,0.421,1.291c0,0.32-0.054,0.617-0.162,0.893c-0.108,0.277-0.272,0.516-0.492,0.715
			s-0.504,0.355-0.853,0.469c-0.348,0.111-0.762,0.168-1.241,0.168c-0.185,0-0.374-0.016-0.57-0.043s-0.378-0.064-0.546-0.107
			c-0.168-0.045-0.318-0.088-0.449-0.133c-0.133-0.043-0.227-0.078-0.283-0.102l0.192-0.852c0.128,0.064,0.332,0.141,0.612,0.229
			C391.762,147.725,392.106,147.768,392.514,147.768z"/>
		<path d="M396.186,142.764c0-0.607,0.117-1.07,0.349-1.387c0.231-0.314,0.552-0.473,0.96-0.473s0.729,0.158,0.96,0.473
			c0.231,0.316,0.349,0.779,0.349,1.387s-0.117,1.072-0.349,1.393s-0.552,0.48-0.96,0.48s-0.729-0.16-0.96-0.48
			S396.186,143.371,396.186,142.764z M397.11,148.488h-0.841l4.549-7.428h0.84L397.11,148.488z M398.059,142.764
			c0-0.359-0.049-0.656-0.145-0.889c-0.096-0.23-0.236-0.348-0.42-0.348s-0.326,0.117-0.426,0.348c-0.1,0.232-0.15,0.529-0.15,0.889
			s0.051,0.656,0.15,0.889s0.242,0.348,0.426,0.348s0.324-0.115,0.42-0.348S398.059,143.123,398.059,142.764z M399.15,146.783
			c0-0.607,0.113-1.068,0.342-1.385s0.546-0.475,0.954-0.475c0.407,0,0.728,0.158,0.96,0.475s0.348,0.777,0.348,1.385
			c0,0.609-0.115,1.07-0.348,1.387s-0.553,0.475-0.96,0.475c-0.408,0-0.726-0.158-0.954-0.475S399.15,147.393,399.15,146.783z
			 M401.021,146.783c0-0.359-0.049-0.656-0.149-0.887c-0.101-0.232-0.241-0.35-0.426-0.35s-0.324,0.117-0.42,0.35
			c-0.097,0.23-0.144,0.527-0.144,0.887c0,0.361,0.047,0.656,0.144,0.889c0.096,0.232,0.235,0.348,0.42,0.348
			s0.325-0.115,0.426-0.348S401.021,147.145,401.021,146.783z"/>
	</g>
</g>
<g>
	<g>
		<path fill="#909090" d="M417.01,142.955c0,0.258-0.05,0.504-0.149,0.744c-0.101,0.24-0.232,0.477-0.396,0.709
			c-0.164,0.232-0.351,0.459-0.559,0.684s-0.42,0.443-0.637,0.66c-0.119,0.119-0.26,0.264-0.42,0.432s-0.312,0.34-0.455,0.516
			c-0.145,0.176-0.264,0.348-0.36,0.516c-0.097,0.17-0.144,0.312-0.144,0.434h3.42v0.84h-4.5c-0.008-0.041-0.012-0.082-0.012-0.127
			c0-0.043,0-0.086,0-0.125c0-0.336,0.055-0.648,0.168-0.938c0.111-0.287,0.256-0.559,0.432-0.814s0.373-0.498,0.594-0.727
			c0.22-0.229,0.438-0.449,0.654-0.666c0.176-0.176,0.346-0.348,0.51-0.516s0.308-0.336,0.432-0.504s0.225-0.342,0.301-0.523
			c0.076-0.18,0.113-0.365,0.113-0.557c0-0.217-0.033-0.4-0.102-0.553s-0.16-0.277-0.276-0.377c-0.116-0.102-0.25-0.174-0.401-0.223
			c-0.152-0.049-0.316-0.072-0.492-0.072c-0.209,0-0.398,0.029-0.57,0.084c-0.172,0.057-0.324,0.125-0.456,0.205
			s-0.246,0.156-0.342,0.232c-0.097,0.076-0.168,0.139-0.216,0.188l-0.492-0.697c0.064-0.072,0.16-0.16,0.288-0.264
			s0.282-0.201,0.462-0.293s0.382-0.17,0.605-0.234c0.225-0.064,0.465-0.096,0.721-0.096c0.775,0,1.35,0.178,1.722,0.533
			S417.01,142.291,417.01,142.955z"/>
		<path fill="#909090" d="M426.934,142.787c0.416,0,0.767,0.053,1.051,0.156c0.283,0.105,0.514,0.248,0.689,0.432
			c0.176,0.186,0.301,0.408,0.373,0.672c0.071,0.266,0.107,0.553,0.107,0.865v3.48c-0.232,0.039-0.538,0.088-0.918,0.143
			c-0.381,0.057-0.77,0.084-1.17,0.084c-0.305,0-0.6-0.025-0.889-0.078c-0.287-0.051-0.543-0.143-0.768-0.275
			c-0.225-0.131-0.404-0.314-0.54-0.545c-0.136-0.232-0.204-0.529-0.204-0.889c0-0.32,0.07-0.59,0.21-0.811
			c0.14-0.219,0.32-0.398,0.54-0.533c0.221-0.137,0.473-0.234,0.756-0.295c0.284-0.059,0.57-0.09,0.858-0.09
			c0.392,0,0.776,0.045,1.151,0.133v-0.277c0-0.168-0.018-0.33-0.053-0.484c-0.037-0.156-0.105-0.299-0.205-0.428
			c-0.1-0.127-0.236-0.229-0.408-0.305s-0.394-0.115-0.666-0.115c-0.344,0-0.644,0.025-0.899,0.072
			c-0.257,0.049-0.452,0.096-0.588,0.145l-0.12-0.816c0.136-0.064,0.361-0.119,0.678-0.168
			C426.236,142.812,426.574,142.787,426.934,142.787z M427.03,147.779c0.248,0,0.47-0.008,0.666-0.023s0.358-0.035,0.485-0.061
			v-1.656c-0.127-0.039-0.281-0.07-0.461-0.096c-0.181-0.023-0.371-0.035-0.57-0.035c-0.184,0-0.364,0.014-0.54,0.041
			c-0.177,0.029-0.332,0.078-0.468,0.15c-0.137,0.072-0.248,0.166-0.336,0.281c-0.088,0.117-0.133,0.264-0.133,0.439
			c0,0.359,0.122,0.609,0.366,0.75C426.284,147.709,426.614,147.779,427.03,147.779z"/>
		<path fill="#909090" d="M438.514,147.768c0.633,0,1.082-0.125,1.351-0.377s0.401-0.59,0.401-1.016c0-0.271-0.056-0.5-0.168-0.684
			c-0.111-0.184-0.26-0.332-0.443-0.443s-0.396-0.191-0.637-0.24c-0.239-0.049-0.491-0.072-0.756-0.072h-0.252v-0.805h0.349
			c0.176,0,0.358-0.018,0.546-0.053c0.188-0.037,0.359-0.1,0.516-0.191c0.156-0.094,0.282-0.219,0.379-0.379
			c0.096-0.16,0.144-0.363,0.144-0.611c0-0.408-0.126-0.699-0.378-0.871s-0.547-0.258-0.883-0.258c-0.344,0-0.635,0.051-0.875,0.15
			s-0.44,0.201-0.601,0.307l-0.384-0.756c0.168-0.121,0.422-0.246,0.762-0.379s0.719-0.197,1.135-0.197
			c0.391,0,0.728,0.047,1.008,0.143c0.279,0.096,0.51,0.232,0.689,0.408s0.314,0.383,0.402,0.619s0.132,0.494,0.132,0.773
			c0,0.393-0.103,0.725-0.306,0.996c-0.204,0.271-0.467,0.48-0.786,0.623c0.384,0.113,0.716,0.33,0.995,0.654
			c0.281,0.324,0.421,0.754,0.421,1.291c0,0.32-0.054,0.617-0.162,0.893c-0.108,0.277-0.272,0.516-0.492,0.715
			s-0.504,0.355-0.853,0.469c-0.348,0.111-0.762,0.168-1.241,0.168c-0.185,0-0.374-0.016-0.57-0.043s-0.378-0.064-0.546-0.107
			c-0.168-0.045-0.318-0.088-0.449-0.133c-0.133-0.043-0.227-0.078-0.283-0.102l0.192-0.852c0.128,0.064,0.332,0.141,0.612,0.229
			C437.762,147.725,438.106,147.768,438.514,147.768z"/>
		<path fill="#909090" d="M450.778,147.791c0.504,0,0.888-0.096,1.151-0.287c0.265-0.191,0.396-0.48,0.396-0.863
			c0-0.232-0.048-0.432-0.145-0.596c-0.096-0.162-0.224-0.307-0.383-0.432c-0.16-0.123-0.341-0.23-0.541-0.324
			c-0.199-0.092-0.404-0.178-0.611-0.258c-0.24-0.096-0.471-0.203-0.69-0.324c-0.22-0.119-0.416-0.26-0.588-0.42
			s-0.308-0.348-0.407-0.562c-0.102-0.217-0.15-0.473-0.15-0.77c0-0.646,0.203-1.152,0.611-1.518
			c0.408-0.363,0.977-0.545,1.704-0.545c0.2,0,0.397,0.014,0.595,0.041c0.195,0.029,0.377,0.062,0.545,0.102
			c0.168,0.041,0.318,0.088,0.451,0.145c0.131,0.057,0.237,0.111,0.317,0.168l-0.312,0.828c-0.16-0.096-0.381-0.191-0.66-0.287
			c-0.28-0.098-0.592-0.145-0.937-0.145c-0.36,0-0.672,0.09-0.936,0.27c-0.265,0.18-0.396,0.449-0.396,0.811
			c0,0.207,0.037,0.383,0.113,0.527s0.18,0.27,0.312,0.379c0.131,0.107,0.285,0.205,0.461,0.293s0.369,0.176,0.576,0.264
			c0.305,0.129,0.582,0.256,0.834,0.385s0.469,0.279,0.648,0.455c0.18,0.178,0.32,0.385,0.42,0.625s0.15,0.531,0.15,0.875
			c0,0.648-0.219,1.146-0.654,1.494c-0.436,0.35-1.062,0.523-1.878,0.523c-0.265,0-0.513-0.02-0.744-0.055s-0.438-0.082-0.618-0.139
			c-0.18-0.055-0.338-0.111-0.474-0.168c-0.136-0.055-0.24-0.107-0.312-0.156l0.299-0.814c0.16,0.088,0.396,0.189,0.709,0.305
			C449.95,147.734,450.33,147.791,450.778,147.791z"/>
		<path fill="#909090" d="M457.858,147.721c0,0.238-0.08,0.451-0.24,0.635s-0.372,0.275-0.636,0.275
			c-0.272,0-0.488-0.092-0.648-0.275s-0.24-0.396-0.24-0.635c0-0.248,0.08-0.465,0.24-0.648s0.376-0.277,0.648-0.277
			c0.264,0,0.476,0.094,0.636,0.277S457.858,147.473,457.858,147.721z"/>
		<path fill="#909090" d="M462.982,144.756l1.152-3.695h0.924c0.16,1.168,0.273,2.363,0.342,3.588
			c0.068,1.223,0.13,2.504,0.186,3.84h-0.96c-0.008-0.432-0.017-0.9-0.024-1.404s-0.018-1.023-0.029-1.561
			c-0.012-0.535-0.023-1.08-0.036-1.631c-0.012-0.553-0.026-1.088-0.042-1.609l-1.08,3.385h-0.863l-1.104-3.385
			c-0.009,0.521-0.019,1.055-0.03,1.604c-0.012,0.547-0.023,1.092-0.035,1.631c-0.013,0.541-0.024,1.062-0.037,1.566
			c-0.012,0.504-0.021,0.973-0.029,1.404h-0.961c0.025-0.607,0.053-1.232,0.084-1.873c0.033-0.639,0.07-1.275,0.115-1.908
			c0.043-0.631,0.096-1.256,0.155-1.871s0.126-1.209,0.198-1.775h0.912L462.982,144.756z"/>
		<path fill="#909090" d="M469.858,147.721c0,0.238-0.08,0.451-0.24,0.635s-0.372,0.275-0.636,0.275
			c-0.272,0-0.488-0.092-0.648-0.275s-0.24-0.396-0.24-0.635c0-0.248,0.08-0.465,0.24-0.648s0.376-0.277,0.648-0.277
			c0.264,0,0.476,0.094,0.636,0.277S469.858,147.473,469.858,147.721z"/>
	</g>
</g>
<g>
	<g>
		<path d="M377.358,166.156c0,0.623-0.198,1.127-0.595,1.512c-0.396,0.383-0.998,0.576-1.806,0.576
			c-0.464,0-0.848-0.062-1.151-0.188c-0.305-0.123-0.547-0.283-0.727-0.479c-0.18-0.197-0.309-0.414-0.384-0.654
			c-0.076-0.24-0.114-0.477-0.114-0.709c0-0.424,0.116-0.799,0.348-1.127c0.232-0.328,0.508-0.592,0.828-0.793
			c-0.68-0.383-1.02-0.971-1.02-1.764c0-0.271,0.052-0.531,0.156-0.779c0.104-0.248,0.252-0.465,0.443-0.648
			c0.192-0.184,0.426-0.332,0.702-0.443c0.276-0.113,0.586-0.168,0.931-0.168c0.399,0,0.741,0.059,1.025,0.18
			c0.284,0.119,0.514,0.273,0.689,0.461c0.177,0.189,0.305,0.396,0.385,0.625s0.12,0.449,0.12,0.666
			c0,0.424-0.108,0.789-0.324,1.098s-0.464,0.555-0.744,0.738C376.946,164.652,377.358,165.283,377.358,166.156z M373.542,166.227
			c0,0.129,0.024,0.264,0.072,0.402c0.048,0.141,0.128,0.27,0.239,0.391c0.113,0.119,0.261,0.219,0.445,0.293
			c0.184,0.076,0.407,0.115,0.672,0.115c0.248,0,0.461-0.035,0.642-0.102c0.18-0.068,0.327-0.16,0.444-0.277
			c0.115-0.115,0.201-0.246,0.258-0.389c0.056-0.145,0.084-0.289,0.084-0.434c0-0.455-0.164-0.805-0.492-1.049
			s-0.78-0.43-1.355-0.559c-0.32,0.176-0.568,0.396-0.744,0.66S373.542,165.859,373.542,166.227z M376.23,162.424
			c0-0.104-0.024-0.223-0.072-0.354c-0.048-0.133-0.122-0.252-0.223-0.361c-0.1-0.107-0.229-0.199-0.389-0.275
			c-0.16-0.076-0.354-0.113-0.576-0.113c-0.232,0-0.426,0.035-0.582,0.107s-0.287,0.162-0.391,0.27s-0.178,0.229-0.222,0.359
			c-0.044,0.133-0.065,0.264-0.065,0.391c0,0.328,0.117,0.635,0.354,0.918c0.236,0.285,0.625,0.49,1.17,0.619
			c0.304-0.178,0.546-0.385,0.727-0.625C376.141,163.119,376.23,162.807,376.23,162.424z"/>
		<path d="M381.858,167.32c0,0.238-0.08,0.451-0.24,0.635s-0.372,0.275-0.636,0.275c-0.272,0-0.488-0.092-0.648-0.275
			s-0.24-0.396-0.24-0.635c0-0.248,0.08-0.465,0.24-0.648s0.376-0.277,0.648-0.277c0.264,0,0.476,0.094,0.636,0.277
			S381.858,167.072,381.858,167.32z"/>
		<path d="M386.514,167.367c0.633,0,1.082-0.125,1.351-0.377s0.401-0.59,0.401-1.016c0-0.271-0.056-0.5-0.168-0.684
			c-0.111-0.184-0.26-0.332-0.443-0.443s-0.396-0.191-0.637-0.24c-0.239-0.049-0.491-0.072-0.756-0.072h-0.252v-0.805h0.349
			c0.176,0,0.358-0.018,0.546-0.053c0.188-0.037,0.359-0.1,0.516-0.191c0.156-0.094,0.282-0.219,0.379-0.379
			c0.096-0.16,0.144-0.363,0.144-0.611c0-0.408-0.126-0.699-0.378-0.871s-0.547-0.258-0.883-0.258c-0.344,0-0.635,0.051-0.875,0.15
			s-0.44,0.201-0.601,0.307l-0.384-0.756c0.168-0.121,0.422-0.246,0.762-0.379s0.719-0.197,1.135-0.197
			c0.391,0,0.728,0.047,1.008,0.143c0.279,0.096,0.51,0.232,0.689,0.408s0.314,0.383,0.402,0.619s0.132,0.494,0.132,0.773
			c0,0.393-0.103,0.725-0.306,0.996c-0.204,0.271-0.467,0.48-0.786,0.623c0.384,0.113,0.716,0.33,0.995,0.654
			c0.281,0.324,0.421,0.754,0.421,1.291c0,0.32-0.054,0.617-0.162,0.893c-0.108,0.277-0.272,0.516-0.492,0.715
			s-0.504,0.355-0.853,0.469c-0.348,0.111-0.762,0.168-1.241,0.168c-0.185,0-0.374-0.016-0.57-0.043s-0.378-0.064-0.546-0.107
			c-0.168-0.045-0.318-0.088-0.449-0.133c-0.133-0.043-0.227-0.078-0.283-0.102l0.192-0.852c0.128,0.064,0.332,0.141,0.612,0.229
			C385.762,167.324,386.106,167.367,386.514,167.367z"/>
		<path d="M390.186,162.363c0-0.607,0.117-1.07,0.349-1.387c0.231-0.314,0.552-0.473,0.96-0.473s0.729,0.158,0.96,0.473
			c0.231,0.316,0.349,0.779,0.349,1.387s-0.117,1.072-0.349,1.393s-0.552,0.48-0.96,0.48s-0.729-0.16-0.96-0.48
			S390.186,162.971,390.186,162.363z M391.11,168.088h-0.841l4.549-7.428h0.84L391.11,168.088z M392.059,162.363
			c0-0.359-0.049-0.656-0.145-0.889c-0.096-0.23-0.236-0.348-0.42-0.348s-0.326,0.117-0.426,0.348c-0.1,0.232-0.15,0.529-0.15,0.889
			s0.051,0.656,0.15,0.889s0.242,0.348,0.426,0.348s0.324-0.115,0.42-0.348S392.059,162.723,392.059,162.363z M393.15,166.383
			c0-0.607,0.113-1.068,0.342-1.385s0.546-0.475,0.954-0.475c0.407,0,0.728,0.158,0.96,0.475s0.348,0.777,0.348,1.385
			c0,0.609-0.115,1.07-0.348,1.387s-0.553,0.475-0.96,0.475c-0.408,0-0.726-0.158-0.954-0.475S393.15,166.992,393.15,166.383z
			 M395.021,166.383c0-0.359-0.049-0.656-0.149-0.887c-0.101-0.232-0.241-0.35-0.426-0.35s-0.324,0.117-0.42,0.35
			c-0.097,0.23-0.144,0.527-0.144,0.887c0,0.361,0.047,0.656,0.144,0.889c0.096,0.232,0.235,0.348,0.42,0.348
			s0.325-0.115,0.426-0.348S395.021,166.744,395.021,166.383z"/>
	</g>
</g>
<g>
	<g>
		<path fill="#909090" d="M414.514,167.367c0.633,0,1.082-0.125,1.351-0.377s0.401-0.59,0.401-1.016c0-0.271-0.056-0.5-0.168-0.684
			c-0.111-0.184-0.26-0.332-0.443-0.443s-0.396-0.191-0.637-0.24c-0.239-0.049-0.491-0.072-0.756-0.072h-0.252v-0.805h0.349
			c0.176,0,0.358-0.018,0.546-0.053c0.188-0.037,0.359-0.1,0.516-0.191c0.156-0.094,0.282-0.219,0.379-0.379
			c0.096-0.16,0.144-0.363,0.144-0.611c0-0.408-0.126-0.699-0.378-0.871s-0.547-0.258-0.883-0.258c-0.344,0-0.635,0.051-0.875,0.15
			s-0.44,0.201-0.601,0.307l-0.384-0.756c0.168-0.121,0.422-0.246,0.762-0.379s0.719-0.197,1.135-0.197
			c0.391,0,0.728,0.047,1.008,0.143c0.279,0.096,0.51,0.232,0.689,0.408s0.314,0.383,0.402,0.619s0.132,0.494,0.132,0.773
			c0,0.393-0.103,0.725-0.306,0.996c-0.204,0.271-0.467,0.48-0.786,0.623c0.384,0.113,0.716,0.33,0.995,0.654
			c0.281,0.324,0.421,0.754,0.421,1.291c0,0.32-0.054,0.617-0.162,0.893c-0.108,0.277-0.272,0.516-0.492,0.715
			s-0.504,0.355-0.853,0.469c-0.348,0.111-0.762,0.168-1.241,0.168c-0.185,0-0.374-0.016-0.57-0.043s-0.378-0.064-0.546-0.107
			c-0.168-0.045-0.318-0.088-0.449-0.133c-0.133-0.043-0.227-0.078-0.283-0.102l0.192-0.852c0.128,0.064,0.332,0.141,0.612,0.229
			C413.762,167.324,414.106,167.367,414.514,167.367z"/>
		<path fill="#909090" d="M426.934,162.387c0.416,0,0.767,0.053,1.051,0.156c0.283,0.105,0.514,0.248,0.689,0.432
			c0.176,0.186,0.301,0.408,0.373,0.672c0.071,0.266,0.107,0.553,0.107,0.865v3.48c-0.232,0.039-0.538,0.088-0.918,0.143
			c-0.381,0.057-0.77,0.084-1.17,0.084c-0.305,0-0.6-0.025-0.889-0.078c-0.287-0.051-0.543-0.143-0.768-0.275
			c-0.225-0.131-0.404-0.314-0.54-0.545c-0.136-0.232-0.204-0.529-0.204-0.889c0-0.32,0.07-0.59,0.21-0.811
			c0.14-0.219,0.32-0.398,0.54-0.533c0.221-0.137,0.473-0.234,0.756-0.295c0.284-0.059,0.57-0.09,0.858-0.09
			c0.392,0,0.776,0.045,1.151,0.133v-0.277c0-0.168-0.018-0.33-0.053-0.484c-0.037-0.156-0.105-0.299-0.205-0.428
			c-0.1-0.127-0.236-0.229-0.408-0.305s-0.394-0.115-0.666-0.115c-0.344,0-0.644,0.025-0.899,0.072
			c-0.257,0.049-0.452,0.096-0.588,0.145l-0.12-0.816c0.136-0.064,0.361-0.119,0.678-0.168
			C426.236,162.412,426.574,162.387,426.934,162.387z M427.03,167.379c0.248,0,0.47-0.008,0.666-0.023s0.358-0.035,0.485-0.061
			v-1.656c-0.127-0.039-0.281-0.07-0.461-0.096c-0.181-0.023-0.371-0.035-0.57-0.035c-0.184,0-0.364,0.014-0.54,0.041
			c-0.177,0.029-0.332,0.078-0.468,0.15c-0.137,0.072-0.248,0.166-0.336,0.281c-0.088,0.117-0.133,0.264-0.133,0.439
			c0,0.359,0.122,0.609,0.366,0.75C426.284,167.309,426.614,167.379,427.03,167.379z"/>
		<path fill="#909090" d="M438.202,163.527c1.071,0.041,1.853,0.275,2.34,0.709c0.488,0.432,0.732,1.012,0.732,1.738
			c0,0.328-0.052,0.633-0.156,0.912c-0.104,0.281-0.267,0.521-0.485,0.721c-0.221,0.199-0.5,0.355-0.841,0.469
			c-0.34,0.111-0.741,0.168-1.206,0.168c-0.191,0-0.382-0.016-0.57-0.043c-0.188-0.027-0.365-0.062-0.533-0.102
			c-0.168-0.041-0.316-0.082-0.444-0.127c-0.128-0.043-0.22-0.082-0.276-0.113l0.192-0.852c0.128,0.064,0.326,0.141,0.595,0.229
			c0.268,0.088,0.605,0.131,1.014,0.131c0.32,0,0.588-0.035,0.804-0.107s0.39-0.17,0.522-0.295c0.131-0.123,0.228-0.266,0.287-0.426
			c0.061-0.16,0.09-0.328,0.09-0.504c0-0.271-0.045-0.514-0.137-0.727c-0.093-0.211-0.253-0.389-0.48-0.533
			c-0.229-0.145-0.54-0.254-0.936-0.33c-0.396-0.076-0.895-0.113-1.494-0.113c0.047-0.354,0.086-0.682,0.113-0.99
			c0.028-0.309,0.053-0.607,0.072-0.9c0.02-0.291,0.036-0.582,0.048-0.869c0.013-0.289,0.026-0.594,0.042-0.912h3.576v0.84h-2.712
			c-0.009,0.111-0.019,0.258-0.03,0.438s-0.025,0.369-0.042,0.57c-0.017,0.199-0.032,0.393-0.048,0.576
			S438.21,163.416,438.202,163.527z"/>
		<path fill="#909090" d="M450.778,167.391c0.504,0,0.888-0.096,1.151-0.287c0.265-0.191,0.396-0.48,0.396-0.863
			c0-0.232-0.048-0.432-0.145-0.596c-0.096-0.162-0.224-0.307-0.383-0.432c-0.16-0.123-0.341-0.23-0.541-0.324
			c-0.199-0.092-0.404-0.178-0.611-0.258c-0.24-0.096-0.471-0.203-0.69-0.324c-0.22-0.119-0.416-0.26-0.588-0.42
			s-0.308-0.348-0.407-0.562c-0.102-0.217-0.15-0.473-0.15-0.77c0-0.646,0.203-1.152,0.611-1.518
			c0.408-0.363,0.977-0.545,1.704-0.545c0.2,0,0.397,0.014,0.595,0.041c0.195,0.029,0.377,0.062,0.545,0.102
			c0.168,0.041,0.318,0.088,0.451,0.145c0.131,0.057,0.237,0.111,0.317,0.168l-0.312,0.828c-0.16-0.096-0.381-0.191-0.66-0.287
			c-0.28-0.098-0.592-0.145-0.937-0.145c-0.36,0-0.672,0.09-0.936,0.27c-0.265,0.18-0.396,0.449-0.396,0.811
			c0,0.207,0.037,0.383,0.113,0.527s0.18,0.27,0.312,0.379c0.131,0.107,0.285,0.205,0.461,0.293s0.369,0.176,0.576,0.264
			c0.305,0.129,0.582,0.256,0.834,0.385s0.469,0.279,0.648,0.455c0.18,0.178,0.32,0.385,0.42,0.625s0.15,0.531,0.15,0.875
			c0,0.648-0.219,1.146-0.654,1.494c-0.436,0.35-1.062,0.523-1.878,0.523c-0.265,0-0.513-0.02-0.744-0.055s-0.438-0.082-0.618-0.139
			c-0.18-0.055-0.338-0.111-0.474-0.168c-0.136-0.055-0.24-0.107-0.312-0.156l0.299-0.814c0.16,0.088,0.396,0.189,0.709,0.305
			C449.95,167.334,450.33,167.391,450.778,167.391z"/>
		<path fill="#909090" d="M457.858,167.32c0,0.238-0.08,0.451-0.24,0.635s-0.372,0.275-0.636,0.275
			c-0.272,0-0.488-0.092-0.648-0.275s-0.24-0.396-0.24-0.635c0-0.248,0.08-0.465,0.24-0.648s0.376-0.277,0.648-0.277
			c0.264,0,0.476,0.094,0.636,0.277S457.858,167.072,457.858,167.32z"/>
		<path fill="#909090" d="M462.982,164.355l1.152-3.695h0.924c0.16,1.168,0.273,2.363,0.342,3.588
			c0.068,1.223,0.13,2.504,0.186,3.84h-0.96c-0.008-0.432-0.017-0.9-0.024-1.404s-0.018-1.023-0.029-1.561
			c-0.012-0.535-0.023-1.08-0.036-1.631c-0.012-0.553-0.026-1.088-0.042-1.609l-1.08,3.385h-0.863l-1.104-3.385
			c-0.009,0.521-0.019,1.055-0.03,1.604c-0.012,0.547-0.023,1.092-0.035,1.631c-0.013,0.541-0.024,1.062-0.037,1.566
			c-0.012,0.504-0.021,0.973-0.029,1.404h-0.961c0.025-0.607,0.053-1.232,0.084-1.873c0.033-0.639,0.07-1.275,0.115-1.908
			c0.043-0.631,0.096-1.256,0.155-1.871s0.126-1.209,0.198-1.775h0.912L462.982,164.355z"/>
		<path fill="#909090" d="M469.858,167.32c0,0.238-0.08,0.451-0.24,0.635s-0.372,0.275-0.636,0.275
			c-0.272,0-0.488-0.092-0.648-0.275s-0.24-0.396-0.24-0.635c0-0.248,0.08-0.465,0.24-0.648s0.376-0.277,0.648-0.277
			c0.264,0,0.476,0.094,0.636,0.277S469.858,167.072,469.858,167.32z"/>
	</g>
</g>
<g>
	<g>
		<path d="M372.87,184.496c0.408-0.16,0.804-0.363,1.188-0.607c0.384-0.244,0.739-0.553,1.067-0.93h0.696v6.588h1.404v0.84h-3.996
			v-0.84h1.607v-5.207c-0.088,0.08-0.193,0.162-0.318,0.246c-0.123,0.084-0.26,0.166-0.407,0.246
			c-0.148,0.08-0.302,0.154-0.462,0.227s-0.316,0.133-0.469,0.18L372.87,184.496z"/>
		<path d="M378.402,187.818c0.136-0.318,0.322-0.688,0.559-1.104c0.235-0.416,0.501-0.846,0.797-1.289
			c0.297-0.445,0.612-0.881,0.948-1.309s0.677-0.814,1.021-1.158h0.959v4.717h0.877v0.814h-0.877v1.896h-0.959v-1.896h-3.324
			V187.818z M381.727,184.135c-0.217,0.232-0.435,0.488-0.654,0.768c-0.221,0.281-0.434,0.574-0.643,0.883
			c-0.207,0.309-0.401,0.623-0.582,0.941c-0.18,0.32-0.342,0.637-0.485,0.949h2.364V184.135z"/>
		<path d="M387.858,189.619c0,0.24-0.08,0.451-0.24,0.637c-0.16,0.184-0.372,0.275-0.636,0.275c-0.272,0-0.488-0.092-0.648-0.275
			c-0.16-0.186-0.24-0.396-0.24-0.637c0-0.248,0.08-0.463,0.24-0.648c0.16-0.184,0.376-0.275,0.648-0.275
			c0.264,0,0.476,0.092,0.636,0.275C387.778,189.156,387.858,189.371,387.858,189.619z"/>
		<path d="M390.521,186.668c0-1.248,0.215-2.207,0.643-2.875s1.03-1.002,1.807-1.002c0.783,0,1.387,0.334,1.812,1.002
			c0.424,0.668,0.636,1.627,0.636,2.875s-0.212,2.205-0.636,2.873c-0.425,0.668-1.028,1.002-1.812,1.002
			c-0.776,0-1.379-0.334-1.807-1.002S390.521,187.916,390.521,186.668z M394.41,186.668c0-0.408-0.023-0.795-0.072-1.158
			c-0.048-0.365-0.128-0.682-0.24-0.955c-0.111-0.271-0.26-0.488-0.443-0.648c-0.184-0.158-0.412-0.238-0.684-0.238
			c-0.272,0-0.5,0.08-0.685,0.238c-0.185,0.16-0.332,0.377-0.444,0.648c-0.111,0.273-0.191,0.59-0.24,0.955
			c-0.047,0.363-0.071,0.75-0.071,1.158s0.024,0.793,0.071,1.158c0.049,0.363,0.129,0.682,0.24,0.953
			c0.112,0.271,0.26,0.488,0.444,0.648s0.412,0.24,0.685,0.24c0.271,0,0.5-0.08,0.684-0.24s0.332-0.377,0.443-0.648
			c0.112-0.271,0.192-0.59,0.24-0.953C394.387,187.461,394.41,187.076,394.41,186.668z M393.666,186.535
			c0,0.209-0.062,0.389-0.186,0.541c-0.125,0.15-0.287,0.227-0.486,0.227c-0.208,0-0.376-0.076-0.504-0.227
			c-0.128-0.152-0.191-0.332-0.191-0.541c0-0.207,0.063-0.393,0.191-0.553c0.128-0.158,0.296-0.238,0.504-0.238
			c0.199,0,0.361,0.08,0.486,0.238C393.604,186.143,393.666,186.328,393.666,186.535z"/>
		<path d="M396.186,184.664c0-0.609,0.117-1.07,0.349-1.387s0.552-0.475,0.96-0.475s0.729,0.158,0.96,0.475s0.349,0.777,0.349,1.387
			c0,0.607-0.117,1.07-0.349,1.391s-0.552,0.48-0.96,0.48s-0.729-0.16-0.96-0.48S396.186,185.271,396.186,184.664z M397.11,190.387
			h-0.841l4.549-7.428h0.84L397.11,190.387z M398.059,184.664c0-0.361-0.049-0.656-0.145-0.889s-0.236-0.348-0.42-0.348
			s-0.326,0.115-0.426,0.348s-0.15,0.527-0.15,0.889c0,0.359,0.051,0.654,0.15,0.887s0.242,0.348,0.426,0.348
			s0.324-0.115,0.42-0.348S398.059,185.023,398.059,184.664z M399.15,188.684c0-0.607,0.113-1.07,0.342-1.387
			s0.546-0.475,0.954-0.475c0.407,0,0.728,0.158,0.96,0.475s0.348,0.779,0.348,1.387s-0.115,1.07-0.348,1.385
			c-0.232,0.316-0.553,0.475-0.96,0.475c-0.408,0-0.726-0.158-0.954-0.475C399.264,189.754,399.15,189.291,399.15,188.684z
			 M401.021,188.684c0-0.361-0.049-0.656-0.149-0.889s-0.241-0.348-0.426-0.348s-0.324,0.115-0.42,0.348
			c-0.097,0.232-0.144,0.527-0.144,0.889c0,0.359,0.047,0.656,0.144,0.887c0.096,0.232,0.235,0.35,0.42,0.35s0.325-0.117,0.426-0.35
			C400.973,189.34,401.021,189.043,401.021,188.684z"/>
	</g>
</g>
<g>
	<g>
		<path fill="#909090" d="M414.982,186.654l1.152-3.695h0.924c0.16,1.168,0.273,2.363,0.342,3.588s0.13,2.504,0.186,3.84h-0.96
			c-0.008-0.432-0.017-0.9-0.024-1.404s-0.018-1.023-0.029-1.559c-0.012-0.537-0.023-1.08-0.036-1.633
			c-0.012-0.553-0.026-1.088-0.042-1.607l-1.08,3.383h-0.863l-1.104-3.383c-0.009,0.52-0.019,1.055-0.03,1.602
			c-0.012,0.549-0.023,1.092-0.035,1.633c-0.013,0.539-0.024,1.061-0.037,1.564c-0.012,0.504-0.021,0.973-0.029,1.404h-0.961
			c0.025-0.607,0.053-1.23,0.084-1.871c0.033-0.641,0.07-1.275,0.115-1.908c0.043-0.633,0.096-1.256,0.155-1.873
			c0.06-0.615,0.126-1.207,0.198-1.775h0.912L414.982,186.654z"/>
		<path fill="#909090" d="M420.934,184.688c0.416,0,0.767,0.053,1.051,0.156c0.283,0.104,0.514,0.248,0.689,0.432
			s0.301,0.408,0.373,0.672c0.071,0.264,0.107,0.553,0.107,0.863v3.48c-0.232,0.041-0.538,0.088-0.918,0.145
			c-0.381,0.055-0.77,0.084-1.17,0.084c-0.305,0-0.6-0.027-0.889-0.078c-0.287-0.053-0.543-0.145-0.768-0.275
			c-0.225-0.133-0.404-0.314-0.54-0.547s-0.204-0.527-0.204-0.889c0-0.318,0.07-0.59,0.21-0.809c0.14-0.221,0.32-0.398,0.54-0.535
			c0.221-0.135,0.473-0.234,0.756-0.293c0.284-0.061,0.57-0.09,0.858-0.09c0.392,0,0.776,0.043,1.151,0.131v-0.275
			c0-0.168-0.018-0.33-0.053-0.486c-0.037-0.156-0.105-0.297-0.205-0.426s-0.236-0.23-0.408-0.307s-0.394-0.113-0.666-0.113
			c-0.344,0-0.644,0.023-0.899,0.072c-0.257,0.047-0.452,0.096-0.588,0.145l-0.12-0.816c0.136-0.064,0.361-0.121,0.678-0.168
			C420.236,184.711,420.574,184.688,420.934,184.688z M421.03,189.68c0.248,0,0.47-0.008,0.666-0.025
			c0.196-0.016,0.358-0.035,0.485-0.059v-1.656c-0.127-0.041-0.281-0.072-0.461-0.096c-0.181-0.025-0.371-0.037-0.57-0.037
			c-0.184,0-0.364,0.014-0.54,0.043c-0.177,0.027-0.332,0.078-0.468,0.15c-0.137,0.07-0.248,0.166-0.336,0.281
			s-0.133,0.262-0.133,0.438c0,0.361,0.122,0.611,0.366,0.75C420.284,189.609,420.614,189.68,421.03,189.68z"/>
		<path fill="#909090" d="M426.227,185.646h-1.608v-0.828h2.593v3.42c0,0.553,0.075,0.924,0.227,1.111
			c0.152,0.188,0.381,0.281,0.685,0.281c0.231,0,0.446-0.027,0.642-0.084c0.196-0.055,0.351-0.115,0.463-0.18l0.144,0.84
			c-0.048,0.023-0.116,0.055-0.204,0.09c-0.088,0.037-0.189,0.07-0.306,0.102c-0.116,0.033-0.244,0.061-0.384,0.084
			c-0.141,0.025-0.287,0.037-0.438,0.037c-0.353,0-0.644-0.049-0.876-0.145s-0.418-0.24-0.559-0.432
			c-0.139-0.191-0.237-0.43-0.293-0.715c-0.057-0.283-0.084-0.613-0.084-0.99V185.646z M426.479,183.955
			c-0.209,0-0.389-0.072-0.541-0.217c-0.151-0.143-0.227-0.34-0.227-0.588c0-0.246,0.075-0.443,0.227-0.588
			c0.152-0.143,0.332-0.215,0.541-0.215c0.216,0,0.397,0.072,0.546,0.215c0.147,0.145,0.222,0.342,0.222,0.588
			c0,0.248-0.074,0.445-0.222,0.588C426.876,183.883,426.694,183.955,426.479,183.955z"/>
		<path fill="#909090" d="M434.182,188.996c0-0.201-0.082-0.365-0.246-0.492c-0.164-0.129-0.367-0.24-0.611-0.336
			c-0.244-0.098-0.51-0.191-0.798-0.283s-0.554-0.205-0.798-0.342c-0.244-0.135-0.448-0.303-0.612-0.504
			c-0.164-0.199-0.246-0.459-0.246-0.779c0-0.449,0.183-0.822,0.546-1.123c0.364-0.299,0.934-0.449,1.71-0.449
			c0.304,0,0.618,0.021,0.942,0.066c0.324,0.043,0.602,0.102,0.834,0.174l-0.18,0.887c-0.064-0.031-0.152-0.064-0.265-0.102
			c-0.112-0.035-0.239-0.068-0.384-0.096s-0.299-0.051-0.462-0.066c-0.164-0.016-0.322-0.023-0.474-0.023
			c-0.864,0-1.297,0.236-1.297,0.707c0,0.168,0.082,0.311,0.246,0.428c0.164,0.115,0.37,0.221,0.618,0.316
			c0.248,0.098,0.517,0.195,0.804,0.295c0.289,0.1,0.557,0.223,0.805,0.365c0.248,0.145,0.453,0.318,0.617,0.523
			c0.164,0.203,0.246,0.461,0.246,0.773c0,0.504-0.195,0.895-0.588,1.17c-0.392,0.275-1.012,0.414-1.859,0.414
			c-0.385,0-0.736-0.033-1.057-0.096c-0.32-0.064-0.623-0.16-0.912-0.289l0.192-0.9c0.28,0.129,0.574,0.234,0.882,0.318
			c0.309,0.084,0.639,0.127,0.99,0.127C433.73,189.68,434.182,189.451,434.182,188.996z"/>
		<path fill="#909090" d="M446.122,182.238l0.996-0.168v8.16c-0.216,0.064-0.492,0.129-0.828,0.193
			c-0.336,0.062-0.728,0.096-1.176,0.096c-0.4,0-0.765-0.068-1.093-0.205c-0.328-0.135-0.607-0.33-0.84-0.582
			c-0.231-0.252-0.412-0.557-0.539-0.918c-0.129-0.359-0.192-0.764-0.192-1.211c0-0.432,0.054-0.826,0.162-1.182
			c0.108-0.357,0.266-0.662,0.474-0.918s0.458-0.457,0.75-0.602c0.292-0.143,0.626-0.215,1.002-0.215
			c0.297,0,0.557,0.035,0.78,0.107s0.392,0.148,0.504,0.229V182.238z M446.122,185.996c-0.112-0.105-0.276-0.203-0.491-0.295
			c-0.217-0.092-0.441-0.139-0.673-0.139c-0.264,0-0.489,0.053-0.678,0.156c-0.188,0.105-0.343,0.246-0.462,0.426
			c-0.12,0.182-0.209,0.396-0.264,0.648c-0.057,0.252-0.084,0.521-0.084,0.811c0,0.648,0.151,1.148,0.455,1.5
			c0.305,0.352,0.7,0.527,1.188,0.527c0.248,0,0.458-0.012,0.63-0.035c0.172-0.025,0.298-0.049,0.378-0.072V185.996z"/>
		<path fill="#909090" d="M451.078,184.688c0.752,0,1.332,0.234,1.74,0.701c0.408,0.469,0.611,1.178,0.611,2.131v0.348h-3.983
			c0.04,0.576,0.229,1.014,0.569,1.314c0.34,0.299,0.818,0.449,1.435,0.449c0.353,0,0.651-0.027,0.899-0.084
			c0.248-0.055,0.437-0.115,0.564-0.18l0.133,0.84c-0.121,0.064-0.336,0.133-0.648,0.205c-0.312,0.07-0.664,0.107-1.057,0.107
			c-0.479,0-0.902-0.074-1.266-0.223c-0.364-0.148-0.666-0.35-0.906-0.605s-0.42-0.562-0.539-0.918
			c-0.121-0.355-0.181-0.742-0.181-1.158c0-0.496,0.076-0.928,0.228-1.297c0.152-0.367,0.353-0.672,0.601-0.912
			c0.247-0.238,0.528-0.42,0.84-0.539S450.75,184.688,451.078,184.688z M452.422,187.062c0-0.471-0.124-0.846-0.371-1.121
			c-0.248-0.275-0.576-0.414-0.984-0.414c-0.232,0-0.442,0.043-0.631,0.133c-0.188,0.088-0.35,0.203-0.485,0.348
			c-0.136,0.143-0.244,0.307-0.324,0.492c-0.079,0.184-0.132,0.371-0.155,0.562H452.422z"/>
		<path fill="#909090" d="M462.202,185.828c1.071,0.039,1.853,0.275,2.34,0.707c0.488,0.432,0.732,1.012,0.732,1.74
			c0,0.328-0.052,0.633-0.156,0.912s-0.267,0.52-0.485,0.719c-0.221,0.201-0.5,0.357-0.841,0.469
			c-0.34,0.111-0.741,0.168-1.206,0.168c-0.191,0-0.382-0.014-0.57-0.041c-0.188-0.029-0.365-0.062-0.533-0.104
			c-0.168-0.039-0.316-0.082-0.444-0.125c-0.128-0.045-0.22-0.082-0.276-0.113l0.192-0.854c0.128,0.064,0.326,0.141,0.595,0.229
			c0.268,0.088,0.605,0.133,1.014,0.133c0.32,0,0.588-0.037,0.804-0.109s0.39-0.17,0.522-0.293c0.131-0.125,0.228-0.266,0.287-0.426
			c0.061-0.16,0.09-0.328,0.09-0.504c0-0.273-0.045-0.516-0.137-0.727c-0.093-0.213-0.253-0.391-0.48-0.533
			c-0.229-0.145-0.54-0.254-0.936-0.33c-0.396-0.076-0.895-0.115-1.494-0.115c0.047-0.352,0.086-0.682,0.113-0.99
			c0.028-0.307,0.053-0.607,0.072-0.9c0.02-0.291,0.036-0.58,0.048-0.869c0.013-0.287,0.026-0.592,0.042-0.912h3.576v0.84h-2.712
			c-0.009,0.113-0.019,0.258-0.03,0.438c-0.012,0.182-0.025,0.371-0.042,0.57c-0.017,0.201-0.032,0.393-0.048,0.576
			S462.21,185.715,462.202,185.828z"/>
		<path fill="#909090" d="M474.778,189.691c0.504,0,0.888-0.096,1.151-0.289c0.265-0.191,0.396-0.479,0.396-0.863
			c0-0.232-0.048-0.43-0.145-0.594c-0.096-0.164-0.224-0.309-0.383-0.432c-0.16-0.125-0.341-0.232-0.541-0.324
			c-0.199-0.092-0.404-0.178-0.611-0.258c-0.24-0.096-0.471-0.205-0.69-0.324c-0.22-0.121-0.416-0.26-0.588-0.42
			s-0.308-0.348-0.407-0.564c-0.102-0.217-0.15-0.473-0.15-0.768c0-0.648,0.203-1.154,0.611-1.518
			c0.408-0.365,0.977-0.547,1.704-0.547c0.2,0,0.397,0.014,0.595,0.043c0.195,0.027,0.377,0.061,0.545,0.102
			c0.168,0.039,0.318,0.088,0.451,0.145c0.131,0.055,0.237,0.111,0.317,0.168l-0.312,0.828c-0.16-0.098-0.381-0.193-0.66-0.289
			c-0.28-0.096-0.592-0.145-0.937-0.145c-0.36,0-0.672,0.09-0.936,0.271c-0.265,0.18-0.396,0.449-0.396,0.809
			c0,0.209,0.037,0.385,0.113,0.529c0.076,0.143,0.18,0.27,0.312,0.377c0.131,0.107,0.285,0.207,0.461,0.295
			s0.369,0.176,0.576,0.264c0.305,0.127,0.582,0.256,0.834,0.383c0.252,0.129,0.469,0.281,0.648,0.457s0.32,0.385,0.42,0.623
			c0.1,0.24,0.15,0.533,0.15,0.877c0,0.648-0.219,1.146-0.654,1.494s-1.062,0.521-1.878,0.521c-0.265,0-0.513-0.018-0.744-0.055
			c-0.231-0.035-0.438-0.082-0.618-0.137c-0.18-0.057-0.338-0.111-0.474-0.168s-0.24-0.107-0.312-0.156l0.299-0.816
			c0.16,0.088,0.396,0.189,0.709,0.307C473.95,189.633,474.33,189.691,474.778,189.691z"/>
		<path fill="#909090" d="M481.858,189.619c0,0.24-0.08,0.451-0.24,0.637c-0.16,0.184-0.372,0.275-0.636,0.275
			c-0.272,0-0.488-0.092-0.648-0.275c-0.16-0.186-0.24-0.396-0.24-0.637c0-0.248,0.08-0.463,0.24-0.648
			c0.16-0.184,0.376-0.275,0.648-0.275c0.264,0,0.476,0.092,0.636,0.275C481.778,189.156,481.858,189.371,481.858,189.619z"/>
		<path fill="#909090" d="M486.982,186.654l1.152-3.695h0.924c0.16,1.168,0.273,2.363,0.342,3.588s0.13,2.504,0.186,3.84h-0.96
			c-0.008-0.432-0.017-0.9-0.024-1.404s-0.018-1.023-0.029-1.559c-0.012-0.537-0.023-1.08-0.036-1.633
			c-0.012-0.553-0.026-1.088-0.042-1.607l-1.08,3.383h-0.863l-1.104-3.383c-0.009,0.52-0.019,1.055-0.03,1.602
			c-0.012,0.549-0.023,1.092-0.035,1.633c-0.013,0.539-0.024,1.061-0.037,1.564c-0.012,0.504-0.021,0.973-0.029,1.404h-0.961
			c0.025-0.607,0.053-1.23,0.084-1.871c0.033-0.641,0.07-1.275,0.115-1.908c0.043-0.633,0.096-1.256,0.155-1.873
			c0.06-0.615,0.126-1.207,0.198-1.775h0.912L486.982,186.654z"/>
		<path fill="#909090" d="M493.858,189.619c0,0.24-0.08,0.451-0.24,0.637c-0.16,0.184-0.372,0.275-0.636,0.275
			c-0.272,0-0.488-0.092-0.648-0.275c-0.16-0.186-0.24-0.396-0.24-0.637c0-0.248,0.08-0.463,0.24-0.648
			c0.16-0.184,0.376-0.275,0.648-0.275c0.264,0,0.476,0.092,0.636,0.275C493.778,189.156,493.858,189.371,493.858,189.619z"/>
	</g>
</g>
<line fill="none" stroke="#46CCB2" stroke-miterlimit="10" x1="115.97" y1="84.329" x2="115.97" y2="148.328"/>
<line fill="none" stroke="#1DB784" stroke-miterlimit="10" x1="159.97" y1="84.329" x2="159.97" y2="148.328"/>
<line fill="none" stroke="#1DB784" stroke-miterlimit="10" x1="33.97" y1="82.329" x2="33.97" y2="148.328"/>
<line fill="none" stroke="#1DB784" stroke-miterlimit="10" x1="81.97" y1="84.329" x2="81.97" y2="148.328"/>
<line fill="none" stroke="#46CCB2" stroke-miterlimit="10" x1="223.971" y1="84.329" x2="223.971" y2="148.328"/>
<line fill="none" stroke="#46CCB2" stroke-miterlimit="10" x1="57.97" y1="82.329" x2="57.97" y2="148.328"/>
<line fill="none" stroke="#1DB784" stroke-miterlimit="10" x1="300.971" y1="84.329" x2="300.971" y2="148.328"/>
<g>
	<path fill="#FFFFFF" d="M115.97,85.829c-1.93,0-3.5-1.57-3.5-3.5s1.57-3.5,3.5-3.5s3.5,1.57,3.5,3.5S117.9,85.829,115.97,85.829z"
		/>
	<path fill="#46CCB2" d="M115.97,79.329c1.654,0,3,1.346,3,3s-1.346,3-3,3s-3-1.346-3-3S114.316,79.329,115.97,79.329
		 M115.97,78.329c-2.206,0-4,1.795-4,4s1.794,4,4,4s4-1.795,4-4S118.176,78.329,115.97,78.329L115.97,78.329z"/>
</g>
<g>
	<path fill="#FFFFFF" d="M33.97,85.829c-1.93,0-3.5-1.57-3.5-3.5s1.57-3.5,3.5-3.5s3.5,1.57,3.5,3.5S35.9,85.829,33.97,85.829z"/>
	<path fill="#1DB784" d="M33.97,79.329c1.654,0,3,1.346,3,3s-1.346,3-3,3s-3-1.346-3-3S32.316,79.329,33.97,79.329 M33.97,78.329
		c-2.206,0-4,1.795-4,4s1.794,4,4,4s4-1.795,4-4S36.176,78.329,33.97,78.329L33.97,78.329z"/>
</g>
<g>
	<path fill="#FFFFFF" d="M57.971,85.829c-1.931,0-3.501-1.57-3.501-3.5s1.57-3.5,3.501-3.5c1.929,0,3.499,1.57,3.499,3.5
		S59.9,85.829,57.971,85.829z"/>
	<path fill="#46CCB2" d="M57.971,79.329c1.654,0,2.999,1.346,2.999,3s-1.345,3-2.999,3c-1.655,0-3.001-1.346-3.001-3
		S56.316,79.329,57.971,79.329 M57.971,78.329c-2.206,0-4.001,1.795-4.001,4s1.795,4,4.001,4c2.205,0,3.999-1.795,3.999-4
		S60.176,78.329,57.971,78.329L57.971,78.329z"/>
</g>
<g>
	<path fill="#FFFFFF" d="M81.97,85.829c-1.93,0-3.5-1.57-3.5-3.5s1.57-3.5,3.5-3.5s3.5,1.57,3.5,3.5S83.9,85.829,81.97,85.829z"/>
	<path fill="#1DB784" d="M81.97,79.329c1.654,0,3,1.346,3,3s-1.346,3-3,3s-3-1.346-3-3S80.316,79.329,81.97,79.329 M81.97,78.329
		c-2.205,0-4,1.795-4,4s1.795,4,4,4c2.206,0,4-1.795,4-4S84.176,78.329,81.97,78.329L81.97,78.329z"/>
</g>
<g>
	<path fill="#FFFFFF" d="M159.971,85.829c-1.931,0-3.501-1.57-3.501-3.5s1.57-3.5,3.501-3.5c1.929,0,3.499,1.57,3.499,3.5
		S161.9,85.829,159.971,85.829z"/>
	<path fill="#1DB784" d="M159.971,79.329c1.654,0,2.999,1.346,2.999,3s-1.345,3-2.999,3c-1.655,0-3.001-1.346-3.001-3
		S158.316,79.329,159.971,79.329 M159.971,78.329c-2.206,0-4.001,1.795-4.001,4s1.795,4,4.001,4c2.205,0,3.999-1.795,3.999-4
		S162.176,78.329,159.971,78.329L159.971,78.329z"/>
</g>
<g>
	<path fill="#FFFFFF" d="M223.971,85.829c-1.93,0-3.5-1.57-3.5-3.5s1.57-3.5,3.5-3.5s3.5,1.57,3.5,3.5S225.9,85.829,223.971,85.829z
		"/>
	<path fill="#46CCB2" d="M223.971,79.329c1.654,0,3,1.346,3,3s-1.346,3-3,3s-3-1.346-3-3S222.316,79.329,223.971,79.329
		 M223.971,78.329c-2.207,0-4,1.795-4,4s1.793,4,4,4c2.205,0,4-1.795,4-4S226.176,78.329,223.971,78.329L223.971,78.329z"/>
</g>
<g>
	<path fill="#FFFFFF" d="M300.971,85.829c-1.93,0-3.5-1.57-3.5-3.5s1.57-3.5,3.5-3.5s3.5,1.57,3.5,3.5S302.9,85.829,300.971,85.829z
		"/>
	<path fill="#1DB784" d="M300.971,79.329c1.654,0,3,1.346,3,3s-1.346,3-3,3s-3-1.346-3-3S299.316,79.329,300.971,79.329
		 M300.971,78.329c-2.207,0-4,1.795-4,4s1.793,4,4,4c2.205,0,4-1.795,4-4S303.176,78.329,300.971,78.329L300.971,78.329z"/>
</g>
<rect x="355.971" y="0.329" fill="#1DB784" width="8" height="8"/>
<rect x="355.971" y="8.329" fill="#46CCB2" width="8" height="20.6"/>
<rect x="355.971" y="28.928" fill="#1DB784" width="8" height="47.4"/>
<rect x="355.971" y="76.329" fill="#46CCB2" width="8" height="56.8"/>
<rect x="355.971" y="133.129" fill="#1DB784" width="8" height="22.6"/>
<rect x="355.971" y="155.729" fill="#46CCB2" width="8" height="16.6"/>
<rect x="355.971" y="172.328" fill="#1DB784" width="8" height="28"/>
<path fill="#1DB784" d="M277.971,156.328c-4.419,0-8,3.582-8,8s3.581,8,8,8c4.418,0,8-3.582,8-8S282.389,156.328,277.971,156.328z
	 M277.971,170.729c-3.535,0-6.4-2.865-6.4-6.4s2.865-6.4,6.4-6.4c3.534,0,6.399,2.865,6.399,6.4S281.505,170.729,277.971,170.729z
	 M278.504,163.795v-2.133h2.133v-1.066h-2.133v-1.066h-1.066v1.066h-2.134v4.266h2.134v2.135h-2.134v1.066h2.134v1.066h1.066v-1.066
	h2.133l0,0v-4.268H278.504z M277.438,163.795h-1.067v-2.133h1.067V163.795z M279.57,166.996h-1.066v-2.135h1.066V166.996z"/>
<path fill="#1DB784" d="M297.971,156.328c-4.419,0-8,3.582-8,8s3.581,8,8,8c4.418,0,8-3.582,8-8S302.389,156.328,297.971,156.328z
	 M297.971,170.729c-3.535,0-6.4-2.865-6.4-6.4s2.865-6.4,6.4-6.4c3.534,0,6.399,2.865,6.399,6.4S301.505,170.729,297.971,170.729z
	 M298.504,163.795v-2.133h2.133v-1.066h-2.133v-1.066h-1.066v1.066h-2.134v4.266h2.134v2.135h-2.134v1.066h2.134v1.066h1.066v-1.066
	h2.133l0,0v-4.268H298.504z M297.438,163.795h-1.067v-2.133h1.067V163.795z M299.57,166.996h-1.066v-2.135h1.066V166.996z"/>
<path fill="#1DB784" d="M277.971,176.328c-4.419,0-8,3.582-8,8s3.581,8,8,8c4.418,0,8-3.582,8-8S282.389,176.328,277.971,176.328z
	 M277.971,190.729c-3.535,0-6.4-2.865-6.4-6.4s2.865-6.4,6.4-6.4c3.534,0,6.399,2.865,6.399,6.4S281.505,190.729,277.971,190.729z
	 M278.504,183.795v-2.133h2.133v-1.066h-2.133v-1.066h-1.066v1.066h-2.134v4.266h2.134v2.135h-2.134v1.066h2.134v1.066h1.066v-1.066
	h2.133l0,0v-4.268H278.504z M277.438,183.795h-1.067v-2.133h1.067V183.795z M279.57,186.996h-1.066v-2.135h1.066V186.996z"/>
<path fill="#1DB784" d="M297.971,176.328c-4.419,0-8,3.582-8,8s3.581,8,8,8c4.418,0,8-3.582,8-8S302.389,176.328,297.971,176.328z
	 M297.971,190.729c-3.535,0-6.4-2.865-6.4-6.4s2.865-6.4,6.4-6.4c3.534,0,6.399,2.865,6.399,6.4S301.505,190.729,297.971,190.729z
	 M298.504,183.795v-2.133h2.133v-1.066h-2.133v-1.066h-1.066v1.066h-2.134v4.266h2.134v2.135h-2.134v1.066h2.134v1.066h1.066v-1.066
	h2.133l0,0v-4.268H298.504z M297.438,183.795h-1.067v-2.133h1.067V183.795z M299.57,186.996h-1.066v-2.135h1.066V186.996z"/>
<path fill="#46CCB2" d="M233.971,156.328c-4.419,0-8,3.582-8,8s3.581,8,8,8c4.418,0,8-3.582,8-8S238.389,156.328,233.971,156.328z
	 M233.971,170.729c-3.535,0-6.4-2.865-6.4-6.4s2.865-6.4,6.4-6.4c3.534,0,6.399,2.865,6.399,6.4S237.505,170.729,233.971,170.729z
	 M234.504,163.795v-2.133h2.133v-1.066h-2.133v-1.066h-1.066v1.066h-2.134v4.266h2.134v2.135h-2.134v1.066h2.134v1.066h1.066v-1.066
	h2.133l0,0v-4.268H234.504z M233.438,163.795h-1.067v-2.133h1.067V163.795z M235.57,166.996h-1.066v-2.135h1.066V166.996z"/>
<path fill="#46CCB2" d="M253.971,156.328c-4.419,0-8,3.582-8,8s3.581,8,8,8c4.418,0,8-3.582,8-8S258.389,156.328,253.971,156.328z
	 M253.971,170.729c-3.535,0-6.4-2.865-6.4-6.4s2.865-6.4,6.4-6.4c3.534,0,6.399,2.865,6.399,6.4S257.505,170.729,253.971,170.729z
	 M254.504,163.795v-2.133h2.133v-1.066h-2.133v-1.066h-1.066v1.066h-2.134v4.266h2.134v2.135h-2.134v1.066h2.134v1.066h1.066v-1.066
	h2.133l0,0v-4.268H254.504z M253.438,163.795h-1.067v-2.133h1.067V163.795z M255.57,166.996h-1.066v-2.135h1.066V166.996z"/>
<path fill="#46CCB2" d="M233.971,176.328c-4.419,0-8,3.582-8,8s3.581,8,8,8c4.418,0,8-3.582,8-8S238.389,176.328,233.971,176.328z
	 M233.971,190.729c-3.535,0-6.4-2.865-6.4-6.4s2.865-6.4,6.4-6.4c3.534,0,6.399,2.865,6.399,6.4S237.505,190.729,233.971,190.729z
	 M234.504,183.795v-2.133h2.133v-1.066h-2.133v-1.066h-1.066v1.066h-2.134v4.266h2.134v2.135h-2.134v1.066h2.134v1.066h1.066v-1.066
	h2.133l0,0v-4.268H234.504z M233.438,183.795h-1.067v-2.133h1.067V183.795z M235.57,186.996h-1.066v-2.135h1.066V186.996z"/>
<path fill="#46CCB2" d="M253.971,176.328c-4.419,0-8,3.582-8,8s3.581,8,8,8c4.418,0,8-3.582,8-8S258.389,176.328,253.971,176.328z
	 M253.971,190.729c-3.535,0-6.4-2.865-6.4-6.4s2.865-6.4,6.4-6.4c3.534,0,6.399,2.865,6.399,6.4S257.505,190.729,253.971,190.729z
	 M254.504,183.795v-2.133h2.133v-1.066h-2.133v-1.066h-1.066v1.066h-2.134v4.266h2.134v2.135h-2.134v1.066h2.134v1.066h1.066v-1.066
	h2.133l0,0v-4.268H254.504z M253.438,183.795h-1.067v-2.133h1.067V183.795z M255.57,186.996h-1.066v-2.135h1.066V186.996z"/>
<path fill="#46CCB2" d="M193.971,156.328c-4.419,0-8,3.582-8,8s3.582,8,8,8c4.418,0,8-3.582,8-8S198.389,156.328,193.971,156.328z
	 M193.971,170.729c-3.535,0-6.4-2.865-6.4-6.4s2.865-6.4,6.4-6.4c3.534,0,6.399,2.865,6.399,6.4S197.505,170.729,193.971,170.729z
	 M194.504,163.795v-2.133h2.133v-1.066h-2.133v-1.066h-1.066v1.066h-2.134v4.266h2.134v2.135h-2.134v1.066h2.134v1.066h1.066v-1.066
	h2.133l0,0v-4.268H194.504z M193.438,163.795h-1.067v-2.133h1.067V163.795z M195.57,166.996h-1.066v-2.135h1.066V166.996z"/>
<path fill="#46CCB2" d="M213.971,156.328c-4.419,0-8,3.582-8,8s3.581,8,8,8c4.418,0,8-3.582,8-8S218.389,156.328,213.971,156.328z
	 M213.971,170.729c-3.535,0-6.4-2.865-6.4-6.4s2.865-6.4,6.4-6.4c3.534,0,6.399,2.865,6.399,6.4S217.505,170.729,213.971,170.729z
	 M214.504,163.795v-2.133h2.133v-1.066h-2.133v-1.066h-1.066v1.066h-2.134v4.266h2.134v2.135h-2.134v1.066h2.134v1.066h1.066v-1.066
	h2.133l0,0v-4.268H214.504z M213.438,163.795h-1.067v-2.133h1.067V163.795z M215.57,166.996h-1.066v-2.135h1.066V166.996z"/>
<path fill="#46CCB2" d="M193.971,176.328c-4.419,0-8,3.582-8,8s3.582,8,8,8c4.418,0,8-3.582,8-8S198.389,176.328,193.971,176.328z
	 M193.971,190.729c-3.535,0-6.4-2.865-6.4-6.4s2.865-6.4,6.4-6.4c3.534,0,6.399,2.865,6.399,6.4S197.505,190.729,193.971,190.729z
	 M194.504,183.795v-2.133h2.133v-1.066h-2.133v-1.066h-1.066v1.066h-2.134v4.266h2.134v2.135h-2.134v1.066h2.134v1.066h1.066v-1.066
	h2.133l0,0v-4.268H194.504z M193.438,183.795h-1.067v-2.133h1.067V183.795z M195.57,186.996h-1.066v-2.135h1.066V186.996z"/>
<path fill="#46CCB2" d="M213.971,176.328c-4.419,0-8,3.582-8,8s3.581,8,8,8c4.418,0,8-3.582,8-8S218.389,176.328,213.971,176.328z
	 M213.971,190.729c-3.535,0-6.4-2.865-6.4-6.4s2.865-6.4,6.4-6.4c3.534,0,6.399,2.865,6.399,6.4S217.505,190.729,213.971,190.729z
	 M214.504,183.795v-2.133h2.133v-1.066h-2.133v-1.066h-1.066v1.066h-2.134v4.266h2.134v2.135h-2.134v1.066h2.134v1.066h1.066v-1.066
	h2.133l0,0v-4.268H214.504z M213.438,183.795h-1.067v-2.133h1.067V183.795z M215.57,186.996h-1.066v-2.135h1.066V186.996z"/>
<path fill="#1DB784" d="M149.97,156.328c-4.418,0-8,3.582-8,8s3.582,8,8,8s8-3.582,8-8S154.389,156.328,149.97,156.328z
	 M149.97,170.729c-3.535,0-6.4-2.865-6.4-6.4s2.865-6.4,6.4-6.4s6.4,2.865,6.4,6.4S153.505,170.729,149.97,170.729z
	 M150.503,163.795v-2.133h2.133v-1.066h-2.133v-1.066h-1.066v1.066h-2.133v4.266h2.133v2.135h-2.133v1.066h2.133v1.066h1.066v-1.066
	h2.133h0l0-4.268H150.503z M149.437,163.795h-1.067v-2.133h1.067V163.795z M151.57,166.996h-1.067v-2.135h1.067V166.996z"/>
<path fill="#1DB784" d="M169.97,156.328c-4.418,0-8,3.582-8,8s3.582,8,8,8s8-3.582,8-8S174.389,156.328,169.97,156.328z
	 M169.97,170.729c-3.535,0-6.4-2.865-6.4-6.4s2.865-6.4,6.4-6.4s6.4,2.865,6.4,6.4S173.505,170.729,169.97,170.729z
	 M170.503,163.795v-2.133h2.133v-1.066h-2.133v-1.066h-1.066v1.066h-2.133v4.266h2.133v2.135h-2.133v1.066h2.133v1.066h1.066v-1.066
	h2.133h0l0-4.268H170.503z M169.437,163.795h-1.067v-2.133h1.067V163.795z M171.57,166.996h-1.067v-2.135h1.067V166.996z"/>
<path fill="#1DB784" d="M149.97,176.328c-4.418,0-8,3.582-8,8s3.582,8,8,8s8-3.582,8-8S154.389,176.328,149.97,176.328z
	 M149.97,190.729c-3.535,0-6.4-2.865-6.4-6.4s2.865-6.4,6.4-6.4s6.4,2.865,6.4,6.4S153.505,190.729,149.97,190.729z
	 M150.503,183.795v-2.133h2.133v-1.066h-2.133v-1.066h-1.066v1.066h-2.133v4.266h2.133v2.135h-2.133v1.066h2.133v1.066h1.066v-1.066
	h2.133h0l0-4.268H150.503z M149.437,183.795h-1.067v-2.133h1.067V183.795z M151.57,186.996h-1.067v-2.135h1.067V186.996z"/>
<path fill="#1DB784" d="M169.97,176.328c-4.418,0-8,3.582-8,8s3.582,8,8,8s8-3.582,8-8S174.389,176.328,169.97,176.328z
	 M169.97,190.729c-3.535,0-6.4-2.865-6.4-6.4s2.865-6.4,6.4-6.4s6.4,2.865,6.4,6.4S173.505,190.729,169.97,190.729z
	 M170.503,183.795v-2.133h2.133v-1.066h-2.133v-1.066h-1.066v1.066h-2.133v4.266h2.133v2.135h-2.133v1.066h2.133v1.066h1.066v-1.066
	h2.133h0l0-4.268H170.503z M169.437,183.795h-1.067v-2.133h1.067V183.795z M171.57,186.996h-1.067v-2.135h1.067V186.996z"/>
<path fill="#46CCB2" d="M105.97,156.328c-4.418,0-8,3.582-8,8s3.582,8,8,8s8-3.582,8-8S110.389,156.328,105.97,156.328z
	 M105.97,170.729c-3.535,0-6.4-2.865-6.4-6.4s2.865-6.4,6.4-6.4s6.4,2.865,6.4,6.4S109.505,170.729,105.97,170.729z
	 M106.503,163.795v-2.133h2.133v-1.066h-2.133v-1.066h-1.066v1.066h-2.133v4.266h2.133v2.135h-2.133v1.066h2.133v1.066h1.066v-1.066
	h2.133h0l0-4.268H106.503z M105.437,163.795h-1.067v-2.133h1.067V163.795z M107.57,166.996h-1.067v-2.135h1.067V166.996z"/>
<path fill="#46CCB2" d="M125.97,156.328c-4.418,0-8,3.582-8,8s3.582,8,8,8s8-3.582,8-8S130.389,156.328,125.97,156.328z
	 M125.97,170.729c-3.535,0-6.4-2.865-6.4-6.4s2.865-6.4,6.4-6.4s6.4,2.865,6.4,6.4S129.505,170.729,125.97,170.729z
	 M126.503,163.795v-2.133h2.133v-1.066h-2.133v-1.066h-1.066v1.066h-2.133v4.266h2.133v2.135h-2.133v1.066h2.133v1.066h1.066v-1.066
	h2.133h0l0-4.268H126.503z M125.437,163.795h-1.067v-2.133h1.067V163.795z M127.57,166.996h-1.067v-2.135h1.067V166.996z"/>
<path fill="#46CCB2" d="M105.97,176.328c-4.418,0-8,3.582-8,8s3.582,8,8,8s8-3.582,8-8S110.389,176.328,105.97,176.328z
	 M105.97,190.729c-3.535,0-6.4-2.865-6.4-6.4s2.865-6.4,6.4-6.4s6.4,2.865,6.4,6.4S109.505,190.729,105.97,190.729z
	 M106.503,183.795v-2.133h2.133v-1.066h-2.133v-1.066h-1.066v1.066h-2.133v4.266h2.133v2.135h-2.133v1.066h2.133v1.066h1.066v-1.066
	h2.133h0l0-4.268H106.503z M105.437,183.795h-1.067v-2.133h1.067V183.795z M107.57,186.996h-1.067v-2.135h1.067V186.996z"/>
<path fill="#46CCB2" d="M125.97,176.328c-4.418,0-8,3.582-8,8s3.582,8,8,8s8-3.582,8-8S130.389,176.328,125.97,176.328z
	 M125.97,190.729c-3.535,0-6.4-2.865-6.4-6.4s2.865-6.4,6.4-6.4s6.4,2.865,6.4,6.4S129.505,190.729,125.97,190.729z
	 M126.503,183.795v-2.133h2.133v-1.066h-2.133v-1.066h-1.066v1.066h-2.133v4.266h2.133v2.135h-2.133v1.066h2.133v1.066h1.066v-1.066
	h2.133h0l0-4.268H126.503z M125.437,183.795h-1.067v-2.133h1.067V183.795z M127.57,186.996h-1.067v-2.135h1.067V186.996z"/>
<path fill="#46CCB2" d="M57.97,166.328c-4.418,0-8,3.582-8,8s3.582,8,8,8s8-3.582,8-8S62.389,166.328,57.97,166.328z M57.97,180.729
	c-3.535,0-6.4-2.865-6.4-6.4s2.865-6.4,6.4-6.4s6.4,2.865,6.4,6.4S61.505,180.729,57.97,180.729z M58.503,173.795v-2.133h2.133
	v-1.066h-2.133v-1.066h-1.066v1.066h-2.133v4.266h2.133v2.135h-2.133v1.066h2.133v1.066h1.066v-1.066h2.133h0l0-4.268H58.503z
	 M57.437,173.795H56.37v-2.133h1.067V173.795z M59.57,176.996h-1.067v-2.135h1.067V176.996z"/>
<path fill="#1DB784" d="M81.97,156.328c-4.418,0-8,3.582-8,8s3.582,8,8,8s8-3.582,8-8S86.389,156.328,81.97,156.328z M81.97,170.729
	c-3.535,0-6.4-2.865-6.4-6.4s2.865-6.4,6.4-6.4s6.4,2.865,6.4,6.4S85.505,170.729,81.97,170.729z M82.503,163.795v-2.133h2.133
	v-1.066h-2.133v-1.066h-1.066v1.066h-2.133v4.266h2.133v2.135h-2.133v1.066h2.133v1.066h1.066v-1.066h2.133h0l0-4.268H82.503z
	 M81.437,163.795H80.37v-2.133h1.067V163.795z M83.57,166.996h-1.067v-2.135h1.067V166.996z"/>
<path fill="#1DB784" d="M33.97,166.328c-4.418,0-8,3.582-8,8s3.582,8,8,8s8-3.582,8-8S38.389,166.328,33.97,166.328z M33.97,180.729
	c-3.535,0-6.4-2.865-6.4-6.4s2.865-6.4,6.4-6.4s6.4,2.865,6.4,6.4S37.505,180.729,33.97,180.729z M34.503,173.795v-2.133h2.133
	v-1.066h-2.133v-1.066h-1.066v1.066h-2.133v4.266h2.133v2.135h-2.133v1.066h2.133v1.066h1.066v-1.066h2.133h0l0-4.268H34.503z
	 M33.437,173.795H32.37v-2.133h1.067V173.795z M35.57,176.996h-1.067v-2.135h1.067V176.996z"/>
<path fill="#1DB784" d="M81.97,176.328c-4.418,0-8,3.582-8,8s3.582,8,8,8s8-3.582,8-8S86.389,176.328,81.97,176.328z M81.97,190.729
	c-3.535,0-6.4-2.865-6.4-6.4s2.865-6.4,6.4-6.4s6.4,2.865,6.4,6.4S85.505,190.729,81.97,190.729z M82.503,183.795v-2.133h2.133
	v-1.066h-2.133v-1.066h-1.066v1.066h-2.133v4.266h2.133v2.135h-2.133v1.066h2.133v1.066h1.066v-1.066h2.133h0l0-4.268H82.503z
	 M81.437,183.795H80.37v-2.133h1.067V183.795z M83.57,186.996h-1.067v-2.135h1.067V186.996z"/>
<circle fill="#1DB784" cx="312.971" cy="174.328" r="3"/>
<circle fill="#1DB784" cx="320.971" cy="174.328" r="3"/>
<circle fill="#1DB784" cx="328.971" cy="174.328" r="3"/>
<line fill="none" stroke="#46CCB2" stroke-miterlimit="10" x1="65.97" y1="148.328" x2="49.97" y2="148.328"/>
<line fill="none" stroke="#1DB784" stroke-miterlimit="10" x1="89.97" y1="148.328" x2="73.97" y2="148.328"/>
<line fill="none" stroke="#1DB784" stroke-miterlimit="10" x1="41.97" y1="148.328" x2="25.97" y2="148.328"/>
<line fill="none" stroke="#46CCB2" stroke-miterlimit="10" x1="133.97" y1="148.328" x2="97.97" y2="148.328"/>
<line fill="none" stroke="#1DB784" stroke-miterlimit="10" x1="177.97" y1="148.328" x2="141.97" y2="148.328"/>
<line fill="none" stroke="#46CCB2" stroke-miterlimit="10" x1="261.971" y1="148.328" x2="185.97" y2="148.328"/>
<line fill="none" stroke="#1DB784" stroke-miterlimit="10" x1="331.971" y1="148.328" x2="269.971" y2="148.328"/>
<line fill="none" stroke="#46CCB2" stroke-miterlimit="10" x1="65.97" y1="200.328" x2="49.97" y2="200.328"/>
<line fill="none" stroke="#1DB784" stroke-miterlimit="10" x1="89.97" y1="200.328" x2="73.97" y2="200.328"/>
<line fill="none" stroke="#1DB784" stroke-miterlimit="10" x1="41.97" y1="200.328" x2="25.97" y2="200.328"/>
<line fill="none" stroke="#46CCB2" stroke-miterlimit="10" x1="133.97" y1="200.328" x2="97.97" y2="200.328"/>
<line fill="none" stroke="#1DB784" stroke-miterlimit="10" x1="177.97" y1="200.328" x2="141.97" y2="200.328"/>
<line fill="none" stroke="#46CCB2" stroke-miterlimit="10" x1="261.971" y1="200.328" x2="185.97" y2="200.328"/>
<line fill="none" stroke="#1DB784" stroke-miterlimit="10" x1="331.971" y1="200.328" x2="269.971" y2="200.328"/>
<g>
	<g>
		<g>
			<path fill="#909090" d="M151.142,211.168c0,0.457-0.12,0.859-0.36,1.207c-0.24,0.348-0.564,0.617-0.972,0.811
				c0.12,0.191,0.254,0.408,0.402,0.652c0.148,0.244,0.298,0.504,0.45,0.781c0.152,0.275,0.302,0.559,0.45,0.852
				c0.148,0.293,0.286,0.578,0.414,0.857h-1.056c-0.24-0.576-0.502-1.127-0.786-1.656c-0.284-0.527-0.558-0.955-0.822-1.283
				c-0.048,0.008-0.118,0.012-0.21,0.012c-0.092,0-0.154,0-0.186,0h-0.84v2.928h-0.996v-7.32c0.12-0.031,0.258-0.059,0.414-0.084
				c0.156-0.023,0.316-0.041,0.48-0.053c0.164-0.012,0.326-0.021,0.486-0.031c0.16-0.008,0.304-0.012,0.432-0.012
				c0.896,0,1.57,0.197,2.022,0.588C150.916,209.809,151.142,210.393,151.142,211.168z M148.526,209.68
				c-0.184,0-0.362,0.004-0.534,0.008s-0.294,0.014-0.366,0.029v2.867h0.636c0.288,0,0.546-0.02,0.774-0.059
				c0.228-0.041,0.424-0.115,0.588-0.223s0.29-0.256,0.378-0.443c0.088-0.189,0.132-0.436,0.132-0.738
				c0-0.289-0.044-0.523-0.132-0.709c-0.088-0.184-0.204-0.33-0.348-0.438s-0.314-0.184-0.51-0.229
				C148.948,209.703,148.742,209.68,148.526,209.68z"/>
			<path fill="#909090" d="M155.078,210.629c0.752,0,1.332,0.234,1.74,0.701c0.408,0.469,0.612,1.178,0.612,2.131v0.348h-3.984
				c0.04,0.576,0.23,1.014,0.57,1.314c0.34,0.299,0.818,0.449,1.434,0.449c0.352,0,0.652-0.027,0.9-0.084
				c0.248-0.055,0.436-0.115,0.564-0.18l0.132,0.84c-0.12,0.064-0.336,0.133-0.648,0.205c-0.312,0.07-0.665,0.107-1.056,0.107
				c-0.48,0-0.902-0.074-1.266-0.223c-0.364-0.148-0.666-0.35-0.906-0.605c-0.24-0.256-0.42-0.562-0.54-0.918
				c-0.12-0.355-0.18-0.742-0.18-1.158c0-0.496,0.076-0.928,0.228-1.297c0.152-0.367,0.352-0.672,0.6-0.912
				c0.248-0.238,0.528-0.42,0.84-0.539S154.75,210.629,155.078,210.629z M156.422,213.004c0-0.471-0.125-0.846-0.372-1.121
				c-0.248-0.275-0.576-0.414-0.984-0.414c-0.232,0-0.442,0.043-0.63,0.133c-0.188,0.088-0.35,0.203-0.486,0.348
				c-0.136,0.143-0.244,0.307-0.324,0.492c-0.08,0.184-0.132,0.371-0.156,0.562H156.422z"/>
			<path fill="#909090" d="M158.822,210.916c0.36-0.088,0.718-0.156,1.074-0.203c0.356-0.049,0.69-0.072,1.002-0.072
				c0.744,0,1.306,0.191,1.686,0.576s0.57,1,0.57,1.848v3.264h-0.984v-3.084c0-0.359-0.032-0.652-0.096-0.875
				c-0.064-0.225-0.154-0.398-0.27-0.523c-0.116-0.123-0.256-0.209-0.42-0.258c-0.164-0.047-0.342-0.07-0.534-0.07
				c-0.16,0-0.33,0.01-0.51,0.029c-0.18,0.02-0.354,0.045-0.522,0.078v4.703h-0.996V210.916z"/>
			<path fill="#909090" d="M168.122,208.18l0.996-0.168v8.16c-0.216,0.064-0.492,0.129-0.828,0.193
				c-0.336,0.062-0.728,0.096-1.176,0.096c-0.4,0-0.764-0.068-1.092-0.205c-0.328-0.135-0.608-0.33-0.84-0.582
				s-0.412-0.557-0.54-0.918c-0.128-0.359-0.192-0.764-0.192-1.211c0-0.432,0.054-0.826,0.162-1.182
				c0.108-0.357,0.266-0.662,0.474-0.918c0.208-0.256,0.458-0.457,0.75-0.602c0.292-0.143,0.625-0.215,1.002-0.215
				c0.296,0,0.556,0.035,0.78,0.107s0.392,0.148,0.504,0.229V208.18z M168.122,211.938c-0.112-0.105-0.276-0.203-0.492-0.295
				c-0.216-0.092-0.44-0.139-0.672-0.139c-0.264,0-0.49,0.053-0.678,0.156c-0.188,0.105-0.342,0.246-0.462,0.426
				c-0.12,0.182-0.208,0.396-0.264,0.648c-0.056,0.252-0.084,0.521-0.084,0.811c0,0.648,0.152,1.148,0.456,1.5
				c0.304,0.352,0.7,0.527,1.188,0.527c0.248,0,0.458-0.012,0.63-0.035c0.172-0.025,0.298-0.049,0.378-0.072V211.938z"/>
			<path fill="#909090" d="M172.934,210.629c0.416,0,0.766,0.053,1.05,0.156c0.284,0.104,0.514,0.248,0.69,0.432
				c0.176,0.184,0.3,0.408,0.372,0.672c0.072,0.264,0.108,0.553,0.108,0.863v3.48c-0.232,0.041-0.538,0.088-0.918,0.145
				c-0.38,0.055-0.77,0.084-1.17,0.084c-0.304,0-0.6-0.027-0.888-0.078c-0.288-0.053-0.544-0.145-0.768-0.275
				c-0.224-0.133-0.404-0.314-0.54-0.547s-0.204-0.527-0.204-0.889c0-0.318,0.07-0.59,0.21-0.809c0.14-0.221,0.32-0.398,0.54-0.535
				c0.22-0.135,0.472-0.234,0.756-0.293c0.284-0.061,0.57-0.09,0.858-0.09c0.392,0,0.776,0.043,1.152,0.131v-0.275
				c0-0.168-0.018-0.33-0.054-0.486c-0.036-0.156-0.104-0.297-0.204-0.426c-0.1-0.129-0.236-0.23-0.408-0.307
				s-0.394-0.113-0.666-0.113c-0.344,0-0.644,0.023-0.9,0.072c-0.256,0.047-0.452,0.096-0.588,0.145l-0.12-0.816
				c0.136-0.064,0.362-0.121,0.678-0.168C172.236,210.652,172.574,210.629,172.934,210.629z M173.03,215.621
				c0.248,0,0.47-0.008,0.666-0.025c0.196-0.016,0.358-0.035,0.486-0.059v-1.656c-0.128-0.041-0.282-0.072-0.462-0.096
				c-0.18-0.025-0.37-0.037-0.57-0.037c-0.184,0-0.364,0.014-0.54,0.043c-0.176,0.027-0.332,0.078-0.468,0.15
				c-0.136,0.07-0.248,0.166-0.336,0.281s-0.132,0.262-0.132,0.438c0,0.361,0.122,0.611,0.366,0.75
				C172.284,215.551,172.614,215.621,173.03,215.621z"/>
		</g>
	</g>
	<g>
		<g>
			
				<line fill="none" stroke="#909090" stroke-linecap="round" stroke-miterlimit="10" x1="179.97" y1="212.328" x2="211.068" y2="212.328"/>
			<g>
				<path fill="#909090" d="M205.943,215.928c-0.111-0.174-0.061-0.406,0.114-0.518l4.839-3.082l-4.839-3.082
					c-0.175-0.111-0.226-0.344-0.114-0.518s0.344-0.225,0.518-0.115l5.336,3.398c0.107,0.068,0.174,0.189,0.174,0.316
					c0,0.129-0.066,0.248-0.174,0.316l-5.336,3.398c-0.062,0.039-0.133,0.059-0.201,0.059
					C206.136,216.102,206.015,216.041,205.943,215.928z"/>
			</g>
		</g>
	</g>
</g>
</svg>
