<?xml version="1.0" encoding="utf-8"?>
<!-- Generator: Adobe Illustrator 16.0.0, SVG Export Plug-In . SVG Version: 6.00 Build 0)  -->
<!DOCTYPE svg PUBLIC "-//W3C//DTD SVG 1.1//EN" "http://www.w3.org/Graphics/SVG/1.1/DTD/svg11.dtd">
<svg version="1.1" id="Layer_1" xmlns="http://www.w3.org/2000/svg" xmlns:xlink="http://www.w3.org/1999/xlink" x="0px" y="0px"
	 width="648px" height="212px" viewBox="0 0 648 212" enable-background="new 0 0 648 212" xml:space="preserve">
<circle fill="#F0F0F0" cx="100" cy="100" r="80"/>
<circle fill="#F0F0F0" cx="548" cy="100" r="80"/>
<path fill="#42B3C6" d="M470.146,81.619C468.758,87.523,468,93.672,468,100c0,44.182,35.817,80,80,80s80-35.818,80-80
	c0-44.182-35.817-80-80-80v80L470.146,81.619z"/>
<path fill="#42B3C6" d="M179.92,103.165c0.041-1.052,0.08-2.104,0.08-3.165c0-44.182-35.817-80-80-80v80L179.92,103.165z"/>
<circle fill="#C8C8B4" cx="324" cy="100" r="100"/>
<path fill="#8CD2BE" d="M385.983,178.475C409.14,160.158,424,131.814,424,100C424,44.772,379.229,0,324,0v100L385.983,178.475z"/>
<circle fill="#FFFFFF" cx="324" cy="100" r="80"/>
<g enable-background="new    ">
	<path fill="#C8C8B4" d="M293.85,121.762c0.612-0.24,1.206-0.543,1.782-0.909c0.576-0.366,1.11-0.831,1.602-1.395h1.044v9.882h2.106
		v1.26h-5.994v-1.26h2.412v-7.812c-0.132,0.12-0.291,0.243-0.477,0.369c-0.187,0.126-0.39,0.249-0.612,0.369
		s-0.453,0.234-0.693,0.342c-0.24,0.108-0.474,0.198-0.702,0.271L293.85,121.762z"/>
	<path fill="#C8C8B4" d="M302.328,125.02c0-1.872,0.321-3.309,0.963-4.311c0.642-1.002,1.545-1.503,2.709-1.503
		c1.176,0,2.082,0.501,2.718,1.503c0.636,1.002,0.954,2.438,0.954,4.311s-0.318,3.31-0.954,4.312
		c-0.636,1.002-1.542,1.503-2.718,1.503c-1.164,0-2.067-0.501-2.709-1.503C302.649,128.329,302.328,126.892,302.328,125.02z
		 M308.16,125.02c0-0.612-0.036-1.19-0.108-1.737c-0.072-0.546-0.192-1.022-0.36-1.431s-0.39-0.731-0.666-0.972
		s-0.618-0.36-1.026-0.36c-0.408,0-0.75,0.12-1.026,0.36c-0.276,0.24-0.498,0.563-0.666,0.972c-0.168,0.408-0.288,0.885-0.36,1.431
		c-0.072,0.547-0.108,1.125-0.108,1.737s0.036,1.191,0.108,1.737c0.072,0.546,0.191,1.023,0.36,1.431
		c0.168,0.408,0.39,0.732,0.666,0.972c0.276,0.24,0.618,0.36,1.026,0.36c0.408,0,0.75-0.12,1.026-0.36
		c0.276-0.239,0.498-0.563,0.666-0.972c0.168-0.407,0.288-0.885,0.36-1.431C308.124,126.211,308.16,125.632,308.16,125.02z
		 M307.044,124.821c0,0.312-0.093,0.582-0.279,0.811c-0.187,0.228-0.429,0.342-0.729,0.342c-0.312,0-0.564-0.114-0.756-0.342
		c-0.192-0.229-0.288-0.498-0.288-0.811c0-0.312,0.096-0.588,0.288-0.828c0.192-0.239,0.444-0.359,0.756-0.359
		c0.3,0,0.542,0.12,0.729,0.359C306.951,124.233,307.044,124.51,307.044,124.821z"/>
	<path fill="#C8C8B4" d="M311.85,121.762c0.612-0.24,1.206-0.543,1.782-0.909c0.576-0.366,1.11-0.831,1.602-1.395h1.044v9.882h2.106
		v1.26h-5.994v-1.26h2.412v-7.812c-0.132,0.12-0.291,0.243-0.477,0.369c-0.187,0.126-0.39,0.249-0.612,0.369
		s-0.453,0.234-0.693,0.342c-0.24,0.108-0.474,0.198-0.702,0.271L311.85,121.762z"/>
	<path fill="#C8C8B4" d="M325.332,129.447c0,0.36-0.12,0.679-0.359,0.954c-0.24,0.276-0.559,0.414-0.955,0.414
		c-0.408,0-0.732-0.138-0.972-0.414c-0.24-0.275-0.36-0.594-0.36-0.954c0-0.371,0.12-0.695,0.36-0.972s0.564-0.414,0.972-0.414
		c0.396,0,0.714,0.138,0.955,0.414C325.212,128.752,325.332,129.076,325.332,129.447z"/>
	<path fill="#C8C8B4" d="M336.061,122.302c0,0.384-0.076,0.756-0.226,1.116c-0.15,0.359-0.349,0.714-0.594,1.062
		c-0.246,0.349-0.525,0.69-0.837,1.026c-0.312,0.336-0.631,0.666-0.954,0.99c-0.181,0.18-0.39,0.396-0.63,0.647
		s-0.469,0.51-0.684,0.774c-0.217,0.264-0.396,0.521-0.541,0.773c-0.144,0.252-0.216,0.468-0.216,0.648h5.13v1.26h-6.75
		c-0.012-0.06-0.018-0.123-0.018-0.189c0-0.065,0-0.128,0-0.188c0-0.504,0.084-0.972,0.252-1.404
		c0.168-0.432,0.384-0.84,0.648-1.224c0.264-0.384,0.561-0.747,0.891-1.089s0.656-0.675,0.98-0.999
		c0.264-0.264,0.52-0.522,0.766-0.774s0.461-0.504,0.647-0.756s0.336-0.513,0.45-0.783c0.113-0.27,0.171-0.549,0.171-0.837
		c0-0.324-0.052-0.6-0.153-0.828c-0.102-0.228-0.24-0.417-0.414-0.566c-0.174-0.15-0.375-0.262-0.603-0.333
		c-0.228-0.072-0.474-0.108-0.737-0.108c-0.312,0-0.598,0.042-0.855,0.126s-0.486,0.187-0.684,0.306
		c-0.199,0.12-0.369,0.237-0.514,0.352s-0.252,0.207-0.324,0.279l-0.738-1.044c0.097-0.108,0.24-0.24,0.433-0.396
		s0.423-0.303,0.692-0.441c0.271-0.138,0.574-0.255,0.91-0.351s0.695-0.144,1.08-0.144c1.163,0,2.024,0.267,2.582,0.801
		C335.781,120.541,336.061,121.306,336.061,122.302z"/>
	<path fill="#C8C8B4" d="M338.473,126.136c0-1.08,0.146-2.037,0.44-2.871s0.714-1.533,1.26-2.097
		c0.546-0.564,1.209-0.996,1.989-1.296c0.779-0.3,1.662-0.456,2.646-0.469l0.125,1.261c-0.636,0.012-1.215,0.08-1.736,0.207
		c-0.522,0.126-0.987,0.33-1.396,0.611c-0.407,0.282-0.75,0.646-1.026,1.089c-0.275,0.444-0.485,0.99-0.629,1.639
		c0.287-0.132,0.603-0.24,0.944-0.324c0.343-0.084,0.705-0.126,1.089-0.126c0.624,0,1.155,0.096,1.594,0.288
		c0.438,0.191,0.789,0.447,1.053,0.765c0.264,0.318,0.455,0.688,0.576,1.107c0.119,0.42,0.18,0.852,0.18,1.296
		c0,0.408-0.066,0.825-0.198,1.251s-0.336,0.816-0.612,1.17c-0.275,0.354-0.629,0.642-1.062,0.864
		c-0.433,0.222-0.948,0.333-1.548,0.333c-1.236,0-2.16-0.414-2.771-1.242C338.777,128.764,338.473,127.611,338.473,126.136z
		 M342.018,124.983c-0.384,0-0.734,0.036-1.053,0.108s-0.639,0.18-0.963,0.324c-0.012,0.12-0.018,0.236-0.018,0.351s0,0.237,0,0.369
		c0,0.468,0.033,0.909,0.099,1.323s0.181,0.78,0.342,1.098c0.162,0.318,0.381,0.57,0.657,0.756c0.275,0.187,0.63,0.279,1.062,0.279
		c0.359,0,0.659-0.075,0.899-0.226c0.239-0.149,0.438-0.339,0.595-0.566c0.155-0.228,0.266-0.483,0.332-0.766
		c0.066-0.281,0.1-0.549,0.1-0.801c0-0.731-0.166-1.29-0.495-1.674C343.244,125.176,342.727,124.983,342.018,124.983z"/>
	<path fill="#C8C8B4" d="M347.328,125.02c0-1.872,0.32-3.309,0.963-4.311c0.642-1.002,1.545-1.503,2.709-1.503
		c1.176,0,2.082,0.501,2.718,1.503s0.954,2.438,0.954,4.311s-0.318,3.31-0.954,4.312s-1.542,1.503-2.718,1.503
		c-1.164,0-2.067-0.501-2.709-1.503C347.648,128.329,347.328,126.892,347.328,125.02z M353.16,125.02
		c0-0.612-0.036-1.19-0.108-1.737c-0.071-0.546-0.192-1.022-0.36-1.431s-0.39-0.731-0.666-0.972c-0.275-0.24-0.617-0.36-1.025-0.36
		s-0.75,0.12-1.025,0.36c-0.277,0.24-0.498,0.563-0.666,0.972c-0.169,0.408-0.289,0.885-0.36,1.431
		c-0.072,0.547-0.108,1.125-0.108,1.737s0.036,1.191,0.108,1.737c0.071,0.546,0.191,1.023,0.36,1.431
		c0.168,0.408,0.389,0.732,0.666,0.972c0.275,0.24,0.617,0.36,1.025,0.36s0.75-0.12,1.025-0.36c0.276-0.239,0.498-0.563,0.666-0.972
		c0.168-0.407,0.289-0.885,0.36-1.431C353.124,126.211,353.16,125.632,353.16,125.02z M352.044,124.821
		c0,0.312-0.093,0.582-0.278,0.811c-0.188,0.228-0.43,0.342-0.729,0.342c-0.312,0-0.564-0.114-0.757-0.342
		c-0.191-0.229-0.287-0.498-0.287-0.811c0-0.312,0.096-0.588,0.287-0.828c0.192-0.239,0.444-0.359,0.757-0.359
		c0.3,0,0.542,0.12,0.729,0.359C351.951,124.233,352.044,124.51,352.044,124.821z"/>
</g>
<g enable-background="new    ">
	<path fill="#909090" d="M291.852,141.188c0.36-0.088,0.718-0.156,1.074-0.204s0.69-0.072,1.002-0.072
		c0.744,0,1.306,0.192,1.686,0.576c0.38,0.385,0.57,1,0.57,1.849v3.264H295.2v-3.084c0-0.36-0.032-0.652-0.096-0.876
		s-0.154-0.397-0.27-0.522c-0.116-0.123-0.256-0.21-0.42-0.258c-0.164-0.048-0.342-0.071-0.534-0.071c-0.16,0-0.33,0.01-0.51,0.029
		c-0.18,0.021-0.354,0.046-0.522,0.078v4.704h-0.996V141.188z"/>
	<path fill="#909090" d="M299.964,140.899c0.416,0,0.766,0.053,1.05,0.156c0.284,0.104,0.514,0.248,0.69,0.432
		c0.176,0.185,0.3,0.408,0.372,0.672c0.072,0.265,0.108,0.553,0.108,0.864v3.48c-0.232,0.04-0.538,0.088-0.918,0.144
		c-0.38,0.056-0.77,0.084-1.17,0.084c-0.304,0-0.6-0.026-0.888-0.078s-0.544-0.144-0.768-0.275s-0.404-0.314-0.54-0.546
		c-0.136-0.232-0.204-0.528-0.204-0.889c0-0.319,0.07-0.59,0.21-0.81c0.14-0.22,0.32-0.398,0.54-0.534
		c0.22-0.136,0.472-0.234,0.756-0.294c0.284-0.06,0.57-0.09,0.858-0.09c0.392,0,0.776,0.044,1.152,0.132v-0.276
		c0-0.168-0.018-0.33-0.054-0.485c-0.036-0.156-0.104-0.298-0.204-0.427c-0.1-0.128-0.236-0.229-0.408-0.306
		s-0.394-0.114-0.666-0.114c-0.344,0-0.644,0.024-0.9,0.072c-0.256,0.048-0.452,0.096-0.588,0.145l-0.12-0.816
		c0.136-0.064,0.362-0.12,0.678-0.168C299.266,140.924,299.604,140.899,299.964,140.899z M301.656,138.979
		c-0.024,0.088-0.066,0.188-0.126,0.3c-0.06,0.112-0.134,0.217-0.222,0.312c-0.088,0.096-0.192,0.178-0.312,0.246
		c-0.12,0.067-0.256,0.102-0.408,0.102c-0.104,0-0.226-0.027-0.366-0.084c-0.14-0.056-0.254-0.104-0.342-0.144
		c-0.208-0.112-0.376-0.168-0.504-0.168c-0.104,0-0.204,0.052-0.3,0.155c-0.096,0.104-0.168,0.213-0.216,0.324l-0.516-0.275
		c0.024-0.088,0.066-0.188,0.126-0.301c0.06-0.111,0.134-0.216,0.222-0.312s0.192-0.178,0.312-0.246s0.252-0.102,0.396-0.102
		c0.104,0,0.226,0.029,0.366,0.09c0.14,0.06,0.254,0.109,0.342,0.149c0.208,0.112,0.376,0.168,0.504,0.168
		c0.104,0,0.206-0.052,0.306-0.155c0.1-0.104,0.174-0.212,0.222-0.324L301.656,138.979z M300.06,145.892
		c0.248,0,0.47-0.008,0.666-0.024c0.196-0.016,0.358-0.035,0.486-0.06v-1.656c-0.128-0.04-0.282-0.071-0.462-0.096
		s-0.37-0.036-0.57-0.036c-0.184,0-0.364,0.014-0.54,0.042c-0.176,0.028-0.332,0.078-0.468,0.15
		c-0.136,0.071-0.248,0.166-0.336,0.281c-0.088,0.116-0.132,0.263-0.132,0.438c0,0.36,0.122,0.61,0.366,0.75
		S299.644,145.892,300.06,145.892z"/>
	<path fill="#909090" d="M308.52,143.815c0,0.44-0.062,0.838-0.186,1.194c-0.124,0.355-0.298,0.662-0.522,0.918
		c-0.224,0.256-0.492,0.454-0.804,0.594s-0.652,0.21-1.02,0.21c-0.36,0-0.694-0.07-1.002-0.21s-0.574-0.338-0.798-0.594
		s-0.398-0.562-0.522-0.918c-0.124-0.356-0.186-0.754-0.186-1.194c0-0.439,0.062-0.84,0.186-1.2
		c0.124-0.359,0.298-0.666,0.522-0.918s0.49-0.447,0.798-0.588c0.308-0.14,0.642-0.21,1.002-0.21c0.368,0,0.708,0.07,1.02,0.21
		c0.312,0.141,0.58,0.336,0.804,0.588c0.224,0.252,0.398,0.559,0.522,0.918C308.458,142.976,308.52,143.376,308.52,143.815z
		 M307.5,143.815c0-0.632-0.136-1.13-0.408-1.494c-0.272-0.363-0.64-0.546-1.104-0.546c-0.456,0-0.818,0.183-1.086,0.546
		c-0.268,0.364-0.402,0.862-0.402,1.494c0,0.624,0.134,1.118,0.402,1.482s0.63,0.546,1.086,0.546c0.464,0,0.832-0.182,1.104-0.546
		S307.5,144.439,307.5,143.815z"/>
	<path fill="#909090" d="M320.52,143.827c0,0.425-0.054,0.814-0.162,1.171c-0.108,0.355-0.264,0.662-0.468,0.918
		s-0.454,0.456-0.75,0.6c-0.296,0.144-0.632,0.216-1.008,0.216c-0.296,0-0.556-0.036-0.78-0.107
		c-0.224-0.072-0.392-0.152-0.504-0.24v2.196h-0.996v-7.381c0.216-0.063,0.494-0.128,0.834-0.191c0.34-0.064,0.73-0.097,1.17-0.097
		c0.4,0,0.764,0.068,1.092,0.204c0.328,0.137,0.607,0.33,0.84,0.582c0.232,0.252,0.412,0.559,0.54,0.918
		C320.456,142.976,320.52,143.38,320.52,143.827z M319.5,143.827c0-0.647-0.152-1.149-0.456-1.506
		c-0.304-0.355-0.7-0.533-1.188-0.533c-0.272,0-0.486,0.012-0.642,0.035c-0.156,0.024-0.278,0.053-0.366,0.084v3.517
		c0.112,0.104,0.276,0.2,0.492,0.288c0.216,0.088,0.44,0.132,0.672,0.132c0.264,0,0.49-0.052,0.678-0.156
		c0.188-0.104,0.342-0.246,0.462-0.426c0.12-0.18,0.208-0.392,0.264-0.636C319.472,144.382,319.5,144.115,319.5,143.827z"/>
	<path fill="#909090" d="M326.52,143.815c0,0.44-0.062,0.838-0.186,1.194c-0.124,0.355-0.299,0.662-0.521,0.918
		c-0.225,0.256-0.492,0.454-0.805,0.594s-0.652,0.21-1.02,0.21c-0.36,0-0.694-0.07-1.002-0.21s-0.574-0.338-0.798-0.594
		s-0.398-0.562-0.522-0.918c-0.124-0.356-0.186-0.754-0.186-1.194c0-0.439,0.062-0.84,0.186-1.2
		c0.124-0.359,0.298-0.666,0.522-0.918s0.49-0.447,0.798-0.588c0.308-0.14,0.642-0.21,1.002-0.21c0.368,0,0.708,0.07,1.02,0.21
		c0.312,0.141,0.58,0.336,0.805,0.588c0.223,0.252,0.397,0.559,0.521,0.918C326.458,142.976,326.52,143.376,326.52,143.815z
		 M325.5,143.815c0-0.632-0.137-1.13-0.408-1.494c-0.271-0.363-0.64-0.546-1.104-0.546c-0.456,0-0.818,0.183-1.086,0.546
		c-0.268,0.364-0.402,0.862-0.402,1.494c0,0.624,0.134,1.118,0.402,1.482s0.63,0.546,1.086,0.546c0.464,0,0.833-0.182,1.104-0.546
		S325.5,144.439,325.5,143.815z"/>
	<path fill="#909090" d="M331.212,145.208c0-0.2-0.082-0.364-0.246-0.492s-0.368-0.24-0.612-0.336
		c-0.244-0.097-0.51-0.19-0.797-0.282c-0.289-0.092-0.555-0.206-0.799-0.342s-0.447-0.304-0.611-0.504s-0.246-0.46-0.246-0.78
		c0-0.448,0.182-0.822,0.545-1.122c0.365-0.3,0.935-0.45,1.711-0.45c0.304,0,0.617,0.022,0.941,0.066s0.602,0.102,0.834,0.174
		l-0.18,0.888c-0.064-0.031-0.152-0.065-0.264-0.102c-0.112-0.036-0.24-0.068-0.385-0.096c-0.144-0.028-0.298-0.051-0.461-0.066
		c-0.164-0.016-0.322-0.024-0.475-0.024c-0.863,0-1.296,0.236-1.296,0.708c0,0.168,0.082,0.311,0.246,0.427
		c0.163,0.115,0.37,0.222,0.618,0.317c0.248,0.097,0.516,0.194,0.804,0.294c0.288,0.101,0.556,0.223,0.804,0.366
		c0.248,0.145,0.454,0.318,0.618,0.522c0.164,0.203,0.246,0.462,0.246,0.773c0,0.504-0.196,0.895-0.588,1.17
		c-0.392,0.276-1.013,0.414-1.86,0.414c-0.384,0-0.736-0.032-1.056-0.096c-0.32-0.064-0.624-0.16-0.912-0.288l0.192-0.9
		c0.279,0.128,0.574,0.234,0.882,0.318s0.638,0.126,0.989,0.126C330.76,145.892,331.212,145.664,331.212,145.208z"/>
	<path fill="#909090" d="M337.212,145.208c0-0.2-0.082-0.364-0.246-0.492s-0.368-0.24-0.612-0.336
		c-0.244-0.097-0.51-0.19-0.797-0.282c-0.289-0.092-0.555-0.206-0.799-0.342s-0.447-0.304-0.611-0.504s-0.246-0.46-0.246-0.78
		c0-0.448,0.182-0.822,0.545-1.122c0.365-0.3,0.935-0.45,1.711-0.45c0.304,0,0.617,0.022,0.941,0.066s0.602,0.102,0.834,0.174
		l-0.18,0.888c-0.064-0.031-0.152-0.065-0.264-0.102c-0.112-0.036-0.24-0.068-0.385-0.096c-0.144-0.028-0.298-0.051-0.461-0.066
		c-0.164-0.016-0.322-0.024-0.475-0.024c-0.863,0-1.296,0.236-1.296,0.708c0,0.168,0.082,0.311,0.246,0.427
		c0.163,0.115,0.37,0.222,0.618,0.317c0.248,0.097,0.516,0.194,0.804,0.294c0.288,0.101,0.556,0.223,0.804,0.366
		c0.248,0.145,0.454,0.318,0.618,0.522c0.164,0.203,0.246,0.462,0.246,0.773c0,0.504-0.196,0.895-0.588,1.17
		c-0.392,0.276-1.013,0.414-1.86,0.414c-0.384,0-0.736-0.032-1.056-0.096c-0.32-0.064-0.624-0.16-0.912-0.288l0.192-0.9
		c0.279,0.128,0.574,0.234,0.882,0.318s0.638,0.126,0.989,0.126C336.76,145.892,337.212,145.664,337.212,145.208z"/>
	<path fill="#909090" d="M344.148,146.443c-0.217,0.057-0.502,0.116-0.858,0.181c-0.356,0.063-0.774,0.096-1.254,0.096
		c-0.425,0-0.776-0.062-1.056-0.187c-0.281-0.123-0.509-0.3-0.685-0.527c-0.176-0.229-0.3-0.498-0.372-0.811
		c-0.072-0.312-0.107-0.655-0.107-1.031v-3.133h0.983v2.916c0,0.688,0.103,1.177,0.306,1.464c0.205,0.288,0.547,0.433,1.026,0.433
		c0.104,0,0.21-0.004,0.318-0.012s0.21-0.019,0.306-0.03s0.18-0.024,0.252-0.036s0.12-0.021,0.145-0.03v-4.704h0.996V146.443z"/>
	<path fill="#909090" d="M348.107,140.899c0.752,0,1.332,0.234,1.74,0.702s0.612,1.178,0.612,2.13v0.349h-3.983
		c0.039,0.575,0.229,1.014,0.569,1.313s0.817,0.45,1.435,0.45c0.352,0,0.651-0.028,0.899-0.084s0.437-0.116,0.563-0.18l0.133,0.84
		c-0.12,0.063-0.336,0.132-0.648,0.204c-0.312,0.071-0.664,0.107-1.056,0.107c-0.479,0-0.902-0.074-1.267-0.222
		c-0.363-0.148-0.666-0.35-0.905-0.606c-0.24-0.256-0.421-0.562-0.54-0.918c-0.12-0.355-0.18-0.741-0.18-1.158
		c0-0.495,0.076-0.928,0.228-1.296c0.151-0.367,0.353-0.672,0.601-0.912c0.247-0.239,0.527-0.42,0.84-0.539
		C347.46,140.96,347.779,140.899,348.107,140.899z M349.452,143.275c0-0.472-0.124-0.846-0.372-1.122
		c-0.248-0.275-0.576-0.414-0.984-0.414c-0.232,0-0.441,0.044-0.63,0.133c-0.188,0.088-0.351,0.203-0.485,0.348
		c-0.137,0.144-0.244,0.308-0.324,0.492c-0.08,0.184-0.133,0.372-0.156,0.563H349.452z"/>
	<path fill="#909090" d="M351.492,141.188c0.48-0.184,0.932-0.276,1.355-0.276c0.232,0,0.45,0.034,0.654,0.103
		s0.378,0.174,0.521,0.318c0.344-0.28,0.713-0.421,1.104-0.421c0.192,0,0.374,0.036,0.546,0.108s0.324,0.18,0.456,0.324
		c0.132,0.144,0.238,0.324,0.318,0.54c0.079,0.216,0.12,0.468,0.12,0.756v3.96h-0.9v-3.984c0-0.288-0.064-0.508-0.191-0.659
		c-0.129-0.152-0.289-0.229-0.48-0.229c-0.096,0-0.196,0.024-0.301,0.072c-0.104,0.048-0.199,0.124-0.287,0.228
		c0.048,0.185,0.072,0.389,0.072,0.612v1.812h-0.9v-1.823c0-0.28-0.044-0.5-0.132-0.66c-0.089-0.16-0.261-0.24-0.517-0.24
		c-0.16,0-0.34,0.036-0.539,0.108v4.764h-0.9V141.188z"/>
</g>
<g enable-background="new    ">
	<path fill="#8CD2BE" d="M297.972,62.134c0-1.08,0.146-2.037,0.441-2.871c0.294-0.834,0.714-1.533,1.26-2.097
		c0.546-0.564,1.209-0.996,1.989-1.296c0.78-0.3,1.662-0.456,2.646-0.469l0.126,1.261c-0.636,0.012-1.215,0.08-1.737,0.207
		c-0.522,0.126-0.987,0.33-1.395,0.611c-0.408,0.282-0.75,0.646-1.026,1.089c-0.276,0.444-0.486,0.99-0.63,1.639
		c0.288-0.132,0.603-0.24,0.945-0.324c0.342-0.084,0.705-0.126,1.089-0.126c0.624,0,1.155,0.096,1.593,0.288
		c0.438,0.191,0.789,0.447,1.053,0.765c0.264,0.318,0.456,0.688,0.576,1.107s0.18,0.852,0.18,1.296c0,0.408-0.066,0.825-0.198,1.251
		c-0.132,0.426-0.336,0.816-0.612,1.17c-0.276,0.354-0.63,0.642-1.062,0.864c-0.432,0.222-0.948,0.333-1.548,0.333
		c-1.236,0-2.16-0.414-2.772-1.242C298.278,64.762,297.972,63.609,297.972,62.134z M301.518,60.981
		c-0.384,0-0.735,0.036-1.053,0.108s-0.639,0.18-0.963,0.324c-0.012,0.12-0.018,0.236-0.018,0.351s0,0.237,0,0.369
		c0,0.468,0.033,0.909,0.099,1.323s0.18,0.78,0.342,1.098c0.162,0.318,0.381,0.57,0.657,0.756c0.276,0.187,0.63,0.279,1.062,0.279
		c0.36,0,0.66-0.075,0.9-0.226c0.24-0.149,0.438-0.339,0.594-0.566c0.156-0.228,0.267-0.483,0.333-0.766
		c0.065-0.281,0.099-0.549,0.099-0.801c0-0.731-0.165-1.29-0.495-1.674C302.745,61.174,302.226,60.981,301.518,60.981z"/>
	<path fill="#8CD2BE" d="M309.348,59.758c1.608,0.06,2.778,0.414,3.51,1.062c0.732,0.648,1.098,1.519,1.098,2.61
		c0,0.492-0.078,0.948-0.234,1.368c-0.156,0.42-0.399,0.78-0.729,1.08c-0.331,0.3-0.75,0.534-1.26,0.702
		c-0.51,0.168-1.113,0.252-1.809,0.252c-0.288,0-0.573-0.021-0.855-0.063s-0.549-0.093-0.801-0.153
		c-0.252-0.06-0.474-0.122-0.666-0.188c-0.192-0.065-0.33-0.123-0.414-0.171l0.288-1.278c0.192,0.097,0.489,0.21,0.891,0.342
		c0.402,0.133,0.909,0.198,1.521,0.198c0.479,0,0.882-0.054,1.206-0.162c0.324-0.107,0.585-0.255,0.783-0.44
		c0.198-0.187,0.342-0.399,0.432-0.64c0.09-0.239,0.135-0.491,0.135-0.756c0-0.407-0.069-0.771-0.207-1.089
		c-0.138-0.317-0.378-0.585-0.72-0.801c-0.342-0.216-0.81-0.381-1.404-0.495c-0.594-0.114-1.341-0.171-2.241-0.171
		c0.072-0.528,0.129-1.023,0.171-1.485s0.078-0.912,0.108-1.35c0.03-0.438,0.054-0.873,0.072-1.306
		c0.018-0.432,0.039-0.888,0.063-1.367h5.364v1.26h-4.068c-0.012,0.168-0.027,0.387-0.045,0.657
		c-0.018,0.27-0.039,0.555-0.063,0.854c-0.024,0.3-0.048,0.588-0.072,0.864S309.36,59.59,309.348,59.758z"/>
	<path fill="#8CD2BE" d="M320.832,65.445c0,0.36-0.12,0.679-0.36,0.954c-0.24,0.276-0.558,0.414-0.954,0.414
		c-0.408,0-0.732-0.138-0.972-0.414c-0.24-0.275-0.36-0.594-0.36-0.954c0-0.371,0.12-0.695,0.36-0.972s0.564-0.414,0.972-0.414
		c0.396,0,0.714,0.138,0.954,0.414C320.712,64.75,320.832,65.074,320.832,65.445z"/>
	<path fill="#8CD2BE" d="M326.79,66.598c0.06-0.852,0.213-1.755,0.459-2.709c0.245-0.954,0.543-1.878,0.892-2.772
		c0.348-0.894,0.73-1.722,1.151-2.483c0.42-0.762,0.834-1.389,1.242-1.881h-5.4v-1.296h7.056v1.241
		c-0.359,0.421-0.75,0.984-1.17,1.692s-0.818,1.503-1.196,2.385s-0.706,1.824-0.981,2.826s-0.449,2.001-0.521,2.997H326.79z"/>
	<path fill="#8CD2BE" d="M340.561,58.3c0,0.384-0.076,0.756-0.226,1.116c-0.15,0.359-0.349,0.714-0.594,1.062
		c-0.246,0.349-0.525,0.69-0.837,1.026c-0.312,0.336-0.631,0.666-0.954,0.99c-0.181,0.18-0.39,0.396-0.63,0.647
		s-0.469,0.51-0.684,0.774c-0.217,0.264-0.396,0.521-0.541,0.773c-0.144,0.252-0.216,0.468-0.216,0.648h5.13v1.26h-6.75
		c-0.012-0.06-0.018-0.123-0.018-0.189c0-0.065,0-0.128,0-0.188c0-0.504,0.084-0.972,0.252-1.404
		c0.168-0.432,0.384-0.84,0.648-1.224c0.264-0.384,0.561-0.747,0.891-1.089s0.656-0.675,0.98-0.999
		c0.264-0.264,0.52-0.522,0.766-0.774s0.461-0.504,0.647-0.756s0.336-0.513,0.45-0.783c0.113-0.27,0.171-0.549,0.171-0.837
		c0-0.324-0.052-0.6-0.153-0.828c-0.102-0.228-0.24-0.417-0.414-0.566c-0.174-0.15-0.375-0.262-0.603-0.333
		c-0.228-0.072-0.474-0.108-0.737-0.108c-0.312,0-0.598,0.042-0.855,0.126s-0.486,0.187-0.684,0.306
		c-0.199,0.12-0.369,0.237-0.514,0.352s-0.252,0.207-0.324,0.279l-0.738-1.044c0.097-0.108,0.24-0.24,0.433-0.396
		s0.423-0.303,0.692-0.441c0.271-0.138,0.574-0.255,0.91-0.351s0.695-0.144,1.08-0.144c1.163,0,2.024,0.267,2.582,0.801
		C340.281,56.539,340.561,57.304,340.561,58.3z"/>
	<path fill="#8CD2BE" d="M344.79,66.598c0.06-0.852,0.213-1.755,0.459-2.709c0.245-0.954,0.543-1.878,0.892-2.772
		c0.348-0.894,0.73-1.722,1.151-2.483c0.42-0.762,0.834-1.389,1.242-1.881h-5.4v-1.296h7.056v1.241
		c-0.359,0.421-0.75,0.984-1.17,1.692s-0.818,1.503-1.196,2.385s-0.706,1.824-0.981,2.826s-0.449,2.001-0.521,2.997H344.79z"/>
</g>
<g enable-background="new    ">
	<path fill="#909090" d="M308.52,79.825c0,0.425-0.054,0.814-0.162,1.171c-0.108,0.355-0.264,0.662-0.468,0.918
		s-0.454,0.456-0.75,0.6c-0.296,0.144-0.632,0.216-1.008,0.216c-0.296,0-0.556-0.036-0.78-0.107
		c-0.224-0.072-0.392-0.152-0.504-0.24v2.196h-0.996v-7.381c0.216-0.063,0.494-0.128,0.834-0.191c0.34-0.064,0.73-0.097,1.17-0.097
		c0.4,0,0.764,0.068,1.092,0.204c0.328,0.137,0.607,0.33,0.84,0.582c0.232,0.252,0.412,0.559,0.54,0.918
		C308.456,78.974,308.52,79.378,308.52,79.825z M307.5,79.825c0-0.647-0.152-1.149-0.456-1.506c-0.304-0.355-0.7-0.533-1.188-0.533
		c-0.272,0-0.486,0.012-0.642,0.035c-0.156,0.024-0.278,0.053-0.366,0.084v3.517c0.112,0.104,0.276,0.2,0.492,0.288
		c0.216,0.088,0.44,0.132,0.672,0.132c0.264,0,0.49-0.052,0.678-0.156c0.188-0.104,0.342-0.246,0.462-0.426
		c0.12-0.18,0.208-0.392,0.264-0.636C307.472,80.38,307.5,80.113,307.5,79.825z"/>
	<path fill="#909090" d="M314.52,79.813c0,0.44-0.062,0.838-0.186,1.194c-0.124,0.355-0.298,0.662-0.522,0.918
		c-0.224,0.256-0.492,0.454-0.804,0.594s-0.652,0.21-1.02,0.21c-0.36,0-0.694-0.07-1.002-0.21s-0.574-0.338-0.798-0.594
		s-0.398-0.562-0.522-0.918c-0.124-0.356-0.186-0.754-0.186-1.194c0-0.439,0.062-0.84,0.186-1.2
		c0.124-0.359,0.298-0.666,0.522-0.918s0.49-0.447,0.798-0.588c0.308-0.14,0.642-0.21,1.002-0.21c0.368,0,0.708,0.07,1.02,0.21
		c0.312,0.141,0.58,0.336,0.804,0.588c0.224,0.252,0.398,0.559,0.522,0.918C314.458,78.974,314.52,79.374,314.52,79.813z
		 M313.5,79.813c0-0.632-0.136-1.13-0.408-1.494c-0.272-0.363-0.64-0.546-1.104-0.546c-0.456,0-0.818,0.183-1.086,0.546
		c-0.268,0.364-0.402,0.862-0.402,1.494c0,0.624,0.134,1.118,0.402,1.482s0.63,0.546,1.086,0.546c0.464,0,0.832-0.182,1.104-0.546
		S313.5,80.438,313.5,79.813z"/>
	<path fill="#909090" d="M319.212,81.206c0-0.2-0.082-0.364-0.246-0.492s-0.368-0.24-0.612-0.336
		c-0.244-0.097-0.51-0.19-0.798-0.282s-0.554-0.206-0.798-0.342s-0.448-0.304-0.612-0.504s-0.246-0.46-0.246-0.78
		c0-0.448,0.182-0.822,0.546-1.122c0.364-0.3,0.934-0.45,1.71-0.45c0.304,0,0.618,0.022,0.942,0.066
		c0.324,0.044,0.602,0.102,0.834,0.174l-0.18,0.888c-0.064-0.031-0.152-0.065-0.264-0.102c-0.112-0.036-0.24-0.068-0.384-0.096
		c-0.144-0.028-0.298-0.051-0.462-0.066c-0.164-0.016-0.322-0.024-0.474-0.024c-0.864,0-1.296,0.236-1.296,0.708
		c0,0.168,0.082,0.311,0.246,0.427c0.164,0.115,0.37,0.222,0.618,0.317c0.248,0.097,0.516,0.194,0.804,0.294
		c0.288,0.101,0.556,0.223,0.804,0.366c0.248,0.145,0.454,0.318,0.618,0.522c0.164,0.203,0.246,0.462,0.246,0.773
		c0,0.504-0.196,0.895-0.588,1.17c-0.392,0.276-1.012,0.414-1.86,0.414c-0.384,0-0.736-0.032-1.056-0.096
		c-0.32-0.064-0.624-0.16-0.912-0.288l0.192-0.9c0.28,0.128,0.574,0.234,0.882,0.318c0.308,0.084,0.638,0.126,0.99,0.126
		C318.76,81.89,319.212,81.662,319.212,81.206z"/>
	<path fill="#909090" d="M325.212,81.206c0-0.2-0.082-0.364-0.246-0.492s-0.368-0.24-0.612-0.336
		c-0.244-0.097-0.51-0.19-0.798-0.282s-0.554-0.206-0.798-0.342s-0.448-0.304-0.612-0.504s-0.246-0.46-0.246-0.78
		c0-0.448,0.182-0.822,0.546-1.122c0.364-0.3,0.934-0.45,1.71-0.45c0.304,0,0.618,0.022,0.942,0.066s0.602,0.102,0.834,0.174
		l-0.18,0.888c-0.064-0.031-0.152-0.065-0.264-0.102c-0.112-0.036-0.24-0.068-0.385-0.096c-0.144-0.028-0.298-0.051-0.461-0.066
		c-0.165-0.016-0.323-0.024-0.475-0.024c-0.864,0-1.296,0.236-1.296,0.708c0,0.168,0.082,0.311,0.246,0.427
		c0.164,0.115,0.37,0.222,0.618,0.317c0.248,0.097,0.516,0.194,0.804,0.294c0.288,0.101,0.556,0.223,0.804,0.366
		c0.248,0.145,0.454,0.318,0.618,0.522c0.164,0.203,0.246,0.462,0.246,0.773c0,0.504-0.196,0.895-0.588,1.17
		c-0.392,0.276-1.013,0.414-1.86,0.414c-0.384,0-0.736-0.032-1.056-0.096c-0.32-0.064-0.624-0.16-0.912-0.288l0.192-0.9
		c0.28,0.128,0.574,0.234,0.882,0.318c0.308,0.084,0.638,0.126,0.99,0.126C324.76,81.89,325.212,81.662,325.212,81.206z"/>
	<path fill="#909090" d="M332.148,82.441c-0.217,0.057-0.502,0.116-0.858,0.181c-0.356,0.063-0.774,0.096-1.254,0.096
		c-0.425,0-0.776-0.062-1.056-0.187c-0.281-0.123-0.509-0.3-0.685-0.527c-0.176-0.229-0.3-0.498-0.372-0.811
		c-0.072-0.312-0.107-0.655-0.107-1.031v-3.133h0.983v2.916c0,0.688,0.103,1.177,0.306,1.464c0.205,0.288,0.547,0.433,1.026,0.433
		c0.104,0,0.21-0.004,0.318-0.012s0.21-0.019,0.306-0.03s0.18-0.024,0.252-0.036s0.12-0.021,0.145-0.03v-4.704h0.996V82.441z"/>
	<path fill="#909090" d="M336.107,76.897c0.752,0,1.332,0.234,1.74,0.702s0.612,1.178,0.612,2.13v0.349h-3.983
		c0.039,0.575,0.229,1.014,0.569,1.313s0.817,0.45,1.435,0.45c0.352,0,0.651-0.028,0.899-0.084s0.437-0.116,0.563-0.18l0.133,0.84
		c-0.12,0.063-0.336,0.132-0.648,0.204c-0.312,0.071-0.664,0.107-1.056,0.107c-0.479,0-0.902-0.074-1.267-0.222
		c-0.363-0.148-0.666-0.35-0.905-0.606c-0.24-0.256-0.421-0.562-0.54-0.918c-0.12-0.355-0.18-0.741-0.18-1.158
		c0-0.495,0.076-0.928,0.228-1.296c0.151-0.367,0.353-0.672,0.601-0.912c0.247-0.239,0.527-0.42,0.84-0.539
		C335.46,76.958,335.779,76.897,336.107,76.897z M337.452,79.273c0-0.472-0.124-0.846-0.372-1.122
		c-0.248-0.275-0.576-0.414-0.984-0.414c-0.232,0-0.441,0.044-0.63,0.133c-0.188,0.088-0.351,0.203-0.485,0.348
		c-0.137,0.144-0.244,0.308-0.324,0.492c-0.08,0.184-0.133,0.372-0.156,0.563H337.452z"/>
	<path fill="#909090" d="M339.492,77.186c0.48-0.184,0.932-0.276,1.355-0.276c0.232,0,0.45,0.034,0.654,0.103
		s0.378,0.174,0.521,0.318c0.344-0.28,0.713-0.421,1.104-0.421c0.192,0,0.374,0.036,0.546,0.108s0.324,0.18,0.456,0.324
		c0.132,0.144,0.238,0.324,0.318,0.54c0.079,0.216,0.12,0.468,0.12,0.756v3.96h-0.9v-3.984c0-0.288-0.064-0.508-0.191-0.659
		c-0.129-0.152-0.289-0.229-0.48-0.229c-0.096,0-0.196,0.024-0.301,0.072c-0.104,0.048-0.199,0.124-0.287,0.228
		c0.048,0.185,0.072,0.389,0.072,0.612v1.812h-0.9v-1.823c0-0.28-0.044-0.5-0.132-0.66c-0.089-0.16-0.261-0.24-0.517-0.24
		c-0.16,0-0.34,0.036-0.539,0.108v4.764h-0.9V77.186z"/>
</g>
<g>
	<path fill="#8CD2BE" d="M548,1c54.589,0,99,44.411,99,99s-44.411,99-99,99s-99-44.411-99-99S493.411,1,548,1 M548,0
		c-55.229,0-100,44.772-100,100c0,55.229,44.771,100,100,100s100-44.771,100-100C648,44.772,603.229,0,548,0L548,0z"/>
</g>
<circle fill="#FFFFFF" cx="548" cy="100" r="60"/>
<g>
	<g enable-background="new    ">
		<path fill="#42B3C6" d="M523.79,90.599c0.06-0.852,0.213-1.755,0.459-2.709c0.245-0.954,0.543-1.878,0.892-2.772
			c0.348-0.894,0.73-1.722,1.151-2.483c0.42-0.762,0.834-1.389,1.242-1.881h-5.4v-1.296h7.056v1.241
			c-0.359,0.421-0.75,0.984-1.17,1.692s-0.818,1.503-1.196,2.385s-0.706,1.824-0.981,2.826s-0.449,2.001-0.521,2.997H523.79z"/>
		<path fill="#42B3C6" d="M538.082,87.7c0,0.937-0.297,1.692-0.891,2.269s-1.498,0.864-2.709,0.864
			c-0.696,0-1.272-0.094-1.729-0.279s-0.818-0.426-1.089-0.72s-0.462-0.621-0.576-0.981s-0.171-0.714-0.171-1.062
			c0-0.637,0.174-1.2,0.521-1.692c0.349-0.492,0.763-0.888,1.242-1.188c-1.02-0.575-1.529-1.458-1.529-2.646
			c0-0.408,0.078-0.798,0.234-1.17c0.155-0.372,0.377-0.696,0.665-0.972c0.288-0.276,0.64-0.498,1.054-0.666
			s0.879-0.252,1.395-0.252c0.6,0,1.113,0.09,1.539,0.27s0.771,0.411,1.035,0.693s0.455,0.594,0.576,0.936
			c0.119,0.342,0.18,0.675,0.18,0.999c0,0.637-0.162,1.186-0.486,1.647s-0.695,0.831-1.115,1.106
			C537.464,85.444,538.082,86.393,538.082,87.7z M532.357,87.809c0,0.192,0.037,0.394,0.108,0.604
			c0.072,0.21,0.192,0.404,0.36,0.585c0.168,0.18,0.39,0.326,0.666,0.44c0.275,0.114,0.611,0.171,1.008,0.171
			c0.371,0,0.693-0.051,0.963-0.152c0.27-0.103,0.492-0.24,0.666-0.414s0.303-0.369,0.387-0.585
			c0.084-0.217,0.127-0.433,0.127-0.648c0-0.684-0.246-1.209-0.738-1.575c-0.492-0.365-1.17-0.645-2.034-0.837
			c-0.479,0.265-0.853,0.594-1.116,0.99C532.49,86.782,532.357,87.257,532.357,87.809z M536.391,82.103
			c0-0.155-0.037-0.333-0.108-0.531c-0.072-0.197-0.183-0.378-0.333-0.54c-0.15-0.161-0.346-0.3-0.586-0.414
			c-0.239-0.113-0.527-0.171-0.863-0.171c-0.348,0-0.639,0.055-0.873,0.162c-0.234,0.108-0.43,0.243-0.585,0.405
			c-0.156,0.162-0.267,0.342-0.333,0.54s-0.1,0.394-0.1,0.585c0,0.492,0.178,0.951,0.531,1.377s0.939,0.735,1.756,0.927
			c0.455-0.264,0.818-0.576,1.088-0.936C536.255,83.146,536.391,82.679,536.391,82.103z"/>
		<path fill="#42B3C6" d="M544.832,89.446c0,0.36-0.12,0.679-0.359,0.954c-0.24,0.276-0.559,0.414-0.955,0.414
			c-0.408,0-0.731-0.138-0.972-0.414c-0.24-0.275-0.36-0.594-0.36-0.954c0-0.371,0.12-0.695,0.36-0.972s0.563-0.414,0.972-0.414
			c0.396,0,0.715,0.138,0.955,0.414C544.712,88.751,544.832,89.075,544.832,89.446z"/>
		<path fill="#42B3C6" d="M548.973,86.135c0-1.08,0.146-2.037,0.44-2.871s0.714-1.533,1.26-2.097
			c0.546-0.564,1.209-0.996,1.989-1.296c0.779-0.3,1.662-0.456,2.646-0.469l0.125,1.261c-0.636,0.012-1.215,0.08-1.736,0.207
			c-0.522,0.126-0.987,0.33-1.396,0.611c-0.407,0.282-0.75,0.646-1.026,1.089c-0.275,0.444-0.485,0.99-0.629,1.639
			c0.287-0.132,0.603-0.24,0.944-0.324c0.343-0.084,0.705-0.126,1.089-0.126c0.624,0,1.155,0.096,1.594,0.288
			c0.438,0.191,0.789,0.447,1.053,0.765c0.264,0.318,0.455,0.688,0.576,1.107c0.119,0.42,0.18,0.852,0.18,1.296
			c0,0.408-0.066,0.825-0.198,1.251s-0.336,0.816-0.612,1.17c-0.275,0.354-0.629,0.642-1.062,0.864
			c-0.433,0.222-0.948,0.333-1.548,0.333c-1.236,0-2.16-0.414-2.771-1.242C549.277,88.763,548.973,87.61,548.973,86.135z
			 M552.518,84.982c-0.384,0-0.734,0.036-1.053,0.108s-0.639,0.18-0.963,0.324c-0.012,0.12-0.018,0.236-0.018,0.351s0,0.237,0,0.369
			c0,0.468,0.033,0.909,0.099,1.323s0.181,0.78,0.342,1.098c0.162,0.318,0.381,0.57,0.657,0.756c0.275,0.187,0.63,0.279,1.062,0.279
			c0.359,0,0.659-0.075,0.899-0.226c0.239-0.149,0.438-0.339,0.595-0.566c0.155-0.228,0.266-0.483,0.332-0.766
			c0.066-0.281,0.1-0.549,0.1-0.801c0-0.731-0.166-1.29-0.495-1.674C553.744,85.175,553.227,84.982,552.518,84.982z"/>
		<path fill="#42B3C6" d="M565.046,83.921c0,2.22-0.54,3.891-1.62,5.013s-2.706,1.688-4.878,1.701l-0.054-1.26
			c1.344,0,2.427-0.268,3.249-0.802c0.821-0.533,1.364-1.454,1.629-2.763c-0.288,0.132-0.606,0.237-0.954,0.315
			s-0.714,0.116-1.098,0.116c-0.637,0-1.17-0.093-1.603-0.278c-0.432-0.187-0.78-0.438-1.044-0.756
			c-0.264-0.318-0.456-0.682-0.576-1.09c-0.119-0.407-0.18-0.839-0.18-1.296c0-0.407,0.066-0.824,0.198-1.251
			c0.132-0.426,0.335-0.812,0.612-1.161c0.275-0.348,0.629-0.636,1.062-0.863c0.433-0.229,0.948-0.342,1.548-0.342
			c1.225,0,2.148,0.42,2.771,1.26C564.734,81.305,565.046,82.457,565.046,83.921z M561.482,85.019c0.383,0,0.74-0.036,1.07-0.108
			c0.33-0.071,0.65-0.173,0.963-0.306c0.012-0.12,0.019-0.233,0.019-0.342s0-0.222,0-0.342c0-0.469-0.033-0.912-0.099-1.332
			c-0.066-0.42-0.181-0.786-0.343-1.099c-0.161-0.312-0.384-0.561-0.666-0.747c-0.282-0.186-0.639-0.278-1.071-0.278
			c-0.359,0-0.66,0.075-0.899,0.225c-0.24,0.15-0.438,0.336-0.595,0.559c-0.155,0.222-0.267,0.471-0.332,0.747
			c-0.066,0.275-0.1,0.539-0.1,0.792c0,0.731,0.165,1.286,0.495,1.664C560.255,84.83,560.773,85.019,561.482,85.019z"/>
		<path fill="#42B3C6" d="M566.324,82.013c0-0.912,0.174-1.604,0.521-2.079c0.348-0.474,0.828-0.711,1.44-0.711
			s1.092,0.237,1.44,0.711c0.348,0.475,0.521,1.167,0.521,2.079s-0.174,1.608-0.521,2.088c-0.349,0.48-0.828,0.72-1.44,0.72
			s-1.093-0.239-1.44-0.72C566.498,83.621,566.324,82.925,566.324,82.013z M567.71,90.599h-1.26l6.821-11.142h1.261L567.71,90.599z
			 M569.132,82.013c0-0.54-0.071-0.983-0.216-1.332c-0.145-0.348-0.354-0.522-0.63-0.522s-0.489,0.175-0.64,0.522
			c-0.15,0.349-0.225,0.792-0.225,1.332s0.074,0.984,0.225,1.332s0.363,0.521,0.64,0.521s0.485-0.174,0.63-0.521
			S569.132,82.553,569.132,82.013z M570.77,88.043c0-0.912,0.172-1.605,0.514-2.079c0.342-0.475,0.818-0.711,1.431-0.711
			s1.092,0.236,1.44,0.711c0.348,0.474,0.521,1.167,0.521,2.079s-0.174,1.604-0.521,2.079c-0.349,0.474-0.828,0.711-1.44,0.711
			s-1.089-0.237-1.431-0.711C570.941,89.647,570.77,88.955,570.77,88.043z M573.578,88.043c0-0.54-0.075-0.984-0.225-1.332
			c-0.15-0.349-0.363-0.522-0.64-0.522s-0.485,0.174-0.63,0.522c-0.145,0.348-0.216,0.792-0.216,1.332s0.071,0.983,0.216,1.332
			c0.145,0.348,0.354,0.521,0.63,0.521s0.489-0.174,0.64-0.521C573.503,89.026,573.578,88.583,573.578,88.043z"/>
	</g>
	<g enable-background="new    ">
		<path d="M529.148,106.442c-0.217,0.057-0.502,0.116-0.858,0.181c-0.356,0.063-0.774,0.096-1.254,0.096
			c-0.425,0-0.776-0.062-1.056-0.187c-0.281-0.123-0.509-0.3-0.685-0.527c-0.176-0.229-0.3-0.498-0.372-0.811
			c-0.072-0.312-0.107-0.655-0.107-1.031v-3.133h0.983v2.916c0,0.688,0.103,1.177,0.306,1.464c0.205,0.288,0.547,0.433,1.026,0.433
			c0.104,0,0.21-0.004,0.318-0.012s0.21-0.019,0.306-0.03s0.18-0.024,0.252-0.036s0.12-0.021,0.145-0.03v-4.704h0.996V106.442z"/>
		<path d="M532.916,101.03h2.352v0.828h-2.352v2.592c0,0.28,0.02,0.509,0.061,0.685c0.039,0.176,0.105,0.317,0.197,0.426
			s0.21,0.183,0.354,0.222c0.145,0.041,0.32,0.061,0.529,0.061c0.287,0,0.52-0.024,0.695-0.072s0.344-0.111,0.504-0.191l0.145,0.84
			c-0.112,0.048-0.291,0.111-0.534,0.191c-0.244,0.08-0.546,0.12-0.906,0.12c-0.416,0-0.756-0.048-1.021-0.144
			c-0.264-0.097-0.47-0.24-0.617-0.433c-0.148-0.191-0.25-0.43-0.307-0.714c-0.056-0.283-0.084-0.613-0.084-0.99v-2.592h-1.176
			v-0.828h1.176v-1.56l0.984-0.168V101.03z"/>
		<path d="M538.256,101.858h-1.607v-0.828h2.592v3.42c0,0.553,0.076,0.923,0.228,1.11c0.152,0.188,0.38,0.282,0.685,0.282
			c0.231,0,0.445-0.028,0.642-0.084s0.351-0.116,0.462-0.18l0.145,0.84c-0.049,0.023-0.116,0.054-0.205,0.09
			c-0.088,0.036-0.189,0.07-0.305,0.102c-0.117,0.032-0.244,0.061-0.385,0.084c-0.141,0.024-0.286,0.036-0.438,0.036
			c-0.353,0-0.645-0.048-0.877-0.144c-0.231-0.097-0.418-0.24-0.558-0.433c-0.14-0.191-0.237-0.43-0.294-0.714
			c-0.056-0.283-0.084-0.613-0.084-0.99V101.858z M538.508,100.167c-0.208,0-0.388-0.072-0.54-0.217
			c-0.151-0.144-0.228-0.34-0.228-0.588c0-0.247,0.076-0.443,0.228-0.588c0.152-0.144,0.332-0.216,0.54-0.216
			c0.217,0,0.398,0.072,0.547,0.216c0.147,0.145,0.221,0.341,0.221,0.588c0,0.248-0.073,0.444-0.221,0.588
			C538.906,100.095,538.725,100.167,538.508,100.167z"/>
		<path d="M546.057,106.73c-0.353,0-0.645-0.048-0.877-0.144c-0.232-0.097-0.416-0.24-0.552-0.433
			c-0.136-0.191-0.231-0.43-0.288-0.714c-0.056-0.283-0.084-0.613-0.084-0.99v-5.268h-1.607v-0.84h2.592v6.107
			c0,0.28,0.018,0.509,0.054,0.685s0.092,0.317,0.168,0.426s0.17,0.183,0.282,0.222c0.111,0.041,0.244,0.061,0.396,0.061
			c0.231,0,0.447-0.028,0.647-0.084s0.356-0.116,0.468-0.18l0.145,0.84c-0.049,0.023-0.116,0.054-0.205,0.09
			c-0.088,0.036-0.191,0.07-0.312,0.102c-0.12,0.032-0.25,0.061-0.39,0.084C546.354,106.719,546.208,106.73,546.057,106.73z"/>
		<path d="M550.256,101.858h-1.607v-0.828h2.592v3.42c0,0.553,0.076,0.923,0.228,1.11c0.152,0.188,0.38,0.282,0.685,0.282
			c0.231,0,0.445-0.028,0.642-0.084s0.351-0.116,0.462-0.18l0.145,0.84c-0.049,0.023-0.116,0.054-0.205,0.09
			c-0.088,0.036-0.189,0.07-0.305,0.102c-0.117,0.032-0.244,0.061-0.385,0.084c-0.141,0.024-0.286,0.036-0.438,0.036
			c-0.353,0-0.645-0.048-0.877-0.144c-0.231-0.097-0.418-0.24-0.558-0.433c-0.14-0.191-0.237-0.43-0.294-0.714
			c-0.056-0.283-0.084-0.613-0.084-0.99V101.858z M550.508,100.167c-0.208,0-0.388-0.072-0.54-0.217
			c-0.151-0.144-0.228-0.34-0.228-0.588c0-0.247,0.076-0.443,0.228-0.588c0.152-0.144,0.332-0.216,0.54-0.216
			c0.217,0,0.398,0.072,0.547,0.216c0.147,0.145,0.221,0.341,0.221,0.588c0,0.248-0.073,0.444-0.221,0.588
			C550.906,100.095,550.725,100.167,550.508,100.167z"/>
		<path d="M559.04,101.774c-0.144,0.168-0.341,0.402-0.588,0.702c-0.248,0.3-0.515,0.632-0.798,0.996
			c-0.284,0.364-0.566,0.746-0.846,1.146c-0.281,0.4-0.529,0.78-0.744,1.141h3.06v0.84h-4.248v-0.66
			c0.168-0.319,0.378-0.67,0.63-1.05s0.514-0.756,0.786-1.128s0.538-0.727,0.798-1.062s0.486-0.615,0.678-0.84h-2.735v-0.828h4.008
			V101.774z"/>
		<path d="M562.964,100.898c0.416,0,0.767,0.053,1.05,0.156c0.284,0.104,0.514,0.248,0.69,0.432c0.176,0.185,0.3,0.408,0.372,0.672
			c0.072,0.265,0.107,0.553,0.107,0.864v3.48c-0.232,0.04-0.537,0.088-0.918,0.144c-0.38,0.056-0.77,0.084-1.17,0.084
			c-0.304,0-0.6-0.026-0.888-0.078s-0.544-0.144-0.769-0.275c-0.224-0.132-0.403-0.314-0.539-0.546
			c-0.137-0.232-0.205-0.528-0.205-0.889c0-0.319,0.07-0.59,0.211-0.81c0.14-0.22,0.32-0.398,0.539-0.534
			c0.221-0.136,0.473-0.234,0.757-0.294s0.569-0.09,0.858-0.09c0.391,0,0.775,0.044,1.151,0.132v-0.276
			c0-0.168-0.019-0.33-0.054-0.485c-0.036-0.156-0.104-0.298-0.204-0.427c-0.101-0.128-0.236-0.229-0.408-0.306
			s-0.394-0.114-0.666-0.114c-0.344,0-0.644,0.024-0.899,0.072c-0.257,0.048-0.453,0.096-0.588,0.145l-0.121-0.816
			c0.137-0.064,0.362-0.12,0.679-0.168C562.266,100.923,562.604,100.898,562.964,100.898z M563.061,105.891
			c0.248,0,0.469-0.008,0.666-0.024c0.195-0.016,0.357-0.035,0.485-0.06v-1.656c-0.128-0.04-0.282-0.071-0.462-0.096
			s-0.37-0.036-0.57-0.036c-0.184,0-0.363,0.014-0.539,0.042c-0.177,0.028-0.332,0.078-0.469,0.15
			c-0.137,0.071-0.248,0.166-0.336,0.281c-0.088,0.116-0.132,0.263-0.132,0.438c0,0.36,0.122,0.61,0.366,0.75
			S562.645,105.891,563.061,105.891z"/>
		<path d="M566.492,101.187c0.48-0.184,0.932-0.276,1.355-0.276c0.232,0,0.45,0.034,0.654,0.103s0.378,0.174,0.521,0.318
			c0.344-0.28,0.713-0.421,1.104-0.421c0.192,0,0.374,0.036,0.546,0.108s0.324,0.18,0.456,0.324c0.132,0.144,0.238,0.324,0.318,0.54
			c0.079,0.216,0.12,0.468,0.12,0.756v3.96h-0.9v-3.984c0-0.288-0.064-0.508-0.191-0.659c-0.129-0.152-0.289-0.229-0.48-0.229
			c-0.096,0-0.196,0.024-0.301,0.072c-0.104,0.048-0.199,0.124-0.287,0.228c0.048,0.185,0.072,0.389,0.072,0.612v1.812h-0.9v-1.823
			c0-0.28-0.044-0.5-0.132-0.66c-0.089-0.16-0.261-0.24-0.517-0.24c-0.16,0-0.34,0.036-0.539,0.108v4.764h-0.9V101.187z"/>
	</g>
	<g enable-background="new    ">
		<path d="M526.256,117.858h-1.607v-0.828h2.592v3.42c0,0.553,0.076,0.923,0.228,1.11c0.152,0.188,0.38,0.282,0.685,0.282
			c0.231,0,0.445-0.028,0.642-0.084s0.351-0.116,0.462-0.18l0.145,0.84c-0.049,0.023-0.116,0.054-0.205,0.09
			c-0.088,0.036-0.189,0.07-0.305,0.102c-0.117,0.032-0.244,0.061-0.385,0.084c-0.141,0.024-0.286,0.036-0.438,0.036
			c-0.353,0-0.645-0.048-0.877-0.144c-0.231-0.097-0.418-0.24-0.558-0.433c-0.14-0.191-0.237-0.43-0.294-0.714
			c-0.056-0.283-0.084-0.613-0.084-0.99V117.858z M526.508,116.167c-0.208,0-0.388-0.072-0.54-0.217
			c-0.151-0.144-0.228-0.34-0.228-0.588c0-0.247,0.076-0.443,0.228-0.588c0.152-0.144,0.332-0.216,0.54-0.216
			c0.217,0,0.398,0.072,0.547,0.216c0.147,0.145,0.221,0.341,0.221,0.588c0,0.248-0.073,0.444-0.221,0.588
			C526.906,116.095,526.725,116.167,526.508,116.167z"/>
		<path d="M530.852,117.187c0.36-0.088,0.719-0.156,1.074-0.204s0.69-0.072,1.002-0.072c0.744,0,1.307,0.192,1.686,0.576
			c0.381,0.385,0.57,1,0.57,1.849v3.264H534.2v-3.084c0-0.36-0.032-0.652-0.097-0.876c-0.063-0.224-0.154-0.397-0.27-0.522
			c-0.116-0.123-0.256-0.21-0.42-0.258s-0.342-0.071-0.534-0.071c-0.16,0-0.33,0.01-0.51,0.029
			c-0.181,0.021-0.354,0.046-0.522,0.078v4.704h-0.996V117.187z"/>
		<path d="M538.916,117.03h2.352v0.828h-2.352v2.592c0,0.28,0.02,0.509,0.061,0.685c0.039,0.176,0.105,0.317,0.197,0.426
			s0.21,0.183,0.354,0.222c0.145,0.041,0.32,0.061,0.529,0.061c0.287,0,0.52-0.024,0.695-0.072s0.344-0.111,0.504-0.191l0.145,0.84
			c-0.112,0.048-0.291,0.111-0.534,0.191c-0.244,0.08-0.546,0.12-0.906,0.12c-0.416,0-0.756-0.048-1.021-0.144
			c-0.264-0.097-0.47-0.24-0.617-0.433c-0.148-0.191-0.25-0.43-0.307-0.714c-0.056-0.283-0.084-0.613-0.084-0.99v-2.592h-1.176
			v-0.828h1.176v-1.56l0.984-0.168V117.03z"/>
		<path d="M545.107,116.898c0.752,0,1.332,0.234,1.74,0.702s0.612,1.178,0.612,2.13v0.349h-3.983
			c0.039,0.575,0.229,1.014,0.569,1.313s0.817,0.45,1.435,0.45c0.352,0,0.651-0.028,0.899-0.084s0.437-0.116,0.563-0.18l0.133,0.84
			c-0.12,0.063-0.336,0.132-0.648,0.204c-0.312,0.071-0.664,0.107-1.056,0.107c-0.479,0-0.902-0.074-1.267-0.222
			c-0.363-0.148-0.666-0.35-0.905-0.606c-0.24-0.256-0.421-0.562-0.54-0.918c-0.12-0.355-0.18-0.741-0.18-1.158
			c0-0.495,0.076-0.928,0.228-1.296c0.151-0.367,0.353-0.672,0.601-0.912c0.247-0.239,0.527-0.42,0.84-0.539
			C544.46,116.959,544.779,116.898,545.107,116.898z M546.452,119.274c0-0.472-0.124-0.846-0.372-1.122
			c-0.248-0.275-0.576-0.414-0.984-0.414c-0.232,0-0.441,0.044-0.63,0.133c-0.188,0.088-0.351,0.203-0.485,0.348
			c-0.137,0.144-0.244,0.308-0.324,0.492c-0.08,0.184-0.133,0.372-0.156,0.563H546.452z"/>
		<path d="M549.284,122.599v-5.268c0.815-0.28,1.64-0.421,2.472-0.421c0.256,0,0.5,0.011,0.732,0.03
			c0.231,0.021,0.488,0.062,0.768,0.126l-0.18,0.876c-0.256-0.071-0.482-0.118-0.678-0.138c-0.197-0.02-0.41-0.03-0.643-0.03
			c-0.488,0-0.984,0.068-1.488,0.204v4.62H549.284z"/>
		<path d="M554.852,117.187c0.36-0.088,0.719-0.156,1.074-0.204s0.69-0.072,1.002-0.072c0.744,0,1.307,0.192,1.686,0.576
			c0.381,0.385,0.57,1,0.57,1.849v3.264H558.2v-3.084c0-0.36-0.032-0.652-0.097-0.876c-0.063-0.224-0.154-0.397-0.27-0.522
			c-0.116-0.123-0.256-0.21-0.42-0.258s-0.342-0.071-0.534-0.071c-0.16,0-0.33,0.01-0.51,0.029
			c-0.181,0.021-0.354,0.046-0.522,0.078v4.704h-0.996V117.187z"/>
		<path d="M563.107,116.898c0.752,0,1.332,0.234,1.74,0.702s0.612,1.178,0.612,2.13v0.349h-3.983
			c0.039,0.575,0.229,1.014,0.569,1.313s0.817,0.45,1.435,0.45c0.352,0,0.651-0.028,0.899-0.084s0.437-0.116,0.563-0.18l0.133,0.84
			c-0.12,0.063-0.336,0.132-0.648,0.204c-0.312,0.071-0.664,0.107-1.056,0.107c-0.479,0-0.902-0.074-1.267-0.222
			c-0.363-0.148-0.666-0.35-0.905-0.606c-0.24-0.256-0.421-0.562-0.54-0.918c-0.12-0.355-0.18-0.741-0.18-1.158
			c0-0.495,0.076-0.928,0.228-1.296c0.151-0.367,0.353-0.672,0.601-0.912c0.247-0.239,0.527-0.42,0.84-0.539
			C562.46,116.959,562.779,116.898,563.107,116.898z M564.452,119.274c0-0.472-0.124-0.846-0.372-1.122
			c-0.248-0.275-0.576-0.414-0.984-0.414c-0.232,0-0.441,0.044-0.63,0.133c-0.188,0.088-0.351,0.203-0.485,0.348
			c-0.137,0.144-0.244,0.308-0.324,0.492c-0.08,0.184-0.133,0.372-0.156,0.563H564.452z"/>
		<path d="M568.916,117.03h2.352v0.828h-2.352v2.592c0,0.28,0.02,0.509,0.061,0.685c0.039,0.176,0.105,0.317,0.197,0.426
			s0.21,0.183,0.354,0.222c0.145,0.041,0.32,0.061,0.529,0.061c0.287,0,0.52-0.024,0.695-0.072s0.344-0.111,0.504-0.191l0.145,0.84
			c-0.112,0.048-0.291,0.111-0.534,0.191c-0.244,0.08-0.546,0.12-0.906,0.12c-0.416,0-0.756-0.048-1.021-0.144
			c-0.264-0.097-0.47-0.24-0.617-0.433c-0.148-0.191-0.25-0.43-0.307-0.714c-0.056-0.283-0.084-0.613-0.084-0.99v-2.592h-1.176
			v-0.828h1.176v-1.56l0.984-0.168V117.03z"/>
	</g>
</g>
<g>
	<path fill="#C8C8B4" d="M100,1c54.589,0,99,44.411,99,99s-44.411,99-99,99S1,154.589,1,100S45.411,1,100,1 M100,0
		C44.771,0,0,44.772,0,100c0,55.229,44.771,100,100,100s100-44.771,100-100C200,44.772,155.229,0,100,0L100,0z"/>
</g>
<circle fill="#FFFFFF" cx="100" cy="100" r="60"/>
<line fill="none" stroke="#C0C0C0" stroke-miterlimit="10" x1="284" y1="100.5" x2="364" y2="100.5"/>
<line fill="none" stroke="#8CD2BE" stroke-miterlimit="10" x1="424" y1="100.5" x2="448" y2="100.5"/>
<line fill="none" stroke="#C8C8B4" stroke-miterlimit="10" x1="200" y1="100.5" x2="224" y2="100.5"/>
<circle fill="#8CD2BE" cx="448" cy="100" r="4"/>
<circle fill="#C8C8B4" cx="200" cy="100" r="4"/>
<g>
	<g enable-background="new    ">
		<path fill="#42B3C6" d="M80.56,82.301c0,0.384-0.075,0.756-0.225,1.116c-0.15,0.359-0.348,0.714-0.594,1.062
			c-0.246,0.349-0.525,0.69-0.837,1.026s-0.63,0.666-0.954,0.99c-0.18,0.18-0.39,0.396-0.63,0.647s-0.468,0.51-0.684,0.774
			c-0.216,0.264-0.396,0.521-0.54,0.773s-0.216,0.468-0.216,0.648h5.13v1.26h-6.75c-0.012-0.06-0.018-0.123-0.018-0.189
			c0-0.065,0-0.128,0-0.188c0-0.504,0.083-0.972,0.252-1.404c0.168-0.432,0.384-0.84,0.648-1.224
			c0.264-0.384,0.561-0.747,0.891-1.089c0.33-0.342,0.657-0.675,0.981-0.999c0.264-0.264,0.519-0.522,0.765-0.774
			s0.462-0.504,0.648-0.756s0.336-0.513,0.45-0.783c0.114-0.27,0.171-0.549,0.171-0.837c0-0.324-0.051-0.6-0.153-0.828
			c-0.102-0.228-0.24-0.417-0.414-0.566c-0.174-0.15-0.375-0.262-0.603-0.333c-0.228-0.072-0.474-0.108-0.738-0.108
			c-0.312,0-0.597,0.042-0.855,0.126c-0.258,0.084-0.486,0.187-0.684,0.306c-0.198,0.12-0.369,0.237-0.513,0.352
			s-0.252,0.207-0.324,0.279l-0.738-1.044c0.096-0.108,0.24-0.24,0.432-0.396s0.423-0.303,0.693-0.441
			c0.27-0.138,0.573-0.255,0.909-0.351s0.696-0.144,1.08-0.144c1.164,0,2.025,0.267,2.583,0.801
			C80.281,80.54,80.56,81.305,80.56,82.301z"/>
		<path fill="#42B3C6" d="M85.348,83.759c1.608,0.06,2.778,0.414,3.51,1.062c0.732,0.648,1.098,1.519,1.098,2.61
			c0,0.492-0.078,0.948-0.234,1.368c-0.156,0.42-0.399,0.78-0.729,1.08c-0.331,0.3-0.75,0.534-1.26,0.702
			c-0.51,0.168-1.113,0.252-1.809,0.252c-0.288,0-0.573-0.021-0.855-0.063s-0.549-0.093-0.801-0.153
			c-0.252-0.06-0.474-0.122-0.666-0.188c-0.192-0.065-0.33-0.123-0.414-0.171l0.288-1.278c0.192,0.097,0.489,0.21,0.891,0.342
			c0.402,0.133,0.909,0.198,1.521,0.198c0.479,0,0.882-0.054,1.206-0.162c0.324-0.107,0.585-0.255,0.783-0.44
			c0.198-0.187,0.342-0.399,0.432-0.64c0.09-0.239,0.135-0.491,0.135-0.756c0-0.407-0.069-0.771-0.207-1.089
			c-0.138-0.317-0.378-0.585-0.72-0.801c-0.342-0.216-0.81-0.381-1.404-0.495c-0.594-0.114-1.341-0.171-2.241-0.171
			c0.072-0.528,0.129-1.023,0.171-1.485s0.078-0.912,0.108-1.35c0.03-0.438,0.054-0.873,0.072-1.306
			c0.018-0.432,0.039-0.888,0.063-1.367h5.364v1.26h-4.068c-0.012,0.168-0.027,0.387-0.045,0.657
			c-0.018,0.27-0.039,0.555-0.063,0.854c-0.024,0.3-0.048,0.588-0.072,0.864S85.36,83.591,85.348,83.759z"/>
		<path fill="#42B3C6" d="M96.832,89.446c0,0.36-0.12,0.679-0.36,0.954c-0.24,0.276-0.558,0.414-0.954,0.414
			c-0.408,0-0.732-0.138-0.972-0.414c-0.24-0.275-0.36-0.594-0.36-0.954c0-0.371,0.12-0.695,0.36-0.972s0.564-0.414,0.972-0.414
			c0.396,0,0.714,0.138,0.954,0.414C96.712,88.751,96.832,89.075,96.832,89.446z"/>
		<path fill="#42B3C6" d="M100.972,86.135c0-1.08,0.146-2.037,0.441-2.871c0.294-0.834,0.714-1.533,1.26-2.097
			c0.546-0.564,1.209-0.996,1.989-1.296c0.78-0.3,1.662-0.456,2.646-0.469l0.126,1.261c-0.636,0.012-1.215,0.08-1.737,0.207
			c-0.522,0.126-0.987,0.33-1.395,0.611c-0.408,0.282-0.75,0.646-1.026,1.089c-0.276,0.444-0.486,0.99-0.63,1.639
			c0.288-0.132,0.603-0.24,0.945-0.324c0.342-0.084,0.705-0.126,1.089-0.126c0.624,0,1.155,0.096,1.593,0.288
			c0.438,0.191,0.789,0.447,1.053,0.765c0.264,0.318,0.456,0.688,0.576,1.107s0.18,0.852,0.18,1.296
			c0,0.408-0.066,0.825-0.198,1.251c-0.132,0.426-0.336,0.816-0.612,1.17c-0.276,0.354-0.63,0.642-1.062,0.864
			c-0.432,0.222-0.948,0.333-1.548,0.333c-1.236,0-2.16-0.414-2.772-1.242C101.278,88.763,100.972,87.61,100.972,86.135z
			 M104.518,84.982c-0.384,0-0.735,0.036-1.053,0.108s-0.639,0.18-0.963,0.324c-0.012,0.12-0.018,0.236-0.018,0.351s0,0.237,0,0.369
			c0,0.468,0.033,0.909,0.099,1.323s0.18,0.78,0.342,1.098c0.162,0.318,0.381,0.57,0.657,0.756c0.276,0.187,0.63,0.279,1.062,0.279
			c0.36,0,0.66-0.075,0.9-0.226c0.24-0.149,0.438-0.339,0.594-0.566c0.156-0.228,0.267-0.483,0.333-0.766
			c0.065-0.281,0.099-0.549,0.099-0.801c0-0.731-0.165-1.29-0.495-1.674C105.745,85.175,105.226,84.982,104.518,84.982z"/>
		<path fill="#42B3C6" d="M112.816,89.519c0.948,0,1.623-0.188,2.025-0.567c0.402-0.378,0.603-0.885,0.603-1.521
			c0-0.408-0.084-0.75-0.252-1.026c-0.168-0.275-0.39-0.497-0.666-0.666c-0.276-0.168-0.594-0.288-0.954-0.359
			c-0.36-0.072-0.738-0.108-1.134-0.108h-0.378v-1.206h0.522c0.264,0,0.537-0.026,0.819-0.081c0.282-0.054,0.54-0.149,0.774-0.288
			c0.234-0.138,0.423-0.326,0.567-0.566s0.216-0.546,0.216-0.918c0-0.612-0.189-1.047-0.567-1.306
			c-0.378-0.258-0.819-0.387-1.323-0.387c-0.516,0-0.954,0.075-1.314,0.225c-0.36,0.15-0.66,0.304-0.9,0.459l-0.576-1.134
			c0.252-0.18,0.633-0.369,1.143-0.566c0.51-0.198,1.077-0.297,1.701-0.297c0.588,0,1.092,0.071,1.512,0.216
			c0.42,0.144,0.765,0.348,1.035,0.611c0.27,0.265,0.471,0.573,0.603,0.928c0.132,0.354,0.198,0.741,0.198,1.161
			c0,0.588-0.153,1.086-0.459,1.493c-0.306,0.408-0.699,0.721-1.179,0.937c0.576,0.168,1.074,0.495,1.494,0.98
			c0.42,0.486,0.63,1.132,0.63,1.936c0,0.479-0.081,0.927-0.243,1.341s-0.408,0.771-0.738,1.071c-0.33,0.3-0.756,0.534-1.278,0.702
			c-0.522,0.168-1.143,0.252-1.863,0.252c-0.276,0-0.561-0.021-0.855-0.063c-0.294-0.042-0.567-0.096-0.819-0.162
			c-0.252-0.065-0.477-0.132-0.675-0.198c-0.198-0.065-0.339-0.116-0.423-0.152l0.288-1.278c0.192,0.097,0.498,0.21,0.918,0.342
			C111.688,89.453,112.204,89.519,112.816,89.519z"/>
		<path fill="#42B3C6" d="M118.324,82.013c0-0.912,0.174-1.604,0.522-2.079c0.348-0.474,0.828-0.711,1.44-0.711
			c0.612,0,1.092,0.237,1.44,0.711c0.348,0.475,0.522,1.167,0.522,2.079s-0.174,1.608-0.522,2.088c-0.348,0.48-0.828,0.72-1.44,0.72
			c-0.612,0-1.092-0.239-1.44-0.72C118.498,83.621,118.324,82.925,118.324,82.013z M119.71,90.599h-1.26l6.822-11.142h1.26
			L119.71,90.599z M121.132,82.013c0-0.54-0.072-0.983-0.216-1.332c-0.144-0.348-0.354-0.522-0.63-0.522
			c-0.276,0-0.489,0.175-0.639,0.522c-0.15,0.349-0.225,0.792-0.225,1.332s0.075,0.984,0.225,1.332
			c0.15,0.348,0.363,0.521,0.639,0.521c0.276,0,0.486-0.174,0.63-0.521S121.132,82.553,121.132,82.013z M122.77,88.043
			c0-0.912,0.171-1.605,0.513-2.079c0.342-0.475,0.819-0.711,1.431-0.711c0.612,0,1.092,0.236,1.44,0.711
			c0.348,0.474,0.522,1.167,0.522,2.079s-0.174,1.604-0.522,2.079c-0.348,0.474-0.828,0.711-1.44,0.711
			c-0.612,0-1.089-0.237-1.431-0.711C122.941,89.647,122.77,88.955,122.77,88.043z M125.578,88.043c0-0.54-0.075-0.984-0.225-1.332
			c-0.15-0.349-0.363-0.522-0.639-0.522s-0.486,0.174-0.63,0.522c-0.144,0.348-0.216,0.792-0.216,1.332s0.072,0.983,0.216,1.332
			c0.144,0.348,0.354,0.521,0.63,0.521s0.489-0.174,0.639-0.521C125.503,89.026,125.578,88.583,125.578,88.043z"/>
	</g>
	<g enable-background="new    ">
		<path d="M81.148,106.442c-0.216,0.057-0.502,0.116-0.858,0.181c-0.356,0.063-0.774,0.096-1.254,0.096
			c-0.424,0-0.776-0.062-1.056-0.187c-0.28-0.123-0.508-0.3-0.684-0.527c-0.176-0.229-0.3-0.498-0.372-0.811
			c-0.072-0.312-0.108-0.655-0.108-1.031v-3.133H77.8v2.916c0,0.688,0.102,1.177,0.306,1.464c0.204,0.288,0.546,0.433,1.026,0.433
			c0.104,0,0.21-0.004,0.318-0.012c0.108-0.008,0.21-0.019,0.306-0.03c0.096-0.012,0.18-0.024,0.252-0.036
			c0.072-0.012,0.12-0.021,0.144-0.03v-4.704h0.996V106.442z"/>
		<path d="M84.916,101.03h2.352v0.828h-2.352v2.592c0,0.28,0.02,0.509,0.06,0.685s0.106,0.317,0.198,0.426
			c0.092,0.108,0.21,0.183,0.354,0.222c0.144,0.041,0.32,0.061,0.528,0.061c0.288,0,0.52-0.024,0.696-0.072s0.344-0.111,0.504-0.191
			l0.144,0.84c-0.112,0.048-0.29,0.111-0.534,0.191c-0.244,0.08-0.546,0.12-0.906,0.12c-0.416,0-0.756-0.048-1.02-0.144
			c-0.264-0.097-0.47-0.24-0.618-0.433c-0.148-0.191-0.25-0.43-0.306-0.714c-0.056-0.283-0.084-0.613-0.084-0.99v-2.592h-1.176
			v-0.828h1.176v-1.56l0.984-0.168V101.03z"/>
		<path d="M90.256,101.858h-1.608v-0.828h2.592v3.42c0,0.553,0.076,0.923,0.228,1.11c0.152,0.188,0.38,0.282,0.684,0.282
			c0.232,0,0.446-0.028,0.642-0.084c0.196-0.056,0.35-0.116,0.462-0.18l0.144,0.84c-0.048,0.023-0.116,0.054-0.204,0.09
			c-0.088,0.036-0.19,0.07-0.306,0.102c-0.116,0.032-0.244,0.061-0.384,0.084c-0.14,0.024-0.286,0.036-0.438,0.036
			c-0.352,0-0.644-0.048-0.876-0.144c-0.232-0.097-0.418-0.24-0.558-0.433c-0.14-0.191-0.238-0.43-0.294-0.714
			c-0.056-0.283-0.084-0.613-0.084-0.99V101.858z M90.508,100.167c-0.208,0-0.388-0.072-0.54-0.217
			c-0.152-0.144-0.228-0.34-0.228-0.588c0-0.247,0.076-0.443,0.228-0.588c0.152-0.144,0.332-0.216,0.54-0.216
			c0.216,0,0.398,0.072,0.546,0.216c0.148,0.145,0.222,0.341,0.222,0.588c0,0.248-0.074,0.444-0.222,0.588
			C90.906,100.095,90.724,100.167,90.508,100.167z"/>
		<path d="M98.056,106.73c-0.352,0-0.644-0.048-0.876-0.144c-0.232-0.097-0.416-0.24-0.552-0.433
			c-0.136-0.191-0.232-0.43-0.288-0.714c-0.056-0.283-0.084-0.613-0.084-0.99v-5.268h-1.608v-0.84h2.592v6.107
			c0,0.28,0.018,0.509,0.054,0.685s0.092,0.317,0.168,0.426s0.17,0.183,0.282,0.222c0.112,0.041,0.244,0.061,0.396,0.061
			c0.232,0,0.448-0.028,0.648-0.084c0.2-0.056,0.356-0.116,0.468-0.18l0.144,0.84c-0.048,0.023-0.116,0.054-0.204,0.09
			c-0.088,0.036-0.192,0.07-0.312,0.102c-0.12,0.032-0.25,0.061-0.39,0.084C98.354,106.719,98.208,106.73,98.056,106.73z"/>
		<path d="M102.256,101.858h-1.608v-0.828h2.592v3.42c0,0.553,0.076,0.923,0.228,1.11c0.152,0.188,0.38,0.282,0.684,0.282
			c0.232,0,0.446-0.028,0.642-0.084c0.196-0.056,0.35-0.116,0.462-0.18l0.144,0.84c-0.048,0.023-0.116,0.054-0.204,0.09
			c-0.088,0.036-0.19,0.07-0.306,0.102c-0.116,0.032-0.244,0.061-0.384,0.084c-0.14,0.024-0.286,0.036-0.438,0.036
			c-0.352,0-0.644-0.048-0.876-0.144c-0.232-0.097-0.418-0.24-0.558-0.433c-0.14-0.191-0.238-0.43-0.294-0.714
			c-0.056-0.283-0.084-0.613-0.084-0.99V101.858z M102.508,100.167c-0.208,0-0.388-0.072-0.54-0.217
			c-0.152-0.144-0.228-0.34-0.228-0.588c0-0.247,0.076-0.443,0.228-0.588c0.152-0.144,0.332-0.216,0.54-0.216
			c0.216,0,0.398,0.072,0.546,0.216c0.148,0.145,0.222,0.341,0.222,0.588c0,0.248-0.074,0.444-0.222,0.588
			C102.906,100.095,102.724,100.167,102.508,100.167z"/>
		<path d="M111.04,101.774c-0.144,0.168-0.34,0.402-0.588,0.702c-0.248,0.3-0.514,0.632-0.798,0.996
			c-0.284,0.364-0.566,0.746-0.846,1.146c-0.28,0.4-0.528,0.78-0.744,1.141h3.06v0.84h-4.248v-0.66
			c0.168-0.319,0.378-0.67,0.63-1.05s0.514-0.756,0.786-1.128s0.538-0.727,0.798-1.062c0.26-0.336,0.486-0.615,0.678-0.84h-2.736
			v-0.828h4.008V101.774z"/>
		<path d="M114.964,100.898c0.416,0,0.766,0.053,1.05,0.156c0.284,0.104,0.514,0.248,0.69,0.432c0.176,0.185,0.3,0.408,0.372,0.672
			c0.072,0.265,0.108,0.553,0.108,0.864v3.48c-0.232,0.04-0.538,0.088-0.918,0.144c-0.38,0.056-0.77,0.084-1.17,0.084
			c-0.304,0-0.6-0.026-0.888-0.078s-0.544-0.144-0.768-0.275s-0.404-0.314-0.54-0.546c-0.136-0.232-0.204-0.528-0.204-0.889
			c0-0.319,0.07-0.59,0.21-0.81c0.14-0.22,0.32-0.398,0.54-0.534c0.22-0.136,0.472-0.234,0.756-0.294
			c0.284-0.06,0.57-0.09,0.858-0.09c0.392,0,0.776,0.044,1.152,0.132v-0.276c0-0.168-0.018-0.33-0.054-0.485
			c-0.036-0.156-0.104-0.298-0.204-0.427c-0.1-0.128-0.236-0.229-0.408-0.306s-0.394-0.114-0.666-0.114
			c-0.344,0-0.644,0.024-0.9,0.072c-0.256,0.048-0.452,0.096-0.588,0.145l-0.12-0.816c0.136-0.064,0.362-0.12,0.678-0.168
			C114.266,100.923,114.604,100.898,114.964,100.898z M115.06,105.891c0.248,0,0.47-0.008,0.666-0.024
			c0.196-0.016,0.358-0.035,0.486-0.06v-1.656c-0.128-0.04-0.282-0.071-0.462-0.096s-0.37-0.036-0.57-0.036
			c-0.184,0-0.364,0.014-0.54,0.042c-0.176,0.028-0.332,0.078-0.468,0.15c-0.136,0.071-0.248,0.166-0.336,0.281
			c-0.088,0.116-0.132,0.263-0.132,0.438c0,0.36,0.122,0.61,0.366,0.75S114.644,105.891,115.06,105.891z"/>
		<path d="M118.492,101.187c0.48-0.184,0.932-0.276,1.356-0.276c0.232,0,0.45,0.034,0.654,0.103s0.378,0.174,0.522,0.318
			c0.344-0.28,0.712-0.421,1.104-0.421c0.192,0,0.374,0.036,0.546,0.108s0.324,0.18,0.456,0.324c0.132,0.144,0.238,0.324,0.318,0.54
			c0.08,0.216,0.12,0.468,0.12,0.756v3.96h-0.9v-3.984c0-0.288-0.064-0.508-0.192-0.659c-0.128-0.152-0.288-0.229-0.48-0.229
			c-0.096,0-0.196,0.024-0.3,0.072s-0.2,0.124-0.288,0.228c0.048,0.185,0.072,0.389,0.072,0.612v1.812h-0.9v-1.823
			c0-0.28-0.044-0.5-0.132-0.66c-0.088-0.16-0.26-0.24-0.516-0.24c-0.16,0-0.34,0.036-0.54,0.108v4.764h-0.9V101.187z"/>
	</g>
	<g enable-background="new    ">
		<path d="M78.256,117.858h-1.608v-0.828h2.592v3.42c0,0.553,0.076,0.923,0.228,1.11c0.152,0.188,0.38,0.282,0.684,0.282
			c0.232,0,0.446-0.028,0.642-0.084c0.196-0.056,0.35-0.116,0.462-0.18l0.144,0.84c-0.048,0.023-0.116,0.054-0.204,0.09
			c-0.088,0.036-0.19,0.07-0.306,0.102c-0.116,0.032-0.244,0.061-0.384,0.084c-0.14,0.024-0.286,0.036-0.438,0.036
			c-0.352,0-0.644-0.048-0.876-0.144c-0.232-0.097-0.418-0.24-0.558-0.433c-0.14-0.191-0.238-0.43-0.294-0.714
			c-0.056-0.283-0.084-0.613-0.084-0.99V117.858z M78.508,116.167c-0.208,0-0.388-0.072-0.54-0.217
			c-0.152-0.144-0.228-0.34-0.228-0.588c0-0.247,0.076-0.443,0.228-0.588c0.152-0.144,0.332-0.216,0.54-0.216
			c0.216,0,0.398,0.072,0.546,0.216c0.148,0.145,0.222,0.341,0.222,0.588c0,0.248-0.074,0.444-0.222,0.588
			C78.906,116.095,78.724,116.167,78.508,116.167z"/>
		<path d="M82.852,117.187c0.36-0.088,0.718-0.156,1.074-0.204s0.69-0.072,1.002-0.072c0.744,0,1.306,0.192,1.686,0.576
			c0.38,0.385,0.57,1,0.57,1.849v3.264H86.2v-3.084c0-0.36-0.032-0.652-0.096-0.876s-0.154-0.397-0.27-0.522
			c-0.116-0.123-0.256-0.21-0.42-0.258c-0.164-0.048-0.342-0.071-0.534-0.071c-0.16,0-0.33,0.01-0.51,0.029
			c-0.18,0.021-0.354,0.046-0.522,0.078v4.704h-0.996V117.187z"/>
		<path d="M90.916,117.03h2.352v0.828h-2.352v2.592c0,0.28,0.02,0.509,0.06,0.685s0.106,0.317,0.198,0.426
			c0.092,0.108,0.21,0.183,0.354,0.222c0.144,0.041,0.32,0.061,0.528,0.061c0.288,0,0.52-0.024,0.696-0.072s0.344-0.111,0.504-0.191
			l0.144,0.84c-0.112,0.048-0.29,0.111-0.534,0.191c-0.244,0.08-0.546,0.12-0.906,0.12c-0.416,0-0.756-0.048-1.02-0.144
			c-0.264-0.097-0.47-0.24-0.618-0.433c-0.148-0.191-0.25-0.43-0.306-0.714c-0.056-0.283-0.084-0.613-0.084-0.99v-2.592h-1.176
			v-0.828h1.176v-1.56l0.984-0.168V117.03z"/>
		<path d="M97.108,116.898c0.752,0,1.332,0.234,1.74,0.702c0.408,0.468,0.612,1.178,0.612,2.13v0.349h-3.984
			c0.04,0.575,0.23,1.014,0.57,1.313s0.818,0.45,1.434,0.45c0.352,0,0.652-0.028,0.9-0.084s0.436-0.116,0.564-0.18l0.132,0.84
			c-0.12,0.063-0.336,0.132-0.648,0.204c-0.312,0.071-0.665,0.107-1.056,0.107c-0.48,0-0.902-0.074-1.266-0.222
			c-0.364-0.148-0.666-0.35-0.906-0.606c-0.24-0.256-0.42-0.562-0.54-0.918c-0.12-0.355-0.18-0.741-0.18-1.158
			c0-0.495,0.076-0.928,0.228-1.296c0.152-0.367,0.352-0.672,0.6-0.912c0.248-0.239,0.528-0.42,0.84-0.539
			C96.46,116.959,96.78,116.898,97.108,116.898z M98.452,119.274c0-0.472-0.125-0.846-0.372-1.122
			c-0.248-0.275-0.576-0.414-0.984-0.414c-0.232,0-0.442,0.044-0.63,0.133c-0.188,0.088-0.35,0.203-0.486,0.348
			c-0.136,0.144-0.244,0.308-0.324,0.492c-0.08,0.184-0.132,0.372-0.156,0.563H98.452z"/>
		<path d="M101.284,122.599v-5.268c0.816-0.28,1.64-0.421,2.472-0.421c0.256,0,0.5,0.011,0.732,0.03
			c0.232,0.021,0.488,0.062,0.768,0.126l-0.18,0.876c-0.256-0.071-0.482-0.118-0.678-0.138c-0.196-0.02-0.41-0.03-0.642-0.03
			c-0.488,0-0.984,0.068-1.488,0.204v4.62H101.284z"/>
		<path d="M106.852,117.187c0.36-0.088,0.718-0.156,1.074-0.204s0.69-0.072,1.002-0.072c0.744,0,1.306,0.192,1.686,0.576
			c0.38,0.385,0.57,1,0.57,1.849v3.264H110.2v-3.084c0-0.36-0.032-0.652-0.096-0.876s-0.154-0.397-0.27-0.522
			c-0.116-0.123-0.256-0.21-0.42-0.258c-0.164-0.048-0.342-0.071-0.534-0.071c-0.16,0-0.33,0.01-0.51,0.029
			c-0.18,0.021-0.354,0.046-0.522,0.078v4.704h-0.996V117.187z"/>
		<path d="M115.108,116.898c0.752,0,1.332,0.234,1.74,0.702c0.408,0.468,0.612,1.178,0.612,2.13v0.349h-3.984
			c0.04,0.575,0.23,1.014,0.57,1.313s0.818,0.45,1.434,0.45c0.352,0,0.652-0.028,0.9-0.084s0.436-0.116,0.564-0.18l0.132,0.84
			c-0.12,0.063-0.336,0.132-0.648,0.204c-0.312,0.071-0.665,0.107-1.056,0.107c-0.48,0-0.902-0.074-1.266-0.222
			c-0.364-0.148-0.666-0.35-0.906-0.606c-0.24-0.256-0.42-0.562-0.54-0.918c-0.12-0.355-0.18-0.741-0.18-1.158
			c0-0.495,0.076-0.928,0.228-1.296c0.152-0.367,0.352-0.672,0.6-0.912c0.248-0.239,0.528-0.42,0.84-0.539
			C114.46,116.959,114.78,116.898,115.108,116.898z M116.452,119.274c0-0.472-0.125-0.846-0.372-1.122
			c-0.248-0.275-0.576-0.414-0.984-0.414c-0.232,0-0.442,0.044-0.63,0.133c-0.188,0.088-0.35,0.203-0.486,0.348
			c-0.136,0.144-0.244,0.308-0.324,0.492c-0.08,0.184-0.132,0.372-0.156,0.563H116.452z"/>
		<path d="M120.916,117.03h2.352v0.828h-2.352v2.592c0,0.28,0.02,0.509,0.06,0.685s0.106,0.317,0.198,0.426
			c0.092,0.108,0.21,0.183,0.354,0.222c0.144,0.041,0.32,0.061,0.528,0.061c0.288,0,0.52-0.024,0.696-0.072s0.344-0.111,0.504-0.191
			l0.144,0.84c-0.112,0.048-0.29,0.111-0.534,0.191c-0.244,0.08-0.546,0.12-0.906,0.12c-0.416,0-0.756-0.048-1.02-0.144
			c-0.264-0.097-0.47-0.24-0.618-0.433c-0.148-0.191-0.25-0.43-0.306-0.714c-0.056-0.283-0.084-0.613-0.084-0.99v-2.592h-1.176
			v-0.828h1.176v-1.56l0.984-0.168V117.03z"/>
	</g>
</g>
<g>
	<path fill="#FFFFFF" d="M488,211.5c-1.379,0-2.5-1.121-2.5-2.5v-18c0-1.379,1.121-2.5,2.5-2.5h120c1.379,0,2.5,1.121,2.5,2.5v18
		c0,1.379-1.121,2.5-2.5,2.5H488z"/>
	<path fill="#8CD2BE" d="M608,189c1.104,0,2,0.896,2,2v18c0,1.104-0.896,2-2,2H488c-1.103,0-2-0.896-2-2v-18c0-1.104,0.897-2,2-2
		H608 M608,188H488c-1.65,0-3,1.35-3,3v18c0,1.65,1.35,3,3,3h120c1.65,0,3-1.35,3-3v-18C611,189.35,609.65,188,608,188L608,188z"/>
</g>
<g>
	<g enable-background="new    ">
		<path d="M494.588,200.286c0-0.504,0.08-0.939,0.24-1.308s0.38-0.672,0.66-0.912c0.279-0.24,0.605-0.418,0.978-0.534
			c0.372-0.115,0.771-0.174,1.194-0.174c0.271,0,0.541,0.019,0.811,0.054c0.268,0.036,0.553,0.103,0.857,0.198l-0.229,0.853
			c-0.264-0.097-0.506-0.158-0.726-0.187c-0.22-0.027-0.442-0.042-0.666-0.042c-0.288,0-0.56,0.038-0.815,0.114
			c-0.257,0.076-0.479,0.196-0.666,0.36c-0.188,0.164-0.339,0.376-0.451,0.636c-0.111,0.26-0.168,0.574-0.168,0.941
			c0,0.353,0.053,0.654,0.156,0.906s0.25,0.46,0.438,0.624c0.188,0.164,0.414,0.286,0.678,0.366c0.265,0.08,0.556,0.12,0.876,0.12
			c0.256,0,0.502-0.014,0.738-0.042s0.494-0.09,0.773-0.187l0.145,0.828c-0.28,0.104-0.564,0.178-0.852,0.223
			c-0.289,0.044-0.601,0.065-0.937,0.065c-0.448,0-0.858-0.062-1.229-0.186c-0.373-0.124-0.692-0.307-0.961-0.546
			c-0.268-0.24-0.476-0.542-0.623-0.906C494.662,201.188,494.588,200.767,494.588,200.286z"/>
		<path d="M505.52,200.274c0,0.44-0.062,0.838-0.186,1.194c-0.124,0.355-0.299,0.662-0.521,0.918
			c-0.225,0.256-0.492,0.454-0.805,0.594s-0.652,0.21-1.02,0.21c-0.36,0-0.694-0.07-1.002-0.21c-0.309-0.14-0.574-0.338-0.799-0.594
			c-0.224-0.256-0.397-0.562-0.521-0.918c-0.124-0.356-0.186-0.754-0.186-1.194c0-0.439,0.062-0.84,0.186-1.2
			c0.124-0.359,0.298-0.666,0.521-0.918c0.225-0.252,0.49-0.447,0.799-0.588c0.308-0.14,0.642-0.21,1.002-0.21
			c0.367,0,0.707,0.07,1.02,0.21c0.312,0.141,0.58,0.336,0.805,0.588c0.223,0.252,0.397,0.559,0.521,0.918
			C505.458,199.435,505.52,199.835,505.52,200.274z M504.5,200.274c0-0.632-0.137-1.13-0.408-1.494
			c-0.271-0.363-0.641-0.546-1.104-0.546c-0.456,0-0.818,0.183-1.086,0.546c-0.269,0.364-0.402,0.862-0.402,1.494
			c0,0.624,0.134,1.118,0.402,1.482c0.268,0.364,0.63,0.546,1.086,0.546c0.463,0,0.832-0.182,1.104-0.546
			S504.5,200.898,504.5,200.274z"/>
		<path d="M506.492,197.646c0.48-0.184,0.932-0.276,1.355-0.276c0.232,0,0.45,0.034,0.654,0.103s0.378,0.174,0.521,0.318
			c0.344-0.28,0.713-0.421,1.104-0.421c0.192,0,0.374,0.036,0.546,0.108s0.324,0.18,0.456,0.324c0.132,0.144,0.238,0.324,0.318,0.54
			c0.079,0.216,0.12,0.468,0.12,0.756v3.96h-0.9v-3.984c0-0.288-0.064-0.508-0.191-0.659c-0.129-0.152-0.289-0.229-0.48-0.229
			c-0.096,0-0.196,0.024-0.301,0.072c-0.104,0.048-0.199,0.124-0.287,0.228c0.048,0.185,0.072,0.389,0.072,0.612v1.812h-0.9v-1.823
			c0-0.28-0.044-0.5-0.132-0.66c-0.089-0.16-0.261-0.24-0.517-0.24c-0.16,0-0.34,0.036-0.539,0.108v4.764h-0.9V197.646z"/>
		<path d="M520.964,197.358c0.416,0,0.767,0.053,1.05,0.156c0.284,0.104,0.514,0.248,0.69,0.432c0.176,0.185,0.3,0.408,0.372,0.672
			c0.072,0.265,0.107,0.553,0.107,0.864v3.48c-0.232,0.04-0.537,0.088-0.918,0.144c-0.38,0.056-0.77,0.084-1.17,0.084
			c-0.304,0-0.6-0.026-0.888-0.078s-0.544-0.144-0.769-0.275c-0.224-0.132-0.403-0.314-0.539-0.546
			c-0.137-0.232-0.205-0.528-0.205-0.889c0-0.319,0.07-0.59,0.211-0.81c0.14-0.22,0.32-0.398,0.539-0.534
			c0.221-0.136,0.473-0.234,0.757-0.294s0.569-0.09,0.858-0.09c0.391,0,0.775,0.044,1.151,0.132v-0.276
			c0-0.168-0.019-0.33-0.054-0.485c-0.036-0.156-0.104-0.298-0.204-0.427c-0.101-0.128-0.236-0.229-0.408-0.306
			s-0.394-0.114-0.666-0.114c-0.344,0-0.644,0.024-0.899,0.072c-0.257,0.048-0.453,0.096-0.588,0.145l-0.121-0.816
			c0.137-0.064,0.362-0.12,0.679-0.168C520.266,197.383,520.604,197.358,520.964,197.358z M521.061,202.351
			c0.248,0,0.469-0.008,0.666-0.024c0.195-0.016,0.357-0.035,0.485-0.06v-1.656c-0.128-0.04-0.282-0.071-0.462-0.096
			s-0.37-0.036-0.57-0.036c-0.184,0-0.363,0.014-0.539,0.042c-0.177,0.028-0.332,0.078-0.469,0.15
			c-0.137,0.071-0.248,0.166-0.336,0.281c-0.088,0.116-0.132,0.263-0.132,0.438c0,0.36,0.122,0.61,0.366,0.75
			S520.645,202.351,521.061,202.351z"/>
		<path d="M524.588,200.286c0-0.504,0.08-0.939,0.24-1.308s0.38-0.672,0.66-0.912c0.279-0.24,0.605-0.418,0.978-0.534
			c0.372-0.115,0.771-0.174,1.194-0.174c0.271,0,0.541,0.019,0.811,0.054c0.268,0.036,0.553,0.103,0.857,0.198l-0.229,0.853
			c-0.264-0.097-0.506-0.158-0.726-0.187c-0.22-0.027-0.442-0.042-0.666-0.042c-0.288,0-0.56,0.038-0.815,0.114
			c-0.257,0.076-0.479,0.196-0.666,0.36c-0.188,0.164-0.339,0.376-0.451,0.636c-0.111,0.26-0.168,0.574-0.168,0.941
			c0,0.353,0.053,0.654,0.156,0.906s0.25,0.46,0.438,0.624c0.188,0.164,0.414,0.286,0.678,0.366c0.265,0.08,0.556,0.12,0.876,0.12
			c0.256,0,0.502-0.014,0.738-0.042s0.494-0.09,0.773-0.187l0.145,0.828c-0.28,0.104-0.564,0.178-0.852,0.223
			c-0.289,0.044-0.601,0.065-0.937,0.065c-0.448,0-0.858-0.062-1.229-0.186c-0.373-0.124-0.692-0.307-0.961-0.546
			c-0.268-0.24-0.476-0.542-0.623-0.906C524.662,201.188,524.588,200.767,524.588,200.286z"/>
		<path d="M533.107,197.358c0.752,0,1.332,0.234,1.74,0.702s0.612,1.178,0.612,2.13v0.349h-3.983
			c0.039,0.575,0.229,1.014,0.569,1.313s0.817,0.45,1.435,0.45c0.352,0,0.651-0.028,0.899-0.084s0.437-0.116,0.563-0.18l0.133,0.84
			c-0.12,0.063-0.336,0.132-0.648,0.204c-0.312,0.071-0.664,0.107-1.056,0.107c-0.479,0-0.902-0.074-1.267-0.222
			c-0.363-0.148-0.666-0.35-0.905-0.606c-0.24-0.256-0.421-0.562-0.54-0.918c-0.12-0.355-0.18-0.741-0.18-1.158
			c0-0.495,0.076-0.928,0.228-1.296c0.151-0.367,0.353-0.672,0.601-0.912c0.247-0.239,0.527-0.42,0.84-0.539
			C532.46,197.419,532.779,197.358,533.107,197.358z M534.452,199.734c0-0.472-0.124-0.846-0.372-1.122
			c-0.248-0.275-0.576-0.414-0.984-0.414c-0.232,0-0.441,0.044-0.63,0.133c-0.188,0.088-0.351,0.203-0.485,0.348
			c-0.137,0.144-0.244,0.308-0.324,0.492c-0.08,0.184-0.133,0.372-0.156,0.563H534.452z"/>
		<path d="M540.212,201.667c0-0.2-0.082-0.364-0.246-0.492s-0.368-0.24-0.612-0.336c-0.244-0.097-0.51-0.19-0.797-0.282
			c-0.289-0.092-0.555-0.206-0.799-0.342s-0.447-0.304-0.611-0.504s-0.246-0.46-0.246-0.78c0-0.448,0.182-0.822,0.545-1.122
			c0.365-0.3,0.935-0.45,1.711-0.45c0.304,0,0.617,0.022,0.941,0.066s0.602,0.102,0.834,0.174l-0.18,0.888
			c-0.064-0.031-0.152-0.065-0.264-0.102c-0.112-0.036-0.24-0.068-0.385-0.096c-0.144-0.028-0.298-0.051-0.461-0.066
			c-0.164-0.016-0.322-0.024-0.475-0.024c-0.863,0-1.296,0.236-1.296,0.708c0,0.168,0.082,0.311,0.246,0.427
			c0.163,0.115,0.37,0.222,0.618,0.317c0.248,0.097,0.516,0.194,0.804,0.294c0.288,0.101,0.556,0.223,0.804,0.366
			c0.248,0.145,0.454,0.318,0.618,0.522c0.164,0.203,0.246,0.462,0.246,0.773c0,0.504-0.196,0.895-0.588,1.17
			c-0.392,0.276-1.013,0.414-1.86,0.414c-0.384,0-0.736-0.032-1.056-0.096c-0.32-0.064-0.624-0.16-0.912-0.288l0.192-0.9
			c0.279,0.128,0.574,0.234,0.882,0.318s0.638,0.126,0.989,0.126C539.76,202.351,540.212,202.123,540.212,201.667z"/>
		<path d="M546.212,201.667c0-0.2-0.082-0.364-0.246-0.492s-0.368-0.24-0.612-0.336c-0.244-0.097-0.51-0.19-0.797-0.282
			c-0.289-0.092-0.555-0.206-0.799-0.342s-0.447-0.304-0.611-0.504s-0.246-0.46-0.246-0.78c0-0.448,0.182-0.822,0.545-1.122
			c0.365-0.3,0.935-0.45,1.711-0.45c0.304,0,0.617,0.022,0.941,0.066s0.602,0.102,0.834,0.174l-0.18,0.888
			c-0.064-0.031-0.152-0.065-0.264-0.102c-0.112-0.036-0.24-0.068-0.385-0.096c-0.144-0.028-0.298-0.051-0.461-0.066
			c-0.164-0.016-0.322-0.024-0.475-0.024c-0.863,0-1.296,0.236-1.296,0.708c0,0.168,0.082,0.311,0.246,0.427
			c0.163,0.115,0.37,0.222,0.618,0.317c0.248,0.097,0.516,0.194,0.804,0.294c0.288,0.101,0.556,0.223,0.804,0.366
			c0.248,0.145,0.454,0.318,0.618,0.522c0.164,0.203,0.246,0.462,0.246,0.773c0,0.504-0.196,0.895-0.588,1.17
			c-0.392,0.276-1.013,0.414-1.86,0.414c-0.384,0-0.736-0.032-1.056-0.096c-0.32-0.064-0.624-0.16-0.912-0.288l0.192-0.9
			c0.279,0.128,0.574,0.234,0.882,0.318s0.638,0.126,0.989,0.126C545.76,202.351,546.212,202.123,546.212,201.667z"/>
		<path d="M553.52,200.274c0,0.44-0.062,0.838-0.186,1.194c-0.124,0.355-0.299,0.662-0.521,0.918
			c-0.225,0.256-0.492,0.454-0.805,0.594s-0.652,0.21-1.02,0.21c-0.36,0-0.694-0.07-1.002-0.21c-0.309-0.14-0.574-0.338-0.799-0.594
			c-0.224-0.256-0.397-0.562-0.521-0.918c-0.124-0.356-0.186-0.754-0.186-1.194c0-0.439,0.062-0.84,0.186-1.2
			c0.124-0.359,0.298-0.666,0.521-0.918c0.225-0.252,0.49-0.447,0.799-0.588c0.308-0.14,0.642-0.21,1.002-0.21
			c0.367,0,0.707,0.07,1.02,0.21c0.312,0.141,0.58,0.336,0.805,0.588c0.223,0.252,0.397,0.559,0.521,0.918
			C553.458,199.435,553.52,199.835,553.52,200.274z M552.5,200.274c0-0.632-0.137-1.13-0.408-1.494
			c-0.271-0.363-0.641-0.546-1.104-0.546c-0.456,0-0.818,0.183-1.086,0.546c-0.269,0.364-0.402,0.862-0.402,1.494
			c0,0.624,0.134,1.118,0.402,1.482c0.268,0.364,0.63,0.546,1.086,0.546c0.463,0,0.832-0.182,1.104-0.546
			S552.5,200.898,552.5,200.274z"/>
		<path d="M563.107,197.358c0.752,0,1.332,0.234,1.74,0.702s0.612,1.178,0.612,2.13v0.349h-3.983
			c0.039,0.575,0.229,1.014,0.569,1.313s0.817,0.45,1.435,0.45c0.352,0,0.651-0.028,0.899-0.084s0.437-0.116,0.563-0.18l0.133,0.84
			c-0.12,0.063-0.336,0.132-0.648,0.204c-0.312,0.071-0.664,0.107-1.056,0.107c-0.479,0-0.902-0.074-1.267-0.222
			c-0.363-0.148-0.666-0.35-0.905-0.606c-0.24-0.256-0.421-0.562-0.54-0.918c-0.12-0.355-0.18-0.741-0.18-1.158
			c0-0.495,0.076-0.928,0.228-1.296c0.151-0.367,0.353-0.672,0.601-0.912c0.247-0.239,0.527-0.42,0.84-0.539
			C562.46,197.419,562.779,197.358,563.107,197.358z M564.452,199.734c0-0.472-0.124-0.846-0.372-1.122
			c-0.248-0.275-0.576-0.414-0.984-0.414c-0.232,0-0.441,0.044-0.63,0.133c-0.188,0.088-0.351,0.203-0.485,0.348
			c-0.137,0.144-0.244,0.308-0.324,0.492c-0.08,0.184-0.133,0.372-0.156,0.563H564.452z"/>
		<path d="M566.492,197.646c0.48-0.184,0.932-0.276,1.355-0.276c0.232,0,0.45,0.034,0.654,0.103s0.378,0.174,0.521,0.318
			c0.344-0.28,0.713-0.421,1.104-0.421c0.192,0,0.374,0.036,0.546,0.108s0.324,0.18,0.456,0.324c0.132,0.144,0.238,0.324,0.318,0.54
			c0.079,0.216,0.12,0.468,0.12,0.756v3.96h-0.9v-3.984c0-0.288-0.064-0.508-0.191-0.659c-0.129-0.152-0.289-0.229-0.48-0.229
			c-0.096,0-0.196,0.024-0.301,0.072c-0.104,0.048-0.199,0.124-0.287,0.228c0.048,0.185,0.072,0.389,0.072,0.612v1.812h-0.9v-1.823
			c0-0.28-0.044-0.5-0.132-0.66c-0.089-0.16-0.261-0.24-0.517-0.24c-0.16,0-0.34,0.036-0.539,0.108v4.764h-0.9V197.646z"/>
		<path d="M578.588,200.286c0-0.504,0.08-0.939,0.24-1.308s0.38-0.672,0.66-0.912c0.279-0.24,0.605-0.418,0.978-0.534
			c0.372-0.115,0.771-0.174,1.194-0.174c0.271,0,0.541,0.019,0.811,0.054c0.268,0.036,0.553,0.103,0.857,0.198l-0.229,0.853
			c-0.264-0.097-0.506-0.158-0.726-0.187c-0.22-0.027-0.442-0.042-0.666-0.042c-0.288,0-0.56,0.038-0.815,0.114
			c-0.257,0.076-0.479,0.196-0.666,0.36c-0.188,0.164-0.339,0.376-0.451,0.636c-0.111,0.26-0.168,0.574-0.168,0.941
			c0,0.353,0.053,0.654,0.156,0.906s0.25,0.46,0.438,0.624c0.188,0.164,0.414,0.286,0.678,0.366c0.265,0.08,0.556,0.12,0.876,0.12
			c0.256,0,0.502-0.014,0.738-0.042s0.494-0.09,0.773-0.187l0.145,0.828c-0.28,0.104-0.564,0.178-0.852,0.223
			c-0.289,0.044-0.601,0.065-0.937,0.065c-0.448,0-0.858-0.062-1.229-0.186c-0.373-0.124-0.692-0.307-0.961-0.546
			c-0.268-0.24-0.476-0.542-0.623-0.906C578.662,201.188,578.588,200.767,578.588,200.286z"/>
		<path d="M586.964,197.358c0.416,0,0.767,0.053,1.05,0.156c0.284,0.104,0.514,0.248,0.69,0.432c0.176,0.185,0.3,0.408,0.372,0.672
			c0.072,0.265,0.107,0.553,0.107,0.864v3.48c-0.232,0.04-0.537,0.088-0.918,0.144c-0.38,0.056-0.77,0.084-1.17,0.084
			c-0.304,0-0.6-0.026-0.888-0.078s-0.544-0.144-0.769-0.275c-0.224-0.132-0.403-0.314-0.539-0.546
			c-0.137-0.232-0.205-0.528-0.205-0.889c0-0.319,0.07-0.59,0.211-0.81c0.14-0.22,0.32-0.398,0.539-0.534
			c0.221-0.136,0.473-0.234,0.757-0.294s0.569-0.09,0.858-0.09c0.391,0,0.775,0.044,1.151,0.132v-0.276
			c0-0.168-0.019-0.33-0.054-0.485c-0.036-0.156-0.104-0.298-0.204-0.427c-0.101-0.128-0.236-0.229-0.408-0.306
			s-0.394-0.114-0.666-0.114c-0.344,0-0.644,0.024-0.899,0.072c-0.257,0.048-0.453,0.096-0.588,0.145l-0.121-0.816
			c0.137-0.064,0.362-0.12,0.679-0.168C586.266,197.383,586.604,197.358,586.964,197.358z M587.061,202.351
			c0.248,0,0.469-0.008,0.666-0.024c0.195-0.016,0.357-0.035,0.485-0.06v-1.656c-0.128-0.04-0.282-0.071-0.462-0.096
			s-0.37-0.036-0.57-0.036c-0.184,0-0.363,0.014-0.539,0.042c-0.177,0.028-0.332,0.078-0.469,0.15
			c-0.137,0.071-0.248,0.166-0.336,0.281c-0.088,0.116-0.132,0.263-0.132,0.438c0,0.36,0.122,0.61,0.366,0.75
			S586.645,202.351,587.061,202.351z"/>
		<path d="M594.212,201.667c0-0.2-0.082-0.364-0.246-0.492s-0.368-0.24-0.612-0.336c-0.244-0.097-0.51-0.19-0.797-0.282
			c-0.289-0.092-0.555-0.206-0.799-0.342s-0.447-0.304-0.611-0.504s-0.246-0.46-0.246-0.78c0-0.448,0.182-0.822,0.545-1.122
			c0.365-0.3,0.935-0.45,1.711-0.45c0.304,0,0.617,0.022,0.941,0.066s0.602,0.102,0.834,0.174l-0.18,0.888
			c-0.064-0.031-0.152-0.065-0.264-0.102c-0.112-0.036-0.24-0.068-0.385-0.096c-0.144-0.028-0.298-0.051-0.461-0.066
			c-0.164-0.016-0.322-0.024-0.475-0.024c-0.863,0-1.296,0.236-1.296,0.708c0,0.168,0.082,0.311,0.246,0.427
			c0.163,0.115,0.37,0.222,0.618,0.317c0.248,0.097,0.516,0.194,0.804,0.294c0.288,0.101,0.556,0.223,0.804,0.366
			c0.248,0.145,0.454,0.318,0.618,0.522c0.164,0.203,0.246,0.462,0.246,0.773c0,0.504-0.196,0.895-0.588,1.17
			c-0.392,0.276-1.013,0.414-1.86,0.414c-0.384,0-0.736-0.032-1.056-0.096c-0.32-0.064-0.624-0.16-0.912-0.288l0.192-0.9
			c0.279,0.128,0.574,0.234,0.882,0.318s0.638,0.126,0.989,0.126C593.76,202.351,594.212,202.123,594.212,201.667z"/>
		<path d="M598.964,197.358c0.416,0,0.767,0.053,1.05,0.156c0.284,0.104,0.514,0.248,0.69,0.432c0.176,0.185,0.3,0.408,0.372,0.672
			c0.072,0.265,0.107,0.553,0.107,0.864v3.48c-0.232,0.04-0.537,0.088-0.918,0.144c-0.38,0.056-0.77,0.084-1.17,0.084
			c-0.304,0-0.6-0.026-0.888-0.078s-0.544-0.144-0.769-0.275c-0.224-0.132-0.403-0.314-0.539-0.546
			c-0.137-0.232-0.205-0.528-0.205-0.889c0-0.319,0.07-0.59,0.211-0.81c0.14-0.22,0.32-0.398,0.539-0.534
			c0.221-0.136,0.473-0.234,0.757-0.294s0.569-0.09,0.858-0.09c0.391,0,0.775,0.044,1.151,0.132v-0.276
			c0-0.168-0.019-0.33-0.054-0.485c-0.036-0.156-0.104-0.298-0.204-0.427c-0.101-0.128-0.236-0.229-0.408-0.306
			s-0.394-0.114-0.666-0.114c-0.344,0-0.644,0.024-0.899,0.072c-0.257,0.048-0.453,0.096-0.588,0.145l-0.121-0.816
			c0.137-0.064,0.362-0.12,0.679-0.168C598.266,197.383,598.604,197.358,598.964,197.358z M599.061,202.351
			c0.248,0,0.469-0.008,0.666-0.024c0.195-0.016,0.357-0.035,0.485-0.06v-1.656c-0.128-0.04-0.282-0.071-0.462-0.096
			s-0.37-0.036-0.57-0.036c-0.184,0-0.363,0.014-0.539,0.042c-0.177,0.028-0.332,0.078-0.469,0.15
			c-0.137,0.071-0.248,0.166-0.336,0.281c-0.088,0.116-0.132,0.263-0.132,0.438c0,0.36,0.122,0.61,0.366,0.75
			S598.645,202.351,599.061,202.351z"/>
	</g>
</g>
<g>
	<path fill="#FFFFFF" d="M42,211.5c-1.378,0-2.5-1.121-2.5-2.5v-18c0-1.379,1.122-2.5,2.5-2.5h116c1.378,0,2.5,1.121,2.5,2.5v18
		c0,1.379-1.122,2.5-2.5,2.5H42z"/>
	<path fill="#C8C8B4" d="M158,189c1.103,0,2,0.896,2,2v18c0,1.104-0.897,2-2,2H42c-1.103,0-2-0.896-2-2v-18c0-1.104,0.897-2,2-2H158
		 M158,188H42c-1.65,0-3,1.35-3,3v18c0,1.65,1.35,3,3,3h116c1.65,0,3-1.35,3-3v-18C161,189.35,159.65,188,158,188L158,188z"/>
</g>
<g>
	<g enable-background="new    ">
		<path d="M50.212,201.667c0-0.2-0.082-0.364-0.246-0.492s-0.368-0.24-0.612-0.336c-0.244-0.097-0.51-0.19-0.798-0.282
			s-0.554-0.206-0.798-0.342s-0.448-0.304-0.612-0.504s-0.246-0.46-0.246-0.78c0-0.448,0.182-0.822,0.546-1.122
			c0.364-0.3,0.934-0.45,1.71-0.45c0.304,0,0.618,0.022,0.942,0.066c0.324,0.044,0.602,0.102,0.834,0.174l-0.18,0.888
			c-0.064-0.031-0.152-0.065-0.264-0.102c-0.112-0.036-0.24-0.068-0.384-0.096c-0.144-0.028-0.298-0.051-0.462-0.066
			c-0.164-0.016-0.322-0.024-0.474-0.024c-0.864,0-1.296,0.236-1.296,0.708c0,0.168,0.082,0.311,0.246,0.427
			c0.164,0.115,0.37,0.222,0.618,0.317c0.248,0.097,0.516,0.194,0.804,0.294c0.288,0.101,0.556,0.223,0.804,0.366
			c0.248,0.145,0.454,0.318,0.618,0.522c0.164,0.203,0.246,0.462,0.246,0.773c0,0.504-0.196,0.895-0.588,1.17
			c-0.392,0.276-1.012,0.414-1.86,0.414c-0.384,0-0.736-0.032-1.056-0.096c-0.32-0.064-0.624-0.16-0.912-0.288l0.192-0.9
			c0.28,0.128,0.574,0.234,0.882,0.318c0.308,0.084,0.638,0.126,0.99,0.126C49.76,202.351,50.212,202.123,50.212,201.667z"/>
		<path d="M55.108,197.358c0.752,0,1.332,0.234,1.74,0.702c0.408,0.468,0.612,1.178,0.612,2.13v0.349h-3.984
			c0.04,0.575,0.23,1.014,0.57,1.313s0.818,0.45,1.434,0.45c0.352,0,0.652-0.028,0.9-0.084s0.436-0.116,0.564-0.18l0.132,0.84
			c-0.12,0.063-0.336,0.132-0.648,0.204c-0.312,0.071-0.665,0.107-1.056,0.107c-0.48,0-0.902-0.074-1.266-0.222
			c-0.364-0.148-0.666-0.35-0.906-0.606c-0.24-0.256-0.42-0.562-0.54-0.918c-0.12-0.355-0.18-0.741-0.18-1.158
			c0-0.495,0.076-0.928,0.228-1.296c0.152-0.367,0.352-0.672,0.6-0.912c0.248-0.239,0.528-0.42,0.84-0.539
			C54.46,197.419,54.78,197.358,55.108,197.358z M56.452,199.734c0-0.472-0.125-0.846-0.372-1.122
			c-0.248-0.275-0.576-0.414-0.984-0.414c-0.232,0-0.442,0.044-0.63,0.133c-0.188,0.088-0.35,0.203-0.486,0.348
			c-0.136,0.144-0.244,0.308-0.324,0.492c-0.08,0.184-0.132,0.372-0.156,0.563H56.452z"/>
		<path d="M58.492,197.646c0.48-0.184,0.932-0.276,1.356-0.276c0.232,0,0.45,0.034,0.654,0.103s0.378,0.174,0.522,0.318
			c0.344-0.28,0.712-0.421,1.104-0.421c0.192,0,0.374,0.036,0.546,0.108s0.324,0.18,0.456,0.324c0.132,0.144,0.238,0.324,0.318,0.54
			c0.08,0.216,0.12,0.468,0.12,0.756v3.96h-0.9v-3.984c0-0.288-0.064-0.508-0.192-0.659c-0.128-0.152-0.288-0.229-0.48-0.229
			c-0.096,0-0.196,0.024-0.3,0.072s-0.2,0.124-0.288,0.228c0.048,0.185,0.072,0.389,0.072,0.612v1.812h-0.9v-1.823
			c0-0.28-0.044-0.5-0.132-0.66c-0.088-0.16-0.26-0.24-0.516-0.24c-0.16,0-0.34,0.036-0.54,0.108v4.764h-0.9V197.646z"/>
		<path d="M72.964,197.358c0.416,0,0.766,0.053,1.05,0.156c0.284,0.104,0.514,0.248,0.69,0.432c0.176,0.185,0.3,0.408,0.372,0.672
			c0.072,0.265,0.108,0.553,0.108,0.864v3.48c-0.232,0.04-0.538,0.088-0.918,0.144c-0.38,0.056-0.77,0.084-1.17,0.084
			c-0.304,0-0.6-0.026-0.888-0.078s-0.544-0.144-0.768-0.275s-0.404-0.314-0.54-0.546c-0.136-0.232-0.204-0.528-0.204-0.889
			c0-0.319,0.07-0.59,0.21-0.81c0.14-0.22,0.32-0.398,0.54-0.534c0.22-0.136,0.472-0.234,0.756-0.294
			c0.284-0.06,0.57-0.09,0.858-0.09c0.392,0,0.776,0.044,1.152,0.132v-0.276c0-0.168-0.018-0.33-0.054-0.485
			c-0.036-0.156-0.104-0.298-0.204-0.427c-0.1-0.128-0.236-0.229-0.408-0.306s-0.394-0.114-0.666-0.114
			c-0.344,0-0.644,0.024-0.9,0.072c-0.256,0.048-0.452,0.096-0.588,0.145l-0.12-0.816c0.136-0.064,0.362-0.12,0.678-0.168
			C72.266,197.383,72.604,197.358,72.964,197.358z M73.06,202.351c0.248,0,0.47-0.008,0.666-0.024
			c0.196-0.016,0.358-0.035,0.486-0.06v-1.656c-0.128-0.04-0.282-0.071-0.462-0.096s-0.37-0.036-0.57-0.036
			c-0.184,0-0.364,0.014-0.54,0.042c-0.176,0.028-0.332,0.078-0.468,0.15c-0.136,0.071-0.248,0.166-0.336,0.281
			c-0.088,0.116-0.132,0.263-0.132,0.438c0,0.36,0.122,0.61,0.366,0.75S72.644,202.351,73.06,202.351z"/>
		<path d="M76.588,200.286c0-0.504,0.08-0.939,0.24-1.308c0.16-0.368,0.38-0.672,0.66-0.912c0.28-0.24,0.606-0.418,0.978-0.534
			c0.372-0.115,0.77-0.174,1.194-0.174c0.271,0,0.542,0.019,0.81,0.054c0.268,0.036,0.554,0.103,0.858,0.198l-0.228,0.853
			c-0.264-0.097-0.506-0.158-0.726-0.187c-0.22-0.027-0.442-0.042-0.666-0.042c-0.288,0-0.56,0.038-0.816,0.114
			c-0.256,0.076-0.478,0.196-0.666,0.36s-0.338,0.376-0.45,0.636s-0.168,0.574-0.168,0.941c0,0.353,0.052,0.654,0.156,0.906
			c0.104,0.252,0.25,0.46,0.438,0.624c0.188,0.164,0.414,0.286,0.678,0.366c0.264,0.08,0.556,0.12,0.876,0.12
			c0.256,0,0.502-0.014,0.738-0.042c0.236-0.028,0.494-0.09,0.774-0.187l0.144,0.828c-0.28,0.104-0.564,0.178-0.852,0.223
			c-0.288,0.044-0.6,0.065-0.936,0.065c-0.448,0-0.858-0.062-1.23-0.186s-0.692-0.307-0.96-0.546
			c-0.268-0.24-0.476-0.542-0.624-0.906S76.588,200.767,76.588,200.286z"/>
		<path d="M85.108,197.358c0.752,0,1.332,0.234,1.74,0.702c0.408,0.468,0.612,1.178,0.612,2.13v0.349h-3.984
			c0.04,0.575,0.23,1.014,0.57,1.313s0.818,0.45,1.434,0.45c0.352,0,0.652-0.028,0.9-0.084s0.436-0.116,0.564-0.18l0.132,0.84
			c-0.12,0.063-0.336,0.132-0.648,0.204c-0.312,0.071-0.665,0.107-1.056,0.107c-0.48,0-0.902-0.074-1.266-0.222
			c-0.364-0.148-0.666-0.35-0.906-0.606c-0.24-0.256-0.42-0.562-0.54-0.918c-0.12-0.355-0.18-0.741-0.18-1.158
			c0-0.495,0.076-0.928,0.228-1.296c0.152-0.367,0.352-0.672,0.6-0.912c0.248-0.239,0.528-0.42,0.84-0.539
			C84.46,197.419,84.78,197.358,85.108,197.358z M86.452,199.734c0-0.472-0.125-0.846-0.372-1.122
			c-0.248-0.275-0.576-0.414-0.984-0.414c-0.232,0-0.442,0.044-0.63,0.133c-0.188,0.088-0.35,0.203-0.486,0.348
			c-0.136,0.144-0.244,0.308-0.324,0.492c-0.08,0.184-0.132,0.372-0.156,0.563H86.452z"/>
		<path d="M92.212,201.667c0-0.2-0.082-0.364-0.246-0.492s-0.368-0.24-0.612-0.336c-0.244-0.097-0.51-0.19-0.798-0.282
			s-0.554-0.206-0.798-0.342s-0.448-0.304-0.612-0.504s-0.246-0.46-0.246-0.78c0-0.448,0.182-0.822,0.546-1.122
			c0.364-0.3,0.934-0.45,1.71-0.45c0.304,0,0.618,0.022,0.942,0.066c0.324,0.044,0.602,0.102,0.834,0.174l-0.18,0.888
			c-0.064-0.031-0.152-0.065-0.264-0.102c-0.112-0.036-0.24-0.068-0.384-0.096c-0.144-0.028-0.298-0.051-0.462-0.066
			c-0.164-0.016-0.322-0.024-0.474-0.024c-0.864,0-1.296,0.236-1.296,0.708c0,0.168,0.082,0.311,0.246,0.427
			c0.164,0.115,0.37,0.222,0.618,0.317c0.248,0.097,0.516,0.194,0.804,0.294c0.288,0.101,0.556,0.223,0.804,0.366
			c0.248,0.145,0.454,0.318,0.618,0.522c0.164,0.203,0.246,0.462,0.246,0.773c0,0.504-0.196,0.895-0.588,1.17
			c-0.392,0.276-1.012,0.414-1.86,0.414c-0.384,0-0.736-0.032-1.056-0.096c-0.32-0.064-0.624-0.16-0.912-0.288l0.192-0.9
			c0.28,0.128,0.574,0.234,0.882,0.318c0.308,0.084,0.638,0.126,0.99,0.126C91.76,202.351,92.212,202.123,92.212,201.667z"/>
		<path d="M98.212,201.667c0-0.2-0.082-0.364-0.246-0.492s-0.368-0.24-0.612-0.336c-0.244-0.097-0.51-0.19-0.798-0.282
			s-0.554-0.206-0.798-0.342s-0.448-0.304-0.612-0.504s-0.246-0.46-0.246-0.78c0-0.448,0.182-0.822,0.546-1.122
			c0.364-0.3,0.934-0.45,1.71-0.45c0.304,0,0.618,0.022,0.942,0.066c0.324,0.044,0.602,0.102,0.834,0.174l-0.18,0.888
			c-0.064-0.031-0.152-0.065-0.264-0.102c-0.112-0.036-0.24-0.068-0.384-0.096c-0.144-0.028-0.298-0.051-0.462-0.066
			c-0.164-0.016-0.322-0.024-0.474-0.024c-0.864,0-1.296,0.236-1.296,0.708c0,0.168,0.082,0.311,0.246,0.427
			c0.164,0.115,0.37,0.222,0.618,0.317c0.248,0.097,0.516,0.194,0.804,0.294c0.288,0.101,0.556,0.223,0.804,0.366
			c0.248,0.145,0.454,0.318,0.618,0.522c0.164,0.203,0.246,0.462,0.246,0.773c0,0.504-0.196,0.895-0.588,1.17
			c-0.392,0.276-1.012,0.414-1.86,0.414c-0.384,0-0.736-0.032-1.056-0.096c-0.32-0.064-0.624-0.16-0.912-0.288l0.192-0.9
			c0.28,0.128,0.574,0.234,0.882,0.318c0.308,0.084,0.638,0.126,0.99,0.126C97.76,202.351,98.212,202.123,98.212,201.667z"/>
		<path d="M105.52,200.274c0,0.44-0.062,0.838-0.186,1.194c-0.124,0.355-0.298,0.662-0.522,0.918
			c-0.224,0.256-0.492,0.454-0.804,0.594s-0.652,0.21-1.02,0.21c-0.36,0-0.694-0.07-1.002-0.21s-0.574-0.338-0.798-0.594
			s-0.398-0.562-0.522-0.918c-0.124-0.356-0.186-0.754-0.186-1.194c0-0.439,0.062-0.84,0.186-1.2
			c0.124-0.359,0.298-0.666,0.522-0.918s0.49-0.447,0.798-0.588c0.308-0.14,0.642-0.21,1.002-0.21c0.368,0,0.708,0.07,1.02,0.21
			c0.312,0.141,0.58,0.336,0.804,0.588c0.224,0.252,0.398,0.559,0.522,0.918C105.458,199.435,105.52,199.835,105.52,200.274z
			 M104.5,200.274c0-0.632-0.136-1.13-0.408-1.494c-0.272-0.363-0.64-0.546-1.104-0.546c-0.456,0-0.818,0.183-1.086,0.546
			c-0.268,0.364-0.402,0.862-0.402,1.494c0,0.624,0.134,1.118,0.402,1.482s0.63,0.546,1.086,0.546c0.464,0,0.832-0.182,1.104-0.546
			S104.5,200.898,104.5,200.274z"/>
		<path d="M115.108,197.358c0.752,0,1.332,0.234,1.74,0.702c0.408,0.468,0.612,1.178,0.612,2.13v0.349h-3.984
			c0.04,0.575,0.23,1.014,0.57,1.313s0.818,0.45,1.434,0.45c0.352,0,0.652-0.028,0.9-0.084s0.436-0.116,0.564-0.18l0.132,0.84
			c-0.12,0.063-0.336,0.132-0.648,0.204c-0.312,0.071-0.665,0.107-1.056,0.107c-0.48,0-0.902-0.074-1.266-0.222
			c-0.364-0.148-0.666-0.35-0.906-0.606c-0.24-0.256-0.42-0.562-0.54-0.918c-0.12-0.355-0.18-0.741-0.18-1.158
			c0-0.495,0.076-0.928,0.228-1.296c0.152-0.367,0.352-0.672,0.6-0.912c0.248-0.239,0.528-0.42,0.84-0.539
			C114.46,197.419,114.78,197.358,115.108,197.358z M116.452,199.734c0-0.472-0.125-0.846-0.372-1.122
			c-0.248-0.275-0.576-0.414-0.984-0.414c-0.232,0-0.442,0.044-0.63,0.133c-0.188,0.088-0.35,0.203-0.486,0.348
			c-0.136,0.144-0.244,0.308-0.324,0.492c-0.08,0.184-0.132,0.372-0.156,0.563H116.452z"/>
		<path d="M118.492,197.646c0.48-0.184,0.932-0.276,1.356-0.276c0.232,0,0.45,0.034,0.654,0.103s0.378,0.174,0.522,0.318
			c0.344-0.28,0.712-0.421,1.104-0.421c0.192,0,0.374,0.036,0.546,0.108s0.324,0.18,0.456,0.324c0.132,0.144,0.238,0.324,0.318,0.54
			c0.08,0.216,0.12,0.468,0.12,0.756v3.96h-0.9v-3.984c0-0.288-0.064-0.508-0.192-0.659c-0.128-0.152-0.288-0.229-0.48-0.229
			c-0.096,0-0.196,0.024-0.3,0.072s-0.2,0.124-0.288,0.228c0.048,0.185,0.072,0.389,0.072,0.612v1.812h-0.9v-1.823
			c0-0.28-0.044-0.5-0.132-0.66c-0.088-0.16-0.26-0.24-0.516-0.24c-0.16,0-0.34,0.036-0.54,0.108v4.764h-0.9V197.646z"/>
		<path d="M130.588,200.286c0-0.504,0.08-0.939,0.24-1.308c0.16-0.368,0.38-0.672,0.66-0.912c0.28-0.24,0.606-0.418,0.978-0.534
			c0.372-0.115,0.77-0.174,1.194-0.174c0.271,0,0.542,0.019,0.81,0.054c0.268,0.036,0.554,0.103,0.858,0.198l-0.228,0.853
			c-0.264-0.097-0.506-0.158-0.726-0.187c-0.22-0.027-0.442-0.042-0.666-0.042c-0.288,0-0.56,0.038-0.816,0.114
			c-0.256,0.076-0.478,0.196-0.666,0.36s-0.338,0.376-0.45,0.636s-0.168,0.574-0.168,0.941c0,0.353,0.052,0.654,0.156,0.906
			c0.104,0.252,0.25,0.46,0.438,0.624c0.188,0.164,0.414,0.286,0.678,0.366c0.264,0.08,0.556,0.12,0.876,0.12
			c0.256,0,0.502-0.014,0.738-0.042c0.236-0.028,0.494-0.09,0.774-0.187l0.144,0.828c-0.28,0.104-0.564,0.178-0.852,0.223
			c-0.288,0.044-0.6,0.065-0.936,0.065c-0.448,0-0.858-0.062-1.23-0.186s-0.692-0.307-0.96-0.546
			c-0.268-0.24-0.476-0.542-0.624-0.906S130.588,200.767,130.588,200.286z"/>
		<path d="M138.964,197.358c0.416,0,0.766,0.053,1.05,0.156c0.284,0.104,0.514,0.248,0.69,0.432c0.176,0.185,0.3,0.408,0.372,0.672
			c0.072,0.265,0.108,0.553,0.108,0.864v3.48c-0.232,0.04-0.538,0.088-0.918,0.144c-0.38,0.056-0.77,0.084-1.17,0.084
			c-0.304,0-0.6-0.026-0.888-0.078s-0.544-0.144-0.768-0.275s-0.404-0.314-0.54-0.546c-0.136-0.232-0.204-0.528-0.204-0.889
			c0-0.319,0.07-0.59,0.21-0.81c0.14-0.22,0.32-0.398,0.54-0.534c0.22-0.136,0.472-0.234,0.756-0.294
			c0.284-0.06,0.57-0.09,0.858-0.09c0.392,0,0.776,0.044,1.152,0.132v-0.276c0-0.168-0.018-0.33-0.054-0.485
			c-0.036-0.156-0.104-0.298-0.204-0.427c-0.1-0.128-0.236-0.229-0.408-0.306s-0.394-0.114-0.666-0.114
			c-0.344,0-0.644,0.024-0.9,0.072c-0.256,0.048-0.452,0.096-0.588,0.145l-0.12-0.816c0.136-0.064,0.362-0.12,0.678-0.168
			C138.266,197.383,138.604,197.358,138.964,197.358z M139.06,202.351c0.248,0,0.47-0.008,0.666-0.024
			c0.196-0.016,0.358-0.035,0.486-0.06v-1.656c-0.128-0.04-0.282-0.071-0.462-0.096s-0.37-0.036-0.57-0.036
			c-0.184,0-0.364,0.014-0.54,0.042c-0.176,0.028-0.332,0.078-0.468,0.15c-0.136,0.071-0.248,0.166-0.336,0.281
			c-0.088,0.116-0.132,0.263-0.132,0.438c0,0.36,0.122,0.61,0.366,0.75S138.644,202.351,139.06,202.351z"/>
		<path d="M146.212,201.667c0-0.2-0.082-0.364-0.246-0.492s-0.368-0.24-0.612-0.336c-0.244-0.097-0.51-0.19-0.798-0.282
			s-0.554-0.206-0.798-0.342s-0.448-0.304-0.612-0.504s-0.246-0.46-0.246-0.78c0-0.448,0.182-0.822,0.546-1.122
			c0.364-0.3,0.934-0.45,1.71-0.45c0.304,0,0.618,0.022,0.942,0.066c0.324,0.044,0.602,0.102,0.834,0.174l-0.18,0.888
			c-0.064-0.031-0.152-0.065-0.264-0.102c-0.112-0.036-0.24-0.068-0.384-0.096c-0.144-0.028-0.298-0.051-0.462-0.066
			c-0.164-0.016-0.322-0.024-0.474-0.024c-0.864,0-1.296,0.236-1.296,0.708c0,0.168,0.082,0.311,0.246,0.427
			c0.164,0.115,0.37,0.222,0.618,0.317c0.248,0.097,0.516,0.194,0.804,0.294c0.288,0.101,0.556,0.223,0.804,0.366
			c0.248,0.145,0.454,0.318,0.618,0.522c0.164,0.203,0.246,0.462,0.246,0.773c0,0.504-0.196,0.895-0.588,1.17
			c-0.392,0.276-1.012,0.414-1.86,0.414c-0.384,0-0.736-0.032-1.056-0.096c-0.32-0.064-0.624-0.16-0.912-0.288l0.192-0.9
			c0.28,0.128,0.574,0.234,0.882,0.318c0.308,0.084,0.638,0.126,0.99,0.126C145.76,202.351,146.212,202.123,146.212,201.667z"/>
		<path d="M150.964,197.358c0.416,0,0.766,0.053,1.05,0.156c0.284,0.104,0.514,0.248,0.69,0.432c0.176,0.185,0.3,0.408,0.372,0.672
			c0.072,0.265,0.108,0.553,0.108,0.864v3.48c-0.232,0.04-0.538,0.088-0.918,0.144c-0.38,0.056-0.77,0.084-1.17,0.084
			c-0.304,0-0.6-0.026-0.888-0.078s-0.544-0.144-0.768-0.275s-0.404-0.314-0.54-0.546c-0.136-0.232-0.204-0.528-0.204-0.889
			c0-0.319,0.07-0.59,0.21-0.81c0.14-0.22,0.32-0.398,0.54-0.534c0.22-0.136,0.472-0.234,0.756-0.294
			c0.284-0.06,0.57-0.09,0.858-0.09c0.392,0,0.776,0.044,1.152,0.132v-0.276c0-0.168-0.018-0.33-0.054-0.485
			c-0.036-0.156-0.104-0.298-0.204-0.427c-0.1-0.128-0.236-0.229-0.408-0.306s-0.394-0.114-0.666-0.114
			c-0.344,0-0.644,0.024-0.9,0.072c-0.256,0.048-0.452,0.096-0.588,0.145l-0.12-0.816c0.136-0.064,0.362-0.12,0.678-0.168
			C150.266,197.383,150.604,197.358,150.964,197.358z M151.06,202.351c0.248,0,0.47-0.008,0.666-0.024
			c0.196-0.016,0.358-0.035,0.486-0.06v-1.656c-0.128-0.04-0.282-0.071-0.462-0.096s-0.37-0.036-0.57-0.036
			c-0.184,0-0.364,0.014-0.54,0.042c-0.176,0.028-0.332,0.078-0.468,0.15c-0.136,0.071-0.248,0.166-0.336,0.281
			c-0.088,0.116-0.132,0.263-0.132,0.438c0,0.36,0.122,0.61,0.366,0.75S150.644,202.351,151.06,202.351z"/>
	</g>
</g>
<rect fill="none" width="648" height="212"/>
</svg>
