<?xml version="1.0" encoding="utf-8"?>
<!-- Generator: Adobe Illustrator 16.0.0, SVG Export Plug-In . SVG Version: 6.00 Build 0)  -->
<!DOCTYPE svg PUBLIC "-//W3C//DTD SVG 1.1//EN" "http://www.w3.org/Graphics/SVG/1.1/DTD/svg11.dtd">
<svg version="1.1" id="Layer_1" xmlns="http://www.w3.org/2000/svg" xmlns:xlink="http://www.w3.org/1999/xlink" x="0px" y="0px"
	 width="648px" height="200px" viewBox="0 0 648 200" enable-background="new 0 0 648 200" xml:space="preserve">
<circle fill="#F0F0F0" cx="324" cy="100" r="80"/>
<path fill="#42B3C6" d="M246.146,81.619C244.758,87.523,244,93.672,244,100c0,44.182,35.817,80,80,80c44.182,0,80-35.818,80-80
	s-35.818-80-80-80v80L246.146,81.619z"/>
<g>
	<path fill="#42B3C6" d="M324,1c54.589,0,99,44.411,99,99s-44.411,99-99,99s-99-44.411-99-99S269.411,1,324,1 M324,0
		c-55.229,0-100,44.772-100,100s44.771,100,100,100s100-44.772,100-100S379.229,0,324,0L324,0z"/>
</g>
<circle fill="#FFFFFF" cx="324" cy="100" r="60"/>
<g>
	<text transform="matrix(1 0 0 1 292.5 95.2896)"><tspan x="0" y="0" fill="#42B3C6" font-family="'UbuntuMono-Regular'" font-size="18">Gráfico</tspan><tspan x="13.5" y="21.599" fill="#42B3C6" font-family="'UbuntuMono-Regular'" font-size="18">aqui</tspan></text>
</g>
<rect fill="none" width="648" height="200"/>
</svg>
