<?xml version="1.0" encoding="utf-8"?>
<!-- Generator: Adobe Illustrator 16.0.0, SVG Export Plug-In . SVG Version: 6.00 Build 0)  -->
<!DOCTYPE svg PUBLIC "-//W3C//DTD SVG 1.1//EN" "http://www.w3.org/Graphics/SVG/1.1/DTD/svg11.dtd">
<svg version="1.1" id="Layer_1" xmlns="http://www.w3.org/2000/svg" xmlns:xlink="http://www.w3.org/1999/xlink" x="0px" y="0px"
	 width="648px" height="200px" viewBox="0 0 648 200" enable-background="new 0 0 648 200" xml:space="preserve">
<circle fill="#F0F0F0" cx="324" cy="100" r="80"/>
<path fill="#42B3C6" d="M246.146,81.619C244.758,87.523,244,93.672,244,100c0,44.182,35.817,80,80,80c44.182,0,80-35.818,80-80
	c0-44.182-35.818-80-80-80v80L246.146,81.619z"/>
<g>
	<path fill="#42B3C6" d="M324,1c54.589,0,99,44.411,99,99s-44.411,99-99,99s-99-44.411-99-99S269.411,1,324,1 M324,0
		c-55.229,0-100,44.772-100,100c0,55.229,44.771,100,100,100c55.229,0,100-44.771,100-100C424,44.772,379.229,0,324,0L324,0z"/>
</g>
<circle fill="#FFFFFF" cx="324" cy="100" r="60"/>
<g enable-background="new    ">
	<path fill="#42B3C6" d="M299.214,89.8h1.476v5.221c-0.228,0.084-0.594,0.188-1.098,0.314c-0.504,0.126-1.098,0.189-1.782,0.189
		c-0.672,0-1.284-0.13-1.836-0.388c-0.552-0.258-1.023-0.633-1.413-1.125c-0.39-0.491-0.693-1.101-0.909-1.827
		c-0.216-0.726-0.324-1.551-0.324-2.475c0-0.936,0.12-1.764,0.36-2.484c0.24-0.72,0.567-1.325,0.981-1.817s0.897-0.867,1.449-1.125
		c0.552-0.258,1.146-0.387,1.782-0.387c0.408,0,0.768,0.029,1.08,0.09c0.312,0.06,0.579,0.132,0.801,0.216s0.405,0.171,0.549,0.261
		s0.252,0.159,0.324,0.207l-0.486,1.242c-0.276-0.216-0.603-0.393-0.981-0.531c-0.378-0.138-0.777-0.207-1.197-0.207
		c-0.457,0-0.879,0.108-1.269,0.324c-0.39,0.216-0.723,0.522-0.999,0.918c-0.276,0.396-0.492,0.873-0.648,1.431
		c-0.156,0.559-0.234,1.18-0.234,1.863c0,0.672,0.069,1.284,0.207,1.836c0.138,0.552,0.339,1.026,0.603,1.422
		c0.264,0.396,0.591,0.705,0.981,0.928c0.39,0.222,0.837,0.333,1.341,0.333c0.348,0,0.618-0.024,0.81-0.072
		c0.191-0.048,0.335-0.096,0.432-0.145V89.8z"/>
	<path fill="#42B3C6" d="M303.426,95.29v-7.902c1.224-0.42,2.46-0.63,3.708-0.63c0.384,0,0.75,0.016,1.098,0.045
		c0.348,0.03,0.732,0.094,1.152,0.189l-0.27,1.313c-0.384-0.107-0.723-0.177-1.017-0.207c-0.294-0.029-0.615-0.045-0.963-0.045
		c-0.732,0-1.476,0.103-2.232,0.307v6.93H303.426z"/>
	<path fill="#42B3C6" d="M314.946,86.74c0.624,0,1.149,0.078,1.575,0.233c0.426,0.156,0.771,0.372,1.035,0.648
		c0.264,0.276,0.45,0.612,0.558,1.008c0.108,0.396,0.162,0.828,0.162,1.296v5.221c-0.348,0.06-0.807,0.132-1.377,0.216
		s-1.155,0.126-1.755,0.126c-0.456,0-0.9-0.039-1.332-0.117s-0.816-0.216-1.152-0.414c-0.336-0.198-0.606-0.471-0.81-0.819
		c-0.204-0.348-0.306-0.792-0.306-1.332c0-0.479,0.105-0.885,0.315-1.215s0.48-0.597,0.81-0.801s0.708-0.351,1.134-0.441
		c0.426-0.09,0.855-0.135,1.287-0.135c0.588,0,1.164,0.066,1.728,0.198v-0.414c0-0.252-0.027-0.495-0.081-0.729
		c-0.054-0.233-0.156-0.446-0.306-0.639c-0.15-0.191-0.354-0.345-0.612-0.459C315.561,88.058,315.228,88,314.82,88
		c-0.516,0-0.966,0.036-1.35,0.108c-0.384,0.071-0.678,0.144-0.882,0.216l-0.18-1.225c0.204-0.096,0.542-0.18,1.017-0.252
		C313.899,86.776,314.406,86.74,314.946,86.74z M315.09,94.229c0.372,0,0.705-0.013,0.999-0.036
		c0.294-0.024,0.537-0.055,0.729-0.091v-2.483c-0.192-0.06-0.423-0.108-0.693-0.145c-0.27-0.035-0.555-0.054-0.855-0.054
		c-0.276,0-0.546,0.021-0.81,0.063c-0.264,0.042-0.498,0.116-0.702,0.225s-0.372,0.249-0.504,0.423
		c-0.132,0.174-0.198,0.394-0.198,0.657c0,0.54,0.183,0.915,0.549,1.125C313.971,94.123,314.466,94.229,315.09,94.229z
		 M316.908,83.771l-2.268,2.195l-0.756-0.666l2.052-2.483L316.908,83.771z"/>
	<path fill="#42B3C6" d="M322.398,95.29v-7.11h-1.764v-1.241h1.764v-0.757c0-0.647,0.09-1.185,0.27-1.61s0.417-0.771,0.711-1.035
		s0.636-0.45,1.026-0.558c0.39-0.108,0.801-0.162,1.234-0.162c0.432,0,0.866,0.048,1.305,0.144c0.438,0.097,0.849,0.21,1.232,0.342
		l-0.27,1.278c-0.264-0.132-0.594-0.246-0.99-0.342s-0.799-0.145-1.206-0.145c-0.252,0-0.489,0.033-0.711,0.1
		c-0.222,0.065-0.417,0.18-0.585,0.342c-0.168,0.162-0.3,0.378-0.396,0.647c-0.096,0.271-0.144,0.609-0.144,1.018v0.738h3.366v1.241
		h-3.366v7.11H322.398z"/>
	<path fill="#42B3C6" d="M331.884,88.18h-2.411v-1.241h3.887v5.13c0,0.828,0.115,1.383,0.343,1.665
		c0.228,0.281,0.569,0.423,1.026,0.423c0.348,0,0.668-0.042,0.963-0.126c0.293-0.084,0.524-0.174,0.692-0.271l0.216,1.261
		c-0.072,0.035-0.174,0.08-0.306,0.135c-0.132,0.054-0.285,0.104-0.459,0.152s-0.366,0.091-0.576,0.126
		c-0.21,0.036-0.429,0.055-0.657,0.055c-0.527,0-0.966-0.072-1.313-0.216c-0.349-0.145-0.628-0.36-0.837-0.648
		c-0.211-0.288-0.357-0.645-0.441-1.071c-0.084-0.426-0.126-0.921-0.126-1.484V88.18z M332.262,85.642
		c-0.312,0-0.582-0.107-0.81-0.323c-0.228-0.217-0.343-0.51-0.343-0.882s0.115-0.666,0.343-0.883
		c0.228-0.216,0.497-0.323,0.81-0.323c0.324,0,0.598,0.107,0.819,0.323c0.222,0.217,0.333,0.511,0.333,0.883
		s-0.111,0.665-0.333,0.882C332.859,85.534,332.586,85.642,332.262,85.642z"/>
	<path fill="#42B3C6" d="M338.382,91.132c0-0.756,0.12-1.41,0.36-1.962s0.57-1.008,0.99-1.368c0.42-0.359,0.908-0.627,1.467-0.801
		c0.558-0.174,1.154-0.261,1.791-0.261c0.408,0,0.812,0.026,1.215,0.081c0.402,0.054,0.83,0.152,1.287,0.297l-0.342,1.278
		c-0.396-0.145-0.76-0.237-1.09-0.279s-0.662-0.063-0.998-0.063c-0.433,0-0.841,0.058-1.225,0.171
		c-0.385,0.114-0.717,0.295-0.999,0.54c-0.282,0.246-0.507,0.564-0.675,0.954c-0.168,0.391-0.252,0.861-0.252,1.413
		c0,0.528,0.078,0.981,0.234,1.359c0.155,0.378,0.375,0.69,0.656,0.936c0.282,0.246,0.621,0.43,1.018,0.549
		c0.396,0.12,0.834,0.181,1.313,0.181c0.384,0,0.753-0.021,1.107-0.063c0.354-0.042,0.741-0.135,1.161-0.278l0.216,1.241
		c-0.421,0.156-0.847,0.268-1.278,0.333c-0.432,0.066-0.9,0.1-1.404,0.1c-0.672,0-1.287-0.094-1.845-0.279s-1.038-0.459-1.44-0.819
		c-0.401-0.359-0.713-0.812-0.936-1.358S338.382,91.852,338.382,91.132z"/>
	<path fill="#42B3C6" d="M354.779,91.114c0,0.66-0.092,1.257-0.278,1.791s-0.447,0.993-0.783,1.377s-0.737,0.681-1.206,0.891
		c-0.468,0.21-0.979,0.315-1.529,0.315c-0.541,0-1.041-0.105-1.504-0.315c-0.461-0.21-0.861-0.507-1.196-0.891
		c-0.337-0.384-0.597-0.843-0.783-1.377s-0.278-1.131-0.278-1.791s0.092-1.26,0.278-1.8s0.446-0.999,0.783-1.377
		c0.335-0.379,0.735-0.673,1.196-0.883c0.463-0.209,0.963-0.314,1.504-0.314c0.551,0,1.062,0.105,1.529,0.314
		c0.469,0.21,0.87,0.504,1.206,0.883c0.336,0.378,0.597,0.837,0.783,1.377S354.779,90.454,354.779,91.114z M353.25,91.114
		c0-0.948-0.204-1.695-0.611-2.241c-0.408-0.546-0.961-0.819-1.656-0.819c-0.685,0-1.228,0.273-1.629,0.819
		c-0.402,0.546-0.604,1.293-0.604,2.241c0,0.936,0.201,1.677,0.604,2.223c0.401,0.546,0.944,0.819,1.629,0.819
		c0.695,0,1.248-0.273,1.656-0.819C353.046,92.791,353.25,92.05,353.25,91.114z"/>
</g>
<g enable-background="new    ">
	<path fill="#42B3C6" d="M310.446,108.339c0.624,0,1.149,0.078,1.575,0.233c0.426,0.156,0.771,0.372,1.035,0.648
		c0.264,0.276,0.45,0.612,0.558,1.008c0.108,0.396,0.162,0.828,0.162,1.296v5.221c-0.348,0.06-0.807,0.132-1.377,0.216
		s-1.155,0.126-1.755,0.126c-0.456,0-0.9-0.039-1.332-0.117s-0.816-0.216-1.152-0.414c-0.336-0.198-0.606-0.471-0.81-0.819
		c-0.204-0.348-0.306-0.792-0.306-1.332c0-0.479,0.105-0.885,0.315-1.215s0.48-0.597,0.81-0.801s0.708-0.351,1.134-0.441
		c0.426-0.09,0.855-0.135,1.287-0.135c0.588,0,1.164,0.066,1.728,0.198v-0.414c0-0.252-0.027-0.495-0.081-0.729
		c-0.054-0.233-0.156-0.446-0.306-0.639c-0.15-0.191-0.354-0.345-0.612-0.459c-0.258-0.113-0.591-0.171-0.999-0.171
		c-0.516,0-0.966,0.036-1.35,0.108c-0.384,0.071-0.678,0.144-0.882,0.216l-0.18-1.225c0.204-0.096,0.542-0.18,1.017-0.252
		C309.399,108.375,309.906,108.339,310.446,108.339z M310.59,115.827c0.372,0,0.705-0.013,0.999-0.036
		c0.294-0.024,0.537-0.055,0.729-0.091v-2.483c-0.192-0.06-0.423-0.108-0.693-0.145c-0.27-0.035-0.555-0.054-0.855-0.054
		c-0.276,0-0.546,0.021-0.81,0.063c-0.264,0.042-0.498,0.116-0.702,0.225s-0.372,0.249-0.504,0.423
		c-0.132,0.174-0.198,0.394-0.198,0.657c0,0.54,0.183,0.915,0.549,1.125C309.471,115.722,309.966,115.827,310.59,115.827z"/>
	<path fill="#42B3C6" d="M315.72,112.73c0-0.672,0.096-1.277,0.288-1.817s0.462-0.999,0.81-1.377
		c0.348-0.379,0.771-0.669,1.269-0.873s1.047-0.307,1.647-0.307c0.648,0,1.221,0.052,1.719,0.153
		c0.498,0.102,0.921,0.201,1.269,0.297v11.052h-1.494v-3.294c-0.18,0.12-0.438,0.237-0.774,0.352
		c-0.336,0.113-0.714,0.171-1.134,0.171c-0.564,0-1.068-0.108-1.512-0.324c-0.444-0.216-0.819-0.516-1.125-0.9
		c-0.306-0.384-0.543-0.843-0.711-1.377C315.804,113.952,315.72,113.367,315.72,112.73z M317.25,112.73
		c0,0.433,0.045,0.831,0.135,1.197c0.09,0.366,0.225,0.684,0.405,0.954c0.18,0.27,0.411,0.483,0.693,0.639
		c0.282,0.156,0.621,0.234,1.017,0.234c0.348,0,0.684-0.066,1.008-0.198c0.324-0.132,0.57-0.275,0.738-0.432v-5.274
		c-0.132-0.048-0.315-0.09-0.549-0.126c-0.234-0.036-0.555-0.054-0.963-0.054c-0.732,0-1.329,0.267-1.791,0.801
		S317.25,111.759,317.25,112.73z"/>
	<path fill="#42B3C6" d="M331.723,116.654c-0.324,0.084-0.754,0.175-1.287,0.271c-0.535,0.096-1.162,0.144-1.881,0.144
		c-0.637,0-1.164-0.093-1.584-0.278c-0.421-0.187-0.763-0.45-1.027-0.792c-0.264-0.343-0.449-0.747-0.557-1.216
		c-0.109-0.468-0.162-0.983-0.162-1.548v-4.697h1.476v4.374c0,1.031,0.153,1.764,0.459,2.195c0.306,0.433,0.819,0.648,1.539,0.648
		c0.155,0,0.315-0.006,0.477-0.019c0.162-0.012,0.315-0.026,0.459-0.045c0.144-0.018,0.271-0.036,0.378-0.054
		c0.108-0.018,0.18-0.033,0.217-0.045v-7.056h1.494V116.654z"/>
	<path fill="#42B3C6" d="M336.384,109.778h-2.411v-1.241h3.887v5.13c0,0.828,0.115,1.383,0.343,1.665
		c0.228,0.281,0.569,0.423,1.026,0.423c0.348,0,0.668-0.042,0.963-0.126c0.293-0.084,0.524-0.174,0.692-0.271l0.216,1.261
		c-0.072,0.035-0.174,0.08-0.306,0.135c-0.132,0.054-0.285,0.104-0.459,0.152s-0.366,0.091-0.576,0.126
		c-0.21,0.036-0.429,0.055-0.657,0.055c-0.527,0-0.966-0.072-1.313-0.216c-0.349-0.145-0.628-0.36-0.837-0.648
		c-0.211-0.288-0.357-0.645-0.441-1.071c-0.084-0.426-0.126-0.921-0.126-1.484V109.778z M336.762,107.24
		c-0.312,0-0.582-0.107-0.81-0.323c-0.228-0.217-0.343-0.51-0.343-0.882s0.115-0.666,0.343-0.883
		c0.228-0.216,0.497-0.323,0.81-0.323c0.324,0,0.598,0.107,0.819,0.323c0.222,0.217,0.333,0.511,0.333,0.883
		s-0.111,0.665-0.333,0.882C337.359,107.133,337.086,107.24,336.762,107.24z"/>
</g>
<rect fill="none" width="648" height="200"/>
</svg>
